<svg width="1000" height="1000" viewBox="0 0 1000 1000" fill="none" xmlns="http://www.w3.org/2000/svg">
<path fill-rule="evenodd" clip-rule="evenodd" d="M144.254 96V636.881C144.254 679.631 149.748 696.082 162.897 718.928L163.618 720.219L164.458 721.45C201.53 777.324 251.852 823.158 310.938 854.863C370.023 886.568 436.036 903.161 503.091 903.161C570.146 903.161 636.158 886.568 695.244 854.863C754.329 823.158 804.651 777.324 841.723 721.45L842.534 720.219L843.284 718.928C856.433 696.082 861.927 679.631 861.927 636.881V96H144.254Z" fill="white"/>
<path d="M152.63 104.406V636.821C152.63 679.541 158.394 693.861 170.313 714.725L170.853 715.806L171.363 716.886C207.717 771.571 257.026 816.42 314.902 847.442C372.778 878.465 437.425 894.698 503.091 894.698C568.757 894.698 633.404 878.465 691.28 847.442C749.156 816.42 798.465 771.571 834.819 716.886L835.629 715.806L836.17 714.725C848.178 694.041 853.582 679.571 853.582 636.821V104.406H152.63ZM163.348 115.093H842.744V636.821C842.744 677.169 837.881 689.928 826.683 709.381L826.143 710.192L825.873 710.702C790.547 763.958 742.591 807.643 686.281 837.863C629.971 868.084 567.058 883.899 503.151 883.899C439.244 883.899 376.331 868.084 320.021 837.863C263.711 807.643 215.755 763.958 180.429 710.702L179.889 710.192L179.349 709.381C168.181 689.928 163.288 677.139 163.288 636.821V115.093H163.348ZM168.061 119.656V636.821C168.061 676.028 172.594 688.247 183.341 706.98L183.852 707.76L184.122 708.301C219.03 760.899 266.409 804.044 322.037 833.89C377.665 863.735 439.813 879.354 502.941 879.354C566.069 879.354 628.217 863.735 683.845 833.89C739.473 804.044 786.852 760.899 821.76 708.301L822.3 707.76L822.57 706.98C833.318 688.277 838.091 676.058 838.091 636.821V119.656H168.061ZM187.334 139.2H818.638V636.821C818.638 673.717 814.405 682.363 805.789 697.343C772.658 747.317 727.672 788.313 674.844 816.672C622.016 845.032 562.99 859.874 503.031 859.874C443.072 859.874 384.046 845.032 331.218 816.672C278.39 788.313 233.404 747.317 200.273 697.343C191.687 682.333 187.424 673.717 187.424 636.821V139.2H187.334Z" fill="#0F2D5B"/>
<path d="M463.164 159.824V224.578C456.214 217.595 446.778 213.654 436.926 213.621C415.311 213.621 397.899 232.834 397.899 256.46C397.899 280.086 415.371 298.999 436.926 298.999C441.868 298.978 446.756 297.975 451.307 296.047C455.858 294.12 459.98 291.307 463.434 287.772V298.219H489.282V159.824H463.164ZM727.915 160.604V298.489H753.853V160.604H727.915ZM772.076 160.604V298.489H798.044V160.604H772.076ZM205.917 167.299V298.219H233.746V189.784H250.348C252.665 189.692 254.977 190.065 257.147 190.883C259.317 191.701 261.3 192.946 262.98 194.545C264.66 196.143 266.002 198.063 266.926 200.19C267.85 202.317 268.338 204.607 268.36 206.926C268.275 209.265 267.729 211.563 266.755 213.691C265.781 215.818 264.397 217.732 262.682 219.325C260.967 220.917 258.956 222.155 256.762 222.969C254.568 223.783 252.235 224.156 249.897 224.068H243.383V255.379L271.212 298.219H303.874L265.328 243.611C274.731 241.564 283.031 236.079 288.601 228.231C294.17 220.383 296.608 210.737 295.436 201.185C294.263 191.633 289.565 182.863 282.263 176.595C274.961 170.326 265.581 167.011 255.961 167.299C255.301 167.299 252.329 167.299 251.668 167.299H205.917ZM525.006 168.049V298.219H582.826C604.921 297.859 622.693 281.227 622.693 260.723C622.693 245.713 617.59 235.176 599.938 227.01C603.395 223.99 606.199 220.295 608.178 216.153C610.157 212.011 611.269 207.508 611.446 202.921C611.623 198.334 610.861 193.759 609.208 189.476C607.554 185.194 605.043 181.294 601.829 178.016C595.585 171.142 584.627 168.11 569.707 168.11L525.006 168.049ZM552.835 190.535H570.487C574.066 190.701 577.443 192.24 579.917 194.831C582.39 197.422 583.77 200.867 583.77 204.449C583.77 208.032 582.39 211.477 579.917 214.068C577.443 216.659 574.066 218.198 570.487 218.364H561.481V241.66H578.083C582.557 241.66 586.849 243.438 590.013 246.602C593.177 249.766 594.954 254.057 594.954 258.532C594.954 263.006 593.177 267.298 590.013 270.462C586.849 273.626 582.557 275.403 578.083 275.403H552.925L552.835 190.535ZM343.231 213.561C331.623 213.561 320.49 218.172 312.281 226.381C304.073 234.589 299.461 245.722 299.461 257.331C299.461 268.939 304.073 280.072 312.281 288.281C320.49 296.489 331.623 301.101 343.231 301.101C361.454 301.101 375.804 292.845 383.129 279.936L361.694 270.12C360.212 273.186 357.892 275.77 355.001 277.572C352.111 279.373 348.769 280.318 345.363 280.297C343.131 280.385 340.904 280.033 338.808 279.259C336.713 278.486 334.79 277.308 333.151 275.791C331.511 274.274 330.187 272.449 329.253 270.42C328.32 268.391 327.796 266.197 327.711 263.965C327.711 263.395 327.38 263.455 327.44 262.915H385.26C385.457 261.13 385.547 259.336 385.53 257.541C385.921 229.201 367.098 213.621 343.231 213.621V213.561ZM631.789 218.094V270.36C631.789 288.012 650.222 302.212 672.768 302.212C695.313 302.212 713.446 288.132 713.446 270.36V218.154H687.748V265.286C687.748 269.267 686.166 273.085 683.351 275.9C680.536 278.715 676.719 280.297 672.738 280.297C668.757 280.297 664.939 278.715 662.124 275.9C659.309 273.085 657.727 269.267 657.727 265.286V218.154L631.789 218.094ZM343.592 231.753C347.844 231.777 351.915 233.477 354.922 236.484C357.929 239.49 359.629 243.562 359.653 247.814H327.531C327.562 243.585 329.254 239.538 332.241 236.545C335.229 233.552 339.273 231.853 343.501 231.813L343.592 231.753ZM444.521 236.046C455.118 236.046 463.524 245.593 463.524 257.061C463.524 268.528 455.118 278.075 444.521 278.075C441.872 277.971 439.27 277.344 436.865 276.229C434.46 275.115 432.299 273.535 430.508 271.582C428.716 269.628 427.329 267.339 426.426 264.847C425.523 262.355 425.123 259.708 425.248 257.061C425.158 245.653 433.803 236.106 444.431 236.106L444.521 236.046Z" fill="#E41349"/>
<path fill-rule="evenodd" clip-rule="evenodd" d="M689.579 478.793C689.579 515.88 678.581 552.134 657.976 582.97C637.371 613.807 608.084 637.84 573.819 652.031C539.555 666.222 501.852 669.934 465.478 662.697C429.104 655.459 395.693 637.598 369.471 611.371C343.248 585.144 325.392 551.731 318.16 515.356C310.929 478.98 314.646 441.278 328.843 407.016C343.04 372.753 367.078 343.471 397.917 322.87C428.757 302.27 465.013 291.278 502.1 291.284C551.825 291.292 599.511 311.051 634.669 346.215C669.827 381.379 689.579 429.068 689.579 478.793Z" fill="#FDD205"/>
<path d="M665.142 539.615C663.251 535.982 656.706 527.967 657.577 522.863C662.38 523.464 669.585 523.494 672.407 523.644C671.537 525.205 666.073 537.753 665.142 539.615ZM999.452 595.303C999.064 593.869 998.603 592.457 998.071 591.07L997.651 589.929C997.29 588.999 996.96 588.098 996.6 587.077C996.45 586.657 996.33 586.207 996.24 585.846C996.211 585.577 996.211 585.305 996.24 585.036C996.699 580.898 995.632 576.734 993.238 573.328C992.731 572.272 991.974 571.356 991.032 570.66C990.09 569.964 988.992 569.509 987.834 569.335C987.635 569.864 987.277 570.319 986.81 570.636C986.342 570.953 985.787 571.117 985.222 571.106H984.622C983.907 570.948 983.274 570.535 982.843 569.943C982.412 569.352 982.212 568.623 982.28 567.894C982.28 567.534 982.28 567.144 982.28 566.723C982.334 565.329 982.002 563.947 981.319 562.731C979.518 559.368 966.639 548.771 961.746 548.771C959.574 548.875 957.45 549.449 955.522 550.455C953.593 551.461 951.907 552.873 950.578 554.595C950.319 554.918 949.99 555.177 949.615 555.354C949.241 555.531 948.831 555.62 948.417 555.616H948.147C947.684 555.572 947.239 555.415 946.851 555.159C946.464 554.902 946.145 554.554 945.925 554.145C945.491 553.319 945.11 552.467 944.784 551.593C943.994 549.307 943.362 546.97 942.893 544.598L942.503 542.827C941.152 536.823 939.14 530.819 931.155 528.537C930.339 528.321 929.505 528.18 928.663 528.117C927.793 528.117 926.862 528.117 925.901 527.967H925.181C923.545 527.971 921.91 527.871 920.287 527.666C917.015 527.186 914.824 526.135 914.824 522.443C914.827 522.137 914.878 521.833 914.974 521.542L915.844 519.021C916.788 516.392 917.561 513.704 918.156 510.975C919.532 505.376 919.645 499.541 918.486 493.893C918.423 493.482 918.445 493.063 918.553 492.662C918.66 492.26 918.849 491.885 919.109 491.561C919.369 491.236 919.693 490.969 920.061 490.776C920.429 490.583 920.833 490.469 921.248 490.441H921.668C923.873 490.786 926.101 490.967 928.333 490.981C945.595 490.951 972.613 479.874 972.613 450.243C972.613 433.132 958.744 416.86 947.126 406.203C946.765 405.85 946.499 405.412 946.352 404.93C946.205 404.447 946.182 403.935 946.285 403.441C946.41 402.949 946.666 402.499 947.025 402.14C947.385 401.78 947.834 401.525 948.327 401.4C964.838 397.077 973.964 386.089 973.964 370.418V369.188C974.029 366.447 973.868 363.706 973.484 360.992C972.773 356.791 971.177 352.79 968.801 349.254C968.637 348.982 968.403 348.76 968.122 348.612C967.842 348.464 967.526 348.395 967.21 348.413C966.981 348.381 966.748 348.381 966.519 348.413C965.864 348.626 965.246 348.94 964.688 349.344C963.157 350.365 960.935 352.346 959.134 353.787C956.82 355.676 954.158 357.094 951.299 357.96C949.227 358.62 947.066 359.221 944.784 359.791L941.062 360.812C931.391 363.245 922.458 367.995 915.034 374.651C910.458 378.901 907.695 384.749 907.319 390.983C907.305 396.874 909.367 402.581 913.143 407.104C917.168 412.342 921.671 417.196 926.592 421.604L928.363 423.315L933.587 428.628C936.198 431.24 938.18 433.372 939.801 435.353C943.127 438.79 945.182 443.259 945.625 448.022C945.625 456.007 939.921 461.381 931.245 461.381C921.638 461.381 914.283 457.628 904.016 450.874L899.213 447.631C895.791 445.35 892.278 442.978 888.376 440.517C881.761 436.341 874.859 432.639 867.721 429.439C864.005 427.779 860.159 426.424 856.223 425.386C853.221 424.606 850.429 424.005 847.728 423.435L846.527 423.225C840.47 422.297 834.662 420.164 829.445 416.95L824.522 413.618C821.52 411.637 818.518 409.595 815.516 407.614C810.852 404.538 805.805 402.086 800.505 400.319C799.022 399.873 797.506 399.542 795.972 399.328L793.661 399.028L791.829 398.788C789.132 398.513 786.518 397.696 784.144 396.386C782.553 395.456 781.142 394.435 779.341 393.204C778.14 392.303 776.999 391.403 775.828 390.472L775.018 389.842C771.453 386.992 767.646 384.461 763.64 382.277C756.69 378.72 749.301 376.096 741.665 374.471L740.374 374.141C737.822 373.511 735.601 373 733.709 372.37C732.83 372.107 731.976 371.765 731.158 371.349C730.837 371.176 730.526 370.986 730.227 370.779C730.042 370.624 729.871 370.453 729.717 370.268C713.295 349.614 693.692 347.993 687.958 347.993C686.744 348 685.532 348.07 684.325 348.203C677.751 348.924 669.885 354.718 663.041 360.211C660.579 362.223 658.057 364.384 655.506 366.576C650.312 370.989 644.968 375.582 639.715 379.305C612.516 398.638 602.669 406.323 589.79 420.463C572.378 439.466 566.885 463.632 562.081 484.947L561.721 486.478C559.579 496.915 556.802 507.211 553.405 517.309C550.029 527.449 544.545 536.759 537.314 544.628C534.633 547.474 531.797 550.17 528.819 552.704C527.597 553.778 526.314 554.78 524.976 555.706L524.285 556.216C523.014 556.907 522.01 558.003 521.433 559.331C520.856 560.658 520.74 562.14 521.103 563.541C522.184 566.933 526.537 570.446 533.922 570.596C534.341 570.602 534.754 570.703 535.129 570.89C535.504 571.078 535.833 571.347 536.089 571.679C536.346 572.01 536.525 572.396 536.612 572.806C536.699 573.216 536.693 573.641 536.594 574.048C536.434 574.632 536.418 575.246 536.549 575.837C536.68 576.429 536.953 576.979 537.344 577.441C539.889 579.961 543.283 581.438 546.861 581.583H548.032C554.245 581.646 560.402 580.409 566.109 577.954C571.816 575.498 576.948 571.877 581.175 567.324C581.437 567.047 581.754 566.827 582.105 566.677C582.456 566.527 582.834 566.451 583.216 566.453C583.921 566.46 584.601 566.715 585.137 567.174C589.039 570.619 594.104 572.454 599.307 572.307H599.967C602.658 572.26 605.343 572.07 608.013 571.737C609.274 571.737 610.505 571.437 611.676 571.376H613.537H614.708C616.828 571.662 618.911 572.176 620.922 572.908C622.813 573.568 624.825 574.348 626.926 575.099L628.757 575.82C633.367 577.849 638.273 579.126 643.287 579.602H644.038C647.643 579.417 651.093 578.077 653.878 575.779C656.662 573.481 658.633 570.348 659.498 566.843C659.668 566.268 660.02 565.763 660.503 565.405C660.985 565.048 661.57 564.857 662.17 564.862C662.788 564.879 663.382 565.101 663.86 565.492C664.338 565.883 664.673 566.422 664.812 567.023C665.082 568.104 665.352 569.155 665.653 570.176C666.734 574.682 669.126 578.766 672.527 581.914C673.679 582.825 675.061 583.396 676.52 583.565C678.797 583.88 681.096 584.021 683.395 583.985C684.01 583.995 684.607 584.194 685.106 584.556C685.645 585.004 686.157 585.485 686.637 585.996C687.297 586.657 687.988 587.347 688.648 587.888C689.374 588.56 690.219 589.089 691.14 589.449C705.52 594.312 724.163 599.626 733.589 599.776H733.949C746.738 599.776 751.091 587.498 752.382 582.214C752.506 581.69 752.778 581.212 753.167 580.839C753.556 580.466 754.045 580.214 754.574 580.112C766.582 577.771 773.036 559.819 773.006 556.756C773.006 550.992 770.725 548.711 765.021 548.291H744.217C743.749 548.304 743.286 548.374 742.836 548.501C742.577 548.544 742.313 548.544 742.055 548.501C741.579 548.503 741.111 548.383 740.696 548.152C740.28 547.92 739.932 547.586 739.683 547.18C739.363 546.638 738.928 546.172 738.41 545.815C737.891 545.457 737.302 545.216 736.681 545.108C736.17 544.988 735.703 544.728 735.332 544.357C734.96 543.985 734.7 543.518 734.58 543.007C734.491 542.52 734.524 542.018 734.676 541.547C734.828 541.075 735.094 540.649 735.45 540.305C735.901 539.945 736.291 539.585 736.681 539.224C737.221 538.748 737.913 538.482 738.633 538.474C741.635 538.474 746.978 538.804 752.232 538.804C754.544 538.804 756.825 538.804 758.777 538.804C762.949 538.564 766.462 538.144 770.154 537.723C777.033 536.834 783.962 536.382 790.899 536.372L810.502 537.303C814.324 537.35 818.13 536.814 821.79 535.712C822.068 535.668 822.352 535.668 822.63 535.712C823.169 535.712 823.698 535.857 824.161 536.132C824.506 536.365 824.799 536.666 825.021 537.017C825.243 537.369 825.39 537.763 825.452 538.174C826.392 547.194 829.604 555.829 834.789 563.271C836.173 565.103 837.858 566.686 839.772 567.954C840.883 568.705 842.054 569.395 843.224 570.116L845.296 571.376C850.399 574.559 856.794 578.581 864.779 578.551C866.988 578.549 869.187 578.267 871.324 577.711C873.716 577.092 876.178 576.789 878.649 576.81C879.873 576.805 881.096 576.875 882.311 577.02C885.099 577.361 887.858 577.903 890.567 578.641L891.137 578.792C894.913 579.74 898.525 581.247 901.855 583.265C904.521 584.808 907.097 586.502 909.57 588.338L910.2 588.818C914.854 592.361 919.687 596.023 926.442 596.023H927.252C927.651 595.994 928.045 595.913 928.423 595.783L929.744 595.393L932.746 594.192C933.908 593.69 935.114 593.298 936.348 593.021H936.919C937.378 593.028 937.828 593.146 938.231 593.366C938.634 593.585 938.977 593.9 939.23 594.282C939.591 594.793 939.951 595.363 940.311 595.963C941.002 597.044 941.692 598.185 942.563 599.326C945.174 602.688 949.888 607.161 960.965 607.431H963.967C967.622 607.473 971.275 607.242 974.895 606.741H975.345C975.927 606.76 976.49 606.948 976.966 607.281C978.078 608.075 979.413 608.495 980.779 608.482C984.526 608.324 988.224 607.574 991.736 606.26C993.58 605.621 995.328 604.732 996.93 603.619C998.44 602.69 999.519 601.2 999.932 599.476C1000.09 598.095 999.969 596.695 999.572 595.363M349.025 528.117C347.104 530.488 344.222 531.119 341.61 535.862C336.326 533.791 335.396 526.856 334.435 523.854C338.638 523.103 348.605 521.182 353.828 520.401C351.761 522.663 350.132 525.289 349.025 528.147M474.421 550.032C469.919 547.279 466.246 543.357 463.794 538.684C462.833 537.063 461.963 535.442 461.122 533.851L460.131 531.989C459.015 529.82 457.731 527.743 456.289 525.775C455.651 524.978 454.969 524.216 454.247 523.494L452.116 521.242C451.455 520.552 450.825 519.861 450.285 519.201C449.862 518.678 449.508 518.103 449.234 517.489C439.868 493.473 437.676 479.934 434.224 456.067C432.482 443.789 424.947 433.852 412.789 418.932C411.258 417.07 409.547 414.879 407.745 412.537C406.515 410.946 405.224 409.265 403.903 407.614C400.851 403.647 397.563 399.868 394.056 396.296L382.348 386.389C377.395 382.187 373.342 378.614 369.319 375.432C363.09 370.219 356.597 365.329 349.866 360.782C341.449 354.88 331.446 351.657 321.166 351.535C314.045 351.337 307.007 353.092 300.812 356.609C293.795 361.588 286.267 365.804 278.357 369.188C273.043 371.409 267.549 373.18 260.554 375.462L253.319 377.864C246.749 380.2 240.767 383.939 235.787 388.821L233.025 391.493C232.035 392.424 231.104 393.354 230.234 394.135C229.037 395.395 227.611 396.414 226.031 397.137C224.073 397.683 222.058 397.996 220.027 398.067L215.584 398.308H212.581C204.764 399.197 197.418 402.503 191.567 407.764C189.135 409.745 186.854 411.817 184.662 413.768L183.612 414.729C181.486 416.734 179.207 418.571 176.797 420.223C170.947 423.663 164.309 425.534 157.524 425.656C153.887 425.951 150.27 426.442 146.686 427.127C142.158 428.075 137.755 429.546 133.567 431.51C128.051 434.209 122.769 437.362 117.776 440.937C115.135 442.768 112.553 444.629 110.001 446.521L103.246 451.354C93.1895 458.409 84.5435 463.122 75.1771 463.122C65.8106 463.122 59.3862 457.718 58.4856 449.343C57.7051 441.958 61.4877 434.332 69.1129 428.328L73.3158 424.966C76.3179 422.444 79.3199 420.103 82.0518 417.821C85.6621 414.871 88.9434 411.539 91.8385 407.884C94.6241 404.391 96.5127 400.27 97.3394 395.88C98.1662 391.49 97.9061 386.964 96.5818 382.697C94.3603 373.691 87.5756 367.687 75.5673 364.234C71.4603 363.052 67.2778 362.149 63.0488 361.532L61.6378 361.292L58.3355 360.752C57.406 360.604 56.4917 360.373 55.6036 360.061C47.6228 355.83 39.8945 351.139 32.4577 346.012L31.437 345.171L30.6565 346.282C28.1048 349.944 26.0934 352.856 24.6524 365.555C22.9712 379.605 34.5292 396.717 54.4328 399.839C54.9776 399.927 55.4849 400.172 55.8932 400.544C56.3015 400.915 56.5932 401.397 56.7331 401.931C56.8729 402.465 56.8548 403.028 56.681 403.552C56.5071 404.076 56.185 404.538 55.7537 404.882C34.7393 421.423 30.2062 428.538 29.0954 447.151C28.7551 452.805 29.5609 458.469 31.4645 463.803C33.3682 469.137 36.3303 474.032 40.173 478.192C48.6389 487.199 60.8572 491.882 75.5673 491.882C79.6994 491.867 83.8243 491.535 87.9058 490.891H88.3261C89.0395 490.889 89.7272 491.158 90.2507 491.642C90.7743 492.127 91.0949 492.792 91.148 493.503C92.1387 506.442 94.4803 516.949 97.3923 521.662C97.7534 522.217 97.9035 522.882 97.8153 523.538C97.7272 524.193 97.4066 524.795 96.912 525.235C95.6918 526.262 94.2994 527.065 92.7992 527.606C86.9982 529.56 80.9074 530.515 74.7868 530.428C70.5539 530.428 67.4017 533.43 64.88 539.585C64.0394 541.626 63.379 543.788 62.7185 545.889L62.5384 546.459C62.2082 547.54 61.8779 548.531 61.5777 549.461C61.3064 550.188 60.9958 550.9 60.6471 551.593C59.6234 553.313 58.3254 554.854 56.8045 556.156C56.2723 556.597 55.6043 556.841 54.9132 556.846H54.4328C54.0183 556.774 53.6252 556.61 53.2823 556.365C52.9395 556.121 52.6556 555.804 52.4515 555.435C51.4578 553.607 50.0693 552.022 48.3869 550.796C46.7045 549.571 44.7703 548.735 42.7248 548.351H41.9743C37.2705 548.785 32.7695 550.473 28.9411 553.24C25.1126 556.007 22.0971 559.751 20.2093 564.081C20.0195 564.549 19.7077 564.957 19.3064 565.264C18.9051 565.57 18.429 565.763 17.9278 565.823H17.3874C15.1294 565.905 12.9483 566.665 11.1279 568.003C9.30755 569.342 7.93206 571.197 7.18039 573.328C6.46736 575.276 5.93476 577.286 5.58929 579.332L5.28909 580.743C5.0189 582.304 4.68867 583.925 4.29841 585.486C4.0045 586.74 3.55046 587.951 2.94748 589.089L1.98682 590.77C1.74665 591.16 1.50649 591.52 1.29634 591.911C0.614815 593.102 0.190555 594.422 0.0509418 595.787C-0.0886715 597.152 0.0594634 598.532 0.485788 599.836C0.802963 600.791 1.31679 601.67 1.99415 602.414C2.67151 603.159 3.49736 603.753 4.41849 604.159C6.40897 605.166 8.51644 605.922 10.6928 606.411C13.9023 607.198 17.1791 607.681 20.4795 607.852C21.1236 607.841 21.7543 607.666 22.3108 607.341C22.7691 607.057 23.2101 606.747 23.6317 606.411C24.1691 606.007 24.8212 605.787 25.493 605.78H25.9433L28.0147 606.17L34.0188 607.371H34.3791L40.053 608.482C40.9536 608.632 41.7341 608.782 42.3045 608.842C42.7939 608.885 43.2861 608.885 43.7755 608.842C52.7817 608.422 56.4142 604.97 58.7858 601.637C59.4896 600.672 60.141 599.67 60.7372 598.635L61.7579 596.924L62.5084 595.633C63.2289 594.402 63.9494 593.261 64.7299 592.181C65.0033 591.825 65.3529 591.536 65.7529 591.333C66.1529 591.131 66.5932 591.02 67.0415 591.01C67.2808 590.981 67.5227 590.981 67.762 591.01C68.7827 591.28 69.8034 591.49 70.764 591.64C72.8355 591.971 74.7268 592.151 75.5073 592.211C76.0873 592.24 76.6685 592.24 77.2485 592.211C85.6543 592.211 91.9286 587.528 97.1222 583.205L98.8333 581.764C99.6439 581.073 100.424 580.383 101.205 579.752C102.415 578.676 103.688 577.674 105.018 576.75C106.957 575.265 109.302 574.406 111.742 574.288H112.283C114.294 574.288 121.919 574.949 134.798 576.99C135.358 577.035 135.92 577.035 136.479 576.99C140.317 576.748 144.066 575.726 147.497 573.988C151.12 572.33 154.63 570.435 158.004 568.314C158.968 567.752 159.971 567.261 161.006 566.843L161.336 566.693C162.387 566.213 163.498 565.703 164.669 565.102C167.638 563.672 170.268 561.625 172.384 559.098C174.445 556.033 176.243 552.8 177.758 549.431L179.889 545.138C181.03 542.737 182.261 540.215 183.521 537.723C183.756 537.255 184.115 536.861 184.561 536.585C185.006 536.309 185.519 536.163 186.043 536.162H186.854C191.199 536.052 195.531 535.651 199.823 534.961L205.166 534.121C209.009 533.52 212.311 533.01 214.773 532.89C215.373 532.89 216.994 532.89 219.276 533.16L224.38 533.52C230.804 533.911 236.058 534.091 240.441 534.091C243.022 534.091 245.304 534.091 247.225 533.881C250.273 533.689 253.292 533.176 256.231 532.35C257.012 532.126 257.774 531.845 258.513 531.509C258.876 531.366 259.263 531.294 259.654 531.299C260.017 531.294 260.377 531.364 260.713 531.503C261.048 531.642 261.352 531.849 261.605 532.11C263.016 533.46 264.607 534.841 266.048 536.192C266.462 536.56 266.759 537.041 266.901 537.575C267.044 538.11 267.026 538.675 266.85 539.2C266.674 539.724 266.348 540.186 265.912 540.527C265.475 540.867 264.949 541.072 264.397 541.116L262.746 541.296C260.215 541.45 257.826 542.516 256.021 544.298C255.62 544.774 255.081 545.113 254.479 545.269C253.876 545.425 253.241 545.39 252.659 545.168C252.276 544.984 251.873 544.843 251.458 544.748C250.675 544.54 249.867 544.44 249.057 544.448H245.454C240.855 544.38 236.258 544.671 231.705 545.319C229.086 545.641 226.545 546.424 224.199 547.63C223.127 548.112 222.22 548.898 221.59 549.89C220.961 550.883 220.636 552.039 220.657 553.214C220.987 558.528 228.462 572.907 233.566 578.011C235.985 579.503 238.804 580.215 241.641 580.052H243.112C243.629 580.069 244.133 580.219 244.574 580.487C245.016 580.755 245.381 581.133 245.634 581.583C250.858 591.881 259.894 598.785 268.12 598.785H268.66C276.525 598.485 297.75 590.8 312.67 583.775L313.241 583.565C313.774 583.436 314.316 583.346 314.862 583.295L317.864 582.934L319.365 582.754C322.712 582.499 326.001 581.739 329.121 580.503C331.613 579.302 335.126 574.499 338.398 568.494C338.651 568.044 339.016 567.666 339.458 567.398C339.899 567.13 340.403 566.98 340.92 566.963H341.19C341.748 567.008 342.28 567.222 342.714 567.575C343.148 567.929 343.465 568.407 343.621 568.945C343.954 570.076 344.396 571.172 344.942 572.217C346.243 574.594 348.207 576.54 350.596 577.82C352.984 579.099 355.692 579.656 358.392 579.422H359.442C364.035 579.002 368.556 577.993 372.892 576.42L375.293 575.639C378.612 574.403 382.012 573.4 385.47 572.637C386.759 572.417 388.065 572.317 389.373 572.337H391.504L395.557 572.637L398.319 572.847C399.61 572.847 400.961 572.998 402.372 572.998C405.697 573.126 409.007 572.479 412.038 571.106C415.243 569.703 418.267 567.919 421.045 565.793L421.795 565.252C422.272 564.897 422.852 564.708 423.446 564.712C424.134 564.715 424.797 564.971 425.308 565.432C435.025 574.017 447.555 578.739 460.522 578.701C461.092 578.701 461.693 578.701 462.323 578.701C464.063 578.79 465.801 578.485 467.407 577.81C469.013 577.134 470.446 576.105 471.599 574.799C472.193 574.047 472.598 573.164 472.78 572.224C472.963 571.284 472.919 570.314 472.65 569.395C472.469 568.626 472.599 567.817 473.01 567.144C473.451 566.492 474.13 566.039 474.902 565.883C477.458 565.552 479.87 564.512 481.866 562.881C482.619 562.242 483.236 561.458 483.679 560.576C484.123 559.694 484.384 558.732 484.448 557.747C484.463 557.183 484.355 556.623 484.132 556.104C483.909 555.586 483.577 555.122 483.157 554.745C480.552 552.486 477.642 550.607 474.511 549.161" fill="white"/>
<path d="M407.656 366.366C407.656 347.786 413.166 329.623 423.489 314.175C433.812 298.727 448.484 286.687 465.65 279.579C482.816 272.47 501.705 270.611 519.927 274.238C538.149 277.865 554.887 286.815 568.023 299.955C581.158 313.095 590.102 329.835 593.724 348.058C597.345 366.282 595.48 385.17 588.366 402.334C581.252 419.497 569.207 434.166 553.756 444.484C538.304 454.802 520.14 460.306 501.56 460.3C489.226 460.3 477.013 457.87 465.618 453.149C454.223 448.428 443.869 441.509 435.149 432.786C426.429 424.063 419.513 413.707 414.795 402.311C410.078 390.914 407.652 378.7 407.656 366.366Z" fill="white"/>
<path d="M430.982 417.04C445.342 427.234 462.312 433.117 479.899 434C497.487 434.883 514.961 430.728 530.269 422.024C545.578 413.321 558.084 400.429 566.32 384.864C574.555 369.298 578.178 351.706 576.762 334.154C576.209 328.765 575.205 323.433 573.76 318.213C586.497 337.17 591.257 360.381 587.009 382.822C582.761 405.263 569.848 425.128 551.064 438.119C532.279 451.111 509.135 456.183 486.639 452.238C464.143 448.293 444.105 435.648 430.862 417.04" fill="#D3D3D3"/>
<path fill-rule="evenodd" clip-rule="evenodd" d="M501.59 279.366C492.217 279.379 482.909 280.921 474.031 283.929L490.633 297.288C503.38 296.275 516.195 296.456 528.909 297.829C531.232 294.123 532.945 290.069 533.982 285.82C523.698 281.615 512.701 279.424 501.59 279.366Z" fill="#091D3C"/>
<path fill-rule="evenodd" clip-rule="evenodd" d="M442.45 302.662C430.556 313.729 422.015 327.919 417.803 343.61C419.724 340.788 423.987 334.424 429.06 328.089C433 319.348 437.471 310.856 442.45 302.662Z" fill="#091D3C"/>
<path fill-rule="evenodd" clip-rule="evenodd" d="M474.031 323.796C474.031 323.796 450.255 334.484 441.249 339.167C440.298 352.167 440.479 365.225 441.789 378.194C452.939 382.079 464.282 385.386 475.773 388.101C475.773 388.101 490.783 364.084 496.127 353.847C489.432 343.354 482.051 333.315 474.031 323.796Z" fill="#091D3C"/>
<path fill-rule="evenodd" clip-rule="evenodd" d="M550.313 324.607C544.056 333.715 538.505 343.29 533.712 353.247C541.307 369.158 551.724 386.449 551.724 386.449C560.653 384.304 569.284 381.067 577.422 376.813C579.433 349.074 576.341 339.587 576.341 339.587C567.995 332.833 550.313 324.607 550.313 324.607Z" fill="#091D3C"/>
<path fill-rule="evenodd" clip-rule="evenodd" d="M416.751 385.639C420.974 404.214 431.223 420.87 445.902 433.011C447.165 432.136 448.332 431.13 449.384 430.009C442.467 420.217 436.122 410.033 430.381 399.508C430.381 399.508 421.375 390.442 416.751 385.639Z" fill="#091D3C"/>
<path fill-rule="evenodd" clip-rule="evenodd" d="M531.851 417.221L494.115 418.301L479.646 438.895C488.111 444.701 497.673 448.716 507.745 450.694C518.685 447.729 529.214 443.413 539.086 437.845L531.851 417.221Z" fill="#091D3C"/>
<path d="M34.589 355.498C32.2144 359.139 31.1551 363.482 31.5869 367.807C32.4034 373.026 34.5936 377.935 37.9331 382.029C41.2725 386.122 45.6408 389.254 50.59 391.103C56.3239 393.564 62.8985 391.673 68.7825 392.964C69.6762 393.33 70.4634 393.916 71.0719 394.666C71.6804 395.416 72.0906 396.307 72.2649 397.257C72.2306 398.876 71.5623 400.418 70.4036 401.55C61.2173 409.235 51.5807 416.56 43.8954 426.167C35.6998 434.993 34.529 450.634 38.8219 461.771C43.5652 474.53 56.8343 482.786 69.5931 484.527C78.9295 485.998 87.3052 483.386 95.8311 481.525C96.9719 481.525 97.4822 482.726 97.9625 483.386C98.8031 490.921 97.6623 497.646 99.3135 504.4C100.921 510.245 102.927 515.972 105.318 521.542C105.538 522.6 105.506 523.695 105.225 524.738C104.943 525.781 104.42 526.743 103.696 527.546C99.164 531.001 94.2235 533.885 88.9864 536.132L76.1375 536.913L73.7359 537.994C68.9926 543.637 68.9926 549.311 65.9906 555.466C62.0579 562.01 54.6428 565.342 48.6086 569.095C46.8134 572.337 44.581 575.317 41.9741 577.951C39.7296 579.64 37.0077 580.576 34.1987 580.623C29.7857 585.696 28.9151 592.631 27.7743 599.626C34.9793 600.286 42.4244 604.099 49.4492 600.166C55.4533 597.374 56.9243 590.139 61.4575 585.696C65.0599 581.764 70.4636 584.616 74.8166 585.426C81.211 585.756 85.7441 581.133 91.1478 579.002C94.9004 576.57 97.9325 572.367 101.865 569.995C109.4 566.393 119.878 568.524 127.833 569.995C133.934 571.44 140.344 570.784 146.026 568.134C151.099 565.132 155.812 561.139 161.546 559.819C166.65 557.207 169.081 551.443 171.183 546.7C173.284 541.956 177.187 538.684 176.827 533.58C175.506 532.44 173.825 529.948 171.993 530.128C169.532 533.55 167.821 537.273 165.029 540.545C153.2 556.726 143.834 558.227 119.788 558.227C101.955 557.567 85.7742 563.031 73.4957 576.96C73.0489 577.156 72.5526 577.209 72.0744 577.112C71.5963 577.016 71.1596 576.774 70.8239 576.42C70.3135 574.469 72.1448 571.196 72.9554 569.725C83.9429 554.175 100.995 550.512 119.007 550.182C128.536 549.949 137.916 547.762 146.566 543.757C155.424 539.179 162.331 531.557 166.019 522.293C168.151 511.966 169.021 500.798 171.633 490.981C171.963 489.991 174.305 489.3 175.116 489.63C175.926 489.961 178.118 490.621 178.118 491.762C176.316 501.939 173.134 514.067 177.067 523.884C184.842 534.301 199.552 528.657 210.09 528.297C220.264 527.647 230.475 527.828 240.62 528.837C245.844 528.837 249.897 529.708 254.01 526.436C255.083 524.575 255.455 522.392 255.06 520.281C254.73 517.279 252.299 515.508 255.06 513.046C255.743 512.814 256.474 512.767 257.181 512.91C257.888 513.052 258.544 513.379 259.083 513.857C260.101 518.074 261.729 522.119 263.917 525.865C269.441 532.455 276.269 537.831 283.97 541.656C290.845 546.399 296.609 553.124 297.089 561.47C297.089 565.703 293.157 568.615 289.884 570.476C284.364 573.69 278.045 575.272 271.662 575.039C262.986 570.776 260.824 561.41 255.06 554.685C253.505 553.229 251.631 552.156 249.588 551.551C247.545 550.947 245.39 550.827 243.292 551.203C238.584 551.39 233.912 552.105 229.363 553.334C228.836 553.791 228.438 554.378 228.206 555.036C227.974 555.694 227.918 556.4 228.042 557.087C231.044 562.49 234.406 567.744 237.678 573.148C241.431 575.459 246.685 572.007 249.987 576.15C252.779 580.413 254.55 585.456 258.813 588.728C260.915 590.631 263.501 591.918 266.287 592.448C269.072 592.977 271.95 592.729 274.604 591.73C286.797 588.345 298.63 583.781 309.938 578.101H313.691C318.284 577.591 323.537 577.801 326.81 574.348C330.303 569.231 333.433 563.874 336.176 558.317C338.968 554.535 337.587 549.011 336.446 544.928C331.323 538.125 327.348 530.53 324.678 522.443C322.075 521.145 319.257 520.332 316.363 520.041C314.892 520.702 312.91 520.281 312.1 521.902L324.948 547.6C326.078 549.834 326.536 552.346 326.269 554.835C324.587 560.434 321.485 565.501 317.263 569.545C316.453 570.056 315.522 570.446 314.861 569.275C316.333 563.721 318.914 557.747 318.614 551.263L306.156 528.687C304.654 525.685 301.953 522.683 302.133 519.051C302.133 517.399 303.754 516.499 305.135 515.838C310.689 514.037 317.473 514.367 321.736 509.834C327.29 501.158 328.281 492.572 329.752 482.245C330.046 481.768 330.434 481.357 330.894 481.037C331.354 480.716 331.874 480.494 332.424 480.384C333.414 480.054 334.645 481.495 335.125 481.975C336.969 493.054 334.369 504.413 327.89 513.587C327.56 514.728 327.11 516.229 328.431 517.069C331.482 517.789 334.646 517.894 337.739 517.379C340.831 516.863 343.79 515.738 346.443 514.067C352.841 513.886 359.205 513.082 365.446 511.665C366.107 511.996 366.797 512.626 366.797 513.287C362.888 517.653 360.287 523.032 359.292 528.807C354.369 533.881 347.284 538.294 346.713 545.679C347.524 549.281 350.736 545.859 352.717 546.219C353.174 546.265 353.596 546.483 353.897 546.829C354.198 547.174 354.356 547.622 354.339 548.08L349.505 555.315C346.893 559.578 349.775 564.592 349.775 568.705C350.585 570.247 351.823 571.521 353.342 572.374C354.86 573.226 356.593 573.62 358.331 573.508C365.432 572.753 372.382 570.952 378.956 568.164C386.66 565.427 394.97 564.866 402.972 566.543C410.687 566.063 416.271 560.929 422.005 555.856C423.577 556.034 425.097 556.527 426.475 557.306C427.852 558.085 429.058 559.133 430.021 560.389C434.253 564.879 439.421 568.382 445.16 570.649C450.898 572.916 457.065 573.892 463.223 573.508L464.544 572.968C464.733 572.747 464.871 572.487 464.949 572.207C465.026 571.927 465.041 571.633 464.992 571.347C464.944 571.06 464.833 570.788 464.667 570.549C464.501 570.311 464.285 570.111 464.034 569.965L456.259 566.153C450.855 562.731 444.25 558.047 442.329 551.983C440.449 546.234 437.846 540.746 434.584 535.652C433.413 533.04 430.621 530.759 429.48 528.147C429.641 527.95 429.849 527.796 430.086 527.702C430.322 527.607 430.579 527.575 430.831 527.606C439.357 530.608 444.31 538.834 448.213 546.369C454.457 555.015 463.464 562.49 475.232 560.539L476.312 559.728C476.512 559.409 476.618 559.04 476.618 558.663C476.618 558.286 476.512 557.917 476.312 557.597L470.308 554.595C460.461 548.861 456.559 538.234 450.495 529.708C448.363 526.706 444.49 524.514 442.449 521.392C435.424 502.239 429.54 483.116 427.739 461.171C426.586 455.588 424.687 450.186 422.095 445.11C413.269 430.7 401.681 417.701 390.513 404.432C389.575 403.304 388.573 402.232 387.511 401.22L348.845 368.887C344.006 365.532 338.798 362.742 333.324 360.572C324.303 357.636 314.529 358.02 305.765 361.652C297.389 366.186 289.974 372.37 281.118 375.192C268.36 380.926 253.83 382.217 242.842 392.033C236.478 397.617 231.194 406.113 221.828 404.642C211.509 404.366 201.465 407.989 193.698 414.789C186.493 421.363 179.499 429.049 170.162 430.85C161.966 434.302 152.15 432.561 143.654 435.683C130.385 438.956 119.878 449.343 108.59 457.358C97.3021 463.903 86.5547 471.078 72.5651 470.747C67.9329 470.414 63.4967 468.745 59.7936 465.943C56.0905 463.14 53.2794 459.324 51.7008 454.956C50.2867 450.048 50.3161 444.836 51.7855 439.943C53.2548 435.051 56.1019 430.685 59.9865 427.368C68.3322 417.401 81.5413 411.547 88.0857 400.079C89.8211 396.664 90.5902 392.84 90.3098 389.02C90.0293 385.2 88.7101 381.529 86.4947 378.404C77.8187 369.398 65.4802 369.128 54.1024 366.396C46.6573 364.504 40.9834 358.921 34.589 355.498ZM685.346 356.039C680.422 356.369 676.79 359.701 673.037 362.973C647.97 384.948 619.391 400.049 596.455 425.086C581.054 440.967 576.761 461.111 571.027 480.504C562.832 509.984 559.439 542.347 529.809 560.539C529.506 561.016 529.393 561.589 529.493 562.145C529.594 562.702 529.899 563.2 530.349 563.541C534.085 564.396 537.98 564.253 541.643 563.125C545.305 561.997 548.606 559.925 551.214 557.117C556.29 548.917 562.119 541.209 568.626 534.091L570.217 533.31C571.057 533.31 571.898 533.761 571.568 534.901C569.586 541.446 563.882 546.309 561.931 552.914C559.319 560.749 551.724 566.873 545.33 572.427L545.06 573.238C545.102 573.682 545.28 574.102 545.57 574.44C545.86 574.779 546.248 575.02 546.681 575.129C561.091 575.759 571.538 565.522 581.204 555.856C581.675 555.446 582.251 555.178 582.867 555.082C583.484 554.987 584.115 555.067 584.687 555.315C588.95 558.588 593.032 563.541 598.616 564.682C604.624 563.67 610.723 563.307 616.809 563.601C625.485 566.243 633.83 569.755 642.506 572.607C646.919 572.457 650.132 568.194 652.413 564.592C654.214 560.329 651.813 556.096 652.143 552.013C654.275 550.692 656.556 552.403 658.838 551.743C659.362 551.424 659.804 550.986 660.127 550.465C660.451 549.943 660.647 549.352 660.699 548.741C659.078 541.206 652.413 535.442 650.282 528.387C646.98 519.381 636.442 513.947 634.491 504.37C634.971 503.71 635.782 502.899 636.622 503.56C643.647 508.633 649.621 515.358 658.297 516.679C664.956 517.524 671.677 517.785 678.381 517.459C678.898 517.263 679.321 516.878 679.566 516.383C679.811 515.887 679.859 515.317 679.702 514.788C676.813 508.96 674.491 502.867 672.767 496.595C670.456 488.58 668.805 477.322 671.416 468.496C671.897 467.835 673.908 466.574 674.899 466.875C675.644 467.13 676.32 467.552 676.877 468.109C677.434 468.665 677.856 469.342 678.111 470.087C679.102 484.016 677.511 496.865 685.886 507.823C689.459 513.557 695.643 514.667 700.056 519.081C700.908 520.316 701.452 521.738 701.64 523.227C701.828 524.716 701.655 526.228 701.137 527.636L690.96 542.377C688.528 545.575 686.715 549.199 685.616 553.064C685.03 556.975 685.03 560.951 685.616 564.862C684.956 565.162 684.655 564.382 683.995 564.051C681.383 558.648 678.531 551.683 681.323 545.319L693.902 525.775L694.172 524.154C691.379 522.647 688.416 521.478 685.346 520.672C683.875 521.362 683.124 522.863 682.134 524.154L669.825 546.399C668.726 548.727 668.35 551.331 668.744 553.874C669.306 557.005 670.317 560.039 671.747 562.881C672.501 567.057 673.856 571.101 675.769 574.889C678.771 578.311 683.094 574.889 686.997 575.94C690.9 576.99 692.431 581.764 696.363 582.904C705.22 585.906 714.586 587.497 723.382 590.95C727.975 592.421 734.55 594.162 738.632 590.41C744.366 587.407 745.958 581.403 746.948 575.669C748.749 573.238 752.352 574.078 754.964 573.268C759.887 569.995 761.538 564.051 765.141 559.608L765.681 557.477C765.446 556.779 765.053 556.145 764.532 555.624C764.011 555.103 763.377 554.71 762.679 554.475H745.807C738.092 555.466 737.582 563.961 734.309 569.185C733.328 570.735 731.918 571.966 730.249 572.728C728.581 573.49 726.727 573.751 724.913 573.478C717.078 571.346 707.651 570.206 704.049 561.71C703.675 560.679 703.579 559.568 703.769 558.489C703.958 557.409 704.427 556.398 705.129 555.556C709.288 550.38 713.944 545.624 719.029 541.356C722.783 540.482 726.326 538.873 729.454 536.621C732.582 534.369 735.232 531.52 737.252 528.237C739.203 525.445 738.783 521.272 742.055 519.231C743.046 519.231 745.057 519.051 745.807 520.041C747.278 524.784 744.607 528.237 743.136 532.35C761.148 534.151 775.047 529.017 792.369 529.678C799.754 529.678 806.329 530.428 813.384 529.948C820.439 529.468 828.394 526.496 830.796 518.96C834.068 509.294 829.475 498.426 827.794 489.24L829.685 487.649C830.826 486.989 832.867 488.039 833.708 488.7C836.774 498.015 838.926 507.607 840.132 517.339C841.423 525.715 845.176 531.179 849.769 538.354C853.824 544.254 859.585 548.776 866.281 551.314C872.976 553.851 880.287 554.284 887.235 552.554C904.917 551.233 920.257 560.479 931.125 574.228V575.039C930.794 575.669 930.074 576.54 929.263 576.36C919.927 569.155 910.711 561.53 898.732 560.029C886.724 557.837 875.767 564.051 863.128 558.978C847.938 553.964 841.483 544.748 835.029 529.798H833.708C832.717 529.798 832.267 530.939 832.087 531.929L833.708 542.106C835.659 550.272 838.241 559.758 847.067 563.511C853.942 567.594 860.516 573.568 869.042 571.286C876.227 569.845 883.636 569.933 890.785 571.547C897.933 573.161 904.662 576.264 910.531 580.653C914.283 582.784 917.405 586.657 921.488 588.158C923.716 588.989 926.121 589.226 928.468 588.847C930.816 588.469 933.024 587.486 934.877 585.996C943.253 583.235 945.204 593.742 950.938 597.524C956.012 602.418 966.159 600.526 972.883 600.526L972.613 599.716C971.886 593.481 970.174 587.401 967.54 581.704C959.194 582.184 955.051 573.298 950.128 568.044C946.045 563.301 937.909 560.359 938.12 553.304C936.864 549.8 935.792 546.232 934.907 542.617C933.766 539.615 932.686 535.502 928.753 534.841C921.698 533.701 913.352 535.502 908.939 528.837C904.376 523.914 909.18 518.33 910.02 513.587C911.941 506.98 912.392 500.033 911.341 493.233C911.341 489.63 908.549 486.658 909.21 483.056C910.861 480.054 914.793 482.185 917.255 482.515C926.719 484.855 936.689 484.011 945.625 480.114C957.063 474.56 966.189 463.152 965.708 449.853C964.057 432.681 951.929 418.451 938.69 407.314C936.228 405.182 933.076 402.901 932.265 399.809C931.965 393.084 939.47 396.356 943.253 394.735C947.788 393.896 952.138 392.259 956.102 389.902C966.069 383.177 968.11 371.379 966.249 359.881C965.949 358.921 966.249 357.48 964.658 357.48C962.786 359.245 960.778 360.861 958.654 362.313C952.259 366.065 943.943 365.315 937.219 368.737C928.873 372.31 918.636 377.443 915.004 386.93C914.131 391.596 914.894 396.42 917.165 400.589C927.312 416.62 948.777 427.037 952.229 446.371C953.55 454.206 949.707 459.88 943.643 464.383C934.487 469.937 920.707 467.955 911.521 463.032C893.839 454.206 878.318 439.376 859.345 433.342C847.337 427.938 832.777 429.379 822.12 421.003C814.104 415.78 806.509 408.995 797.503 406.563C791.289 404.432 784.504 404.852 778.77 401.73C773.052 396.384 766.664 391.802 759.767 388.101C750.02 383.717 739.764 380.571 729.236 378.734C723.022 377.263 720.68 370.118 715.577 366.726C706.901 359.851 697.144 355.048 685.346 356.039ZM684.265 395.065C685.142 394.84 686.061 394.84 686.937 395.065C687.431 395.242 687.88 395.524 688.253 395.892C688.627 396.26 688.915 396.706 689.098 397.197C689.447 397.754 689.624 398.401 689.609 399.058C689.622 399.611 689.53 400.161 689.339 400.679L688.558 402L687.748 403.081L682.674 407.914L677.03 413.258C673.62 416.467 670.598 420.064 668.024 423.975C666.36 426.421 664.923 429.013 663.731 431.721C663.564 432.051 663.286 432.313 662.946 432.461C662.607 432.609 662.226 432.634 661.87 432.531C661.699 432.423 661.518 432.333 661.329 432.261C661.312 432.172 661.312 432.08 661.329 431.991C660.977 430.956 660.795 429.871 660.789 428.779C660.793 427.772 660.883 426.768 661.059 425.776L662.14 421.484L662.68 419.892C666.795 410.279 673.459 401.974 681.954 395.876C682.721 395.477 683.556 395.223 684.415 395.125L684.265 395.065ZM331.733 406.293C332.544 406.182 333.369 406.275 334.135 406.563L334.405 406.833C336.936 408.861 338.986 411.424 340.409 414.339C342.102 418.679 342.918 423.311 342.811 427.968C342.871 431.763 342.427 435.548 341.49 439.226V439.496C341.4 439.512 341.309 439.512 341.22 439.496C340.947 439.785 340.582 439.97 340.187 440.019C339.793 440.069 339.394 439.979 339.058 439.766C339.058 439.766 339.058 439.556 339.058 439.496C339.058 439.436 338.788 439.226 338.788 439.226C337.666 432.461 335.876 425.824 333.444 419.412L332.093 416.74L331.313 415.93L330.172 414.219C329.437 413.337 328.97 412.264 328.826 411.125C328.683 409.986 328.868 408.83 329.361 407.794L329.632 407.524C330.179 406.906 330.92 406.493 331.733 406.353V406.293ZM406.394 470.267C407.136 470.347 407.864 470.529 408.556 470.807C410.575 472.047 412.232 473.797 413.359 475.881L413.899 476.962L414.98 478.583L416.841 480.984C421.531 485.592 424.308 491.8 424.617 498.366C424.692 499.803 424.601 501.243 424.347 502.659C424.347 502.659 423.806 504.01 423.806 504.01L423.266 505.601C423.108 506.147 422.799 506.638 422.374 507.015C421.949 507.392 421.425 507.641 420.864 507.733C420.597 507.84 420.306 507.875 420.021 507.833C419.736 507.79 419.468 507.673 419.243 507.493C418.996 507.302 418.797 507.056 418.662 506.774C418.526 506.493 418.458 506.184 418.463 505.871C418.463 505.871 418.192 504.28 418.192 504.28L417.652 499.447C417.391 497.314 416.663 495.264 415.521 493.443L413.359 491.041L410.957 488.039C409.536 486.361 407.529 485.287 405.344 485.037C403.764 485.67 402.377 486.705 401.321 488.039L399.7 490.171L398.109 492.302C397.538 493.263 396.247 492.572 396.247 492.572C396.247 492.572 396.067 492.572 395.977 492.572C395.887 492.572 395.977 492.302 395.977 492.302C395.61 491.344 395.427 490.326 395.437 489.3C395.511 487.902 395.868 486.533 396.488 485.277L397.838 482.605L399.189 479.393L399.46 479.123C400.058 478.32 400.506 477.415 400.78 476.451L401.321 475.371L402.131 472.969C403.152 471.078 404.533 470.147 406.394 470.327V470.267ZM609.574 475.881C610.812 475.768 612.055 476.043 613.13 476.667C614.206 477.29 615.061 478.233 615.578 479.363C618.472 483.213 620.816 487.446 622.543 491.942C622.603 492.3 622.603 492.665 622.543 493.023C622.558 493.202 622.558 493.383 622.543 493.563L622.002 495.154C621.675 495.778 621.226 496.329 620.681 496.775C620.364 496.982 619.994 497.092 619.616 497.092C619.237 497.092 618.867 496.982 618.55 496.775C617.688 496.456 616.937 495.893 616.389 495.154L615.578 494.103L615.068 493.023C614.317 491.762 613.567 490.741 611.855 490.891C610.573 490.894 609.335 491.364 608.373 492.212L607.292 493.023L606.752 493.293L604.891 494.644L602.489 496.505L601.678 497.316L598.196 500.528C596.162 502.373 594.756 504.809 594.173 507.493L593.633 509.354V510.284L593.363 511.335C593.287 511.94 593.081 512.522 592.76 513.04C592.439 513.558 592.01 514 591.501 514.337C591.134 514.497 590.734 514.566 590.334 514.539C589.934 514.511 589.547 514.387 589.205 514.178C588.864 513.969 588.577 513.681 588.371 513.337C588.164 512.994 588.044 512.606 588.019 512.206C587.666 508.444 588.184 504.651 589.532 501.122C590.881 497.592 593.023 494.42 595.794 491.852C598.371 489.62 600.696 487.113 602.729 484.377L604.891 481.705L609.154 476.331L609.574 475.881ZM402.432 535.592H403.752L404.833 535.862C405.315 536.001 405.747 536.276 406.078 536.654C406.408 537.032 406.622 537.497 406.695 537.994C406.836 538.787 406.926 539.59 406.965 540.395C407.088 541.684 406.911 542.983 406.447 544.191C405.983 545.4 405.246 546.484 404.293 547.36H404.023C400.738 548.413 397.291 548.871 393.846 548.711L393.576 548.441L392.795 548.17L392.255 547.9C391.939 547.717 391.689 547.438 391.544 547.103C391.398 546.768 391.363 546.395 391.444 546.039C392.295 543.551 393.737 541.307 395.645 539.498C397.553 537.689 399.872 536.369 402.402 535.652L402.432 535.592ZM607.202 539.074H607.472C609.278 538.976 611.082 539.287 612.751 539.983C614.419 540.68 615.909 541.744 617.109 543.097L617.649 544.418L618.7 546.549C619.002 547.139 619.185 547.781 619.24 548.441C619.214 549.096 619.028 549.734 618.7 550.302V550.572C617.44 551.4 615.939 551.781 614.437 551.653L611.225 551.113H610.144L609.874 550.842C606.872 549.101 606.212 545.589 605.851 542.016C605.793 541.516 605.861 541.009 606.05 540.542C606.239 540.075 606.542 539.663 606.932 539.344C607.007 539.269 607.087 539.198 607.172 539.134L607.202 539.074ZM41.0134 554.925C40.3708 555.059 39.7387 555.24 39.1221 555.466C35.6027 558.437 31.8478 561.118 27.8944 563.481C26.2433 564.622 26.8737 567.053 26.5435 568.855C26.2133 570.656 28.4948 571.617 29.5455 572.577C31.4361 573.443 33.589 573.54 35.5497 572.847C40.3119 569.535 44.0964 565.004 46.5072 559.728C45.6427 557.923 44.2911 556.394 42.6045 555.315C42.3962 555.118 42.1398 554.977 41.8608 554.909C41.5817 554.841 41.2897 554.846 41.0134 554.925ZM960.785 555.195C958.353 555.195 956.132 558.197 954.781 559.999C955.922 563.931 959.284 567.114 961.746 570.716C962.413 571.717 963.302 572.552 964.343 573.155C965.384 573.759 966.549 574.116 967.75 574.198C969.844 574.076 971.829 573.227 973.364 571.797C974.064 571.102 974.597 570.257 974.925 569.326C975.252 568.396 975.365 567.403 975.255 566.423C972.253 562.16 967.39 559.548 963.457 556.246C962.701 555.636 961.756 555.308 960.785 555.315V555.195ZM18.2578 573.328C16.8537 573.976 15.5968 574.904 14.5643 576.055C13.5318 577.206 12.7455 578.556 12.2537 580.022C11.4131 585.246 12.5839 590.169 8.50109 593.952C8.50109 594.943 7.51041 596.173 8.50109 597.164C12.2218 598.553 16.0743 599.559 19.999 600.166C21.9804 593.772 23.3313 586.717 25.6429 581.163V579.542C23.5114 577.11 21.53 574.048 18.2578 573.328ZM980.599 574.409C978.287 576.36 975.015 578.461 975.525 581.884C977.338 587.217 978.763 592.675 979.788 598.215C980.449 599.356 979.788 601.697 981.679 601.697L992.097 598.215C993.928 595.213 990.626 592.991 989.965 590.199C989.155 586.417 989.965 581.193 987.563 577.891C985.432 576.33 983.361 573.808 980.599 574.469V574.409Z" fill="#E41349"/>
<path d="M266.709 556.036C269.981 559.638 269.711 565.042 273.583 568.044C275.935 568.336 278.321 568.122 280.583 567.418C282.846 566.714 284.932 565.536 286.702 563.961C288.834 562.16 285.712 559.849 285.412 557.717C283.25 554.715 284.721 548.381 279.407 548.231C274.197 548.964 268.938 549.295 263.677 549.221L262.206 550.212C261.215 553.214 265.808 553.214 266.619 556.216" fill="#E41349"/>
<path d="M730.647 551.113C726.234 551.953 721.161 551.113 716.718 551.623C714.414 554.614 713.253 558.329 713.445 562.1C713.956 566.183 718.519 566.513 721.461 567.654C724.253 567.984 728.336 568.975 729.837 566.033C731.568 561.708 732.826 557.209 733.589 552.614C733.506 552.308 733.359 552.023 733.158 551.778C732.957 551.533 732.707 551.333 732.424 551.192C732.14 551.05 731.83 550.97 731.514 550.956C731.197 550.942 730.882 550.996 730.587 551.113" fill="#E41349"/>
<path d="M674.389 702.717C687.058 716.946 699.006 731.747 711.134 746.427C712.815 748.498 712.996 749.609 710.624 751.05C708.252 752.491 706.031 756.393 703.479 755.973C700.927 755.553 699.636 751.95 697.805 749.729C675.79 722.77 653.775 695.822 631.76 668.883C630.229 667.052 629.929 666.091 632.03 664.41C638.725 659.037 638.665 658.887 645.179 664.41C660.009 677.079 675.77 688.637 690.21 701.816C690.96 700.405 689.76 699.955 689.159 699.354C675.41 684.344 662.861 668.553 649.922 652.972C648.511 651.261 648.781 650.511 650.403 649.37C652.984 647.569 655.416 644.026 657.848 644.056C660.279 644.086 662.051 648.259 664.032 650.661C686.047 677.499 708.062 704.348 730.077 731.206C731.759 733.248 731.488 734.208 729.597 735.649C723.022 740.963 723.143 740.963 716.478 735.469C702.849 724.221 689.169 712.994 675.44 701.786C674.299 701.426 673.909 701.636 674.389 702.717Z" fill="#001D46"/>
<path d="M558.328 764.229C557.067 758.405 555.686 752.521 554.575 746.547C551.934 732.017 549.472 717.457 546.77 702.927C546.38 700.735 547.13 700.285 548.962 699.925C558.568 697.943 558.418 697.943 560.099 707.85C565.763 741.173 571.497 774.486 577.301 807.789C578.232 813.283 578.322 813.283 572.648 814.333C566.974 815.384 566.644 815.414 564.722 809.86C558.178 791.518 550.253 773.835 543.948 755.283C543.823 754.984 543.661 754.702 543.468 754.442C542.207 754.862 542.867 755.643 542.988 756.243C547.431 775.607 550.493 795.27 553.975 814.784C554.395 817.005 553.975 817.936 551.633 817.936C550.549 818.038 549.475 818.229 548.421 818.506C542.087 819.437 542.177 819.437 541.096 813.012C535.092 778.128 529.088 743.254 523.084 708.391C522.573 705.388 523.084 704.308 526.266 703.797C533.891 702.687 533.921 702.416 536.473 709.561C542.988 727.784 550.973 745.436 557.067 763.839C557.337 764.109 557.397 764.559 558.328 764.229Z" fill="#001D46"/>
<path d="M334.945 637.902C334.937 639.666 334.539 641.406 333.782 642.999C333.024 644.592 331.925 645.998 330.562 647.118C320.816 655.124 311.049 663.129 301.262 671.135C300.288 672.054 299.099 672.714 297.803 673.055C296.508 673.396 295.148 673.406 293.847 673.086C292.286 672.666 291.476 672.726 291.566 674.827C291.528 676.352 291.116 677.845 290.368 679.174C289.62 680.503 288.557 681.629 287.273 682.453C277.726 690.288 268.21 698.184 258.573 705.899C257.379 706.896 255.998 707.646 254.51 708.103C253.023 708.561 251.459 708.718 249.911 708.564C248.362 708.41 246.86 707.949 245.492 707.208C244.123 706.467 242.916 705.461 241.942 704.248C237.048 698.574 232.455 692.6 227.592 686.866C226.121 685.155 227.081 684.524 228.312 683.503C251.728 664.47 275.124 645.457 298.5 626.464C303.934 622.051 309.428 617.638 314.832 613.135C316.363 611.844 317.143 611.814 318.464 613.525C322.847 619.169 327.47 624.663 331.973 630.187C333.813 632.345 334.862 635.067 334.945 637.902Z" fill="#001D46"/>
<path d="M306.546 762.998L300.932 758.675C296.129 754.953 295.678 752.851 299.131 747.718C301.352 744.415 303.934 741.323 306.396 738.171C312.4 730.336 318.404 722.44 324.798 714.695C326.329 712.804 326.239 711.693 324.228 710.552C322.217 709.411 319.605 705.388 317.263 705.899C314.922 706.409 313.451 709.952 311.649 712.233C303.364 722.83 295.018 733.248 286.852 744.085C285.351 746.066 284.391 746.096 282.77 744.535C280.518 742.374 276.255 741.083 276.105 738.531C275.955 735.979 279.317 733.698 281.178 731.296C302.193 704.278 323.417 677.259 344.402 650.06C346.683 647.058 348.004 647.058 350.736 649.37C355.6 653.573 360.883 657.265 365.897 661.378C367.319 662.345 368.517 663.606 369.41 665.076C370.302 666.546 370.869 668.19 371.071 669.898C371.273 671.606 371.106 673.337 370.581 674.975C370.056 676.613 369.185 678.119 368.028 679.391C360.703 688.907 353.228 698.304 345.903 707.79C345.071 709.141 343.904 710.254 342.516 711.022C341.127 711.79 339.564 712.187 337.977 712.173C336.747 712.173 336.176 712.443 336.566 713.824C337.737 717.817 335.666 720.849 333.564 723.761C326.359 733.067 319.155 742.374 311.829 751.59C308.873 754.716 307.018 758.721 306.546 762.998Z" fill="#001D46"/>
<path d="M393.216 679.961C396.359 679.845 399.479 680.542 402.274 681.985C405.069 683.427 407.444 685.566 409.171 688.195C410.897 690.824 411.917 693.854 412.13 696.993C412.343 700.131 411.743 703.271 410.387 706.109C403.182 721.449 395.797 736.67 388.502 751.95C381.958 765.58 375.383 779.179 368.989 792.869C367.938 795.12 367.128 795.57 364.816 794.49C356.32 790.527 356.32 790.617 360.343 782.481C366.167 770.473 371.871 758.225 377.755 746.156C378.746 744.145 378.776 743.154 376.464 742.134C368.298 738.261 368.358 738.171 364.456 746.307C358.692 758.315 352.808 770.503 347.134 782.662C346.083 784.973 345.002 785.513 342.931 784.163C340.86 782.812 336.116 782.331 335.396 779.78C334.675 777.228 337.317 774.586 338.578 772.004C351.507 744.806 364.516 717.627 377.605 690.468C378.954 687.425 381.135 684.824 383.896 682.966C386.658 681.107 389.888 680.065 393.216 679.961Z" fill="#001D46"/>
<path d="M509.125 769.993C508.605 786.244 508.115 802.485 507.654 818.716C507.654 820.938 507.354 822.619 504.472 821.718C504.472 821.718 504.232 821.718 504.112 821.718C494.745 821.388 494.955 821.388 495.376 812.112C496.006 798.693 496.306 785.243 496.817 771.794C496.817 769.933 496.396 769.392 494.475 769.182C485.019 768.132 484.989 768.072 484.688 777.678C484.238 791.127 483.788 804.697 483.548 818.026C483.548 820.457 482.827 821.328 480.546 821.028C479.345 820.878 478.114 821.028 476.913 820.818C471.149 820.457 471.089 820.457 471.269 814.814C472.29 783.812 473.291 752.791 474.271 721.75C474.328 719.339 474.863 716.964 475.846 714.762C476.829 712.56 478.24 710.576 479.996 708.924C481.753 707.272 483.82 705.986 486.078 705.14C488.336 704.295 490.74 703.906 493.149 703.998C495.559 704.089 497.926 704.659 500.113 705.674C502.301 706.688 504.265 708.127 505.891 709.908C507.517 711.688 508.773 713.774 509.586 716.044C510.399 718.314 510.753 720.723 510.626 723.131C510.126 738.761 509.626 754.382 509.125 769.993Z" fill="#001D46"/>
<path d="M754.393 700.555C750.453 700.743 746.586 699.447 743.556 696.923C721.881 680.151 700.246 663.37 678.651 646.578C674.997 643.59 672.646 639.3 672.091 634.613C671.537 629.926 672.823 625.206 675.678 621.448C678.534 617.689 682.736 615.186 687.401 614.464C692.066 613.742 696.828 614.859 700.686 617.578C722.701 634.47 744.626 651.481 766.461 668.613C769.348 671.064 771.416 674.339 772.388 677.999C773.359 681.658 773.187 685.528 771.895 689.087C770.578 692.612 768.17 695.625 765.022 697.688C761.875 699.75 758.151 700.755 754.393 700.555Z" fill="#001D46"/>
<path d="M422.366 813.223C419.724 813.2 417.118 812.597 414.735 811.455C412.352 810.313 410.249 808.66 408.576 806.615C406.903 804.569 405.7 802.18 405.053 799.618C404.407 797.056 404.332 794.382 404.834 791.788C409.577 770.773 414.771 749.759 419.844 728.745C421.195 723.071 422.576 717.427 423.927 711.783C424.803 707.413 427.211 703.499 430.717 700.747C434.223 697.995 438.597 696.585 443.05 696.773C447.461 697.048 451.62 698.923 454.748 702.045C457.876 705.168 459.758 709.324 460.042 713.734C460.582 719.738 457.941 725.352 456.74 731.116C456.74 731.837 456.199 732.137 455.479 731.927C455.126 731.818 454.764 731.738 454.398 731.687C444.371 729.855 444.431 729.885 446.773 719.948C447.433 717.187 449.775 713.944 448.064 711.783C446.353 709.621 442.87 710.432 440.318 709.441C437.767 708.451 437.016 709.741 436.506 711.903C429.801 739.922 423.067 767.941 416.302 795.961C415.852 797.732 415.942 798.362 417.923 798.963C427.169 801.484 427.139 801.605 429.361 792.418C431.582 783.232 433.594 774.406 435.875 765.61C436.476 763.268 436.446 761.827 433.744 761.647C431.793 761.647 431.642 760.416 432.033 758.915C432.046 758.796 432.046 758.675 432.033 758.555C432.843 755.553 432.783 751.38 434.765 749.849C436.746 748.318 440.378 750.69 443.29 751.35C451.366 753.211 451.336 753.241 449.295 761.227C446.293 773.715 443.29 786.204 440.288 798.663C439.406 802.768 437.149 806.449 433.89 809.097C430.631 811.744 426.565 813.2 422.366 813.223Z" fill="#001D46"/>
<path d="M603.69 694.251C603.96 695.572 602.759 695.512 602.099 695.782C600.16 696.705 598.152 697.477 596.095 698.093C593.483 698.784 592.853 699.715 593.933 702.536C601.138 721.149 608.133 739.852 615.188 758.525C619.631 770.293 623.984 782.091 628.607 793.799C629.718 796.591 628.967 797.402 626.416 798.332C618.16 801.334 618.19 801.334 615.068 793.169C604.29 764.529 593.423 735.919 582.766 707.22C581.625 704.218 580.394 703.677 577.602 704.998C574.81 706.319 572.198 708.331 570.307 707.31C568.416 706.289 568.296 702.627 567.095 700.285C565.564 697.283 566.134 696.112 569.346 694.971C578.713 691.699 587.959 688.067 597.206 684.464C599.217 683.654 600.208 683.924 600.808 686.085C601.498 688.877 602.669 691.549 603.69 694.251Z" fill="#001D46"/>
<path d="M675.41 773.775C675.41 774.946 665.743 780.5 664.993 779.78C664.476 779.271 664.058 778.67 663.762 778.008C645.509 745.686 627.257 713.334 609.004 680.952C608.074 679.271 607.954 678.31 609.935 677.379C612.757 676.028 615.699 672.936 618.13 673.326C620.562 673.717 621.583 678.13 623.114 680.832C640.166 710.972 657.177 741.113 674.149 771.254C674.569 772.214 675.02 773.085 675.41 773.775Z" fill="#001D46"/>
<path d="M281.658 670.354C281.658 671.435 280.907 671.705 280.367 672.126C271.361 679.571 262.114 686.956 253.078 694.461C251.607 695.662 250.857 695.602 249.566 694.191C243.322 687.136 243.262 687.166 250.406 681.312C257.551 675.458 264.996 669.664 272.081 663.57C274.333 661.588 275.324 662.189 276.735 664.23C278.145 666.272 280.067 668.373 281.658 670.354Z" fill="#FEFEFE"/>
<path d="M314.982 628.776C315.673 629.556 316.333 630.247 316.934 630.967C322.608 637.782 322.608 637.752 315.763 643.336C308.438 649.34 301.083 655.344 293.818 661.348C292.197 662.699 291.386 662.879 289.885 661.078C283.881 653.963 283.881 654.053 291.176 648.169L312.581 630.727L314.982 628.776Z" fill="#FEFEFE"/>
<path d="M358.662 671.075L357.221 672.996C350.016 682.273 342.781 691.519 335.606 700.825C334.555 702.176 333.805 702.747 332.304 701.306C330.052 699.114 325.789 697.883 325.549 695.302C325.369 693.08 328.551 690.498 330.533 688.127C336.237 680.772 342.031 673.447 347.675 666.032C348.875 664.47 349.656 664.02 351.277 665.491C352.898 666.962 355.06 668.493 356.951 669.994C357.531 670.354 358.102 670.715 358.662 671.075Z" fill="#FEFEFE"/>
<path d="M383.789 731.987C380.487 730.366 377.304 728.985 374.212 727.273C373.312 726.823 374.212 725.953 374.392 725.412C379.526 714.605 384.719 703.827 389.823 693.02C390.573 691.429 391.384 691.399 392.825 692.059C401.591 695.782 401.621 695.722 397.538 704.278C393.455 712.834 389.523 721.059 385.53 729.435C385.262 730.461 384.646 731.363 383.789 731.987Z" fill="#FEFEFE"/>
<path d="M497.447 753.782C497.447 756.003 497.267 757.144 494.445 757.024C485.439 756.604 485.439 756.784 485.799 747.718C486.159 738.651 486.399 729.375 486.55 720.189C486.55 717.787 486.88 716.616 489.882 716.736C498.558 717.067 498.528 716.736 498.378 725.502C498.288 729.435 497.387 748.228 497.447 753.782Z" fill="#FEFEFE"/>
<path d="M689.64 624.603L691.531 626.044C714.407 643.796 737.312 661.528 760.248 679.241C762.019 680.621 762.29 681.492 760.698 683.143C758.627 685.335 757.396 689.448 754.874 689.658C752.353 689.868 750.281 686.656 747.97 684.764C726.935 668.393 705.861 652.062 684.746 635.771C682.675 634.21 682.405 633.279 684.176 631.418C685.947 629.556 687.178 627.785 688.439 625.984C688.799 625.534 689.189 625.113 689.64 624.603Z" fill="#FEFEFE"/>
</svg>
