<svg width="1000" height="1000" viewBox="0 0 1000 1000" fill="none" xmlns="http://www.w3.org/2000/svg">
<path d="M747.524 389.458L749.203 394.83C759.778 405.573 761.793 418.499 763.471 428.739L764.311 433.775L764.982 434.447C773.879 446.869 773.712 468.692 773.544 470.539C773.544 471.882 773.04 474.064 772.704 475.407H787.141C794.527 475.407 800.067 480.107 800.067 486.487C800.067 492.866 798.221 493.033 795.199 495.048C798.221 497.062 800.067 500.084 800.067 503.945C800.067 507.806 798.221 510.492 795.199 512.506C798.221 514.521 800.067 517.542 800.067 521.403C800.067 527.447 794.527 532.147 787.141 532.147H775.222C774.383 540.037 771.529 546.92 769.179 552.795L767.5 556.992C768.004 558.167 768.508 559.51 768.675 560.685C770.69 575.625 764.143 587.208 759.107 596.441L755.582 601.477C755.582 616.418 747.692 626.993 741.481 635.387L738.963 638.744V639.584C736.277 654.692 726.708 663.757 718.986 670.975L713.95 674.333C709.417 688.602 698.674 696.324 690.28 702.535L685.916 705.892C678.194 718.65 666.275 723.686 656.539 727.715L652.51 729.394C652.006 730.401 651.502 731.576 650.831 732.416C641.598 744.502 624.14 749.874 618.6 750.881C613.06 751.889 612.389 751.385 612.389 751.385C601.645 762.129 588.551 763.975 577.975 765.486L573.947 766.157C573.947 766.157 573.947 766.325 573.611 766.493C561.189 775.222 548.095 774.719 537.519 774.383L531.979 773.88V788.316C531.979 795.367 527.279 800.907 520.9 800.907C514.521 800.907 514.353 799.06 512.338 796.206C510.324 799.06 507.302 800.907 503.609 800.907C499.916 800.907 497.062 799.06 495.048 796.206C493.033 799.06 490.012 800.907 486.319 800.907C480.275 800.907 475.575 795.535 475.575 788.316V777.237C467.517 776.398 460.467 773.544 454.255 771.026L449.387 769.179C447.876 769.851 446.534 770.354 445.191 770.522C430.082 772.537 418.667 766.157 409.434 760.954L404.566 757.596C389.458 757.596 382.239 752.224 373.846 746.013L366.124 739.634C351.351 736.948 342.286 727.38 335.068 719.825L331.207 715.797C317.106 711.096 309.384 700.52 303.341 691.959L300.151 687.762C287.393 680.04 282.357 668.122 278.328 658.385L276.146 653.181C276.146 653.181 274.467 651.838 273.628 651.335C261.541 642.102 258.016 629.344 255.162 619.271L253.987 613.564C243.915 602.988 242.068 590.23 240.557 580.158L239.718 574.45C230.989 562.028 231.492 548.766 231.828 538.19L232.332 532.986H219.741C212.691 532.986 207.151 528.286 207.151 521.907C207.151 515.528 208.998 515.36 211.852 513.346C208.998 511.331 207.151 508.31 207.151 504.616C207.151 500.923 208.998 498.07 211.852 496.055C208.998 494.041 207.151 491.019 207.151 487.326C207.151 481.283 212.523 476.582 219.741 476.582H231.66C232.667 469.028 235.353 462.313 237.704 456.438L239.382 452.241C238.879 451.066 238.543 449.723 238.375 448.548C236.361 433.44 244.586 418.164 247.944 412.792C251.301 407.252 251.301 407.924 251.301 407.924C251.301 392.815 259.191 382.407 265.57 374.014L268.088 370.656V369.817C270.774 354.877 283.196 342.119 287.897 338.593C292.597 335.068 293.101 335.068 293.101 335.068C297.801 320.631 308.377 312.909 316.938 306.866L321.135 303.844C328.857 291.086 340.776 286.05 350.344 281.853L354.709 280.007C355.212 279 355.716 277.824 356.387 276.985C365.62 264.899 379.721 261.205 387.443 259.023C389.961 258.352 394.83 258.016 394.83 258.016C405.573 247.272 418.499 245.426 429.075 244.083L433.272 243.411C433.272 243.411 433.44 243.243 433.607 243.075C446.03 234.346 459.292 234.85 469.867 235.186L475.575 235.689V221.252C475.575 213.866 480.275 208.326 486.654 208.326C493.033 208.326 493.201 210.173 495.216 213.195C497.23 210.173 500.252 208.326 504.113 208.326C507.974 208.326 510.66 210.173 512.674 213.195C514.689 210.173 517.71 208.326 521.571 208.326C527.615 208.326 532.315 213.866 532.315 221.252V233.339C538.19 234.682 543.562 236.696 548.263 238.711L552.291 240.39C553.466 239.886 554.642 239.55 555.817 239.382C570.925 237.368 582.508 243.915 591.909 249.119L596.777 252.476C611.549 252.644 622.125 260.366 630.519 266.577L635.051 270.27H635.723C650.663 272.956 659.896 282.525 667.282 290.079L671.143 294.444C685.076 299.144 692.798 309.552 699.01 317.945L702.031 322.814C714.789 330.536 719.657 341.615 724.022 351.519L725.365 354.037L726.708 356.388C727.883 357.395 728.555 357.898 729.394 358.57C741.481 367.803 745.342 380.393 748.363 390.633L747.524 389.458Z" fill="white"/>
<path fill-rule="evenodd" clip-rule="evenodd" d="M535.84 122.713C554.306 112.137 566.392 92.1606 566.392 69.666C566.392 35.5885 538.862 7.21851 504.784 7.21851C470.707 7.21851 442.337 35.5885 442.337 69.666C442.337 103.744 454.591 111.801 472.889 122.209C449.723 126.238 426.893 134.632 405.405 146.886V187.511C428.236 207.487 452.745 218.734 477.086 223.435V218.902C477.086 214.034 480.947 210.173 485.815 210.173C490.683 210.173 494.544 214.034 494.544 218.902H494.88C494.88 214.034 498.741 210.173 503.609 210.173C508.477 210.173 512.338 214.034 512.338 218.902H512.674C512.674 214.034 516.535 210.173 521.403 210.173C526.271 210.173 530.132 214.034 530.132 218.902V223.435C554.641 218.902 579.318 207.487 602.316 187.343V146.718C581.165 134.8 559.006 126.406 536.176 122.377L535.84 122.713ZM504.616 98.7075C488.669 98.7075 475.575 85.6137 475.575 69.666C475.575 53.7184 488.669 40.6246 504.616 40.6246C520.564 40.6246 533.658 53.7184 533.658 69.666C533.658 85.6137 520.564 98.7075 504.616 98.7075Z" fill="#FF0000"/>
<path d="M532.986 50.3611C536.847 55.9008 539.197 62.6156 539.197 70.0019C539.197 77.3882 536.008 86.4531 530.804 92.4964H531.643C534.329 92.4964 536.679 91.1535 538.022 88.8033C541.212 83.2636 543.058 76.7167 543.058 69.834C543.058 62.9514 541.883 59.2582 539.869 54.5579C537.854 49.8575 536.008 50.3611 533.154 50.3611H532.986Z" fill="white"/>
<path d="M454.255 70.0019C454.255 56.0687 459.963 43.4784 469.028 34.2456C465.671 34.2456 462.649 35.7564 460.634 38.4423C454.255 47.3394 450.562 58.251 450.562 69.834C450.562 81.417 454.088 91.8249 460.131 100.554C466.174 109.283 465.167 104.919 468.524 104.919C459.627 95.8538 454.255 83.4314 454.255 69.6661V70.0019Z" fill="white"/>
<path d="M585.865 183.817H414.638C414.638 185.832 416.317 187.511 418.331 187.511H587.04C589.055 187.511 590.734 185.832 590.734 183.817H585.865ZM414.638 150.747V172.738C416.653 172.738 418.331 171.059 418.331 169.045V162.498C418.331 155.951 423.535 150.747 430.082 150.747H590.734C590.734 148.733 589.055 147.054 587.04 147.054H418.331C416.317 147.054 414.638 148.733 414.638 150.747Z" fill="white"/>
<path fill-rule="evenodd" clip-rule="evenodd" d="M206.815 98.7074C190.196 110.794 173.241 124.056 156.287 139.668C139.164 155.112 124.559 170.891 110.962 186.335L111.633 187.007L220.581 291.758C240.893 311.063 276.481 299.815 298.472 316.938L303.005 321.471L324.492 302.333L320.127 297.129C305.019 273.628 319.456 239.214 301.998 217.223L207.487 99.211L206.983 98.5396L206.815 98.7074Z" fill="#FF0000"/>
<path fill-rule="evenodd" clip-rule="evenodd" d="M273.627 261.037L198.59 185.832L266.745 267.416C269.095 270.27 269.766 274.131 268.256 276.985L260.869 290.75L272.452 282.693C275.306 280.678 279.335 281.182 282.357 284.036L311.902 310.055L288.568 278.16C286.218 274.803 286.05 270.774 288.232 268.088L297.297 257.344L283.028 263.388C280.174 264.563 276.313 263.723 273.627 261.037Z" fill="white"/>
<path fill-rule="evenodd" clip-rule="evenodd" d="M131.61 184.824L231.996 285.042C236.193 289.239 241.229 292.597 246.768 294.947L248.783 295.786L242.572 295.282C237.032 294.779 231.828 292.429 227.799 288.568L127.917 188.517L131.442 184.992H131.61V184.824Z" fill="white"/>
<path fill-rule="evenodd" clip-rule="evenodd" d="M800.403 98.7074C817.022 110.794 833.977 124.056 850.932 139.668C868.054 155.112 882.659 170.891 896.256 186.335L895.585 187.007L786.637 291.758C766.325 311.063 730.737 299.815 708.746 316.938L701.36 324.492L682.39 302.669L687.091 297.129C702.199 273.628 687.762 239.214 705.221 217.223L799.731 99.211L800.235 98.5396H800.403V98.7074Z" fill="#FF0000"/>
<path fill-rule="evenodd" clip-rule="evenodd" d="M733.591 261.037L808.628 185.832L740.473 267.416C738.123 270.27 737.452 274.131 738.963 276.985L746.349 290.75L734.766 282.693C731.912 280.678 727.883 281.182 724.861 284.036L695.316 310.055L718.65 278.16C721 274.803 721.168 270.774 718.986 268.088L709.921 257.344L724.19 263.388C727.044 264.563 730.905 263.723 733.591 261.037Z" fill="white"/>
<path fill-rule="evenodd" clip-rule="evenodd" d="M803.76 119.187L712.943 228.303C709.082 232.835 706.228 238.207 704.549 243.915L703.878 245.929V239.718C703.71 234.178 705.556 228.638 709.25 224.442L799.899 115.998L803.76 119.187Z" fill="white"/>
<path fill-rule="evenodd" clip-rule="evenodd" d="M679.705 709.586C682.894 706.9 685.916 697.163 685.916 697.163C686.923 698.338 688.098 699.345 689.105 700.521C710.425 722.679 731.744 745.006 753.064 767.333C773.376 744.502 788.988 718.315 799.564 689.945C788.652 685.58 775.558 681.216 764.815 676.851C806.95 654.356 846.063 623.804 875.105 577.472C889.71 636.226 885.345 694.309 861.34 752.392C854.793 740.809 848.246 729.226 842.538 717.643C824.744 750.042 805.943 778.244 786.302 802.585C804.768 821.89 823.065 841.028 841.531 860.333C853.953 873.426 835.823 894.074 821.89 879.47C804.264 860.668 786.638 841.699 768.843 822.898C720.497 874.769 665.771 906.665 596.441 926.641C563.707 936.042 538.358 945.443 504.281 1000C469.532 945.61 444.015 936.21 411.281 926.641C343.126 906.665 287.897 874.769 239.55 822.898C222.092 841.699 204.633 860.333 187.343 879.134C173.577 893.571 155.447 873.259 167.702 860.165C185.832 840.86 203.962 821.723 222.092 802.418C202.451 778.076 183.985 749.874 165.855 717.475C159.308 729.058 152.761 740.641 146.215 752.224C122.209 694.142 117.845 636.059 132.449 577.304C161.491 623.804 200.604 654.356 242.74 676.683C231.828 681.048 219.574 685.412 208.662 689.777C219.574 718.147 234.85 744.67 255.162 767.501C275.642 746.181 316.434 703.374 316.434 703.374L337.418 717.643C337.418 717.643 294.947 763.136 273.796 785.966C309.048 817.19 356.22 840.02 416.485 849.421C442.001 852.946 473.896 828.941 485.311 798.724C485.983 797.046 495.384 793.52 495.384 793.52C495.384 793.52 501.259 798.053 504.281 798.053C507.302 798.053 513.346 793.52 513.346 793.52C513.346 793.52 522.914 797.046 523.586 798.724C535.001 828.941 566.896 852.946 591.573 849.421C652.174 839.685 699.345 817.19 734.934 785.631C713.782 762.968 692.631 740.474 671.479 717.811C669.968 716.132 677.019 711.936 680.04 709.418H679.705V709.586Z" fill="#FF0000"/>
<path fill-rule="evenodd" clip-rule="evenodd" d="M458.788 897.6C392.479 893.907 326.674 865.369 273.795 818.365C236.193 785.295 204.633 742.488 182.81 692.799C175.256 675.676 204.465 675.34 216.216 673.494L184.657 673.829C177.27 673.829 170.22 670.472 165.687 664.429C158.301 654.524 147.893 638.409 144.536 621.79C148.733 642.438 155.951 659.393 160.651 669.297C163.673 675.508 163.673 682.727 160.651 689.106C156.958 697.163 152.09 708.578 150.075 717.476C154.44 706.228 166.359 680.041 175.424 698.674C201.108 752.728 232.667 793.353 267.752 824.241C322.142 871.412 386.604 899.782 457.613 906.329C477.925 908.176 500.42 943.26 503.609 958.536V842.538C498.237 855.968 478.597 898.775 458.62 897.768L458.788 897.6Z" fill="white"/>
<path fill-rule="evenodd" clip-rule="evenodd" d="M175.424 878.63C177.103 880.309 179.956 880.141 181.467 878.63L236.528 820.044C235.689 819.037 234.682 818.029 233.675 816.687L175.424 878.798V878.63Z" fill="white"/>
<path fill-rule="evenodd" clip-rule="evenodd" d="M334.396 715.293L331.207 712.271L267.249 780.426C268.424 781.601 269.431 782.609 270.438 783.448L334.396 715.293Z" fill="white"/>
<path fill-rule="evenodd" clip-rule="evenodd" d="M740.809 779.587L677.355 711.936L674.165 714.957L737.62 782.777L740.641 779.755H740.809V779.587Z" fill="white"/>
<path fill-rule="evenodd" clip-rule="evenodd" d="M772.033 819.205L827.598 878.295C829.276 879.973 831.962 880.141 833.641 878.295L775.054 815.847C774.047 817.022 773.04 818.029 772.033 819.037V819.205Z" fill="white"/>
<path fill-rule="evenodd" clip-rule="evenodd" d="M846.567 669.633C851.435 659.728 858.486 642.606 862.682 622.125C859.325 638.577 848.749 654.86 841.531 664.764C836.998 670.808 829.948 674.165 822.561 674.165L791.002 673.829C802.585 675.676 831.962 676.012 824.408 693.134C802.753 742.824 771.193 785.631 733.423 818.701C686.251 860.501 628.504 887.863 569.582 895.921C565.049 896.593 555.984 905.993 555.984 905.993C624.475 898.439 686.587 870.405 739.298 824.576C774.383 793.688 805.942 753.064 831.626 699.01C840.691 680.544 852.61 706.564 856.975 717.811C854.96 709.082 850.092 697.667 846.399 689.441C843.545 683.062 843.545 675.844 846.567 669.633Z" fill="white"/>
<path d="M570.589 695.149C569.75 693.806 567.903 691.623 564.21 692.798C560.853 693.806 558.503 696.156 562.196 707.907C564.882 716.132 567.4 720.329 572.268 718.818C574.114 718.147 575.625 716.804 576.129 715.125C576.968 711.6 574.786 705.053 574.618 704.214C573.947 702.199 572.268 697.834 570.589 695.149Z" fill="black"/>
<path d="M685.077 408.091L690.448 419.003L703.878 406.077L703.71 405.909L685.077 408.091Z" fill="black"/>
<path d="M676.011 362.431L667.282 369.313L670.64 373.678C672.486 376.028 675.508 379.889 680.04 376.364C684.069 373.174 681.551 369.481 679.369 366.795L676.011 362.599V362.431Z" fill="black"/>
<path d="M488.165 701.527C483.633 701.192 481.282 703.878 481.114 707.403C480.947 710.424 482.29 713.95 487.158 714.285C491.69 714.621 494.04 712.103 494.376 708.41C494.544 705.724 493.369 701.863 488.165 701.527Z" fill="black"/>
<path d="M656.035 644.116L673.326 651.335V651.167L663.925 634.883L656.035 644.116Z" fill="black"/>
<path d="M521.907 282.189H521.739L514.017 299.48L526.104 300.487L521.907 282.189Z" fill="black"/>
<path d="M307.034 395.837L304.684 399.866L313.749 405.07L316.099 401.041C317.442 398.691 318.113 397.516 318.281 396.341C318.953 393.655 316.938 391.808 315.763 391.137C311.231 388.619 308.88 392.815 307.034 395.837Z" fill="black"/>
<path d="M297.13 457.781C303.676 459.627 310.559 459.459 312.909 451.569C315.259 443.008 308.209 439.483 302.669 437.972C296.962 436.293 293.772 436.965 291.59 437.804C288.904 438.811 287.393 441.497 286.722 444.183C284.539 451.905 290.247 455.934 297.297 457.948L297.13 457.781Z" fill="black"/>
<path d="M499.58 375.692C498.069 376.028 496.559 376.196 494.88 376.532C489.508 377.707 483.633 379.218 477.254 381.232C452.073 389.29 420.01 404.062 388.45 423.367C399.53 439.147 415.142 480.275 419.171 492.194C425.046 488.669 473.896 461.642 511.163 454.927C511.163 453.416 509.988 446.869 508.813 438.14C508.142 433.439 507.302 427.9 506.463 422.36C505.791 417.324 504.952 412.288 504.281 407.252C503.609 402.216 502.77 397.515 502.266 393.151C500.923 384.086 499.916 377.203 499.748 375.524H499.58V375.692ZM486.319 388.954L487.326 382.911L490.683 387.947L496.391 386.772L492.53 391.304L495.551 396.508L489.676 394.326L485.143 398.69L485.647 392.647L480.443 389.961L486.151 388.786H486.319V388.954ZM408.091 430.082L405.237 435.622L403.727 429.746L397.851 428.907L402.887 425.885L402.048 419.842L406.916 423.535L411.952 420.514L409.77 426.053L414.302 430.082H408.091ZM426.557 477.086L423.199 482.29L422.36 476.414L416.653 474.903L422.024 472.553V466.342C421.857 466.342 426.221 470.707 426.221 470.707L431.593 468.356L428.739 473.56L432.768 478.093L426.725 477.253H426.557V477.086ZM425.718 443.008C409.266 405.069 470.371 380.057 486.822 417.995C503.441 455.934 442.337 480.947 425.718 443.008ZM505.456 441.497L501.427 446.03L504.281 451.234L498.573 448.883L494.04 453.08L494.712 447.205L489.508 444.351L495.383 443.344L496.559 437.3L499.916 442.504L505.624 441.329H505.456V441.497Z" fill="#FF0000"/>
<path d="M800.739 504.281C800.739 500.755 799.06 497.566 796.374 495.384C799.228 493.201 800.739 490.18 800.739 486.822C800.739 483.465 799.396 480.611 796.878 478.429C794.36 476.246 791.002 475.239 787.309 475.239H773.544C773.879 473.728 774.215 472.05 774.215 471.043C774.215 470.035 774.383 464.328 773.376 456.774C772.369 450.227 770.354 441.162 765.654 434.615C765.654 434.447 765.318 434.111 765.15 433.943L764.311 429.075C762.632 418.667 760.618 405.909 750.21 395.165L748.531 389.626C745.509 379.386 741.648 366.628 729.394 357.395C728.722 356.891 728.387 356.555 727.715 356.052C727.38 355.884 727.044 355.548 726.708 355.212L725.533 353.03L724.19 350.68C722.176 345.98 719.825 340.608 716.3 335.404C712.439 329.696 707.907 325.164 702.199 321.806L699.177 316.938C696.324 313.077 692.63 308.041 688.098 303.844C682.894 298.976 677.522 295.619 671.143 293.436L667.282 289.24C659.896 281.518 650.663 271.781 635.387 269.263H634.883L630.519 265.57C622.125 259.359 611.549 251.637 596.609 251.301L591.909 247.944C583.851 243.411 573.779 237.871 561.188 237.871C548.598 237.871 557.495 237.871 555.649 238.207C554.306 238.375 553.131 238.879 552.124 239.214L548.263 237.704C543.898 236.025 538.526 233.843 532.651 232.5V220.917C532.651 213.195 527.782 207.487 521.403 207.487C515.024 207.487 514.689 209.166 512.506 211.852C510.324 208.998 507.302 207.487 503.945 207.487C500.588 207.487 497.23 209.166 495.048 211.852C492.866 208.998 489.844 207.487 486.486 207.487C483.129 207.487 480.275 208.83 478.093 211.348C475.911 213.866 474.903 217.224 474.903 220.917V234.85L469.699 234.346H462.817C457.109 234.346 452.577 234.85 448.212 235.857C442.672 237.2 437.636 239.382 433.104 242.572H432.936C432.936 242.74 428.907 243.411 428.907 243.411C418.499 244.922 405.405 246.769 394.494 257.344C393.487 257.344 389.458 257.68 387.275 258.352H386.94C382.911 259.527 377.539 261.038 371.999 263.891C365.285 267.081 359.913 271.445 355.884 276.649C355.212 277.489 354.709 278.664 354.205 279.503L350.008 281.35C340.272 285.379 328.353 290.415 320.463 303.341L316.434 306.362C307.873 312.574 297.297 320.128 292.597 334.732C291.758 335.068 290.079 336.243 287.393 338.258C283.028 341.615 270.102 354.373 267.249 369.817V370.489L264.898 373.678C258.687 382.072 250.797 392.647 250.629 407.588C250.126 408.091 249.287 409.266 247.272 412.456C244.418 416.988 235.353 432.768 237.536 448.716C237.536 450.059 238.039 451.234 238.543 452.241L236.864 456.27C234.682 461.81 231.996 468.524 230.821 476.079H219.406C212.019 476.079 206.312 480.947 206.312 487.326C206.312 493.705 207.823 493.873 210.676 496.055C207.823 498.237 206.312 501.259 206.312 504.616C206.312 507.974 207.823 511.163 210.676 513.346C207.823 515.528 206.312 518.55 206.312 521.907C206.312 525.264 207.655 528.118 210.173 530.301C212.523 532.483 215.88 533.658 219.406 533.658H231.324L230.821 538.19C230.485 548.934 229.982 562.196 238.711 574.618C238.711 575.29 239.382 578.815 239.55 580.326C240.222 585.194 241.061 591.069 243.075 596.945C245.258 603.66 248.615 609.199 252.98 613.9L254.155 619.439C257.009 629.679 260.534 642.438 272.788 651.838C273.46 652.342 274.803 653.349 275.306 653.685L277.489 658.721C281.518 668.457 286.554 680.544 299.48 688.266L302.501 692.463C305.355 696.492 308.88 701.36 313.413 705.724C318.449 710.593 323.989 713.95 330.2 716.132L334.229 720.329C337.754 724.19 341.783 728.387 346.987 732.08C352.694 736.277 358.738 738.963 365.452 740.138L373.007 746.349C377.035 749.371 381.064 752.392 385.932 754.575C391.136 756.925 396.844 758.1 403.895 758.1L408.595 761.457C416.653 765.99 426.557 771.529 438.979 771.529C451.402 771.529 442.84 771.529 444.687 771.194C446.03 771.026 447.373 770.522 448.884 770.019L453.584 771.865C459.292 774.215 466.51 777.237 474.568 778.076V788.652C474.568 796.038 479.436 801.746 485.815 801.746C492.194 801.746 492.362 800.235 494.544 797.381C496.727 800.235 499.748 801.746 503.106 801.746C506.463 801.746 509.652 800.235 511.835 797.381C514.017 800.235 517.039 801.746 520.396 801.746C523.754 801.746 526.607 800.403 528.79 797.885C530.972 795.535 532.147 792.177 532.147 788.652V774.719L537.015 775.222H543.562C547.087 775.222 552.459 775.222 558.167 773.712C563.707 772.369 568.743 770.186 573.275 766.997C573.275 766.997 573.443 766.997 573.443 766.829L577.304 766.325C587.712 764.815 600.806 763.136 611.717 752.392H612.557C613.732 752.392 615.578 752.224 617.928 751.721C623.804 750.713 641.262 745.174 650.495 733.087C651.167 732.248 651.67 731.073 652.174 730.233L656.035 728.555C660.903 726.54 666.275 724.358 671.479 720.833C677.522 716.972 682.055 712.271 685.58 706.564L689.945 703.374C698.506 697.163 709.082 689.441 713.782 675.172L718.65 671.983C726.54 664.596 736.109 655.531 738.795 640.255V639.584L741.145 636.226C744.334 632.03 747.86 627.329 750.546 621.622C753.735 615.243 755.246 608.864 755.414 602.149L758.771 597.281C763.975 587.88 770.354 576.465 768.34 561.189C768.34 560.013 767.836 558.838 767.333 557.495L768.843 553.634C771.194 548.095 773.879 541.212 774.887 533.322H786.302C794.024 533.322 799.731 528.454 799.731 522.075C799.731 515.696 798.053 515.36 795.367 513.178C798.221 510.996 799.731 507.974 799.731 504.616L800.739 504.281ZM787.309 527.782H753.064C750.378 527.782 748.028 526.775 746.517 525.264C745.677 524.257 745.174 523.082 745.174 521.739C745.174 520.396 745.845 518.55 747.188 517.375C748.699 516.032 750.713 515.36 753.231 515.36H787.477C792.177 515.36 795.702 517.878 795.702 521.403C795.702 524.929 792.177 527.782 787.477 527.782H787.309ZM715.293 668.289C715.293 666.611 714.957 664.932 714.957 663.253C714.957 659.896 715.125 656.874 715.629 654.524C717.139 645.627 723.854 636.73 731.576 628.169C732.919 630.855 733.926 633.037 734.262 637.905V639.248C731.744 652.51 723.351 660.567 715.796 667.618C715.796 667.618 715.461 667.954 715.293 667.954V668.289ZM688.602 686.755C688.602 686.419 688.602 686.084 688.769 685.916C691.623 676.851 700.017 668.457 709.417 660.735V663.925C709.417 665.771 709.753 667.618 709.753 669.297C709.753 670.975 709.753 671.815 709.25 672.822C705.221 685.412 696.156 692.463 687.93 698.338C686.587 691.12 688.434 686.587 688.434 686.587H688.602V686.755ZM684.573 684.405C684.573 685.076 684.237 685.748 684.069 686.419C670.64 691.12 660.735 699.178 655.196 708.746C654.524 709.921 653.853 711.096 653.181 712.607C640.759 716.804 626.993 722.176 619.607 731.912C619.439 732.248 619.104 732.584 618.936 732.919L618.264 731.912C604.163 734.598 589.894 738.291 581.501 746.685C573.107 755.078 580.661 747.692 580.158 748.195C566.56 748.699 553.131 750.042 544.066 756.421C544.066 756.421 543.898 756.421 543.73 756.589C539.701 756.085 535.84 755.75 531.811 755.582V753.735C531.811 751.553 531.476 749.538 530.636 747.692C643.948 734.934 734.262 643.948 746.013 530.301C748.027 531.476 750.378 532.147 753.064 532.147H754.071C754.071 535.001 754.407 537.687 755.078 540.373C755.414 541.716 755.917 543.394 756.589 544.905C750.378 557.495 745.006 570.757 746.517 582.34C746.517 582.508 746.181 583.012 746.181 583.012C738.795 594.259 730.905 607.185 730.905 619.607C730.905 632.03 730.905 621.118 730.905 621.957C721.672 631.862 713.111 642.438 711.264 653.517C711.264 653.853 687.427 668.625 684.573 684.237V684.405ZM654.188 723.686C654.188 723.351 654.356 722.847 654.524 722.344L656.203 717.14C657.042 714.789 658.049 712.775 659.057 711.096C663.589 703.374 672.822 697.331 682.894 692.295C684.069 696.156 683.398 699.01 681.887 703.374C675.004 715.125 664.093 719.658 654.524 723.686H654.188ZM617.089 746.517C617.089 746.517 616.586 746.685 616.418 746.685C618.432 741.984 620.782 737.62 623.132 734.766C628.84 727.38 639.584 722.511 650.831 718.315C650.495 721.672 648.145 727.38 648.145 727.38C647.809 728.219 647.306 729.058 646.97 729.73C638.576 740.641 627.161 743.831 617.089 746.517ZM578.479 760.786C579.151 759.778 580.158 754.407 584.858 750.042C591.741 743.495 602.82 739.97 614.739 737.452C614.067 738.795 613.396 740.306 613.396 740.306C612.053 743.327 610.878 746.517 609.199 748.195C599.799 757.596 588.719 759.443 578.647 760.786H578.479ZM570.086 763.136C559.174 770.354 547.591 770.186 537.351 769.851H536.68C537.351 769.179 538.022 768.34 538.694 767.668C541.38 764.815 544.234 762.129 546.584 760.45C553.802 755.414 564.882 753.903 576.297 753.232C575.122 758.268 572.939 759.946 569.918 763.136H570.086ZM531.811 768.004V760.282C533.994 760.282 536.176 760.618 538.526 760.786C537.519 761.793 536.512 762.968 536.512 762.968C535.001 764.479 533.49 766.158 532.147 767.836H531.811V768.004ZM527.279 755.582V788.316C527.279 792.849 524.593 796.206 521.235 796.206C517.878 796.206 514.856 792.849 514.856 788.316V754.071C514.856 752.224 515.192 750.714 515.864 749.371C516.871 747.188 518.717 745.845 520.9 745.845C523.082 745.845 524.761 746.853 525.936 748.699C526.943 750.042 527.447 752.056 527.447 754.239V755.917V755.582H527.279ZM509.82 757.428V787.981C509.82 792.513 507.134 795.87 503.777 795.87C500.42 795.87 497.398 792.513 497.398 787.981V763.975V753.567C497.398 751.889 497.734 750.378 498.237 749.035C499.245 746.685 501.091 745.174 503.441 745.174C505.791 745.174 507.974 746.685 508.981 749.035C509.485 750.378 509.82 751.889 509.82 753.567V757.26V757.428ZM492.53 758.1V788.148C492.53 792.681 489.844 796.038 486.486 796.038C483.129 796.038 480.107 792.681 480.107 788.148V753.903C480.107 751.721 480.611 749.874 481.45 748.531C482.458 746.685 484.136 745.677 486.151 745.677C488.165 745.677 490.515 747.02 491.523 749.203C492.194 750.546 492.53 752.056 492.53 753.903V758.1ZM485.144 736.78C479.772 736.445 474.736 735.102 471.378 731.241C469.196 728.723 469.196 726.037 469.196 724.19L480.443 725.029C480.443 727.38 482.458 729.226 485.815 729.394C492.362 729.898 493.537 724.694 494.041 717.475C491.858 719.658 489.005 721.336 483.801 721.001C478.093 720.665 475.239 718.986 473.225 716.636C470.875 714.118 469.699 710.761 470.035 707.067C470.539 698.842 477.925 693.47 488.837 694.141C500.084 694.981 503.106 701.024 504.449 704.549C505.959 708.578 506.295 712.775 505.959 716.972C505.624 721.672 504.449 727.715 500.252 731.912C495.887 736.445 490.347 737.116 484.976 736.78H485.144ZM411.281 756.589C411.281 756.589 410.777 756.253 410.609 756.253C415.31 754.407 420.178 752.896 423.871 752.56C433.608 751.217 445.023 755.75 455.431 760.618C454.088 761.289 452.577 762.129 452.577 762.129C449.723 763.807 446.701 765.486 444.351 765.822C430.754 767.668 420.514 761.793 411.281 756.757V756.589ZM337.922 715.964C339.433 715.964 340.943 715.797 342.286 715.629H345.98C347.994 715.629 349.841 715.629 351.351 715.964C360.584 717.643 369.817 724.862 378.714 732.919C376.028 734.766 369.817 735.102 366.795 734.766C353.198 733.423 345.308 723.854 338.09 716.3V715.964C337.978 715.964 337.978 715.964 338.09 715.964H337.922ZM307.369 689.777C309.888 688.434 319.624 690.448 319.96 690.616C329.193 693.47 337.586 702.199 344.972 711.096C341.279 712.607 336.075 712.271 332.886 711.096C320.128 707.067 313.245 698.002 307.369 689.777ZM282.021 655.531C287.393 657.21 292.093 659.057 294.779 660.567C302.669 665.268 308.712 674.669 313.581 684.405C309.048 686.084 307.369 685.58 302.501 683.398C290.918 676.515 286.386 665.604 282.357 656.203C282.357 656.203 282.189 655.699 282.021 655.531ZM211.684 521.571C211.684 517.71 215.041 515.192 219.574 515.192H253.819C256.001 515.192 257.848 515.696 259.359 516.703C261.037 517.71 262.045 519.389 262.045 521.403C262.045 523.418 261.205 524.761 259.862 525.936C258.352 527.111 256.337 527.782 253.819 527.782H219.574C215.041 527.782 211.684 525.097 211.684 521.739V521.571ZM219.574 480.443H253.819C256.505 480.443 258.687 481.283 260.198 482.458C261.373 483.465 262.212 484.976 262.212 486.487C262.212 487.997 261.205 490.18 259.527 491.355C258.016 492.362 256.169 492.866 253.819 492.866H219.574C215.041 492.866 211.684 490.18 211.684 486.822C211.684 483.465 215.041 480.443 219.574 480.443ZM291.422 340.44C291.422 342.119 291.758 343.797 291.758 345.308C291.758 348.498 291.59 351.687 291.086 354.205C289.575 363.27 282.525 372.335 275.138 380.393C270.774 375.525 272.117 367.299 272.117 367.299C274.635 354.037 283.196 347.994 290.75 340.944C290.75 340.944 291.254 340.608 291.422 340.44ZM318.113 322.31C318.113 322.646 318.113 322.814 317.945 323.149C315.091 332.214 306.698 340.608 297.297 348.33C295.115 344.133 296.962 337.25 297.297 336.243C301.326 323.485 310.391 316.602 318.617 310.727C320.295 316.435 318.113 322.478 318.113 322.478V322.31ZM295.954 353.702C295.954 353.702 314.588 343.797 322.142 324.324C322.31 323.821 322.478 322.981 322.646 322.31C333.893 316.77 345.812 309.888 351.519 299.983C352.191 298.808 352.862 297.465 353.534 295.954C366.795 291.422 380.393 286.386 387.443 277.153C387.779 276.817 387.947 276.482 388.115 276.146C388.115 276.146 411.784 274.635 425.046 261.877C425.55 261.541 425.885 260.87 426.389 260.366C439.819 260.03 453.416 258.519 462.481 252.14C462.481 252.14 462.649 252.14 462.817 251.973C467.014 252.476 471.042 252.98 475.071 253.148V254.826C475.071 257.848 475.911 260.534 477.254 262.716C363.942 274.635 273.292 364.613 260.366 477.589C258.352 476.582 256.001 476.079 253.483 476.079H252.476C252.476 473.393 252.14 470.707 251.469 468.357C251.133 467.014 250.629 465.503 249.958 463.824C255.666 451.905 261.541 438.476 260.03 426.389C260.03 426.053 260.366 425.55 260.366 425.55C268.424 413.631 275.642 400.873 275.642 388.954C275.642 377.035 275.642 387.443 275.642 386.604C284.371 377.203 293.268 366.628 295.283 355.045C295.283 354.709 295.619 354.037 295.786 353.702H295.954ZM352.526 285.043C352.526 285.379 352.359 285.882 352.191 286.218L350.512 291.086C349.505 293.772 348.498 296.122 347.658 297.633C342.958 305.523 333.389 311.566 323.821 316.435C323.485 312.238 323.149 311.063 324.828 305.187C331.711 293.604 342.454 289.072 352.023 285.211C352.023 285.211 352.359 285.211 352.694 284.875H352.526V285.043ZM358.57 281.35C358.905 280.51 359.241 279.671 359.745 279C368.138 268.256 379.553 265.066 389.458 262.213C389.458 262.213 389.961 262.213 390.129 262.045C387.779 267.249 385.261 271.613 383.582 273.963C377.875 281.35 367.131 286.218 355.884 290.247C356.891 287.393 357.059 286.554 357.73 283.532L358.402 281.182H358.57V281.35ZM436.629 245.593C447.709 238.375 459.124 238.543 469.364 239.047H470.035C469.532 239.55 469.028 240.054 468.524 240.725C465.167 244.251 462.145 247.104 460.131 248.447C452.745 253.651 441.833 255.162 430.418 255.666C432.6 252.644 434.783 249.287 436.629 245.761V245.593ZM474.736 240.725C474.903 240.557 475.071 240.39 475.407 240.222V248.279C473.057 248.279 470.707 247.944 468.189 247.776C469.196 246.769 470.203 245.593 470.203 245.593C471.714 244.083 473.225 242.404 474.568 240.725H474.736ZM393.151 268.76C394.326 265.738 396.005 262.213 397.683 260.534C406.916 251.301 419.506 249.287 429.411 247.776C427.564 252.308 422.528 257.848 422.528 257.848L421.689 258.687C414.974 265.402 403.559 268.76 391.808 271.278C392.479 269.935 392.815 268.76 392.815 268.76H393.151ZM479.94 253.148V220.413C479.94 215.713 482.458 212.187 485.983 212.187C489.508 212.187 492.362 215.713 492.362 220.413V254.658C492.362 257.68 491.187 260.198 489.34 261.541C488.501 262.213 487.326 262.548 486.319 262.548C485.311 262.548 484.472 262.38 483.633 261.877C481.283 260.702 479.94 258.016 479.94 254.658V253.148ZM488.165 272.453L490.347 314.756L477.757 315.427L475.575 273.124L488.165 272.453ZM446.198 323.989L434.279 327.178L423.2 286.218L435.286 283.028L439.651 298.976L453.92 295.115L449.555 279.167L461.642 275.978L472.721 316.938L460.635 320.128L456.102 303.509L441.665 307.37L446.198 323.989ZM370.488 368.978L362.263 376.028L334.564 343.965L347.49 332.886L379.553 346.987L358.738 323.149L366.963 316.099L394.662 348.162L382.071 359.073L348.833 344.301L370.488 369.146V368.978ZM449.555 675.508C377.371 652.678 324.66 584.858 324.66 505.288C324.66 425.718 338.257 427.564 361.088 397.516L360.081 429.579L369.985 425.046C388.451 483.465 447.876 670.472 449.555 675.34V675.508ZM378.714 447.373L392.983 452.745L401.88 479.772L386.94 474.064L378.714 447.373ZM408.091 539.533L423.703 545.241L432.6 572.268L416.485 566.057L408.091 539.533ZM436.629 701.192L438.811 692.463C444.015 692.295 447.037 691.791 452.409 689.273L462.145 691.791L451.905 731.241L440.322 728.219L447.876 699.01C444.015 700.688 438.644 701.192 436.461 701.192H436.629ZM445.358 658.049L436.629 630.687L453.92 637.234L462.985 664.764L445.358 658.217V658.049ZM381.736 671.815L394.83 678.53L406.58 668.289L404.902 683.733L418.163 690.616L403.727 693.47L400.873 708.242L392.983 694.477L377.203 695.988L388.115 685.244L381.736 671.647V671.815ZM350.848 630.687C350.176 629.847 346.651 625.651 342.958 628.672C341.447 630.015 340.943 631.526 342.286 634.212L347.155 644.284C348.498 647.138 352.023 654.524 345.14 660.232C339.768 664.596 331.375 664.428 322.981 654.188C311.902 640.759 318.449 634.548 321.806 631.526L329.696 641.262C328.689 642.102 325.164 644.956 328.857 649.488C331.207 652.174 334.061 652.845 336.075 651.167C338.425 649.152 337.418 646.634 336.579 644.956L332.886 637.234C330.2 631.694 327.178 625.147 334.061 619.439C341.447 613.396 350.008 617.257 357.059 625.986C360.081 629.512 364.277 635.723 363.438 641.598C362.934 646.299 359.745 648.984 358.402 650.16L350.512 640.591C351.855 639.416 355.548 636.226 350.848 630.687ZM319.96 379.889C323.989 382.239 324.66 384.925 324.828 387.276C324.828 390.633 323.821 393.151 323.317 394.326H323.485C328.017 387.108 331.375 388.451 337.586 390.801C340.272 391.808 344.637 393.487 347.658 394.158L341.111 405.741C338.425 405.07 335.572 403.727 332.046 402.216C327.346 400.202 325.667 399.362 322.813 404.23L320.295 408.763L334.732 416.988L328.689 427.732L291.925 406.748L302.165 388.786C306.194 381.904 308.041 379.386 311.566 378.378C313.413 377.875 316.267 377.539 320.295 379.721H319.96V379.889ZM317.777 364.949L325.667 355.045L358.738 381.568L350.848 391.472L317.777 364.949ZM306.194 425.718C322.478 430.25 323.989 443.848 321.135 454.088C317.945 465.503 308.88 474.4 293.772 470.035C291.086 469.364 283.028 466.51 279.335 459.627C275.642 452.745 277.489 444.519 278.496 441.33C283.364 424.207 296.29 423.032 306.362 425.718H306.194ZM317.274 546.584L308.712 548.263L306.698 537.687L315.259 536.008L317.274 546.584ZM284.875 476.247L284.371 489.005C280.007 489.34 278.328 492.53 278.328 496.055C277.992 503.609 284.539 505.959 292.261 506.295C294.779 506.295 305.523 506.799 305.859 497.23C306.194 490.683 301.662 489.844 299.983 489.508L300.487 476.75C313.749 477.254 314.252 491.523 314.084 497.23C314.084 501.595 312.909 509.149 307.873 513.849C302.837 518.55 295.954 519.221 291.59 519.053C285.714 518.885 280.007 517.207 275.642 512.842C270.942 508.142 269.767 502.266 270.102 495.719C270.438 488.501 272.285 483.129 275.81 479.772C279.503 476.414 283.364 476.414 285.043 476.414H284.875V476.247ZM283.028 568.911C285.211 564.21 288.736 562.867 290.247 562.364L294.779 574.282C290.918 576.297 290.582 579.822 291.758 583.012C294.443 590.062 301.326 589.894 308.545 587.208C310.895 586.369 320.967 582.508 317.61 573.611C315.259 567.4 310.895 568.407 309.216 568.743L304.684 556.656C317.106 552.124 323.149 565.05 325.164 570.421C326.674 574.45 328.689 581.837 325.835 588.216C322.981 594.427 316.938 597.616 312.741 599.295C307.369 601.309 301.326 601.981 295.619 599.631C289.407 597.113 286.218 592.077 283.868 586.033C281.35 579.319 281.014 573.611 283.028 569.078V568.911ZM328.689 601.309L336.243 596.945L341.783 606.346L334.229 610.71L328.689 601.309ZM392.815 310.391L380.896 316.77L377.035 309.384L412.288 290.75L416.149 298.137L403.895 304.684L419.842 334.732L408.763 340.608L392.983 310.559L392.815 310.391ZM271.445 387.276V388.786C271.445 398.187 265.906 408.763 259.359 419.003C258.184 417.828 255.666 409.77 255.666 407.42C255.666 394.158 262.212 384.925 268.424 376.7C269.599 379.554 270.438 380.561 271.445 387.276ZM251.972 413.631C253.819 418.499 255.33 423.2 255.833 426.893C255.833 428.068 256.001 429.243 256.001 430.418C256.001 439.147 252.14 449.052 247.776 458.117C246.433 455.431 245.09 452.745 243.579 450.059C243.243 449.052 242.74 448.044 242.74 447.205C242.572 445.526 242.404 443.848 242.404 442.169C242.404 430.922 247.44 422.192 251.805 414.135C251.805 414.135 252.14 413.631 252.14 413.463H251.972V413.631ZM241.732 457.445C241.732 457.445 241.732 457.109 241.9 456.941L242.404 457.949L244.418 461.81C245.761 464.831 246.768 467.517 247.272 469.364C247.776 471.546 248.111 473.728 248.111 476.079H235.857C236.864 469.364 239.214 463.321 241.565 457.613H241.732V457.445ZM219.574 497.902H253.819C255.833 497.902 257.68 498.405 259.191 499.245C261.037 500.252 262.212 502.098 262.212 503.945C262.212 505.792 261.037 507.974 259.191 509.149C257.848 509.988 256.001 510.492 253.987 510.492H219.741C215.209 510.492 211.852 507.806 211.852 504.449C211.852 501.091 215.209 498.07 219.741 498.07L219.574 497.902ZM245.593 532.483C245.593 534.665 245.258 536.847 245.09 539.03C244.083 538.023 242.907 536.847 242.907 536.847C241.397 535.337 239.718 533.826 238.039 532.483H245.593ZM236.193 537.519V536.847C236.696 537.351 237.2 537.855 237.871 538.358C241.397 541.548 244.25 544.569 245.761 546.752C251.133 554.474 252.476 565.889 252.98 577.808C250.294 575.961 247.44 573.947 244.418 572.268C243.915 571.932 243.579 571.429 243.243 570.925C237.032 562.028 236.025 552.795 236.025 544.234C236.025 535.672 236.025 539.701 236.025 537.519H236.193ZM244.922 578.647C245.929 579.319 255.33 585.865 255.833 586.369C262.716 593.252 266.073 605.003 268.424 616.25C267.92 615.914 267.249 615.746 266.745 615.411C264.395 614.068 261.709 612.892 259.191 611.717C258.687 611.382 258.184 610.878 257.68 610.542C247.944 600.806 246.433 589.223 244.922 578.815V578.479V578.647ZM259.191 616.921C260.366 617.593 261.709 618.096 263.052 618.6C266.241 620.279 269.095 621.79 271.11 623.468C278.664 629.176 283.532 640.087 287.561 651.335C286.218 650.831 284.707 650.327 284.707 650.327C281.518 649.488 278.16 648.649 276.146 647.138C265.234 638.912 262.213 627.497 259.359 617.425V616.921H259.191ZM372.503 738.963C374.014 738.627 375.357 738.459 376.868 738.123L383.247 737.116H386.1C395.669 737.116 406.077 742.656 416.149 749.203C414.806 749.706 413.295 750.21 413.295 750.21C410.274 751.553 407.084 752.896 404.566 752.896C390.801 752.896 381.4 745.845 373.007 739.466C373.007 739.466 372.839 739.298 372.503 739.13V738.963ZM467.685 760.786C470.035 760.114 472.721 759.946 475.407 759.946V772.369C468.189 771.529 461.81 769.011 455.766 766.493C455.766 766.493 455.263 766.325 454.927 766.158C459.459 763.807 463.992 761.625 467.685 760.786ZM475.407 753.903V755.582C472.385 755.582 469.364 755.917 466.678 756.589C465.167 757.093 463.32 757.596 461.474 758.435C449.555 752.56 435.622 746.517 423.535 748.195C423.367 748.195 422.696 747.86 422.696 747.86C410.777 739.802 398.019 732.416 386.1 732.416C374.182 732.416 385.429 732.416 384.925 732.416C375.357 723.351 364.109 713.782 352.191 711.6H351.519C343.126 701.192 333.054 689.945 321.471 686.252C320.799 686.084 320.128 685.916 319.456 685.748C313.916 674.501 307.034 662.582 297.129 656.874C295.954 656.203 293.436 654.524 293.436 654.524C288.904 640.927 283.364 627.329 273.963 620.111C271.445 606.849 267.92 592.077 259.023 583.347C258.687 582.844 258.016 582.508 257.68 582.004C257.344 568.071 256.001 553.97 249.454 544.569C249.454 544.569 249.454 544.402 249.287 544.234C249.79 540.373 250.126 536.344 250.294 532.483H253.987C256.505 532.483 258.687 531.979 260.534 531.14C272.453 644.788 363.102 735.773 476.582 748.195C475.911 749.874 475.407 751.889 475.407 754.071V753.903ZM503.273 683.901C491.858 683.901 480.611 682.726 469.699 680.712C462.313 658.049 403.727 480.611 383.582 419.171L395.333 413.799L368.978 388.283C401.712 350.68 449.891 327.01 503.441 327.01C556.992 327.01 593.755 345.644 625.818 375.86C597.616 385.597 578.647 395.333 560.517 404.902C560.685 401.712 561.188 395.501 560.517 391.472C559.846 386.604 553.299 375.189 530.468 372.503C516.871 370.992 501.93 373.174 485.815 377.371C480.611 378.714 474.736 380.561 468.692 382.743C468.357 382.743 468.189 382.911 467.853 383.079C467.349 383.247 466.846 383.415 466.174 383.582C441.162 392.647 414.135 406.581 386.268 423.2C408.091 452.073 441.833 563.707 449.052 614.907C465.503 602.149 486.486 588.887 503.945 583.18C501.763 603.827 495.719 653.013 549.27 636.226C588.887 623.972 626.322 587.712 668.625 572.1C642.102 637.569 577.808 683.901 503.106 683.901H503.273ZM497.398 250.965V220.413C497.398 215.713 499.916 212.187 503.441 212.187C506.967 212.187 509.82 215.713 509.82 220.413V238.039V254.658C509.82 257.512 508.813 259.862 507.302 261.205C506.295 262.045 505.12 262.548 503.777 262.548C502.434 262.548 501.091 262.045 499.916 261.205C498.237 259.862 497.23 257.512 497.23 254.658V250.797H497.398V250.965ZM515.528 273.46L530.468 274.803L544.234 318.617L530.3 317.442L527.95 308.713L510.156 307.202L506.463 315.427L494.208 314.42L515.36 273.796V273.46H515.528ZM514.689 251.805V220.413C514.689 215.713 517.207 212.187 520.732 212.187C524.257 212.187 527.111 215.713 527.111 220.413V254.658C527.111 258.016 525.6 260.87 523.418 262.045C522.746 262.38 521.907 262.548 521.068 262.548C520.228 262.548 518.717 262.213 517.878 261.541C515.864 260.198 514.689 257.68 514.689 254.491V251.637V251.805ZM589.223 252.14C589.223 252.14 589.726 252.308 589.726 252.476C584.522 254.491 579.654 255.834 576.633 256.337C567.064 257.68 555.817 253.316 545.409 248.447C548.095 247.104 553.299 243.915 553.299 243.915C554.138 243.579 555.145 243.243 555.985 243.075C569.582 241.229 579.99 247.104 589.223 252.14ZM628.001 269.767C622.461 271.11 617.593 271.781 614.571 271.781C605.003 271.781 594.427 266.241 584.187 259.695C585.53 259.191 587.208 258.687 587.208 258.687C590.23 257.344 593.419 256.001 595.77 256.001C609.535 256.001 618.936 263.052 627.497 269.263C627.497 269.263 628.001 269.599 628.169 269.767H628.001ZM634.548 273.963C648.145 276.314 656.371 284.875 663.589 292.429H663.757C662.078 292.597 660.567 292.765 658.889 292.933H655.196C653.517 292.933 651.838 292.933 650.327 292.597C640.927 290.918 631.526 283.7 622.461 275.474C624.979 275.139 627.665 274.635 630.351 273.963C631.862 273.796 633.372 273.628 634.548 273.963ZM668.289 297.633C681.551 301.83 688.602 311.398 694.813 319.792C693.47 319.96 692.127 319.96 690.784 319.792H689.777C686.251 319.288 683.23 318.785 681.215 318.281C672.15 315.427 663.589 307.034 655.867 297.801C659.392 297.801 663.253 297.801 667.114 297.465H668.289V297.633ZM719.658 353.198C714.789 351.687 710.089 349.841 706.899 347.994C698.17 342.958 692.463 333.725 687.427 324.157H688.434C691.455 324.66 694.645 324.828 697.667 324.996C698.002 324.996 698.338 325.164 698.674 325.332C710.593 332.382 715.293 342.958 719.49 352.359C719.49 352.359 719.657 352.862 719.825 353.03H719.658V353.198ZM795.535 486.654C795.535 490.515 792.009 493.033 787.309 493.033H753.064C750.546 493.033 748.363 492.194 747.02 490.851C745.845 489.844 745.174 488.501 745.174 486.822C745.174 485.144 745.677 484.136 746.349 483.129C747.692 481.283 750.21 480.275 753.064 480.275H787.309C792.009 480.275 795.535 482.793 795.535 486.319V486.654ZM795.535 503.945C795.535 507.806 792.009 510.324 787.309 510.324H753.064C750.713 510.324 748.699 509.653 747.356 508.477C746.013 507.47 745.174 505.959 745.174 504.113C745.174 502.266 746.013 500.588 747.356 499.58C748.699 498.405 750.713 497.734 753.064 497.734H787.309C792.009 497.734 795.535 500.252 795.535 503.777V503.945ZM759.107 475.911C759.107 473.896 759.443 471.882 759.611 469.7C760.786 470.707 761.961 471.882 761.961 471.882C763.639 473.225 765.15 474.568 766.493 475.911H759.107ZM769.179 471.043V471.714C765.318 468.357 761.625 464.663 759.611 461.81C753.735 453.416 751.888 440.994 751.217 430.754C754.239 432.936 757.428 434.951 760.953 436.965L761.625 437.636C768.508 447.205 769.347 457.277 769.347 466.51C769.347 475.743 769.347 469.7 769.347 471.043H769.179ZM759.275 429.914C758.268 429.411 757.428 428.907 756.421 428.236L750.042 424.039C749.37 423.535 748.699 422.864 748.195 422.36C741.481 415.646 737.787 404.398 734.934 392.647C737.955 394.326 741.481 396.005 744.838 397.348C745.174 397.683 745.509 397.851 745.845 398.019C755.749 407.756 757.596 419.507 759.107 429.747H759.275V429.914ZM743.663 391.472C742.32 390.801 740.977 390.297 739.634 389.794L736.445 388.283C734.43 387.108 732.919 386.1 731.744 385.261C724.022 379.554 718.986 368.642 714.789 357.227L717.811 358.234C721 359.073 724.358 359.913 726.204 361.424C737.116 369.817 740.473 381.064 743.495 391.137V391.472H743.663ZM545.577 242.74L540.205 245.593C537.855 246.601 535.84 247.272 534.329 247.776C533.49 247.944 532.819 248.112 531.979 248.279V237.2C537.015 238.375 541.716 240.222 546.248 242.068H546.584L545.577 242.572V242.74ZM531.811 254.826V252.98C532.986 252.812 534.161 252.644 535.337 252.308C536.68 251.973 538.19 251.469 539.869 250.797C551.788 256.505 565.385 262.38 577.304 260.87L577.808 261.205C589.894 269.095 602.652 276.482 614.571 276.482C626.49 276.482 615.914 276.482 616.418 276.482C626.826 286.218 638.073 295.451 649.656 297.465H649.824C658.889 308.545 668.961 319.288 680.376 322.814C680.712 322.814 681.383 322.981 681.719 323.149C687.427 334.564 693.973 345.98 704.717 352.191C706.06 353.03 708.914 354.541 708.914 354.541C713.782 368.138 719.49 381.736 729.058 388.954C729.226 388.954 729.562 389.29 729.73 389.458C732.751 403.391 736.78 417.492 745.174 425.718C745.509 426.053 746.013 426.557 746.517 426.893C747.02 438.308 748.531 454.088 756.085 464.496C755.414 466.174 754.91 470.539 754.91 475.911H753.231C750.546 475.911 748.027 476.582 746.013 477.757C733.255 364.781 642.773 274.803 529.797 262.716C531.308 260.534 532.147 257.848 532.147 254.826H531.811ZM665.436 604.499L671.647 593.587L701.192 610.374L707.907 598.624L715.125 602.82L695.484 637.569L688.266 633.373L695.149 621.286L665.603 604.499H665.436ZM611.214 665.604L622.965 675.844L636.058 669.129L629.679 682.726L640.591 693.47L624.811 691.959L616.921 705.724L614.067 690.952L599.631 688.098L612.892 681.215L611.214 665.771V665.604ZM630.687 648.313L639.752 637.737L648.145 640.927L659.728 627.497L655.196 619.607L663.253 610.207L683.901 651.167L674.165 662.582L630.519 648.313H630.687ZM598.12 324.492L608.528 331.207C607.688 332.718 605.003 336.747 611.214 340.776C612.053 341.279 616.753 344.301 619.439 340.44C620.614 338.761 620.614 337.25 618.432 334.9L610.71 326.675C608.528 324.324 602.988 318.281 607.856 310.895C611.549 305.187 619.607 302.837 630.687 310.055C645.291 319.624 640.927 327.514 638.576 331.375L628.169 324.492C628.84 323.485 631.526 319.624 626.49 316.435C623.468 314.42 620.446 314.756 619.104 316.938C617.425 319.624 619.104 321.638 620.447 322.981L626.322 329.193C630.519 333.725 635.387 338.929 630.519 346.483C625.315 354.373 615.914 353.198 606.513 347.155C602.652 344.637 596.777 339.936 595.77 334.061C594.93 329.36 597.113 325.835 598.12 324.324V324.492ZM586.705 333.557L571.093 328.018L567.735 291.926L556.824 322.981L546.584 319.288L560.853 279.335L576.8 285.043L580.326 319.792L590.734 290.079L600.806 293.772L586.537 333.725L586.705 333.557ZM695.652 462.817C697.331 470.371 703.542 470.203 707.571 469.196L731.744 463.824L734.43 475.575L710.425 480.947C705.892 481.954 700.688 482.458 697.163 480.443C691.288 477.254 688.602 469.867 687.427 464.328C682.894 443.848 694.981 440.994 701.695 439.651L725.197 434.447L727.883 446.534L703.374 452.073C701.192 452.577 698.842 453.248 697.499 454.927C695.484 457.109 695.149 460.131 695.82 463.153V462.817H695.652ZM684.573 444.016L678.362 431.593L684.573 425.046L676.683 409.099L667.786 410.106L662.414 399.026L708.242 396.005L714.957 409.434L684.741 443.848L684.573 444.016ZM687.594 386.436C681.719 391.137 676.179 389.122 674.333 388.283C670.807 386.772 667.45 382.575 665.939 380.561L660.903 374.35L648.984 383.75L641.262 374.014L674.501 347.826L687.091 363.942C689.273 366.628 691.959 370.153 692.63 374.35C693.302 378.714 691.791 382.911 687.427 386.436H687.594ZM681.719 505.456C681.719 523.082 679.033 540.205 674.333 556.32C641.095 500.42 629.847 441.665 631.19 381.064C662.414 413.295 681.719 457.109 681.719 505.288V505.456ZM634.715 451.905C635.555 457.613 636.898 464.496 637.737 467.517C590.398 478.597 568.071 494.88 552.627 504.952C552.291 496.391 551.956 489.172 551.956 489.172V488.165C576.465 472.218 602.149 459.46 634.715 451.905ZM552.291 472.889V472.05C552.627 466.846 552.963 461.81 553.299 456.606C556.32 454.927 597.952 431.09 631.022 424.039C631.694 427.9 631.694 431.593 632.701 438.644C594.595 443.848 552.291 473.057 552.291 473.057V472.889ZM554.138 525.768C554.138 525.768 554.306 525.768 554.474 525.6C579.654 507.974 607.856 494.209 637.569 486.151C639.08 485.815 640.591 485.311 642.102 484.976C643.78 490.012 644.955 495.048 647.138 500.42C646.131 500.42 644.955 500.755 643.948 500.923C641.43 501.427 638.912 501.931 636.394 502.434C611.885 508.31 589.391 520.732 567.903 533.49C563.874 535.84 560.013 538.358 556.152 540.541H555.985C554.809 532.651 553.97 525.768 553.97 525.768H554.138ZM598.959 536.176C606.513 532.483 614.235 528.79 621.957 525.6C632.03 521.403 642.27 517.878 652.51 514.857C653.517 518.214 655.196 521.571 656.539 524.929C624.475 536.68 591.573 552.795 562.699 571.261C562.028 571.596 561.524 572.1 560.853 572.436C560.517 572.604 560.181 572.772 560.013 572.939C560.013 572.939 558.503 560.517 558.503 559.51C571.261 551.116 584.858 543.059 598.959 536.008V536.176ZM629.344 389.961C629.511 395.165 629.344 398.859 629.679 404.23C585.194 418.499 558.167 437.469 555.145 439.147C555.817 434.279 556.488 429.411 557.16 424.71C559.846 423.032 589.726 404.23 629.176 390.129L629.344 389.961ZM558.838 406.245C558.838 407.756 558.503 409.099 558.335 410.106C558.335 411.113 558.167 411.617 558.167 411.785C558.167 411.785 554.809 409.266 549.102 406.916C544.737 405.238 539.03 403.559 532.147 403.223C523.418 402.72 515.696 403.223 506.967 406.413C506.127 406.748 505.288 407.084 504.281 407.42C504.952 412.456 505.792 417.492 506.463 422.528C520.9 416.653 539.533 418.667 556.152 424.375C555.481 429.243 554.809 433.943 554.138 438.812C544.066 434.111 514.689 436.461 508.813 438.476C510.156 447.205 510.995 453.752 511.163 455.263C511.331 455.263 535.337 450.227 552.124 456.774C551.62 461.81 551.284 467.014 551.116 472.218V473.057C510.156 458.788 461.977 487.326 423.2 505.624C421.857 501.427 419.171 492.698 419.171 492.698C415.142 480.779 399.53 439.819 388.451 423.871C419.842 404.566 452.073 389.794 477.254 381.736C483.633 379.554 489.508 377.875 494.88 377.036C496.559 376.7 498.069 376.364 499.58 376.196C499.748 377.875 500.755 384.758 502.098 393.822C520.396 386.94 544.234 386.94 559.342 400.202C559.342 402.384 559.006 404.734 558.838 406.748V406.245ZM550.781 487.997V489.005C550.781 494.376 550.781 499.748 551.116 505.12C505.791 492.866 432.768 536.176 432.768 536.176C431.425 531.643 429.914 527.111 428.571 522.746C428.571 522.746 509.652 474.904 550.613 487.997H550.781ZM552.124 519.389C552.291 521.571 552.627 523.754 552.795 525.936C553.131 528.286 553.299 530.468 553.634 532.819C506.631 522.746 441.33 568.239 441.33 568.239C440.154 563.371 438.979 558.671 437.804 553.802C437.804 553.802 508.813 511.163 552.124 519.389ZM445.694 583.515C454.423 577.64 509.317 542.219 548.934 544.737H550.781C551.452 544.737 552.291 544.737 552.963 545.073C553.802 545.073 554.642 545.241 555.481 545.409C556.152 549.606 556.824 553.802 557.663 557.999C512.003 551.452 448.212 598.456 448.212 598.456C447.205 593.587 446.03 588.551 445.023 583.683C445.023 583.683 445.358 583.515 445.526 583.347H445.694V583.515ZM556.488 572.268C562.531 573.779 520.564 596.106 503.945 603.828C503.945 598.959 504.281 595.098 504.616 590.062C516.199 584.019 545.744 569.582 556.488 572.436V572.268ZM547.591 605.17C571.429 592.58 595.77 576.465 624.475 561.356C637.066 554.642 650.495 548.263 665.268 542.387C667.45 546.752 669.129 550.109 671.982 554.642C617.089 575.29 562.364 620.279 521.403 633.037C516.871 633.54 514.017 633.876 510.156 627.665C509.149 626.154 508.31 624.308 507.134 622.125C521.068 618.096 534.497 612.221 547.927 605.17H547.591ZM707.235 589.391L711.096 577.472C712.271 577.808 716.636 579.319 718.482 573.611C719.49 570.254 718.482 567.4 715.964 566.728C712.943 565.721 711.432 568.071 710.425 569.75L705.892 576.968C702.703 582.172 698.842 588.383 690.28 585.698C681.215 582.844 679.872 573.443 683.23 562.867C684.573 558.503 687.594 551.62 692.966 548.934C697.163 546.92 701.192 548.095 703.038 548.598L699.345 560.349C697.667 559.846 692.966 558.503 690.784 565.553C690.448 566.56 688.769 571.932 693.47 573.275C695.316 573.947 696.995 573.443 698.506 570.925L704.381 561.356C706.06 558.671 710.425 551.62 718.818 554.306C725.365 556.32 729.898 563.539 725.869 576.129C720.665 592.748 711.768 590.734 707.571 589.391H707.235ZM690.112 539.198L691.959 526.607L733.926 532.819L732.08 545.409L690.112 539.365V539.198ZM701.36 503.609V523.586H692.966V491.187H735.437V503.609H701.36ZM574.786 726.037C570.086 727.547 564.882 727.715 560.853 725.365C554.809 722.008 551.956 715.293 550.781 711.432C549.605 707.739 548.095 700.688 550.781 694.477C552.963 689.105 557.999 686.755 561.692 685.412C569.414 682.894 573.779 684.741 576.297 686.252C579.99 688.434 583.515 692.127 586.033 699.849C589.558 710.928 588.048 721.672 574.954 725.869H574.786V726.037ZM525.6 705.053C522.746 708.075 517.878 710.593 515.864 711.432L514.689 702.535C519.389 700.52 522.075 698.842 526.104 694.477L536.008 693.134L541.212 733.591L529.461 735.102L525.6 705.053ZM735.437 621.454V619.943C735.437 610.207 741.313 599.463 747.524 589.726C748.027 591.237 748.531 592.748 748.531 592.748C749.874 595.77 751.217 598.959 751.217 601.309C751.217 614.571 744.502 623.804 738.459 632.03C736.612 628.336 735.437 621.454 735.437 621.454ZM754.742 595.098C752.728 589.726 751.385 584.858 750.881 582.004C750.881 580.829 750.713 579.654 750.713 578.479C750.713 569.918 754.407 560.181 758.939 550.781C760.282 553.467 761.625 556.152 763.136 558.671C763.639 559.678 763.975 560.685 763.975 561.524C764.143 563.203 764.311 564.882 764.311 566.56C764.311 577.64 759.443 586.537 754.91 594.427C754.91 594.427 754.574 594.93 754.574 595.098H754.742ZM764.982 551.452C764.982 551.452 764.982 551.788 764.814 551.956C764.647 551.62 764.479 551.452 764.311 551.116L761.625 545.745C760.618 543.562 759.778 541.38 759.275 539.533C758.771 537.351 758.435 535.001 758.435 532.483H770.858C770.018 539.366 767.333 545.745 764.982 551.452Z" fill="black"/>
<path fill-rule="evenodd" clip-rule="evenodd" d="M432.6 434.951C432.6 434.783 432.768 434.615 432.768 434.111H432.936V433.44H433.104C433.439 432.265 432.768 432.265 433.607 431.257C434.111 430.922 434.782 430.586 434.95 430.25C435.118 430.25 435.286 430.082 435.286 429.914L436.797 429.411C436.629 428.739 437.133 427.229 437.133 426.389C437.3 426.221 437.133 425.718 437.133 425.214H436.965C436.965 425.046 436.629 424.878 436.461 425.046C436.349 424.822 436.181 424.71 435.957 424.71H435.79V424.039H436.125C436.125 423.871 436.293 424.039 436.125 423.703H436.461V423.032H436.125C436.125 423.032 435.957 422.696 435.79 423.032V422.696C436.461 422.36 438.14 421.185 438.811 421.857C439.315 421.689 442.001 422.36 442.337 421.185H442.672C442.672 420.849 442.84 420.682 443.008 420.514C443.008 420.01 443.344 419.674 443.176 419.171C443.008 419.339 442.84 419.171 442.672 419.171C442.672 419.003 442.504 419.003 442.504 419.003H442.169V418.667H441.833C441.833 418.667 441.833 418.164 442.001 418.164C442.001 418.164 442.169 417.996 442.001 417.828L445.694 416.485V416.149C445.694 416.149 445.862 415.981 446.03 415.981C446.03 415.646 446.198 415.478 446.365 415.478V415.142H446.701V414.806C447.205 414.638 447.54 415.142 447.876 414.974C447.876 414.974 447.876 415.31 448.044 415.142C448.044 415.478 448.212 415.646 448.212 415.981C448.044 415.981 447.708 416.653 447.54 416.821C447.54 416.988 447.708 417.996 447.708 417.996C447.876 417.996 448.212 418.331 448.212 418.499C447.876 417.996 448.212 418.331 448.212 418.667C448.38 418.499 448.548 418.667 448.548 418.667C448.38 418.499 448.548 418.499 448.716 418.667C448.38 418.499 448.548 418.667 448.716 418.835L449.723 418.331C449.723 418.331 449.891 418.164 449.891 417.996C450.226 417.828 450.898 417.492 451.401 417.324V416.653C451.513 416.653 451.569 416.597 451.569 416.485C451.737 416.485 451.737 416.317 451.737 416.149C452.241 415.981 453.416 415.142 453.92 415.646L454.927 415.31C455.095 415.142 455.43 414.806 455.598 414.806C455.598 414.638 455.766 414.47 455.934 414.47V413.967C456.102 413.967 455.934 413.799 455.934 413.799V413.463C455.934 413.463 456.27 413.295 456.27 413.127C456.438 412.96 456.438 412.792 456.605 412.792V412.288C456.438 412.288 456.605 412.12 456.605 412.12H456.941C456.941 411.952 457.109 412.12 457.277 412.12V412.456C457.445 412.624 457.445 412.792 457.613 413.295C457.781 413.295 457.781 413.631 457.781 413.799C457.781 413.799 458.116 414.135 458.116 414.47C458.452 414.47 458.956 414.638 459.291 414.638V415.31C459.124 415.478 458.284 416.653 458.116 416.821C458.116 416.821 457.948 416.988 457.781 417.156V417.492C457.781 417.66 457.613 417.828 457.613 417.828V418.164C457.725 418.164 457.781 418.22 457.781 418.331C457.948 418.331 457.948 418.499 457.948 418.499H458.452C458.452 418.611 458.508 418.667 458.62 418.667C458.62 418.835 459.123 418.667 459.123 418.835C459.963 418.499 460.634 418.164 460.97 417.324C461.138 417.324 461.306 417.156 461.306 417.156C461.642 416.988 462.817 416.149 462.817 416.821C462.985 416.821 464.16 416.653 464.16 416.653H464.663C464.999 416.821 465.67 416.653 466.006 416.653C466.174 416.821 466.678 417.324 466.678 417.324C466.678 417.324 468.021 416.485 468.021 416.821H468.692C469.028 416.821 470.203 416.485 470.706 416.317C470.706 416.653 471.714 415.813 471.714 416.317C472.049 416.149 472.049 416.317 472.217 416.485H472.889C473.057 416.653 473.225 416.653 473.56 416.653C473.56 416.653 474.064 416.988 474.4 416.821C474.4 417.156 475.071 416.988 475.407 416.988C475.407 417.324 476.246 416.988 476.582 416.988H477.253C477.253 417.324 477.589 417.492 477.757 417.492H477.925C477.925 417.66 478.261 417.996 478.261 417.996C478.261 418.667 478.596 421.521 477.757 421.857C477.757 421.969 477.701 422.025 477.589 422.025C477.589 422.192 477.421 422.696 477.421 422.696C477.086 423.032 477.253 423.2 477.086 423.368V423.703C476.974 423.815 476.918 423.927 476.918 424.039C476.75 424.039 476.75 424.207 476.582 424.207C476.582 424.207 476.414 424.878 476.078 424.878C476.078 425.046 475.91 425.382 475.743 425.382V425.718H475.575C475.575 426.053 475.071 426.557 475.071 426.893L474.232 427.229H474.064C474.064 427.396 474.232 429.579 474.232 429.579C474.064 429.914 474.568 431.09 474.232 431.593C474.232 432.265 473.728 432.936 473.896 433.775C473.56 434.279 473.896 435.286 473.392 435.622V435.958C473.225 435.958 473.225 436.293 473.057 436.293C473.225 435.958 473.225 436.126 473.057 436.461C472.889 436.461 472.889 436.797 472.889 436.797C472.889 437.133 472.721 437.133 472.721 437.301H472.553C472.553 437.469 472.385 437.636 472.385 437.636C472.217 437.804 472.553 437.972 472.217 437.972C472.217 438.308 472.049 438.644 472.049 438.812C472.049 438.979 471.714 439.315 471.714 439.315C471.546 439.315 471.378 439.651 471.378 439.819C471.042 439.987 469.196 440.155 469.196 440.658C468.86 440.826 468.021 440.994 468.188 441.33C467.685 441.497 466.342 442.001 466.174 442.505C466.006 442.505 465.838 443.008 465.67 443.008C465.503 443.008 465.167 443.176 465.167 443.344C464.999 443.344 464.831 443.848 464.663 443.848V444.183C464.663 444.183 464.495 444.519 464.327 444.519C464.327 444.687 464.16 445.526 463.992 445.526C464.16 446.701 464.327 447.877 463.992 448.884C463.656 448.884 463.488 449.219 463.488 449.387C463.32 449.387 463.488 449.555 463.32 449.555V449.891C463.152 449.891 463.152 450.395 463.152 450.562C463.152 449.891 463.152 450.395 462.984 450.562C462.873 450.674 462.817 450.842 462.817 451.066C462.649 451.066 462.313 451.57 462.313 451.57C462.145 451.57 461.977 452.073 461.977 452.073C461.809 452.241 461.977 452.241 461.642 452.241V452.577H461.306C461.306 452.577 461.138 452.241 461.138 452.073C461.474 451.905 461.138 451.905 461.474 451.905C461.474 451.738 461.642 451.905 461.474 451.57C461.642 451.57 461.642 451.402 461.809 451.234C461.809 450.898 461.977 450.73 461.977 450.562L461.306 450.898C461.306 451.066 461.138 450.898 461.306 451.234C460.97 451.402 461.138 451.57 460.97 451.57V452.073C460.634 452.073 460.97 452.241 460.802 452.241C460.802 452.577 460.634 453.584 460.466 453.752C460.466 453.92 460.634 454.256 460.299 454.256C460.299 454.591 460.131 454.759 460.131 454.927H459.627C459.627 455.095 459.627 454.423 459.627 454.423C460.131 454.256 458.956 453.416 458.956 453.416C458.956 453.08 458.788 453.248 458.788 453.248C458.62 453.248 458.116 452.913 458.116 452.913H457.781C457.613 452.913 457.109 453.248 456.941 453.248C456.941 452.913 456.605 452.913 456.605 452.913C456.102 453.08 455.598 452.913 455.095 453.08C455.095 452.577 455.766 452.073 455.766 451.738C456.102 451.738 456.27 451.57 456.27 451.234C456.438 451.234 456.605 451.066 456.605 450.898H456.941C456.941 450.73 457.109 450.562 457.109 450.562C457.613 450.395 457.277 449.555 457.948 449.387C457.948 449.219 458.284 448.884 458.452 448.716C458.62 448.716 458.788 448.548 458.788 448.38C459.123 448.212 459.124 447.876 459.291 447.876V446.869C459.124 446.869 458.788 446.701 458.788 446.534C458.452 446.701 458.116 446.366 457.948 446.366V444.855C457.445 445.023 456.941 445.023 456.605 445.191C456.605 445.079 456.549 445.023 456.438 445.023V444.016C456.27 444.016 456.102 443.848 455.934 443.848C455.934 443.68 455.766 443.512 455.598 443.512C455.43 443.68 455.43 443.512 455.263 443.344C454.759 443.512 454.087 443.512 453.584 443.68H453.416C453.08 443.008 453.248 440.826 452.744 440.826C452.577 439.819 451.737 439.147 451.569 438.14C451.401 438.308 451.234 437.804 451.234 437.636C451.066 437.636 450.898 437.636 450.898 437.469C450.394 437.636 449.891 437.636 449.555 437.804H449.387C449.387 437.636 449.555 438.14 449.555 438.14V436.461C448.883 436.629 447.876 436.797 447.205 436.965C447.093 436.853 446.925 436.853 446.701 436.965C446.701 436.797 446.365 436.965 446.365 436.797C446.03 436.797 445.694 436.797 445.526 436.461C445.19 436.629 444.015 436.294 444.015 435.958H443.679C443.679 435.79 443.344 435.622 443.344 435.622C443.344 435.454 443.176 435.454 443.176 435.454L442.84 434.615V434.279H442.672C442.169 434.279 441.833 434.447 441.161 434.615C440.994 434.783 440.826 434.951 440.994 435.118C440.826 435.118 440.658 435.286 440.658 435.454C440.49 435.622 440.322 435.958 439.986 436.126V436.461H439.483C439.483 436.461 439.147 436.797 439.147 436.965H438.811C438.643 437.301 437.636 437.469 437.3 437.469C437.133 437.301 436.797 437.301 436.797 437.301V436.629L436.461 436.293L435.454 436.629C435.454 436.629 435.118 436.965 435.286 437.133C435.118 437.301 434.614 437.469 434.447 437.133C434.279 437.301 434.111 437.133 433.943 437.133H433.439C433.439 436.909 433.383 436.797 433.272 436.797C433.272 436.629 433.104 436.126 432.768 436.126C432.768 436.126 432.768 435.958 432.6 435.958C432.768 435.454 432.768 435.118 432.6 435.118M461.474 416.485C461.306 416.653 459.459 416.653 459.459 417.156H459.123V417.66C458.956 417.66 459.123 417.996 459.123 418.164H458.956C458.956 418.331 459.123 418.331 459.123 418.331C459.123 418.499 459.291 418.667 459.291 418.667H459.459C459.459 418.667 459.627 418.499 459.627 418.667C459.795 418.499 460.131 418.331 460.131 418.667C460.634 418.499 460.97 417.996 461.306 417.996V417.66C461.418 417.548 461.53 417.436 461.642 417.324V416.821H461.474V416.485Z" fill="black"/>
</svg>
