<svg width="1000" height="1000" viewBox="0 0 1000 1000" fill="none" xmlns="http://www.w3.org/2000/svg">
<path fill-rule="evenodd" clip-rule="evenodd" d="M47.3335 256.938H951.771V28.3127H47.3335V256.938ZM108.896 127.563H147.833V148.896H108.896V210.417H79.9793V73.5419H150.333V94.8961H108.896V127.563ZM681.688 127.563H723.146V148.896H681.688V187.854H728.167V210.417H652.813V73.5419H726.917V94.8961H681.688V127.563ZM368.896 73.5419H460.563V96.1461H429.188V210.417H399.042V96.1461H368.896V73.5419ZM737.042 73.5419H818.688V96.1461C818.688 106.834 768.146 172.917 764.667 187.813H821.208V202.875C823.917 198.563 837.875 147.188 840.292 137.813C843.146 126.438 846.375 116.292 849.625 104.479C851.208 98.6252 855.708 73.5627 861.396 73.5627L894.854 73.7086L931.667 210.417H905.292C900.042 210.417 895.667 185.709 895.229 180.271H856.333L848.75 210.417H734.438V186.584C734.438 183.792 784 107 789.708 96.1461H737.042V73.5419ZM341.208 143.875C356.417 145.146 358.313 154.896 359.958 169.104C360.604 174.834 359.958 184.25 359.958 190.417C359.958 199.125 362.521 202.375 362.521 210.459H336.25C323.75 210.459 342.75 153.938 317.5 153.938H303.667V210.417H274.708V73.5419H308.625C340.417 73.5419 358.875 76.1461 358.875 108.688V112.5C358.875 138.271 348.229 134.417 341.208 143.875ZM164.125 146.396V128.813C164.125 94.6252 175.063 72.2711 209.333 72.2711H210.604C239.438 72.2711 255.813 90.5836 255.813 118.75V157.709C255.813 185.021 245.521 211.709 219.396 211.709H201.813C170.833 211.709 164.125 178.396 164.125 146.396ZM475.688 210.417L450.021 210.25L488.271 73.5419H522.167C527.313 73.5419 532.208 99.5002 533.979 105.709C537 116.313 541.542 130.542 543.438 140.209C546.75 157.188 562.042 196.334 562.334 210.459H532.542L525.917 180.375H485.729C485.271 186.125 480.896 210.417 475.688 210.417ZM572.458 73.5419H602.625V185.417H644.063V210.417H572.458V73.5419Z" fill="#FEFEFE"/>
<path fill-rule="evenodd" clip-rule="evenodd" d="M481.75 880.104L481.959 302.146L96.063 302.333L481.75 880.104Z" fill="#2861A6"/>
<path fill-rule="evenodd" clip-rule="evenodd" d="M515.875 879.979L901.5 302.146H515.875V879.979Z" fill="#E1251B"/>
<path fill-rule="evenodd" clip-rule="evenodd" d="M20.958 285.833L497.041 998.062H499.541L978.125 284.562V1.95825H20.958V285.833ZM47.333 28.3124H951.77V256.937H47.333V28.3124ZM497.812 951.896L46.833 276.125L950.5 275.771L497.812 951.896Z" fill="#2861A6"/>
<path d="M500.583 1000H496L495.417 999.125L19 286.417V0H980.083V285.167L979.75 285.667L500.583 1000ZM498.083 996.104H498.5L976.188 283.979V3.89583H22.9167V285.146L498.083 996.104ZM497.813 955.396L43.2917 274.167H46.8333L954.167 273.833L952.083 276.854L497.813 955.396ZM50.4792 278.083L497.813 948.375L946.833 277.729L50.4792 278.083ZM953.708 258.896H45.375V26.3542H953.708V258.896ZM49.2917 254.958H949.813V30.25H49.2917V254.958Z" fill="#FEFEFE"/>
<path fill-rule="evenodd" clip-rule="evenodd" d="M497.834 951.896L950.501 275.771L46.834 276.125L497.834 951.896ZM96.0632 302.333L481.98 302.084L481.751 880.063L96.0632 302.333ZM515.876 302.084H901.501L515.876 879.958V302.084Z" fill="#FEFEFE"/>
<path fill-rule="evenodd" clip-rule="evenodd" d="M861.313 73.521C855.626 73.521 851.126 98.521 849.521 104.458C846.292 116.313 843.063 126.5 840.209 137.792C837.876 147.167 823.834 198.563 821.126 202.854V187.771H764.584C768.063 172.875 818.626 106.771 818.626 96.1043V73.521H737.042V96.146H789.792C784.084 107 734.521 183.792 734.521 186.604V210.417H848.834L856.417 180.271H895.313C895.751 185.729 900.126 210.438 905.376 210.438H931.751L894.771 73.6877L861.313 73.521ZM875.459 102.5L890.042 159H861.584L875.459 102.5Z" fill="#2861A6"/>
<path fill-rule="evenodd" clip-rule="evenodd" d="M341.208 143.896C348.125 134.396 358.792 138.292 358.792 112.479V108.688C358.792 76.1667 340.354 73.5417 308.542 73.5417H274.688V210.417H303.583V153.917H317.417C342.75 153.917 323.854 210.458 336.167 210.458H362.542C362.542 202.396 360.021 199.125 360.021 190.396C360.021 184.146 360.604 174.833 360.021 169.083C358.354 154.896 356.479 145.125 341.271 143.896M304.812 96.1459H318.646C327.187 96.1459 331.146 102.542 331.146 111.229V112.5C331.146 126.771 325.292 132.604 311.042 132.604H304.792L304.812 96.1459Z" fill="#2861A6"/>
<path fill-rule="evenodd" clip-rule="evenodd" d="M164.125 146.396C164.125 178.417 170.792 211.708 201.813 211.708H219.375C245.584 211.708 255.792 185 255.792 157.708V118.75C255.792 90.5624 239.417 72.2708 210.563 72.2708H209.313C175.084 72.2708 164.125 94.6249 164.125 128.792V146.396ZM193.021 130.062C193.021 114.604 194.417 93.6458 209.334 93.6458H211.855C225.667 93.6458 226.938 113.167 226.938 127.542V162.729C226.938 174.75 223.48 190.333 211.855 190.333H208.084C192.917 190.333 193.021 162.604 193.021 146.396V130.062Z" fill="#2861A6"/>
<path fill-rule="evenodd" clip-rule="evenodd" d="M475.688 210.417C480.917 210.417 485.25 186.083 485.729 180.25H525.917L532.542 210.417H562.334C562.042 196.292 546.709 157.146 543.438 140.167C541.542 130.5 537 116.25 533.958 105.646C532.208 99.3958 527.313 73.5 522.146 73.5H488.271L450.021 210.25L475.688 210.417ZM506.292 102.083L520.375 158.813L491.209 158.75L506.292 102.083Z" fill="#2861A6"/>
<path fill-rule="evenodd" clip-rule="evenodd" d="M681.709 94.8959H726.917V73.5417H652.792V210.458H728.167V187.854H681.709V148.896H723.146V127.563H681.709V94.8959Z" fill="#2861A6"/>
<path fill-rule="evenodd" clip-rule="evenodd" d="M108.896 94.8959H150.333V73.5417H79.979V210.458H108.896V148.896H147.833V127.563H108.896V94.8959Z" fill="#2861A6"/>
<path fill-rule="evenodd" clip-rule="evenodd" d="M368.896 96.1459H399.063V210.458H429.188V96.1459H460.605V73.5417H368.896V96.1459Z" fill="#2861A6"/>
<path fill-rule="evenodd" clip-rule="evenodd" d="M572.396 210.458H644.001V185.333H602.563V73.5417H572.396V210.458Z" fill="#2861A6"/>
<path fill-rule="evenodd" clip-rule="evenodd" d="M193.063 130.062V146.396C193.063 162.604 193.063 190.333 208.125 190.333H211.896C223.521 190.333 226.98 174.75 226.98 162.729V127.542C226.98 113.167 225.709 93.6458 211.896 93.6458H209.375C194.459 93.6458 193.063 114.604 193.063 130.062Z" fill="#FEFEFE"/>
<path fill-rule="evenodd" clip-rule="evenodd" d="M304.834 132.583H311.084C325.334 132.583 331.188 126.75 331.188 112.479V111.208C331.188 102.541 327.167 96.1455 318.688 96.1455H304.855L304.834 132.583Z" fill="#FEFEFE"/>
<path fill-rule="evenodd" clip-rule="evenodd" d="M491.271 158.75L520.312 158.792L506.291 102.208L491.271 158.75Z" fill="#FEFEFE"/>
<path fill-rule="evenodd" clip-rule="evenodd" d="M861.583 159.021L890.041 159L875.458 102.5L861.583 159.021Z" fill="#FEFEFE"/>
</svg>
