<svg width="1000" height="1000" viewBox="0 0 1000 1000" fill="none" xmlns="http://www.w3.org/2000/svg">
<g clip-path="url(#clip0_27_391)">
<path d="M992.946 500C992.946 772.223 772.223 992.946 500 992.946C227.777 992.946 7.05347 772.223 7.05347 500C7.05347 227.777 227.777 7.05347 500 7.05347C772.223 7.05347 992.946 227.777 992.946 500Z" fill="white" stroke="#E5050F" stroke-width="14.0764" stroke-miterlimit="4.6921"/>
<path d="M895.639 499.399C895.639 716.516 719.602 892.554 502.485 892.554C285.368 892.554 109.33 716.516 109.33 499.399C109.33 282.282 285.368 106.244 502.485 106.244C719.602 106.244 895.639 282.282 895.639 499.399Z" fill="white" stroke="#E5050F" stroke-width="11.2266" stroke-miterlimit="3.7422"/>
<path d="M879.509 499.198C879.509 707.598 710.584 876.523 502.184 876.623C293.784 876.623 124.86 707.699 124.76 499.299V499.198C124.76 290.798 293.684 121.874 502.084 121.774C710.484 121.674 879.509 290.698 879.509 499.098C879.509 499.198 879.509 499.198 879.509 499.198Z" fill="#E5050F"/>
<path fill-rule="evenodd" clip-rule="evenodd" d="M654.645 403.327C656.849 385.994 664.163 370.264 672.78 355.034L697.727 366.256L720.271 335.697L742.814 342.51C743.115 382.688 742.013 424.167 756.941 451.92L745.72 466.048C720.07 442.001 692.818 418.957 654.645 403.327Z" fill="white"/>
<path fill-rule="evenodd" clip-rule="evenodd" d="M612.664 445.007C562.768 444.807 598.938 386.395 606.252 364.152C612.764 344.114 602.845 303.736 564.672 289.409V238.11C639.916 259.952 648.333 310.048 691.616 287.004V312.353C624.086 381.686 653.643 444.607 612.664 445.007Z" fill="white"/>
<path fill-rule="evenodd" clip-rule="evenodd" d="M411.778 333.293C485.72 314.557 541.227 320.468 593.227 330.988C600.741 352.83 594.229 367.659 587.215 382.287C536.317 373.971 481.913 371.867 416.387 389.2C405.366 372.368 404.464 353.632 411.778 333.293Z" fill="white"/>
<path fill-rule="evenodd" clip-rule="evenodd" d="M455.663 289.308C366.992 304.337 386.931 409.439 455.663 437.794V529.47C260.788 473.262 296.056 261.355 455.663 239.914V289.308Z" fill="white"/>
<path fill-rule="evenodd" clip-rule="evenodd" d="M551.547 618.641C525.196 622.248 497.744 621.546 469.69 618.641V389.501C496.942 386.695 524.295 385.794 551.547 389.501V618.641Z" fill="white"/>
<path fill-rule="evenodd" clip-rule="evenodd" d="M182.538 504.321C230.03 481.377 240.449 430.98 309.582 380.283C311.586 403.828 314.291 426.772 324.21 443.805C294.954 486.086 296.858 526.363 340.742 575.157C330.522 598.502 318.099 615.334 304.673 628.96C243.055 592.29 228.827 544.598 182.538 504.321Z" fill="white"/>
<path fill-rule="evenodd" clip-rule="evenodd" d="M403.162 673.546C420.696 654.109 425.605 639.781 433.119 624.452C479.809 634.271 534.113 638.278 615.67 621.646C624.186 638.679 620.98 654.71 618.074 670.741C569.782 688.074 479.709 692.182 403.162 673.546Z" fill="white"/>
<path fill-rule="evenodd" clip-rule="evenodd" d="M268.503 665.932L274.515 691.881L310.484 694.286C351.964 723.642 396.249 751.195 456.665 769.029V718.332C423.902 712.721 402.861 696.29 387.131 674.748C433.62 624.652 443.139 561.832 413.682 549.007C374.507 531.974 356.973 572.051 334.63 608.221C320.102 631.866 299.062 655.311 268.503 665.932Z" fill="white"/>
<path fill-rule="evenodd" clip-rule="evenodd" d="M551.747 236.808C551.948 198.033 581.705 202.742 595.732 216.669C593.728 167.975 554.252 162.264 535.316 179.798C529.705 170.58 522.491 163.567 510.869 157.856C500.549 162.765 492.233 169.979 485.921 179.297C468.087 162.966 427.308 166.973 425.505 215.968C440.534 202.943 468.888 198.434 468.888 237.008L469.089 311.25C495.64 309.247 523.192 309.046 551.747 311.05V236.808Z" fill="white"/>
<path fill-rule="evenodd" clip-rule="evenodd" d="M551.847 770.833C552.048 809.608 581.805 804.898 595.832 790.972C593.828 839.665 554.352 845.376 535.416 827.843C529.805 837.06 522.591 844.074 510.969 849.785C500.649 844.875 492.333 837.661 486.021 828.343C468.187 844.675 427.408 840.667 425.605 791.673C440.634 804.698 468.988 809.207 468.988 770.633L469.189 696.39C495.74 698.394 523.293 698.594 551.847 696.591V770.833Z" fill="white"/>
<path fill-rule="evenodd" clip-rule="evenodd" d="M563.87 474.664V562.433C664.263 595.797 648.333 720.837 565.173 717.831V768.328C672.779 757.708 714.46 690.879 715.061 625.855C715.862 551.412 656.949 498.61 563.87 474.664Z" fill="white"/>
<path fill-rule="evenodd" clip-rule="evenodd" d="M726.182 622.749C726.282 611.327 727.284 601.107 719.77 578.664L742.914 563.234L769.064 584.676C758.745 600.105 743.215 611.928 726.182 622.749Z" fill="white"/>
<path d="M85.3036 484.47C84.7025 489.179 83.4 493.487 81.3961 497.495C79.3923 501.503 76.7873 504.909 73.4809 507.815L64.8644 498.497C69.6736 493.788 72.479 488.478 73.2805 482.366C73.4809 480.462 73.3807 478.959 72.8798 477.857C72.3788 476.755 71.5773 476.154 70.4752 475.954H70.375C69.874 475.854 69.373 475.954 68.8721 476.154C68.3711 476.354 67.9703 476.755 67.4694 477.356C66.9684 477.958 66.4675 478.859 65.9665 479.861C65.4655 480.963 64.8644 482.366 64.2632 484.069C63.2613 486.774 62.2594 489.279 61.1573 491.584C60.0551 493.888 58.8528 495.792 57.3499 497.395C55.9473 498.998 54.244 500.2 52.2401 501.002C50.3365 501.803 48.0321 502.004 45.3269 501.703H45.2267C42.8221 501.403 40.6178 500.601 38.7142 499.499C36.8105 498.297 35.2074 496.794 33.9049 494.79C32.6024 492.786 31.8009 490.582 31.2999 487.977C30.799 485.372 30.799 482.566 31.1997 479.36C31.8009 474.852 32.903 470.944 34.5061 467.638C36.1092 464.331 38.3134 461.326 40.9184 458.821L50.2363 467.337C48.2324 469.541 46.6294 471.746 45.4271 474.15C44.2248 476.555 43.5234 478.959 43.2228 481.264C43.0224 482.967 43.1226 484.37 43.7238 485.272C44.2248 486.274 45.0263 486.774 45.928 486.875H46.0282C46.6294 486.975 47.1303 486.875 47.6313 486.674C48.1323 486.474 48.533 486.073 49.034 485.372C49.535 484.771 49.9357 483.869 50.5369 482.767C51.0378 481.665 51.639 480.262 52.2401 478.459C53.2421 475.553 54.3442 472.948 55.5465 470.643C56.7488 468.339 58.0513 466.435 59.454 464.933C60.9569 463.43 62.56 462.328 64.4636 461.626C66.3673 460.925 68.4713 460.825 70.8759 461.125H70.9761C73.6813 461.426 75.9857 462.328 77.8894 463.53C79.8932 464.832 81.3961 466.435 82.6986 468.539C83.9009 470.543 84.8027 472.948 85.2034 475.653C85.7044 478.358 85.7044 481.264 85.3036 484.47Z" fill="#E5050F"/>
<path d="M74.1824 445.395L75.5851 430.567L90.2132 431.869L88.8105 446.698L74.1824 445.395Z" fill="#E5050F"/>
<path d="M109.65 363.237C108.548 366.844 106.945 370.051 104.641 372.856C102.437 375.661 99.7314 377.866 96.7257 379.469C93.7199 381.072 90.4135 382.174 86.8066 382.575C83.1997 382.975 79.4926 382.675 75.7855 381.472H75.6853C72.0783 380.37 68.772 378.667 66.0668 376.363C63.2614 374.058 61.0572 371.353 59.3539 368.347C57.6506 365.241 56.6487 361.935 56.2479 358.328C55.8472 354.721 56.2479 350.914 57.4503 347.106C58.2518 344.501 59.1535 342.197 60.3558 340.293C61.4579 338.29 62.7604 336.586 64.2633 335.184C65.7662 333.681 67.2691 332.478 69.0726 331.476C70.876 330.475 72.5793 329.573 74.483 328.972L79.4926 341.896C77.2883 342.798 75.2845 343.9 73.7816 345.403C72.1785 346.806 71.0764 348.71 70.3751 351.214C69.8741 353.018 69.6737 354.721 69.9743 356.424C70.2749 358.128 70.7758 359.631 71.6776 361.033C72.5793 362.436 73.7816 363.738 75.1843 364.74C76.6872 365.842 78.2903 366.644 80.0937 367.145H80.1939C82.0976 367.746 83.901 367.946 85.8047 367.846C87.6082 367.746 89.3114 367.345 90.8143 366.644C92.3172 365.943 93.6197 364.941 94.822 363.738C95.9241 362.436 96.8259 360.933 97.3268 359.23C97.7276 357.927 97.928 356.725 97.928 355.523C97.928 354.32 97.8278 353.218 97.5272 352.216C97.2266 351.214 96.8259 350.112 96.3249 349.11C95.8239 348.108 95.2228 347.106 94.5214 346.004L105.142 337.688C106.444 339.392 107.546 341.095 108.548 342.999C109.55 344.802 110.252 346.806 110.753 348.91C111.254 351.014 111.454 353.218 111.354 355.623C110.953 357.827 110.452 360.432 109.65 363.237Z" fill="#E5050F"/>
<path d="M108.047 324.964L113.458 311.137L127.084 316.447L121.674 330.274L108.047 324.964Z" fill="#E5050F"/>
<path d="M101.936 251.122L110.151 238.999L153.735 268.455L145.519 280.579L101.936 251.122Z" fill="#E5050F"/>
<path d="M143.115 194.714L152.332 184.694L187.5 187.7L167.161 168.764L176.88 158.244L215.454 194.012L206.737 203.43L170.267 200.324L191.407 219.962L181.689 230.482L143.115 194.714Z" fill="#E5050F"/>
<path d="M241.003 123.677L227.677 132.194L220.764 121.473L259.638 96.6255L266.552 107.346L253.226 115.862L274.667 149.427L262.344 157.242L241.003 123.677Z" fill="#E5050F"/>
<path d="M304.925 74.5831L343.9 58.2517L348.709 69.6736L322.96 80.4944L326.066 87.8085L349.31 77.9896L353.819 88.61L330.474 98.3287L333.681 106.043L359.731 95.1225L364.54 106.544L325.264 123.076L304.925 74.5831Z" fill="#E5050F"/>
<path d="M393.696 42.0207L418.143 37.4118C422.15 36.6103 425.557 36.5101 428.563 37.011C431.468 37.512 433.973 38.4137 436.077 39.9166C439.684 42.3212 441.989 46.0284 442.89 51.038V51.1382C443.692 55.1459 443.291 58.6526 441.888 61.5582C440.486 64.5639 438.281 66.9686 435.276 68.9724L451.006 84.7026L434.474 87.8086L421.048 74.0822H420.948L414.836 75.2845L417.842 90.9145L403.515 93.6197L393.696 42.0207ZM422.251 62.2595C424.755 61.7586 426.459 60.8568 427.661 59.5543C428.763 58.1516 429.164 56.5486 428.763 54.7451V54.6449C428.362 52.5409 427.36 51.1382 425.858 50.4368C424.254 49.7355 422.251 49.5351 419.846 50.0361L410.428 51.8395L412.732 64.2634L422.251 62.2595Z" fill="#E5050F"/>
<path d="M495.892 30.7991H509.518L531.16 58.6525L531.26 30.7991H545.587L545.487 83.4001H532.663L510.219 54.4445L510.119 83.2999H495.792L495.892 30.7991Z" fill="#E5050F"/>
<path d="M625.741 45.2268L639.368 48.6333L648.084 105.543L632.955 101.735L631.553 91.7161L611.915 86.7064L606.004 94.9222L591.175 91.1149L625.741 45.2268ZM630.25 79.693L628.246 63.7624L618.828 76.7874L630.25 79.693Z" fill="#E5050F"/>
<path d="M700.886 135.099C697.78 133.095 695.175 130.591 693.071 127.585C690.967 124.579 689.664 121.473 688.963 118.167C688.261 114.76 688.161 111.354 688.762 107.747C689.364 104.14 690.766 100.733 692.87 97.4269L692.97 97.3267C695.075 94.1206 697.579 91.5156 700.585 89.5117C703.591 87.5079 706.797 86.1052 710.204 85.3036C713.61 84.6023 717.117 84.5021 720.724 85.2034C724.331 85.9048 727.837 87.3075 731.144 89.5117C733.448 91.0146 735.352 92.5175 736.855 94.2208C738.458 95.8238 739.66 97.6273 740.662 99.4308C741.664 101.234 742.466 103.138 742.967 105.042C743.467 106.945 743.768 108.949 743.868 110.953L730.042 112.155C729.841 109.751 729.24 107.546 728.338 105.643C727.437 103.739 725.934 102.136 723.73 100.733C722.126 99.7313 720.523 99.1302 718.92 98.9298C717.217 98.7294 715.614 98.8296 714.011 99.2304C712.408 99.7313 710.905 100.433 709.402 101.535C707.999 102.637 706.697 103.939 705.695 105.542L705.595 105.643C704.493 107.246 703.791 108.949 703.391 110.752C702.99 112.556 702.89 114.259 703.09 115.963C703.29 117.566 703.891 119.169 704.793 120.571C705.695 121.974 706.897 123.277 708.5 124.278C709.602 124.98 710.805 125.581 711.907 125.882C713.009 126.282 714.111 126.483 715.213 126.483C716.315 126.483 717.417 126.383 718.52 126.182C719.622 125.982 720.824 125.681 722.026 125.381L726.936 137.905C724.932 138.606 722.928 139.207 720.924 139.608C718.92 140.009 716.816 140.209 714.612 140.009C712.508 139.908 710.204 139.408 707.999 138.606C705.695 137.905 703.29 136.702 700.886 135.099Z" fill="#E5050F"/>
<path d="M790.157 127.986L801.679 137.003L769.217 178.382L757.695 169.365L790.157 127.986Z" fill="#E5050F"/>
<path d="M819.012 229.08C816.207 226.174 814.203 222.868 812.801 219.361C811.498 215.854 810.797 212.348 810.897 208.841C810.997 205.334 811.698 201.928 813.101 198.621C814.504 195.315 816.608 192.409 819.313 189.804L819.413 189.704C822.118 187.099 825.224 185.195 828.631 183.993C832.037 182.791 835.544 182.19 839.051 182.39C842.658 182.59 846.064 183.392 849.471 184.895C852.877 186.398 855.983 188.702 858.789 191.608C861.594 194.513 863.598 197.82 865.001 201.226C866.303 204.733 867.005 208.24 866.904 211.746C866.804 215.253 866.103 218.66 864.7 221.966C863.298 225.272 861.193 228.178 858.488 230.783L858.388 230.883C855.683 233.488 852.577 235.392 849.17 236.594C845.764 237.796 842.257 238.398 838.75 238.197C835.143 237.997 831.737 237.195 828.33 235.692C824.924 234.29 821.818 232.085 819.012 229.08ZM828.631 220.163C830.034 221.665 831.537 222.667 833.24 223.369C834.943 224.07 836.646 224.371 838.35 224.371C840.053 224.371 841.756 223.97 843.459 223.269C845.163 222.567 846.666 221.565 848.068 220.263L848.168 220.163C849.571 218.86 850.673 217.357 851.475 215.754C852.276 214.151 852.677 212.448 852.878 210.644C852.978 208.841 852.777 207.138 852.176 205.334C851.575 203.631 850.673 202.028 849.271 200.525C847.868 199.022 846.365 198.02 844.662 197.319C842.958 196.617 841.255 196.317 839.552 196.317C837.849 196.317 836.145 196.718 834.442 197.419C832.739 198.12 831.236 199.122 829.833 200.425L829.733 200.525C828.33 201.827 827.228 203.33 826.427 204.933C825.625 206.536 825.124 208.24 825.024 210.043C824.924 211.746 825.124 213.55 825.725 215.253C826.327 217.157 827.328 218.76 828.631 220.163Z" fill="#E5050F"/>
<path d="M907.182 261.943L913.694 273.966L899.567 306.328L924.014 293.003L930.827 305.627L884.638 330.775L878.527 319.553L893.155 285.989L867.806 299.816L860.993 287.191L907.182 261.943Z" fill="#E5050F"/>
<path d="M958.58 382.775L961.887 396.401L915.798 430.767L912.091 415.538L920.307 409.526L915.498 389.788L905.478 388.386L901.771 373.457L958.58 382.775ZM930.326 402.914L943.451 393.696L927.521 391.492L930.326 402.914Z" fill="#E5050F"/>
<path d="M971.906 462.829L972.507 477.357L932.731 479.16L933.833 504.609L921.108 505.21L919.305 465.233L971.906 462.829Z" fill="#E5050F"/>
<path d="M368.347 911.49L359.23 911.189L359.33 899.567L375.361 899.267L385.58 901.972L372.255 953.27L358.328 949.663L368.347 911.49Z" fill="#E5050F"/>
<path d="M453.511 970.203C449.603 969.702 446.297 968.6 443.592 967.097C440.786 965.594 438.382 963.69 436.278 961.486L444.493 952.469C446.096 954.172 447.7 955.475 449.403 956.376C451.106 957.278 453.01 957.879 455.114 958.18C458.12 958.581 460.524 957.98 462.428 956.276C464.331 954.573 465.634 952.068 466.436 948.762C464.933 949.864 463.129 950.665 461.226 951.166C459.322 951.667 457.118 951.768 454.813 951.467C452.308 951.066 450.004 950.365 448 949.363C445.996 948.261 444.293 946.958 442.89 945.355C441.488 943.752 440.586 941.849 439.985 939.644C439.384 937.44 439.283 935.136 439.684 932.631V932.531C440.085 929.625 440.987 927.12 442.389 924.916C443.792 922.712 445.495 920.908 447.599 919.506C449.703 918.103 452.108 917.101 454.713 916.6C457.418 916.099 460.224 915.999 463.129 916.4C466.937 916.901 469.942 917.903 472.247 919.305C474.551 920.708 476.555 922.511 478.258 924.816C479.861 926.92 481.064 929.625 481.765 932.931C482.466 936.138 482.466 940.145 481.765 945.055V945.155C481.164 949.463 480.062 953.27 478.559 956.577C477.056 959.983 475.052 962.789 472.647 964.993C470.243 967.197 467.538 968.8 464.331 969.802C461.025 970.504 457.418 970.704 453.511 970.203ZM460.123 941.548C462.428 941.848 464.331 941.448 465.834 940.346C467.337 939.244 468.239 937.64 468.439 935.837V935.737C468.74 933.733 468.339 931.929 467.137 930.326C465.935 928.824 464.231 927.822 461.927 927.521C459.622 927.22 457.719 927.621 456.216 928.723C454.713 929.825 453.811 931.428 453.611 933.533V933.633C453.31 935.637 453.811 937.34 454.913 938.843C456.016 940.346 457.819 941.247 460.123 941.548Z" fill="#E5050F"/>
<path d="M549.295 970.202C545.587 970.703 542.081 970.503 538.975 969.401C535.769 968.399 533.063 966.796 530.659 964.592C528.254 962.387 526.25 959.782 524.747 956.676C523.144 953.57 522.142 950.164 521.641 946.457V946.357C521.141 942.65 521.241 939.143 521.942 935.636C522.643 932.23 523.846 929.124 525.649 926.318C527.352 923.613 529.657 921.309 532.462 919.405C535.268 917.601 538.474 916.399 542.181 915.898C545.888 915.397 549.295 915.698 552.501 916.7C555.607 917.702 558.412 919.305 560.817 921.509C563.221 923.713 565.225 926.318 566.828 929.424C568.431 932.53 569.433 935.937 569.934 939.644V939.744C570.435 943.451 570.335 946.958 569.634 950.465C568.932 953.971 567.73 956.977 565.927 959.782C564.123 962.488 561.819 964.792 559.113 966.696C556.308 968.499 553.002 969.701 549.295 970.202ZM547.691 957.378C549.094 957.177 550.397 956.676 551.499 955.775C552.601 954.873 553.503 953.771 554.104 952.468C554.705 951.166 555.206 949.563 555.406 947.759C555.607 945.956 555.607 944.052 555.306 941.948V941.848C555.006 939.744 554.505 937.84 553.803 936.237C553.102 934.534 552.2 933.131 551.198 932.029C550.196 930.827 548.994 930.025 547.691 929.424C546.389 928.823 545.087 928.723 543.584 928.923C542.181 929.124 540.878 929.624 539.776 930.526C538.674 931.428 537.873 932.53 537.171 933.833C536.47 935.235 536.069 936.738 535.869 938.542C535.668 940.345 535.668 942.249 535.969 944.353V944.453C536.27 946.557 536.771 948.461 537.472 950.164C538.173 951.867 539.075 953.27 540.077 954.472C541.079 955.574 542.281 956.476 543.483 956.977C544.886 957.378 546.289 957.578 547.691 957.378Z" fill="#E5050F"/>
<path d="M629.148 954.272C625.341 954.973 621.834 955.074 618.728 954.472C615.622 953.871 612.716 952.869 610.011 951.366L614.921 940.245C616.924 941.347 618.928 942.049 620.832 942.449C622.736 942.75 624.739 942.75 626.743 942.349C629.749 941.848 631.853 940.445 633.055 938.241C634.358 936.037 634.759 933.232 634.558 929.825C633.456 931.328 632.053 932.63 630.35 933.733C628.647 934.835 626.643 935.636 624.339 936.037C621.834 936.538 619.429 936.538 617.125 936.137C614.82 935.736 612.817 935.035 611.013 933.933C609.21 932.831 607.707 931.328 606.404 929.424C605.202 927.521 604.3 925.417 603.899 922.812V922.711C603.399 919.806 603.398 917.201 604 914.696C604.601 912.191 605.703 909.987 607.206 907.983C608.709 905.979 610.713 904.376 613.017 902.974C615.321 901.671 618.027 900.669 621.032 900.168C624.739 899.467 627.946 899.467 630.551 900.068C633.156 900.669 635.66 901.771 637.965 903.374C640.169 904.877 642.173 907.081 643.776 909.987C645.479 912.792 646.782 916.7 647.583 921.409V921.509C648.385 925.717 648.585 929.725 648.184 933.432C647.784 937.139 646.782 940.345 645.279 943.251C643.676 946.056 641.572 948.461 638.867 950.465C636.362 952.168 633.055 953.471 629.148 954.272ZM626.343 925.016C628.647 924.615 630.25 923.613 631.352 922.11C632.354 920.607 632.755 918.804 632.454 917V916.9C632.054 914.896 631.152 913.293 629.549 912.191C627.946 911.089 626.042 910.789 623.738 911.189C621.433 911.59 619.83 912.592 618.728 914.095C617.726 915.598 617.325 917.401 617.726 919.505V919.605C618.127 921.609 619.028 923.112 620.632 924.114C622.134 925.116 624.138 925.417 626.343 925.016Z" fill="#E5050F"/>
</g>
<defs>
<clipPath id="clip0_27_391">
<rect width="1000" height="1000" fill="white"/>
</clipPath>
</defs>
</svg>
