<svg width="1000" height="1000" viewBox="0 0 1000 1000" fill="none" xmlns="http://www.w3.org/2000/svg">
<g clip-path="url(#clip0_27_458)">
<path fill-rule="evenodd" clip-rule="evenodd" d="M519.319 0.396587C794.499 11.2896 1010.27 244.63 999.622 519.805C988.969 794.981 755.861 1010.5 480.664 999.605C205.484 988.695 -10.2744 755.354 0.378095 480.196C11.0137 205.02 244.139 -10.5133 519.319 0.396587Z" fill="white"/>
<path fill-rule="evenodd" clip-rule="evenodd" d="M395.63 544.997C400.275 545.655 405.155 546.768 409.816 547.442C409.816 552.147 410.187 564.558 416.245 565.856C423.245 567.374 422.673 557.155 422.673 551.894C422.673 542.805 422.673 533.7 422.673 523.953C422.673 515.303 422.673 505.776 422.69 496.687C428.025 493.804 433.107 491.359 438.206 488.93C438.206 499.57 438.189 510.885 438.206 521.964C438.206 533.261 438.189 543.463 438.189 554.997C438.189 569.718 437.836 596.815 416.228 582.044C405.205 574.49 395.596 560.646 395.613 546.785C395.613 546.785 395.613 546.346 395.613 545.891L395.63 544.997ZM449.515 482.927C454.614 479.825 459.713 477.599 464.812 475.609C464.812 489.807 464.812 503.988 464.795 517.95C464.795 532.368 464.795 546.549 464.795 560.747C464.795 568.621 465.25 587.608 474.993 590.458C485.949 593.662 485.191 569.886 485.191 564.288C485.191 548.319 485.208 531.474 485.208 514.409C485.208 498.896 485.225 481.831 485.225 465.188C490.543 462.524 495.861 460.753 500.976 457.87C500.96 475.39 500.96 492.674 500.96 510.194C500.943 527.258 500.943 544.121 500.943 561.404C500.943 577.795 503.198 634.688 474.976 621.704C472.015 620.338 466.461 614.908 464.122 611.502C451.989 593.932 449.498 574.844 449.515 553.631C449.515 541.878 449.515 530.125 449.515 518.153C449.515 506.433 449.515 494.68 449.515 482.927ZM526.876 643.254L505.638 456.336L522.265 449.692L534.213 587.608L535.105 573.866L546.447 441.497L562.855 436.185L541.516 648.802L526.876 643.254ZM567.887 656.997C567.887 638.381 567.887 619.748 567.903 601.351C567.903 583.174 567.92 564.322 567.92 545.706C567.92 527.528 567.937 508.457 567.937 490.279C567.937 472.102 567.937 453.25 567.954 434.415C583.705 430.418 599.44 426.219 614.737 422.459C614.737 439.524 614.737 456.167 614.72 472.355C604.304 474.344 593.87 475.896 583.672 477.228C583.672 491.19 583.672 504.275 583.655 517.579C592.978 517.141 602.503 516.247 611.59 515.151C611.59 531.558 611.573 548.184 611.573 563.698C602.486 564.811 592.961 564.355 583.655 564.355C583.638 580.762 583.638 597.169 583.638 614.015C594.291 615.802 604.926 616.46 615.579 616.898C615.579 634.418 615.562 650.825 615.562 667.013C600.029 664.77 583.84 661.887 567.887 656.997ZM624.649 668.547L624.7 482.759L624.716 420.672L641.781 417.367L663.473 579.666L662.85 413.809L678.147 410.268L678.097 605.162L678.08 670.115H660.561L654.806 627.319L648.832 584.742L638.651 511.357C639.206 564.035 639.526 616.544 639.492 669.222L624.649 668.547ZM702.7 667.907C702.717 599.092 702.734 530.294 702.75 461.479L685.013 462.591L685.03 410.487L736.256 406.946L736.239 459.27L718.283 460.163C718.266 528.742 718.249 597.321 718.216 665.917L702.7 667.907ZM742.668 408.059C747.767 408.059 753.101 408.733 757.965 409.172C757.965 422.021 757.965 435.325 757.948 447.753C757.948 460.838 757.931 473.468 757.948 487.21C757.948 499.183 757.931 512.049 757.948 524.898C757.931 537.763 757.931 550.393 757.931 563.478C757.931 569.852 756.905 606.713 768.129 606.713C778.277 606.713 778.344 564.945 778.344 559.263C778.344 546.852 778.344 534.88 778.361 522.469C778.361 509.823 778.378 497.85 778.361 485.44C778.361 473.029 778.378 461.276 778.361 449.304C778.378 436.438 778.378 424.027 778.378 412.055C783.477 412.73 789.013 414.281 793.894 414.517C793.894 437.349 793.894 459.742 793.877 482.135C793.877 503.634 793.877 526.027 793.86 548.64C793.843 573.107 793.406 649.442 768.112 657.283C765.016 657.941 759.681 657.941 757.258 655.951C741.893 642.006 742.634 579.009 742.651 557.728C742.651 545.082 742.668 532.89 742.651 520.024C742.651 507.614 742.668 495.203 742.668 482.995C742.668 470.584 742.668 457.718 742.668 445.746C742.668 433.116 742.684 420.469 742.668 408.059ZM821.56 581.032C824.656 579.919 828.661 578.368 830.428 577.71C843.252 573.714 844.413 531.035 844.413 520.733C844.413 512.723 843.807 470.635 830.378 466.993L821.577 465.289C821.577 485.237 821.577 504.309 821.56 523.38C821.577 542.67 821.577 561.961 821.56 581.032ZM806.027 632.024C806.027 614.284 806.027 596.545 806.044 578.806C806.061 560.848 806.061 543.109 806.061 526.027C806.061 508.288 806.061 490.111 806.077 472.372C806.077 454.194 806.077 436.236 806.094 418.716C814.525 421.161 824.505 424.921 832.044 427.585C855.452 435.173 860.635 496.636 860.619 517.613C860.602 544.694 854.931 601.503 829.991 616.932C823.108 621.164 814.021 627.808 806.027 632.024ZM869.672 587.018C869.672 575.046 869.672 563.529 869.672 551.102C869.672 539.349 869.672 527.376 869.689 515.843C869.689 503.87 869.689 491.679 869.689 480.145C869.689 468.628 869.706 456.656 869.706 444.667C885.441 453.098 901.192 461.968 916.708 473.063C916.708 477.936 916.691 482.59 916.708 487.025C906.291 484.141 895.858 480.803 885.441 477.919C885.441 485.018 885.441 491.224 885.441 498.542C894.747 498.997 904.07 498.997 913.595 499.655C913.595 504.09 913.595 509.182 913.595 514.291C904.053 516.719 894.747 519.384 885.441 522.486C885.424 530.698 885.424 539.551 885.424 547.982C896.295 542.215 906.931 534.678 919.35 527.596C919.35 532.688 919.35 537.342 919.35 542.232C901.849 557.307 885.878 572.179 869.672 587.018ZM332.388 473.468C449.313 287.747 580.39 182.442 764.376 161.111C790.629 181.632 814.694 205.341 836.015 231.966C886.619 295.166 918.492 372.125 927.68 452.44C890.775 415.563 662.21 290.394 360.425 517.411C356.201 499.874 346.154 484.479 332.388 473.468ZM235.607 471.259C204.525 381.096 192.964 287.376 194.159 197.887C234.11 157.502 281.65 125.295 333.819 103.341C360.239 92.2284 387.535 83.8647 415.37 78.2833C311.134 211.765 308.374 351.722 304.066 458.949C298.193 457.297 292.033 456.319 285.689 456.066C267.06 455.307 249.642 461.057 235.607 471.259ZM206.023 512.723C143.539 472.405 121.258 434.128 86.978 379.899C77.3521 413.033 71.7145 447.533 70.3514 482.759C68.0123 543.21 78.7993 603.341 101.08 658.885C123.109 623.424 163.514 579.649 204.29 552.434C202.96 546.144 202.371 539.585 202.64 532.873C202.91 525.859 204.071 519.114 206.023 512.723ZM273.589 615.532C259.487 733.231 334.896 839.261 457.441 927.451C441.387 925.832 425.517 923.319 409.9 919.947C323.957 901.146 247.455 856.713 188.757 794.981C171.962 737.969 173.679 659.155 218.712 584.017C231.569 601.098 251.123 612.969 273.589 615.532ZM360.357 555.047C554.121 716.554 752.479 736.367 925.206 567.121C911.861 651.837 873.408 730.297 814.408 793.261C789.215 820.139 760.741 843.645 729.811 863.222C575.847 867.741 420.755 812.264 302.77 613.475C330.941 606.14 353.373 583.679 360.357 555.047ZM663.927 162.224L642.504 170.166L635.807 151.887L657.465 143.979L663.927 162.224ZM519.606 230.887L501.347 244.933L489.684 229.47L507.775 215.677L519.606 230.887ZM582.241 147.031L582.056 146.559C580.929 144.232 579.078 142.714 576.873 142.512C574.668 142.309 570.815 143.051 566.624 144.889L548.938 153.034C541.264 156.541 536.518 159.661 535.391 162.004C534.044 164.551 534.549 168.615 536.754 173.724L540.826 182.56C542.879 186.758 545.32 189.22 548.618 189.743C551.681 190.249 556.931 188.967 563.915 185.831L576.94 179.929C584.16 176.59 588.687 173.454 590.184 171.599C591.935 169.542 591.783 166.406 590.521 163.387L590.134 162.679L612.701 152.326L612.886 152.781C613.845 154.433 614.586 156.052 614.956 156.76C616.588 160.706 617.581 164.365 617.514 167.468C617.463 170.351 616.521 173.387 614.939 175.916C613.122 178.631 610.194 181.244 606.66 183.369C602.873 185.679 597.202 189.17 589.545 192.458L564.857 203.941C557.419 207.246 551.445 209.354 547.541 210.551C543.637 211.731 539.817 212.052 536.535 211.512C533.052 210.736 529.635 209.084 527.38 207.077C524.923 204.852 522.13 201.462 520.094 197.044L512.336 180.064C508.465 171.464 508.044 164.079 511.259 158.362C514.237 152.629 522.837 146.542 535.862 140.64L560.549 129.157C568.442 125.666 574.921 123.154 578.825 121.973C582.696 120.995 586.516 120.692 589.377 120.962C592.002 121.434 594.779 122.8 596.832 124.553C599.087 126.543 601.241 129.646 603.109 133.608C603.496 134.317 603.866 135.008 604.051 135.48C604.203 136.155 604.388 136.627 604.59 136.863L582.241 147.031ZM444.517 217.346L400.948 262.824L408.319 269.906L449.481 227.211L459.915 236.873L418.82 279.787L425.988 286.937L470.449 240.515L482.347 252.066L421.091 316.075L372.104 269.147L432.636 205.796L444.517 217.346ZM284.865 477.447C317.125 478.729 342.418 506.079 341.173 538.337C339.927 570.594 312.598 595.871 280.338 594.589C248.061 593.308 222.784 565.957 224.029 533.7C225.275 501.442 252.604 476.166 284.865 477.447ZM343.26 795.352L334.273 781.238L370.909 758.305L349.335 748.559L355.41 735.271L381.528 748.306L392.18 764.932L343.26 795.352ZM423.7 816.345L412.425 804.12C410.725 802.282 409.009 800.882 407.881 800.832C406.114 800.764 404.549 800.916 403.152 802.417C401.772 803.698 401.049 805.216 401.217 806.565C401.183 807.442 402.193 809.718 404.347 811.573L415.168 823.984C417.103 825.839 418.584 827.221 419.913 827.272C421.462 827.559 422.791 827.39 424.407 825.906C425.787 824.625 426.51 822.888 426.342 821.775C426.426 820.46 425.4 818.419 423.7 816.345ZM436.153 838.148L435.934 838.131C440.528 834.101 442.935 829.312 442.682 824.658C442.632 820.426 439.939 815.232 434.857 809.465L417.86 790.36C413.822 785.976 410.136 783.615 406.383 783.025C403.085 782.233 399.484 783.413 396.269 786.162L387.535 793.8C384.304 797.004 383.059 800.495 383.581 804.069C384.54 807.88 387.687 812.669 392.988 818.874L401.503 828.098C403.842 830.847 406.417 832.955 407.932 833.899C409.665 835.079 412.088 835.4 413.855 835.467L409.042 839.716C407.191 841.419 405.172 842.229 403.64 841.723C401.856 841.655 400.157 840.02 398.02 837.71L386.963 825.721C385.264 823.647 384.237 821.606 384.069 820.274C383.446 819.144 383.968 817.391 385.348 816.109L374.712 804.373C374.022 804.997 373.568 805.418 373.096 805.857C372.878 805.857 372.642 806.278 372.406 806.498C368.721 809.904 367.021 813.613 367.526 817.61C368.048 821.404 370.942 826.395 375.84 831.707L386.24 843.662C393.678 851.722 399.921 856.646 404.532 857.944C408.908 859.462 414.31 857.439 419.139 852.987L436.153 838.148ZM460.251 896.863L445.964 887.858L468.935 851.284L445.156 852.093L444.618 837.659L474.135 837.743L490.576 848.4L460.251 896.863ZM490.896 889.022V889.241C490.391 890.556 489.449 891.838 489.213 892.512C487.749 896.222 487.194 899.088 487.076 901.955C486.992 903.962 487.564 906.423 488.607 908.228C489.886 909.61 491.586 911.229 493.976 912.663C496.13 914.079 499.613 915.765 504.409 917.738L527.128 926.877C533.018 929.559 538.1 930.199 541.668 929.693C545.471 928.951 548.231 926.405 549.729 922.24L552.657 915.495C553.65 912.865 553.515 910.639 552.69 908.835C551.883 906.811 549.745 904.72 546.262 902.798C549.342 903.371 552.236 903.489 554.272 902.461C555.854 901.635 557.487 899.931 558.715 896.66L561.172 890.758C562.67 886.61 562.367 882.816 560.482 879.848C558.597 877.336 553.835 874.25 547.272 871.552L525.21 862.666C518.226 859.732 512.268 858.804 508.23 859.985C504.628 861.165 501.162 864.807 499.176 870.052C499.176 870.052 498.923 870.928 498.671 871.367C498.435 871.805 498.2 872.463 497.712 873.323L513.009 879.494L513.261 878.837C514.002 876.864 515.163 875.582 516.526 874.975C517.435 874.335 519.202 874.638 521.608 875.397L538.42 882.513C540.843 883.272 542.997 884.688 543.401 885.598C544.024 886.728 544.192 888.296 543.452 889.814C542.947 891.129 542.021 892.209 540.894 892.596C540.002 892.782 538.891 892.748 537.578 892.242L520.75 885.582L515.836 897.588L531.991 904.012C534.179 904.973 535.896 906.39 536.518 907.519C536.922 908.43 536.872 909.981 536.35 911.735C535.626 913.033 534.482 914.096 533.371 914.281C532.715 914.248 531.369 914.197 529.4 913.674L510.4 906.019C507.136 904.569 505.184 903.152 504.578 902.022C503.955 901.331 504.022 899.122 504.78 896.93C505.234 896.711 505.268 896.053 505.486 895.851C505.268 895.615 505.941 895.429 505.941 895.429L490.896 889.022ZM518.613 18.7932C783.83 29.3152 991.494 253.87 981.229 519.063C970.963 784.256 746.589 991.713 481.388 981.191C216.187 970.686 8.50662 746.114 18.7552 480.921C29.0206 215.728 253.412 8.28798 518.613 18.7932ZM517.94 42.0631C265.798 32.0638 52.2271 229.521 42.4834 481.646C32.7229 733.771 230.391 947.517 482.516 957.499C734.657 967.499 948.228 770.041 957.972 517.933C967.715 265.809 770.064 52.0456 517.94 42.0631Z" fill="#008639"/>
</g>
<defs>
<clipPath id="clip0_27_458">
<rect width="1000" height="1000" fill="white"/>
</clipPath>
</defs>
</svg>
