<svg width="1000" height="1000" viewBox="0 0 1000 1000" fill="none" xmlns="http://www.w3.org/2000/svg">
<g clip-path="url(#clip0_27_514)">
<path fill-rule="evenodd" clip-rule="evenodd" d="M499.991 0C776.138 0 1000 223.845 1000 500.009C1000 776.173 776.138 1000 499.991 1000C223.845 1000 0 776.138 0 500.009C0 223.879 223.845 0 499.991 0Z" fill="white"/>
<path fill-rule="evenodd" clip-rule="evenodd" d="M499.991 14.2358C768.281 14.2358 985.764 231.719 985.764 500.009C985.764 768.299 768.281 985.764 499.991 985.764C231.701 985.764 14.2358 768.281 14.2358 500.009C14.2358 231.736 231.719 14.2358 499.991 14.2358ZM499.991 26.7508C761.363 26.7508 973.232 238.637 973.232 500.009C973.232 761.381 761.329 973.267 499.991 973.267C238.654 973.267 26.7508 761.329 26.7508 500.009C26.7508 238.689 238.637 26.7508 499.991 26.7508Z" fill="#006437"/>
<path fill-rule="evenodd" clip-rule="evenodd" d="M499.991 40.3433C753.854 40.3433 959.656 246.145 959.656 499.991C959.656 753.837 753.872 959.639 499.991 959.639C246.111 959.639 40.3433 753.854 40.3433 499.991C40.3433 246.128 246.128 40.3433 499.991 40.3433ZM499.991 83.1376C549.723 83.1341 598.34 97.8783 639.692 125.506C681.045 153.133 713.276 192.402 732.31 238.348C751.344 284.294 756.326 334.852 746.626 383.629C736.926 432.406 712.979 477.211 677.815 512.378C642.65 547.546 597.846 571.495 549.07 581.199C500.293 590.902 449.735 585.924 403.788 566.893C357.841 547.862 318.569 515.634 290.939 474.283C263.309 432.932 248.561 384.317 248.561 334.585C248.561 267.9 275.051 203.946 322.202 156.791C369.354 109.636 433.306 83.1422 499.991 83.1376ZM243.347 441.762C248.818 454.647 255.16 467.144 262.328 479.168C273.296 495.976 266.03 515.079 245.589 525.56L203.699 546.922C183.709 556.882 145.834 552.432 138.673 525.629C135.834 517.059 133.546 508.315 131.824 499.452L71.9089 516.243C70.5009 494.551 70.3097 490.779 71.596 472.319L243.347 441.762ZM225.113 474.092L167.423 489.736C168.069 494.45 169.11 499.101 170.534 503.641C174.706 517.547 181.189 517.251 197.424 511.324L218.525 503.433C226.973 499.661 235.421 495.872 230.971 486.225C228.086 481.01 225.113 473.797 225.113 474.057V474.092ZM298.117 526.499C304.705 533.451 312.857 541.099 320.888 547.931L160.174 762.18C149.499 748.075 139.633 733.376 130.625 718.152L175.557 669.587C165.632 654.638 156.854 641.949 148.737 622.899L96.6955 645.826C91.2647 631.684 86.8898 617.159 83.6069 602.371L298.048 526.499H298.117ZM262.693 574.716L181.293 608.68C187.006 619.999 193.756 630.764 201.456 640.837L262.693 574.786V574.716ZM166.067 769.394L348.143 568.285C347.447 568.111 364.603 578.714 372.86 582.886L232.205 769.411C246.91 784.012 252.49 788.636 270.445 802.107L244.946 845.422C218.178 826.198 183.101 792.008 166.015 769.307L166.067 769.394ZM255.897 853.314L397.003 593.975C405.538 597.4 414.24 600.394 423.076 602.944L407.606 736.525C411.813 726.86 459.978 611.375 459.978 610.905C467.33 612.087 481.323 613.356 487.459 613.617L468.46 928.769C452.295 928.317 427.387 924.58 409.761 920.408L436.686 761.329L368.983 870L367.245 737.898C361.648 754.654 305.678 882.793 305.678 883.263C288.369 874.457 271.705 864.437 255.81 853.279L255.897 853.314ZM553.562 608.767C535.365 612.3 516.858 613.983 498.322 613.791L491.909 929.933C540.041 931.105 588.021 924.051 633.78 909.075L619.648 855.66C596.913 862.961 574.716 868.366 552.624 870.365L540.091 762.424C562.948 759.973 575.411 757.209 591.733 751.907L580.887 711.703C565.938 715.85 550.661 718.705 535.224 720.238L526.412 643.948C538.349 643.481 550.202 641.733 561.766 638.734L553.632 608.872L553.562 608.767ZM562.844 606.873C572.387 604.613 578.644 602.91 587.648 599.92L710.104 875.649C691.592 885.91 672.385 894.86 652.622 902.435L562.844 606.873ZM728.616 864.508L597.452 596.409C613.215 590.63 628.403 583.391 642.818 574.786C660.861 563.174 675.844 574.942 691.071 588.935L729.398 624.585C765.726 658.375 759.138 683.597 751.09 691.696L846.5 754.376C836.784 768.02 826.095 780.945 814.517 793.051L721.35 717.874L710.504 725.226L779.927 826.789C763.818 840.695 746.644 853.318 728.564 864.542L728.616 864.508ZM690.375 693.226C708.418 681.511 719.351 672.281 697.067 646.191L672.211 614.816C657.054 594.097 648.189 605.291 636.839 610.523L690.375 693.226ZM706.628 522.657C700.214 529.384 693.608 536.389 685.978 542.994L850.237 749.161C860.556 734.802 870.045 719.864 878.657 704.42L833.759 659.592C843.406 643.948 847.665 634.962 855.521 616.624L906.607 638.89C912.149 625.033 916.583 610.758 919.869 596.2L706.697 522.657H706.628ZM747.162 571.066L822.739 602.058C817.91 612.426 812.285 622.404 805.913 631.903L747.162 571.066ZM794.789 476.717C798.543 468.617 801.846 460.186 805.061 451.426L782.378 447.428C765.813 444.769 754.897 450.227 749.509 457.492C744.248 464.871 740.036 472.943 736.994 481.479C733.083 491.404 733.326 509.551 761.328 522.014C785.663 533.243 803.932 544.454 842.554 511.498C865.151 493.264 873.842 499.435 882.081 501.156C893.935 505.136 895.169 509.934 892.84 522.362C889.729 537.727 872.364 529.575 864.021 526.29C860.881 538.15 856.89 549.768 852.08 561.054C857.12 563.174 863.413 566.042 869.096 568.424C894.839 578.731 923.884 573.134 930.611 541.986C934.661 521.041 933.427 510.855 933.427 507.222C933.062 487.859 918.809 470.72 894.161 466.218C870.105 461.386 854.044 460.065 820.41 485.338C803.149 498.149 800.281 502.963 784.638 496.758C776.312 493.595 768.316 490.796 772.974 481.027C776.555 473.501 780.275 472.232 794.997 476.578L794.789 476.717ZM261.598 156.055L255.984 169.091L265.561 179.52L251.499 178.182L244.546 190.575L241.487 176.67L227.581 173.889L239.749 166.675L238.132 152.596L248.735 161.999L261.546 156.055H261.598ZM220.281 202.343L216.387 219.412L230.293 229.841L212.911 231.388L207.314 247.97L200.483 231.857L183.101 231.631L196.224 220.125L191.01 203.403L205.958 212.407L220.177 202.291L220.281 202.343ZM184.909 261.65L184.665 284.247L205.107 293.581L183.675 300.325L181.137 322.765L168.153 304.357L146.147 308.877L159.549 290.747L148.494 271.158L169.769 278.371L184.909 261.72V261.65ZM159.601 337.54L166.432 365.577L194.695 370.617L170.343 385.879L174.323 414.472L152.352 395.752L126.54 408.371L137.317 381.638L117.397 360.779L146.025 362.9L159.531 337.47L159.601 337.54ZM840.329 337.54L833.498 365.577L805.235 370.617L829.57 385.809L825.642 414.403L847.56 395.752L873.372 408.371L862.526 381.638L882.446 360.779L853.818 362.9L840.295 337.47L840.329 337.54ZM815.004 261.65L815.247 284.247L794.806 293.598L816.238 300.342L818.776 322.782L831.777 304.375L853.783 308.894L840.382 290.765L851.454 271.158L830.178 278.371L815.004 261.72V261.65ZM779.632 202.343L783.525 219.412L769.62 229.841L787.002 231.388L792.599 247.97L799.43 231.857L816.812 231.631L803.688 220.125L808.903 203.403L793.954 212.407L779.736 202.291L779.632 202.343ZM738.315 156.055L743.947 169.091L734.352 179.52L748.414 178.182L755.366 190.575L758.443 176.67L772.349 173.889L760.181 166.675L761.833 152.561L751.247 161.965L738.402 156.02L738.315 156.055Z" fill="#006437"/>
<path fill-rule="evenodd" clip-rule="evenodd" d="M499.974 96.0176C547.162 96.0176 593.291 110.011 632.526 136.228C671.762 162.444 702.342 199.707 720.399 243.304C738.456 286.9 743.18 334.873 733.973 381.154C724.766 427.435 702.041 469.947 668.673 503.313C635.304 536.679 592.791 559.4 546.509 568.604C500.227 577.808 452.255 573.081 408.66 555.02C365.064 536.96 327.804 506.377 301.59 467.14C275.376 427.902 261.386 381.773 261.39 334.585C261.394 271.311 286.533 210.631 331.276 165.891C376.018 121.152 436.701 96.0176 499.974 96.0176ZM690.741 201.3C694.13 341.242 624.985 484.625 504.076 568.059C546.36 567.308 587.642 555.065 623.498 532.642C659.354 510.218 688.432 478.459 707.614 440.769C726.797 403.08 735.361 360.88 732.388 318.695C729.416 276.509 715.019 235.927 690.741 201.3ZM496.063 568.059C377.831 485.825 306.113 340.182 309.399 201.057C285.042 235.682 270.579 276.289 267.562 318.515C264.545 360.741 273.087 402.991 292.273 440.728C311.459 478.465 340.562 510.262 376.457 532.705C412.352 555.147 453.683 567.388 496.011 568.111L496.063 568.059ZM312.371 196.902C380.64 180.524 443.993 148.028 497.123 102.136C461.094 102.55 425.652 111.326 393.592 127.771C361.531 144.216 333.727 167.881 312.371 196.902ZM502.755 102.153C562.462 155.759 630.704 183.414 687.525 196.833C666.162 167.821 638.352 144.169 606.288 127.738C574.224 111.308 538.782 102.55 502.755 102.153ZM686.117 201.109C577.08 175.557 510.438 116.459 500.026 106.03C489.858 116.459 421.077 176.374 314.248 201.178C312.127 434.635 484.817 554.657 500.026 564.913C515.166 554.779 687.629 438.998 686.117 201.109Z" fill="#006437"/>
<path d="M671.169 209.765C675.358 338.53 609.219 472.667 500.026 548.261C393.423 473.866 324.886 337.696 328.918 209.782C378.439 198.258 443.935 172.846 500.009 122.247C553.893 173.02 620.048 197.737 671.169 209.765ZM484.956 141.315H514.627C509.49 137.342 504.597 133.064 499.974 128.505C495.261 133.107 490.244 137.387 484.956 141.315ZM517.06 143.227H482.47C477.117 147.26 470.685 151.918 463.229 156.733H535.885C528.567 151.848 522.292 147.26 517.095 143.227H517.06ZM538.84 158.627H460.326C453.529 162.99 445.951 167.579 437.729 172.203H486.851C485.599 172.811 484.348 173.437 483.113 174.115H434.201C425.857 178.651 416.819 183.206 407.207 187.603H463.872C463.159 188.229 462.464 188.872 461.786 189.515H402.948C392.102 194.33 380.508 198.919 368.184 203.09H413.255C412.647 203.699 412.056 204.325 411.517 204.985H362.483C353.149 207.992 343.45 210.756 333.403 213.155C333.403 214.893 333.403 216.718 333.403 218.491H429.16C429.687 219.084 430.158 219.724 430.568 220.403H333.455C333.525 224.98 333.669 229.505 333.89 233.978H432.358V235.89H333.994C334.237 240.444 334.55 244.929 334.932 249.379H432.358V251.291H335.019C335.437 255.862 335.923 260.399 336.462 264.866H432.289V266.778H336.688C337.279 271.332 337.922 275.834 338.652 280.284H432.271V282.196H339.052C339.834 286.767 340.669 291.286 341.59 295.771H433.714L431.785 297.683H341.99C342.928 302.167 343.919 306.6 344.997 310.963H426.918L428.934 312.875H345.501C346.665 317.533 347.917 322.139 349.22 326.659H432.393V328.518H349.742C351.098 333.084 352.511 337.586 353.983 342.024H432.358V343.936H354.591C356.156 348.542 357.772 353.062 359.476 357.512H432.323V359.424H360.223C361.996 364.059 363.833 368.555 365.733 372.912H432.341V374.824H366.55C368.567 379.459 370.635 383.984 372.756 388.399H432.341V390.311H373.712C375.96 394.946 378.277 399.448 380.664 403.817H432.428V405.712H381.673C384.118 410.231 386.603 414.634 389.129 418.922H432.41C432.41 419.565 432.41 420.208 432.41 420.834H390.19C392.936 425.458 395.752 429.959 398.585 434.322H427.596C427.069 435 426.488 435.634 425.857 436.217H399.784C402.855 440.852 405.955 445.377 409.084 449.792H420.695C421.408 450.47 422.103 451.113 422.833 451.704H410.457C413.933 456.38 417.219 460.882 420.625 465.193H449.914C450.192 465.836 450.47 466.479 450.766 467.105H422.155C425.921 471.856 429.67 476.381 433.401 480.68H460.621C461.317 481.34 462.047 481.984 462.777 482.592H434.966C439.137 487.372 443.257 491.874 447.272 496.08H552.902C556.958 491.874 561.1 487.378 565.33 482.592H497.367C496.567 481.966 495.785 481.34 495.037 480.68H567.103C570.846 476.381 574.618 471.856 578.419 467.105H484.139C483.791 466.479 483.478 465.836 483.148 465.193H579.913C583.32 460.882 586.727 456.386 590.134 451.704H478.403C478.247 451.078 478.107 450.435 477.968 449.792H591.525C594.642 445.424 597.753 440.922 600.859 436.286H476.074C476.074 435.661 475.969 435.018 475.935 434.392H602.11C604.938 430.035 607.736 425.539 610.506 420.903H475.5C475.5 420.278 475.5 419.635 475.5 418.991H611.618C614.156 414.692 616.641 410.289 619.075 405.781H475.535V403.887H620.118C622.435 399.495 624.724 394.993 626.984 390.381H475.535V388.469H627.905C630.026 384.031 632.088 379.505 634.093 374.893H475.535V372.981H634.91C636.805 368.566 638.612 364.082 640.368 359.493H548.765L551.929 358.415C552.641 358.155 553.319 357.859 553.997 357.598H641.098C642.836 353.166 644.4 348.629 645.947 344.023H575.551C576.228 343.397 576.924 342.772 577.567 342.111H646.608C648.068 337.696 649.476 333.194 650.797 328.605H588.622L589.873 326.711H651.301C652.587 322.191 653.821 317.603 654.969 312.927H597.017C597.278 312.301 597.521 311.658 597.782 311.015H655.438C656.504 306.658 657.495 302.231 658.41 297.735H602.162C602.336 297.109 602.475 296.466 602.632 295.823H658.775C659.679 291.362 660.502 286.837 661.244 282.248H605.1C605.1 281.605 605.256 280.979 605.326 280.336H661.556C662.269 275.886 662.912 271.401 663.486 266.83H606.125C606.125 266.204 606.125 265.561 606.125 264.918H663.799C664.338 260.451 664.789 255.932 665.207 251.343H605.117C605.117 250.717 604.943 250.074 604.857 249.431H665.294C665.653 244.981 665.948 240.485 666.18 235.942H602.18C602.023 235.299 601.849 234.673 601.658 234.03H666.284C666.476 229.563 666.615 225.026 666.667 220.455H596.913C596.635 219.812 596.357 219.186 596.061 218.543H666.684C666.684 216.805 666.684 215.067 666.684 213.207C656.377 210.791 646.469 207.992 637.013 205.037H588.691C588.274 204.394 587.84 203.768 587.405 203.143H631.155C618.588 198.954 606.821 194.452 595.94 189.567H575.881C575.203 188.924 574.49 188.298 573.795 187.655H591.681C581.947 183.258 572.943 178.704 564.652 174.167H553.215C551.772 173.489 550.26 172.863 548.765 172.255H561.228C552.919 167.614 545.428 163.025 538.77 158.662L538.84 158.627ZM486.851 172.203H492.065C490.692 172.776 489.354 173.419 488.015 174.115H483.044C484.261 173.437 485.512 172.794 486.781 172.203H486.851ZM463.941 187.586H469.312C468.617 188.212 467.956 188.855 467.261 189.498H461.734L463.82 187.586H463.941ZM413.377 203.073H416.523C415.95 203.681 415.393 204.307 414.785 204.968H411.552C412.126 204.307 412.717 203.681 413.29 203.073H413.377ZM429.264 218.473H433.349C433.533 219.098 433.661 219.738 433.731 220.385H430.655C430.257 219.703 429.791 219.062 429.264 218.473ZM432.41 233.943H433.784V235.855H432.41V233.943ZM432.41 249.344H433.766V251.256H432.428V249.344H432.41ZM432.41 264.814H433.731V266.726H432.428V264.814H432.41ZM432.41 280.214H433.697V282.126H432.41V280.214ZM426.97 310.876H429.768L431.507 312.788H429.038L427.022 310.876H426.97ZM432.41 326.52H433.731V328.518H432.41V326.624V326.52ZM432.41 341.92H433.697V343.832H432.41V341.92ZM432.41 357.39H433.679V359.302H432.41V357.39ZM432.41 372.79H433.662V374.702H432.41V372.79ZM432.41 388.26H433.627V390.172H432.41V388.26ZM432.41 403.661H433.61V405.555H432.41V403.661ZM432.41 418.765H433.575V420.677H432.341C432.341 420.052 432.341 419.426 432.341 418.765H432.41ZM427.596 434.218H433.175C433.088 434.722 432.984 435.209 432.88 435.661L432.567 436.113H425.788C426.418 435.53 427 434.896 427.526 434.218H427.596ZM420.782 449.688H424.988C425.962 450.348 426.952 450.992 427.995 451.6H422.92C422.207 451.009 421.495 450.366 420.782 449.688ZM450.001 465.088H454.173C454.451 465.714 454.746 466.357 455.059 467H450.853C450.557 466.375 450.279 465.731 450.001 465.088ZM460.691 480.558H464.828C465.506 481.201 466.201 481.845 466.931 482.47H462.846C462.116 481.862 461.403 481.236 460.691 480.558ZM497.419 482.47H492.326C491.648 481.862 490.987 481.219 490.362 480.558H495.09C495.837 481.219 496.619 481.845 497.419 482.47ZM484.191 467H480.906C480.593 466.375 480.28 465.731 479.985 465.088H483.218C483.531 465.731 483.861 466.375 484.209 467H484.191ZM478.455 451.6H475.1C474.927 450.957 474.77 450.331 474.614 449.688H478.09C478.229 450.331 478.368 450.957 478.525 451.6H478.455ZM476.109 436.113H472.267V435.835V434.218H475.987C475.987 434.861 476.091 435.487 476.126 436.113H476.109ZM475.552 420.73H472.267V418.905H475.552C475.552 419.548 475.552 420.173 475.552 420.817V420.73ZM475.552 405.625H472.285V403.73H475.552V405.625ZM475.552 390.224H472.302V388.312H475.552V390.224ZM475.552 374.737H472.319V372.825H475.535V374.737H475.552ZM548.765 359.354H533.313C537.268 359.079 541.19 358.439 545.028 357.442H553.997C553.319 357.72 552.624 358.016 551.929 358.259C550.851 358.659 549.808 359.006 548.765 359.354ZM575.551 343.867H572.717C573.465 343.258 574.212 342.615 574.942 341.955H577.567C576.924 342.615 576.228 343.258 575.551 343.867ZM588.639 328.466H586.779L588.066 326.572H589.908L588.639 328.466ZM597.017 312.823H595.453C595.714 312.197 596.009 311.554 596.287 310.911H597.782C597.539 311.554 597.295 312.197 597.017 312.823ZM602.232 297.631H600.859C601.032 296.988 601.206 296.362 601.363 295.719H602.701C602.545 296.362 602.406 297.005 602.232 297.631ZM605.187 282.161H603.97C604.057 281.518 604.161 280.892 604.231 280.249H605.413C605.413 280.892 605.256 281.518 605.187 282.161ZM606.125 266.76H605.065C605.065 266.135 605.065 265.492 605.065 264.848H606.108C606.108 265.492 606.108 266.117 606.108 266.76H606.125ZM605.187 251.291H604.3C604.213 250.665 604.126 250.022 604.057 249.379H604.926L605.187 251.291ZM602.232 235.89H601.415C601.258 235.247 601.067 234.621 600.893 233.978H601.623C601.797 234.604 601.989 235.247 602.145 235.89H602.232ZM597.017 220.403H596.409C596.131 219.76 595.835 219.134 595.557 218.491H596.166C596.444 219.134 596.722 219.777 597.017 220.403ZM588.778 205.002H588.187C587.77 204.377 587.37 203.734 586.918 203.108H587.492C587.927 203.734 588.361 204.359 588.778 205.002ZM575.968 189.533H575.064C574.369 188.889 573.656 188.246 572.926 187.621H573.882C574.577 188.264 575.29 188.889 575.968 189.533ZM553.284 174.132H550.173C548.435 173.454 546.575 172.794 544.698 172.22H548.817C550.329 172.828 551.824 173.454 553.284 174.132ZM472.528 326.606H475.691V328.518H472.528V326.624V326.606ZM475.674 326.606H482.905C483.009 327.232 483.113 327.875 483.235 328.501H475.674V326.606ZM482.905 326.606H485.512C485.651 327.232 485.825 327.875 486.016 328.501H483.235C483.113 327.875 483.009 327.232 482.905 326.606ZM472.476 342.007H475.657V343.919H472.476V342.007ZM475.657 342.007H488.119C488.485 342.65 488.867 343.293 489.249 343.919H475.657V342.007ZM488.119 342.007H492.795C493.299 342.65 493.803 343.293 494.325 343.919H489.249C488.867 343.276 488.485 342.65 488.119 342.007ZM472.476 357.477H475.674V359.389H472.476V357.477ZM475.674 357.477H503.277C504.484 358.176 505.725 358.814 506.996 359.389H475.709V357.477H475.674ZM503.259 357.477H515.183C518.641 358.507 522.203 359.148 525.804 359.389H506.84C505.571 358.798 504.337 358.155 503.137 357.477H503.259ZM486.625 203.108H489.753C489.128 203.716 488.537 204.359 488.015 205.002H484.921C485.495 204.359 486.068 203.734 486.659 203.108H486.625ZM489.753 203.108H544.802C545.445 203.716 546.088 204.359 546.697 205.002H487.876C488.432 204.359 489.006 203.716 489.614 203.108H489.753ZM544.802 203.108H549.182C549.721 203.734 550.243 204.359 550.747 205.002H546.697C546.088 204.359 545.445 203.716 544.802 203.108ZM476.543 218.508H479.741C479.481 219.134 479.237 219.777 478.994 220.42H475.726L476.508 218.508H476.543ZM479.776 218.508H555.718C556.013 219.134 556.291 219.777 556.552 220.42H479.029C479.272 219.777 479.533 219.134 479.776 218.508ZM555.718 218.508H558.638C558.899 219.134 559.159 219.777 559.403 220.42H556.57C556.309 219.777 556.013 219.134 555.718 218.508ZM472.771 233.978H475.917C475.917 234.621 475.813 235.247 475.778 235.89H472.702C472.702 235.247 472.702 234.621 472.702 233.978H472.771ZM475.917 233.978H560.063C560.063 234.604 560.202 235.247 560.237 235.89H475.761C475.761 235.247 475.848 234.621 475.917 233.978ZM560.063 233.978H562.775C562.775 234.604 562.914 235.247 562.966 235.89H560.237C560.237 235.247 560.133 234.604 560.063 233.978ZM472.667 249.379H475.674V251.291H472.65V249.379H472.667ZM475.674 249.379H559.107C558.933 250.022 558.742 250.647 558.551 251.291H475.552V249.379H475.674ZM559.107 249.379H562.149C562.01 250.022 561.854 250.665 561.662 251.291H558.551C558.742 250.647 558.933 250.022 559.107 249.379ZM472.702 264.848H475.744V266.76H472.702V264.848ZM475.744 264.848H550.486L550.103 265.248C550.399 265.752 550.66 266.256 550.938 266.76H475.552V264.848H475.744ZM550.486 264.848H554.362L553.841 265.439C554.067 265.874 554.258 266.309 554.466 266.743H550.99C550.735 266.233 550.457 265.729 550.156 265.231L550.521 264.848H550.486ZM472.65 280.249H475.726V282.161H472.65V280.249ZM475.709 280.249H556.935L557.56 282.161H475.57V280.249H475.709ZM556.935 280.249H559.75C559.942 280.875 560.133 281.518 560.307 282.161H557.56L556.935 280.249ZM472.615 295.736H475.709V297.648H472.615V295.736ZM475.709 295.736H492.9C492.154 296.323 491.451 296.962 490.796 297.648H475.709V295.736ZM492.917 295.736H499.87C498.476 296.25 497.132 296.89 495.854 297.648H490.866C491.516 296.957 492.219 296.318 492.969 295.736H492.917ZM516.504 295.736H523.718C524.375 296.33 524.991 296.969 525.56 297.648H519.546C518.553 296.896 517.48 296.255 516.348 295.736H516.504ZM523.718 295.736H560.115C560.115 296.379 560.202 297.005 560.22 297.648H525.404C524.848 296.957 524.232 296.317 523.561 295.736H523.718ZM560.115 295.736H562.792C562.792 296.379 562.879 297.005 562.914 297.648H560.22C560.22 297.005 560.22 296.362 560.115 295.736ZM472.597 310.911H475.709V312.875H472.58V310.963L472.597 310.911ZM475.709 310.911H483.618C483.461 311.536 483.322 312.179 483.2 312.823H475.726V310.911H475.709ZM483.618 310.911H485.669C485.478 311.539 485.321 312.177 485.199 312.823H483.044C483.166 312.179 483.305 311.554 483.461 310.911H483.618ZM528.063 310.911H530.601C530.601 311.554 530.601 312.179 530.601 312.823H528.324C528.324 312.197 528.15 311.554 528.028 310.911H528.063ZM530.601 310.911H558.847C558.69 311.554 558.499 312.197 558.325 312.823H530.479C530.479 312.197 530.479 311.554 530.479 310.911H530.601ZM558.847 310.911H562.201C562.097 311.554 561.975 312.197 561.819 312.823H558.342C558.534 312.197 558.725 311.554 558.881 310.911H558.847ZM524.291 326.554H526.273C525.769 327.225 525.217 327.858 524.622 328.449H521.041C522.245 328.051 523.352 327.406 524.291 326.554ZM526.273 326.554H551.007C550.486 327.197 549.964 327.841 549.426 328.449H524.448C525.073 327.861 525.654 327.228 526.186 326.554H526.273ZM551.233 326.554H556.674C556.309 327.197 555.926 327.841 555.544 328.449H549.652C550.19 327.841 550.712 327.197 551.233 326.554ZM551.338 497.853H449.201C453.825 502.633 458.292 507.048 462.533 511.081H537.71C542.003 507.066 546.523 502.651 551.181 497.853H551.338ZM535.816 512.976H464.723C470.268 518.19 475.413 522.675 479.985 526.464H520.432C525.021 522.675 530.219 518.155 535.816 512.976ZM517.982 528.411H482.123C487.862 533.227 493.862 537.724 500.096 541.882C502.39 540.317 508.787 535.833 517.964 528.411H517.982ZM415.167 207.784C424.119 207.471 436.964 213.919 436.964 227.008V292.468L425.631 303.61L436.964 314.039V419.791C436.964 427.196 435.226 438.807 422.138 443.848C431.698 455.407 440.702 453.303 451.044 447.585C453.234 479.446 478.646 489.962 495.437 486.364C473.449 470.216 471.103 444.647 470.929 422.416V237.854C470.929 219.655 483.478 187.447 518.034 187.447C556.639 187.447 578.019 238.185 555.37 265.161C594.827 338.165 500.617 374.807 497.784 319.741C528.446 345.987 535.642 296.953 510.281 294.884C468.965 291.408 481.601 381.533 552.085 353.305C625.089 323.426 621.717 172.672 514.019 169.856C489.215 169.213 466.531 188.855 451.704 208.096C440.232 196.694 428.256 193.808 415.202 207.749L415.167 207.784ZM432.341 290.73V227.043C432.341 214.615 417.983 211.277 406.268 211.973C417.74 193.687 434.757 187.638 451.061 201.422C461.994 186.074 488.797 164.92 513.949 165.65C626.74 167.388 631.625 329.266 551.842 358.259C474.631 386.313 462.672 287.184 510.942 290.574C542.403 293.303 532.513 345.814 504.215 329.318C515.253 361.527 585.91 328.571 549.877 265.213C573.778 240.879 553.024 192.209 517.877 191.792C488.085 191.375 475.604 219.325 475.483 238.271V417.566C475.118 449.306 479.62 474.057 505.814 487.876C479.359 500.269 451.809 482.279 446.959 455.111C435.574 459.908 423.58 456.589 413.933 441.206C423.737 439.919 432.306 433.471 432.202 418.314V316.003L419.044 303.61L432.202 290.73H432.341Z" fill="#006437"/>
</g>
<defs>
<clipPath id="clip0_27_514">
<rect width="1000" height="1000" fill="white"/>
</clipPath>
</defs>
</svg>
