<svg width="1000" height="1000" viewBox="0 0 1000 1000" fill="none" xmlns="http://www.w3.org/2000/svg">
<path d="M796.172 10C790.69 12.9709 785.208 15.94 779.724 18.9074C702.528 59.1091 609.336 79.2074 500.162 79.4354C390.754 79.2074 297.564 59.1091 220.135 18.9074C214.653 15.94 209.172 12.9709 203.918 10L62.5341 162.348C145.677 223.56 142.706 321.773 53.6267 456.991C-1.19271 539.674 -13.9812 626.011 15.2524 716.006C51.7958 828.84 139.507 889.594 278.604 898.501C365.172 903.984 438.95 934.361 500.16 989.864C561.146 934.361 634.92 903.984 721.484 898.501C860.581 889.594 948.293 828.84 984.839 716.006C1013.85 626.011 1001.28 539.674 946.69 456.993C857.389 321.775 854.417 223.562 937.553 162.35L796.172 10Z" fill="black"/>
<path d="M212.14 34.2126C210.54 33.5269 208.941 32.6149 207.341 31.7012L88.1146 160.521C165.316 226.989 158.692 329.087 68.0181 466.356C62.7621 474.348 57.7375 482.573 53.397 490.569L707.321 67.5606C646.109 86.9766 576.902 96.5679 500.158 96.7959C387.782 96.5679 291.85 75.784 212.14 34.2126Z" fill="white"/>
<path d="M454.023 490.796L361.289 550.639V894.394C394.181 903.298 425.016 916.544 453.795 933.677L454.023 490.796Z" fill="white"/>
<path d="M639.257 370.883L546.525 430.727V933.675C575.306 916.316 606.144 903.07 639.257 894.161V370.883Z" fill="white"/>
<path d="M268.555 610.711L175.821 670.553V860.811C203.232 870.862 234.067 877.256 268.555 880.455V610.711Z" fill="white"/>
<path d="M83.0901 730.622L49.2861 752.321C58.6495 770.134 69.8438 786.12 83.0901 800.513V730.622Z" fill="white"/>
<path d="M824.725 250.972L731.766 310.814V880.457C766.253 877.257 797.089 870.638 824.497 860.589L824.725 250.972Z" fill="white"/>
<path d="M932.077 466.356C926.821 458.592 921.796 450.597 917.229 443.059V800.283C939.611 775.848 956.742 745.923 968.389 710.748C995.8 625.786 983.696 544.471 932.077 466.356Z" fill="white"/>
<path d="M747.066 97.7101C744.555 91.5438 739.074 90.1724 730.851 94.057L610.023 173.999C602.717 181.763 599.059 189.531 598.603 197.524V332.512C601.117 349.415 609.109 353.984 622.819 346.672L728.794 279.522C738.387 271.3 744.555 260.109 747.066 246.174V183.822L693.39 216.481V255.999L663.703 275.867C660.274 277.696 657.761 277.466 656.389 275.183C655.249 273.354 654.79 269.931 654.562 264.445L653.424 195.469C653.878 191.586 655.249 188.389 657.531 186.104L689.052 162.808C695.907 157.323 699.557 157.554 700.018 163.264V170.571L747.068 139.28L747.066 97.7101Z" fill="white"/>
<path d="M475.493 303.96L508.84 282.26V237.038L351.239 339.363V373.397L373.166 360.147V472.753L351.924 487.141L352.38 519.114L456.535 453.336V420.675L428.896 438.492V396.008L456.077 378.42V401.261L484.173 382.532V311.955L458.362 329.768V342.562L428.212 359.919V324.06L465.67 299.163L475.493 303.96Z" fill="white"/>
<path d="M319.72 539.902V496.733L274.723 525.055V569.595L319.72 539.902Z" fill="white"/>
<path d="M521.17 366.316V410.625L566.166 381.163V337.994L521.17 366.316Z" fill="white"/>
<path d="M240.235 420.903C236.808 419.078 231.783 418.848 224.7 420.675L113.011 489.881C101.362 497.417 96.1099 505.183 97.4796 513.408L97.7076 572.105C98.6196 581.012 101.82 585.812 107.302 586.265C113.011 586.952 121.234 583.297 132.197 575.532L178.795 545.84C187.701 542.413 193.183 542.641 195.009 546.526V584.664L157.55 609.795C151.384 613.217 148.87 610.707 149.786 602.484V581.242L97.4796 613.678V653.42C97.2516 670.092 104.33 675.118 118.721 668.266L231.783 595.405C241.603 590.151 246.17 578.96 245.943 562.282L245.259 507.694C237.264 496.047 224.93 493.762 208.485 501.3L158.919 531.677C154.123 533.506 151.384 531.451 150.47 526.196V509.064C150.012 506.552 150.47 504.039 152.069 501.754C153.669 499.472 156.41 496.961 160.978 493.992L185.186 478.462C190.898 475.263 194.553 475.946 195.694 480.974V493.536L245.943 462.473V430.037C244.574 425.474 242.745 422.503 240.235 420.903Z" fill="white"/>
<path d="M822.442 218.534V175.139L777.445 203.46V248.001L822.442 218.534Z" fill="white"/>
<path d="M380.474 196.382C380.474 166.46 369.739 140.879 348.727 119.867C327.484 98.6237 301.905 87.8888 272.212 88.1168C242.289 87.8888 216.936 98.6237 195.695 119.867C174.451 140.879 163.944 166.46 163.944 196.382C163.944 226.074 174.451 251.654 195.695 272.898C197.064 274.039 198.434 275.411 199.805 276.553C220.132 295.279 244.115 304.646 272.212 304.646C301.905 304.646 327.484 293.911 348.727 272.898C369.741 251.654 380.474 226.074 380.474 196.382ZM267.185 98.6237C269.013 98.3957 270.612 98.3957 272.438 98.3957C283.86 98.3957 294.136 100.221 304.188 103.42C304.414 103.65 304.414 103.878 304.414 104.108C330.682 150.932 332.966 191.128 311.954 224.246C311.726 224.02 311.268 224.02 310.814 223.79C316.066 178.11 301.677 136.312 267.185 98.6237ZM304.874 230.414C306.014 230.414 307.385 230.414 308.755 230.642C310.356 230.872 311.726 231.326 312.868 232.016C313.324 232.47 313.783 232.928 314.239 233.612V233.841C314.239 234.297 314.465 234.753 314.239 235.439C314.009 236.581 313.324 237.95 311.954 239.32C311.268 240.236 310.584 241.149 309.67 241.833C307.615 243.661 304.874 245.26 301.677 246.402C297.794 247.773 294.136 248.459 290.712 248.459C290.256 248.229 289.798 248.229 289.342 248.229C286.829 247.773 285.23 246.86 284.316 245.26C283.63 243.661 283.86 242.065 285.458 240.006C285.458 240.006 285.688 239.78 285.688 239.55H285.916C288.199 236.581 291.852 234.297 296.422 232.47C299.165 231.326 302.131 230.642 304.874 230.414ZM299.62 224.246C297.564 224.704 295.965 225.164 293.911 226.074C289.342 227.673 285.688 229.957 282.719 232.698C231.326 223.562 205.973 187.475 206.429 124.208C220.365 111.416 236.352 103.192 254.167 99.9934C290.712 137.224 305.554 178.566 299.62 224.246ZM368.371 176.509C367.913 177.88 367.456 179.48 367.001 181.077C357.406 209.401 341.875 225.846 320.404 230.414C342.79 196.837 342.333 156.64 319.262 110.274C327.257 114.613 334.567 120.323 341.419 127.175C355.807 141.337 364.713 157.782 368.371 176.509ZM342.103 264.678C341.875 264.904 341.647 265.132 341.419 265.36C329.541 277.238 316.066 285.46 300.989 290.03C307.843 279.292 310.125 266.503 308.301 250.972C308.983 250.742 309.67 250.286 310.356 249.829C320.861 258.278 331.598 263.305 342.103 264.678ZM318.122 242.747C318.578 242.065 319.032 241.607 319.262 240.921C341.647 237.95 358.55 224.478 370.198 200.49C369.511 220.82 362.887 238.864 351.012 254.625C340.046 255.083 329.085 251.197 318.122 242.747ZM279.521 252.34C280.204 252.57 280.663 253.026 281.575 253.484C264.446 267.873 238.636 272.212 204.374 266.046C203.918 265.818 203.688 265.588 203.462 265.36C194.553 256.451 187.931 247.086 183.132 236.581C214.883 255.541 246.859 260.792 279.521 252.34ZM294.595 255.311V255.083C295.737 255.083 297.106 254.855 298.248 254.625C299.848 270.842 295.281 283.861 284.546 293.455C280.663 293.683 276.551 293.911 272.438 294.139C253.252 293.911 235.895 289.115 220.591 279.292C253.937 281.575 278.606 273.582 294.595 255.311ZM177.653 220.593C175.596 212.826 174.681 204.832 174.681 196.153C174.681 173.082 181.763 152.757 196.152 135.167C198.436 196.382 225.388 232.016 277.006 242.293C243.203 250.742 210.084 243.661 177.653 220.593Z" fill="black"/>
</svg>
