<svg width="500" height="500" viewBox="0 0 500 500" fill="none" xmlns="http://www.w3.org/2000/svg">
<path d="M461.75 156.117C445.703 135.734 383.828 123.68 312.055 119.672C312.094 119.172 312.258 118.68 312.258 118.164C312.258 107.57 304.562 98.0547 292.32 91.3672L347.234 36.4531C351.305 38.3828 356.289 37.7578 359.664 34.3828C363.961 30.1016 363.961 23.1406 359.664 18.8438C355.367 14.5547 348.414 14.5547 344.125 18.8438C340.75 22.2266 340.133 27.1953 342.062 31.2734L285.312 88.0234C275.273 83.9531 263.109 81.5469 249.992 81.5469C236.875 81.5469 224.719 83.9531 214.672 88.0234L157.922 31.2734C159.852 27.2031 159.234 22.2266 155.859 18.8438C151.57 14.5547 144.609 14.5547 140.32 18.8438C136.031 23.1406 136.031 30.1016 140.32 34.3828C143.695 37.7578 148.672 38.3828 152.75 36.4531L207.664 91.3672C195.43 98.0469 187.727 107.563 187.727 118.164C187.727 118.969 187.961 119.719 188.039 120.516C119.766 125.25 60.8281 137.203 42.3984 156.125C6.67964 192.766 6.67183 409.781 42.3984 446.437C46.2734 450.414 51.9609 454.086 59.1328 457.445C50.4296 464.133 44.9218 473.711 44.9218 484.375H132.812C132.812 481.516 132.375 478.742 131.633 476.07C168.875 481.594 213.148 484.375 257.102 484.375C296.133 484.375 334.891 482.18 368.234 477.742C368.125 477.75 368.039 477.766 367.937 477.781C367.469 479.922 367.187 482.117 367.187 484.375H455.078C455.078 474.734 450.57 465.984 443.266 459.453C443.141 459.516 443 459.562 442.875 459.617C451.453 455.687 457.906 451.312 461.742 446.43C491.93 408.094 491.906 194.43 461.75 156.117ZM450.234 437.367C437.891 453.055 366.008 469.734 257.102 469.734C144.484 469.734 69.1406 452.875 52.9062 436.219C41.6562 424.664 30.2734 374.609 30.2734 301.273C30.2734 227.937 41.664 177.883 52.9062 166.344C69.1328 149.687 144.477 132.828 257.102 132.828C366 132.828 437.891 149.5 450.234 165.187C459.922 177.484 469.719 228.18 469.727 301.281C469.734 374.383 459.922 425.07 450.234 437.367Z" fill="white"/>
<path d="M435.062 250.008C447.2 250.008 457.039 240.169 457.039 228.031C457.039 215.894 447.2 206.055 435.062 206.055C422.925 206.055 413.086 215.894 413.086 228.031C413.086 240.169 422.925 250.008 435.062 250.008Z" fill="white"/>
<path d="M435.062 315.922C447.2 315.922 457.039 306.083 457.039 293.945C457.039 281.808 447.2 271.969 435.062 271.969C422.925 271.969 413.086 281.808 413.086 293.945C413.086 306.083 422.925 315.922 435.062 315.922Z" fill="white"/>
<path fill-rule="evenodd" clip-rule="evenodd" d="M72.3438 411.586C45.5391 383.719 45.5469 218.813 72.3438 190.945C108.797 153.031 356.563 151.969 386.844 190.945C409.461 220.07 409.469 382.453 386.844 411.586C356.555 450.562 108.805 449.516 72.3438 411.586ZM253.062 248.75C255.125 251.375 256.156 254.656 256.156 258.594C256.156 261.969 254.562 265.906 251.375 270.406C248.375 274.719 243.406 278.563 236.469 281.938C229.531 285.125 220.437 286.719 209.187 286.719H199.062L204.687 337.344H249.687L250.531 319.906C260.469 317.469 270.031 313.813 279.219 308.938C288.594 303.875 296.281 297.219 302.281 288.969C308.281 280.531 311.281 270.406 311.281 258.594C311.281 248.094 309.031 238.906 304.531 231.031C300.031 223.156 293.937 216.594 286.25 211.344C278.75 205.906 270.406 201.875 261.219 199.25C252.031 196.625 242.656 195.313 233.094 195.313C222.031 195.313 211.531 196.813 201.594 199.813C191.844 202.813 182.562 207.219 173.75 213.031C164.937 218.656 156.5 225.688 148.437 234.125L183.594 265.344C189.406 256.906 196.625 250.625 205.25 246.5C213.875 242.375 222.219 240.313 230.281 240.313C235.906 240.313 240.594 241.063 244.344 242.563C248.281 243.875 251.187 245.938 253.062 248.75ZM203.281 359.844C197.094 365.469 194 372.031 194 379.531C194 387.031 197.094 393.594 203.281 399.219C209.469 404.844 217.437 407.656 227.187 407.656C237.125 407.656 245.094 404.844 251.094 399.219C257.281 393.594 260.375 387.031 260.375 379.531C260.375 372.031 257.281 365.469 251.094 359.844C245.094 354.219 237.125 351.406 227.187 351.406C217.437 351.406 209.469 354.219 203.281 359.844Z" fill="white"/>
</svg>
