<svg width="500" height="500" viewBox="0 0 500 500" fill="none" xmlns="http://www.w3.org/2000/svg">
<path fill-rule="evenodd" clip-rule="evenodd" d="M486.489 13.4956C504.504 31.4898 504.504 60.6642 486.489 78.6584L314.948 250L486.489 421.342C504.504 439.336 504.504 468.51 486.489 486.504C468.474 504.499 439.265 504.499 421.25 486.504L249.71 315.163L78.7496 485.925C60.7346 503.92 31.5264 503.92 13.5114 485.925C-4.50367 467.931 -4.50367 438.757 13.5114 420.763L184.472 250L13.5113 79.2374C-4.50376 61.2432 -4.50376 32.0688 13.5113 14.0746C31.5263 -3.91956 60.7345 -3.91956 78.7495 14.0746L249.71 184.837L421.25 13.4956C439.266 -4.49855 468.474 -4.49855 486.489 13.4956Z" fill="#E5E7EB"/>
</svg>
