<svg width="500" height="500" viewBox="0 0 500 500" fill="none" xmlns="http://www.w3.org/2000/svg">
<path d="M235.168 444.768C239.872 447.506 242.225 448.876 245.544 449.586C248.122 450.138 251.878 450.138 254.456 449.586C257.775 448.876 260.128 447.506 264.832 444.768C306.227 420.666 420 344.957 420 240.864V126.346C420 114.514 420 108.597 417.718 104.088C415.695 100.091 412.535 96.8999 408.553 94.8337C404.062 92.5031 398.034 92.432 385.974 92.2897C322.828 91.5445 286.414 86.3407 250 50C213.586 86.3407 177.172 91.5445 114.026 92.2897C101.967 92.432 95.9373 92.5031 91.4463 94.8337C87.4649 96.8999 84.305 100.091 82.282 104.088C80 108.597 80 114.514 80 126.346V240.864C80 344.957 193.772 420.666 235.168 444.768Z" stroke="#AAAAAA" stroke-width="40" stroke-linecap="round" stroke-linejoin="round"/>
</svg>
