<svg width="64" height="64" viewBox="0 0 64 64" fill="none" xmlns="http://www.w3.org/2000/svg">
<path d="M59.104 19.983C57.05 17.374 49.13 15.831 39.943 15.318C39.948 15.254 39.969 15.191 39.969 15.125C39.969 13.769 38.984 12.551 37.417 11.695L44.446 4.66599C44.967 4.91299 45.605 4.83299 46.037 4.40099C46.587 3.85299 46.587 2.96199 46.037 2.41199C45.487 1.86299 44.597 1.86299 44.048 2.41199C43.616 2.84499 43.537 3.48099 43.784 4.00299L36.52 11.267C35.235 10.746 33.678 10.438 31.999 10.438C30.32 10.438 28.764 10.746 27.478 11.267L20.214 4.00299C20.461 3.48199 20.382 2.84499 19.95 2.41199C19.401 1.86299 18.51 1.86299 17.961 2.41199C17.412 2.96199 17.412 3.85299 17.961 4.40099C18.393 4.83299 19.03 4.91299 19.552 4.66599L26.581 11.695C25.015 12.55 24.029 13.768 24.029 15.125C24.029 15.228 24.059 15.324 24.069 15.426C15.33 16.032 7.78599 17.562 5.42699 19.984C0.854995 24.674 0.853995 52.452 5.42699 57.144C5.92299 57.653 6.65099 58.123 7.56899 58.553C6.45499 59.409 5.74999 60.635 5.74999 62H17C17 61.634 16.944 61.279 16.849 60.937C21.616 61.644 27.283 62 32.909 62C37.905 62 42.866 61.719 47.134 61.151C47.12 61.152 47.109 61.154 47.096 61.156C47.036 61.43 47 61.711 47 62H58.25C58.25 60.766 57.673 59.646 56.738 58.81C56.722 58.818 56.704 58.824 56.688 58.831C57.786 58.328 58.612 57.768 59.103 57.143C62.967 52.236 62.964 24.887 59.104 19.983ZM57.63 55.983C56.05 57.991 46.849 60.126 32.909 60.126C18.494 60.126 8.84999 57.968 6.77199 55.836C5.33199 54.357 3.87499 47.95 3.87499 38.563C3.87499 29.176 5.33299 22.769 6.77199 21.292C8.84899 19.16 18.493 17.002 32.909 17.002C46.848 17.002 56.05 19.136 57.63 21.144C58.87 22.718 60.124 29.207 60.125 38.564C60.126 47.921 58.87 54.409 57.63 55.983Z" fill="#2F529E"/>
<path d="M55.688 32.001C57.2416 32.001 58.501 30.7416 58.501 29.188C58.501 27.6344 57.2416 26.375 55.688 26.375C54.1344 26.375 52.875 27.6344 52.875 29.188C52.875 30.7416 54.1344 32.001 55.688 32.001Z" fill="#2F529E"/>
<path d="M55.688 40.438C57.2416 40.438 58.501 39.1786 58.501 37.625C58.501 36.0714 57.2416 34.812 55.688 34.812C54.1344 34.812 52.875 36.0714 52.875 37.625C52.875 39.1786 54.1344 40.438 55.688 40.438Z" fill="#2F529E"/>
<path fill-rule="evenodd" clip-rule="evenodd" d="M9.26001 52.683C5.82901 49.116 5.83001 28.008 9.26001 24.441C13.926 19.588 45.64 19.452 49.516 24.441C52.411 28.169 52.412 48.954 49.516 52.683C45.639 57.672 13.927 57.538 9.26001 52.683ZM32.392 31.84C32.656 32.176 32.788 32.596 32.788 33.1C32.788 33.532 32.584 34.036 32.176 34.612C31.792 35.164 31.156 35.656 30.268 36.088C29.38 36.496 28.216 36.7 26.776 36.7H25.48L26.2 43.18H31.96L32.068 40.948C33.34 40.636 34.564 40.168 35.74 39.544C36.94 38.896 37.924 38.044 38.692 36.988C39.46 35.908 39.844 34.612 39.844 33.1C39.844 31.756 39.556 30.58 38.98 29.572C38.404 28.564 37.624 27.724 36.64 27.052C35.68 26.356 34.612 25.84 33.436 25.504C32.26 25.168 31.06 25 29.836 25C28.42 25 27.076 25.192 25.804 25.576C24.556 25.96 23.368 26.524 22.24 27.268C21.112 27.988 20.032 28.888 19 29.968L23.5 33.964C24.244 32.884 25.168 32.08 26.272 31.552C27.376 31.024 28.444 30.76 29.476 30.76C30.196 30.76 30.796 30.856 31.276 31.048C31.78 31.216 32.152 31.48 32.392 31.84ZM26.02 46.06C25.228 46.78 24.832 47.62 24.832 48.58C24.832 49.54 25.228 50.38 26.02 51.1C26.812 51.82 27.832 52.18 29.08 52.18C30.352 52.18 31.372 51.82 32.14 51.1C32.932 50.38 33.328 49.54 33.328 48.58C33.328 47.62 32.932 46.78 32.14 46.06C31.372 45.34 30.352 44.98 29.08 44.98C27.832 44.98 26.812 45.34 26.02 46.06Z" fill="#2F529E"/>
</svg>
