<svg width="70" height="70" viewBox="0 0 70 70" fill="none" xmlns="http://www.w3.org/2000/svg">
<path d="M0 10C0 4.47715 4.47715 0 10 0H60C65.5228 0 70 4.47715 70 10V60C70 65.5228 65.5228 70 60 70H10C4.47715 70 0 65.5228 0 60V10Z" fill="white"/>
<path d="M62.1064 21.9827C60.0524 19.3737 52.1324 17.8307 42.9454 17.3177C42.9504 17.2537 42.9714 17.1908 42.9714 17.1248C42.9714 15.7688 41.9864 14.5507 40.4194 13.6947L47.4484 6.66575C47.9694 6.91275 48.6074 6.83275 49.0394 6.40075C49.5894 5.85275 49.5894 4.96175 49.0394 4.41175C48.4894 3.86275 47.5994 3.86275 47.0504 4.41175C46.6184 4.84475 46.5394 5.48075 46.7864 6.00275L39.5224 13.2668C38.2374 12.7458 36.6804 12.4377 35.0014 12.4377C33.3224 12.4377 31.7664 12.7458 30.4804 13.2668L23.2164 6.00275C23.4634 5.48175 23.3844 4.84475 22.9524 4.41175C22.4034 3.86275 21.5124 3.86275 20.9634 4.41175C20.4144 4.96175 20.4144 5.85275 20.9634 6.40075C21.3954 6.83275 22.0324 6.91275 22.5544 6.66575L29.5834 13.6947C28.0174 14.5497 27.0314 15.7678 27.0314 17.1248C27.0314 17.2278 27.0614 17.3237 27.0714 17.4257C18.3324 18.0317 10.7884 19.5617 8.42937 21.9837C3.85737 26.6737 3.85637 54.4517 8.42937 59.1437C8.92537 59.6527 9.65337 60.1227 10.5714 60.5527C9.45737 61.4087 8.75237 62.6347 8.75237 63.9997H20.0024C20.0024 63.6337 19.9464 63.2787 19.8514 62.9367C24.6184 63.6437 30.2854 63.9997 35.9114 63.9997C40.9074 63.9997 45.8684 63.7187 50.1364 63.1507C50.1224 63.1517 50.1114 63.1537 50.0984 63.1557C50.0384 63.4297 50.0024 63.7107 50.0024 63.9997H61.2524C61.2524 62.7657 60.6754 61.6457 59.7404 60.8097C59.7244 60.8177 59.7064 60.8237 59.6904 60.8307C60.7884 60.3277 61.6144 59.7677 62.1054 59.1427C65.9694 54.2357 65.9664 26.8867 62.1064 21.9827ZM60.6324 57.9827C59.0524 59.9907 49.8514 62.1257 35.9114 62.1257C21.4964 62.1257 11.8524 59.9677 9.77437 57.8357C8.33437 56.3567 6.87738 49.9497 6.87738 40.5627C6.87738 31.1757 8.33537 24.7687 9.77437 23.2917C11.8514 21.1597 21.4954 19.0018 35.9114 19.0018C49.8504 19.0018 59.0524 21.1357 60.6324 23.1437C61.8724 24.7177 63.1264 31.2067 63.1274 40.5637C63.1284 49.9207 61.8724 56.4087 60.6324 57.9827Z" fill="black"/>
<path d="M58.6904 34.0008C60.244 34.0008 61.5034 32.7413 61.5034 31.1878C61.5034 29.6342 60.244 28.3748 58.6904 28.3748C57.1368 28.3748 55.8774 29.6342 55.8774 31.1878C55.8774 32.7413 57.1368 34.0008 58.6904 34.0008Z" fill="black"/>
<path d="M58.6904 42.4378C60.244 42.4378 61.5034 41.1783 61.5034 39.6248C61.5034 38.0712 60.244 36.8118 58.6904 36.8118C57.1368 36.8118 55.8774 38.0712 55.8774 39.6248C55.8774 41.1783 57.1368 42.4378 58.6904 42.4378Z" fill="black"/>
<path fill-rule="evenodd" clip-rule="evenodd" d="M12.2624 54.6828C8.83139 51.1158 8.83239 30.0078 12.2624 26.4408C16.9284 21.5878 48.6424 21.4518 52.5184 26.4408C55.4134 30.1688 55.4144 50.9538 52.5184 54.6828C48.6414 59.6718 16.9294 59.5378 12.2624 54.6828ZM35.3944 33.8398C35.6584 34.1758 35.7904 34.5958 35.7904 35.0998C35.7904 35.5318 35.5864 36.0358 35.1784 36.6118C34.7944 37.1638 34.1584 37.6558 33.2704 38.0878C32.3824 38.4958 31.2184 38.6998 29.7784 38.6998H28.4824L29.2024 45.1798H34.9624L35.0704 42.9478C36.3424 42.6358 37.5664 42.1678 38.7424 41.5438C39.9424 40.8958 40.9264 40.0438 41.6944 38.9878C42.4624 37.9078 42.8464 36.6118 42.8464 35.0998C42.8464 33.7558 42.5584 32.5798 41.9824 31.5718C41.4064 30.5638 40.6264 29.7238 39.6424 29.0518C38.6824 28.3558 37.6144 27.8398 36.4384 27.5038C35.2624 27.1678 34.0624 26.9998 32.8384 26.9998C31.4224 26.9998 30.0784 27.1918 28.8064 27.5758C27.5584 27.9598 26.3704 28.5238 25.2424 29.2678C24.1144 29.9878 23.0344 30.8878 22.0024 31.9678L26.5024 35.9638C27.2464 34.8838 28.1704 34.0798 29.2744 33.5518C30.3784 33.0238 31.4464 32.7598 32.4784 32.7598C33.1984 32.7598 33.7984 32.8558 34.2784 33.0478C34.7824 33.2158 35.1544 33.4798 35.3944 33.8398ZM29.0224 48.0598C28.2304 48.7798 27.8344 49.6198 27.8344 50.5798C27.8344 51.5398 28.2304 52.3798 29.0224 53.0998C29.8144 53.8198 30.8344 54.1798 32.0824 54.1798C33.3544 54.1798 34.3744 53.8198 35.1424 53.0998C35.9344 52.3798 36.3304 51.5398 36.3304 50.5798C36.3304 49.6198 35.9344 48.7798 35.1424 48.0598C34.3744 47.3398 33.3544 46.9798 32.0824 46.9798C30.8344 46.9798 29.8144 47.3398 29.0224 48.0598Z" fill="black"/>
</svg>
