<svg width="100" height="100" viewBox="0 0 100 100" fill="none" xmlns="http://www.w3.org/2000/svg">
<path fill-rule="evenodd" clip-rule="evenodd" d="M5.71744 81.8135C-1.90692 73.9034 -1.9047 27.095 5.71744 19.1849C16.0862 8.42302 86.561 8.12143 95.1742 19.1849C101.607 27.452 101.61 73.5442 95.1742 81.8135C86.5588 92.8769 16.0884 92.5798 5.71744 81.8135ZM57.1213 35.5927C57.708 36.3378 58.0013 37.2692 58.0013 38.3868C58.0013 39.3448 57.548 40.4625 56.6413 41.7398C55.788 42.9639 54.3747 44.0549 52.4013 45.0129C50.428 45.9177 47.8414 46.3701 44.6414 46.3701H41.7615L43.3614 60.7399H56.1613L56.4013 55.7903C59.2279 55.0984 61.9479 54.0606 64.5612 52.6768C67.2278 51.2398 69.4145 49.3505 71.1211 47.0087C72.8278 44.6137 73.6811 41.7398 73.6811 38.3868C73.6811 35.4064 73.0411 32.7985 71.7611 30.5632C70.4811 28.3279 68.7478 26.4652 66.5612 24.9749C64.4279 23.4315 62.0546 22.2873 59.4413 21.5422C56.828 20.7971 54.1613 20.4245 51.4414 20.4245C48.2947 20.4245 45.3081 20.8503 42.4815 21.7018C39.7082 22.5534 37.0682 23.8041 34.5615 25.4539C32.0549 27.0506 29.6549 29.0464 27.3616 31.4414L37.3615 40.3028C39.0148 37.9078 41.0681 36.1249 43.5214 34.954C45.9748 33.7831 48.3481 33.1977 50.6414 33.1977C52.2413 33.1977 53.5747 33.4106 54.6413 33.8364C55.7613 34.2089 56.588 34.7943 57.1213 35.5927ZM42.9615 67.1265C41.2015 68.7232 40.3215 70.5859 40.3215 72.7148C40.3215 74.8436 41.2015 76.7064 42.9615 78.303C44.7214 79.8997 46.9881 80.698 49.7614 80.698C52.588 80.698 54.8547 79.8997 56.5613 78.303C58.3213 76.7064 59.2013 74.8436 59.2013 72.7148C59.2013 70.5859 58.3213 68.7232 56.5613 67.1265C54.8547 65.5299 52.588 64.7315 49.7614 64.7315C46.9881 64.7315 44.7214 65.5299 42.9615 67.1265Z" fill="#3CE11B"/>
</svg>
