<svg width="500" height="474" viewBox="0 0 500 474" fill="none" xmlns="http://www.w3.org/2000/svg">
<path d="M120.376 411.427C120.376 413.012 120.335 414.138 120.251 414.806C119.667 419.561 117.832 423.942 114.745 427.946C111.658 431.951 107.821 435.121 103.232 437.457C98.6437 439.71 93.8049 440.836 88.7159 440.836C88.4656 440.836 88.1319 440.878 87.7148 440.961C87.2976 440.961 86.7971 440.92 86.2131 440.836C86.2965 441.837 86.2965 442.839 86.2131 443.84C86.2131 444.841 86.2131 445.759 86.2131 446.593V471.998L84.8365 472.123C82.584 472.79 78.6629 473.124 73.0733 473.124C68.902 473.124 65.0643 472.915 61.5604 472.498C61.2267 464.405 61.0598 450.347 61.0598 430.324V415.181C61.0598 401.582 60.9347 391.696 60.6844 385.522C67.1083 383.686 73.8242 382.768 80.832 382.768C91.5941 382.768 100.729 385.063 108.238 389.651C115.83 394.157 119.876 401.373 120.376 411.302V411.427ZM95.5986 405.795C94.2638 404.627 92.8038 403.876 91.2187 403.543C89.6336 403.209 88.0068 403.042 86.3382 403.042C84.7531 402.959 83.5434 402.917 82.7092 402.917C82.7926 404.252 82.8343 406.504 82.8343 409.675V410.801C82.8343 413.304 82.876 415.39 82.9594 417.058C83.1263 418.644 83.4183 420.062 83.8354 421.313H85.5874C86.1714 421.313 87.3811 421.313 89.2165 421.313C91.1353 421.313 92.7621 421.063 94.097 420.563C95.5152 420.062 96.5998 419.228 97.3506 418.06C98.1849 416.641 98.602 415.014 98.602 413.179C98.602 410.926 97.9346 408.841 96.5998 406.922L95.5986 405.795Z" fill="white"/>
<path d="M183.472 473.124C180.802 473.708 177.924 474 174.837 474C171.166 474 167.162 473.541 162.824 472.623C162.24 471.038 161.322 467.701 160.07 462.612C158.819 457.439 157.818 454.018 157.067 452.35L154.564 452.225L152.437 452.35C152.103 453.351 151.561 455.812 150.81 459.733C150.226 462.987 149.642 465.657 149.058 467.743C148.474 469.745 147.64 471.581 146.555 473.249C145.721 473.416 144.47 473.499 142.801 473.499C142.05 473.499 140.423 473.416 137.921 473.249C130.662 472.915 126.616 472.749 125.782 472.749C125.782 472.331 125.865 471.372 126.032 469.87C126.199 468.285 126.449 466.533 126.783 464.614L129.536 448.846C131.705 435.914 133.749 424.651 135.668 415.056C137.67 405.462 140.257 395.325 143.427 384.646C144.595 384.479 146.18 384.395 148.182 384.395H148.933C154.356 384.395 159.653 384.187 164.826 383.77C165.827 387.691 166.745 391.57 167.579 395.408C168.413 399.163 169.164 402.542 169.831 405.545C172.501 417.142 174.295 424.859 175.212 428.697L183.472 473.124ZM157.317 436.331C155.482 419.645 154.606 411.302 154.689 411.302L154.564 410.05C154.564 410.05 154.481 411.051 154.314 413.054C154.064 419.311 153.688 424.275 153.188 427.946L152.061 436.331H157.317Z" fill="white"/>
<path d="M250.77 414.055C247.266 414.639 243.804 414.931 240.383 414.931C236.295 414.931 232.708 414.472 229.621 413.554C229.788 412.72 229.872 412.136 229.872 411.802C229.872 409.883 229.162 408.298 227.744 407.047C226.326 405.795 224.741 405.17 222.989 405.17C221.737 405.17 220.611 405.587 219.61 406.421C218.692 407.172 218.15 408.34 217.983 409.925C217.733 410.676 217.608 411.343 217.608 411.927L217.733 413.054C217.733 413.221 217.733 413.304 217.733 413.304C218.317 415.056 219.151 416.266 220.236 416.933C221.404 417.601 222.78 418.06 224.365 418.31C228.537 418.894 232.75 420.437 237.005 422.94C241.259 425.443 244.68 428.363 247.266 431.701C248.851 433.87 250.103 436.289 251.02 438.959C251.938 441.545 252.397 444.09 252.397 446.593C252.397 450.931 251.437 455.145 249.519 459.233C247.349 463.905 244.012 467.534 239.507 470.12C235.002 472.707 230.08 474 224.741 474C219.318 474 214.02 472.957 208.848 470.871C203.759 468.702 199.629 465.615 196.459 461.611C193.289 457.606 191.871 452.975 192.204 447.719V446.593C194.624 446.176 197.293 445.967 200.213 445.967C202.716 445.967 204.843 446.009 206.595 446.092C208.18 446.176 211.017 446.218 215.105 446.218C215.188 448.72 215.939 450.681 217.357 452.099C218.859 453.518 220.569 454.227 222.488 454.227C224.157 454.227 225.533 453.685 226.618 452.6C227.786 451.515 228.37 449.972 228.37 447.97C228.37 447.219 228.328 446.635 228.245 446.218C227.828 443.131 226.368 440.961 223.865 439.71C221.362 438.458 217.983 437.416 213.728 436.581L211.851 436.206C208.264 435.538 205.135 434.078 202.466 431.826C199.462 428.906 197.21 425.777 195.708 422.44C194.206 419.103 193.456 415.765 193.456 412.428C193.456 407.005 195.082 401.916 198.336 397.16C201.673 392.321 205.97 388.817 211.226 386.648C214.479 385.313 218.525 384.646 223.364 384.646C229.621 384.646 235.336 385.814 240.508 388.15C244.346 390.152 247.391 392.78 249.644 396.034C251.896 399.288 253.023 403.126 253.023 407.547C253.023 409.216 252.772 411.385 252.272 414.055H250.77Z" fill="white"/>
<path d="M324.021 414.055C320.517 414.639 317.055 414.931 313.635 414.931C309.547 414.931 305.959 414.472 302.872 413.554C303.039 412.72 303.123 412.136 303.123 411.802C303.123 409.883 302.414 408.298 300.995 407.047C299.577 405.795 297.992 405.17 296.24 405.17C294.989 405.17 293.862 405.587 292.861 406.421C291.944 407.172 291.401 408.34 291.234 409.925C290.984 410.676 290.859 411.343 290.859 411.927L290.984 413.054C290.984 413.221 290.984 413.304 290.984 413.304C291.568 415.056 292.402 416.266 293.487 416.933C294.655 417.601 296.031 418.06 297.617 418.31C301.788 418.894 306.001 420.437 310.256 422.94C314.511 425.443 317.931 428.363 320.517 431.701C322.102 433.87 323.354 436.289 324.272 438.959C325.189 441.545 325.648 444.09 325.648 446.593C325.648 450.931 324.689 455.145 322.77 459.233C320.601 463.905 317.264 467.534 312.759 470.12C308.254 472.707 303.331 474 297.992 474C292.569 474 287.272 472.957 282.099 470.871C277.01 468.702 272.88 465.615 269.71 461.611C266.54 457.606 265.122 452.975 265.455 447.719V446.593C267.875 446.176 270.544 445.967 273.464 445.967C275.967 445.967 278.095 446.009 279.847 446.092C281.432 446.176 284.268 446.218 288.356 446.218C288.44 448.72 289.19 450.681 290.609 452.099C292.11 453.518 293.821 454.227 295.739 454.227C297.408 454.227 298.785 453.685 299.869 452.6C301.037 451.515 301.621 449.972 301.621 447.97C301.621 447.219 301.579 446.635 301.496 446.218C301.079 443.131 299.619 440.961 297.116 439.71C294.613 438.458 291.234 437.416 286.98 436.581L285.103 436.206C281.515 435.538 278.387 434.078 275.717 431.826C272.714 428.906 270.461 425.777 268.959 422.44C267.458 419.103 266.707 415.765 266.707 412.428C266.707 407.005 268.334 401.916 271.587 397.16C274.924 392.321 279.221 388.817 284.477 386.648C287.73 385.313 291.777 384.646 296.615 384.646C302.872 384.646 308.587 385.814 313.76 388.15C317.597 390.152 320.642 392.78 322.895 396.034C325.147 399.288 326.274 403.126 326.274 407.547C326.274 409.216 326.023 411.385 325.523 414.055H324.021Z" fill="white"/>
<path d="M394.671 473.124C392.001 473.708 389.123 474 386.036 474C382.365 474 378.361 473.541 374.023 472.623C373.439 471.038 372.521 467.701 371.27 462.612C370.018 457.439 369.017 454.018 368.266 452.35L365.763 452.225L363.636 452.35C363.302 453.351 362.76 455.812 362.009 459.733C361.425 462.987 360.841 465.657 360.257 467.743C359.673 469.745 358.839 471.581 357.754 473.249C356.92 473.416 355.669 473.499 354 473.499C353.249 473.499 351.623 473.416 349.12 473.249C341.862 472.915 337.815 472.749 336.981 472.749C336.981 472.331 337.065 471.372 337.231 469.87C337.398 468.285 337.648 466.533 337.982 464.614L340.735 448.846C342.904 435.914 344.948 424.651 346.867 415.056C348.869 405.462 351.456 395.325 354.626 384.646C355.794 384.479 357.379 384.395 359.381 384.395H360.132C365.555 384.395 370.852 384.187 376.025 383.77C377.026 387.691 377.944 391.57 378.778 395.408C379.612 399.163 380.363 402.542 381.031 405.545C383.7 417.142 385.494 424.859 386.412 428.697L394.671 473.124ZM368.517 436.331C366.681 419.645 365.805 411.302 365.889 411.302L365.763 410.05C365.763 410.05 365.68 411.051 365.513 413.054C365.263 419.311 364.887 424.275 364.387 427.946L363.261 436.331H368.517Z" fill="white"/>
<path d="M458.317 449.471C461.654 454.561 464.323 458.857 466.326 462.361C468.411 465.866 470.122 469.411 471.456 472.999H469.454C468.453 472.999 466.2 473.082 462.697 473.249C459.193 473.416 456.398 473.499 454.312 473.499C453.144 473.499 451.392 473.416 449.056 473.249L446.929 473.124C441.506 460.776 436.667 451.515 432.413 445.342V448.595C432.413 453.768 432.704 460.443 433.288 468.619V468.494C433.372 469.078 433.414 470.079 433.414 471.497C430.577 472.832 425.905 473.499 419.398 473.499L416.395 473.374H409.762C408.844 473.374 408.386 465.824 408.386 450.723C408.386 437.04 408.26 423.358 408.01 409.675C407.76 395.909 407.384 387.649 406.884 384.896L410.263 384.395C415.268 383.728 419.398 383.227 422.652 382.894C425.905 382.56 429.242 382.393 432.663 382.393C436.334 382.393 439.462 382.56 442.048 382.894C446.887 383.478 451.392 385.146 455.564 387.899C459.818 390.653 463.197 394.032 465.7 398.036C468.286 402.041 469.579 406.171 469.579 410.426C469.579 414.514 468.244 418.977 465.575 423.816C463.906 426.82 461.695 429.323 458.942 431.325C456.189 433.327 452.894 434.537 449.056 434.954C451.309 438.959 453.937 443.131 456.94 447.469C457.524 448.47 457.983 449.138 458.317 449.471ZM440.296 417.559C441.464 417.225 442.382 416.391 443.049 415.056C443.717 413.721 444.051 412.136 444.051 410.301C444.051 406.88 443.216 404.669 441.548 403.668C440.463 403 439.337 402.583 438.169 402.416C437.084 402.25 435.833 402.166 434.415 402.166L429.034 403.042C429.201 405.545 429.284 407.673 429.284 409.425C429.284 413.93 429.409 416.683 429.659 417.684C431.078 417.851 432.83 417.935 434.915 417.935C436.834 417.935 438.628 417.809 440.296 417.559Z" fill="white"/>
<path d="M53.0705 51.1106C54.2345 53.4337 55.2967 55.8408 56.2571 58.3318L56.9508 60.4786L57.7611 62.5804C58.5959 65.2093 59.9738 69.0148 61.8947 73.9969C64.0257 79.5238 65.5297 83.7724 66.4067 86.7427L67.5421 90.7311C69.584 97.1866 70.0593 103.173 68.9678 108.691C68.4305 110.776 67.2343 112.891 65.3793 115.037C63.5243 117.183 61.3458 119.186 58.8436 121.045C56.2937 123.012 53.0727 124.745 49.1806 126.246C47.3903 126.937 46.1298 127.378 45.3992 127.57C41.465 128.73 37.7248 129.233 34.1788 129.08C30.6806 128.82 27.7206 127.636 25.299 125.53C22.0802 122.747 19.3725 118.739 17.1758 113.506L15.5016 109.859C15.1837 109.266 14.6495 107.997 13.8991 106.051C11.0488 99.8176 8.49806 93.7819 6.247 87.9435C4.86635 84.3627 3.60246 80.7368 2.45533 77.0659C1.18814 73.0836 0.394103 69.0531 0.0732086 64.9741C-0.199857 60.7874 0.29097 56.8426 1.54569 53.1397L3.57419 50.748C7.62557 46.4138 12.6092 43.1061 18.5251 40.8249C22.2615 39.3842 25.9594 38.5395 29.6189 38.2908C33.3263 37.9343 36.7856 38.2099 39.9968 39.1177C43.6817 40.5582 46.4175 42.3199 48.2042 44.4029C50.0987 46.5337 51.7208 48.7696 53.0705 51.1106ZM39.8798 70.8168L37.0716 64.925C36.0756 62.8054 34.7953 61.1083 33.2309 59.8337C31.7144 58.4513 30.1205 57.68 28.4492 57.5197C27.7364 57.5262 27.0687 57.6496 26.4459 57.8897C24.5778 58.6101 22.9886 59.9382 21.6785 61.8741C21.0445 63.0127 20.5457 64.5016 20.1818 66.3409C19.8658 68.0723 19.7595 69.7675 19.8627 71.4266C20.4049 75.152 21.6965 79.6613 23.7374 84.9547C24.7579 87.6015 25.5622 89.5715 26.1503 90.8648L26.1053 90.7481C27.0169 92.1849 28.0458 94.1577 29.192 96.6666L29.939 98.2563C31.7511 102.028 33.2897 104.744 34.555 106.402L34.51 106.285C35.8108 107.572 37.288 108.388 38.9414 108.734C40.6427 108.972 42.2717 108.791 43.8286 108.191C45.074 107.711 46.2144 106.958 47.2498 105.933C48.333 104.8 49.1315 103.508 49.6454 102.058C50.0336 100.746 50.1705 99.7098 50.0561 98.9491C50.0195 98.1585 49.716 97.0236 49.1458 95.5446C48.6355 94.2212 48.2993 93.2332 48.137 92.5804L47.6685 91.0174L46.9298 88.7538L46.2995 87.1191L45.5609 84.8555L43.3999 79.2507L40.1049 71.4006L39.8798 70.8168Z" fill="white"/>
<path d="M117.868 91.2084C110.09 81.2241 104.878 74.2742 102.231 70.3586L107.792 93.7342C108.989 98.7665 109.851 102.206 110.376 104.054C108.339 105.225 106.022 106.119 103.425 106.737C102.613 106.93 101.376 107.138 99.7146 107.362C97.8904 107.625 96.5725 107.852 95.7609 108.046L89.7376 109.221L87.5654 100.09C86.3296 94.8956 84.4914 87.5288 82.0506 77.9899C80.8302 73.2205 79.0615 65.9658 76.7445 56.226C73.6358 43.1583 71.3943 32.1141 70.0202 23.0933C72.0764 22.0037 74.4436 21.1404 77.122 20.5032C78.9075 20.0783 81.0969 19.729 83.6902 19.455C86.3646 19.1618 88.266 19.224 89.3944 19.6416C91.0327 21.4816 93.1173 24.1158 95.648 27.5444C98.2406 30.8725 100.752 34.22 103.182 37.5867L110.717 47.629C109.203 41.986 107.529 35.3091 105.694 27.5984C104.207 21.3487 103.225 17.0373 102.746 14.6641C105.919 13.2231 109.372 12.0585 113.106 11.1703C116.271 10.4172 119.645 10.0004 123.228 9.91989L143.762 96.2394C143.519 96.2973 143.061 96.5349 142.388 96.9522C141.654 97.47 140.272 97.9702 138.243 98.4529C137.857 98.6307 135.677 99.0206 131.704 99.6228C130.711 99.7734 129.433 99.9915 127.872 100.277C126.392 100.544 125.54 100.746 125.315 100.885L117.868 91.2084Z" fill="white"/>
<path d="M197.667 11.2047C202.185 16.9565 205.378 22.883 207.248 28.9842L207.235 28.8597C208.107 30.8684 208.793 33.5248 209.292 36.8287C209.376 39.3358 209.48 41.2119 209.605 42.4572L209.68 44.462C209.738 45.0431 209.851 47.0023 210.018 50.3395C210.185 53.6767 210.099 56.9974 209.759 60.3016C208.648 65.1085 206.906 69.895 204.533 74.6608C202.235 79.3353 199.414 84.2299 196.07 89.3447C189.114 90.21 183.395 90.8675 178.912 91.317L169.959 92.3406L160.26 93.4392C157.675 82.7142 155.554 69.0917 153.898 52.5719C153.173 45.3496 152.674 39.9495 152.399 36.3716C152.157 33.1257 151.641 27.5595 150.85 19.6732C150.65 17.6808 150.268 14.7006 149.702 10.7326L149.203 7.00944L150.062 6.7975C154.345 5.19407 159.392 4.10098 165.203 3.51822L168.453 3.31807L171.814 2.9809C172.902 2.95569 174.566 2.83069 176.808 2.60592C179.049 2.38114 180.705 2.17313 181.776 1.98189C184.93 2.50401 188.027 3.70273 191.066 5.57805C194.096 7.37036 196.579 9.553 198.514 12.126L197.667 11.2047ZM189.795 46.8336C189.645 45.3393 189.333 43.9032 188.86 42.5253C187.846 39.1053 186.775 36.3619 185.645 34.2951C184.507 32.1453 182.95 30.834 180.974 30.3614L181.223 30.3364C179.214 30.3702 177.712 30.437 176.716 30.5369C175.056 30.7034 173.985 30.8947 173.503 31.1106C173.969 34.0825 174.335 36.8967 174.602 39.5531L174.926 42.7907L175.139 46.1653C175.247 48.0829 175.493 50.9511 175.876 54.7698C176.242 58.4224 176.48 61.2075 176.588 63.1252C177.883 63.4984 178.78 63.66 179.278 63.6101L180.897 63.4477C182.225 63.3145 183.167 63.0943 183.723 62.787C185.018 62.3217 186.362 60.6776 187.756 57.8546C189.515 54.492 190.195 50.8183 189.795 46.8336Z" fill="white"/>
<path d="M283.519 77.4717C283.394 81.7248 282.823 85.5058 281.808 88.8145C278.139 88.7064 272.716 88.6301 265.539 88.5856L249.149 88.2279C241.727 88.0093 234.313 87.5404 226.906 86.8214C227.068 84.1552 227.249 73.7689 227.448 55.6624C227.5 45.3975 227.607 37.5131 227.77 32.009C228.106 20.584 228.711 9.95975 229.585 0.136383L240.604 0.0854154C252.96 -0.0513301 262.391 -0.0238839 268.895 0.167754C274.482 0.332366 279.897 0.700551 285.138 1.27231C285.42 3.03342 285.526 5.0815 285.458 7.41655C285.421 8.66747 285.277 10.7082 285.027 13.5387C284.782 16.2024 284.637 18.2848 284.593 19.7859C279.557 20.7226 273.954 21.1001 267.783 20.9183L251.518 20.5643C250.986 24.4715 250.681 27.7178 250.605 30.303C250.546 32.3045 250.745 34.0631 251.201 35.579L259.486 34.8215C260.654 34.8559 262.402 34.9909 264.732 35.2264L266.355 35.3994C266.698 37.9136 266.827 40.63 266.741 43.5488L266.196 53.5488C263.505 54.2208 259.908 54.4904 255.405 54.3577L252.157 54.1368C251.573 54.1196 251.195 54.1919 251.023 54.3538L250.332 60.8439C250.231 64.263 250.314 67.1034 250.581 69.3649C254.918 69.4926 259.125 69.7418 263.204 70.1123C264.619 70.2375 266.368 70.3725 268.45 70.5173C270.532 70.6621 272.991 70.7763 275.827 70.8598L283.464 70.8345C283.518 74.6755 283.536 76.8879 283.519 77.4717Z" fill="white"/>
<path d="M394.725 20.4548C389.355 33.3917 383.737 45.8925 377.87 57.9571C372.003 70.0217 364.803 84.3634 356.271 100.982C354.475 100.604 353.242 100.386 352.571 100.331L351.321 100.195C349.817 100.049 348.29 99.8119 346.739 99.485C341.596 98.4012 337.699 97.0685 335.048 95.4867C333.227 68.9272 334.275 40.2864 338.19 9.56425C339.097 8.9027 340.737 8.60867 343.108 8.68217C345.48 8.75567 348.054 9.08488 350.829 9.66978C353.442 10.2203 356.32 11.1253 359.465 12.3849L357.903 23.4384C356.69 31.6238 355.741 38.7565 355.057 44.8365C354.39 50.8348 353.976 56.8439 353.816 62.8639C355.742 58.5802 358.972 50.7347 363.508 39.3273C369.001 25.3935 372.449 17.1247 373.85 14.5211C376.896 15.8451 380.46 16.9372 384.542 17.7974C388.624 18.6575 391.487 19.4315 393.133 20.1193L394.725 20.4548Z" fill="white"/>
<path d="M432.018 123.657C429.302 123.358 426.481 122.716 423.556 121.73C420.077 120.558 416.428 118.845 412.61 116.59C412.563 114.902 412.758 111.446 413.197 106.224C413.663 100.922 413.806 97.3607 413.627 95.5396L411.295 94.622L409.239 94.0614C408.603 94.9036 407.304 97.0629 405.34 100.539C403.748 103.436 402.342 105.78 401.123 107.57C399.93 109.281 398.554 110.754 396.993 111.989C396.15 111.881 394.937 111.561 393.356 111.028C392.644 110.788 391.129 110.19 388.811 109.233C382.039 106.599 378.258 105.149 377.467 104.883C377.6 104.488 377.985 103.605 378.623 102.235C379.287 100.786 380.084 99.2057 381.012 97.4937L388.655 83.4294C394.839 71.8668 400.372 61.8456 405.253 53.3657C410.213 44.9125 415.9 36.1318 422.314 27.0236C423.474 27.2383 425.003 27.6653 426.9 28.3046L427.612 28.5443C432.751 30.2756 437.838 31.7692 442.873 33.0253C442.57 37.0609 442.201 41.0304 441.766 44.9338C441.358 48.7581 440.991 52.1999 440.665 55.2593C439.493 67.1017 438.729 74.9878 438.373 78.9178L432.018 123.657ZM418.978 80.4391C422.565 64.0401 424.398 55.8539 424.478 55.8806L424.758 54.6546C424.758 54.6546 424.36 55.5768 423.562 57.4211C421.328 63.271 419.387 67.8556 417.741 71.1746L413.997 78.7611L418.978 80.4391Z" fill="white"/>
<path d="M499.538 57.8868C495.529 66.7871 491.372 75.7121 487.067 84.6617C481.349 96.5439 476.932 105.946 473.814 112.869C470.217 120.856 466.864 128.908 463.758 137.025C462.103 137.652 458.879 136.887 454.087 134.728C451.349 133.495 449.35 132.549 448.091 131.89L446.773 131.159L444.771 130.12C443.249 129.435 441.173 128.865 438.54 128.412C441.978 121.999 445.375 115.066 448.732 107.611C450.069 104.644 451.963 100.235 454.414 94.3855L457.281 87.716C460.608 79.5154 463.403 72.9048 465.664 67.8841C469.056 60.3531 472.738 53.0904 476.712 46.0959C477.769 46.3892 478.869 46.7928 480.01 47.3068C480.618 47.5809 481.421 48.0338 482.417 48.6656C483.448 49.2214 484.703 49.7867 486.182 50.3616C490.035 52.3715 493.158 53.8695 495.55 54.8555L500 56.8599L499.538 57.8868Z" fill="white"/>
<path d="M384.635 212.033C392.736 212.033 399.303 205.465 399.303 197.364C399.303 189.263 392.736 182.696 384.635 182.696C376.535 182.696 369.968 189.263 369.968 197.364C369.968 205.465 376.535 212.033 384.635 212.033Z" fill="white"/>
<path d="M384.635 256.027C392.736 256.027 399.303 249.459 399.303 241.358C399.303 233.257 392.736 226.69 384.635 226.69C376.535 226.69 369.968 233.257 369.968 241.358C369.968 249.459 376.535 256.027 384.635 256.027Z" fill="white"/>
<path fill-rule="evenodd" clip-rule="evenodd" d="M142.551 319.877C124.661 301.277 124.666 191.211 142.551 172.612C166.881 147.306 332.243 146.597 352.454 172.612C367.549 192.051 367.554 300.433 352.454 319.877C332.238 345.892 166.886 345.193 142.551 319.877ZM263.166 211.193C264.542 212.945 265.231 215.135 265.231 217.763C265.231 220.016 264.167 222.644 262.039 225.647C260.037 228.526 256.721 231.091 252.091 233.344C247.461 235.471 241.391 236.535 233.883 236.535H227.125L230.879 270.325H260.913L261.476 258.686C268.109 257.059 274.491 254.619 280.623 251.365C286.88 247.986 292.011 243.543 296.015 238.037C300.02 232.405 302.022 225.647 302.022 217.763C302.022 210.755 300.52 204.623 297.517 199.367C294.513 194.111 290.446 189.73 285.316 186.226C280.31 182.597 274.741 179.906 268.609 178.154C262.477 176.402 256.22 175.526 249.838 175.526C242.455 175.526 235.447 176.528 228.815 178.53C222.307 180.532 216.113 183.473 210.231 187.353C204.35 191.107 198.718 195.8 193.337 201.432L216.801 222.268C220.68 216.637 225.498 212.444 231.255 209.691C237.011 206.938 242.58 205.561 247.961 205.561C251.715 205.561 254.844 206.062 257.347 207.063C259.975 207.939 261.914 209.316 263.166 211.193ZM229.941 285.342C225.811 289.097 223.746 293.477 223.746 298.482C223.746 303.488 225.811 307.868 229.941 311.623C234.071 315.377 239.389 317.254 245.896 317.254C252.529 317.254 257.847 315.377 261.852 311.623C265.981 307.868 268.046 303.488 268.046 298.482C268.046 293.477 265.981 289.097 261.852 285.342C257.847 281.588 252.529 279.711 245.896 279.711C239.389 279.711 234.071 281.588 229.941 285.342Z" fill="white"/>
<path d="M402.447 149.366C391.737 135.761 350.441 127.715 302.538 125.04C302.564 124.707 302.674 124.378 302.674 124.034C302.674 116.963 297.538 110.612 289.367 106.148L326.018 69.4962C328.734 70.7842 332.061 70.367 334.313 68.1144C337.181 65.2569 337.181 60.6109 334.313 57.7429C331.446 54.8802 326.805 54.8802 323.942 57.7429C321.69 60.0008 321.278 63.3171 322.566 66.0391L284.69 103.917C277.99 101.2 269.871 99.5939 261.117 99.5939C252.362 99.5939 244.249 101.2 237.543 103.917L199.667 66.0391C200.955 63.3224 200.543 60.0008 198.291 57.7429C195.428 54.8802 190.782 54.8802 187.92 57.7429C185.057 60.6109 185.057 65.2569 187.92 68.1144C190.172 70.367 193.494 70.7842 196.215 69.4962L232.866 106.148C224.701 110.607 219.559 116.958 219.559 124.034C219.559 124.571 219.716 125.072 219.768 125.603C174.201 128.763 134.865 136.741 122.565 149.371C98.7258 173.826 98.7206 318.673 122.565 343.139C125.151 345.793 128.947 348.244 133.734 350.486C127.925 354.949 124.249 361.342 124.249 368.46H182.909C182.909 366.552 182.617 364.7 182.122 362.917C206.978 366.604 236.526 368.46 265.861 368.46C291.912 368.46 317.779 366.995 340.033 364.033C339.96 364.038 339.903 364.049 339.835 364.059C339.522 365.488 339.335 366.953 339.335 368.46H397.994C397.994 362.025 394.986 356.185 390.11 351.826C390.027 351.868 389.933 351.899 389.85 351.936C395.575 349.313 399.882 346.393 402.442 343.134C422.59 317.546 422.574 174.937 402.447 149.366ZM394.761 337.085C386.523 347.555 338.547 358.688 265.861 358.688C190.699 358.688 140.413 347.435 129.578 336.318C122.07 328.606 114.473 295.197 114.473 246.25C114.473 197.302 122.075 163.893 129.578 156.191C140.408 145.074 190.694 133.821 265.861 133.821C338.542 133.821 386.523 144.949 394.761 155.42C401.227 163.627 407.766 197.463 407.771 246.255C407.776 295.046 401.227 328.877 394.761 337.085Z" fill="white"/>
</svg>
