<svg version="1.1" id="Layer_1" xmlns="http://www.w3.org/2000/svg" xmlns:xlink="http://www.w3.org/1999/xlink" x="0px" y="0px"
	 width="100%" viewBox="0 0 1080 1080" enable-background="new 0 0 1080 1080" xml:space="preserve">
<path fill="#000000" opacity="1.000000" stroke="none" 
	d="
M498.000000,1081.000000 
	C332.019104,1081.000000 166.538193,1081.000000 1.028647,1081.000000 
	C1.028647,721.060669 1.028647,361.121277 1.028647,1.090960 
	C360.897797,1.090960 720.795654,1.090960 1080.846680,1.090960 
	C1080.846680,360.999939 1080.846680,720.999939 1080.846680,1081.000000 
	C886.787537,1081.000000 692.643738,1081.000000 498.000000,1081.000000 
M807.950928,366.973785 
	C807.950928,366.973785 808.013184,367.017914 807.686829,366.327942 
	C795.603821,369.870361 783.333862,372.889801 771.496460,377.119598 
	C761.908386,380.545654 753.402344,386.195282 742.736328,387.625641 
	C728.946289,389.474915 715.438354,393.501282 701.871155,396.842865 
	C700.197632,397.255066 698.489014,398.955963 697.513123,400.509674 
	C694.108093,405.930573 691.456543,411.868622 687.706604,417.018829 
	C681.843018,425.072021 675.159302,432.522583 669.113037,440.449677 
	C662.092529,449.654327 655.732300,459.379608 648.445557,468.359589 
	C640.894653,477.665039 632.192383,486.040405 624.705017,495.392059 
	C617.422241,504.488098 607.543335,511.232666 601.600403,521.498169 
	C600.815613,522.853760 599.100525,523.650757 597.886414,524.781677 
	C593.929749,528.467590 589.585510,531.839905 586.158264,535.970032 
	C579.491211,544.004333 573.241455,552.394348 567.028809,560.792297 
	C564.059692,564.805847 560.194824,566.067688 554.958557,566.073486 
	C557.552673,561.465942 559.802307,557.211609 562.290649,553.101746 
	C568.496887,542.851135 576.066895,533.214294 580.816345,522.338440 
	C590.130737,501.009216 598.018494,479.049805 606.233521,457.251984 
	C608.707764,450.686737 607.212524,444.209381 602.610291,439.019379 
	C588.877197,423.532166 572.641113,414.163483 550.947266,419.130096 
	C548.842346,419.612030 546.612976,419.604980 544.551575,420.203979 
	C543.057861,420.638092 541.664673,421.583984 540.369141,422.502686 
	C536.469482,425.268158 532.997559,428.987732 528.708984,430.782074 
	C519.341919,434.701355 510.754822,439.637817 503.634613,446.823334 
	C495.075928,455.460480 486.653595,464.248962 478.540253,473.301727 
	C476.007111,476.128204 474.710571,480.049194 472.757751,483.416840 
	C472.052765,484.632599 471.199799,485.811310 470.209381,486.802002 
	C468.471802,488.540192 466.289154,489.894897 464.791351,491.801727 
	C450.901306,509.484497 437.149567,527.275940 423.241669,544.944519 
	C422.155182,546.324829 420.318390,547.534546 418.618103,547.945312 
	C404.910614,551.256653 390.975464,553.748474 377.453522,557.674377 
	C360.057159,562.725037 343.001862,568.942749 325.751343,574.507996 
	C320.656555,576.151672 319.113007,578.125977 320.500397,583.299500 
	C322.800934,591.878052 328.650635,596.760254 337.208405,598.584473 
	C339.416290,599.055115 341.633636,599.481018 344.841461,600.128113 
	C338.034973,606.421265 331.518219,611.648560 325.962250,617.750671 
	C314.617340,630.210815 300.091492,637.957520 285.817169,646.135559 
	C281.570282,648.568604 278.223022,646.489380 279.183472,641.658813 
	C281.153076,631.752380 282.686493,621.532715 286.409790,612.248169 
	C294.439026,592.226135 306.617767,574.453491 322.811188,560.271729 
	C349.993103,536.466431 378.047577,513.656311 405.811951,490.519836 
	C408.209442,488.522003 411.048431,486.891449 413.934570,485.702637 
	C415.711395,484.970673 418.728424,484.563934 419.801483,485.538544 
	C420.953308,486.584656 421.174377,489.651642 420.580566,491.428802 
	C419.061584,495.974976 416.962036,500.340790 414.905548,504.689270 
	C413.401398,507.869751 411.556824,510.390533 407.459595,511.216675 
	C403.077484,512.100281 401.252655,517.813110 403.552277,521.295532 
	C409.579437,530.422729 424.923187,531.698181 431.808624,523.280579 
	C438.868561,514.649780 445.578339,505.716644 452.093506,496.665497 
	C454.175690,493.772797 455.636780,490.207550 456.534973,486.731171 
	C459.057404,476.968109 455.876343,467.201324 448.380005,463.525421 
	C438.396240,458.629822 428.091492,454.347656 417.760834,450.211029 
	C404.483032,444.894287 392.281708,447.890076 380.973053,455.931366 
	C377.651794,458.293091 373.648895,460.006287 373.732208,465.220337 
	C373.749939,466.330200 372.190704,467.776367 371.016418,468.547333 
	C354.662872,479.283936 339.632324,491.520020 326.660095,506.265747 
	C319.747345,514.123596 311.957794,521.226440 305.250458,529.244385 
	C296.813416,539.329956 289.035980,549.970581 281.050690,560.430237 
	C269.060394,576.136108 259.096008,592.937073 252.552292,611.721619 
	C247.926376,625.000977 248.022400,637.366516 254.957855,650.171814 
	C265.336578,669.334656 284.652222,677.587280 305.040649,669.860596 
	C310.447510,667.811523 315.442963,664.674622 320.619202,662.021301 
	C321.648590,661.493713 322.640747,660.893433 322.596252,660.918396 
	C324.442474,672.880798 316.165253,681.356140 311.506348,691.297424 
	C310.404785,693.648071 309.952240,696.689941 308.181946,698.276855 
	C297.273682,708.054749 300.393372,724.435791 306.718445,732.449768 
	C310.204773,736.867004 315.241821,740.177673 319.923126,743.504028 
	C325.393494,747.390930 326.989227,746.990906 329.273773,740.623779 
	C332.246857,732.337769 334.637787,723.832336 337.035675,715.352539 
	C342.116425,697.385254 347.300964,679.459534 357.467590,663.523010 
	C373.182465,638.889526 391.285034,616.074951 410.335571,593.957458 
	C413.950409,589.760681 416.665466,584.659485 419.149628,579.654907 
	C421.611420,574.695496 425.170837,572.716492 430.831757,574.379089 
	C435.036041,575.613892 437.196014,580.306030 435.840210,585.289368 
	C433.742615,592.999207 431.648804,600.710144 429.528412,608.413696 
	C427.626038,615.325134 429.143585,621.280396 434.514221,626.107544 
	C438.600281,629.780212 442.644592,633.516174 446.929169,636.947083 
	C453.842651,642.483154 461.798065,644.920471 470.692291,644.280334 
	C482.113251,643.458313 492.333710,639.222412 500.369873,631.385193 
	C512.277649,619.772217 523.354675,607.307434 534.786133,595.205994 
	C535.634155,594.308289 536.488403,593.416382 537.339722,592.521790 
	C537.746338,592.724121 538.152954,592.926514 538.559570,593.128845 
	C537.606873,596.010254 537.282227,599.347046 535.584717,601.688416 
	C530.332458,608.932800 524.570190,615.808350 518.981018,622.807190 
	C514.942322,627.864563 515.061035,629.452087 520.053223,633.395996 
	C522.010803,634.942566 524.007568,636.465027 526.119263,637.786194 
	C534.589905,643.085388 540.940918,641.552612 546.412231,633.111633 
	C551.029358,625.988281 555.474121,618.725464 560.551941,611.941040 
	C562.848511,608.872620 566.149231,606.101318 569.593384,604.428223 
	C581.568115,598.611267 593.796448,593.314758 605.948120,587.864502 
	C609.226379,586.394104 612.574768,585.080139 616.502930,583.438660 
	C616.502930,587.239929 617.763428,591.281982 616.278381,593.218750 
	C610.717529,600.471008 610.111206,609.272156 607.253845,617.350586 
	C605.942200,621.058838 603.943909,624.524231 601.566772,629.562805 
	C603.482971,639.209351 612.083496,643.975525 622.504150,646.562683 
	C628.067871,647.944031 631.441650,646.087463 633.524292,640.714111 
	C634.242188,638.861755 634.688416,636.896973 635.171448,634.961853 
	C640.643982,613.041138 649.491028,592.401306 659.175842,572.095459 
	C659.830139,570.723694 661.588684,569.473999 663.099182,568.981018 
	C672.892151,565.785034 682.783997,562.891846 692.572449,559.682678 
	C693.951294,559.230591 695.691650,557.769592 695.989746,556.480774 
	C697.702942,549.073792 699.158569,541.598633 700.385986,534.094971 
	C700.636658,532.562866 699.540649,530.810486 699.015503,528.986206 
	C690.898132,531.943237 683.400696,534.674500 674.958191,537.750000 
	C675.757751,535.813538 675.956726,535.171753 676.271362,534.592773 
	C694.865601,500.371613 713.462524,466.151855 732.103638,431.956177 
	C732.704163,430.854614 733.596008,429.443481 734.640686,429.125671 
	C743.978088,426.285156 753.380432,423.658081 764.334717,420.517792 
	C761.446228,428.242615 759.280090,435.150970 756.317993,441.699280 
	C751.724243,451.854553 745.413025,461.379028 741.970825,471.873169 
	C737.385681,485.851868 730.786011,498.380676 722.167053,510.132172 
	C720.764648,512.044189 720.285706,515.831055 721.205994,517.963135 
	C722.523010,521.014343 721.840637,522.853455 720.765930,525.667786 
	C719.131836,529.946716 715.935669,531.003601 713.163818,531.562134 
	C712.688293,536.826538 713.326843,541.958862 711.629395,546.143799 
	C707.399780,556.571472 702.524780,566.800293 697.054810,576.633911 
	C694.546570,581.143066 691.084534,584.830017 692.179993,590.559082 
	C692.460571,592.026489 691.711548,593.878235 690.976807,595.319580 
	C687.955994,601.245361 685.238831,607.406738 681.527893,612.883728 
	C673.213074,625.155457 668.695862,638.793762 666.044189,653.128479 
	C663.311462,667.901062 671.767700,684.062500 685.819580,689.575500 
	C689.114868,690.868286 694.078247,688.810791 697.907654,687.340149 
	C699.206421,686.841370 700.372437,683.141235 699.901794,681.349915 
	C696.628174,668.888733 699.742981,657.337708 703.825806,645.703674 
	C719.277283,601.673889 737.981750,558.990234 757.554016,516.698975 
	C773.905945,481.366028 791.165100,446.453125 807.992554,411.339813 
	C811.453064,404.118805 816.703186,399.649750 824.839172,397.982025 
	C833.953491,396.113708 842.935791,393.478027 851.840820,390.738312 
	C870.775452,384.912933 889.465454,378.249115 909.622681,377.606903 
	C912.283447,377.522156 915.710083,375.256134 917.312134,372.970184 
	C922.573547,365.462860 925.351685,356.740936 925.418945,347.632507 
	C925.486755,338.458862 922.008972,332.879852 911.953003,337.844604 
	C910.912720,338.358246 909.742126,338.605713 908.694946,339.108032 
	C902.542114,342.059784 896.400330,343.112946 889.424927,341.624542 
	C885.743347,340.838989 881.234070,342.265381 877.520752,343.749512 
	C873.563416,345.331268 870.113281,348.174408 866.421692,350.434143 
	C865.445801,351.031525 864.040955,352.226837 863.436646,351.927887 
	C858.387207,349.429840 854.030823,352.743835 849.424622,353.439758 
	C842.492065,354.487213 835.678650,356.108093 830.306396,361.258362 
	C829.526489,362.005981 827.887390,361.889832 826.634155,362.104919 
	C823.145630,362.703613 819.597778,363.053528 816.175171,363.909088 
	C813.335999,364.618835 810.641418,365.907349 807.950928,366.973785 
M401.076691,428.409668 
	C404.282074,431.672485 407.543365,434.786957 412.867371,432.713257 
	C412.867371,426.389587 412.867371,419.982239 412.867371,413.508728 
	C410.662598,413.508728 408.740723,413.508728 406.159760,413.508728 
	C406.159760,417.405640 406.159760,421.053223 406.159760,424.784454 
	C398.763672,421.128510 395.638062,410.950073 385.227509,413.611328 
	C385.227509,420.071411 385.227509,426.349365 385.227509,432.923767 
	C387.319946,432.923767 389.405334,432.923767 392.049438,432.923767 
	C392.049438,428.829102 392.049438,424.990509 392.049438,420.420837 
	C395.344604,423.337250 397.944244,425.638031 401.076691,428.409668 
M305.558685,428.649567 
	C304.251251,428.415680 302.539246,428.615601 301.723358,427.854675 
	C300.179932,426.415283 298.261536,424.458069 298.192230,422.651123 
	C298.137482,421.224518 300.497589,418.611694 302.000977,418.442444 
	C305.318848,418.068878 308.808197,418.707520 312.160431,419.308014 
	C314.964264,419.810303 317.672760,420.845001 320.423492,421.643921 
	C320.751129,421.016571 321.078766,420.389252 321.406403,419.761902 
	C319.774902,418.099426 318.437988,415.765991 316.458191,414.896881 
	C309.801819,411.974609 302.831299,412.022522 296.052612,414.593781 
	C292.477539,415.949860 290.762482,418.912415 290.658020,422.825470 
	C290.547913,426.950470 292.278107,430.163483 295.940826,431.682068 
	C302.666931,434.470825 309.682922,434.404022 316.342834,431.543396 
	C318.423157,430.649811 319.788757,428.092316 321.481537,426.296539 
	C321.184692,425.786835 320.887817,425.277130 320.590973,424.767456 
	C318.133575,425.196899 315.628326,425.451111 313.232513,426.105865 
	C310.913055,426.739716 308.706268,427.785675 305.558685,428.649567 
M456.741547,433.174103 
	C458.078369,433.071991 459.415161,432.969910 461.098572,432.841339 
	C457.840149,426.780670 454.987701,421.333099 451.996460,415.962830 
	C450.100159,412.558411 441.557953,411.999451 439.655396,415.272827 
	C436.367310,420.930054 433.415283,426.782623 430.322266,432.553253 
	C430.591095,432.980774 430.859924,433.408295 431.128723,433.835815 
	C433.338745,432.955353 435.548615,432.074463 437.758820,431.194550 
	C439.034119,430.686829 440.303162,429.768127 441.586914,429.746643 
	C446.642090,429.662018 452.045380,428.447937 456.741547,433.174103 
M341.784821,424.154510 
	C340.276031,426.979858 338.767273,429.805176 336.836609,433.420532 
	C339.847839,433.108704 342.992554,433.560364 343.512207,432.596588 
	C345.948822,428.077698 349.885468,429.895142 353.235046,429.767548 
	C355.557190,429.679047 358.908142,429.654907 360.050659,431.042236 
	C362.584808,434.119202 364.992828,433.135345 367.992767,432.693329 
	C365.032074,427.194397 362.177032,422.121490 359.558990,416.929016 
	C358.310577,414.453003 356.845184,413.388733 353.854919,413.260742 
	C349.347687,413.067902 346.214081,414.077972 344.696320,418.661835 
	C344.131317,420.368347 342.982056,421.881348 341.784821,424.154510 
M478.029358,430.084290 
	C478.873322,431.125122 479.681458,433.031372 480.566925,433.068024 
	C486.864868,433.328522 493.178619,433.206818 499.721619,433.206818 
	C499.721619,431.483246 499.721619,430.055359 499.721619,428.125488 
	C494.850464,428.125488 490.103210,428.125488 484.798279,428.125488 
	C484.798279,422.934021 484.798279,418.222076 484.798279,413.527161 
	C482.293884,413.527161 480.377075,413.527161 478.029755,413.527161 
	C478.029755,418.927612 478.029755,424.046021 478.029358,430.084290 
z"/>
<path fill="#FDD400" opacity="1.000000" stroke="none" 
	d="
M807.882812,366.939453 
	C810.641418,365.907349 813.335999,364.618835 816.175171,363.909088 
	C819.597778,363.053528 823.145630,362.703613 826.634155,362.104919 
	C827.887390,361.889832 829.526489,362.005981 830.306396,361.258362 
	C835.678650,356.108093 842.492065,354.487213 849.424622,353.439758 
	C854.030823,352.743835 858.387207,349.429840 863.436646,351.927887 
	C864.040955,352.226837 865.445801,351.031525 866.421692,350.434143 
	C870.113281,348.174408 873.563416,345.331268 877.520752,343.749512 
	C881.234070,342.265381 885.743347,340.838989 889.424927,341.624542 
	C896.400330,343.112946 902.542114,342.059784 908.694946,339.108032 
	C909.742126,338.605713 910.912720,338.358246 911.953003,337.844604 
	C922.008972,332.879852 925.486755,338.458862 925.418945,347.632507 
	C925.351685,356.740936 922.573547,365.462860 917.312134,372.970184 
	C915.710083,375.256134 912.283447,377.522156 909.622681,377.606903 
	C889.465454,378.249115 870.775452,384.912933 851.840820,390.738312 
	C842.935791,393.478027 833.953491,396.113708 824.839172,397.982025 
	C816.703186,399.649750 811.453064,404.118805 807.992554,411.339813 
	C791.165100,446.453125 773.905945,481.366028 757.554016,516.698975 
	C737.981750,558.990234 719.277283,601.673889 703.825806,645.703674 
	C699.742981,657.337708 696.628174,668.888733 699.901794,681.349915 
	C700.372437,683.141235 699.206421,686.841370 697.907654,687.340149 
	C694.078247,688.810791 689.114868,690.868286 685.819580,689.575500 
	C671.767700,684.062500 663.311462,667.901062 666.044189,653.128479 
	C668.695862,638.793762 673.213074,625.155457 681.527893,612.883728 
	C685.238831,607.406738 687.955994,601.245361 690.976807,595.319580 
	C691.711548,593.878235 692.460571,592.026489 692.179993,590.559082 
	C691.084534,584.830017 694.546570,581.143066 697.054810,576.633911 
	C702.524780,566.800293 707.399780,556.571472 711.629395,546.143799 
	C713.326843,541.958862 712.688293,536.826538 713.163818,531.562134 
	C715.935669,531.003601 719.131836,529.946716 720.765930,525.667786 
	C721.840637,522.853455 722.523010,521.014343 721.205994,517.963135 
	C720.285706,515.831055 720.764648,512.044189 722.167053,510.132172 
	C730.786011,498.380676 737.385681,485.851868 741.970825,471.873169 
	C745.413025,461.379028 751.724243,451.854553 756.317993,441.699280 
	C759.280090,435.150970 761.446228,428.242615 764.334717,420.517792 
	C753.380432,423.658081 743.978088,426.285156 734.640686,429.125671 
	C733.596008,429.443481 732.704163,430.854614 732.103638,431.956177 
	C713.462524,466.151855 694.865601,500.371613 676.271362,534.592773 
	C675.956726,535.171753 675.757751,535.813538 674.958191,537.750000 
	C683.400696,534.674500 690.898132,531.943237 699.015503,528.986206 
	C699.540649,530.810486 700.636658,532.562866 700.385986,534.094971 
	C699.158569,541.598633 697.702942,549.073792 695.989746,556.480774 
	C695.691650,557.769592 693.951294,559.230591 692.572449,559.682678 
	C682.783997,562.891846 672.892151,565.785034 663.099182,568.981018 
	C661.588684,569.473999 659.830139,570.723694 659.175842,572.095459 
	C649.491028,592.401306 640.643982,613.041138 635.171448,634.961853 
	C634.688416,636.896973 634.242188,638.861755 633.524292,640.714111 
	C631.441650,646.087463 628.067871,647.944031 622.504150,646.562683 
	C612.083496,643.975525 603.482971,639.209351 601.566772,629.562805 
	C603.943909,624.524231 605.942200,621.058838 607.253845,617.350586 
	C610.111206,609.272156 610.717529,600.471008 616.278381,593.218750 
	C617.763428,591.281982 616.502930,587.239929 616.502930,583.438660 
	C612.574768,585.080139 609.226379,586.394104 605.948120,587.864502 
	C593.796448,593.314758 581.568115,598.611267 569.593384,604.428223 
	C566.149231,606.101318 562.848511,608.872620 560.551941,611.941040 
	C555.474121,618.725464 551.029358,625.988281 546.412231,633.111633 
	C540.940918,641.552612 534.589905,643.085388 526.119263,637.786194 
	C524.007568,636.465027 522.010803,634.942566 520.053223,633.395996 
	C515.061035,629.452087 514.942322,627.864563 518.981018,622.807190 
	C524.570190,615.808350 530.332458,608.932800 535.584717,601.688416 
	C537.282227,599.347046 537.606873,596.010254 538.559570,593.128845 
	C538.152954,592.926514 537.746338,592.724121 537.339722,592.521790 
	C536.488403,593.416382 535.634155,594.308289 534.786133,595.205994 
	C523.354675,607.307434 512.277649,619.772217 500.369873,631.385193 
	C492.333710,639.222412 482.113251,643.458313 470.692291,644.280334 
	C461.798065,644.920471 453.842651,642.483154 446.929169,636.947083 
	C442.644592,633.516174 438.600281,629.780212 434.514221,626.107544 
	C429.143585,621.280396 427.626038,615.325134 429.528412,608.413696 
	C431.648804,600.710144 433.742615,592.999207 435.840210,585.289368 
	C437.196014,580.306030 435.036041,575.613892 430.831757,574.379089 
	C425.170837,572.716492 421.611420,574.695496 419.149628,579.654907 
	C416.665466,584.659485 413.950409,589.760681 410.335571,593.957458 
	C391.285034,616.074951 373.182465,638.889526 357.467590,663.523010 
	C347.300964,679.459534 342.116425,697.385254 337.035675,715.352539 
	C334.637787,723.832336 332.246857,732.337769 329.273773,740.623779 
	C326.989227,746.990906 325.393494,747.390930 319.923126,743.504028 
	C315.241821,740.177673 310.204773,736.867004 306.718445,732.449768 
	C300.393372,724.435791 297.273682,708.054749 308.181946,698.276855 
	C309.952240,696.689941 310.404785,693.648071 311.506348,691.297424 
	C316.165253,681.356140 324.442474,672.880798 322.596252,660.918396 
	C322.640747,660.893433 321.648590,661.493713 320.619202,662.021301 
	C315.442963,664.674622 310.447510,667.811523 305.040649,669.860596 
	C284.652222,677.587280 265.336578,669.334656 254.957855,650.171814 
	C248.022400,637.366516 247.926376,625.000977 252.552292,611.721619 
	C259.096008,592.937073 269.060394,576.136108 281.050690,560.430237 
	C289.035980,549.970581 296.813416,539.329956 305.250458,529.244385 
	C311.957794,521.226440 319.747345,514.123596 326.660095,506.265747 
	C339.632324,491.520020 354.662872,479.283936 371.016418,468.547333 
	C372.190704,467.776367 373.749939,466.330200 373.732208,465.220337 
	C373.648895,460.006287 377.651794,458.293091 380.973053,455.931366 
	C392.281708,447.890076 404.483032,444.894287 417.760834,450.211029 
	C428.091492,454.347656 438.396240,458.629822 448.380005,463.525421 
	C455.876343,467.201324 459.057404,476.968109 456.534973,486.731171 
	C455.636780,490.207550 454.175690,493.772797 452.093506,496.665497 
	C445.578339,505.716644 438.868561,514.649780 431.808624,523.280579 
	C424.923187,531.698181 409.579437,530.422729 403.552277,521.295532 
	C401.252655,517.813110 403.077484,512.100281 407.459595,511.216675 
	C411.556824,510.390533 413.401398,507.869751 414.905548,504.689270 
	C416.962036,500.340790 419.061584,495.974976 420.580566,491.428802 
	C421.174377,489.651642 420.953308,486.584656 419.801483,485.538544 
	C418.728424,484.563934 415.711395,484.970673 413.934570,485.702637 
	C411.048431,486.891449 408.209442,488.522003 405.811951,490.519836 
	C378.047577,513.656311 349.993103,536.466431 322.811188,560.271729 
	C306.617767,574.453491 294.439026,592.226135 286.409790,612.248169 
	C282.686493,621.532715 281.153076,631.752380 279.183472,641.658813 
	C278.223022,646.489380 281.570282,648.568604 285.817169,646.135559 
	C300.091492,637.957520 314.617340,630.210815 325.962250,617.750671 
	C331.518219,611.648560 338.034973,606.421265 344.841461,600.128113 
	C341.633636,599.481018 339.416290,599.055115 337.208405,598.584473 
	C328.650635,596.760254 322.800934,591.878052 320.500397,583.299500 
	C319.113007,578.125977 320.656555,576.151672 325.751343,574.507996 
	C343.001862,568.942749 360.057159,562.725037 377.453522,557.674377 
	C390.975464,553.748474 404.910614,551.256653 418.618103,547.945312 
	C420.318390,547.534546 422.155182,546.324829 423.241669,544.944519 
	C437.149567,527.275940 450.901306,509.484497 464.791351,491.801727 
	C466.289154,489.894897 468.471802,488.540192 470.209381,486.802002 
	C471.199799,485.811310 472.052765,484.632599 472.757751,483.416840 
	C474.710571,480.049194 476.007111,476.128204 478.540253,473.301727 
	C486.653595,464.248962 495.075928,455.460480 503.634613,446.823334 
	C510.754822,439.637817 519.341919,434.701355 528.708984,430.782074 
	C532.997559,428.987732 536.469482,425.268158 540.369141,422.502686 
	C541.664673,421.583984 543.057861,420.638092 544.551575,420.203979 
	C546.612976,419.604980 548.842346,419.612030 550.947266,419.130096 
	C572.641113,414.163483 588.877197,423.532166 602.610291,439.019379 
	C607.212524,444.209381 608.707764,450.686737 606.233521,457.251984 
	C598.018494,479.049805 590.130737,501.009216 580.816345,522.338440 
	C576.066895,533.214294 568.496887,542.851135 562.290649,553.101746 
	C559.802307,557.211609 557.552673,561.465942 554.958557,566.073486 
	C560.194824,566.067688 564.059692,564.805847 567.028809,560.792297 
	C573.241455,552.394348 579.491211,544.004333 586.158264,535.970032 
	C589.585510,531.839905 593.929749,528.467590 597.886414,524.781677 
	C599.100525,523.650757 600.815613,522.853760 601.600403,521.498169 
	C607.543335,511.232666 617.422241,504.488098 624.705017,495.392059 
	C632.192383,486.040405 640.894653,477.665039 648.445557,468.359589 
	C655.732300,459.379608 662.092529,449.654327 669.113037,440.449677 
	C675.159302,432.522583 681.843018,425.072021 687.706604,417.018829 
	C691.456543,411.868622 694.108093,405.930573 697.513123,400.509674 
	C698.489014,398.955963 700.197632,397.255066 701.871155,396.842865 
	C715.438354,393.501282 728.946289,389.474915 742.736328,387.625641 
	C753.402344,386.195282 761.908386,380.545654 771.496460,377.119598 
	C783.333862,372.889801 795.603821,369.870361 807.560364,366.728058 
	C807.518311,367.346405 807.594360,367.569061 807.703186,367.774353 
	C807.711792,367.790588 808.065125,367.670013 808.060974,367.639801 
	C808.028809,367.402649 807.948364,367.172058 807.882812,366.939453 
M496.247650,526.772278 
	C487.899506,544.324768 479.227203,561.733887 471.368469,579.502808 
	C468.376373,586.268005 467.090973,593.821960 465.400818,601.103027 
	C465.024048,602.726074 465.700623,605.283813 466.864410,606.337891 
	C467.673950,607.071167 470.185455,606.109741 471.858398,605.631714 
	C472.765320,605.372620 473.476837,604.487671 474.330444,603.974854 
	C488.727997,595.324585 498.742401,582.354370 509.730682,569.998108 
	C527.653564,549.843933 540.080322,526.781494 550.571167,502.426819 
	C554.099976,494.234619 556.427185,485.473541 558.701782,476.814331 
	C559.819031,472.560974 560.493103,467.472748 556.403809,464.230316 
	C552.170044,460.873383 547.472839,463.018768 543.154724,464.744019 
	C533.124268,468.751465 525.941650,476.554047 518.468689,483.878387 
	C517.456604,484.870300 517.111633,487.345886 517.525635,488.838226 
	C518.729675,493.178894 517.343689,496.501343 514.856201,499.956970 
	C508.644318,508.586670 502.698608,517.408081 496.247650,526.772278 
M651.242737,503.734985 
	C635.205383,520.685303 619.167969,537.635559 602.583679,555.163940 
	C604.527527,555.449890 605.606384,555.960999 606.389038,555.671448 
	C621.160156,550.206482 635.183960,543.459473 646.187622,531.731812 
	C646.719727,531.164673 647.241638,530.315613 647.260254,529.584839 
	C647.358398,525.737549 648.001404,522.524109 652.486389,521.212830 
	C653.592773,520.889404 654.731140,518.561340 654.789307,517.112061 
	C655.146729,508.205261 658.642761,501.479248 667.535278,498.210419 
	C663.181274,494.532684 661.237122,494.296448 657.724548,497.235504 
	C655.566467,499.041199 653.719299,501.218567 651.242737,503.734985 
z"/>
<path fill="#EFC800" opacity="1.000000" stroke="none" 
	d="
M400.810272,428.174255 
	C397.944244,425.638031 395.344604,423.337250 392.049438,420.420837 
	C392.049438,424.990509 392.049438,428.829102 392.049438,432.923767 
	C389.405334,432.923767 387.319946,432.923767 385.227509,432.923767 
	C385.227509,426.349365 385.227509,420.071411 385.227509,413.611328 
	C395.638062,410.950073 398.763672,421.128510 406.159760,424.784454 
	C406.159760,421.053223 406.159760,417.405640 406.159760,413.508728 
	C408.740723,413.508728 410.662598,413.508728 412.867371,413.508728 
	C412.867371,419.982239 412.867371,426.389587 412.867371,432.713257 
	C407.543365,434.786957 404.282074,431.672485 400.810272,428.174255 
z"/>
<path fill="#F2CA00" opacity="1.000000" stroke="none" 
	d="
M306.004333,428.650085 
	C308.706268,427.785675 310.913055,426.739716 313.232513,426.105865 
	C315.628326,425.451111 318.133575,425.196899 320.590973,424.767456 
	C320.887817,425.277130 321.184692,425.786835 321.481537,426.296539 
	C319.788757,428.092316 318.423157,430.649811 316.342834,431.543396 
	C309.682922,434.404022 302.666931,434.470825 295.940826,431.682068 
	C292.278107,430.163483 290.547913,426.950470 290.658020,422.825470 
	C290.762482,418.912415 292.477539,415.949860 296.052612,414.593781 
	C302.831299,412.022522 309.801819,411.974609 316.458191,414.896881 
	C318.437988,415.765991 319.774902,418.099426 321.406403,419.761902 
	C321.078766,420.389252 320.751129,421.016571 320.423492,421.643921 
	C317.672760,420.845001 314.964264,419.810303 312.160431,419.308014 
	C308.808197,418.707520 305.318848,418.068878 302.000977,418.442444 
	C300.497589,418.611694 298.137482,421.224518 298.192230,422.651123 
	C298.261536,424.458069 300.179932,426.415283 301.723358,427.854675 
	C302.539246,428.615601 304.251251,428.415680 306.004333,428.650085 
z"/>
<path fill="#ECC600" opacity="1.000000" stroke="none" 
	d="
M456.359009,433.174225 
	C452.045380,428.447937 446.642090,429.662018 441.586914,429.746643 
	C440.303162,429.768127 439.034119,430.686829 437.758820,431.194550 
	C435.548615,432.074463 433.338745,432.955353 431.128723,433.835815 
	C430.859924,433.408295 430.591095,432.980774 430.322266,432.553253 
	C433.415283,426.782623 436.367310,420.930054 439.655396,415.272827 
	C441.557953,411.999451 450.100159,412.558411 451.996460,415.962830 
	C454.987701,421.333099 457.840149,426.780670 461.098572,432.841339 
	C459.415161,432.969910 458.078369,433.071991 456.359009,433.174225 
M447.656433,419.880920 
	C444.660522,417.094696 443.947357,417.670868 441.601318,424.806580 
	C444.306427,424.806580 446.992828,424.806580 450.181580,424.806580 
	C449.311432,423.123413 448.651306,421.846527 447.656433,419.880920 
z"/>
<path fill="#ECC600" opacity="1.000000" stroke="none" 
	d="
M341.942017,423.818542 
	C342.982056,421.881348 344.131317,420.368347 344.696320,418.661835 
	C346.214081,414.077972 349.347687,413.067902 353.854919,413.260742 
	C356.845184,413.388733 358.310577,414.453003 359.558990,416.929016 
	C362.177032,422.121490 365.032074,427.194397 367.992767,432.693329 
	C364.992828,433.135345 362.584808,434.119202 360.050659,431.042236 
	C358.908142,429.654907 355.557190,429.679047 353.235046,429.767548 
	C349.885468,429.895142 345.948822,428.077698 343.512207,432.596588 
	C342.992554,433.560364 339.847839,433.108704 336.836609,433.420532 
	C338.767273,429.805176 340.276031,426.979858 341.942017,423.818542 
M350.139008,420.619354 
	C349.531586,421.912811 348.924164,423.206299 348.155334,424.843506 
	C351.259521,424.843506 353.929047,424.843506 357.032379,424.843506 
	C356.101501,422.923035 355.379303,421.318298 354.558777,419.765472 
	C353.102905,417.010437 351.743134,417.538788 350.139008,420.619354 
z"/>
<path fill="#EFC800" opacity="1.000000" stroke="none" 
	d="
M478.029541,429.624359 
	C478.029755,424.046021 478.029755,418.927612 478.029755,413.527161 
	C480.377075,413.527161 482.293884,413.527161 484.798279,413.527161 
	C484.798279,418.222076 484.798279,422.934021 484.798279,428.125488 
	C490.103210,428.125488 494.850464,428.125488 499.721619,428.125488 
	C499.721619,430.055359 499.721619,431.483246 499.721619,433.206818 
	C493.178619,433.206818 486.864868,433.328522 480.566925,433.068024 
	C479.681458,433.031372 478.873322,431.125122 478.029541,429.624359 
z"/>
<path fill="#020200" opacity="1.000000" stroke="none" 
	d="
M496.446899,526.462402 
	C502.698608,517.408081 508.644318,508.586670 514.856201,499.956970 
	C517.343689,496.501343 518.729675,493.178894 517.525635,488.838226 
	C517.111633,487.345886 517.456604,484.870300 518.468689,483.878387 
	C525.941650,476.554047 533.124268,468.751465 543.154724,464.744019 
	C547.472839,463.018768 552.170044,460.873383 556.403809,464.230316 
	C560.493103,467.472748 559.819031,472.560974 558.701782,476.814331 
	C556.427185,485.473541 554.099976,494.234619 550.571167,502.426819 
	C540.080322,526.781494 527.653564,549.843933 509.730682,569.998108 
	C498.742401,582.354370 488.727997,595.324585 474.330444,603.974854 
	C473.476837,604.487671 472.765320,605.372620 471.858398,605.631714 
	C470.185455,606.109741 467.673950,607.071167 466.864410,606.337891 
	C465.700623,605.283813 465.024048,602.726074 465.400818,601.103027 
	C467.090973,593.821960 468.376373,586.268005 471.368469,579.502808 
	C479.227203,561.733887 487.899506,544.324768 496.446899,526.462402 
z"/>
<path fill="#070600" opacity="1.000000" stroke="none" 
	d="
M651.487671,503.481995 
	C653.719299,501.218567 655.566467,499.041199 657.724548,497.235504 
	C661.237122,494.296448 663.181274,494.532684 667.535278,498.210419 
	C658.642761,501.479248 655.146729,508.205261 654.789307,517.112061 
	C654.731140,518.561340 653.592773,520.889404 652.486389,521.212830 
	C648.001404,522.524109 647.358398,525.737549 647.260254,529.584839 
	C647.241638,530.315613 646.719727,531.164673 646.187622,531.731812 
	C635.183960,543.459473 621.160156,550.206482 606.389038,555.671448 
	C605.606384,555.960999 604.527527,555.449890 602.583679,555.163940 
	C619.167969,537.635559 635.205383,520.685303 651.487671,503.481995 
z"/>
<path fill="#000000" opacity="1.000000" stroke="none" 
	d="
M807.916870,366.956604 
	C807.948364,367.172058 808.028809,367.402649 808.060974,367.639801 
	C808.065125,367.670013 807.711792,367.790588 807.703186,367.774353 
	C807.594360,367.569061 807.518311,367.346405 807.723511,367.073059 
	C808.013184,367.017914 807.950928,366.973785 807.916870,366.956604 
z"/>
<path fill="#070600" opacity="1.000000" stroke="none" 
	d="
M447.823792,420.225281 
	C448.651306,421.846527 449.311432,423.123413 450.181580,424.806580 
	C446.992828,424.806580 444.306427,424.806580 441.601318,424.806580 
	C443.947357,417.670868 444.660522,417.094696 447.823792,420.225281 
z"/>
<path fill="#070600" opacity="1.000000" stroke="none" 
	d="
M350.319214,420.287323 
	C351.743134,417.538788 353.102905,417.010437 354.558777,419.765472 
	C355.379303,421.318298 356.101501,422.923035 357.032379,424.843506 
	C353.929047,424.843506 351.259521,424.843506 348.155334,424.843506 
	C348.924164,423.206299 349.531586,421.912811 350.319214,420.287323 
z"/>
</svg>