<svg width="500" height="500" viewBox="0 0 500 500" fill="none" xmlns="http://www.w3.org/2000/svg">
<path d="M413.071 120.891C415.111 120.128 417.104 119.175 419.204 118.65C421.735 118.017 424.359 117.759 426.939 117.316C427.866 117.157 429.078 117.243 429.655 116.69C433.628 112.881 438.667 111.682 443.795 110.907C447.201 110.392 450.423 107.941 454.158 109.789C454.605 110.01 455.644 109.126 456.366 108.684C459.096 107.013 461.648 104.91 464.574 103.74C467.321 102.643 470.656 101.588 473.379 102.169C478.537 103.27 483.08 102.491 487.63 100.308C488.405 99.936 489.271 99.753 490.04 99.3731C497.477 95.7012 500.049 99.8274 499.999 106.612C499.95 113.349 497.895 119.799 494.004 125.352C492.819 127.042 490.284 128.718 488.317 128.781C473.408 129.256 459.586 134.184 445.582 138.493C438.996 140.519 432.352 142.468 425.612 143.85C419.594 145.083 415.711 148.389 413.152 153.729C400.707 179.699 387.942 205.52 375.848 231.652C361.373 262.93 347.539 294.498 336.112 327.062C333.092 335.667 330.788 344.21 333.209 353.426C333.557 354.751 332.695 357.487 331.735 357.856C328.902 358.944 325.231 360.465 322.794 359.509C312.402 355.432 306.148 343.479 308.169 332.553C310.13 321.952 313.471 311.865 319.62 302.789C322.365 298.738 324.374 294.181 326.609 289.799C327.152 288.733 327.706 287.363 327.498 286.278C326.688 282.041 329.249 279.314 331.104 275.979C335.149 268.706 338.755 261.141 341.883 253.429C343.138 250.334 342.666 246.538 343.018 242.644C345.068 242.231 347.432 241.45 348.64 238.285C349.435 236.204 349.94 234.843 348.966 232.587C348.285 231.01 348.639 228.209 349.676 226.795C356.051 218.104 360.932 208.838 364.323 198.499C366.869 190.738 371.537 183.694 374.934 176.183C377.125 171.34 378.727 166.23 380.863 160.517C372.762 162.84 365.808 164.783 358.902 166.884C358.129 167.119 357.47 168.162 357.025 168.977C343.239 194.268 329.485 219.576 315.733 244.886C315.5 245.314 315.353 245.789 314.761 247.221C321.005 244.946 326.55 242.926 332.554 240.739C332.942 242.088 333.753 243.385 333.567 244.518C332.66 250.067 331.583 255.596 330.316 261.074C330.096 262.027 328.808 263.108 327.789 263.442C320.549 265.815 313.233 267.955 305.991 270.319C304.873 270.684 303.573 271.608 303.089 272.622C295.926 287.64 289.383 302.905 285.336 319.118C284.978 320.549 284.648 322.002 284.117 323.372C282.577 327.346 280.082 328.719 275.967 327.697C268.26 325.784 261.899 322.259 260.482 315.125C262.24 311.398 263.718 308.835 264.688 306.093C266.801 300.118 267.25 293.609 271.362 288.245C272.461 286.813 271.528 283.823 271.528 281.012C268.623 282.226 266.147 283.197 263.722 284.285C254.735 288.316 245.691 292.233 236.835 296.535C234.287 297.773 231.846 299.822 230.148 302.092C226.392 307.109 223.105 312.481 219.69 317.749C215.644 323.992 210.947 325.126 204.682 321.206C203.12 320.229 201.643 319.103 200.195 317.96C196.503 315.043 196.415 313.869 199.402 310.128C203.536 304.952 207.798 299.867 211.682 294.509C212.938 292.777 213.178 290.309 213.882 288.178C213.582 288.029 213.281 287.879 212.98 287.729C212.351 288.391 211.719 289.051 211.092 289.715C202.637 298.665 194.445 307.884 185.638 316.472C179.694 322.269 172.135 325.402 163.689 326.009C157.111 326.483 151.227 324.68 146.114 320.586C142.945 318.048 139.954 315.285 136.932 312.569C132.96 308.999 131.837 304.595 133.244 299.483C134.812 293.785 136.361 288.083 137.912 282.38C138.915 278.695 137.318 275.225 134.208 274.311C130.021 273.082 127.389 274.545 125.568 278.213C123.731 281.915 121.723 285.687 119.049 288.791C104.96 305.149 91.5714 322.023 79.9489 340.241C72.4298 352.028 68.5953 365.285 64.8377 378.574C63.0642 384.845 61.2959 391.136 59.0971 397.264C57.4074 401.973 56.2272 402.269 52.1814 399.394C48.7192 396.934 44.9938 394.486 42.4154 391.219C37.7374 385.292 35.4301 373.176 43.4978 365.945C44.8071 364.771 45.1418 362.521 45.9565 360.783C49.4021 353.43 55.5239 347.162 54.1584 338.315C54.1913 338.296 53.4576 338.74 52.6962 339.131C48.8679 341.093 45.1734 343.413 41.1745 344.928C26.0955 350.643 11.8098 344.539 4.13384 330.367C-0.995541 320.896 -1.06656 311.751 2.35472 301.929C7.19437 288.037 14.5639 275.611 23.4318 263.995C29.3376 256.259 35.0897 248.389 41.3297 240.93C46.2904 235 52.0514 229.747 57.164 223.935C66.7581 213.03 77.8745 203.98 89.9694 196.039C90.8379 195.469 91.9911 194.4 91.978 193.579C91.9164 189.722 94.8769 188.455 97.3333 186.709C105.697 180.761 114.721 178.546 124.541 182.478C132.182 185.537 139.803 188.704 147.187 192.325C152.731 195.044 155.084 202.267 153.218 209.488C152.554 212.059 151.473 214.696 149.933 216.835C145.115 223.529 140.152 230.136 134.931 236.519C129.838 242.745 118.49 241.802 114.033 235.051C112.332 232.476 113.681 228.251 116.922 227.597C119.953 226.986 121.317 225.122 122.429 222.77C123.95 219.553 125.503 216.325 126.627 212.962C127.066 211.648 126.902 209.38 126.05 208.606C125.257 207.885 123.025 208.186 121.711 208.727C119.577 209.606 117.477 210.812 115.704 212.29C95.1696 229.401 74.4208 246.272 54.3174 263.878C42.3409 274.366 33.3337 287.511 27.3953 302.319C24.6416 309.186 23.5075 316.744 22.0508 324.071C21.3405 327.643 23.8161 329.181 26.957 327.382C37.5142 321.333 48.2573 315.604 56.6479 306.388C60.757 301.875 65.5767 298.009 70.6107 293.355C68.2383 292.876 66.5983 292.561 64.9654 292.213C58.6362 290.864 54.3098 287.253 52.6084 280.909C51.5823 277.082 52.7239 275.622 56.4919 274.407C69.2502 270.291 81.8641 265.692 94.7303 261.957C104.731 259.053 115.037 257.21 125.175 254.761C126.433 254.457 127.791 253.563 128.595 252.542C138.881 239.474 149.051 226.316 159.324 213.238C160.432 211.828 162.046 210.826 163.331 209.54C164.064 208.808 164.695 207.936 165.216 207.037C166.66 204.546 167.619 201.646 169.493 199.556C175.493 192.86 181.722 186.36 188.052 179.973C193.318 174.658 199.669 171.007 206.597 168.109C209.769 166.782 212.337 164.031 215.221 161.985C216.179 161.306 217.209 160.606 218.314 160.285C219.839 159.842 221.487 159.847 223.044 159.491C239.089 155.818 251.097 162.747 261.254 174.201C264.657 178.039 265.763 182.83 263.933 187.685C257.858 203.807 252.024 220.048 245.135 235.823C241.622 243.866 236.024 250.994 231.434 258.575C229.593 261.614 227.93 264.761 226.011 268.169C229.884 268.164 232.742 267.231 234.938 264.263C239.533 258.052 244.155 251.846 249.086 245.904C251.621 242.85 254.834 240.356 257.76 237.63C258.658 236.793 259.926 236.204 260.507 235.201C264.902 227.609 272.208 222.621 277.595 215.893C283.132 208.977 289.568 202.783 295.153 195.901C300.542 189.259 305.246 182.066 310.438 175.259C314.91 169.396 319.853 163.886 324.19 157.929C326.963 154.12 328.924 149.729 331.443 145.719C332.164 144.57 333.428 143.312 334.666 143.008C344.7 140.536 354.69 137.558 364.889 136.191C372.778 135.133 379.069 130.954 386.16 128.42C394.915 125.292 403.989 123.059 412.832 120.735C412.801 121.192 412.858 121.357 412.938 121.509C412.944 121.521 413.206 121.432 413.203 121.409C413.179 121.234 413.119 121.063 413.071 120.891ZM182.589 239.102C176.415 252.083 170.001 264.959 164.189 278.101C161.976 283.104 161.025 288.691 159.775 294.076C159.496 295.276 159.997 297.168 160.858 297.948C161.456 298.49 163.314 297.779 164.551 297.425C165.222 297.234 165.748 296.579 166.379 296.2C177.028 289.802 184.434 280.21 192.561 271.071C205.817 256.165 215.007 239.109 222.766 221.096C225.376 215.037 227.097 208.558 228.779 202.154C229.606 199.008 230.104 195.245 227.08 192.847C223.949 190.364 220.475 191.95 217.281 193.226C209.863 196.19 204.55 201.961 199.023 207.378C198.275 208.112 198.02 209.943 198.326 211.046C199.216 214.257 198.191 216.714 196.352 219.27C191.757 225.652 187.36 232.176 182.589 239.102ZM297.222 222.064C285.361 234.6 273.5 247.136 261.234 260.1C262.672 260.312 263.47 260.69 264.048 260.475C274.973 256.434 285.345 251.444 293.483 242.77C293.876 242.35 294.262 241.722 294.276 241.182C294.349 238.337 294.824 235.96 298.141 234.99C298.96 234.751 299.802 233.029 299.845 231.957C300.109 225.37 302.695 220.395 309.271 217.978C306.051 215.258 304.613 215.083 302.016 217.257C300.419 218.592 299.053 220.203 297.222 222.064Z" fill="white"/>
<path d="M112.005 166.18C109.885 164.304 107.962 162.603 105.525 160.446C105.525 163.825 105.525 166.664 105.525 169.693C103.57 169.693 102.028 169.693 100.48 169.693C100.48 164.83 100.48 160.187 100.48 155.409C108.18 153.441 110.491 160.969 115.961 163.673C115.961 160.913 115.961 158.216 115.961 155.333C117.87 155.333 119.291 155.333 120.922 155.333C120.922 160.121 120.922 164.86 120.922 169.537C116.985 171.071 114.573 168.767 112.005 166.18Z" fill="white"/>
<path d="M41.8878 166.532C43.8861 165.893 45.5182 165.119 47.2337 164.65C49.0056 164.166 50.8584 163.978 52.6759 163.66C52.8954 164.037 53.115 164.414 53.3346 164.791C52.0826 166.119 51.0726 168.011 49.534 168.672C44.6084 170.787 39.4195 170.837 34.4449 168.774C31.736 167.651 30.4564 165.275 30.5378 162.224C30.6151 159.33 31.8835 157.139 34.5276 156.136C39.5411 154.234 44.6964 154.199 49.6193 156.36C51.0836 157.003 52.0723 158.729 53.279 159.958C53.0367 160.422 52.7944 160.886 52.552 161.35C50.5176 160.759 48.5145 159.994 46.4408 159.623C43.9615 159.178 41.3808 158.706 38.927 158.982C37.8151 159.108 36.0696 161.04 36.11 162.095C36.1613 163.431 37.5801 164.879 38.7216 165.944C39.3251 166.506 40.5912 166.358 41.8878 166.532Z" fill="white"/>
<path d="M153.088 169.878C149.898 166.382 145.902 167.28 142.163 167.343C141.213 167.359 140.275 168.038 139.332 168.414C137.697 169.064 136.062 169.716 134.428 170.367C134.229 170.051 134.03 169.735 133.832 169.419C136.119 165.151 138.302 160.822 140.734 156.638C142.141 154.217 148.459 154.631 149.862 157.148C152.074 161.12 154.183 165.149 156.593 169.632C155.348 169.727 154.36 169.802 153.088 169.878ZM146.652 160.046C144.436 157.986 143.909 158.412 142.173 163.689C144.174 163.689 146.161 163.689 148.519 163.689C147.876 162.444 147.387 161.5 146.652 160.046Z" fill="white"/>
<path d="M68.4668 162.959C69.236 161.526 70.086 160.407 70.5039 159.145C71.6264 155.755 73.944 155.008 77.2775 155.15C79.489 155.245 80.5728 156.032 81.4961 157.863C83.4324 161.703 85.544 165.455 87.7337 169.522C85.5149 169.849 83.734 170.577 81.8598 168.301C81.0148 167.275 78.5364 167.293 76.819 167.358C74.3417 167.453 71.4302 166.109 69.6281 169.451C69.2438 170.163 66.918 169.829 64.6909 170.06C66.1188 167.386 67.2347 165.297 68.4668 162.959ZM74.5292 160.592C74.08 161.549 73.6307 162.506 73.0621 163.717C75.3579 163.717 77.3323 163.717 79.6275 163.717C78.939 162.296 78.4049 161.109 77.798 159.961C76.7213 157.923 75.7156 158.314 74.5292 160.592Z" fill="white"/>
<path d="M169.115 167.252C169.115 163.127 169.115 159.341 169.115 155.347C170.851 155.347 172.269 155.347 174.121 155.347C174.121 158.819 174.121 162.304 174.121 166.144C178.045 166.144 181.556 166.144 185.158 166.144C185.158 167.571 185.158 168.627 185.158 169.902C180.319 169.902 175.65 169.992 170.992 169.799C170.337 169.772 169.739 168.362 169.115 167.252Z" fill="white"/>
</svg>
