<svg width="500" height="500" viewBox="0 0 500 500" fill="none" xmlns="http://www.w3.org/2000/svg">
<path d="M258.01 500C253.226 499.886 248.443 499.886 243.659 500C237.084 499.647 230.508 499.407 223.933 498.927C206.477 497.615 189.136 494.977 172.16 491.039C113.459 477.408 61.9271 450.033 16.9704 410.213C12.7802 406.502 8.8424 402.678 4.77838 398.854C3.81917 398.021 2.98617 396.822 2.50657 395.623C1.78716 393.944 2.15318 392.152 3.33957 390.839C4.52596 389.527 6.44438 389.047 8.12299 389.766C9.19579 390.246 10.2812 390.726 11.2278 391.319C54.1524 417.861 101.015 437.235 150.162 448.707C166.658 452.532 183.28 455.523 200.015 457.668C224.046 460.66 248.317 461.733 272.474 460.9C285.511 460.546 298.423 459.347 311.334 457.668C341.461 453.844 371.234 447.029 400.049 437.462C415.232 432.439 430.062 426.696 444.526 420.007C446.684 418.808 449.309 418.454 451.694 419.048C455.645 420.007 458.03 424.071 457.071 428.009C456.957 428.488 456.718 429.082 456.478 429.561C455.519 431.353 454.206 432.906 452.527 434.105C438.783 444.871 423.953 454.311 408.29 462.199C378.757 477.143 347.191 487.783 314.679 493.879C295.911 497.223 277.017 499.255 258.01 499.975V500Z" fill="#00A8E1"/>
<path d="M463.533 383.431C471.421 383.67 479.196 384.15 486.845 386.182C489.003 386.775 491.035 387.495 493.067 388.454C495.818 389.527 497.61 392.165 497.964 395.03C498.443 398.374 498.557 401.845 498.317 405.316C496.765 425.762 490.429 445.489 479.903 463.058C476.079 469.394 471.409 475.136 466.032 480.159C464.959 481.232 463.647 482.078 462.208 482.545C459.936 483.138 458.497 481.952 458.384 479.68C458.497 478.481 458.737 477.294 459.217 476.095C463.407 464.863 467.471 453.743 470.689 442.144C472.608 435.809 473.92 429.347 474.753 422.771C474.993 420.386 475.107 417.988 474.867 415.602C474.753 411.538 472.116 408.067 468.178 406.868C464.467 405.669 460.643 404.95 456.705 404.71C445.699 404.23 434.706 404.71 423.827 406.149L409.363 407.941C407.811 408.055 406.372 407.941 405.539 406.502C404.706 405.063 405.059 403.637 405.892 402.198C406.851 400.886 408.05 399.687 409.477 398.854C418.324 392.518 428.244 388.694 438.77 386.182C446.898 384.503 455.153 383.67 463.521 383.431H463.533Z" fill="#00A8E1"/>
<path d="M330.67 54.4214C333.825 52.5282 337.107 50.5088 340.514 48.7419C349.349 44.1983 359.194 41.9264 369.164 42.4313C376.358 42.8099 382.921 44.8293 387.97 50.1302C392.766 55.0525 394.533 61.1107 395.038 67.6737C395.164 69.062 395.164 70.4503 395.164 71.9649V137.343C395.164 143.022 394.407 143.779 388.727 143.779H373.329C372.32 143.779 371.31 143.779 370.3 143.653C368.786 143.527 367.524 142.265 367.271 140.75C367.019 139.362 367.019 137.974 367.019 136.585V78.1493C367.145 75.7512 366.893 73.4794 366.261 71.2076C365.252 67.295 361.718 64.5184 357.679 64.2659C350.233 63.7611 342.786 65.2756 335.971 68.4309C334.961 68.6834 334.33 69.6931 334.456 70.7028V137.09C334.456 138.352 334.456 139.488 334.204 140.75C334.204 142.517 332.815 143.779 331.048 143.779C329.155 143.906 327.262 143.906 325.243 143.906H311.864C307.194 143.906 306.185 142.77 306.185 138.1V78.4017C306.185 76.2561 306.058 73.9843 305.554 71.8387C304.67 67.5475 301.01 64.5184 296.719 64.2659C289.146 63.7611 281.447 65.2756 274.632 68.5572C273.622 68.8096 272.991 69.9455 273.243 70.9552V138.226C273.243 142.896 272.234 143.906 267.564 143.906H250.651C246.234 143.906 245.098 142.644 245.098 138.352V50.7613C245.098 49.7516 245.224 48.7419 245.477 47.7322C245.982 46.2176 247.496 45.3342 249.011 45.3342H264.787C267.059 45.3342 268.447 46.7225 269.205 48.8681C269.836 50.6351 270.214 52.2758 270.845 54.169C272.107 54.169 272.865 53.2855 273.748 52.7807C280.69 48.4895 288.01 44.8293 296.214 43.3148C302.525 42.0527 308.835 42.0527 315.146 43.3148C321.078 44.5769 326.379 48.1108 329.786 53.1593C330.039 53.5379 330.291 53.7904 330.544 54.0428C330.417 54.169 330.544 54.169 330.67 54.4214Z" fill="#00A8E1"/>
<path d="M144.129 59.2176C145.013 58.9651 145.77 58.4603 146.275 57.703C148.547 55.4312 150.945 53.2856 153.469 51.2662C160.032 46.2177 168.236 43.6935 176.439 44.3245C179.721 44.4508 180.857 45.4605 181.109 48.6158C181.362 52.907 181.235 57.3244 181.235 61.6156C181.362 63.3825 181.236 65.0233 180.983 66.7903C180.478 69.0621 179.595 69.9456 177.323 70.198C175.556 70.3242 173.915 70.198 172.148 70.0718C163.692 69.3145 155.488 70.9553 147.537 73.6057C145.77 74.2368 145.77 75.4989 145.77 76.8872V137.469C145.77 138.605 145.77 139.615 145.644 140.75C145.518 142.391 144.255 143.653 142.615 143.653C141.731 143.78 140.722 143.78 139.838 143.78H123.43C122.547 143.78 121.537 143.78 120.654 143.653C119.013 143.527 117.751 142.139 117.625 140.498C117.499 139.488 117.499 138.479 117.499 137.469V51.6448C117.499 45.8391 118.13 45.208 123.935 45.208H136.052C139.333 45.208 140.848 46.3439 141.731 49.4992C142.615 52.6545 143.372 55.8098 144.129 59.2176Z" fill="#00A8E1"/>
<path d="M193.352 94.3044V49.4991C193.478 46.4701 194.614 45.3342 197.643 45.2079C204.206 45.0817 210.769 45.0817 217.332 45.2079C220.235 45.2079 221.118 46.0914 221.371 48.9943C221.497 50.1302 221.497 51.1399 221.497 52.2758V136.333C221.497 137.721 221.371 139.11 221.245 140.498C221.118 142.139 219.856 143.275 218.216 143.401C217.458 143.527 216.827 143.527 216.07 143.527H198.526C197.895 143.527 197.391 143.527 196.76 143.401C194.993 143.275 193.478 141.886 193.352 140.119C193.226 139.11 193.226 138.1 193.226 137.09C193.352 123.081 193.352 108.693 193.352 94.3044Z" fill="#00A8E1"/>
<path d="M207.993 0.0241824C210.012 -0.10203 212.032 0.276606 213.925 0.907666C220.74 3.17948 224.274 9.11144 223.643 16.8104C223.138 23.3734 218.216 28.6743 211.653 29.684C208.876 30.1888 205.973 30.1888 203.197 29.684C196.003 28.2957 190.702 22.9948 191.207 13.9075C191.964 4.94645 197.896 0.0241824 207.993 0.0241824Z" fill="#00A8E1"/>
<path d="M98.8191 83.9552C98.3143 77.3921 96.5473 70.9553 93.8969 65.0234C88.7222 54.1691 80.7708 46.2178 68.6545 43.4411C54.7712 40.412 42.2762 43.4411 30.9172 51.8973C30.1599 52.6546 29.2764 53.2857 28.2667 53.7905C28.0143 53.6643 27.7619 53.5381 27.7619 53.4119C27.3832 52.1498 27.1308 50.8876 26.7522 49.6255C25.7425 46.4702 24.4804 45.3343 21.0726 45.3343C17.2863 45.3343 13.3737 45.4605 9.58736 45.3343C6.68449 45.2081 4.03404 45.5867 2.01465 47.8585C2.01465 92.0327 2.01465 136.333 2.14086 180.381C3.78161 183.032 6.30585 183.536 9.20872 183.41C13.7523 183.284 18.296 183.41 22.8396 183.41C28.1405 183.41 30.7909 180.802 30.7909 175.585V139.615C30.7909 138.731 30.4123 137.721 31.2958 136.964C37.6064 141.886 45.3053 144.916 53.2566 145.673C64.3633 146.809 74.4602 144.032 82.9164 136.459C89.1008 130.78 93.6444 123.459 96.0424 115.382C99.4502 105.033 99.7026 94.557 98.8191 83.9552ZM68.6545 110.081C67.771 113.994 65.7516 117.528 62.8487 120.178C59.5672 122.955 55.5285 124.595 51.2373 124.595C44.8005 124.974 38.4899 123.586 32.8103 120.557C31.422 119.926 30.5385 118.537 30.6647 117.023V94.1783C30.6647 86.6056 30.7909 79.0329 30.6647 71.4602C30.5385 69.6932 31.5482 68.1787 33.189 67.5476C40.1306 64.2661 47.3247 62.7516 54.8974 64.2661C60.1983 65.0234 64.7419 68.4311 66.8875 73.3534C68.7807 77.3921 69.9166 81.8096 70.169 86.227C70.9263 94.3045 70.9263 102.382 68.6545 110.081Z" fill="#00A8E1"/>
<path d="M441.232 102.508C450.698 104.275 460.416 104.401 469.882 102.887C475.436 102.13 480.737 100.489 485.659 97.8384C491.338 94.5569 495.503 90.0132 497.27 83.7026C501.688 67.7999 494.872 51.771 478.338 45.8391C470.261 43.1886 461.679 42.3051 453.222 43.441C433.281 45.7128 420.281 56.6933 414.349 75.7513C410.184 88.7511 410.689 102.003 414.097 115.129C418.514 131.916 429.621 141.886 446.407 145.42C455.999 147.566 465.717 147.187 475.309 145.673C480.358 144.789 485.406 143.527 490.202 141.634C493.105 140.498 494.62 138.731 494.494 135.45C494.367 132.42 494.494 129.265 494.494 126.11C494.494 122.323 492.979 121.188 489.319 122.071C485.659 122.955 482.125 123.712 478.465 124.469C470.64 126.11 462.562 126.11 454.737 124.722C444.009 122.576 437.067 113.362 437.698 102.003C438.834 102.13 440.096 102.256 441.232 102.508ZM438.077 83.1978C438.456 80.1687 439.339 77.2658 440.475 74.4892C444.261 65.2757 452.213 62.1204 460.29 62.6252C462.562 62.7515 464.834 63.2563 466.979 64.1398C470.261 65.5281 472.407 68.5572 472.785 72.0911C473.164 74.2367 473.038 76.5086 472.407 78.6542C470.892 83.1978 467.232 85.091 462.814 85.9745C460.164 86.6055 457.387 86.8579 454.611 86.6055C449.688 86.6055 444.64 86.2269 439.718 85.4696C438.456 85.3013 437.909 84.5441 438.077 83.1978Z" fill="#00A8E1"/>
<path d="M134.272 191.172C136.947 190.907 139.61 191.437 142.147 192.51C147.36 194.517 150.957 199.313 151.222 204.929C152.295 217.084 144.141 223.217 133.338 222.952C131.874 222.952 130.397 222.687 128.933 222.422C120.653 220.416 116.387 214.017 117.183 204.803C117.852 197.458 123.594 191.993 131.47 191.324C132.404 191.185 133.338 191.059 134.272 191.185V191.172Z" fill="#232F3E"/>
<path d="M54.569 315.201C55.3641 312.525 56.1719 309.988 56.967 307.325C63.1135 286.639 69.2474 266.079 75.3939 245.38L76.1891 242.982C76.858 240.584 79.1298 239.107 81.5278 239.107H101.823C106.896 239.107 107.969 240.571 106.227 245.38L98.213 266.609C89.2646 289.832 80.3288 313.194 71.3804 336.429C71.1153 337.225 70.7115 338.032 70.4464 338.827C69.5124 341.629 66.7105 343.497 63.7698 343.232C57.901 343.093 52.0195 343.093 46.1506 343.232C42.0109 343.371 39.6129 341.491 38.1362 337.755C34.8042 328.945 31.3334 319.997 27.9888 311.187C19.9743 290.223 11.8337 269.272 3.83182 248.169C3.03669 246.567 2.49398 244.699 2.0901 242.957C1.68622 240.281 2.62019 238.956 5.29588 238.956C12.9065 238.817 20.517 238.956 27.9888 238.956C31.1945 238.956 32.6586 241.089 33.4664 243.891C34.9304 248.965 36.4071 254.165 38.01 259.238C43.4876 277.791 48.8263 296.483 54.2913 315.037C54.1525 315.175 54.2913 315.175 54.5563 315.175L54.569 315.201Z" fill="#232F3E"/>
<path d="M149.089 291.17V339.232C148.824 341.907 147.625 343.106 144.95 343.232C137.743 343.371 130.663 343.371 123.456 343.232C120.78 343.232 119.581 341.895 119.316 339.358C119.177 338.563 119.177 337.616 119.177 336.821V244.434C119.316 240.294 120.376 239.095 124.516 239.095H143.738C147.878 239.095 149.077 240.294 149.077 244.434V291.157L149.089 291.17Z" fill="#232F3E"/>
<path d="M498.456 282.891V283.421C497.926 282.891 497.661 282.083 497.926 281.414V280.341C497.926 280.341 497.926 280.202 498.065 280.202H497.926V278.865H498.191C498.191 278.726 498.052 278.726 498.052 278.599C497.787 276.063 497.257 273.526 496.588 271.128C491.653 253.509 480.572 241.897 462.549 237.353C454.143 235.347 445.599 235.082 437.054 236.419C419.031 239.095 406.082 248.7 399.809 265.789C393.663 282.07 393.801 299.967 399.948 316.248C405.287 331.066 415.964 340.405 431.324 344.28C439.465 346.287 448.009 346.817 456.428 345.618C484.459 342.286 496.071 321.057 497.951 302.63H497.813V300.762C497.674 299.967 497.548 299.298 498.343 298.756V299.021C498.343 298.882 498.482 298.617 498.608 298.49V283.143C498.608 283.004 498.469 283.004 498.469 282.878L498.456 282.891ZM466.411 308.259C465.616 311.061 464.404 313.598 462.675 315.996C459.734 320.136 455.065 322.799 449.991 323.203C447.454 323.468 444.917 323.468 442.38 322.938C436.777 321.865 432.107 318.129 429.835 312.929C427.828 308.789 426.629 304.246 426.225 299.715C425.556 291.839 425.43 283.963 427.298 276.214C427.967 273.147 429.305 270.068 430.908 267.404C433.848 262.596 438.922 259.529 444.526 259.125C447.063 258.86 449.6 258.86 452.137 259.39C457.475 260.463 461.88 263.934 464.291 268.869C466.563 273.538 467.9 278.751 468.165 283.951C468.304 286.349 468.431 288.76 468.304 291.158C468.708 297.026 468.039 302.769 466.436 308.247L466.411 308.259Z" fill="#232F3E"/>
<path d="M264.434 192.119H245.881C240.807 192.119 239.873 193.053 239.873 198.126V241.379C239.873 242.313 240.277 243.247 239.608 244.181C238.409 244.042 237.74 243.247 236.806 242.717C222.923 234.577 208.371 233.1 193.692 239.915C183.419 244.724 177.007 253.395 172.867 263.681C168.866 273.563 167.932 283.976 168.197 294.515C168.197 304.397 170.469 314.141 174.874 322.95C179.948 332.694 187.293 340.165 197.971 343.371C212.523 347.915 226.141 345.643 238.561 336.43C239.495 335.899 240.025 334.965 241.236 334.688C241.905 336.152 242.435 337.755 242.7 339.358C243.23 341.491 245.098 342.967 247.37 342.967H250.576C255.385 342.967 260.054 343.106 264.724 342.967C268.46 342.967 269.533 341.768 269.659 337.894V197.18C269.52 193.04 268.46 192.106 264.447 192.106L264.434 192.119ZM239.999 290.375V314.671C240.264 316.273 239.33 317.738 237.866 318.406C231.455 322.016 224.122 323.48 216.903 322.407C210.756 321.738 205.417 318.003 202.615 312.525C200.482 308.259 199.283 303.715 198.88 299.046C197.807 290.64 198.476 282.095 200.482 273.942C201.151 271.67 201.946 269.537 203.158 267.404C205.96 262.192 211.299 258.86 217.18 258.456C224.261 257.787 231.329 259.125 237.74 262.065C239.343 262.596 240.277 264.198 240.138 265.94C239.873 274.22 239.999 282.222 239.999 290.375Z" fill="#232F3E"/>
<path d="M345.058 300.913C352.795 300.383 360.544 298.907 367.486 295.171C374.566 291.7 379.501 285.162 380.965 277.413C381.899 272.604 381.899 267.53 380.827 262.722C378.025 250.706 370.414 243.235 358.929 239.36C352.517 237.353 345.714 236.558 339.038 236.823C316.61 237.353 299.521 248.7 292.579 271.127C287.909 285.945 288.578 301.027 293.109 315.844C297.779 331.066 308.457 340.279 323.678 344.419C330.216 346.022 337.031 346.691 343.708 346.426C353.451 346.287 363.195 344.419 372.408 340.948C376.283 339.484 377.217 338.146 377.217 334.006V324.389C377.078 320.514 375.475 319.176 371.613 320.123C368.672 320.918 365.87 321.587 362.93 322.256C353.981 324.389 344.642 324.793 335.567 323.19C326.492 321.448 320.346 316.248 317.948 307.174C317.279 304.498 316.749 301.835 316.484 299.033C317.153 299.033 317.822 299.033 318.352 299.298C327.161 300.901 336.11 301.57 345.046 300.901L345.058 300.913ZM317.153 279.558C318.087 274.346 319.286 269.285 322.491 265.006C327.426 258.468 334.242 256.6 341.979 257.396C342.647 257.396 343.178 257.661 343.846 257.661C353.186 259.125 355.458 266.609 353.729 273.816C352.391 279.155 347.986 281.161 343.051 282.095C340.376 282.625 337.574 282.89 334.772 282.764C329.294 282.625 323.956 282.234 318.617 281.426C317.418 281.288 316.875 280.757 317.153 279.558Z" fill="#232F3E"/>
</svg>
