<svg width="500" height="500" viewBox="0 0 500 500" fill="none" xmlns="http://www.w3.org/2000/svg">
<path d="M63.8608 461.849C63.8608 451.194 63.8608 440.618 63.8608 429.963C63.8608 429.486 63.8608 429.088 63.8608 428.611C63.8608 427.975 64.0994 427.657 64.7355 427.737C65.0536 427.737 65.3717 427.737 65.7693 427.737C81.6727 427.737 97.6556 427.737 113.559 427.737C115.626 427.737 115.467 427.498 115.467 429.645C115.467 432.826 115.467 436.006 115.467 439.187C115.467 441.096 115.626 440.857 113.718 440.857C102.745 440.857 91.8509 440.857 80.8775 440.857C78.5715 440.857 78.8896 440.539 78.81 442.924C78.81 446.423 78.81 450.001 78.81 453.5C78.81 455.011 78.81 455.011 80.4004 455.011C90.022 455.011 99.6435 455.011 109.265 455.011C111.412 455.011 111.333 454.772 111.333 457.158C111.333 460.259 111.333 463.44 111.333 466.541C111.333 468.131 111.333 468.131 109.742 468.131C101.393 468.131 92.9641 468.131 84.6148 468.131C83.0245 468.131 81.5136 468.131 79.9233 468.131C79.1281 468.131 78.81 468.449 78.81 469.245C78.81 473.459 78.81 477.753 78.81 481.967C78.81 482.762 79.1281 483.081 79.9233 483.081C80.4004 483.081 80.798 483.081 81.2751 483.081C92.0894 483.081 102.824 483.081 113.639 483.081C115.706 483.081 115.467 482.922 115.467 484.989C115.467 488.17 115.467 491.35 115.467 494.531C115.467 496.042 115.467 496.042 113.877 496.042C108.708 496.042 103.46 496.042 98.2917 496.042C87.5569 496.042 76.8221 496.042 66.0873 496.042C65.6102 496.042 65.2126 496.042 64.7355 496.042C64.1789 496.042 63.9404 495.803 63.8608 495.247C63.8608 494.769 63.8608 494.372 63.8608 493.895C63.8608 483.16 63.8608 472.505 63.8608 461.849Z" fill="white"/>
<path d="M179.001 437.358C175.98 440.936 172.958 444.515 169.936 448.093C160.394 437.358 145.922 438.471 137.812 446.9C129.621 455.488 129.86 469.165 138.368 477.514C146.638 485.625 161.031 486.341 170.255 475.447C170.652 475.606 170.891 475.924 171.129 476.162C173.833 478.866 176.616 481.57 179.319 484.353C180.274 485.307 180.274 485.386 179.399 486.341C173.753 492.463 166.835 496.28 158.565 497.473C148.705 498.984 139.561 496.996 131.45 491.032C123.26 484.989 118.409 476.958 116.978 466.859C114.354 447.854 126.838 430.838 144.411 426.862C156.816 424.079 167.869 427.021 177.332 435.45C177.968 436.086 178.604 436.563 179.001 437.358Z" fill="white"/>
<path d="M468.284 484.035C469.875 480.616 471.227 477.514 472.658 474.413C479.496 459.384 486.255 444.356 493.094 429.327C493.332 428.77 493.571 428.214 493.889 427.657C494.843 426.226 496.592 425.749 498.183 426.544C499.614 427.26 500.33 428.929 499.853 430.52C499.694 431.076 499.376 431.633 499.137 432.19C489.993 452.387 480.848 472.584 471.624 492.861C471.386 493.338 471.227 493.815 470.988 494.213C469.636 496.28 466.694 496.201 465.342 494.213C465.104 493.815 464.945 493.418 464.786 493.02C455.721 472.505 446.656 451.989 437.511 431.554C437.114 430.599 436.796 429.645 437.114 428.611C437.511 427.339 438.704 426.305 440.056 426.226C441.408 426.067 442.759 426.862 443.396 428.293C444.668 431.076 445.861 433.859 447.133 436.722C453.892 451.989 460.651 467.336 467.489 482.603C467.728 482.922 467.887 483.24 468.284 484.035Z" fill="white"/>
<path d="M408.408 463.837C408.408 473.061 408.408 482.285 408.408 491.509C408.408 492.145 408.408 492.782 408.329 493.338C407.931 495.247 406.579 496.36 404.83 496.28C403.16 496.201 401.808 494.849 401.57 493.02C401.49 492.463 401.57 491.907 401.57 491.35C401.57 472.823 401.57 454.375 401.57 435.847C401.57 433.621 401.808 433.859 399.502 433.859C393.618 433.859 387.654 433.859 381.77 433.859C381.213 433.859 380.657 433.859 380.1 433.78C378.669 433.541 377.476 432.349 377.476 430.997C377.476 429.645 378.589 428.373 380.021 428.055C380.418 427.975 380.895 427.975 381.372 427.975C397.196 427.975 413.02 427.975 428.844 427.975C429.48 427.975 430.196 427.895 430.832 428.214C432.104 428.77 432.979 430.042 432.82 431.235C432.661 432.507 431.548 433.541 430.275 433.78C429.719 433.859 429.162 433.859 428.606 433.859C422.642 433.859 416.678 433.859 410.635 433.859C410.237 433.859 409.84 433.859 409.442 433.859C408.885 433.859 408.647 434.098 408.647 434.655C408.647 435.052 408.647 435.45 408.647 435.847C408.408 445.23 408.408 454.534 408.408 463.837Z" fill="white"/>
<path d="M288.735 473.777C289.848 473.697 290.962 473.618 291.995 473.459C304.241 471.55 313.385 459.623 310.841 446.344C308.694 435.211 298.754 427.657 288.178 427.737C277.523 427.816 266.868 427.737 256.133 427.737C253.827 427.737 254.066 427.418 254.066 429.804C254.066 451.115 254.066 472.505 254.066 493.815C254.066 494.133 254.066 494.372 254.066 494.69C254.066 495.962 254.145 495.962 255.417 496.042C258.678 496.042 261.938 496.042 265.118 496.042C266.073 496.042 267.027 496.042 267.981 496.042C268.697 496.042 269.174 495.883 269.094 495.008C269.015 494.61 269.094 494.213 269.094 493.815C269.094 487.931 269.094 482.047 269.094 476.242C269.094 475.844 268.856 475.367 269.571 474.89C269.889 475.288 270.208 475.765 270.605 476.162C276.887 482.444 283.169 488.726 289.451 495.008C290.166 495.724 290.882 496.042 291.916 496.042C297.561 495.962 303.207 496.042 308.853 496.042C309.25 496.042 309.728 496.121 310.205 495.803C302.969 488.567 295.733 481.331 288.576 474.174C288.576 474.015 288.656 473.936 288.735 473.777ZM270.685 460.975C268.856 460.975 269.015 461.054 269.015 459.225C269.015 456.522 269.015 453.739 269.015 451.035C269.015 448.172 269.015 445.23 269.015 442.368C269.015 441.493 269.333 441.254 270.208 441.254C275.853 441.254 281.499 441.175 287.145 441.254C292.234 441.334 296.448 445.946 296.369 451.274C296.289 456.681 291.995 460.975 286.509 461.054C281.181 460.975 275.933 460.975 270.685 460.975Z" fill="white"/>
<path d="M38.972 473.3C50.8995 470.676 58.8512 459.543 56.9428 447.139C55.0344 435.052 44.6177 427.657 34.2805 427.737C23.5457 427.816 12.8109 427.737 2.07606 427.737C-0.229934 427.737 0.00860967 427.498 0.00860967 429.804C0.00860967 451.194 0.00860967 472.505 0.00860967 493.895C0.00860967 494.213 0.00860967 494.531 0.00860967 494.928C-0.0709124 495.883 0.406191 496.042 1.20136 496.042C2.71218 496.042 4.22301 496.042 5.73383 496.042C8.43741 496.042 11.2205 496.042 13.9241 496.042C14.7193 496.042 15.1169 495.803 15.0373 495.008C15.0373 494.61 15.0373 494.213 15.0373 493.815C15.0373 488.09 15.0373 482.444 15.0373 476.719C15.0373 476.162 15.0373 475.685 15.0373 474.811C15.753 475.447 16.1506 475.844 16.6277 476.242C22.9095 482.444 29.1118 488.726 35.3937 495.008C36.1889 495.803 36.9045 496.121 38.0178 496.121C43.5044 496.042 48.9911 496.121 54.4778 496.121C54.9549 496.121 55.432 496.28 56.1477 495.803C48.9116 488.567 41.6755 481.331 34.2805 473.936C36.1094 473.777 37.5407 473.618 38.972 473.3ZM16.4686 460.975C15.1168 460.975 15.1169 460.975 15.1169 459.623C15.1169 456.76 15.1169 453.898 15.1169 451.115C15.1169 448.172 15.1169 445.31 15.1169 442.368C15.1169 441.493 15.3554 441.254 16.2301 441.254C21.8758 441.254 27.5215 441.175 33.1672 441.334C37.0636 441.493 39.9262 443.64 41.5165 447.139C43.1864 450.797 42.6297 454.375 40.0852 457.476C38.0973 459.862 35.5527 461.054 32.4516 461.054C27.0444 460.975 21.7168 460.975 16.4686 460.975Z" fill="white"/>
<path d="M214.068 425.987C195.382 425.987 177.888 440.857 177.888 462.088C177.888 483.319 195.382 498.427 214.068 498.03C233.471 498.348 250.169 482.365 250.249 462.247C250.328 441.811 233.55 425.987 214.068 425.987ZM227.189 478.946C216.295 487.852 200.71 483.717 194.984 470.914C193.633 467.972 193.155 465.348 193.155 461.929C193.394 453.818 196.734 447.377 203.731 443.083C212.478 437.756 223.451 439.982 230.051 447.775C237.685 457.078 236.413 471.471 227.189 478.946Z" fill="white"/>
<path d="M379.782 455.647C376.84 439.744 362.766 427.737 346.544 427.737C337.479 427.737 328.414 427.737 319.429 427.737C317.441 427.737 317.679 427.578 317.679 429.566C317.679 440.3 317.679 451.035 317.679 461.77C317.679 472.425 317.679 483.081 317.679 493.815C317.679 494.292 317.679 494.69 317.679 495.167C317.679 495.803 317.918 496.121 318.554 496.042C318.793 496.042 319.111 496.042 319.429 496.042C328.573 496.042 337.638 496.042 346.783 496.042C348.85 496.042 350.917 495.883 352.905 495.485C371.512 491.589 383.042 473.698 379.782 455.647ZM349.248 482.285C347.975 482.603 346.624 482.842 345.272 482.842C341.455 482.842 337.638 482.842 333.901 482.842C332.39 482.842 332.39 482.842 332.39 481.252C332.39 474.89 332.39 468.529 332.39 462.168C332.39 455.965 332.39 449.763 332.39 443.561C332.39 443.163 332.39 442.765 332.39 442.368C332.31 441.652 332.629 441.334 333.344 441.334C334.139 441.334 334.935 441.334 335.73 441.334C339.467 441.414 343.204 441.175 346.942 441.573C355.609 442.447 363.243 449.286 364.912 457.874C367.139 469.006 360.38 479.582 349.248 482.285Z" fill="white"/>
<path d="M117.382 53.5182C118.372 52.3859 124.076 47.7515 130.057 43.2185C172.598 10.9832 215.823 -1.59365 268.72 2.8717C309.266 6.29524 346.515 21.9863 376.643 48.3302C407.662 75.4556 430.737 113.661 428.905 134.861C428.483 139.766 426.628 143.047 419.996 150.629C409.827 162.255 401.97 165.488 390.55 162.746C383.212 160.983 381.12 159.395 354.393 135.27C338.791 121.187 318.243 104.075 308.729 97.245C245.011 51.4897 184.313 36.0642 131.156 52.1175C123.172 54.5294 116.402 56.2939 116.111 56.0393C115.819 55.7841 116.391 54.6505 117.382 53.5182ZM204.156 368.02C200.381 357.092 201.37 344.992 206.653 337.434C211.781 330.102 221.024 326.011 257.311 315.014C302.238 301.396 346.178 279.297 375.108 255.768C406.288 230.409 428.835 195.633 435.999 161.856C437.02 157.044 438.366 152.522 438.991 151.808C440.275 150.34 444.038 174.289 444.869 189.214C446.508 218.61 438.886 254.519 425.025 282.713C417.707 297.597 414.914 301.49 395.449 323.933C376.457 345.831 372.44 349.723 360.952 357.369C331.543 376.94 299.543 387.654 263.559 389.978C228.327 392.255 210.214 385.557 204.156 368.02ZM174.957 346.45C140.969 300.471 134.101 226.201 155.462 135.605C162.416 106.107 162.981 98.8914 159.216 87.6104C156.544 79.6029 155.272 78.0202 145.227 70.2109L134.178 61.6201L142.705 59.4651C153.421 56.7569 179.14 55.6067 192.637 57.2328C203.357 58.5247 236.284 68.5188 239.487 69.7167C255.184 75.5883 268.654 81.1583 282.077 91.4822C291.111 98.4303 306.587 108.596 338.82 135.696C381.345 171.447 382.428 172.247 390.059 173.497C399.73 175.081 411.373 172.207 418.203 166.549C421.056 164.185 423.839 162.645 424.389 163.126C425.955 164.496 419.997 181.393 413.07 195.22C404.905 211.517 383.936 236.039 366.367 249.834C335.361 274.181 287.097 297.003 239.342 309.897C204.732 319.243 191.661 331.379 191.733 354.101L191.767 364.879L186.765 360.267C184.014 357.73 178.7 351.512 174.957 346.45ZM96.0219 316.404C71.7417 284.099 57.7412 247.229 55.302 209.164C52.7147 168.802 63.0448 128.196 84.1552 95.7436C98.1814 74.1821 108.541 67.8776 124.558 71.1555C136.679 73.6358 144.46 79.3846 148.464 88.8216C152.379 98.0493 151.754 107.231 145.369 134.29C120.114 241.303 132.637 320.625 182.627 370.28C189.606 377.212 194.032 382.611 192.805 382.693C188.672 382.968 160.074 370.237 147.047 362.321C129.315 351.548 108.063 332.422 96.0219 316.404Z" fill="white"/>
</svg>
