<svg width="500" height="500" viewBox="0 0 500 500" fill="none" xmlns="http://www.w3.org/2000/svg">
<path fill-rule="evenodd" clip-rule="evenodd" d="M440.942 206.433C421.724 235.011 360.971 306.05 253.683 305.45C143.79 304.836 86.8274 235.149 67.6424 207.955C62.818 201.123 62.5788 194.875 67.5616 187.599C86.8274 159.46 146.251 89.0887 253.43 89.0001C362.957 88.9011 424.76 162.867 440.748 187.912C445.465 195.3 445.465 199.544 440.942 206.433ZM253.793 101.7C182.408 101.7 135.163 160.015 135.163 197.789C135.163 233.593 181.421 293.865 254.363 293.865C329.542 293.865 374.75 232.795 374.045 197.789C374.514 159.225 325.331 101.7 253.793 101.7Z" fill="#FFC20F"/>
<path fill-rule="evenodd" clip-rule="evenodd" d="M254.016 281.424C301.156 281.424 339.373 243.85 339.373 197.502C339.373 151.155 301.156 113.582 254.016 113.582C206.872 113.582 168.655 151.155 168.655 197.502C168.655 243.85 206.872 281.424 254.016 281.424Z" fill="#008C45"/>
<path d="M390.581 329.933C367.598 329.906 355.966 330.014 355.966 330.014L339.313 410.029H401.861C401.861 410.029 440.7 409.182 446.597 375.714C448.724 363.603 461.724 328.144 417.335 330.014C407.162 329.965 398.242 329.942 390.581 329.933ZM117.946 330.017C95.4248 329.97 66.1389 330.158 66.1389 330.158L50 408.18H115.519C115.519 408.18 132.321 409.193 139.063 400.943C136.363 405.664 134.174 409.192 134.174 409.192H169.666L176.559 397.924H205.803V409.192H267.008L275.756 369.676L298.621 409.192H332.922L351.08 330.158H317.627L310.386 371.531L289.543 330.158H252.891L238.76 394.728L224.641 330.158H186.301L151.324 385.315C151.324 385.315 157.555 369.841 144.946 365.798C151.325 361.771 157.719 357.728 156.875 344.621C157.041 341.423 155.865 330.489 136.876 330.158C132.208 330.075 125.453 330.033 117.946 330.017ZM91.9749 349.818C91.9749 349.818 112.156 350.015 117.359 349.83C122.578 349.664 121.671 351.519 121.671 353.872V353.876C121.731 360.09 116.016 359.094 116.016 359.094H90.6315L91.9749 349.818ZM383.28 351.009C383.28 351.009 394.29 351.341 406.597 351.009C420.186 352.14 414.849 371.403 413.386 375.777C406.599 392.126 376.644 387.434 376.644 387.434L383.28 351.009ZM199.589 355.048L204.46 382.12H185.637L199.589 355.048ZM86.4547 376.764C86.4547 376.764 109.576 376.991 115.549 376.8C121.522 376.603 120.495 378.729 120.495 381.414C120.551 388.541 114.011 387.398 114.011 387.398H84.9168L86.4547 376.764Z" fill="#008C45" fill-opacity="0.980392"/>
</svg>
