<svg width="500" height="500" viewBox="0 0 500 500" fill="none" xmlns="http://www.w3.org/2000/svg">
<g clip-path="url(#clip0_38_1189)">
<path d="M144.31 116.071C150.472 116.509 156.605 117.71 162.681 118.817C172.358 121.247 181.576 124.49 189.499 130.738C195.934 135.153 200.413 141.602 203.203 148.821C203.936 151.186 206.05 151.934 207.869 153.379C212.154 156.262 215.282 159.519 220.2 161.216C224.83 162.647 229.122 164.049 233.99 162.719C238.153 162.108 240.403 159.39 243.783 157.312C243.926 160.849 243.984 164.43 243.79 167.967C242.985 173.525 241.195 178.86 238.592 183.836C239.455 185.065 240.31 186.302 241.144 187.553C240.749 187.768 240.353 187.977 239.951 188.185C237.312 187.991 234.731 187.819 232.085 188.185C231.97 189.35 231.862 190.515 231.725 191.673C231.114 196.109 230.359 200.207 230.942 204.751C231.431 207.03 232.804 209.187 233.818 211.279C234.645 212.933 235.435 214.601 236.176 216.291L236.384 216.837C237.779 223.761 240.008 230.354 241.985 237.106C242.834 241.189 243.193 245.295 243.265 249.465C243.323 256.597 243.524 263.816 242.985 270.934C242.079 277.915 240.425 284.681 238.556 291.461C237.362 295.617 238.736 299.068 238.75 303.231C238.879 306.416 238.477 309.537 238.096 312.686C237.636 315.555 237.247 318.438 236.852 321.321L238.067 320.854C240.296 320.178 241.691 318.316 243.459 316.82C243.848 319.229 243.891 321.558 243.344 323.952C240.015 329.115 236.5 334.356 232.459 338.987C229.878 342.193 226.851 344.875 224.715 348.448C221.336 353.877 216.828 358.176 212.255 362.584C200.967 372.693 186.3 379.308 171.589 382.579C165.499 384.103 159.222 385.074 152.931 384.923C147.409 384.822 141.722 385.246 136.33 384.384C131.498 383.959 126.767 384.578 121.95 383.636C83.4552 380.07 47.441 357.594 27.3092 324.585C23.8078 318.999 20.4932 313.355 18.1853 307.15C17.2434 304.367 15.0001 303.447 12.9726 301.57C5.46632 295.027 1.43997 285.717 0.181741 275.974C-0.335931 267.569 0.0738947 259.517 3.78389 251.809C5.04212 248.911 7.06967 246.56 8.6155 243.857C9.4711 241.441 9.34168 238.5 9.78746 235.991C12.3543 222.381 16.7904 208.907 23.362 196.698C27.5537 189.616 32.0258 182.434 37.3607 176.193C39.6112 173.259 42.178 171.447 43.6879 168.097C51.9419 150.877 66.1132 137.295 82.5061 127.812C91.3497 122.621 101.854 119.809 111.884 118.055C122.518 115.848 133.511 115.905 144.31 116.071Z" fill="#030202"/>
<path d="M133.519 121.17C138.135 120.875 142.586 121.638 147.201 121.659C156.088 121.86 163.954 124.449 172.237 127.325C174.926 128.288 177.449 129.575 179.851 131.114C175.292 130.977 171.144 129.187 166.542 128.425C160.23 127.016 154.363 127.569 147.899 127.505C141.068 127.505 134.878 129.129 128.263 130.539C120.642 132.271 113.876 135.478 106.65 138.275C100.553 140.698 94.9596 144.034 89.6391 147.838C85.0303 150.865 80.702 154.15 77.1646 158.421C73.7422 162.613 69.8309 166.855 67.3432 171.615C65.481 175.109 63.6835 178.661 62.1736 182.328C60.901 185.426 60.2539 188.662 59.1251 191.804C56.5799 198.304 55.9472 205.925 55.3073 212.827C55.0484 215.221 54.8975 217.594 54.8687 220.003C51.8345 219.37 48.937 218.788 45.8022 219.003C43.3217 219.176 40.8412 219.399 38.3535 219.442C38.1234 215.473 38.7489 211.605 38.9071 207.658C38.9359 201.194 40.2013 194.709 41.9053 188.489C43.825 182.594 45.3061 176 48.3259 170.622C50.9286 165.683 54.0059 161.045 57.2917 156.537C61.9723 150.311 67.7242 145.544 73.6272 140.569C78.8327 136.478 83.9087 132.458 90.0561 129.834C97.7205 126.8 105.586 124.787 113.603 122.961C120.225 121.551 126.818 121.738 133.519 121.17Z" fill="#656565"/>
<path d="M140.334 134.795C147.136 134.248 153.837 133.91 160.624 134.802C166.405 135.578 172.02 138.505 177.247 141.115C181.187 144.206 185.005 147.586 188.578 151.101C190.98 153.316 193.726 154.977 195.862 157.5C199.198 161.498 203.325 163.806 207.596 166.675C210.802 168.645 213.801 171.147 217.367 172.204C221.968 173.685 226.383 173.484 231.143 173.44C231.064 173.958 230.985 174.483 230.905 175.008C225.944 176.834 220.192 178.38 214.879 177.733C210.529 176.935 206.373 174.857 202.232 173.325C197.631 171.571 194.575 168.422 190.757 165.452C187.867 163.109 184.761 161.369 181.532 159.542C177.52 157.22 172.581 156.12 168.116 154.919C164.118 153.798 160.372 155.121 156.346 154.358C158.093 152.511 160.193 152.561 162.522 152.058C164.83 151.677 167.023 150.965 169.173 150.037C164.233 146.838 158.122 145.206 152.334 144.436C144.066 143.365 136.617 145.292 128.471 146.047C123.229 146.529 118.772 148.815 113.602 149.836C109.317 150.728 105.413 152.525 101.602 154.624C101.437 155.559 101.293 156.494 101.12 157.429C98.4171 157.81 95.4836 158.076 92.9168 159.025C92.5142 160.707 94.0241 162.684 94.628 164.223C91.8527 163.569 89.3434 162.31 86.525 163.439C84.1092 164.302 82.132 164.913 79.5508 164.273C81.2835 161.433 83.8288 159.672 86.1367 157.371C91.7736 151.662 98.5537 147.269 105.988 144.257C112.596 141.021 119.57 138.792 126.659 136.887C131.189 135.729 135.69 135.24 140.334 134.795Z" fill="#413B37"/>
<path d="M316.169 141.906C322.87 142.56 329.305 144.774 334.77 148.736C337.94 151.54 341.14 154.186 343.031 157.961C338.156 160.671 333.346 163.497 328.428 166.114C326.092 163.583 324.078 161.175 320.757 159.909C318.032 158.701 315.429 159.039 312.524 158.975C306.326 158.68 300.309 162.742 297.735 168.307C295.75 172.139 296.203 176.166 296.304 180.35C296.368 183.557 297.965 186.26 299.733 188.827C303.242 193.493 308.936 195.701 314.71 195.19C320.57 195.42 325.035 192.228 328.479 187.799C332.9 190.114 337.207 192.695 341.471 195.284C342.168 195.636 342.945 196.463 342.398 197.246C336.28 206.787 324.546 212.532 313.265 211.756C305.478 212.129 297.9 209.419 291.753 204.71C286.238 199.885 281.838 194.119 280.134 186.871C278.674 181.795 278.976 176.877 279.177 171.643C279.717 167.401 281.054 163.209 283.081 159.449C285.102 155.761 288.194 152.504 291.314 149.721C298.267 143.962 307.211 141.431 316.169 141.906Z" fill="#020202"/>
<path d="M475.017 142.709C480.61 142.637 486.226 142.601 491.819 142.738C490.288 145.614 488.066 147.829 486.103 150.395C484.55 152.294 483.127 154.371 481.394 156.104C476.512 156.694 471.299 156.313 466.36 156.255C467.942 152.531 470.156 149.216 472.018 145.628C472.752 144.457 473.37 142.695 475.017 142.709Z" fill="#050505"/>
<path d="M368.595 161.742C365.651 161.745 362.663 162.027 360.281 163.38C355.198 166.062 351.157 170.462 349.115 175.861C347.454 179.485 348.007 182.915 347.9 186.776C347.971 190.428 347.598 193.772 349.029 197.223C351.236 202.975 355.658 208.066 361.496 210.309C365.472 212.135 369.455 211.847 373.719 211.602C377.515 211.099 380.19 209.022 383.174 206.865C383.289 207.979 383.396 209.101 383.504 210.215C388.724 210.344 393.966 210.323 399.193 210.23C399.143 195.692 399.157 181.161 399.178 166.63C399.034 165.12 399.567 163.818 398.114 162.826C393.297 162.682 388.458 162.848 383.634 162.747C383.454 163.847 383.282 164.94 383.109 166.04C380.284 164.444 377.062 161.769 373.704 161.87C372.111 161.84 370.361 161.741 368.595 161.742ZM372.674 176.216C374.013 176.205 375.372 176.347 376.573 176.451C380.736 177.803 383.77 182.397 383.367 186.776C383.662 190.148 382.037 193.347 379.341 195.317C375.085 198.244 368.678 197.899 365.443 193.6C362.948 190.558 362.906 186.956 363.524 183.246C364.2 180.535 366.522 178.241 368.894 176.904C370.016 176.394 371.335 176.228 372.674 176.216Z" fill="#020202"/>
<path d="M474.706 161.728C470.836 161.714 466.957 162.111 463.636 163.846C455.483 167.923 449.551 176.758 450.134 186.055C449.803 191.469 450.996 196.718 454.146 201.176C458.229 207.366 465.556 211.162 472.861 211.687C477.88 211.716 482.416 212.184 487.19 210.315C491.317 208.963 494.531 206.532 497.321 203.254C494.66 200.752 491.727 198.897 488.693 196.869C487.873 196.38 486.895 195.61 485.918 195.596C484.437 196.15 483.093 197.085 481.669 197.775C477.262 200.45 470.762 198.903 467.469 195.092C466.527 194.093 466.562 192.777 466.332 191.483C474.263 191.418 482.2 191.534 490.138 191.483C493.769 191.361 496.868 192.275 499.989 189.895C499.953 186.027 500.284 181.612 498.961 177.945C496.595 170.029 489.65 163.601 481.539 161.998C479.347 161.892 477.028 161.736 474.706 161.728ZM475.737 174.813C476.956 174.805 478.175 174.879 479.339 175.048C481.935 176.263 484.048 178.419 484.422 181.367C478.419 181.461 472.387 181.562 466.397 181.353C466.987 178.513 469.294 175.81 472.134 175.069C473.299 174.911 474.519 174.821 475.737 174.813Z" fill="#020202"/>
<path d="M409.224 162.999C410.726 162.697 412.373 162.74 413.904 162.74C424.552 162.841 435.208 162.683 445.856 162.819C445.856 166.443 446.172 170.16 445.777 173.762C443.563 177.293 440.694 180.42 438.278 183.828C435.402 187.804 432.008 191.507 429.521 195.749C435.28 195.929 441.039 195.742 446.798 195.879C446.834 200.682 446.784 205.484 446.834 210.287C438.501 210.273 430.161 210.251 421.828 210.295C407.786 210.036 421.828 210.295 407.786 210.036C407.951 206.649 407.563 203.141 408.03 199.79C409.08 197.655 410.87 195.714 412.315 193.815C415.464 189.767 418.391 185.533 421.698 181.607C422.834 180.241 423.754 178.731 424.624 177.185C419.484 177.02 414.336 177.142 409.195 177.106C409.202 172.411 409.08 167.694 409.224 162.999Z" fill="#020202"/>
<path d="M150.773 174.872C155.821 175.009 161.019 174.563 165.901 175.484C171.574 176.425 177.678 177.396 182.977 179.661C186.399 181.12 190.066 182.58 193.158 184.665C195.89 186.47 198.629 188.404 201.707 189.59C205.086 190.892 208.501 191.359 212.075 191.769C208.293 194.839 203.058 193.66 198.507 193.717C198.874 200.26 200.93 206.494 201.031 213.036C198.421 213.008 195.761 213.087 193.179 212.742C191.13 212.425 190.49 210.836 189.11 209.535C188.031 208.377 186.629 207.781 185.256 207.026C182.078 208.385 181.481 211.066 179.382 213.346C175.773 214.906 170.438 214.999 166.886 217.322C166.088 218.659 166.505 220.694 166.102 222.225C165.218 223.44 163.787 223.886 162.328 223.872C159.25 224.087 156.274 222.772 153.642 221.305C151.665 220.269 151.651 216.905 149.58 216.042C147.02 214.956 144.065 214.661 141.347 214.072C136.811 213.108 132.022 214.043 127.528 213.346C124.768 211.893 123.179 208.55 120.36 207.04C118.318 206.077 116.003 206.335 114.385 207.968C111.797 210.196 111.833 213.216 110.215 215.912C109.352 216.552 108.195 216.861 107.188 217.235C101.192 219.177 95.4974 222.067 90.1769 225.432C88.1853 226.546 88.0487 228.387 87.2722 230.335C84.274 230.134 81.2973 229.724 78.3423 229.214C78.4358 227.783 78.3783 226.316 78.5652 224.893C80.5712 221.636 84.2236 219.378 86.4094 216.229C86.5819 214.927 86.0283 213.928 85.6472 212.72C83.9504 213.324 81.4555 215.948 79.7156 214.611C81.3549 212.497 83.2458 210.484 84.6694 208.219C86.2009 205.027 82.4549 199.721 85.7623 197.226C89.0337 194.22 92.9162 191.797 96.7412 189.547C108.432 182.803 121.647 178.568 134.956 176.497C140.341 175.958 145.309 174.678 150.773 174.872Z" fill="#FADEB9"/>
<path d="M71.3759 178.543C73.7055 178.895 74.7983 180.491 76.1213 182.217C73.1734 181.958 70.7145 181.311 68.0542 180.016C69.0752 179.391 70.0674 178.161 71.3759 178.543Z" fill="#303030"/>
<path d="M239.951 188.185C240.354 187.977 240.749 187.768 241.145 187.553C246.084 195.001 250.398 203.018 253.562 211.387C256.675 219.116 258.379 227.032 260.277 235.1C261.248 247.035 261.636 258.956 260.78 270.912C260.263 278.088 258.329 284.897 257.358 292.008C254.216 303.404 249.557 313.908 243.345 323.952C243.891 321.558 243.848 319.229 243.46 316.82C241.691 318.316 240.296 320.178 238.068 320.854C239.412 318.179 240.656 315.476 242.18 312.887C250.88 296.214 255.769 277.534 255.575 258.675C255.525 253.175 255.733 247.998 254.784 242.606C254.259 238.148 253.576 233.87 252.102 229.606C251.642 227.493 251.204 225.379 250.6 223.301C249.356 217.837 246.969 212.883 245.049 207.656C244.308 205.765 243.136 204.269 241.943 202.659C240.706 197.942 237.924 194.433 235.019 190.637C233.912 190.946 232.819 191.313 231.726 191.673C231.863 190.515 231.971 189.35 232.086 188.185C234.731 187.819 237.313 187.991 239.951 188.185Z" fill="#050A08"/>
<path d="M499.987 189.896C499.958 190.86 499.886 191.816 499.821 192.78C492.753 192.701 485.693 192.772 478.633 192.794C474.786 192.816 471.04 192.614 467.201 192.902C468.006 194.203 468.574 195.461 469.926 196.288C473.312 198.517 477.813 197.978 481.667 197.777C477.259 200.451 470.76 198.905 467.467 195.095C466.525 194.095 466.561 192.78 466.331 191.485C474.261 191.421 482.199 191.536 490.136 191.485C493.767 191.363 496.866 192.276 499.987 189.896Z" fill="black"/>
<path d="M235.018 190.639C237.923 194.435 240.706 197.944 241.942 202.66C240.677 204.343 239.605 206.399 238.009 207.794C236.895 208.29 235.651 208.556 234.472 208.879C234.256 209.678 234.033 210.483 233.818 211.281C232.804 209.189 231.431 207.032 230.942 204.752C230.359 200.208 231.114 196.11 231.725 191.674C232.818 191.315 233.911 190.948 235.018 190.639Z" fill="#5E2BDF"/>
<path d="M194.259 198.904C194.266 200.206 194.273 201.514 194.295 202.816C193.267 203.154 192.275 203.801 191.167 203.499C186.94 202.614 183.237 201.097 178.801 201.371C175.817 201.299 172.668 202.931 169.777 202.327C168.792 201.198 169.073 199.393 168.965 197.97C176.924 195.036 186.422 195.935 194.259 198.904Z" fill="#160702"/>
<path d="M113.4 197.77C120.626 196.699 127.974 197.058 135.064 198.82C135.387 199.366 135.703 199.92 136.027 200.466C135.646 201.574 135.272 202.688 134.913 203.802C131.253 203.953 127.823 202.753 124.178 202.774C120.849 202.738 117.427 202.602 114.134 203.112C111.545 203.565 108.986 205.305 106.376 205.298C104.499 204.953 104.456 202.746 104.226 201.243C107.246 199.747 110.014 198.273 113.4 197.77Z" fill="#170903"/>
<path d="M30.2921 203.119C30.6012 208.001 30.213 212.811 30.7306 217.679C30.9679 220.044 31.0326 222.402 30.9679 224.775C29.6522 225.516 28.3364 226.249 27.0566 227.054C24.2094 228.78 22.1459 231.246 19.0039 232.54C19.3203 224.631 22.757 216.442 25.7408 209.173C26.9703 206.7 27.4305 204.162 30.2921 203.119Z" fill="#914354"/>
<path d="M241.943 202.66C243.136 204.271 244.308 205.766 245.049 207.657C245.214 211.346 244.201 214.552 242.576 217.809C239.412 217.644 238.334 215.494 236.45 213.38C236.342 214.351 236.249 215.322 236.177 216.292C235.436 214.603 234.645 212.935 233.818 211.281C234.034 210.483 234.257 209.677 234.473 208.879C235.652 208.556 236.896 208.29 238.01 207.794C239.606 206.399 240.678 204.343 241.943 202.66Z" fill="#4D4EE0"/>
<path d="M120.361 207.039C123.179 208.549 124.768 211.892 127.529 213.345C132.023 214.042 136.811 213.107 141.348 214.071C144.066 214.66 147.021 214.955 149.58 216.041C151.651 216.904 151.665 220.269 153.643 221.304C156.274 222.771 159.251 224.086 162.328 223.871C163.788 223.885 165.218 223.439 166.103 222.224C166.505 220.693 166.088 218.658 166.886 217.321C170.438 214.998 175.773 214.905 179.383 213.345C181.482 211.066 182.079 208.384 185.257 207.025C186.63 207.78 188.032 208.376 189.11 209.534C190.491 210.835 191.131 212.424 193.18 212.741C195.761 213.086 198.421 213.007 201.031 213.036L201.039 214.193C198.86 214.409 196.581 214.675 194.395 214.43C192.087 214.157 189.887 212.834 187.586 212.734C184.689 213.582 182.402 216.472 180.562 218.73C181.072 219.37 181.583 220.01 182.093 220.65C181.403 220.722 180.713 220.786 180.023 220.844C177.909 221.002 174.069 220.901 172.962 223.087C173.271 228.846 174.997 234.692 175.594 240.386C174.846 240.566 174.098 240.753 173.35 240.932C173.056 241.723 172.761 242.507 172.466 243.298C171.582 242.996 170.697 242.73 169.82 242.435C169.159 241.91 168.497 241.385 167.85 240.846C167.095 239.653 166.333 238.466 165.549 237.287C166.369 236.575 167.203 235.871 168.008 235.13C167.757 233.433 167.534 231.736 167.275 230.04C162.939 230.327 158.82 230.363 154.549 229.364C154.635 233.929 155.714 238.322 155.469 242.91C153.434 243.938 151.392 244.93 149.25 245.706C148.862 241.659 148.538 237.575 147.862 233.563C147.474 229.81 146.604 226.193 145.871 222.512C140.917 220.606 135.862 220.635 130.642 220.779C131.117 222.728 131.728 224.626 132.425 226.502C129.111 229.666 125.674 232.276 122.762 235.734C126.76 237.287 130.822 238.574 134.654 240.544C134.777 245.333 134.784 250.236 134.05 254.974C133.274 258.62 132.023 263.552 128.478 265.471C127.141 265.587 125.523 265.766 124.258 265.234C122.036 264.113 120.188 262.028 118.722 260.05C115.026 254.471 112.272 247.863 111.424 241.198C111.273 241.328 111.136 241.464 111.007 241.608C110.108 235.871 109.411 230.162 109.411 224.345C108.612 224.46 107.822 224.597 107.038 224.798C103.285 225.568 99.6467 227.523 96.3465 229.436C95.1099 230.27 93.4706 231.147 93.5137 232.858C92.9241 242.672 96.3681 251.077 100.79 259.59C99.0212 260.475 97.6048 261.495 95.5197 260.971C94.6138 260.791 94.0458 259.748 93.5784 259.029C89.9044 252.163 88.4664 244.88 87.3663 237.251C84.5479 236.676 81.6935 236.453 78.8175 236.388C78.7744 238.783 78.7385 241.141 78.9254 243.535C78.5084 241.781 77.66 239.645 78.077 237.862C78.7816 235.655 80.0326 233.591 81.0176 231.499C79.7882 231.528 78.5659 231.564 77.3364 231.607C77.6815 230.809 78.0267 230.025 78.343 229.213C81.2981 229.723 84.2747 230.133 87.2729 230.334C88.0494 228.386 88.186 226.545 90.1776 225.431C95.4981 222.066 101.193 219.176 107.189 217.234C108.195 216.861 109.353 216.551 110.216 215.912C111.834 213.215 111.798 210.196 114.386 207.967C116.004 206.335 118.319 206.076 120.361 207.039Z" fill="#070403"/>
<path d="M245.049 207.655C246.969 212.882 249.356 217.836 250.6 223.3C248.011 223.466 245.596 223.092 243.086 222.524C242.159 224.091 241.353 225.752 240.534 227.377C239.383 223.732 238.449 220.115 236.385 216.837L236.177 216.29C236.249 215.32 236.342 214.349 236.45 213.378C238.334 215.492 239.412 217.642 242.576 217.807C244.201 214.55 245.214 211.344 245.049 207.655Z" fill="#4B6ED4"/>
<path d="M28.338 208.72C29.0426 212.423 29.5028 216.197 29.8551 219.95C29.8838 221.086 30.0995 222.582 29.3446 223.531C27.4321 226.04 24.2973 227.342 21.4501 228.463C21.2344 224.653 21.8599 221.798 23.3698 218.34C24.8725 215.032 25.5124 211.028 28.338 208.72Z" fill="#EA456B"/>
<path d="M236.384 216.835C238.448 220.114 239.382 223.73 240.533 227.375C241.058 229.108 241.525 230.819 241.77 232.61C241.863 234.112 241.885 235.608 241.985 237.103C240.008 230.352 237.779 223.759 236.384 216.835Z" fill="#29496E"/>
<path d="M195.099 219.848C199.054 219.711 203.519 220.509 206.855 222.731C207.977 224.413 208.286 226.729 208.696 228.677C209.307 232.387 210.069 236.248 209.889 240.015C209.99 242.503 206.956 243.467 205.568 245.235C204.705 247.572 205.446 250.355 206.057 252.663C205.554 252.454 205.043 252.26 204.533 252.066C204.353 250.563 204.187 249.068 204.08 247.565C204.245 246.393 204.065 244.79 205.137 244.035C206.222 243.071 207.488 242.295 208.688 241.475C208.882 236.19 208.624 231.007 207.293 225.866C206.992 224.909 206.661 223.651 205.776 223.076C203.138 221.293 199.442 220.761 196.343 220.387C196.315 221.732 196.336 223.083 196.351 224.428C194.107 225.981 191.958 227.62 189.909 229.41C192.641 230.374 195.402 231.273 198.134 232.243C198.536 237.355 198.328 242.072 197.379 247.112C196.48 249.456 194.826 253.022 191.821 252.821C188.808 252.663 186.457 249.398 184.868 247.148C180.842 239.189 179.001 230.575 178.656 221.696C177.06 221.767 175.435 222.321 173.925 222.824C173.954 228.965 175.543 234.501 176.844 240.591C176.082 241.374 175.32 242.158 174.558 242.942C176.514 244.926 178.628 246.724 180.691 248.586C182.036 250.009 183.215 251.562 184.48 253.051C180.001 250.074 177.276 245.257 172.466 243.294C172.761 242.503 173.055 241.719 173.35 240.929C174.098 240.749 174.846 240.562 175.593 240.382C174.997 234.688 173.271 228.842 172.962 223.083C174.069 220.898 177.909 220.998 180.022 220.84C179.548 226.161 180.217 231.308 181.662 236.421C182.906 240.569 183.97 244.459 186.508 248.039C187.795 249.858 189.441 251.893 191.85 252.037C193.77 252.246 195.423 250.132 195.998 248.514C197.623 243.639 197.278 237.787 197.12 232.703C194.266 231.726 191.39 230.863 188.571 229.799C190.505 227.512 192.885 225.815 195.222 223.982C195.157 222.602 195.078 221.228 195.099 219.848Z" fill="#7A7673"/>
<path d="M196.345 220.39C199.443 220.764 203.139 221.296 205.778 223.079C206.662 223.654 206.993 224.912 207.295 225.868C208.625 231.009 208.884 236.193 208.69 241.478C207.489 242.297 206.224 243.074 205.138 244.037C204.067 244.792 204.246 246.396 204.081 247.567C201.672 247.409 199.594 248.121 197.402 249.02C197.387 248.387 197.38 247.754 197.38 247.115C198.329 242.074 198.538 237.358 198.135 232.246C195.403 231.275 192.642 230.376 189.91 229.413C191.959 227.623 194.109 225.983 196.352 224.43C196.337 223.086 196.316 221.734 196.345 220.39Z" fill="#FCFCFC"/>
<path d="M130.641 220.776C135.861 220.632 140.916 220.603 145.87 222.508C146.603 226.19 147.473 229.806 147.861 233.559C147.847 237.643 147.782 241.691 148.386 245.746C149.4 246.149 150.406 246.551 151.42 246.947C151.039 248.277 150.996 249.672 149.867 250.607C148.436 251.735 146.15 251.872 144.424 252.354C140.729 253.101 137.457 255.906 134.222 257.847C134.15 256.891 134.093 255.934 134.049 254.971C134.783 250.233 134.776 245.329 134.653 240.541C130.821 238.571 126.759 237.284 122.761 235.731C125.673 232.272 129.11 229.662 132.424 226.499C131.727 224.622 131.116 222.724 130.641 220.776Z" fill="#FCFBFB"/>
<path d="M178.657 221.698C179.002 230.578 180.842 239.191 184.869 247.151C184.783 247.611 184.689 248.078 184.603 248.538C183.294 248.538 181.993 248.553 180.691 248.589C178.628 246.726 176.514 244.929 174.559 242.944C175.321 242.161 176.083 241.377 176.845 240.593C175.544 234.503 173.955 228.967 173.926 222.827C175.436 222.324 177.061 221.77 178.657 221.698Z" fill="#FDFAF9"/>
<path d="M243.085 222.523C245.594 223.091 248.01 223.465 250.598 223.3C251.202 225.378 251.641 227.492 252.101 229.605C248.693 230.741 245.184 231.496 241.769 232.611C241.524 230.821 241.057 229.109 240.532 227.377C241.352 225.752 242.157 224.091 243.085 222.523Z" fill="#3391CA"/>
<path d="M109.41 224.345C109.41 230.161 110.107 235.87 111.006 241.608C111.135 241.464 111.272 241.327 111.423 241.198C112.271 247.863 115.025 254.47 118.721 260.05C118.57 260.869 118.419 261.696 118.268 262.516C112.358 261.552 106.728 262.919 100.832 262.732C100.89 262.085 100.94 261.437 100.983 260.79C101.293 257.505 99.1212 254.801 97.942 251.796C95.4831 245.893 94.0019 239.199 94.5268 232.8C94.5987 231.175 96.238 230.456 97.4243 229.687C100.588 227.976 103.91 226.588 107.037 224.798C107.821 224.596 108.612 224.46 109.41 224.345Z" fill="#FEFDFC"/>
<path d="M107.037 224.799C103.909 226.589 100.587 227.977 97.4238 229.688C96.2375 230.457 94.5982 231.176 94.5263 232.801C94.0014 239.2 95.4825 245.894 97.9415 251.797C99.1206 254.802 101.292 257.506 100.983 260.791C99.0271 261.201 96.1656 262.323 94.3034 261.359C92.3909 259.303 91.4274 256.233 90.3777 253.666C88.3357 248.511 87.5952 243.162 86.7468 237.726C84.5107 237.547 82.2675 237.482 80.0242 237.503C79.8157 242.091 79.8301 246.44 81.6779 250.733C83.8708 255.931 85.1722 261.381 86.1284 266.924C87.1782 275.286 86.5742 283.583 84.7696 291.794C84.0721 296.008 82.8211 299.128 80.4628 302.673C87.1063 286.409 87.6383 267.219 80.9445 250.891C80.0602 248.475 79.5281 246.023 78.9242 243.536C78.7372 241.141 78.7732 238.783 78.8163 236.389C81.6923 236.454 84.5467 236.677 87.3651 237.252C88.4652 244.88 89.9031 252.164 93.5772 259.03C94.0445 259.749 94.6125 260.791 95.5185 260.971C97.6035 261.496 99.0199 260.475 100.789 259.591C96.3669 251.078 92.9229 242.673 93.5125 232.859C93.4693 231.148 95.1086 230.27 96.3453 229.436C99.6455 227.524 103.284 225.568 107.037 224.799Z" fill="#7D7267"/>
<path d="M40.0861 226.198C46.8518 226.313 53.9914 229.427 58.1687 234.862C54.0921 232.245 49.9219 228.557 45.2125 227.485C41.6248 226.651 37.8285 226.313 34.3702 227.823C30.5811 229.542 27.0652 231.238 24.6566 234.79C27.511 234.927 30.3654 234.97 33.227 235.049C33.1766 236.156 33.1191 237.264 33.0688 238.378C34.2335 238.141 35.3983 237.911 36.5631 237.666C40.0286 239.701 43.2353 241.764 45.8309 244.899C45.2916 245.194 44.7596 245.489 44.2203 245.784C41.5097 243.202 38.5906 240.88 35.2833 239.111C35.8728 239.917 36.4624 240.722 37.0879 241.491C32.3929 238.464 26.8064 238.414 22.3486 235.071C24.9945 232.525 27.813 229.951 30.9406 228.017C33.5649 226.364 37.0664 226.141 40.0861 226.198Z" fill="#343635"/>
<path d="M45.2117 227.486C49.9211 228.558 54.0912 232.246 58.1679 234.863C60.4255 237.229 62.5537 239.68 64.2649 242.477C66.5945 246.266 69.3913 250.206 70.7574 254.434C71.9653 258.079 72.7706 261.876 73.5471 265.629C74.5825 270.525 74.2302 275.939 74.2373 280.965C74.2158 286.307 73.166 291.095 70.9228 295.934C68.5429 301.269 65.6814 306.805 61.1229 310.616C58.8725 312.334 56.3057 313.83 53.6455 314.808C50.5682 315.103 47.419 315.174 44.3489 314.822C41.4442 314.47 39.129 313.161 36.5982 311.853C34.6282 310.616 32.8882 309.106 31.2058 307.51C35.3184 304.706 39.4526 303.304 42.7959 299.529C49.1158 292.195 52.0924 282.655 51.7976 273.027C51.395 266.262 50.4388 259.697 47.268 253.6C44.9457 248.689 41.3004 244.843 37.0871 241.492C36.4616 240.723 35.872 239.918 35.2824 239.112C38.5898 240.881 41.5089 243.203 44.2195 245.785C55.1697 259.381 56.7803 279.865 48.4328 295.136C45.7078 300.104 41.4945 303.21 36.9289 306.338C41.6527 306.331 46.6137 305.835 51.0715 304.174C55.9678 302.067 60.7059 298.853 63.2871 294.043C64.7323 291.182 66.6592 288.313 67.2272 285.185C68.7802 277.751 68.3488 270.094 66.7455 262.717C65.5016 256.987 62.8198 251.846 59.5124 247.05C56.4639 243.455 52.4232 240.579 48.3968 238.178C43.8816 235.496 39.28 235.338 34.2255 234.64C35.2393 235.129 36.2531 235.604 37.2956 236.035C36.5694 236.165 35.8433 236.294 35.1171 236.438C35.5988 236.855 36.0733 237.265 36.5622 237.667C35.3975 237.912 34.2327 238.142 33.0679 238.379C33.1183 237.265 33.1758 236.157 33.2261 235.05C30.3645 234.971 27.5102 234.928 24.6558 234.791C27.0644 231.239 30.5802 229.543 34.3693 227.824C37.8277 226.314 41.6239 226.652 45.2117 227.486Z" fill="#666666"/>
<path d="M154.548 229.364C158.819 230.364 162.939 230.328 167.274 230.04C167.533 231.737 167.756 233.434 168.008 235.131C167.203 235.871 166.369 236.576 165.549 237.288C166.333 238.467 167.095 239.653 167.85 240.847C168.792 245.772 169.741 250.79 169.913 255.802C169.928 257.57 169.978 259.562 169.367 261.244C165.11 263.948 159.653 264.415 155.124 266.752C154.016 263.689 155.346 261.352 156.044 258.411C157.568 252.588 159.948 246.987 161.451 241.17C160.329 241.832 159.373 242.565 158.496 243.536C158.603 240.199 159.042 237.079 157.956 233.822C157.324 234.491 156.605 235.159 156.094 235.929C155.742 238.237 155.771 240.595 155.469 242.91C155.713 238.323 154.635 233.93 154.548 229.364Z" fill="#FADFBC"/>
<path d="M252.102 229.608C253.576 233.872 254.259 238.15 254.784 242.608L254.036 242.766C252.627 240.674 251.397 238.488 249.837 236.496C248.09 237.697 245.624 239.336 245.279 241.587C244.811 244.607 244.919 247.749 245.07 250.797C244.639 249.812 244.164 248.841 243.683 247.878C243.539 248.403 243.402 248.935 243.266 249.467C243.194 245.297 242.834 241.191 241.986 237.107C241.885 235.612 241.863 234.116 241.77 232.614C245.185 231.499 248.694 230.744 252.102 229.608Z" fill="#2DB1B5"/>
<path d="M279.127 232.279C284.031 232.445 288.949 232.373 293.852 232.38C320.512 232.38 347.173 232.358 373.833 232.409C374.084 242.748 373.969 253.123 373.897 263.469C363.436 263.477 352.975 263.419 342.513 263.491C342.442 265.482 342.413 267.467 342.413 269.458C342.42 299.304 342.327 329.163 342.456 359.009C331.671 358.987 320.886 359.08 310.101 358.973C310.015 327.129 310.123 295.27 310.037 263.426C299.726 263.541 289.416 263.34 279.106 263.527C278.976 253.152 278.976 242.662 279.127 232.279Z" fill="#010101"/>
<path d="M380.203 232.456C391.915 232.384 403.635 232.391 415.347 232.463C416.871 238.539 418.812 244.506 420.401 250.567C426.578 273.144 433.142 295.483 439.419 318.037C439.821 318.037 440.224 318.037 440.627 318.037C441.367 314.586 442.395 311.185 443.323 307.777C450.498 282.562 457.659 257.642 464.777 232.377C476.418 232.499 488.109 232.219 499.728 232.542C499.907 234.728 498.563 237.065 498.002 239.179C493.099 255.011 487.627 270.649 482.767 286.503C477.604 302.644 472.075 318.677 467.136 334.891C464.547 342.929 462.117 350.996 459.27 358.955C446.479 359.063 433.681 359.027 420.883 359.006C419.337 355.26 418.237 351.384 416.972 347.545C412.989 335.013 409.02 322.452 404.857 309.985C397.955 288.451 390.973 266.996 384.028 245.477C382.683 241.185 380.943 236.892 380.203 232.456Z" fill="#010101"/>
<path d="M147.863 233.563C148.539 237.575 148.862 241.659 149.25 245.707C151.393 244.931 153.435 243.939 155.47 242.91C155.772 240.595 155.743 238.237 156.095 235.929C156.606 235.16 157.325 234.491 157.957 233.822C159.043 237.079 158.604 240.2 158.497 243.536C156.268 249.317 153.126 254.846 150.077 260.224C148.596 262.798 148.122 265.242 148.258 268.212C147.891 268.24 147.525 268.269 147.165 268.298C146.633 264.933 147.007 261.604 146.842 258.239C146.799 256.758 145.274 256.55 144.16 256.169C142.326 258.469 140.04 258.491 137.538 259.533C134.777 261.928 133.318 265.364 129.622 267.047C127.012 268.19 123.906 266.666 121.339 265.961C115.415 264.336 108.527 264.43 102.458 264.077C98.1445 263.833 94.1757 262.467 90.2141 260.842C89.3153 262.488 88.3878 263.934 88.2944 265.875C88.014 270.182 88.5388 274.517 88.3087 278.838C88.1434 283.591 86.9642 287.962 86.4897 292.686C85.9217 292.37 85.3537 292.075 84.7713 291.795C86.576 283.584 87.1799 275.286 86.1302 266.925C85.1739 261.381 83.8726 255.931 81.6796 250.733C79.8318 246.441 79.8175 242.091 80.026 237.504C82.2692 237.482 84.5125 237.547 86.7485 237.726C87.5969 243.162 88.3375 248.511 90.3794 253.666C91.4292 256.233 92.3926 259.303 94.3051 261.36C96.1673 262.323 99.0289 261.201 100.985 260.792C100.941 261.439 100.891 262.086 100.834 262.733C106.729 262.92 112.359 261.554 118.269 262.517C118.42 261.698 118.571 260.871 118.722 260.051C120.189 262.028 122.037 264.113 124.258 265.235C125.524 265.767 127.141 265.587 128.479 265.472C132.023 263.553 133.274 258.62 134.051 254.975C134.094 255.938 134.152 256.895 134.223 257.851C137.459 255.91 140.73 253.106 144.426 252.358C146.152 251.876 148.438 251.74 149.869 250.611C150.998 249.676 151.041 248.281 151.422 246.951C150.408 246.556 149.401 246.153 148.388 245.75C147.784 241.695 147.848 237.647 147.863 233.563Z" fill="#F4E1C7"/>
<path d="M34.2261 234.638C39.2806 235.335 43.8821 235.493 48.3974 238.175C52.4237 240.577 56.4644 243.453 59.513 247.047C62.8203 251.843 65.5022 256.984 66.746 262.714C68.3494 270.091 68.7808 277.748 67.2277 285.183C66.6597 288.31 64.7328 291.179 63.2877 294.041C60.7065 298.851 55.9683 302.065 51.072 304.171C46.6143 305.832 41.6532 306.328 36.9295 306.335C41.4951 303.208 45.7084 300.102 48.4333 295.134C56.7808 279.862 55.1703 259.378 44.22 245.782C44.7593 245.487 45.2913 245.192 45.8306 244.898C49.4399 248.694 52.0498 253.166 53.4159 258.235C54.631 262.578 54.8539 266.899 55.4507 271.335C56.1193 271.364 56.788 271.392 57.4567 271.421C57.924 265.655 54.6885 260.378 55.1271 254.432C56.637 254.604 57.9312 254.23 59.0169 255.539C61.9719 258.717 62.77 264.116 64.2511 268.15C64.9342 268.351 65.6172 268.552 66.3074 268.761C65.2577 261.679 62.5184 254.777 58.456 248.888C53.3512 241.907 45.6652 237.758 37.2962 236.033C36.2536 235.601 35.2399 235.127 34.2261 234.638Z" fill="#030303"/>
<path d="M260.277 235.102C261.421 239.078 261.593 243.039 261.917 247.13C263.348 260.683 262.039 274.632 258.825 287.847C258.437 289.277 257.869 290.629 257.358 292.01C258.329 284.899 260.263 278.09 260.781 270.914C261.636 258.958 261.248 247.037 260.277 235.102Z" fill="black"/>
<path d="M35.1172 236.437C35.8434 236.293 36.5696 236.164 37.2957 236.034C45.6648 237.76 53.3508 241.908 58.4556 248.89C62.5179 254.778 65.2573 261.681 66.307 268.763C65.6168 268.554 64.9337 268.353 64.2507 268.151C62.7696 264.118 61.9715 258.718 59.0164 255.54C57.9308 254.232 56.6366 254.606 55.1267 254.433C54.6881 260.379 57.9236 265.657 57.4562 271.423C56.7876 271.394 56.1189 271.365 55.4502 271.337C54.8535 266.9 54.6306 262.579 53.4155 258.237C52.0494 253.168 49.4395 248.696 45.8301 244.899C43.2346 241.765 40.0279 239.701 36.5624 237.666C36.0734 237.264 35.5989 236.854 35.1172 236.437Z" fill="#A7A7A7"/>
<path d="M249.838 236.493C251.398 238.485 252.627 240.67 254.036 242.763C253.792 246.962 253.914 251.139 253.31 255.324C252.555 254.389 251.822 253.375 250.938 252.563C248.86 251.635 247.343 252.563 245.531 253.519C245.401 252.606 245.236 251.7 245.071 250.794C244.92 247.745 244.812 244.603 245.279 241.584C245.624 239.333 248.09 237.694 249.838 236.493Z" fill="#12D9AD"/>
<path d="M167.851 240.844C168.498 241.383 169.159 241.908 169.821 242.433C173.351 247.049 176.86 251.679 180.383 256.302C181.749 258.265 183.46 260.681 183.661 263.111C183.791 264.736 181.641 265.642 180.419 266.159C174.508 268.338 167.793 268.712 161.545 269.107C158.763 269.323 157.174 268.511 155.125 266.749C159.654 264.412 165.111 263.945 169.368 261.242C169.979 259.559 169.929 257.567 169.914 255.799C169.742 250.787 168.793 245.769 167.851 240.844Z" fill="#AD896A"/>
<path d="M161.451 241.166C159.948 246.983 157.568 252.584 156.044 258.407C155.346 261.348 154.016 263.685 155.124 266.748C157.173 268.509 158.762 269.322 161.544 269.106C167.792 268.711 174.508 268.337 180.418 266.158C181.64 265.64 183.79 264.735 183.66 263.11C183.459 260.679 181.748 258.264 180.382 256.301C176.859 251.678 173.35 247.047 169.82 242.431C170.697 242.726 171.581 242.992 172.466 243.294C177.276 245.257 180.001 250.074 184.48 253.051C187.061 255.718 190.512 258.939 190.102 262.987C190.649 267.323 186.27 269.947 182.833 271.371C175.248 274.125 166.484 275.383 158.438 274.743C155.914 274.232 153.269 273.557 151.198 271.939C150.048 270.875 149.199 269.451 148.257 268.207C148.121 265.238 148.595 262.793 150.076 260.219C153.125 254.841 156.267 249.312 158.496 243.531C159.373 242.561 160.329 241.827 161.451 241.166Z" fill="#110401"/>
<path d="M254.036 242.765L254.784 242.606C255.733 247.999 255.524 253.176 255.574 258.676C255.769 277.535 250.88 296.214 242.18 312.888C240.821 312.816 239.455 312.73 238.096 312.686C238.477 309.537 238.88 306.417 238.75 303.232C238.736 299.069 237.362 295.618 238.556 291.462C240.425 284.682 242.079 277.916 242.985 270.935C243.524 263.817 243.323 256.598 243.265 249.466C243.402 248.934 243.539 248.401 243.682 247.877C244.164 248.84 244.639 249.811 245.07 250.796C245.235 251.702 245.401 252.608 245.53 253.521C246.335 260.818 245.12 268.411 244.445 275.694C243.977 279.419 243.273 283.078 242.079 286.645C239.634 293.849 240.361 301.592 240.842 309.041C243.229 304.166 246.012 299.615 247.702 294.424C249.492 289.779 249.621 284.998 250.865 280.246C251.728 277.104 252.67 274.048 252.993 270.784C253.612 265.585 252.763 260.524 253.31 255.325C253.914 251.141 253.791 246.964 254.036 242.765Z" fill="#41DB8B"/>
<path d="M25.7049 243.202C30.4071 243.482 34.074 246.013 37.5251 248.982C42.4214 253.045 45.3405 259.098 46.4622 265.275C47.1093 268.891 47.9001 272.227 47.591 275.93C47.1883 280.79 46.2321 285.543 44.0032 289.914C41.875 294.315 39.0709 299.348 34.3831 301.389C37.7624 295.407 40.3507 289.325 41.1129 282.437C41.6306 274.233 41.2423 266.281 36.8421 259.098C34.3975 254.885 30.0908 252.361 25.5755 250.909C21.1034 249.608 17.5228 251.233 12.9932 251.118C15.0063 246.221 20.2981 242.49 25.7049 243.202Z" fill="#A4A4A4"/>
<path d="M184.869 247.149C186.458 249.4 188.809 252.664 191.821 252.822C194.827 253.023 196.481 249.457 197.379 247.113C197.379 247.753 197.387 248.386 197.401 249.019C199.594 248.12 201.672 247.408 204.08 247.566C204.188 249.069 204.353 250.564 204.533 252.067C205.044 252.261 205.554 252.455 206.057 252.664C209.624 254.26 212.456 257.762 214.772 260.81C221.422 270.186 225.636 281.086 227.318 292.438C227.814 298.888 227.642 305.416 227.541 311.887C227.548 317.56 225.765 322.737 223.759 327.964C223.5 324.067 224.787 320.429 224.269 316.539C224.672 316.783 225.075 317.028 225.47 317.265C224.413 306.329 225.441 296.68 223.615 285.96C222.544 282.883 221.293 279.978 220.79 276.721C218.863 275.384 217.022 273.968 215.232 272.45C212.083 275.175 209.192 278.159 206.323 281.172C207.409 283.322 209.818 285.939 209.264 288.441C208.66 293.215 208.754 297.939 208.775 302.734C208.725 304.287 208.833 305.812 207.848 307.113C205.993 309.536 203.332 311.247 201.413 313.649C199.011 316.496 197.883 319.681 196.452 323.06C195.546 323.42 194.64 323.779 193.734 324.153C193.044 325.232 192.641 327.238 191.095 327.18C189.197 327.094 187.241 326.044 185.358 326.209C184.056 326.497 182.777 327.094 181.54 327.597C182.417 327.863 183.359 328.043 184.193 328.431C185.092 329.15 184.998 330.739 184.977 331.782C184.222 331.106 183.474 330.43 182.683 329.79C180.541 327.892 178.736 326.957 175.817 326.749C180.72 325.649 185.178 323.815 189.312 320.932C196.049 317.121 201.197 310.219 203.987 303.087C205.849 298.507 207.014 293.869 206.273 288.894C205.684 286.334 204.181 284.048 201.823 282.818C199.263 282.459 196.452 282.401 193.899 282.818C191.865 283.473 190.01 284.932 188.119 285.939C183.704 288.297 178.808 290.073 173.825 290.677C167.836 291.072 161.876 290.792 156.152 288.851C157.554 287.499 159.021 286.363 160.883 285.701C163.86 286.226 166.269 286.234 169.231 285.622C170.64 286.255 172.157 287.132 173.703 287.29C174.86 287.147 175.925 286.119 176.96 285.586C179.872 284.472 182.841 284.249 185.66 282.775C188.449 281.352 190.513 278.821 193.346 277.728C195.553 276.865 197.904 276.326 200.183 275.672C200.176 274.888 200.169 274.111 200.162 273.328C197.911 272.954 195.424 272.415 193.166 272.896C191.038 273.371 188.96 274.457 186.932 275.283C183.567 276.693 179.786 277.512 176.241 278.454C175.961 277.642 175.644 276.844 175.328 276.045C169.698 276.024 164.104 276.391 158.475 276.11C158.46 275.657 158.453 275.197 158.439 274.744C166.484 275.384 175.249 274.126 182.834 271.372C186.271 269.948 190.65 267.324 190.103 262.989C190.513 258.941 187.062 255.72 184.481 253.052C183.215 251.564 182.036 250.011 180.691 248.587C181.993 248.551 183.294 248.537 184.603 248.537C184.689 248.077 184.783 247.609 184.869 247.149Z" fill="#F7DEBD"/>
<path d="M250.936 252.565C251.82 253.378 252.554 254.391 253.308 255.326C252.762 260.524 253.61 265.586 252.992 270.784C252.669 274.049 251.727 277.104 250.864 280.246C248.894 278.47 246.859 276.831 244.443 275.695C245.119 268.412 246.334 260.819 245.529 253.521C247.341 252.565 248.858 251.638 250.936 252.565Z" fill="#0AF98E"/>
<path d="M144.159 256.166C145.274 256.547 146.798 256.756 146.841 258.237C147.007 261.602 146.633 264.931 147.165 268.295C147.524 268.267 147.891 268.238 148.258 268.209C149.2 269.453 150.048 270.877 151.198 271.941C153.269 273.558 155.915 274.234 158.439 274.745C158.453 275.198 158.46 275.658 158.475 276.111C164.104 276.391 169.698 276.025 175.328 276.046C175.644 276.844 175.96 277.642 176.241 278.455C176.5 280.827 176.665 283.214 176.96 285.587C175.924 286.119 174.86 287.147 173.703 287.291C172.157 287.133 170.64 286.256 169.231 285.623C169.108 283.466 168.95 281.302 168.706 279.152C164.874 278.829 161.077 278.62 157.231 278.548C152.27 278.498 148.488 275.759 143.584 275.349C139.551 274.867 135.546 275.938 132.756 279.023C136.394 279.979 139.206 277.599 142.815 278.994C149.034 281.129 154.175 284.724 160.883 285.702C159.021 286.364 157.554 287.5 156.152 288.851C152.076 287.615 147.798 285.681 143.584 285.055C137.94 284.767 132.742 284.566 127.594 287.291C124.164 289.009 121.662 292.223 120.994 296.005C120.799 298.766 120.699 301.664 121.195 304.396C122.734 310.392 124.991 315.943 129.65 320.206C135.165 325.218 142.031 327.555 149.307 328.525C158.209 329.467 167.102 328.727 175.817 326.749C178.736 326.958 180.54 327.892 182.683 329.791C180.095 330.747 177.787 331.847 175.011 332.206C172.466 332.516 169.892 332.602 167.333 332.825C167.088 333.529 166.829 334.234 166.57 334.931C169.188 337.426 172.847 340.475 176.658 340.36C178.369 340.403 179.376 339.015 180.418 337.872C182 335.888 183.474 333.817 184.977 331.782C184.998 330.74 185.092 329.151 184.193 328.432C183.359 328.043 182.417 327.864 181.54 327.598C182.776 327.094 184.056 326.498 185.358 326.21C187.241 326.045 189.197 327.094 191.095 327.181C192.641 327.238 193.044 325.232 193.734 324.154C194.64 323.78 195.546 323.42 196.452 323.061C197.882 319.682 199.011 316.496 201.413 313.649C203.332 311.248 205.993 309.537 207.848 307.114C208.833 305.812 208.725 304.288 208.775 302.735C208.754 297.939 208.66 293.216 209.264 288.442C209.818 285.939 207.409 283.322 206.323 281.172C209.192 278.16 212.082 275.176 215.232 272.451C217.022 273.968 218.863 275.385 220.789 276.722C221.293 279.979 222.544 282.884 223.615 285.961C225.441 296.681 224.413 306.33 225.47 317.266C225.075 317.029 224.672 316.784 224.269 316.54C224.787 320.429 223.5 324.067 223.759 327.964C221.336 335.449 216.821 342.459 211.802 348.47C203.778 357.443 193.418 364.403 182.05 368.364C180.138 368.479 178.218 368.537 176.306 368.652C176.557 368.149 176.802 367.653 177.046 367.149C173.825 366.977 170.985 367.193 167.829 367.868C161.049 368.817 153.931 368.285 147.179 367.264C142.053 366.553 137.034 364.662 132.289 362.613C127.982 360.592 123.589 358.061 120.203 354.682C118.412 352.892 116.45 351.209 114.861 349.239C113.358 347.693 114.508 345.357 114.702 343.487C111.1 340.23 106.607 338.469 102.997 335.233C101.221 333.752 99.8984 331.933 98.6043 330.042C99.352 329.115 100.107 328.187 100.862 327.26C98.5611 325.656 96.3969 324.125 95.038 321.594C93.0033 317.834 90.9039 314.397 89.8254 310.378C90.8176 309.817 91.817 309.285 92.802 308.731C90.1992 303.432 87.2154 298.694 86.4893 292.684C86.9638 287.96 88.1429 283.588 88.3083 278.836C88.5384 274.515 88.0135 270.179 88.2939 265.872C88.3874 263.931 89.3149 262.486 90.2136 260.839C94.1753 262.464 98.1441 263.83 102.458 264.075C108.526 264.427 115.414 264.334 121.339 265.959C123.906 266.663 127.012 268.188 129.621 267.044C133.317 265.362 134.777 261.925 137.538 259.531C140.04 258.488 142.326 258.467 144.159 256.166Z" fill="#FDDDB8"/>
<path d="M193.165 272.9C195.423 272.418 197.911 272.957 200.161 273.331C200.168 274.115 200.175 274.891 200.183 275.675C197.903 276.329 195.552 276.868 193.345 277.731C190.512 278.824 188.449 281.355 185.659 282.778C182.841 284.252 179.871 284.475 176.959 285.59C176.664 283.217 176.499 280.83 176.24 278.457C179.785 277.515 183.567 276.696 186.932 275.287C188.959 274.46 191.037 273.374 193.165 272.9Z" fill="#B08A67"/>
<path d="M143.584 275.349C148.488 275.758 152.27 278.498 157.231 278.548C161.077 278.62 164.874 278.829 168.706 279.152C168.95 281.302 169.109 283.466 169.231 285.623C166.268 286.234 163.86 286.227 160.883 285.702C154.175 284.724 149.034 281.129 142.815 278.994C139.206 277.599 136.394 279.979 132.756 279.023C135.546 275.938 139.551 274.867 143.584 275.349Z" fill="#B08763"/>
<path d="M250.864 280.244C249.621 284.996 249.491 289.777 247.701 294.422C246.011 299.613 243.229 304.164 240.842 309.039C240.36 301.59 239.634 293.847 242.078 286.643C243.272 283.076 243.977 279.417 244.444 275.692C246.86 276.828 248.894 278.468 250.864 280.244Z" fill="#10FB76"/>
<path d="M193.9 282.82C196.453 282.403 199.264 282.46 201.823 282.82C204.182 284.049 205.684 286.336 206.274 288.895C207.015 293.871 205.85 298.508 203.988 303.088C201.198 310.221 196.05 317.123 189.313 320.934C187.192 321.164 185.438 321.595 183.597 322.681C184.223 320.646 185.172 319.064 183.748 317.08C182.619 315.074 180.678 315.714 178.737 315.405C176.982 315.045 175.25 314.606 173.524 314.132C173.639 313.729 173.754 313.327 173.869 312.917C168.743 312.636 163.854 311.321 158.684 311.544C150.135 311.45 141.759 311.587 133.476 314.003C133.11 315.203 132.728 316.404 132.29 317.583C131.463 318.496 130.543 319.352 129.651 320.207C124.992 315.944 122.735 310.393 121.196 304.397C120.7 301.665 120.8 298.767 120.995 296.006C121.663 292.224 124.165 289.01 127.595 287.292C132.743 284.567 137.941 284.768 143.585 285.056C147.799 285.681 152.077 287.616 156.153 288.852C161.876 290.794 167.837 291.074 173.826 290.678C178.809 290.075 183.705 288.299 188.119 285.94C190.01 284.934 191.865 283.474 193.9 282.82Z" fill="#090302"/>
<path d="M198.112 286.171C197.86 288.544 198.407 291.995 196.861 293.979C195.186 295.69 192.669 296.711 190.519 297.703C183.085 301.104 174.687 302.643 166.598 303.463C156.569 304.059 146.402 303.923 136.365 303.47C132.619 303.377 130.059 300.939 128.945 297.51C128.657 295.532 128.729 293.49 128.665 291.499C130.448 290.694 132.346 289.809 134.258 289.378C136.638 289.097 139.068 289.119 141.463 289.184C144.914 289.184 148.243 290.629 151.457 291.808C154.318 292.93 157.237 293.634 160.228 294.303C164.564 295.41 169.359 295.072 173.817 295C179.878 294.231 185.925 292.268 191.102 288.982C193.359 287.659 195.401 286.308 198.112 286.171Z" fill="#F9FBF9"/>
<path d="M84.7716 291.791C85.354 292.071 85.922 292.366 86.49 292.683C87.2162 298.693 90.2 303.431 92.8027 308.73C91.8177 309.284 90.8183 309.816 89.8261 310.377C90.9046 314.396 93.0041 317.833 95.0388 321.593C96.3977 324.124 98.5618 325.655 100.863 327.259C100.108 328.186 99.3527 329.114 98.605 330.041C99.8992 331.932 101.222 333.751 102.998 335.232C106.607 338.468 111.101 340.229 114.703 343.486C114.509 345.356 113.359 347.693 114.861 349.238C116.45 351.208 118.413 352.891 120.203 354.681C123.59 358.06 127.983 360.591 132.29 362.612C137.035 364.661 142.054 366.552 147.18 367.263C153.931 368.284 161.049 368.816 167.829 367.867C169.181 368.033 170.518 368.256 171.863 368.479C169.088 370.103 166.298 369.996 163.192 370.513C155.642 371.721 148.266 371.002 140.709 370.355C136.927 369.988 133.303 369.118 129.637 368.148C123.683 366.609 117.881 363.309 112.359 360.613C108.347 358.751 105.435 355.594 102.035 352.74C98.3965 349.641 95.161 346.168 92.0694 342.53C87.2953 337.454 84.1605 330.458 80.9106 324.275C78.6818 320.141 77.3516 315.769 75.9927 311.297C75.1875 311.635 74.3966 311.995 73.5913 312.347C76.1365 309.284 78.5452 306.178 80.4649 302.669C82.8231 299.125 84.0742 296.004 84.7716 291.791Z" fill="#B48864"/>
<path d="M75.991 311.298C77.3499 315.77 78.68 320.141 80.9089 324.276C84.1587 330.459 87.2935 337.455 92.0676 342.531C95.1593 346.169 98.3947 349.642 102.033 352.74C105.434 355.595 108.346 358.751 112.358 360.613C117.879 363.31 123.682 366.61 129.635 368.148C133.302 369.119 136.925 369.989 140.707 370.356C148.264 371.003 155.641 371.722 163.19 370.514C166.296 369.996 169.086 370.104 171.861 368.479C170.517 368.256 169.179 368.033 167.828 367.868C170.984 367.192 173.824 366.976 177.045 367.149C176.801 367.652 176.556 368.148 176.305 368.652C178.217 368.537 180.137 368.479 182.049 368.364C176.973 370.42 171.638 371.909 166.246 372.872C163.24 373.462 160.336 374.188 157.244 374.181C151.039 374.332 144.791 374.418 138.593 374.023C133.072 373.246 127.499 372.002 122.373 369.781C117.872 367.882 113.529 366.02 109.395 363.374C93.3474 352.927 80.9808 337.16 74.5818 319.113C73.9778 316.949 72.2738 314.483 73.5895 312.348C74.3948 311.995 75.1857 311.636 75.991 311.298Z" fill="#F6DCC4"/>
<path d="M29.3066 312.196C30.1191 312.441 30.9244 312.692 31.7296 312.951C33.9945 315.317 35.9717 316.489 39.2143 317.172C41.4288 317.876 44.6858 318.193 46.1382 320.156C47.9788 322.413 49.5462 324.879 51.4372 327.101C54.2556 330.955 57.5702 334.312 60.9278 337.684C58.8643 336.397 56.7361 335.283 54.7805 333.824C51.6385 331.53 49.3593 328.647 46.3611 326.138C45.829 327.439 44.88 328.841 45.5199 330.272C46.4618 333.047 48.3239 334.773 47.5618 337.915C46.2461 336.635 44.8944 335.477 43.6936 334.09C38.2077 327.259 33.3258 319.99 29.3066 312.196Z" fill="#E59055"/>
<path d="M36.5985 311.85C39.1294 313.158 41.4445 314.467 44.3492 314.819C47.4193 315.171 50.5685 315.099 53.6458 314.805C49.7201 315.941 45.2192 315.473 41.1497 315.33C41.4086 315.941 41.6674 316.552 41.9191 317.163C41.0131 317.177 40.1144 317.177 39.2156 317.17C35.973 316.487 33.9958 315.315 31.731 312.95C33.3559 312.576 34.952 312.144 36.5985 311.85Z" fill="#220203"/>
<path d="M158.682 311.543C163.851 311.32 168.74 312.636 173.867 312.916C173.752 313.326 173.637 313.729 173.522 314.131C175.247 314.606 176.98 315.044 178.734 315.404C180.251 316.432 181.704 317.525 183.171 318.618C182.078 320.077 181.1 321.113 179.252 321.558C174.262 322.867 168.906 324.672 163.736 324.564C156.669 324.564 148.832 325.002 141.944 323.27C138.298 322.126 134.768 320.602 132.288 317.582C132.726 316.403 133.107 315.203 133.474 314.002C141.757 311.586 150.133 311.449 158.682 311.543Z" fill="#961F29"/>
<path d="M238.094 312.685C239.453 312.728 240.819 312.814 242.178 312.886C240.654 315.474 239.41 318.178 238.066 320.852L236.851 321.32C237.246 318.436 237.634 315.553 238.094 312.685Z" fill="#86D3A5"/>
<path d="M144.985 313.608C149.062 313.307 153.153 313.184 157.244 313.098C163.449 312.846 169.978 314.73 176.031 316.147C178.411 316.693 179.475 317.549 180.892 319.454C174.392 322.006 167.741 322.337 160.839 322.28C154.663 322.193 147.833 322.668 141.815 321.287C138.55 320.46 136.207 318.871 134.272 316.125C137.817 314.989 141.232 313.882 144.985 313.608Z" fill="#F2163A"/>
<path d="M178.736 315.404C180.678 315.713 182.619 315.074 183.748 317.08C185.171 319.064 184.222 320.646 183.597 322.68C185.437 321.595 187.192 321.163 189.313 320.933C185.179 323.817 180.721 325.65 175.817 326.75C167.103 328.727 158.209 329.468 149.308 328.526C142.032 327.555 135.166 325.219 129.651 320.207C130.542 319.352 131.463 318.496 132.29 317.583C134.77 320.603 138.3 322.127 141.946 323.27C148.834 325.003 156.671 324.564 163.738 324.564C168.908 324.672 174.264 322.867 179.254 321.559C181.102 321.113 182.08 320.078 183.173 318.618C181.706 317.525 180.253 316.432 178.736 315.404Z" fill="#1A0401"/>
<path d="M46.3628 326.137C49.3609 328.646 51.6401 331.529 54.7821 333.823C56.7378 335.282 58.866 336.397 60.9295 337.684C61.6844 338.453 62.425 339.251 63.1512 340.049C62.6623 340.049 62.1662 340.049 61.6701 340.057C62.7126 342.063 63.8414 344.018 64.7042 346.111C62.9786 347.376 61.2459 348.634 59.5131 349.885C54.854 346.333 51.1584 342.537 47.5635 337.914C48.3256 334.772 46.4634 333.046 45.5215 330.271C44.8816 328.84 45.8307 327.438 46.3628 326.137Z" fill="#F2B23C"/>
<path d="M51.438 327.104C55.9748 330.957 59.7927 335.53 64.3295 339.391C68.7585 343.59 73.8633 346.674 78.9322 349.996C82.8003 352.534 85.2018 356.007 88.0634 359.523C84.2383 356.676 81.9807 352.692 77.8321 350.284C72.7848 347.235 68.133 344 63.517 340.326L63.1503 340.053C62.4242 339.254 61.6836 338.456 60.9287 337.687C57.571 334.315 54.2564 330.957 51.438 327.104Z" fill="#735A20"/>
<path d="M182.682 329.789C183.473 330.429 184.221 331.105 184.976 331.781C183.473 333.815 181.999 335.886 180.418 337.871C179.375 339.014 178.368 340.401 176.657 340.358C172.847 340.473 169.187 337.425 166.57 334.93C166.829 334.232 167.087 333.528 167.332 332.823C169.892 332.6 172.466 332.514 175.011 332.205C177.786 331.845 180.094 330.745 182.682 329.789Z" fill="#AF8560"/>
<path d="M198.919 336.721C198.394 343.601 193.346 350.144 187.717 353.854C181.325 357.744 173.402 359.865 165.924 358.794C159.748 357.564 153.701 354.624 149.826 349.526C149.229 347.534 149.121 345.047 151.357 344.062C152.659 343.645 154.614 343.379 155.743 344.335C158.454 346.283 160.884 348.39 164.026 349.663C168.095 351.503 172.345 351.273 176.702 351.036C184.122 349.993 190.017 345.651 194.583 339.899C196.057 338.281 196.258 336.347 198.919 336.721Z" fill="#110502"/>
<path d="M61.6687 340.06C62.1648 340.053 62.6609 340.053 63.1498 340.053L63.5165 340.326C68.1324 344 72.7843 347.235 77.8316 350.284C81.9802 352.693 84.2378 356.676 88.0628 359.523C90.0041 361.515 92.0101 363.427 94.1455 365.203C93.5415 365.749 92.9088 366.289 92.2402 366.756C90.3636 366.792 88.3864 365.778 86.7039 365.03C82.239 362.802 77.7237 361.054 73.7837 357.898C71.4398 356.029 69.4769 355.36 66.5003 355.015C64.0989 353.426 61.7837 351.672 59.5117 349.889C61.2445 348.637 62.9773 347.379 64.7028 346.114C63.84 344.022 62.7112 342.066 61.6687 340.06Z" fill="#F6DB37"/>
<path d="M66.5015 355.014C69.4781 355.359 71.4409 356.027 73.7848 357.897C77.7249 361.053 82.2402 362.8 86.7051 365.029C88.3875 365.777 90.3648 366.791 92.2413 366.755C92.91 366.287 93.5427 365.748 94.1466 365.202C96.9291 367.819 101.006 369.465 103.112 372.629C99.5535 372.162 96.4834 370.76 93.1904 369.444C83.9154 365.748 74.3313 361.305 66.5015 355.014Z" fill="#D9E979"/>
</g>
<defs>
<clipPath id="clip0_38_1189">
<rect width="500" height="500" fill="white"/>
</clipPath>
</defs>
</svg>
