<svg width="500" height="500" viewBox="0 0 500 500" fill="none" xmlns="http://www.w3.org/2000/svg">
<path d="M112.781 226.333C100.623 222.887 81.2236 218.318 59.9659 224.01C56.0164 225.056 53.3447 226.798 51.4473 230.089C50.518 231.754 49.6662 233.536 50.1308 235.355C50.518 236.904 52.7638 237.446 54.5063 237.717C56.21 237.988 60.0821 238.182 61.1275 236.943C61.6696 236.285 61.6696 234.465 58.843 233.884C57.7975 233.652 54.9322 233.574 54.7386 233.071C54.7386 233.071 54.8548 232.722 56.4036 232.258C57.1006 232.025 62.173 229.973 75.9963 230.399C92.4526 230.941 106.818 234.775 122.035 240.738C136.904 246.584 153.631 257.155 163.428 269.778C167.145 274.541 171.753 282.362 172.334 288.984C173.805 305.014 158.162 318.489 126.372 317.405C120.951 317.211 114.33 315.933 114.33 315.933L113.672 285.034C113.672 285.034 127.108 284.918 142.015 289.836C143.293 290.261 144.571 291.075 144.687 292.314C144.764 293.243 144.029 294.056 143.177 294.792C141.628 296.147 139.498 296.728 139.034 297.309C138.685 297.735 138.685 298.354 139.15 298.703C140.273 299.554 143.022 300.135 144.881 299.98C148.636 299.632 151.115 297.502 153.012 294.637C155.025 291.617 156.148 283.911 145.461 279.032C131.638 272.682 113.594 273.883 113.594 273.883C113.594 273.883 113.517 269.701 113.323 266.913C113.013 262.344 111.736 253.322 107.554 250.766C106.779 250.302 105.85 250.224 105.308 250.96C104.495 252.005 103.682 256.032 103.527 257.078C101.939 266.448 102.055 274.812 101.939 274.928C101.9 274.967 101.862 275.044 101.784 275.083C101.629 275.199 91.6395 276.361 81.998 280.543C78.1647 282.208 72.6663 285.189 71.0013 289.061C68.833 294.056 72.6276 299.516 79.0165 305.556C84.4374 310.667 92.4139 316.049 98.2994 318.837C99.8096 319.534 101.591 320.425 101.591 320.425C101.591 320.425 101.978 323.987 102.288 326.078C103.411 333.513 109.064 332.428 110.651 332.119C113.207 331.615 113.672 329.911 114.02 327.937C114.214 326.853 114.136 325.304 114.136 325.304C114.136 325.304 117.97 326.194 120.564 326.659C128.076 328.053 136.246 328.285 143.293 327.317C171.559 323.445 178.684 310.164 180.968 306.602C184.879 300.406 193.204 283.214 168.19 257.659C162.46 251.773 145.965 235.704 112.781 226.333ZM75.4542 295.992C74.4087 294.947 73.6343 293.785 73.8666 292.391C74.099 291.036 76.732 289.874 78.0485 289.487C90.7876 285.731 101.629 285.538 101.629 285.538C101.629 285.538 101.513 290.107 101.513 294.714C101.475 303.465 101.707 312.371 101.707 312.371C101.707 312.371 87.3028 308.189 75.4542 295.992Z" fill="#316777"/>
<path d="M205.014 263.815C210.977 261.492 215.623 258.123 220.27 253.322C223.019 250.534 225.381 246.003 224.529 241.822C224.103 239.769 223.135 238.337 221.431 236.827C220.58 236.091 218.605 235.045 217.017 234.736C216.553 234.658 216.049 234.619 215.856 234.465C215.623 234.31 215.43 234.039 215.236 233.729C214.191 232.412 212.1 231.135 210.628 230.631C206.059 229.044 199.903 230.244 195.76 231.986C191.345 233.845 187.28 236.594 184.182 239.924C176.051 248.636 179.613 255.529 180.349 256.806C180.968 257.891 182.091 259.052 182.362 260.214C182.517 260.872 182.362 261.763 182.401 262.576C182.44 264.396 183.253 266.293 184.647 267.493C185.615 268.345 187.047 268.616 188.48 266.448C188.945 265.712 189.758 264.241 189.758 264.241C189.758 264.241 191.423 265.209 195.411 265.48C198.315 265.712 202.381 264.822 205.014 263.815ZM185.847 253.283C185.847 253.283 185.576 252.702 185.382 252.276C184.143 249.217 186.854 245.771 189.332 243.68C194.172 239.576 198.276 239.653 198.276 239.653C198.276 239.653 197.308 240.428 196.495 241.163C189.448 247.32 185.847 253.283 185.847 253.283ZM196.418 253.167C199.361 249.372 204.82 244.648 208.654 242.364C211.635 240.582 214.229 240.079 216.127 240.931C217.288 241.434 218.179 242.48 218.334 243.835C218.837 248.133 213.881 251.695 210.59 253.631C203.078 258.007 194.172 257.039 193.94 256.613C193.901 256.574 195.76 254.057 196.418 253.167Z" fill="#316777"/>
<path d="M375.695 276.477C366.092 269.817 350.642 290.881 343.828 301.336C342.821 296.031 346.422 289.255 346.422 289.255C346.422 289.255 352.191 279.265 353.004 277.252C353.779 275.199 354.243 271.018 353.275 270.592C352.385 270.166 350.836 271.521 350.836 271.521C337.865 283.137 336.045 296.031 336.045 296.031C334.806 302.962 336.238 307.841 338.368 311.248C331.166 326.582 327.642 339.979 328.572 347.878C329.462 353.919 333.76 358.255 336.393 359.185C339.026 360.269 339.53 357.094 339.53 357.094C341.659 340.715 345.415 329.796 349.868 318.993C363.382 322.09 373.565 308.964 377.166 302.652C379.296 298.896 380.419 293.863 380.419 289.1C380.419 283.795 378.909 278.762 375.695 276.477ZM366.905 302.575C365.356 304.046 360.207 306.95 354.902 307.531C359.974 297.696 366.286 290.455 369.771 286.622C373.836 282.053 374.378 286.196 374.378 286.196C375.308 294.25 369.422 300.329 366.905 302.575Z" fill="#316777"/>
<path d="M331.282 310.357C331.94 307.918 329.695 305.208 327.681 304.704C325.784 304.317 311.302 307.027 309.56 307.492C307.701 307.995 308.514 306.253 308.514 306.253L310.76 298.664C310.76 298.664 324.622 298.122 326.636 297.812C328.494 297.463 328.61 296.147 328.61 296.147C328.61 296.147 328.843 293.978 328.765 291.965C328.572 289.797 326.829 289.99 326.829 289.99C321.486 289.448 314.129 290.068 314.129 290.068L315.988 284.26C315.988 284.26 330.701 283.563 336.316 282.246C339.181 281.549 337.516 278.761 337.516 278.761C334.031 271.792 330.004 272.179 330.004 272.179C318.427 271.792 301.583 274.85 299.764 275.78C298.06 276.554 298.215 277.832 300.46 280.659C302.861 283.64 306.927 283.369 306.927 283.369L303.365 290.687C300.46 290.881 299.454 291.81 299.454 291.81C297.789 293.591 300.073 298.857 300.073 298.857C300.073 298.857 295.04 310.125 298.679 316.088C302.59 322.322 307.237 322.051 307.237 322.051C316.026 322.593 330.508 313.378 331.282 310.357Z" fill="#316777"/>
<path d="M280.674 265.596C280.674 265.596 278.622 264.628 278.119 266.68C277.615 268.694 278.39 270.862 278.39 270.862C283.501 288.17 284.663 298.393 284.663 298.393C284.663 298.393 284.895 301.413 284.314 301.568C283.888 301.878 283.462 301.452 283.462 301.452C282.881 301.49 277.267 292.081 277.267 292.081L276.183 290.261C270.026 280.349 266.27 276.941 266.27 276.941C265.38 276.128 263.173 273.883 260.346 276.98C257.558 280.078 255.351 290.107 254.499 299.516C253.763 308.925 254.305 314.268 255.699 316.514C257.21 318.799 260.114 319.573 262.514 317.637C265.07 315.701 264.566 303.31 264.992 296.96C265.38 290.571 265.999 291.733 265.999 291.733C266.541 291.578 269.484 297.425 269.484 297.425C269.484 297.425 277.151 313.068 281.952 315.391C286.831 317.714 290.742 313.997 292.213 310.512C293.723 306.989 296.279 295.373 292.484 282.517C288.573 269.546 280.674 265.596 280.674 265.596Z" fill="#316777"/>
<path d="M201.103 298.702C200.91 294.404 200.406 283.485 199.206 278.529C198.702 276.399 197.812 274.463 195.721 273.65C195.489 273.573 195.218 273.495 195.024 273.456C193.707 273.185 192.972 275.005 192.623 275.896C191.578 278.568 190.842 284.879 190.649 286.854C190.029 292.856 189.526 307.027 190.571 314.268C190.997 317.288 192.004 319.263 195.063 319.921C196.302 320.192 198.586 320.115 199.554 319.495C200.406 318.953 201.026 317.908 201.219 316.979C201.8 314.462 201.568 310.899 201.452 308.189C201.335 305.091 201.258 301.916 201.103 298.702Z" fill="#316777"/>
<path d="M250.627 274.812C244.006 271.288 233.125 271.288 226.349 272.14C219.379 272.992 210.047 275.16 206.098 280.891C204.588 283.059 203.697 286.428 204.394 289.138C204.781 290.648 205.866 291.81 207.453 292.623C210.28 294.095 219.689 294.404 223.871 294.869C227.82 295.295 235.1 295.992 239.127 297.657C239.127 297.657 242.921 298.973 242.883 301.142C242.883 302.226 242.07 303.078 241.256 303.659C235.293 307.879 227.123 309.08 219.844 308.963C217.366 308.925 215.352 308.537 212.835 307.453C211.751 306.989 210.396 306.137 210.59 304.665C210.899 302.342 213.571 301.761 215.662 301.955C216.862 302.071 218.372 302.574 219.534 303C224.219 304.859 226.349 306.408 230.453 305.75C232.002 305.517 237.307 304.356 238.004 302.187C238.197 301.645 237.926 301.064 237.539 300.677C236.997 300.096 233.783 298.857 232.931 298.547C229.795 297.425 223.871 296.418 220.58 296.302C216.243 296.147 210.319 297.037 207.84 300.6C205.633 303.813 205.13 310.319 216.165 315.817C221.276 318.372 227.511 319.495 233.241 318.876C236.532 318.489 245.942 317.017 249.504 309.544C251.44 305.517 251.246 300.135 249.155 296.302C247.8 293.785 246.135 290.416 233.822 288.867C231.847 288.635 217.366 286.931 216.049 286.738C215.313 286.621 211.906 286.234 213.106 284.918C213.455 284.531 214.462 284.26 215.081 284.105C222.67 282.014 232.312 282.285 240.327 281.82C242.108 281.704 246.174 281.472 248.11 280.852C249.969 280.271 251.517 278.955 251.943 276.903C252.176 275.857 251.634 275.354 250.627 274.812Z" fill="#316777"/>
<path d="M448.103 284.143H425.374C425.141 276.283 424.328 268.539 423.012 260.911C422.779 259.594 421.657 258.665 420.301 258.665H414.183C412.983 258.665 412.093 259.749 412.286 260.95C413.719 268.539 414.571 276.322 414.842 284.182H391.725C390.68 284.182 389.828 285.034 389.828 286.118V293.088C389.828 294.133 390.68 295.024 391.725 295.024H414.842C414.571 302.884 413.719 310.628 412.286 318.256C412.054 319.418 412.983 320.541 414.183 320.541H420.301C421.618 320.541 422.779 319.573 423.012 318.295C424.328 310.667 425.141 302.923 425.374 295.063H448.103C449.148 295.063 450 294.211 450 293.127V286.157C450 284.995 449.148 284.143 448.103 284.143Z" fill="#316777"/>
<path d="M134.89 199.848C135.781 200.468 137.059 200.003 137.949 199.035C145.732 190.633 154.29 183.315 164.008 176.693C227.782 133.171 321.408 139.521 376.198 194.66C394.203 212.665 404.116 232.025 409.304 247.243C409.692 248.365 410.737 249.101 411.899 249.101H418.171C419.488 249.101 420.417 247.823 419.991 246.584C413.177 226.411 399.973 204.301 380.806 186.296C323.306 132.164 230.144 126.163 165.209 170.382C154.599 177.545 144.029 186.722 134.774 197.215C133.884 198.222 134.193 199.345 134.89 199.848Z" fill="#316777"/>
</svg>
