<svg width="500" height="500" viewBox="0 0 500 500" fill="none" xmlns="http://www.w3.org/2000/svg">
<path d="M78.4763 219.667C63.2784 215.359 39.0295 209.648 12.4574 216.763C7.52048 218.069 4.18081 220.247 1.80917 224.362C0.647545 226.443 -0.417275 228.669 0.163536 230.944C0.647545 232.88 3.4548 233.558 5.63284 233.896C7.76248 234.235 12.6026 234.477 13.9094 232.928C14.587 232.106 14.587 229.831 11.0537 229.105C9.74692 228.814 6.16525 228.718 5.92325 228.088C5.92325 228.088 6.06845 227.653 8.00449 227.072C8.87571 226.782 15.2162 224.216 32.4954 224.749C53.0658 225.426 71.0225 230.218 90.0441 237.672C108.63 244.98 129.539 258.194 141.785 273.972C146.431 279.926 152.191 289.703 152.917 297.979C154.756 318.017 135.202 334.861 95.465 333.506C88.6889 333.264 80.4123 331.666 80.4123 331.666L79.5895 293.042C79.5895 293.042 96.3846 292.897 115.019 299.044C116.616 299.577 118.213 300.593 118.359 302.142C118.455 303.303 117.536 304.32 116.471 305.239C114.535 306.934 111.873 307.66 111.292 308.386C110.856 308.918 110.856 309.692 111.437 310.128C112.841 311.193 116.277 311.919 118.601 311.725C123.296 311.29 126.393 308.628 128.765 305.046C131.282 301.271 132.685 291.639 119.327 285.54C102.048 277.603 79.4927 279.103 79.4927 279.103C79.4927 279.103 79.3959 273.876 79.1539 270.391C78.7667 264.679 77.1694 253.402 71.9421 250.208C70.9741 249.627 69.8125 249.53 69.1349 250.45C68.1185 251.756 67.102 256.79 66.9084 258.097C64.924 269.81 65.0692 280.265 64.924 280.41C64.8756 280.458 64.8272 280.555 64.7304 280.603C64.5368 280.749 52.0493 282.201 39.9975 287.428C35.2058 289.509 28.3329 293.236 26.2516 298.076C23.5412 304.32 28.2845 311.144 36.2706 318.695C43.0468 325.084 53.0174 331.812 60.3743 335.296C62.2619 336.168 64.4884 337.281 64.4884 337.281C64.4884 337.281 64.9724 341.734 65.3596 344.347C66.7632 353.64 73.8298 352.285 75.8142 351.898C79.0087 351.269 79.5895 349.139 80.0251 346.671C80.2671 345.315 80.1703 343.379 80.1703 343.379C80.1703 343.379 84.962 344.493 88.2048 345.073C97.5946 346.816 107.807 347.106 116.616 345.896C151.949 341.056 160.855 324.455 163.71 320.002C168.599 312.258 179.005 290.768 147.738 258.823C140.575 251.466 119.956 231.38 78.4763 219.667ZM31.8178 306.74C30.5109 305.433 29.5429 303.981 29.8333 302.239C30.1237 300.545 33.415 299.093 35.0606 298.609C50.9845 293.914 64.5368 293.672 64.5368 293.672C64.5368 293.672 64.3916 299.383 64.3916 305.143C64.3432 316.081 64.6336 327.214 64.6336 327.214C64.6336 327.214 46.6284 321.986 31.8178 306.74Z" fill="#316777"/>
<path d="M193.767 266.519C201.221 263.615 207.029 259.404 212.837 253.402C216.274 249.917 219.226 244.254 218.161 239.027C217.629 236.462 216.419 234.671 214.289 232.783C213.224 231.864 210.756 230.557 208.772 230.17C208.191 230.073 207.562 230.025 207.32 229.831C207.029 229.637 206.787 229.299 206.545 228.911C205.238 227.266 202.625 225.669 200.785 225.039C195.074 223.055 187.378 224.555 182.199 226.733C176.682 229.057 171.6 232.493 167.728 236.656C157.563 247.546 162.016 256.161 162.936 257.758C163.71 259.114 165.114 260.566 165.453 262.018C165.646 262.84 165.453 263.954 165.501 264.97C165.55 267.245 166.566 269.617 168.308 271.117C169.518 272.182 171.309 272.521 173.1 269.81C173.681 268.891 174.697 267.051 174.697 267.051C174.697 267.051 176.779 268.261 181.764 268.6C185.394 268.891 190.476 267.777 193.767 266.519ZM169.809 253.354C169.809 253.354 169.47 252.628 169.228 252.095C167.679 248.272 171.067 243.964 174.165 241.35C180.215 236.22 185.346 236.317 185.346 236.317C185.346 236.317 184.135 237.285 183.119 238.204C174.31 245.9 169.809 253.354 169.809 253.354ZM183.022 253.209C186.701 248.465 193.525 242.56 198.317 239.705C202.044 237.478 205.287 236.849 207.658 237.914C209.11 238.543 210.224 239.85 210.417 241.544C211.046 246.917 204.851 251.369 200.737 253.789C191.347 259.259 180.215 258.049 179.925 257.516C179.876 257.468 182.199 254.322 183.022 253.209Z" fill="#316777"/>
<path d="M407.119 282.346C395.115 274.021 375.803 300.351 367.285 313.42C366.026 306.789 370.527 298.319 370.527 298.319C370.527 298.319 377.739 285.831 378.756 283.314C379.724 280.749 380.304 275.522 379.094 274.989C377.981 274.457 376.045 276.151 376.045 276.151C359.831 290.671 357.556 306.789 357.556 306.789C356.007 315.452 357.798 321.551 360.46 325.81C351.458 344.977 347.053 361.724 348.215 371.598C349.328 379.148 354.7 384.569 357.992 385.731C361.283 387.086 361.912 383.117 361.912 383.117C364.574 362.643 369.269 348.994 374.835 335.49C391.727 339.363 404.457 322.955 408.958 315.065C411.62 310.37 413.024 304.078 413.024 298.125C413.024 291.494 411.136 285.202 407.119 282.346ZM396.132 314.968C394.196 316.808 387.758 320.438 381.127 321.164C387.468 308.87 395.357 299.819 399.713 295.027C404.795 289.316 405.473 294.495 405.473 294.495C406.635 304.562 399.278 312.161 396.132 314.968Z" fill="#316777"/>
<path d="M351.603 324.697C352.425 321.647 349.618 318.259 347.101 317.63C344.73 317.146 326.628 320.534 324.45 321.115C322.126 321.744 323.143 319.566 323.143 319.566L325.95 310.08C325.95 310.08 343.278 309.402 345.795 309.015C348.118 308.579 348.263 306.933 348.263 306.933C348.263 306.933 348.553 304.223 348.457 301.706C348.215 298.996 346.037 299.238 346.037 299.238C339.357 298.56 330.161 299.334 330.161 299.334L332.484 292.074C332.484 292.074 350.877 291.203 357.895 289.558C361.476 288.686 359.395 285.201 359.395 285.201C355.039 276.489 350.005 276.973 350.005 276.973C335.533 276.489 314.479 280.313 312.204 281.475C310.075 282.443 310.268 284.04 313.075 287.573C316.076 291.3 321.158 290.961 321.158 290.961L316.706 300.109C313.075 300.351 311.817 301.513 311.817 301.513C309.736 303.739 312.591 310.322 312.591 310.322C312.591 310.322 306.299 324.406 310.849 331.86C315.738 339.652 321.546 339.314 321.546 339.314C332.533 339.991 350.635 328.472 351.603 324.697Z" fill="#316777"/>
<path d="M288.343 268.745C288.343 268.745 285.777 267.535 285.148 270.1C284.519 272.617 285.487 275.328 285.487 275.328C291.876 296.963 293.328 309.741 293.328 309.741C293.328 309.741 293.618 313.516 292.892 313.71C292.36 314.097 291.828 313.564 291.828 313.564C291.102 313.613 284.083 301.851 284.083 301.851L282.728 299.576C275.032 287.186 270.338 282.927 270.338 282.927C269.224 281.91 266.466 279.103 262.932 282.975C259.447 286.847 256.689 299.383 255.624 311.144C254.704 322.906 255.382 329.585 257.124 332.392C259.012 335.248 262.642 336.216 265.643 333.796C268.837 331.376 268.208 315.888 268.74 307.95C269.224 299.964 269.999 301.416 269.999 301.416C270.676 301.222 274.355 308.531 274.355 308.531C274.355 308.531 283.938 328.085 289.94 330.989C296.039 333.893 300.927 329.246 302.766 324.89C304.654 320.486 307.848 305.965 303.105 289.896C298.217 273.682 288.343 268.745 288.343 268.745Z" fill="#316777"/>
<path d="M188.879 310.128C188.637 304.756 188.008 291.107 186.507 284.911C185.878 282.249 184.765 279.829 182.151 278.813C181.861 278.716 181.522 278.619 181.28 278.571C179.634 278.232 178.715 280.507 178.279 281.62C176.972 284.96 176.053 292.849 175.811 295.317C175.036 302.82 174.407 320.534 175.714 329.585C176.246 333.361 177.505 335.829 181.328 336.652C182.877 336.991 185.733 336.894 186.943 336.119C188.008 335.442 188.782 334.135 189.024 332.973C189.75 329.827 189.46 325.374 189.314 321.986C189.169 318.114 189.072 314.145 188.879 310.128Z" fill="#316777"/>
<path d="M250.784 280.265C242.507 275.86 228.907 275.86 220.436 276.925C211.724 277.99 200.06 280.7 195.123 287.864C193.235 290.574 192.122 294.785 192.993 298.173C193.477 300.061 194.832 301.513 196.817 302.529C200.35 304.368 212.111 304.756 217.339 305.336C222.276 305.869 231.375 306.74 236.409 308.821C236.409 308.821 241.152 310.467 241.104 313.177C241.104 314.533 240.087 315.597 239.071 316.324C231.617 321.599 221.404 323.1 212.305 322.954C209.207 322.906 206.691 322.422 203.544 321.067C202.189 320.486 200.495 319.421 200.737 317.582C201.124 314.678 204.464 313.952 207.078 314.194C208.578 314.339 210.466 314.968 211.918 315.501C217.774 317.824 220.436 319.76 225.567 318.937C227.503 318.647 234.134 317.195 235.005 314.484C235.247 313.807 234.908 313.081 234.424 312.597C233.747 311.871 229.729 310.322 228.665 309.935C224.744 308.531 217.339 307.273 213.225 307.127C207.804 306.934 200.398 308.047 197.301 312.5C194.542 316.517 193.913 324.648 207.707 331.521C214.096 334.716 221.888 336.119 229.052 335.345C233.166 334.861 244.927 333.022 249.38 323.68C251.8 318.647 251.558 311.919 248.945 307.127C247.25 303.981 245.169 299.77 229.778 297.834C227.309 297.544 209.207 295.414 207.562 295.172C206.642 295.027 202.383 294.543 203.883 292.897C204.319 292.413 205.577 292.075 206.352 291.881C215.838 289.267 227.89 289.606 237.909 289.025C240.136 288.88 245.218 288.59 247.638 287.815C249.961 287.089 251.897 285.444 252.429 282.878C252.72 281.572 252.042 280.942 250.784 280.265Z" fill="#316777"/>
<path d="M497.629 291.929H469.217C468.927 282.104 467.91 272.424 466.265 262.889C465.974 261.243 464.571 260.082 462.877 260.082H455.229C453.729 260.082 452.616 261.437 452.858 262.937C454.649 272.424 455.713 282.152 456.052 291.978H427.157C425.85 291.978 424.785 293.043 424.785 294.398V303.11C424.785 304.417 425.85 305.53 427.157 305.53H456.052C455.713 315.355 454.649 325.036 452.858 334.571C452.567 336.023 453.729 337.426 455.229 337.426H462.877C464.522 337.426 465.974 336.216 466.265 334.619C467.91 325.084 468.927 315.404 469.217 305.578H497.629C498.935 305.578 500 304.514 500 303.158V294.446C500 292.994 498.935 291.929 497.629 291.929Z" fill="#316777"/>
<path d="M106.113 186.56C107.226 187.335 108.824 186.754 109.937 185.544C119.665 175.041 130.362 165.893 142.511 157.617C222.227 103.214 339.26 111.152 407.748 180.075C430.254 202.581 442.645 226.782 449.131 245.803C449.615 247.207 450.921 248.126 452.373 248.126H460.214C461.86 248.126 463.022 246.529 462.489 244.98C453.971 219.764 437.466 192.127 413.507 169.62C341.632 101.956 225.179 94.4535 144.011 149.727C130.749 158.682 117.536 170.153 105.968 183.269C104.855 184.528 105.242 185.931 106.113 186.56Z" fill="#316777"/>
</svg>
