<svg width="500" height="500" viewBox="0 0 500 500" fill="none" xmlns="http://www.w3.org/2000/svg">
<path d="M180.44 201C165.54 200.98 155.672 208.853 154.284 220.625C153.96 223.346 153.627 226.065 153.283 228.783H347.151C347.151 228.783 347.516 225.916 347.799 223.614C349.257 211.755 344.23 201.001 325.946 201.001V201.003C325.946 201.003 188.295 201.009 180.44 201ZM62.125 201.004L58.7225 228.783H146.642L150.031 201.004H62.1236H62.125V201.004ZM357.25 201.004L353.855 228.783H449.166C449.166 228.783 449.282 227.779 449.704 224.509C452.024 206.275 440.288 201.004 428.956 201.004H357.25ZM352.542 239.361L345.115 299.989L377.998 299.977L385.431 239.372L352.542 239.359V239.361ZM415.011 239.361L407.572 299.989L440.455 299.977L447.888 239.372L415.011 239.359V239.361ZM57.4399 239.37L50 299.992H137.913L141.153 273.693L86.1033 273.687L87.4958 262.346H142.523L145.34 239.371H57.4442L57.4399 239.37ZM151.994 239.37C149.582 255.192 157.483 262.344 168.681 262.344C174.772 262.344 213.161 262.327 213.161 262.327L211.773 273.685L147.794 273.691L144.572 299.99C144.572 299.99 214.225 300.013 217.048 299.99C219.379 299.822 235.673 299.375 241.22 286.017C243.019 281.68 244.61 266.13 245.055 262.866C247.617 243.907 234.522 239.387 224.209 239.387C218.523 239.387 163.221 239.37 151.994 239.37ZM254.338 239.37L246.912 299.992H279.777L284.405 262.346H325.686C337.393 262.346 343.686 256.037 344.855 247.564C345.228 244.838 345.566 242.106 345.867 239.371H254.338V239.37Z" fill="#E52534"/>
</svg>
