<svg width="500" height="500" viewBox="0 0 500 500" fill="none" xmlns="http://www.w3.org/2000/svg">
<path d="M50 247.44C50.0909 246.985 50.2423 246.561 50.3029 246.107C51.0299 240.564 53.1503 235.656 57.1791 231.688C59.9356 228.962 63.298 227.417 67.0541 226.63C69.3866 226.145 71.719 225.993 74.0515 226.236C77.7471 226.599 81.0791 227.962 84.0477 230.174C84.5627 230.567 85.0776 230.992 85.5623 231.416C85.7743 231.567 85.9864 231.719 86.2893 231.9C86.4104 231.628 86.5316 231.416 86.6225 231.204C86.8042 230.719 86.9557 230.204 87.198 229.719C87.8947 228.174 89.1064 227.266 90.7724 227.084C92.4385 226.902 94.1045 226.902 95.7705 227.175C97.3154 227.447 98.2544 228.296 98.5271 229.871C98.6785 230.658 98.7088 231.446 98.7088 232.264C98.7391 233.869 98.7088 235.475 98.7088 237.05C98.7088 240.776 98.7391 244.502 98.7391 248.227C98.7694 255.043 98.8603 261.828 98.7694 268.644C98.7088 274.248 96.9216 279.307 93.4078 283.699C90.2575 287.637 86.1075 290.06 81.2306 291.272C80.0189 291.575 78.777 291.756 77.535 292.029C77.2018 292.09 76.8989 292.211 76.596 292.332C74.5059 292.332 72.4157 292.332 70.3559 292.332C69.7804 292.18 69.2048 291.999 68.6293 291.908C64.7217 291.302 60.9353 290.242 57.3306 288.576C55.7857 287.879 54.2711 287.122 52.8171 286.243C51.0905 285.213 50.6058 283.699 51.3631 281.881C52.0598 280.124 53.0897 278.58 54.362 277.186C55.0284 276.429 55.9069 276.187 56.9368 276.338C57.8758 276.489 58.6937 276.883 59.4813 277.338C61.1776 278.277 62.9648 279.064 64.8126 279.64C68.9625 280.973 73.173 281.245 77.4139 280.155C81.5335 279.095 84.1386 276.489 85.1685 272.34C85.6229 270.492 85.7137 268.614 85.6229 266.705C85.6229 266.554 85.532 266.311 85.4411 266.281C85.2897 266.251 85.1079 266.342 84.9262 266.402C84.8353 266.433 84.7747 266.524 84.7141 266.584C82.9269 268.068 81.0791 269.401 78.8679 270.159C75.2026 271.4 71.4767 271.885 67.6297 271.249C61.3896 270.219 56.5733 267.008 53.3018 261.616C51.5449 258.708 50.6664 255.497 50.3029 252.135C50.2423 251.65 50.0909 251.196 50 250.742C50 249.651 50 248.561 50 247.44ZM63.6312 248.894C63.6918 249.681 63.6918 250.499 63.7827 251.287C63.8735 252.074 64.025 252.862 64.237 253.65C65.2669 257.285 67.5994 259.617 71.3253 260.496C74.203 261.192 77.0201 260.889 79.6857 259.647C81.9879 258.617 83.6842 256.951 84.6838 254.589C85.9258 251.62 86.1984 248.561 85.32 245.41C84.3203 241.836 82.1999 239.261 78.6861 237.959C76.1416 236.989 73.5365 236.959 70.9012 237.716C67.7811 238.625 65.6607 240.624 64.5097 243.653C63.8735 245.38 63.6312 247.107 63.6312 248.894Z" fill="#F61E22"/>
<path d="M186.1 208.03C186.797 208.121 187.494 208.242 188.16 208.333C189.856 208.576 190.644 209.333 190.886 211.029C191.038 212.029 191.129 213.059 191.129 214.058C191.159 218.117 191.129 222.146 191.098 226.205C191.098 227.841 191.068 229.507 191.068 231.143C191.068 231.385 190.947 231.749 191.28 231.839C191.462 231.87 191.704 231.718 191.886 231.567C193.673 230.113 195.581 228.81 197.671 227.841C200.277 226.629 203.033 226.236 205.88 226.236C209.122 226.236 212.242 226.72 215.18 228.144C220.057 230.507 223.207 234.354 224.752 239.534C225.691 242.654 226.236 245.834 226.418 249.106C226.63 252.832 226.267 256.527 225.055 260.071C222.723 266.947 218.118 271.552 211.03 273.339C204.033 275.126 197.641 273.642 191.977 269.128C191.462 268.704 190.947 268.25 190.402 267.826C190.371 267.796 190.311 267.826 190.189 267.796C190.129 268.098 190.038 268.432 189.977 268.735C189.826 269.492 189.614 270.249 189.19 270.916C188.402 272.097 187.251 272.703 185.858 272.854C184.131 273.036 182.435 273.006 180.708 272.703C180.526 272.672 180.314 272.642 180.133 272.582C178.739 272.248 178.073 271.461 177.952 270.037C177.921 269.522 177.891 269.007 177.891 268.523C177.891 249.924 177.891 231.355 177.891 212.756C177.891 212.271 177.891 211.786 177.952 211.302C178.103 209.545 179.133 208.454 180.86 208.212C181.223 208.151 181.587 208.182 181.95 208.151C182.223 208.121 182.465 208.061 182.707 208C183.859 208.03 184.979 208.03 186.1 208.03ZM213.332 250.075C213.332 247.833 213.029 246.016 212.272 244.108C211.03 240.897 208.849 238.716 205.426 237.898C204.033 237.565 202.609 237.443 201.185 237.534C197.853 237.777 195.157 239.2 193.31 242.048C191.825 244.32 191.068 246.803 191.068 249.53C191.068 251.68 191.492 253.771 192.158 255.8C192.916 258.011 194.309 259.738 196.308 260.95C198.277 262.161 200.458 262.676 202.76 262.585C206.941 262.434 209.97 260.526 211.909 256.83C212.999 254.71 213.363 252.438 213.332 250.075Z" fill="#F61E22"/>
<path d="M450 231.597C449.576 232.597 449.092 233.566 448.698 234.566C443.457 247.985 438.247 261.404 432.643 274.672C430.826 279.004 428.493 283.032 425.555 286.698C423.011 289.878 419.648 291.544 415.619 291.908C411.53 292.271 407.834 291.211 404.624 288.667C404.048 288.212 403.503 287.667 403.018 287.091C402.2 286.122 402.049 284.971 402.564 283.82C403.351 282.093 404.442 280.609 405.866 279.367C406.805 278.579 407.865 278.428 408.986 278.882C409.773 279.185 410.53 279.579 411.318 279.912C411.863 280.124 412.409 280.306 412.954 280.458C413.923 280.73 414.862 280.518 415.65 279.943C416.286 279.518 416.861 278.973 417.376 278.428C418.77 276.944 419.739 275.187 420.678 273.4C420.951 272.854 420.83 272.37 420.587 271.855C419.981 270.552 419.406 269.25 418.8 267.947C413.348 256.043 407.925 244.138 402.473 232.203C402.321 231.84 402.14 231.506 402.049 231.113C401.413 228.962 402.715 227.114 404.987 227.053C406.623 226.993 408.289 227.023 409.925 227.023C410.742 227.023 411.56 227.053 412.409 227.023C414.165 226.993 415.347 227.811 415.983 229.447C416.68 231.234 417.376 233.051 418.103 234.869C420.951 242.108 423.828 249.378 426.676 256.618C426.767 256.8 426.888 256.982 426.979 257.194C427.373 257.012 427.342 256.679 427.433 256.436C428.857 252.377 430.25 248.288 431.674 244.229C433.34 239.412 435.006 234.626 436.642 229.81C436.733 229.537 436.854 229.265 436.945 228.992C437.46 227.69 438.429 227.053 439.822 227.053C441.579 227.053 443.367 227.053 445.123 227.053C445.669 227.053 446.184 227.023 446.729 227.053C448.001 227.084 449.092 227.508 449.849 228.598C449.879 228.629 449.94 228.629 449.97 228.659C450 229.659 450 230.628 450 231.597Z" fill="#F61E22"/>
<path d="M113.249 208.03C113.582 208.091 113.915 208.151 114.248 208.182C115.006 208.273 115.763 208.273 116.49 208.424C118.126 208.697 118.822 209.545 118.883 211.211C118.944 213.15 119.035 215.088 119.035 217.027C119.065 224.691 119.065 232.385 119.065 240.109C119.065 249.166 119.065 258.223 119.035 267.281C119.035 268.311 118.974 269.31 118.883 270.34C118.762 271.764 118.095 272.551 116.672 272.672C114.885 272.824 113.097 272.885 111.31 272.915C110.432 272.945 109.584 272.794 108.705 272.703C107.191 272.551 106.403 271.855 106.161 270.37C105.979 269.25 105.827 268.098 105.827 266.978C105.797 249.197 105.797 231.415 105.827 213.634C105.827 212.665 105.918 211.696 106.009 210.726C106.161 209.363 106.797 208.666 108.13 208.424C108.887 208.273 109.674 208.242 110.432 208.151C110.735 208.121 111.038 208.061 111.34 208C111.977 208.03 112.613 208.03 113.249 208.03Z" fill="#F61E22"/>
<path d="M297.785 268.674C297.785 268.947 297.785 269.189 297.785 269.461C297.785 274.369 297.785 279.306 297.785 284.213C297.785 285.425 297.785 286.637 297.755 287.848C297.724 288.363 297.634 288.848 297.512 289.363C297.149 290.696 296.331 291.393 294.968 291.453C292.878 291.544 290.818 291.605 288.728 291.605C288.092 291.605 287.425 291.483 286.789 291.332C285.88 291.12 285.244 290.514 284.972 289.636C284.76 289 284.669 288.333 284.578 287.667C284.517 287.152 284.548 286.637 284.548 286.152C284.548 271.188 284.548 256.194 284.548 241.23C284.548 238.049 284.517 234.869 284.548 231.718C284.548 230.991 284.578 230.264 284.76 229.567C285.063 228.356 285.82 227.629 287.122 227.417C289.182 227.114 291.212 226.993 293.272 227.296C294.847 227.508 295.877 228.386 296.361 229.901C296.573 230.567 296.634 231.264 296.755 231.961C296.785 232.082 296.755 232.203 296.785 232.324C296.876 232.778 297.24 232.9 297.573 232.597C297.785 232.415 297.937 232.203 298.118 232.021C300.935 229.567 303.995 227.568 307.69 226.781C310.023 226.266 312.386 226.175 314.779 226.417C317.202 226.629 319.504 227.205 321.685 228.235C325.744 230.143 328.682 233.202 330.651 237.201C332.166 240.382 333.105 243.714 333.469 247.227C334.044 252.801 333.075 258.132 330.561 263.161C327.713 268.856 323.109 272.309 316.838 273.551C314.536 274.005 312.234 274.187 309.902 273.945C307.327 273.672 304.904 272.884 302.601 271.673C301.208 270.915 299.905 270.067 298.664 269.068C298.482 268.916 298.239 268.795 298.027 268.644C297.906 268.613 297.846 268.644 297.785 268.674ZM297.694 249.318C297.724 251.226 297.967 253.043 298.482 254.861C299.148 257.133 300.239 259.132 302.208 260.495C304.873 262.373 307.842 263.04 311.022 262.494C314.869 261.828 317.535 259.556 318.959 255.982C320.867 251.317 320.413 246.743 318.111 242.32C317.05 240.291 315.354 238.867 313.173 238.17C311.022 237.474 308.781 237.292 306.57 237.777C302.238 238.685 299.512 241.411 298.27 245.622C297.967 246.803 297.876 248.076 297.694 249.318Z" fill="#F61E22"/>
<path d="M147.963 226.205C152.295 226.145 156.111 226.811 159.746 228.477C166.38 231.537 170.47 236.656 172.075 243.775C172.529 245.774 172.802 247.773 172.802 249.833C172.893 255.709 171.015 260.889 167.38 265.494C164.139 269.644 159.868 272.097 154.809 273.309C151.78 274.006 148.751 274.278 145.661 274.006C141.844 273.672 138.3 272.43 134.998 270.492C129.728 267.432 126.517 262.889 125.032 257.042C124.245 253.953 123.912 250.802 124.184 247.622C124.457 244.38 125.426 241.321 126.971 238.443C130.364 232.143 135.604 228.356 142.571 226.811C144.479 226.387 146.388 226.115 147.963 226.205ZM137.331 248.833C137.331 252.983 138.118 255.74 139.603 258.012C140.602 259.526 141.905 260.677 143.54 261.465C145.57 262.434 147.721 262.828 149.962 262.616C152.476 262.343 154.597 261.344 156.263 259.405C157.293 258.193 158.111 256.861 158.595 255.346C159.504 252.529 159.777 249.651 159.201 246.743C159.05 245.956 158.838 245.198 158.565 244.441C156.748 239.473 151.719 236.656 146.479 237.625C143.268 238.231 140.935 240.018 139.269 242.775C137.906 244.956 137.361 247.41 137.331 248.833Z" fill="#F61E22"/>
<path d="M279.671 249.802C279.671 256.315 277.55 261.586 273.582 266.19C270.371 269.916 266.312 272.188 261.526 273.278C258.618 273.945 255.68 274.217 252.711 273.975C248.046 273.612 243.806 272.006 239.989 269.31C235.324 266.039 232.658 261.495 231.477 256.012C230.871 253.195 230.659 250.348 230.901 247.5C231.265 243.471 232.658 239.776 234.93 236.413C238.474 231.173 243.412 228.114 249.531 226.811C252.711 226.114 255.922 226.114 259.133 226.508C263.132 226.993 266.797 228.295 270.099 230.598C274.885 233.96 277.732 238.534 278.974 244.198C279.428 246.198 279.61 248.227 279.671 249.802ZM266.252 250.045C266.282 247.924 265.858 245.864 265.07 243.865C264.071 241.381 262.465 239.443 259.921 238.443C257.437 237.443 254.892 237.231 252.287 237.928C248.652 238.867 246.259 241.29 244.987 244.744C243.684 248.318 243.715 251.983 244.987 255.558C246.047 258.526 248.046 260.677 251.015 261.858C253.075 262.676 255.195 262.828 257.376 262.464C260.739 261.889 263.192 260.071 264.646 256.951C265.706 254.77 266.252 252.468 266.252 250.045Z" fill="#F61E22"/>
<path d="M389.296 267.432C388.751 267.462 388.569 267.795 388.296 268.068C386.6 269.795 384.661 271.188 382.48 272.218C380.572 273.096 378.542 273.581 376.483 273.854C373.665 274.217 370.879 274.157 368.122 273.43C366.093 272.915 364.154 272.157 362.427 270.946C359.247 268.734 357.55 265.645 357.096 261.828C356.884 259.92 356.975 258.042 357.459 256.194C358.277 253.013 360.155 250.59 362.912 248.833C365.244 247.318 367.819 246.44 370.545 245.955C373.665 245.41 376.816 245.44 379.966 245.773C382.389 246.016 384.813 246.5 387.175 247.015C387.933 247.197 388.084 247.076 388.084 246.288C388.084 244.956 387.872 243.683 387.448 242.441C386.388 239.443 384.237 237.595 381.117 237.08C376.543 236.292 372.09 236.716 367.88 238.867C366.971 239.321 366.002 239.655 364.972 239.715C363.76 239.806 362.76 239.443 362.064 238.443C361.458 237.534 360.882 236.625 360.307 235.686C360.246 235.596 360.216 235.505 360.186 235.414C359.277 233.536 359.61 232.173 361.337 231.021C362.942 229.961 364.608 229.053 366.395 228.326C370.364 226.659 374.544 225.872 378.845 225.902C382.723 225.932 386.449 226.75 389.993 228.235C395.112 230.385 398.293 234.263 399.807 239.564C400.413 241.714 400.655 243.895 400.655 246.107C400.655 253.649 400.625 261.162 400.595 268.704C400.595 269.28 400.534 269.855 400.413 270.431C400.201 271.461 399.534 272.188 398.535 272.46C397.687 272.672 396.839 272.824 395.96 272.884C394.93 272.945 393.87 272.884 392.84 272.763C391.628 272.612 390.72 271.945 390.326 270.734C390.023 269.855 389.811 268.977 389.538 268.098C389.508 267.917 389.387 267.674 389.296 267.432ZM378.603 253.77C377.846 253.831 377.058 253.861 376.301 253.982C375.271 254.164 374.241 254.346 373.272 254.709C371.454 255.346 370.273 256.709 369.697 258.557C369.606 258.859 369.546 259.193 369.606 259.465C369.879 260.677 370.394 261.798 371.333 262.676C372.605 263.888 374.211 264.342 375.907 264.433C379.996 264.615 383.238 262.949 385.691 259.738C386.479 258.678 387.024 257.496 387.297 256.194C387.448 255.467 387.327 255.224 386.661 255.043C384.025 254.407 381.36 253.861 378.603 253.77Z" fill="#F61E22"/>
<path d="M338.799 241.048C338.799 233.021 338.799 225.024 338.799 216.997C338.799 214.997 338.83 212.968 338.769 210.969C338.678 208.757 339.981 207.727 342.131 208.394C343.888 208.969 345.645 209.636 347.402 210.272C347.766 210.393 348.099 210.575 348.493 210.696C350.462 211.393 351.31 212.877 351.431 214.876C351.461 215.27 351.461 215.664 351.461 216.027C351.461 219.693 351.461 223.358 351.461 226.993C351.461 240.048 351.461 253.104 351.461 266.16C351.461 266.735 351.431 267.311 351.34 267.886C351.067 269.431 350.219 270.582 348.796 271.219C346.796 272.097 344.767 272.854 342.737 273.612C342.01 273.884 341.223 273.945 340.465 273.733C339.436 273.46 338.89 272.824 338.86 271.764C338.83 270.734 338.86 269.674 338.86 268.644C338.86 264.282 338.86 259.92 338.86 255.558C338.769 250.741 338.769 245.895 338.799 241.048Z" fill="#F61E22"/>
</svg>
