<svg width="500" height="500" viewBox="0 0 500 500" fill="none" xmlns="http://www.w3.org/2000/svg">
<g clip-path="url(#clip0_47_13)">
<path d="M0 246.3C0.113593 245.732 0.302916 245.201 0.378644 244.634C1.28739 237.704 3.9379 231.57 8.97387 226.61C12.4195 223.202 16.6225 221.271 21.3177 220.287C24.2332 219.681 27.1488 219.492 30.0644 219.794C34.6838 220.249 38.8489 221.953 42.5596 224.717C43.2033 225.209 43.847 225.739 44.4529 226.269C44.7179 226.459 44.983 226.648 45.3616 226.875C45.5131 226.534 45.6645 226.269 45.7781 226.004C46.0053 225.398 46.1946 224.755 46.4975 224.149C47.3684 222.218 48.883 221.082 50.9655 220.855C53.0481 220.627 55.1306 220.627 57.2132 220.968C59.1443 221.309 60.3181 222.369 60.6588 224.338C60.8482 225.323 60.886 226.307 60.886 227.329C60.9239 229.336 60.886 231.343 60.886 233.312C60.886 237.969 60.9239 242.627 60.9239 247.284C60.9618 255.804 61.0753 264.285 60.9618 272.805C60.886 279.81 58.652 286.133 54.2597 291.623C50.3218 296.546 45.1344 299.575 39.0382 301.089C37.5237 301.468 35.9712 301.695 34.4188 302.036C34.0023 302.112 33.6236 302.263 33.245 302.415C30.6323 302.415 28.0197 302.415 25.4449 302.415C24.7255 302.225 24.0061 301.998 23.2866 301.885C18.4021 301.127 13.6691 299.802 9.1632 297.719C7.23211 296.849 5.33889 295.902 3.52139 294.804C1.36312 293.517 0.757289 291.623 1.7039 289.351C2.57478 287.155 3.86217 285.224 5.45248 283.482C6.2855 282.536 7.38357 282.233 8.67096 282.422C9.84476 282.612 10.8671 283.104 11.8516 283.672C13.972 284.846 16.206 285.83 18.5157 286.549C23.7031 288.215 28.9663 288.556 34.2673 287.193C39.4169 285.868 42.6732 282.612 43.9606 277.424C44.5286 275.114 44.6422 272.767 44.5286 270.381C44.5286 270.192 44.415 269.889 44.3014 269.851C44.1121 269.813 43.8849 269.927 43.6577 270.003C43.5441 270.041 43.4684 270.154 43.3927 270.23C41.1586 272.085 38.8489 273.751 36.0848 274.698C31.5032 276.25 26.8459 276.856 22.0371 276.061C14.237 274.774 8.21658 270.76 4.12722 264.02C1.93109 260.385 0.833018 256.371 0.378644 252.169C0.302916 251.563 0.113593 250.995 0 250.427C0 249.064 0 247.701 0 246.3ZM17.039 248.117C17.1147 249.102 17.1147 250.124 17.2283 251.108C17.3419 252.093 17.5312 253.077 17.7963 254.062C19.0837 258.605 21.9992 261.521 26.6566 262.619C30.2537 263.49 33.7751 263.111 37.1072 261.559C39.9849 260.272 42.1053 258.189 43.3548 255.236C44.9072 251.525 45.248 247.701 44.1499 243.763C42.9004 239.295 40.2499 236.076 35.8576 234.448C32.677 233.236 29.4207 233.198 26.1265 234.145C22.2264 235.281 19.5759 237.78 18.1371 241.566C17.3419 243.725 17.039 245.883 17.039 248.117Z" fill="#F61E22"/>
<path d="M170.125 197.038C170.996 197.151 171.867 197.303 172.7 197.417C174.82 197.719 175.805 198.666 176.107 200.786C176.297 202.036 176.41 203.323 176.41 204.573C176.448 209.647 176.41 214.683 176.373 219.757C176.373 221.801 176.335 223.884 176.335 225.928C176.335 226.231 176.183 226.686 176.6 226.799C176.827 226.837 177.13 226.648 177.357 226.459C179.591 224.641 181.976 223.013 184.589 221.801C187.845 220.287 191.291 219.794 194.85 219.794C198.902 219.794 202.802 220.4 206.475 222.18C212.571 225.133 216.509 229.942 218.44 236.417C219.614 240.317 220.295 244.293 220.522 248.382C220.788 253.039 220.333 257.659 218.819 262.089C215.903 270.684 210.148 276.44 201.287 278.674C192.541 280.908 184.551 279.052 177.471 273.41C176.827 272.88 176.183 272.312 175.502 271.782C175.464 271.744 175.388 271.782 175.237 271.744C175.161 272.123 175.047 272.54 174.972 272.918C174.782 273.865 174.517 274.811 173.987 275.644C173.003 277.121 171.564 277.878 169.822 278.068C167.664 278.295 165.543 278.257 163.385 277.878C163.158 277.841 162.893 277.803 162.666 277.727C160.924 277.31 160.091 276.326 159.939 274.546C159.902 273.903 159.864 273.259 159.864 272.653C159.864 249.404 159.864 226.193 159.864 202.945C159.864 202.339 159.864 201.733 159.939 201.127C160.129 198.931 161.416 197.568 163.574 197.265C164.029 197.189 164.483 197.227 164.937 197.189C165.278 197.151 165.581 197.076 165.884 197C167.323 197.038 168.724 197.038 170.125 197.038ZM204.165 249.594C204.165 246.792 203.786 244.52 202.84 242.134C201.287 238.121 198.561 235.395 194.282 234.372C192.541 233.956 190.761 233.804 188.981 233.918C184.816 234.221 181.446 236 179.137 239.56C177.281 242.399 176.335 245.504 176.335 248.912C176.335 251.601 176.865 254.213 177.698 256.75C178.644 259.514 180.386 261.672 182.885 263.187C185.346 264.702 188.073 265.345 190.95 265.232C196.176 265.042 199.962 262.657 202.385 258.037C203.749 255.387 204.203 252.547 204.165 249.594Z" fill="#F61E22"/>
<path d="M500 226.497C499.47 227.746 498.864 228.958 498.372 230.207C491.821 246.981 485.309 263.755 478.304 280.34C476.032 285.754 473.116 290.79 469.443 295.372C466.263 299.348 462.06 301.43 457.024 301.885C451.912 302.339 447.293 301.014 443.279 297.833C442.56 297.265 441.878 296.584 441.272 295.864C440.25 294.653 440.061 293.214 440.704 291.775C441.689 289.617 443.052 287.761 444.831 286.209C446.005 285.224 447.331 285.035 448.731 285.603C449.716 285.982 450.663 286.474 451.647 286.89C452.329 287.155 453.01 287.383 453.692 287.572C454.903 287.913 456.077 287.648 457.062 286.928C457.857 286.398 458.576 285.717 459.22 285.035C460.962 283.18 462.173 280.983 463.347 278.749C463.688 278.068 463.537 277.462 463.234 276.818C462.476 275.19 461.757 273.562 461 271.934C454.184 257.053 447.406 242.172 440.591 227.254C440.401 226.799 440.174 226.383 440.061 225.891C439.265 223.202 440.894 220.893 443.733 220.817C445.778 220.741 447.861 220.779 449.905 220.779C450.928 220.779 451.95 220.817 453.01 220.779C455.206 220.741 456.683 221.763 457.478 223.808C458.349 226.042 459.22 228.314 460.129 230.586C463.688 239.635 467.285 248.723 470.844 257.773C470.958 258 471.109 258.227 471.223 258.492C471.715 258.265 471.677 257.848 471.791 257.545C473.571 252.472 475.312 247.36 477.092 242.286C479.175 236.266 481.257 230.283 483.302 224.263C483.415 223.922 483.567 223.581 483.68 223.24C484.324 221.612 485.536 220.817 487.278 220.817C489.474 220.817 491.708 220.817 493.904 220.817C494.585 220.817 495.229 220.779 495.911 220.817C497.501 220.855 498.864 221.385 499.811 222.748C499.849 222.786 499.924 222.786 499.962 222.824C500 224.073 500 225.285 500 226.497Z" fill="#F61E22"/>
<path d="M79.0609 197.038C79.4774 197.114 79.8939 197.189 80.3105 197.227C81.2571 197.341 82.2037 197.341 83.1124 197.53C85.1571 197.871 86.028 198.931 86.1037 201.014C86.1794 203.437 86.293 205.86 86.293 208.284C86.3309 217.863 86.3309 227.481 86.3309 237.136C86.3309 248.458 86.3309 259.779 86.293 271.101C86.293 272.388 86.2173 273.638 86.1037 274.925C85.9523 276.705 85.1192 277.689 83.3396 277.841C81.1056 278.03 78.8716 278.106 76.6376 278.144C75.5395 278.181 74.4793 277.992 73.3813 277.878C71.488 277.689 70.5036 276.818 70.2006 274.963C69.9735 273.562 69.7841 272.123 69.7841 270.722C69.7463 248.496 69.7463 226.269 69.7841 204.043C69.7841 202.831 69.8977 201.619 70.0113 200.408C70.2006 198.704 70.9958 197.833 72.6618 197.53C73.6084 197.341 74.5929 197.303 75.5395 197.189C75.9182 197.151 76.2968 197.076 76.6755 197C77.4706 197.038 78.2658 197.038 79.0609 197.038Z" fill="#F61E22"/>
<path d="M309.731 272.842C309.731 273.183 309.731 273.486 309.731 273.827C309.731 279.961 309.731 286.133 309.731 292.267C309.731 293.781 309.731 295.296 309.693 296.811C309.655 297.454 309.542 298.06 309.39 298.704C308.936 300.37 307.914 301.241 306.21 301.316C303.597 301.43 301.022 301.506 298.41 301.506C297.615 301.506 296.782 301.354 295.986 301.165C294.85 300.9 294.055 300.143 293.715 299.045C293.449 298.249 293.336 297.416 293.222 296.583C293.147 295.94 293.184 295.296 293.184 294.69C293.184 275.985 293.184 257.242 293.184 238.537C293.184 234.561 293.147 230.586 293.184 226.648C293.184 225.739 293.222 224.83 293.449 223.959C293.828 222.445 294.775 221.536 296.403 221.271C298.978 220.892 301.515 220.741 304.089 221.12C306.058 221.385 307.346 222.483 307.952 224.376C308.217 225.209 308.292 226.08 308.444 226.951C308.482 227.102 308.444 227.254 308.482 227.405C308.595 227.973 309.05 228.124 309.466 227.746C309.731 227.519 309.921 227.254 310.148 227.026C313.669 223.959 317.493 221.46 322.113 220.476C325.028 219.832 327.982 219.719 330.973 220.021C334.002 220.287 336.88 221.006 339.606 222.293C344.68 224.679 348.353 228.503 350.814 233.501C352.707 237.477 353.881 241.642 354.336 246.034C355.055 253.001 353.843 259.666 350.701 265.951C347.141 273.07 341.386 277.386 333.548 278.939C330.67 279.507 327.793 279.734 324.877 279.431C321.658 279.09 318.629 278.106 315.752 276.591C314.01 275.644 312.382 274.584 310.829 273.335C310.602 273.145 310.299 272.994 310.034 272.804C309.883 272.767 309.807 272.804 309.731 272.842ZM309.618 248.647C309.655 251.032 309.958 253.304 310.602 255.576C311.435 258.416 312.798 260.915 315.259 262.619C318.591 264.967 322.302 265.8 326.278 265.118C331.087 264.285 334.419 261.445 336.198 256.977C338.584 251.146 338.016 245.429 335.138 239.9C333.813 237.363 331.693 235.584 328.966 234.713C326.278 233.842 323.476 233.615 320.712 234.221C315.297 235.357 311.889 238.764 310.337 244.028C309.958 245.504 309.845 247.095 309.618 248.647Z" fill="#F61E22"/>
<path d="M122.454 219.757C127.868 219.681 132.639 220.514 137.183 222.597C145.475 226.421 150.587 232.82 152.594 241.718C153.162 244.217 153.502 246.716 153.502 249.291C153.616 256.637 151.268 263.111 146.725 268.867C142.673 274.054 137.334 277.121 131.011 278.636C127.225 279.507 123.438 279.848 119.576 279.507C114.805 279.09 110.375 277.538 106.248 275.115C99.6593 271.29 95.6456 265.611 93.7903 258.303C92.8058 254.441 92.3893 250.503 92.7301 246.527C93.0708 242.475 94.2825 238.651 96.2136 235.054C100.454 227.178 107.005 222.445 115.714 220.514C118.099 219.984 120.485 219.643 122.454 219.757ZM109.163 248.041C109.163 253.229 110.148 256.675 112.003 259.514C113.253 261.408 114.881 262.846 116.925 263.831C119.462 265.043 122.151 265.535 124.953 265.27C128.095 264.929 130.746 263.679 132.829 261.256C134.116 259.742 135.138 258.076 135.744 256.182C136.88 252.661 137.221 249.064 136.501 245.429C136.312 244.444 136.047 243.498 135.706 242.551C133.434 236.341 127.149 232.82 120.598 234.032C116.585 234.789 113.669 237.023 111.587 240.469C109.883 243.195 109.201 246.262 109.163 248.041Z" fill="#F61E22"/>
<path d="M287.088 249.253C287.088 257.394 284.438 263.982 279.477 269.737C275.464 274.395 270.39 277.235 264.407 278.598C260.772 279.431 257.1 279.772 253.389 279.469C247.558 279.014 242.257 277.007 237.486 273.638C231.655 269.548 228.323 263.868 226.846 257.015C226.089 253.494 225.824 249.934 226.126 246.375C226.581 241.339 228.323 236.72 231.162 232.517C235.593 225.966 241.764 222.142 249.413 220.514C253.389 219.643 257.402 219.643 261.416 220.135C266.414 220.741 270.996 222.369 275.123 225.247C281.106 229.45 284.665 235.167 286.217 242.248C286.785 244.747 287.012 247.284 287.088 249.253ZM270.314 249.556C270.352 246.905 269.822 244.33 268.838 241.831C267.588 238.727 265.581 236.303 262.401 235.054C259.296 233.804 256.115 233.539 252.859 234.41C248.315 235.584 245.324 238.613 243.733 242.929C242.105 247.397 242.143 251.979 243.733 256.447C245.059 260.158 247.558 262.846 251.268 264.323C253.843 265.345 256.494 265.535 259.22 265.08C263.423 264.361 266.49 262.089 268.307 258.189C269.633 255.463 270.314 252.585 270.314 249.556Z" fill="#F61E22"/>
<path d="M424.12 271.29C423.438 271.328 423.211 271.745 422.87 272.085C420.75 274.244 418.326 275.985 415.6 277.273C413.215 278.371 410.678 278.977 408.103 279.317C404.582 279.772 401.098 279.696 397.652 278.787C395.115 278.144 392.692 277.197 390.534 275.682C386.558 272.918 384.438 269.056 383.87 264.285C383.605 261.9 383.718 259.552 384.324 257.242C385.346 253.267 387.694 250.238 391.14 248.041C394.055 246.148 397.274 245.05 400.682 244.444C404.582 243.763 408.52 243.801 412.457 244.217C415.487 244.52 418.516 245.126 421.469 245.77C422.416 245.997 422.605 245.845 422.605 244.861C422.605 243.195 422.34 241.604 421.81 240.052C420.485 236.303 417.796 233.994 413.896 233.35C408.179 232.366 402.613 232.896 397.349 235.584C396.214 236.152 395.002 236.568 393.715 236.644C392.2 236.758 390.95 236.303 390.079 235.054C389.322 233.918 388.603 232.782 387.883 231.608C387.808 231.495 387.77 231.381 387.732 231.267C386.596 228.92 387.013 227.216 389.171 225.777C391.178 224.452 393.26 223.316 395.494 222.407C400.454 220.325 405.68 219.34 411.056 219.378C415.903 219.416 420.56 220.438 424.991 222.294C431.39 224.982 435.365 229.829 437.259 236.455C438.016 239.143 438.319 241.869 438.319 244.634C438.319 254.062 438.281 263.452 438.243 272.88C438.243 273.6 438.167 274.319 438.016 275.039C437.751 276.326 436.918 277.235 435.668 277.576C434.608 277.841 433.548 278.03 432.45 278.106C431.162 278.181 429.837 278.106 428.55 277.954C427.035 277.765 425.899 276.932 425.407 275.417C425.028 274.319 424.763 273.221 424.423 272.123C424.385 271.896 424.233 271.593 424.12 271.29ZM410.754 254.213C409.807 254.289 408.822 254.327 407.876 254.478C406.588 254.706 405.301 254.933 404.089 255.387C401.817 256.182 400.341 257.886 399.621 260.196C399.508 260.575 399.432 260.991 399.508 261.332C399.849 262.846 400.492 264.247 401.666 265.345C403.256 266.86 405.263 267.428 407.384 267.542C412.495 267.769 416.547 265.686 419.614 261.673C420.598 260.347 421.28 258.871 421.621 257.242C421.81 256.334 421.658 256.031 420.825 255.804C417.531 255.008 414.199 254.327 410.754 254.213Z" fill="#F61E22"/>
<path d="M361 238.31C361 228.276 361 218.28 361 208.246C361 205.747 361.037 203.21 360.962 200.711C360.848 197.947 362.476 196.659 365.165 197.492C367.361 198.212 369.557 199.045 371.753 199.84C372.207 199.991 372.624 200.218 373.116 200.37C375.577 201.241 376.638 203.096 376.789 205.595C376.827 206.087 376.827 206.58 376.827 207.034C376.827 211.616 376.827 216.197 376.827 220.741C376.827 237.061 376.827 253.38 376.827 269.7C376.827 270.419 376.789 271.139 376.676 271.858C376.335 273.789 375.275 275.228 373.495 276.023C370.996 277.121 368.459 278.068 365.922 279.014C365.013 279.355 364.029 279.431 363.082 279.166C361.795 278.825 361.113 278.03 361.075 276.705C361.037 275.417 361.075 274.092 361.075 272.805C361.075 267.352 361.075 261.9 361.075 256.447C360.962 250.427 360.962 244.368 361 238.31Z" fill="#F61E22"/>
</g>
<defs>
<clipPath id="clip0_47_13">
<rect width="500" height="500" fill="white"/>
</clipPath>
</defs>
</svg>
