<svg width="500" height="500" viewBox="0 0 500 500" fill="none" xmlns="http://www.w3.org/2000/svg">
<path d="M380.457 147.313C382.089 146.702 383.683 145.94 385.363 145.52C387.388 145.014 389.487 144.807 391.551 144.453C392.293 144.325 393.263 144.394 393.724 143.952C396.903 140.904 400.934 139.945 405.036 139.326C407.761 138.914 410.339 136.953 413.326 138.431C413.684 138.608 414.515 137.901 415.092 137.547C417.277 136.21 419.318 134.528 421.659 133.592C423.857 132.714 426.525 131.87 428.703 132.335C432.83 133.216 436.464 132.592 440.104 130.846C440.724 130.549 441.417 130.402 442.032 130.098C447.982 127.161 450.04 130.462 449.999 135.89C449.96 141.279 448.316 146.439 445.203 150.881C444.255 152.234 442.228 153.575 440.653 153.625C428.727 154.005 417.668 157.947 406.465 161.394C401.197 163.015 395.882 164.575 390.489 165.68C385.675 166.667 382.569 169.311 380.522 173.583C370.565 194.359 360.354 215.016 350.679 235.921C339.098 260.944 328.031 286.199 318.889 312.25C316.474 319.133 314.631 325.968 316.567 333.341C316.846 334.4 316.156 336.59 315.388 336.885C313.122 337.755 310.185 338.972 308.235 338.207C299.921 334.946 294.918 325.383 296.535 316.643C298.104 308.161 300.777 300.092 305.696 292.831C307.892 289.591 309.499 285.945 311.287 282.439C311.722 281.586 312.165 280.491 311.999 279.622C311.351 276.233 313.399 274.051 314.883 271.383C318.119 265.565 321.004 259.513 323.506 253.343C324.511 250.867 324.133 247.83 324.414 244.716C326.054 244.385 327.945 243.76 328.912 241.228C329.548 239.563 329.952 238.475 329.173 236.669C328.628 235.408 328.911 233.167 329.741 232.036C334.841 225.083 338.746 217.67 341.458 209.399C343.495 203.19 347.229 197.555 349.947 191.546C351.7 187.672 352.982 183.584 354.691 179.014C348.209 180.872 342.646 182.426 337.121 184.107C336.503 184.295 335.976 185.13 335.62 185.782C324.591 206.014 313.588 226.261 302.586 246.509C302.4 246.851 302.282 247.231 301.809 248.377C306.804 246.557 311.24 244.941 316.043 243.191C316.354 244.271 317.002 245.308 316.854 246.214C316.128 250.654 315.266 255.077 314.253 259.459C314.076 260.222 313.047 261.086 312.231 261.354C306.439 263.252 300.587 264.964 294.792 266.855C293.899 267.147 292.858 267.886 292.471 268.698C286.741 280.712 281.506 292.924 278.268 305.894C277.983 307.039 277.719 308.202 277.294 309.298C276.062 312.477 274.065 313.575 270.774 312.758C264.608 311.227 259.519 308.407 258.385 302.7C259.792 299.718 260.974 297.668 261.75 295.474C263.441 290.694 263.8 285.487 267.09 281.196C267.969 280.05 267.223 277.658 267.223 275.409C264.899 276.381 262.917 277.158 260.978 278.028C253.788 281.253 246.553 284.387 239.468 287.828C237.43 288.818 235.477 290.458 234.118 292.273C231.114 296.288 228.484 300.585 225.752 304.799C222.515 309.794 218.757 310.701 213.745 307.565C212.496 306.784 211.315 305.883 210.156 304.968C207.203 302.634 207.132 301.695 209.522 298.703C212.829 294.562 216.238 290.493 219.346 286.207C220.35 284.822 220.542 282.848 221.106 281.143C220.865 281.023 220.625 280.903 220.384 280.784C219.881 281.313 219.375 281.841 218.873 282.372C212.11 289.532 205.556 296.907 198.51 303.778C193.755 308.415 187.708 310.921 180.951 311.408C175.688 311.786 170.981 310.344 166.891 307.069C164.356 305.039 161.963 302.828 159.545 300.655C156.368 297.799 155.47 294.276 156.595 290.186C157.85 285.628 159.089 281.066 160.33 276.504C161.132 273.556 159.854 270.78 157.367 270.049C154.017 269.065 151.911 270.236 150.455 273.171C148.985 276.132 147.378 279.15 145.24 281.633C133.968 294.719 123.257 308.218 113.959 322.793C107.944 332.222 104.876 342.828 101.87 353.459C100.451 358.476 99.0367 363.509 97.2776 368.411C95.9259 372.178 94.9818 372.415 91.7451 370.115C88.9753 368.147 85.9951 366.188 83.9323 363.575C80.1899 358.833 78.3441 349.141 84.7982 343.356C85.8457 342.417 86.1134 340.617 86.7652 339.226C89.5217 333.344 94.4191 328.33 93.3267 321.252C93.3531 321.237 92.766 321.592 92.157 321.904C89.0944 323.474 86.1387 325.33 82.9396 326.543C70.8764 331.114 59.4479 326.232 53.3071 314.893C49.2036 307.317 49.1468 300.001 51.8838 292.144C55.7555 281.029 61.6511 271.089 68.7454 261.796C73.4701 255.607 78.0718 249.312 83.0637 243.344C87.0323 238.6 91.6411 234.398 95.7312 229.748C103.406 221.024 112.3 213.784 121.976 207.431C122.67 206.975 123.593 206.12 123.582 205.463C123.533 202.378 125.902 201.364 127.867 199.967C134.558 195.209 141.777 193.437 149.633 196.582C155.745 199.03 161.842 201.564 167.749 204.46C172.185 206.635 174.067 212.414 172.574 218.19C172.043 220.247 171.178 222.357 169.947 224.068C166.092 229.423 162.122 234.709 157.945 239.816C153.871 244.796 144.792 244.041 141.226 238.641C139.865 236.581 140.945 233.2 143.538 232.678C145.962 232.189 147.054 230.697 147.943 228.816C149.16 226.243 150.402 223.66 151.301 220.97C151.653 219.918 151.522 218.104 150.84 217.485C150.205 216.908 148.42 217.149 147.369 217.582C145.661 218.285 143.982 219.25 142.563 220.432C126.136 234.121 109.537 247.617 93.4539 261.702C83.8727 270.093 76.6669 280.609 71.9163 292.455C69.7133 297.948 68.806 303.995 67.6407 309.857C67.0724 312.715 69.0529 313.945 71.5656 312.505C80.0113 307.667 88.6059 303.083 95.3183 295.711C98.6056 292.1 102.461 289.007 106.489 285.284C104.591 284.901 103.279 284.649 101.972 284.371C96.9089 283.291 93.4479 280.403 92.0867 275.327C91.2658 272.266 92.1791 271.098 95.1935 270.125C105.4 266.833 115.491 263.154 125.784 260.165C133.785 257.843 142.03 256.368 150.14 254.409C151.146 254.166 152.233 253.45 152.876 252.633C161.105 242.179 169.241 231.653 177.459 221.19C178.346 220.062 179.637 219.261 180.665 218.232C181.251 217.646 181.756 216.949 182.173 216.229C183.328 214.237 184.095 211.917 185.594 210.245C190.395 204.888 195.378 199.688 200.442 194.578C204.655 190.327 209.735 187.406 215.278 185.087C217.815 184.025 219.869 181.824 222.177 180.188C222.943 179.645 223.767 179.085 224.651 178.828C225.871 178.474 227.19 178.478 228.435 178.193C241.271 175.254 250.877 180.797 259.003 189.961C261.726 193.031 262.611 196.864 261.147 200.748C256.286 213.645 251.619 226.638 246.108 239.258C243.298 245.693 238.819 251.395 235.147 257.46C233.675 259.892 232.344 262.409 230.809 265.135C233.907 265.131 236.194 264.385 237.95 262.01C241.626 257.041 245.324 252.077 249.269 247.324C251.297 244.88 253.867 242.885 256.208 240.704C256.926 240.035 257.941 239.563 258.405 238.761C261.922 232.687 267.767 228.697 272.076 223.315C276.506 217.782 281.655 212.826 286.122 207.32C290.434 202.007 294.197 196.253 298.351 190.807C301.928 186.117 305.883 181.708 309.352 176.944C311.571 173.896 313.14 170.383 315.154 167.176C315.732 166.256 316.743 165.25 317.733 165.006C325.76 163.029 333.752 160.647 341.911 159.552C348.222 158.706 353.255 155.363 358.928 153.336C365.932 150.834 373.192 149.047 380.266 147.188C380.241 147.554 380.286 147.686 380.35 147.807C380.356 147.817 380.565 147.745 380.562 147.727C380.543 147.587 380.495 147.451 380.457 147.313ZM196.071 241.881C191.132 252.267 186.001 262.567 181.351 273.081C179.581 277.083 178.82 281.553 177.82 285.861C177.597 286.821 177.997 288.334 178.686 288.958C179.165 289.392 180.651 288.823 181.641 288.54C182.177 288.387 182.598 287.863 183.103 287.56C191.622 282.442 197.547 274.768 204.049 267.457C214.653 255.532 222.006 241.887 228.213 227.477C230.301 222.63 231.678 217.446 233.024 212.323C233.685 209.806 234.083 206.796 231.664 204.877C229.159 202.891 226.38 204.16 223.825 205.181C217.89 207.552 213.64 212.169 209.219 216.502C208.62 217.089 208.416 218.554 208.661 219.437C209.373 222.005 208.553 223.971 207.081 226.016C203.406 231.122 199.888 236.341 196.071 241.881ZM287.777 228.251C278.288 238.28 268.8 248.309 258.987 258.68C260.137 258.849 260.776 259.152 261.239 258.98C269.978 255.747 278.276 251.755 284.786 244.816C285.101 244.48 285.41 243.978 285.421 243.546C285.479 241.269 285.86 239.368 288.513 238.592C289.168 238.401 289.841 237.023 289.876 236.166C290.087 230.896 292.156 226.916 297.417 224.982C294.841 222.806 293.691 222.666 291.612 224.405C290.336 225.474 289.243 226.762 287.777 228.251Z" fill="#020200"/>
<path d="M139.604 183.544C137.908 182.043 136.37 180.682 134.42 178.956C134.42 181.66 134.42 183.931 134.42 186.354C132.856 186.354 131.622 186.354 130.384 186.354C130.384 182.464 130.384 178.75 130.384 174.927C136.543 173.353 138.393 179.375 142.769 181.538C142.769 179.33 142.769 177.172 142.769 174.867C144.296 174.867 145.433 174.867 146.737 174.867C146.737 178.697 146.737 182.488 146.737 186.229C143.587 187.456 141.658 185.614 139.604 183.544Z" fill="#020200"/>
<path d="M83.5101 183.825C85.1088 183.314 86.4145 182.695 87.7868 182.32C89.2044 181.933 90.6867 181.782 92.1406 181.528C92.3163 181.83 92.4919 182.131 92.6675 182.433C91.666 183.495 90.858 185.009 89.6271 185.537C85.6866 187.23 81.5355 187.269 77.5559 185.619C75.3887 184.721 74.365 182.82 74.4302 180.379C74.492 178.064 75.5067 176.311 77.622 175.509C81.6327 173.987 85.757 173.959 89.6954 175.688C90.8668 176.202 91.6578 177.583 92.6231 178.567C92.4292 178.938 92.2354 179.309 92.0415 179.68C90.414 179.207 88.8115 178.595 87.1525 178.298C85.1691 177.943 83.1046 177.565 81.1415 177.786C80.252 177.886 78.8555 179.432 78.8879 180.276C78.9289 181.345 80.064 182.503 80.9772 183.355C81.4599 183.805 82.4729 183.687 83.5101 183.825Z" fill="#020200"/>
<path d="M172.471 186.502C169.918 183.706 166.721 184.424 163.73 184.474C162.971 184.487 162.22 185.031 161.465 185.331C160.158 185.852 158.85 186.373 157.543 186.894C157.384 186.641 157.224 186.388 157.065 186.135C158.895 182.721 160.642 179.258 162.588 175.911C163.713 173.974 168.767 174.304 169.889 176.319C171.659 179.496 173.347 182.719 175.275 186.305C174.279 186.381 173.488 186.442 172.471 186.502ZM167.322 178.637C165.549 176.988 165.127 177.329 163.739 181.551C165.339 181.551 166.929 181.551 168.816 181.551C168.301 180.555 167.91 179.8 167.322 178.637Z" fill="#020200"/>
<path d="M104.774 180.967C105.389 179.821 106.069 178.925 106.403 177.916C107.301 175.204 109.155 174.606 111.822 174.72C113.591 174.796 114.458 175.426 115.197 176.891C116.746 179.963 118.435 182.964 120.187 186.218C118.412 186.479 116.987 187.061 115.488 185.241C114.812 184.42 112.829 184.434 111.455 184.487C109.474 184.562 107.144 183.487 105.703 186.161C105.395 186.731 103.535 186.464 101.753 186.648C102.895 184.509 103.788 182.837 104.774 180.967ZM109.624 179.074C109.264 179.839 108.905 180.605 108.45 181.573C110.287 181.573 111.866 181.573 113.702 181.573C113.151 180.437 112.724 179.488 112.239 178.569C111.377 176.939 110.573 177.251 109.624 179.074Z" fill="#020200"/>
<path d="M185.292 184.402C185.292 181.102 185.292 178.073 185.292 174.878C186.681 174.878 187.815 174.878 189.297 174.878C189.297 177.656 189.297 180.444 189.297 183.515C192.436 183.515 195.244 183.515 198.127 183.515C198.127 184.657 198.127 185.502 198.127 186.522C194.255 186.522 190.52 186.594 186.793 186.44C186.269 186.418 185.791 185.29 185.292 184.402Z" fill="#020200"/>
</svg>
