<svg width="500" height="500" viewBox="0 0 500 500" fill="none" xmlns="http://www.w3.org/2000/svg">
<path d="M228.194 254.033C227.21 253.625 225.598 251.815 228.281 246.775L234.512 233.745C234.701 233.352 234.246 232.859 233.962 233.193L228.514 238.674C225.936 241.366 221.562 248.932 220.716 250.333L214.096 261.28C214.588 261.264 215 261.651 215.015 262.143C215.02 262.305 214.981 262.465 214.902 262.606L208.852 272.773C207.375 275.294 210.029 277.056 210.388 276.476C219.898 261.152 225.428 262.376 225.428 262.376L228.603 255.022C228.77 254.653 228.607 254.219 228.238 254.052C228.225 254.045 228.21 254.039 228.194 254.033ZM249.813 126C195.445 126 151.372 170.072 151.372 224.438C151.343 245.484 158.092 265.98 170.618 282.888C174.747 281.105 177.042 278.44 178.681 276.398L197.01 252.957C197.396 252.463 197.9 252.074 198.476 251.827L201.236 250.639L231.374 212.412L235.744 208.991L244.724 196.492C244.956 196.169 245.239 195.884 245.561 195.65L249.479 192.802C250.447 192.098 251.755 192.087 252.734 192.775L257.488 196.112C260.011 197.882 262.055 200.249 263.44 203.002L282.484 236.452C282.795 237.09 283.323 237.596 283.974 237.879C287.709 239.739 289.99 240.067 294.878 245.377C297.159 247.852 307.153 259.03 321.16 276.401C323.196 279.188 325.921 281.397 329.068 282.812C341.556 265.917 348.281 245.452 348.252 224.438C348.252 170.072 304.18 126 249.813 126ZM177.92 229.864L171.537 227.791L167.594 233.218V226.511L161.211 224.438L167.594 222.365V215.656L171.537 221.084L177.92 219.011L173.976 224.438L177.92 229.864ZM176.406 251.814L174.333 258.194L172.26 251.814H165.552L170.978 247.87L168.906 241.491L174.333 245.434L179.76 241.491L177.687 247.87L183.115 251.814H176.406ZM177.688 201.002L179.761 207.382L174.333 203.439L168.906 207.382L170.979 201.002L165.552 197.059H172.26L174.334 190.679L176.407 197.059H183.116L177.688 201.002ZM188.46 186.571L184.519 181.143L178.136 183.216L182.08 177.789L178.136 172.362L184.519 174.435L188.462 169.007V175.716L194.845 177.785L188.462 179.859V186.567L188.46 186.571ZM205.237 163.085L203.164 169.466L201.091 163.086H194.382L199.81 159.142L197.737 152.762L203.164 156.705L208.591 152.761L206.518 159.147L211.946 163.09H205.237L205.237 163.085ZM226.378 152.313L222.435 157.741V151.034L216.052 148.961L222.435 146.888V140.179L226.378 145.607L232.759 143.534L228.815 148.961L232.759 154.388L226.378 152.313ZM253.168 146.164L255.241 152.544L249.813 148.6L244.386 152.544L246.457 146.167L241.03 142.223H247.738L249.812 135.844L251.885 142.223H258.594L253.168 146.164ZM277.189 151.034V157.743L273.247 152.315L266.865 154.388L270.808 148.961L266.865 143.534L273.248 145.607L277.19 140.179V146.888L283.573 148.961L277.189 151.034ZM321.704 219.011L328.087 221.084L332.029 215.656V222.365L338.412 224.438L332.029 226.511V233.219L328.087 227.792L321.704 229.865L325.652 224.438L321.704 219.011ZM296.462 169.467L294.387 163.087H287.679L293.105 159.144L291.037 152.763L296.462 156.707L301.887 152.764L299.818 159.144L305.244 163.087H298.536L296.462 169.467ZM311.166 186.572V179.864L304.783 177.791L311.166 175.721V169.01L315.108 174.437L321.491 172.364L317.549 177.791L321.491 183.218L315.108 181.145L311.166 186.572ZM323.217 197.061L325.292 190.681L327.366 197.061H334.074L328.649 201.004L330.723 207.384L325.293 203.441L319.867 207.384L321.941 201.004L316.51 197.061H323.217ZM327.366 251.814L325.291 258.194L323.216 251.814H316.508L321.939 247.87L319.865 241.491L325.291 245.434L330.721 241.491L328.647 247.87L334.072 251.814H327.366ZM285.469 281.328C285.942 280.641 286.711 278.755 285.268 275.261L280.912 263.546C280.321 262.051 281.616 261.143 282.485 262.127C282.485 262.127 290.717 271.62 292.845 275.584L296.905 282.324C300.398 282.55 310.037 282.812 319.316 282.812C318.381 281.884 317.519 280.887 316.733 279.829C300.9 260.199 290.858 249.279 290.758 249.171C287.549 245.683 286.066 245.013 283.618 243.898C283.264 243.737 282.879 243.563 282.484 243.375V246.355C282.508 246.556 282.364 246.739 282.163 246.763C282 246.782 281.843 246.691 281.781 246.539L258.503 205.647L258.438 205.518C257.467 203.592 256.036 201.935 254.272 200.695L252.001 199.098L240.896 224.719C242.223 224.718 243.299 225.794 243.3 227.121C243.301 227.45 243.233 227.775 243.103 228.077L232.842 251.813H242.261C245.901 251.813 249.506 252.521 252.875 253.902L255.357 254.919C255.357 254.919 247.867 270.33 247.867 278.444C247.878 279.92 248.084 281.388 248.479 282.81H265.744L264.945 277.945C271.717 279.458 278.569 280.588 285.469 281.331V281.328H285.469ZM152.25 306.299C152.25 290.446 135.443 282.812 115.476 282.812C94.1163 282.812 74.5187 292.28 67.3255 306.959C65.3403 310.87 64.3087 315.197 64.3143 319.583C64.2235 323.377 65.2727 327.11 67.3255 330.299C70.4075 334.852 75.9119 337.714 83.9863 337.714C93.8967 337.714 101.751 332.281 101.751 322.814C101.751 322.814 101.896 320.173 98.8143 320.173C96.3187 320.173 95.6571 321.934 95.7311 322.814C96.0999 330.227 91.6943 336.173 83.8399 336.173C75.0343 336.173 71.3611 328.686 71.3611 320.687C71.3611 304.318 83.6927 293.454 96.5379 288.758C102.541 286.49 108.916 285.368 115.332 285.452C129.865 285.452 141.756 291.032 141.756 306.006C141.756 318.482 131.26 329.125 118.707 330.08L119.221 328.393C121.791 319.217 124.947 309.162 130.084 301.748C130.379 301.305 130.892 300.573 131.479 299.84L130.746 298.959C129.648 299.625 128.593 300.361 127.587 301.16C103.514 319.951 102.783 372.797 70.7035 372.797C69.5987 372.797 68.4959 372.723 67.4011 372.577C60.7227 371.476 57.1971 366.998 57.1971 360.762C57.1971 359.514 57.6383 357.825 57.6383 356.872C57.6891 355.099 56.2939 353.621 54.5219 353.57C54.5079 353.569 54.4947 353.569 54.4815 353.569H54.1155C51.2535 353.569 50.0787 355.842 50.0051 359.073C49.7859 368.395 56.6835 373.825 67.3287 374.854C68.5019 374.927 69.6767 375 70.9247 375C95.9531 375 111.294 356.063 117.828 333.089C121.137 332.701 124.404 332.014 127.589 331.036C139.189 327.802 152.25 320.026 152.25 306.299ZM390.662 311.803H381.851L379.871 316.428L376.42 324.208H372.312L371.059 326.851H375.32L370.178 338.228C366.514 346.228 360.787 354.082 357.483 354.082C356.75 354.082 356.307 353.787 356.307 353.056C356.307 352.324 356.526 351.659 357.335 349.605C358.364 347.181 360.054 343.659 361.301 341.09C363.133 337.348 366.071 331.549 366.071 328.686C366.071 325.823 364.238 323.548 360.639 323.548C356.603 323.548 352.932 325.972 349.552 329.492L351.756 324.208H343.465L336.709 339.622C333.996 345.053 328.488 354.082 325.036 354.082C324.303 354.082 324.008 353.64 324.008 352.907C324.079 352.248 324.253 351.604 324.522 350.998C324.817 350.337 328.854 340.87 328.854 340.87L336.195 324.061H327.241L320.119 340.428C317.921 345.493 312.342 354.081 308.742 354.081C308.115 354.142 307.557 353.684 307.495 353.055C307.495 353.055 307.495 353.055 307.495 353.054V352.759C307.495 351.879 308.157 350.263 308.672 349.088L312.413 340.869L320.119 324.061H311.243L309.475 327.877C308.158 330.446 305.953 333.455 302.431 333.455C300.741 333.455 299.937 332.796 299.571 332.134C299.057 326.483 295.457 323.473 290.173 323.473C282.833 323.473 277.621 327.803 274.169 333.089C271.908 336.732 270.131 340.654 268.887 344.757C265.729 349.97 262.428 354.008 259.785 354.008C259.124 354.008 258.683 353.639 258.683 352.759C258.683 351.879 259.564 349.898 259.858 349.161L265.657 336.831C267.271 333.016 268.375 330.52 268.375 328.024C268.375 325.381 266.543 323.471 263.529 323.471C259.345 323.471 254.793 325.895 251.197 329.857C251.319 329.228 251.367 328.587 251.343 327.948C251.343 325.011 249.876 323.469 246.865 323.469C243.049 323.469 239.086 325.747 235.49 329.855L237.839 324.127H229.763L222.938 339.546C219.709 346.813 214.498 354.008 211.56 354.008C210.901 354.008 210.46 353.638 210.46 352.759C210.46 351.365 212.002 347.915 212.588 346.52L221.617 326.042C222.278 324.502 217.946 323.546 212.441 323.546C206.79 323.546 200.99 326.336 196.734 329.932C193.725 332.426 191.523 333.675 190.42 333.675C190.06 333.752 189.706 333.523 189.628 333.163C189.618 333.114 189.613 333.065 189.614 333.015C189.614 331.767 192.623 328.242 192.623 325.527C192.623 324.28 191.963 323.472 190.273 323.472C187.045 323.472 183.226 326.555 180.438 329.783L182.787 324.131H174.861L168.036 339.546C164.805 346.813 159.447 354.374 156.511 354.374C155.85 354.374 155.411 354.008 155.411 353.126C155.411 351.731 156.879 348.357 157.686 346.593L166.715 326.042C167.375 324.502 163.044 323.546 157.538 323.546C149.39 323.546 141.462 329.051 137.279 334.703C132.656 340.793 129.5 347.253 129.426 352.539C129.354 356.796 131.553 359.438 135.958 359.438C140.877 359.438 144.842 355.548 147.116 352.611C146.981 353.192 146.882 353.781 146.82 354.374C146.82 357.308 147.995 359.437 151.591 359.437C154.746 359.437 158.931 356.795 162.308 352.611L159.588 358.851H168.175L176.617 339.693C179.413 333.455 182.569 330.227 183.447 330.227C183.649 330.188 183.844 330.32 183.883 330.522C183.887 330.546 183.89 330.57 183.89 330.594C183.89 331.255 182.569 333.018 182.569 334.63C182.569 336.243 183.447 337.492 185.8 337.492C187.632 337.492 189.688 336.611 191.524 335.435C187.193 341.309 184.254 347.474 184.254 352.54C184.182 356.797 186.382 359.439 190.788 359.439C195.411 359.439 199.742 355.035 202.09 352.099C202.002 352.781 201.953 353.467 201.944 354.154C201.944 357.018 203.56 359.439 206.862 359.439C210.531 359.439 213.468 357.162 217.138 352.687L214.42 358.852H223.226L231.299 340.575C234.823 332.648 239.593 328.389 241.942 328.389C242.529 328.329 243.055 328.755 243.116 329.343C243.116 329.344 243.116 329.345 243.117 329.347V329.565C243.02 330.457 242.771 331.326 242.383 332.133L230.796 358.925H239.825L248.046 340.28C251.567 332.281 255.459 328.389 258.395 328.389C259.275 328.389 259.644 328.832 259.644 329.784C259.565 330.806 259.291 331.804 258.836 332.723L250.908 349.604C250.178 351.228 249.731 352.965 249.586 354.74C249.586 357.31 250.98 359.589 254.946 359.589C260.087 359.589 263.974 355.699 268.377 349.9V351.147C268.745 355.772 271.313 359.809 278.139 359.809C286.213 359.809 292.749 354.23 296.709 345.351C298.206 342.229 299.175 338.879 299.575 335.438C300.459 335.887 301.447 336.091 302.435 336.03C303.769 336.045 305.083 335.716 306.253 335.074L304.859 338.082C303.239 341.459 301.478 345.203 300.089 348.361C299.209 350.229 298.686 352.244 298.547 354.304C298.547 357.459 300.308 359.737 303.901 359.737C307.495 359.737 312.418 356.36 315.941 351.589H316.017C315.781 352.576 315.657 353.584 315.645 354.598C315.645 357.241 316.454 359.737 320.124 359.737C324.385 359.737 327.683 356.654 330.916 352.763L328.197 358.929H337.08L344.202 342.781C348.239 333.68 352.275 328.176 356.016 328.176C356.659 328.153 357.208 328.635 357.269 329.277V329.493C357.269 331.036 355.065 335.22 353.085 339.403C351.247 343.22 349.852 346.155 348.9 348.433C348.017 350.351 347.495 352.415 347.358 354.523C347.358 357.311 348.9 359.44 352.352 359.44C357.488 359.44 362.701 354.449 365.484 350.705C364.856 352.5 364.511 354.381 364.461 356.282C364.461 361.422 367.54 363.991 371.872 363.991C374.751 363.969 377.549 363.045 379.875 361.349C383.25 358.999 385.968 355.477 388.244 352.248L386.702 350.778C384.574 353.788 382.222 356.652 379.798 358.413C378.521 359.493 376.919 360.114 375.247 360.175C373.415 360.175 372.239 359.22 372.239 356.873C372.239 354.527 373.338 351.367 375.029 347.109C375.1 347.037 377.523 341.604 379.798 336.395C381.707 331.987 383.616 327.732 383.983 326.851H389.781L390.956 324.209H385.23L390.662 311.803ZM140.288 354.155C139.041 354.155 138.16 353.715 138.16 352.1C138.233 347.769 141.828 340.062 146.309 333.896C149.464 329.639 153.574 326.484 157.978 326.484L152.399 338.959C148.215 348.356 143.664 354.155 140.288 354.155ZM195.192 354.155C193.946 354.155 193.065 353.715 192.992 352.1C193.065 347.769 196.661 340.062 201.14 333.896C204.294 329.639 208.406 326.484 212.81 326.484L207.23 338.96C202.974 348.578 198.644 354.155 195.191 354.155L195.192 354.155ZM292.668 329.861C292.449 334.631 288.265 346.153 283.347 353.055C281.368 355.844 279.677 356.65 278.212 356.65C276.155 356.65 275.564 354.961 275.859 352.466C276.297 348.136 279.896 338.007 284.89 331.034C287.165 327.878 288.708 326.557 290.469 326.557C292.23 326.557 292.744 328.026 292.668 329.861ZM429.663 324.207L437.748 305.539H428.18L420.095 324.207H399.758L396.366 332.036H416.708L408.624 350.704H418.192L426.277 332.036H446.613L450 324.207H429.663Z" fill="#0064FF"/>
</svg>
