<svg width="500" height="500" viewBox="0 0 500 500" fill="none" xmlns="http://www.w3.org/2000/svg">
<path d="M58.6865 228.707H438.282V272.949H58.6865V228.707Z" fill="white"/>
<path d="M158.081 247.091V241.434C158.081 240.626 157.475 240.02 156.667 240.02H131.616C130.808 240.02 130.202 240.626 130.202 241.434V248.707C130.606 248.707 131.212 248.505 131.616 248.505H156.667C157.475 248.505 158.081 247.899 158.081 247.091Z" fill="#338C2E"/>
<path d="M373.434 247.091V241.434C373.434 240.626 372.828 240.02 372.02 240.02H346.97C346.162 240.02 345.556 240.626 345.556 241.434V248.707C345.96 248.707 346.566 248.505 346.97 248.505H372.02C372.828 248.505 373.434 247.899 373.434 247.091Z" fill="#338C2E"/>
<path d="M105.96 240.02H80.7071C79.899 240.02 79.293 240.626 79.293 241.434V248.707C79.697 248.707 80.3031 248.505 80.7071 248.505H105.96C106.768 248.505 107.374 247.899 107.374 247.091V241.434C107.374 240.626 106.768 240.02 105.96 240.02Z" fill="#338C2E"/>
<path d="M428.182 239.616C428.182 239.616 399.293 239.616 398.687 239.616C397.677 239.616 397.273 240.222 397.273 240.828C397.273 241.434 397.273 245.475 397.273 245.475H428.182V252.747H397.273C397.273 252.747 397.273 257.394 397.273 258.202C397.273 259.01 398.081 259.414 398.687 259.414C399.091 259.414 428.182 259.414 428.182 259.414V266.889C428.182 266.889 399.697 266.889 398.687 266.889C392.626 266.889 389.192 262.444 389.192 258.202C389.192 251.131 389.192 242.242 389.192 241.434C389.192 237.798 392.222 232.545 398.081 232.545C405.354 232.545 428.182 232.545 428.182 232.545V239.616ZM371.616 266.889L360.707 255.98H347.172C346.364 255.98 345.758 256.586 345.758 257.394V264.263V267.091H338.283V241.434C338.283 236.586 342.323 232.545 347.172 232.545H372.222C377.071 232.545 381.111 236.586 381.111 241.434V247.091C381.111 251.939 377.071 255.98 372.222 255.98H371.212L382.323 266.889H371.616ZM329.798 239.616C329.798 239.616 300.909 239.616 300.303 239.616C299.293 239.616 298.889 240.222 298.889 240.828C298.889 241.434 298.889 245.475 298.889 245.475H329.798V252.747H298.889C298.889 252.747 298.889 257.394 298.889 258.202C298.889 259.01 299.697 259.414 300.303 259.414C300.707 259.414 329.798 259.414 329.798 259.414V266.889C329.798 266.889 301.313 266.889 300.303 266.889C294.242 266.889 290.808 262.444 290.808 258.202C290.808 251.131 290.808 242.242 290.808 241.434C290.808 237.798 293.838 232.545 299.697 232.545C306.97 232.545 329.798 232.545 329.798 232.545V239.616ZM282.525 267.091H274.444V232.343H282.525V267.091ZM266.162 266.889H258.283V242.444L247.172 262.848H240.505L228.788 242.444V267.091H220.909V232.545H230.404L243.333 255.172L256.667 232.545H265.96V266.889H266.162ZM212.828 239.616C212.828 239.616 183.939 239.616 183.333 239.616C182.323 239.616 181.919 240.222 181.919 240.828C181.919 241.434 181.919 245.475 181.919 245.475H212.828V252.747H181.919C181.919 252.747 181.919 257.394 181.919 258.202C181.919 259.01 182.727 259.414 183.333 259.414C183.737 259.414 212.828 259.414 212.828 259.414V266.889C212.828 266.889 184.343 266.889 183.333 266.889C177.273 266.889 173.838 262.444 173.838 258.202C173.838 251.131 173.838 242.242 173.838 241.434C173.838 237.798 176.869 232.545 182.727 232.545C190 232.545 212.828 232.545 212.828 232.545V239.616ZM156.263 266.889L145.354 255.98H131.818C131.01 255.98 130.404 256.586 130.404 257.394V264.263V267.091H122.727V241.434C122.727 236.586 126.768 232.545 131.616 232.545H156.667C161.515 232.545 165.556 236.586 165.556 241.434V247.091C165.556 251.939 161.515 255.98 156.667 255.98H155.859L166.97 266.889H156.263ZM114.444 247.091C114.444 251.939 110.404 255.98 105.556 255.98H80.7071C79.899 255.98 79.2929 256.586 79.2929 257.394V267.091H71.8182V264.061V241.434C71.8182 236.586 75.8586 232.545 80.7071 232.545H105.556C110.404 232.545 114.444 236.586 114.444 241.434V247.091ZM443.939 218H56.0606C52.8283 218 50 220.626 50 224.061V275.576C50 278.808 52.6263 281.636 56.0606 281.636H443.939C447.172 281.636 450 279.01 450 275.576V224.061C450 220.626 447.374 218 443.939 218Z" fill="#338C2E"/>
</svg>
