<svg width="500" height="500" viewBox="0 0 500 500" fill="none" xmlns="http://www.w3.org/2000/svg">
<path d="M450 176H50V324.663H450V176Z" fill="#08053A"/>
<path d="M132.767 272.851L137.994 260.55H113.858L108.628 272.851H132.767Z" fill="#FF0930"/>
<path d="M238.178 261.173C231.336 261.173 226.34 256.023 226.34 249.184C226.34 242.344 231.336 237.268 238.178 237.268C245.021 237.268 250.017 242.341 250.017 249.184C250.017 256.027 245.021 261.173 238.178 261.173ZM238.178 224.506C223.803 224.506 212.503 235.267 212.503 249.184C212.503 263.101 223.803 273.935 238.178 273.935C252.554 273.935 263.854 263.09 263.854 249.184C263.854 235.278 252.554 224.506 238.178 224.506Z" fill="#F2F2F2"/>
<path d="M181.753 261.32C174.99 261.32 169.991 256.17 169.991 249.177C169.991 242.184 174.99 237.107 181.753 237.107C188.595 237.107 193.668 242.18 193.668 249.177C193.668 256.174 188.519 261.32 181.753 261.32ZM184.901 224.499C177.981 224.499 172.985 227.728 170.295 231.569V225.577H156.616V287.849H170.61V267.932C173.759 271.623 179.143 273.698 185.216 273.698C198.055 273.698 207.512 262.852 207.512 249.25C207.512 235.183 197.67 224.499 184.908 224.499" fill="#F2F2F2"/>
<path d="M364.774 253.942L354.551 225.573H338.098L357.777 272.851H371.309L391.372 225.573H375.231L364.774 253.942Z" fill="#F2F2F2"/>
<path d="M284.747 272.851V250.867C284.747 242.95 289.361 238.273 298.74 238.273H301.123V225.573H299.891C292.282 225.573 287.745 227.728 284.442 232.801V225.573H270.756V272.851H284.747Z" fill="#F2F2F2"/>
<path d="M153.062 259.774V258.725C153.062 248.81 146.684 244.426 135.534 243.272L125.774 242.257C123.388 242.026 122.545 241.334 122.545 240.025C122.545 238.626 123.542 237.874 125.693 237.874H143.756L148.986 225.573H126.309C115.625 225.573 108.628 231.57 108.628 240.41C108.628 249.251 113.319 253.942 126.082 255.247L135.08 256.171C137.466 256.402 138.771 257.325 138.771 259.4V259.774H153.062Z" fill="#F2F2F2"/>
<path d="M334.103 272.851V260.169H328.337C322.572 260.169 319.941 257.556 319.941 251.864V238.258H330.552L335.933 225.573H319.955V212.814H305.961V254.019C305.961 266.396 312.881 272.851 327.179 272.851H334.103Z" fill="#F2F2F2"/>
</svg>
