<svg width="500" height="500" viewBox="0 0 500 500" fill="none" xmlns="http://www.w3.org/2000/svg">
<path d="M500 157H0V342.829H500V157Z" fill="#08053A"/>
<path d="M103.459 278.064L109.992 262.688H79.8224L73.2847 278.064H103.459Z" fill="#FF0930"/>
<path d="M235.223 263.466C226.67 263.466 220.425 257.029 220.425 248.48C220.425 239.931 226.67 233.585 235.223 233.585C243.777 233.585 250.022 239.926 250.022 248.48C250.022 257.034 243.777 263.466 235.223 263.466ZM235.223 217.632C217.254 217.632 203.129 231.084 203.129 248.48C203.129 265.876 217.254 279.419 235.223 279.419C253.192 279.419 267.317 265.863 267.317 248.48C267.317 231.097 253.192 217.632 235.223 217.632Z" fill="#F2F2F2"/>
<path d="M164.69 263.65C156.237 263.65 149.988 257.213 149.988 248.472C149.988 239.73 156.237 233.384 164.69 233.384C173.244 233.384 179.585 239.725 179.585 248.472C179.585 257.218 173.148 263.65 164.69 263.65ZM168.626 217.624C159.976 217.624 153.732 221.66 150.369 226.462V218.971H133.27V296.811H150.762V271.915C154.698 276.529 161.428 279.122 169.02 279.122C185.069 279.122 196.889 265.566 196.889 248.563C196.889 230.979 184.588 217.624 168.635 217.624" fill="#F2F2F2"/>
<path d="M393.467 254.427L380.689 218.966H360.123L384.721 278.064H401.636L426.715 218.966H406.538L393.467 254.427Z" fill="#F2F2F2"/>
<path d="M293.433 278.064V250.584C293.433 240.687 299.201 234.841 310.925 234.841H313.903V218.966H312.364C302.853 218.966 297.181 221.66 293.053 228.001V218.966H275.945V278.064H293.433Z" fill="#F2F2F2"/>
<path d="M128.827 261.717V260.405C128.827 248.012 120.855 242.533 106.918 241.09L94.717 239.821C91.7346 239.533 90.6807 238.667 90.6807 237.031C90.6807 235.282 91.927 234.342 94.6164 234.342H117.195L123.732 218.966H95.3861C82.0308 218.966 73.2847 226.462 73.2847 237.512C73.2847 248.563 79.1489 254.427 95.1018 256.059L106.349 257.213C109.332 257.502 110.963 258.656 110.963 261.249V261.717H128.827Z" fill="#F2F2F2"/>
<path d="M355.129 278.064V262.211H347.922C340.715 262.211 337.426 258.945 337.426 251.83V234.823H350.69L357.416 218.966H337.444V203.018H319.952V254.523C319.952 269.995 328.602 278.064 346.474 278.064H355.129Z" fill="#F2F2F2"/>
</svg>
