<svg width="500" height="500" viewBox="0 0 500 500" fill="none" xmlns="http://www.w3.org/2000/svg">
<path d="M256.38 230.94H237.53V277.071H247.68V263.23H255.39C265.74 263.23 274.04 257.69 274.04 247.02V246.89C274.04 237.47 267.38 230.94 256.38 230.94ZM263.76 247.22C263.76 251.17 260.79 254.131 255.72 254.131H247.68V240.05H255.52C260.6 240.05 263.76 242.54 263.76 247.09V247.22Z" fill="#101E28"/>
<path d="M359.981 260.6C365.852 258.42 369.87 253.75 369.87 246.3V246.17C369.87 236.68 363.351 230.95 352.47 230.95H331.38V277.08H341.531V262.32H349.502L357.909 274.87C358.831 276.25 360.391 277.08 362.05 277.08H371.252L359.981 260.6ZM359.58 246.83C359.58 250.72 356.751 253.21 351.802 253.21H341.52V240.06H351.601C356.542 240.06 359.572 242.35 359.572 246.7V246.83H359.58Z" fill="#101E28"/>
<path d="M373.691 230.94V240.05H387.73V277.071H397.88V240.05H408.6C410.432 240.05 411.922 238.56 411.922 236.731V230.94H373.702H373.691Z" fill="#101E28"/>
<path d="M435.39 249.471C427.431 247.431 425.451 246.441 425.451 243.42V243.291C425.451 241.05 427.49 239.281 431.369 239.281C434.43 239.281 437.571 240.341 440.771 242.181C442.269 243.041 444.179 242.621 445.16 241.201L448.621 236.191C443.951 232.44 438.22 230.331 431.511 230.331C422.101 230.331 415.389 235.861 415.389 244.221V244.351C415.389 253.501 421.38 256.06 430.662 258.431C438.359 260.4 439.941 261.72 439.941 264.291V264.42C439.941 267.121 437.44 268.761 433.291 268.761C429.141 268.761 425.381 267.341 421.95 264.991C420.53 264.021 418.611 264.261 417.511 265.581L413.54 270.331C419.071 275.271 426.111 277.7 433.09 277.7C443.029 277.7 450 272.571 450 263.421V263.291C450 255.261 444.739 251.901 435.39 249.471Z" fill="#101E28"/>
<path d="M215.2 249.471C207.24 247.431 205.26 246.441 205.26 243.42V243.291C205.26 241.05 207.3 239.281 211.18 239.281C214.24 239.281 217.38 240.341 220.58 242.181C222.08 243.041 223.99 242.621 224.97 241.201L228.43 236.191C223.76 232.44 218.03 230.331 211.32 230.331C201.91 230.331 195.2 235.861 195.2 244.221V244.351C195.2 253.501 201.19 256.06 210.47 258.431C218.17 260.4 219.75 261.72 219.75 264.291V264.42C219.75 267.121 217.25 268.761 213.1 268.761C208.95 268.761 205.19 267.341 201.76 264.991C200.34 264.021 198.42 264.261 197.32 265.581L193.35 270.331C198.88 275.271 205.92 277.7 212.9 277.7C222.84 277.7 229.81 272.571 229.81 263.421V263.291C229.81 255.261 224.54 251.901 215.2 249.471Z" fill="#101E28"/>
<path d="M301.101 230.32C288.011 230.32 277.411 240.93 277.411 254.01C277.411 267.09 288.021 277.701 301.101 277.701C314.181 277.701 324.791 267.09 324.791 254.01C324.791 240.93 314.181 230.32 301.101 230.32ZM301.101 268.121C293.311 268.121 286.991 261.8 286.991 254.01C286.991 246.22 293.311 239.9 301.101 239.9C308.891 239.9 315.211 246.22 315.211 254.01C315.211 261.8 308.891 268.121 301.101 268.121Z" fill="#101E28"/>
<path d="M52.85 230.94C60.8 205.48 84.57 187 112.66 187C140.75 187 164.52 205.48 172.47 230.94H122.19V254.12H121.76L109.07 234.37C107.53 231.82 105.98 230.95 102.89 230.95H52.85V230.94ZM160.83 240.05V277.07H148.35V240.05H134.08V277.07H125.75C122.66 277.07 121.19 276.2 119.57 273.65L103.42 249.47H103.16V277.07H91.0301V240.05H76.8101V277.07H64.11V240.05H50.73C50.25 243.18 50 246.39 50 249.66C50 284.27 78.05 312.32 112.66 312.32C147.27 312.32 175.32 284.27 175.32 249.66C175.32 246.39 175.07 243.18 174.59 240.05H160.83Z" fill="#FF28FF"/>
</svg>
