<svg width="500" height="500" viewBox="0 0 500 500" fill="none" xmlns="http://www.w3.org/2000/svg">
<path d="M174.895 218.945C173.425 213.453 169.109 209.137 163.617 207.667C153.673 205 113.781 205 113.781 205C113.781 205 73.889 205 63.9448 207.667C58.453 209.137 54.1373 213.453 52.6672 218.945C50 228.889 50 249.649 50 249.649C50 249.649 50 270.409 52.6672 280.353C54.1373 285.845 58.453 290.16 63.9448 291.63C73.889 294.297 113.781 294.297 113.781 294.297C113.781 294.297 153.673 294.297 163.617 291.63C169.109 290.16 173.425 285.845 174.895 280.353C177.562 270.409 177.562 249.649 177.562 249.649C177.562 249.649 177.551 228.889 174.895 218.945Z" fill="#FF0000"/>
<path d="M101.013 268.783L134.153 249.651L101.013 230.519V268.783Z" fill="white"/>
<path d="M204.495 263.059L190.172 211.333H202.668L207.687 234.781C208.968 240.556 209.903 245.481 210.512 249.555H210.879C211.299 246.636 212.244 241.743 213.704 234.865L218.902 211.333H231.397L216.896 263.059V287.872H204.484V263.059H204.495Z" fill="#282828"/>
<path d="M235.156 286.233C232.636 284.532 230.841 281.885 229.77 278.294C228.709 274.703 228.174 269.936 228.174 263.971V255.854C228.174 249.837 228.783 244.997 230.001 241.353C231.219 237.709 233.12 235.042 235.702 233.372C238.286 231.703 241.677 230.863 245.878 230.863C250.015 230.863 253.323 231.713 255.822 233.414C258.31 235.116 260.137 237.783 261.292 241.395C262.448 245.018 263.025 249.837 263.025 255.854V263.971C263.025 269.936 262.458 274.724 261.335 278.336C260.211 281.959 258.384 284.605 255.864 286.275C253.344 287.944 249.92 288.784 245.605 288.784C241.152 288.795 237.677 287.934 235.156 286.233ZM249.29 277.475C249.983 275.648 250.341 272.676 250.341 268.539V251.119C250.341 247.107 249.994 244.167 249.29 242.319C248.587 240.46 247.358 239.536 245.594 239.536C243.893 239.536 242.686 240.46 241.993 242.319C241.289 244.178 240.942 247.107 240.942 251.119V268.539C240.942 272.676 241.278 275.658 241.951 277.475C242.623 279.302 243.83 280.216 245.594 280.216C247.358 280.216 248.587 279.302 249.29 277.475Z" fill="#282828"/>
<path d="M303.673 287.883H293.824L292.732 281.037H292.459C289.781 286.203 285.769 288.786 280.414 288.786C276.708 288.786 273.967 287.568 272.203 285.143C270.439 282.706 269.557 278.905 269.557 273.739V231.957H282.147V273.004C282.147 275.503 282.42 277.277 282.966 278.338C283.512 279.399 284.426 279.934 285.707 279.934C286.799 279.934 287.849 279.598 288.857 278.926C289.865 278.254 290.6 277.403 291.093 276.375V231.946H303.673V287.883Z" fill="#282828"/>
<path d="M337.874 221.464H325.379V287.881H313.061V221.464H300.565V211.342H337.874V221.464Z" fill="#282828"/>
<path d="M368.242 287.883H358.392L357.3 281.037H357.027C354.35 286.203 350.338 288.786 344.983 288.786C341.276 288.786 338.535 287.568 336.771 285.143C335.007 282.706 334.125 278.905 334.125 273.739V231.957H346.715V273.004C346.715 275.503 346.988 277.277 347.534 278.338C348.08 279.399 348.994 279.934 350.275 279.934C351.367 279.934 352.417 279.598 353.425 278.926C354.433 278.254 355.168 277.403 355.662 276.375V231.946H368.242V287.883Z" fill="#282828"/>
<path d="M409.909 240.892C409.142 237.364 407.913 234.812 406.213 233.226C404.511 231.641 402.17 230.853 399.188 230.853C396.877 230.853 394.714 231.504 392.709 232.817C390.703 234.129 389.149 235.841 388.057 237.973H387.962V208.508H375.834V287.872H386.23L387.511 282.579H387.784C388.76 284.469 390.22 285.95 392.162 287.053C394.105 288.145 396.268 288.691 398.641 288.691C402.894 288.691 406.034 286.727 408.04 282.81C410.045 278.883 411.053 272.761 411.053 264.424V255.572C411.053 249.324 410.664 244.42 409.909 240.892ZM398.368 263.71C398.368 267.784 398.2 270.976 397.864 273.286C397.528 275.596 396.972 277.245 396.174 278.211C395.386 279.187 394.315 279.671 392.981 279.671C391.942 279.671 390.986 279.429 390.104 278.936C389.222 278.453 388.508 277.718 387.962 276.751V245.008C388.382 243.485 389.117 242.246 390.157 241.27C391.186 240.293 392.32 239.81 393.527 239.81C394.809 239.81 395.796 240.314 396.489 241.312C397.192 242.32 397.675 244 397.948 246.373C398.221 248.746 398.358 252.117 398.358 256.496V263.71H398.368Z" fill="#282828"/>
<path d="M428.914 266.933C428.914 270.524 429.019 273.212 429.23 275.008C429.44 276.803 429.881 278.106 430.553 278.935C431.225 279.754 432.254 280.164 433.65 280.164C435.53 280.164 436.832 279.429 437.525 277.969C438.229 276.51 438.607 274.074 438.67 270.671L449.527 271.312C449.59 271.795 449.622 272.467 449.622 273.317C449.622 278.484 448.204 282.348 445.38 284.9C442.555 287.451 438.554 288.732 433.388 288.732C427.182 288.732 422.835 286.79 420.346 282.894C417.847 278.998 416.608 272.981 416.608 264.833V255.067C416.608 246.677 417.9 240.545 420.483 236.681C423.066 232.816 427.487 230.884 433.755 230.884C438.071 230.884 441.389 231.672 443.699 233.257C446.01 234.843 447.637 237.3 448.582 240.65C449.527 244 450 248.62 450 254.521V264.098H428.914V266.933ZM430.511 240.576C429.87 241.364 429.45 242.656 429.23 244.451C429.019 246.247 428.914 248.966 428.914 252.621V256.632H438.124V252.621C438.124 249.029 437.998 246.31 437.756 244.451C437.515 242.593 437.074 241.29 436.433 240.524C435.793 239.768 434.805 239.379 433.472 239.379C432.128 239.39 431.141 239.789 430.511 240.576Z" fill="#282828"/>
</svg>
