<svg width="1000" height="1000" viewBox="0 0 1000 1000" fill="none" xmlns="http://www.w3.org/2000/svg">
<path fill-rule="evenodd" clip-rule="evenodd" d="M500.651 0C507.439 4.72419 514.172 9.51599 521.023 14.1562C531.658 21.3654 541.954 29.0581 552.812 35.9456C574.05 49.4196 597.044 58.6631 621.374 64.7312C638.625 69.002 656.24 71.6366 673.986 72.6001C691.94 73.6121 709.856 73.1922 727.765 71.5922C757.548 68.9289 786.797 63.2521 815.8 56.1843C827.272 53.3899 838.695 50.448 850.106 47.4324C851.759 46.9961 852.565 47.3669 853.53 48.635C886.393 91.8165 919.275 134.983 952.176 178.134C953.655 180.076 953.643 180.085 951.752 181.844C941.327 191.541 930.688 201.01 920.633 211.101C906.411 225.37 893.181 240.483 881.936 257.239C871.593 272.649 863.23 289.014 858.274 306.995C853.946 322.664 852.546 338.997 854.146 355.175C855.957 373.967 861.316 391.829 868.063 409.339C874.577 426.238 882.303 442.611 889.801 459.078C898.303 477.75 906.6 496.499 913.631 515.787C920.963 535.913 926.757 556.457 930.313 577.597C931.874 586.869 932.935 596.203 933.706 605.579C934.676 617.105 934.95 628.678 934.525 640.236C933.296 672.365 926.978 703.335 913.084 732.538C898.512 763.168 877.161 788.171 850.08 808.429C837.681 817.701 824.31 825.361 810.707 832.685C708.508 887.707 606.324 942.76 504.157 997.843C502.95 998.494 501.645 998.996 500.651 1000H500.133C491.65 996.136 483.65 991.349 475.424 986.995C467.269 982.677 459.152 978.278 451.045 973.872C438.464 967.033 425.861 960.234 413.235 953.475C401.538 947.178 389.843 940.875 378.15 934.566C365.539 927.784 352.933 920.99 340.332 914.184C330.609 908.95 320.884 903.719 311.157 898.489C296.572 890.639 281.995 882.774 267.425 874.895C257.796 869.677 248.128 864.51 238.483 859.313C223.367 851.168 208.251 843.026 193.136 834.889C184.102 830.009 175.016 825.23 166.385 819.643C156.072 812.968 146.399 805.491 137.479 797.034C126.854 786.963 117.312 775.972 109.172 763.795C95.6104 743.513 86.1723 721.388 79.9013 697.844C75.8696 682.713 73.2903 667.32 71.8071 651.75C71.0717 644.035 70.5247 636.295 70.6189 628.518C70.664 624.83 70.0699 621.143 70.1293 617.418C70.6353 585.433 74.5871 553.992 84.1892 523.344C90.9886 501.643 99.5254 480.642 108.636 459.836C118.537 437.238 129.182 414.94 136.842 391.411C140.861 379.07 143.821 366.473 145.128 353.546C147.093 334.113 144.735 315.189 138.276 296.733C130.849 275.509 118.893 256.958 105.067 239.457C94.0698 225.557 81.5382 213.076 68.8304 200.768C62.3915 194.538 55.6699 188.591 49.0999 182.49C48.3559 181.774 47.6547 181.016 47 180.218L47 179.7C52.6031 171.827 58.5974 164.249 64.4463 156.562C74.3741 143.512 84.3121 130.469 94.2603 117.433C111.677 94.5767 129.077 71.7076 146.462 48.8255C147.927 46.8895 149.484 46.3364 151.807 46.9551C164.069 50.2165 176.366 53.338 188.697 56.3195C212.365 62.0741 236.263 66.6221 260.437 69.6111C269.412 70.7215 278.438 71.3504 287.479 71.9179C299.3 72.6595 311.126 72.6001 322.921 72.1945C339.31 71.629 355.543 69.3571 371.599 65.8805C404.772 58.6939 435.273 45.5661 462.716 25.4402C473.918 17.2251 485.575 9.64505 496.929 1.64097C497.933 0.934185 499.101 0.616644 500.137 0.00204865L500.651 0Z" fill="black"/>
<path fill-rule="evenodd" clip-rule="evenodd" d="M915.315 176.721C911.441 180.429 907.672 183.977 903.972 187.595C887.214 203.984 871.585 221.336 858.176 240.606C846.294 257.686 836.524 275.843 830.296 295.79C824.652 313.88 822.589 332.379 823.945 351.243C825.16 368.112 829.067 384.432 834.414 400.438C840.478 418.619 848.191 436.125 856.101 453.551C864.615 472.308 873.373 490.957 881.035 510.094C889.025 530.05 895.798 550.387 900.194 571.461C902.562 582.949 904.236 594.569 905.207 606.257C906.196 617.523 906.475 628.84 906.043 640.14C904.885 669.256 898.914 697.226 885.731 723.416C872.824 749.042 854.386 769.92 831.349 786.893C820.696 794.738 809.224 801.215 797.596 807.476C699.334 860.391 601.089 913.338 502.86 966.316C501.274 967.172 500.101 967.341 498.408 966.429C397.828 912.168 297.234 857.947 196.626 803.766C176.51 792.933 158.726 779.213 144.016 761.654C128.213 742.806 117.298 721.349 110.189 697.885C105.7 683.07 102.886 667.928 101.245 652.541C99.4172 635.416 99.2963 618.265 99.9949 601.087C101.159 572.504 107.208 544.9 116.605 517.959C123.253 498.896 131.265 480.392 139.442 461.955C147.337 444.15 155.421 426.423 162.102 408.108C167.314 393.833 171.667 379.324 174.119 364.295C176.326 350.774 176.987 337.22 175.611 323.554C173.277 300.236 165.425 278.785 153.954 258.532C142.705 238.674 128.653 220.908 113.223 204.179C105.084 195.357 96.5777 186.907 87.7911 178.724C87.3486 178.315 86.9368 177.864 86.4635 177.495C85.7445 176.928 85.8182 176.383 86.3836 175.768C86.6745 175.451 86.9142 175.088 87.1765 174.744C110.915 143.582 134.639 112.412 158.349 81.2311C159.578 79.6085 160.614 79.2029 162.602 79.7274C179.196 84.093 195.868 88.0428 212.695 91.3698C225.973 93.9942 239.313 96.2231 252.738 97.9767C274.69 100.845 296.721 102.162 318.842 101.427C358.973 100.093 397.715 92.388 434.417 75.6362C450.261 68.3775 465.328 59.532 479.389 49.2352C485.869 44.511 492.57 40.09 499.119 35.4601C500.254 34.6591 500.998 34.8168 502.049 35.5584C509.453 40.7743 516.961 45.8386 524.32 51.1282C549.801 69.4226 577.831 82.3455 608.05 90.5934C625.302 95.3053 642.855 98.3332 660.655 100.058C676.754 101.615 692.877 101.931 709.016 101.341C725.837 100.726 742.561 98.9642 759.208 96.4833C785.592 92.5478 811.557 86.6457 837.37 80.1023C837.87 79.9752 838.405 79.9179 838.862 79.6925C840.513 78.8956 841.428 79.5901 842.461 80.9504C866.213 112.207 889.995 143.441 913.807 174.652C914.274 175.266 914.717 175.897 915.315 176.721Z" fill="#FEFEFE"/>
<path fill-rule="evenodd" clip-rule="evenodd" d="M811.584 115.954L177.485 454.987C177.335 453.793 177.895 453.192 178.221 452.555C189.267 430.711 197.183 407.788 201.079 383.618C203.411 369.161 205.818 354.685 206.166 339.966C206.754 314.972 201.659 291.142 191.754 268.263C182.853 247.702 170.821 229.047 157.054 211.458C147.306 199.006 136.772 187.257 125.697 175.971C125.216 175.477 124.755 174.947 124.241 174.498C123.655 173.974 123.753 173.506 124.216 172.972C124.609 172.517 124.954 172.017 125.32 171.538C139.96 152.321 154.589 133.096 169.208 113.862C170.341 112.366 171.274 111.846 173.218 112.344C191.674 117.068 210.366 120.817 229.216 123.577C243.208 125.625 257.243 127.373 271.348 128.545C287.175 129.88 303.065 130.309 318.94 129.831C329.462 129.503 339.951 128.668 350.422 127.5C374.678 124.803 398.56 119.419 421.627 111.447C438.85 105.506 455.563 98.4397 471.467 89.526C480.874 84.2579 489.95 78.4186 498.644 72.0408C500.549 70.6416 500.121 70.3404 502.348 71.9834C528.393 91.1902 556.878 105.562 587.801 115.097C603.301 119.92 619.088 123.437 635.125 125.914C659.094 129.614 683.205 130.54 707.395 129.839C722.85 129.393 738.215 128.022 753.547 125.992C772.792 123.448 791.843 119.881 810.781 115.657C811.032 115.619 811.286 115.6 811.541 115.599L811.584 115.954Z" fill="black"/>
<path fill-rule="evenodd" clip-rule="evenodd" d="M603.105 410.642V413.389C603.105 566.321 603.118 719.253 603.144 872.185C603.144 874.114 602.691 875.227 600.89 876.227C568.139 894.472 535.422 912.78 502.739 931.151C501.133 932.052 499.961 932.114 498.304 931.2C464.332 912.489 430.329 893.84 396.295 875.254C394.574 874.313 393.921 873.334 393.921 871.308C393.982 755.402 393.982 639.495 393.921 523.586C393.921 521.562 394.535 520.585 396.312 519.651C458.033 487.061 519.735 454.432 581.416 421.764C587.661 418.46 593.908 415.159 600.157 411.859C600.988 411.427 601.757 410.843 603.105 410.642Z" fill="black"/>
<path fill-rule="evenodd" clip-rule="evenodd" d="M784.851 301.406C783.709 308.447 782.965 315.548 782.622 322.673C782.175 331.836 782.673 340.957 783.703 350.055C786.705 376.503 794.971 401.476 804.909 426.001C812.454 444.617 821.001 462.79 829.274 481.085C836.942 498.048 844.352 515.119 850.405 532.744C856.074 549.248 860.071 566.173 863.126 583.331C866.074 599.882 866.84 616.591 866.147 633.351C865.195 656.402 860.585 678.655 850.698 699.639C839.529 723.346 823.013 742.556 801.736 757.763C792.808 764.143 783.359 769.646 773.714 774.843C736.695 794.783 699.683 814.733 662.677 834.692C661.938 835.102 661.266 835.672 660.313 835.717C659.926 834.881 660.108 834.02 660.108 833.195C660.097 678.642 660.081 524.09 660.059 369.54C660.059 367.696 660.497 366.672 662.241 365.754C702.233 344.803 742.2 323.806 782.14 302.764C782.876 302.381 783.65 302.008 784.851 301.406Z" fill="black"/>
<path fill-rule="evenodd" clip-rule="evenodd" d="M324.107 557.991V838.884C323.097 839.009 322.511 838.415 321.853 838.064C284.932 818.483 248.014 798.898 211.097 779.307C193.847 770.158 178.574 758.523 165.971 743.513C152.395 727.345 143.116 708.917 137.147 688.753C134.563 680.076 132.597 671.228 131.261 662.274C130.945 660.149 130.917 660.143 132.797 659.147C147.571 651.326 162.345 643.507 177.12 635.69L321.531 559.282C322.277 558.893 323.039 558.528 324.107 557.991Z" fill="black"/>
<path fill-rule="evenodd" clip-rule="evenodd" d="M647.886 306.069C649.572 305.618 651.205 305.089 652.876 304.757C659.057 303.528 664.144 305.3 667.805 310.545C670.966 315.076 673.541 319.969 676.204 324.797C677.7 327.51 679.163 330.243 680.607 332.91C680.271 333.756 679.546 333.891 678.968 334.205C671.183 338.458 663.391 342.703 655.591 346.941C653.856 347.886 653.823 347.873 652.893 346.185C650.856 342.485 648.879 338.751 646.585 335.2C645.664 333.74 644.599 332.376 643.405 331.13C640.97 328.632 638.106 328.022 634.887 329.216C633.19 329.838 631.538 330.577 629.944 331.429C615.308 339.32 600.684 347.234 586.072 355.171C585.693 355.375 585.293 355.546 585.048 356.138C588.2 361.941 591.398 367.835 594.609 373.731C595.223 374.868 595.774 376.048 596.479 377.126C597.219 378.257 597.075 378.847 595.815 379.507C590.78 382.145 585.806 384.903 580.809 387.617C577.781 389.256 574.749 390.895 571.729 392.561C569.818 393.614 569.951 393.614 568.896 391.671C562.359 379.627 555.811 367.587 549.251 355.554L522.553 306.495C522.224 305.89 521.918 305.265 521.566 304.677C521.181 304.028 521.269 303.561 521.976 303.231C522.367 303.049 522.73 302.821 523.109 302.617C550.091 288.034 576.914 273.157 604.018 258.798C607.517 256.954 611.033 255.11 614.618 253.426C619.333 251.165 624.685 250.606 629.765 251.847C633.023 252.615 635.825 254.262 638.214 256.622C640.437 258.818 642.289 261.31 643.95 263.93C647.902 270.115 651.455 276.517 654.151 283.359C655.425 286.592 656.302 289.905 655.753 293.449C655.138 297.472 653.022 300.642 650.203 303.44C649.439 304.225 648.746 305.1 647.886 306.069Z" fill="#1F211D"/>
<path fill-rule="evenodd" clip-rule="evenodd" d="M381.477 406.836C380.902 407.518 380.064 407.788 379.316 408.196C356.764 420.471 334.213 432.747 311.663 445.022C308.887 446.536 309 445.993 310.485 448.724C312.003 451.528 313.527 454.328 315.058 457.124C316.269 459.34 316.273 459.34 318.387 458.191C336.927 448.099 355.468 438.008 374.008 427.916C377.63 425.945 381.26 423.989 384.81 422.065C385.552 422.409 385.708 423.042 385.99 423.557C388.925 428.925 391.85 434.302 394.763 439.686C395.814 441.624 395.81 441.646 393.867 442.703C380.551 449.958 367.232 457.206 353.908 464.448C345.508 469.018 337.108 473.587 328.71 478.157C328.198 478.436 327.565 478.594 327.165 479.37C329.489 483.644 331.898 487.999 334.225 492.399C334.868 493.614 335.505 493.114 336.29 492.686C344.231 488.354 352.176 484.029 360.126 479.71C375.339 471.434 390.553 463.158 405.766 454.885C406.381 454.557 406.995 454.27 407.874 453.811C411.748 460.918 415.61 467.998 419.607 475.322L319.606 529.732L270.758 439.952C272.923 438.764 274.947 437.641 276.98 436.535C307.327 420.019 337.676 403.507 368.028 387C370.417 385.702 369.976 385.343 371.386 387.929C374.52 393.681 377.651 399.435 380.779 405.19C381.051 405.711 381.467 406.18 381.477 406.836Z" fill="#1F211D"/>
<path fill-rule="evenodd" clip-rule="evenodd" d="M199.469 590.395C194.128 590.452 189.517 588.639 185.606 585.013C182.885 582.479 180.524 579.584 178.589 576.409C169.92 562.305 162.029 547.737 154.95 532.772C153.294 529.265 152.028 525.602 151.508 521.71C150.811 516.49 152.102 511.794 155.011 507.486C157.16 504.3 159.928 501.723 162.964 499.402C168.86 494.878 175.168 490.976 181.555 487.206C196.699 478.272 212.041 469.692 227.933 462.141C232.85 459.808 237.906 457.876 243.345 457.091C250.023 456.13 255.801 457.882 260.621 462.651C263.776 465.773 266.208 469.436 268.451 473.23C269.504 475.011 270.457 476.848 271.426 478.676C272.477 480.655 272.466 480.671 270.586 481.704C267.64 483.319 264.69 484.929 261.736 486.532C256.738 489.25 251.74 491.964 246.742 494.676C245.174 495.522 245.168 495.495 244.185 494.018C243.322 492.729 242.493 491.41 241.546 490.185C240.286 488.558 238.598 487.903 236.523 488.206C234.269 488.534 232.19 489.339 230.129 490.216C220.761 494.208 211.896 499.181 203.009 504.132C199.924 505.853 196.906 507.697 193.895 509.545C191.979 510.716 190.2 512.097 188.591 513.662C186.224 515.973 185.489 518.764 185.991 521.941C186.321 523.985 186.902 525.98 187.72 527.882C191.363 536.363 195.762 544.498 200.864 552.189C201.755 553.569 202.811 554.835 204.007 555.961C206.592 558.358 209.554 559.239 213.064 558.462C215.832 557.817 218.514 556.844 221.053 555.566C232.442 550.001 243.531 543.888 254.408 537.378C256.256 536.266 258.006 534.998 259.638 533.588C262.367 531.242 263.143 528.423 262.096 524.983C261.485 522.916 260.676 520.913 259.681 519.001C259.128 517.977 259.402 517.516 260.349 517.006C268.691 512.499 277.019 507.97 285.332 503.419C286.041 503.032 286.514 502.934 287.002 503.767C290.617 509.942 294.297 516.059 296.204 523.072C298.282 530.707 296.391 537.185 291.097 542.85C288.55 545.574 285.647 547.877 282.613 550.02C274.65 555.662 266.21 560.521 257.659 565.194C245.791 571.684 233.894 578.14 221.627 583.837C215.756 586.564 209.78 589 203.335 590.061C202.056 590.264 200.764 590.376 199.469 590.395Z" fill="#1F211D"/>
<path fill-rule="evenodd" clip-rule="evenodd" d="M561.199 398.289L540.372 409.636C537.648 411.121 534.872 412.518 532.221 414.123C530.736 415.022 529.691 414.872 528.3 413.856C524.262 410.91 520.054 408.196 515.987 405.285C514.781 404.422 513.875 404.285 512.519 405.027C493.849 415.248 475.155 425.423 456.437 435.551C455.306 436.166 454.864 436.85 454.919 438.164C455.14 443.42 455.212 448.685 455.413 453.938C455.46 455.167 455.251 455.987 454.03 456.632C444.465 461.768 434.941 466.984 425.402 472.167C425.115 472.298 424.819 472.408 424.515 472.495C423.9 472.073 424.105 471.514 424.105 471.046C423.716 434.027 423.335 397.009 422.962 359.991C422.986 359.56 422.98 359.128 422.944 358.698C422.765 357.494 423.329 356.855 424.378 356.299C429.174 353.755 433.929 351.135 438.698 348.543C447.026 344.016 455.368 339.517 463.665 334.934C464.943 334.229 465.84 334.186 467.109 335.038C497.885 355.742 528.673 376.406 559.474 397.029C559.955 397.354 560.41 397.713 561.199 398.289Z" fill="#1F211D"/>
<path fill-rule="evenodd" clip-rule="evenodd" d="M687.367 329.308C686.974 328.624 687.163 327.928 687.148 327.26C686.759 290.409 686.378 253.557 686.005 216.704C686.02 216.533 686.02 216.36 686.005 216.188C685.698 214.6 686.374 213.693 687.81 212.974C690.967 211.392 694.042 209.643 697.146 207.954C706.989 202.601 716.841 197.267 726.656 191.864C727.927 191.164 728.816 191.061 730.123 191.94C761.037 212.735 791.972 233.495 822.927 254.219C823.281 254.457 823.623 254.715 823.961 254.957C823.664 255.754 822.925 255.897 822.351 256.21C813.273 261.164 804.161 266.056 795.116 271.069C793.682 271.862 792.721 271.749 791.447 270.836C787.313 267.869 783.076 265.048 778.915 262.117C777.844 261.363 777.043 261.115 775.709 261.846C757.046 272.09 738.349 282.265 719.617 292.371C718.265 293.101 717.864 293.916 717.929 295.397C718.159 300.656 718.23 305.923 718.396 311.184C718.425 312.1 718.374 312.804 717.413 313.323C707.631 318.604 697.86 323.906 688.099 329.229C687.902 329.347 687.613 329.29 687.367 329.308Z" fill="#1F211D"/>
<path fill-rule="evenodd" clip-rule="evenodd" d="M754.399 196.709C752.721 195.253 751.326 193.985 749.87 192.803C749.13 192.202 749.126 191.53 749.31 190.731C751.241 182.264 753.169 173.796 755.094 165.328C755.276 164.521 755.612 163.941 756.528 163.745C763.251 162.294 769.965 160.809 776.684 159.342C776.752 159.328 776.84 159.404 777.213 159.557C769.666 171.855 762.141 184.112 754.399 196.709Z" fill="#1F211D"/>
<path fill-rule="evenodd" clip-rule="evenodd" d="M237.524 281.075H240.218C259.723 281.075 279.231 281.038 298.736 281.13C300.758 281.13 301.797 280.489 302.78 278.793C308.442 269.019 314.218 259.31 319.989 249.591C320.462 248.794 320.767 247.856 321.628 247.248C322.302 247.805 322.603 248.606 323.021 249.309C328.863 259.177 334.739 269.029 340.492 278.951C341.442 280.589 342.477 281.126 344.349 281.12C363.854 281.046 383.362 281.075 402.867 281.075H405.612C405.651 281.249 405.688 281.425 405.725 281.599L354.263 302.176C360.923 313.46 367.507 324.615 374.225 336.001C373.086 335.915 372.346 335.479 371.561 335.168C355.645 328.811 339.734 322.443 323.828 316.064C322.275 315.437 320.984 315.406 319.411 316.041C303.431 322.488 287.439 328.888 271.434 335.243C270.743 335.52 270.053 335.792 269.073 335.733L288.896 302.176L237.444 281.581C237.469 281.413 237.496 281.243 237.524 281.075Z" fill="white"/>
<path fill-rule="evenodd" clip-rule="evenodd" d="M200.317 259.533C205.657 250.392 211 241.253 216.501 231.838L174.405 214.809L174.454 214.346H177.118C192.821 214.346 208.524 214.309 224.237 214.391C226.126 214.391 227.142 213.791 228.064 212.177C232.593 204.242 237.242 196.376 241.871 188.498C242.281 187.786 242.543 186.919 243.469 186.364C243.986 187.204 244.483 187.978 244.946 188.771C249.564 196.656 254.221 204.517 258.744 212.455C259.6 213.957 260.547 214.391 262.206 214.383C277.909 214.32 293.612 214.346 309.315 214.346H312.155C312.202 214.496 312.251 214.645 312.3 214.795L270.143 231.844L286.411 259.705C285.073 259.726 284.203 259.146 283.293 258.779C270.672 253.703 258.061 248.594 245.461 243.451C243.877 242.802 242.572 242.913 241.04 243.538C228.201 248.774 215.351 253.971 202.488 259.128C201.874 259.378 201.245 259.621 200.624 259.869L200.317 259.533Z" fill="white"/>
<path fill-rule="evenodd" clip-rule="evenodd" d="M287.057 197.64L302.647 174.783L261.822 160.661C262.59 160.129 263.149 160.268 263.645 160.268C279.088 160.268 294.533 160.221 309.977 160.311C311.956 160.323 313.081 159.696 314.155 158.076C318.291 151.817 322.579 145.659 326.813 139.466C327.344 138.69 327.901 137.932 328.436 137.18C329.403 137.405 329.624 138.241 330.042 138.849C334.483 145.317 338.939 151.778 343.293 158.312C344.26 159.762 345.302 160.317 347.068 160.309C363.027 160.237 378.988 160.266 394.984 160.266C394.71 160.555 395.003 160.207 395.023 160.551C395.025 160.588 395.019 160.626 395.006 160.661C394.993 160.696 394.973 160.728 394.947 160.756C394.821 160.864 394.678 160.95 394.523 161.012C381.342 165.566 368.159 170.114 354.62 174.785L370.261 197.695C369.005 197.973 368.178 197.385 367.317 197.09C355.186 192.922 343.067 188.722 330.958 184.489C329.302 183.905 327.866 183.987 326.246 184.551C313.81 188.89 301.351 193.155 288.899 197.457C288.424 197.625 287.985 197.963 287.057 197.64Z" fill="white"/>
<path fill-rule="evenodd" clip-rule="evenodd" d="M407.432 177.915L421.817 155.425L384.917 141.787C384.917 141.646 384.931 141.502 384.937 141.361C385.806 141.318 386.673 141.24 387.541 141.238C401.005 141.238 414.469 141.16 427.93 141.302C430.262 141.326 431.466 140.521 432.628 138.638C436.805 131.898 441.146 125.261 445.403 118.615C446.37 118.689 446.512 119.486 446.858 120.022C450.97 126.4 455.104 132.765 459.119 139.206C460.043 140.687 461.029 141.279 462.807 141.269C476.443 141.189 490.078 141.226 503.714 141.226H506.513C506.55 141.394 506.588 141.56 506.625 141.728L469.545 155.429C474.394 163.009 479.12 170.399 483.926 177.911C482.939 178.186 482.222 177.653 481.497 177.387C470.256 173.269 459.017 169.151 447.806 164.953C446.34 164.404 445.108 164.382 443.635 164.933C432.097 169.235 420.531 173.463 408.97 177.708C408.587 177.862 408.225 178.165 407.432 177.915Z" fill="white"/>
<path fill-rule="evenodd" clip-rule="evenodd" d="M514.637 194.501C516.239 191.541 517.784 188.685 519.333 185.831C521.062 182.652 522.816 179.48 524.522 176.295C525.917 173.695 526.397 174.041 523.393 172.736C515.569 169.356 507.751 165.963 499.94 162.556C498.937 162.118 497.822 161.864 496.935 161.081C497.373 160.36 498.031 160.719 498.543 160.717C509.239 160.692 519.935 160.651 530.631 160.745C532.434 160.76 533.389 160.19 534.216 158.615C537.507 152.364 540.93 146.186 544.306 139.972C545.236 140.265 545.363 141.113 545.711 141.744C548.739 147.257 551.81 152.749 554.697 158.338C555.604 160.094 556.596 160.778 558.647 160.756C569.168 160.629 579.692 160.696 590.216 160.696H592.146C592.185 160.862 592.224 161.03 592.261 161.196L563.203 173.828L574.616 194.866C573.114 194.251 572.184 193.899 571.274 193.503C563.141 189.971 554.994 186.468 546.896 182.867C545.281 182.15 543.939 182.101 542.288 182.836C533.874 186.585 525.403 190.211 516.946 193.856C516.27 194.147 515.645 194.665 514.637 194.501Z" fill="white"/>
<path fill-rule="evenodd" clip-rule="evenodd" d="M471.603 872.158L483.736 852.436C482.326 852.733 481.257 853.009 480.171 853.177C474.322 854.073 468.889 850.907 466.756 845.392C464.402 839.298 466.142 832.134 470.915 828.184C475.77 824.175 484.61 823.63 489.898 827.051C493.436 829.341 495.417 832.652 496.011 836.796C496.536 840.457 496.036 844.016 494.753 847.462C491.723 855.62 487.791 863.415 483.031 870.701C482.347 871.748 481.623 872.236 480.333 872.189C477.583 872.09 474.828 872.158 471.603 872.158Z" fill="white"/>
<path fill-rule="evenodd" clip-rule="evenodd" d="M550.651 839.455C550.651 843.758 550.636 848.074 550.651 852.384C550.661 854.316 550.696 854.316 552.683 854.368C555.168 854.431 555.168 854.431 555.178 856.85C555.178 857.109 555.178 857.369 555.178 857.627C555.178 860.47 555.178 860.561 552.32 860.544C550.886 860.544 550.587 861.075 550.62 862.349C550.692 865.012 550.591 867.694 550.663 870.365C550.696 871.632 550.419 872.285 548.971 872.185C547.333 872.092 545.692 872.092 544.054 872.185C542.917 872.234 542.573 871.793 542.595 870.687C542.655 867.844 542.554 864.996 542.642 862.154C542.681 860.868 542.21 860.561 541.004 860.571C535.23 860.622 529.455 860.602 523.68 860.587C521.586 860.587 521.631 860.557 521.556 858.428C521.497 857.224 521.842 856.034 522.535 855.048C528.901 845.521 535.237 835.975 541.542 826.41C542.286 825.277 543.052 824.689 544.453 824.818C545.82 824.943 547.209 824.83 548.588 824.846C550.606 824.871 550.624 824.881 550.636 827.055C550.661 831.181 550.651 835.319 550.651 839.455Z" fill="white"/>
<path fill-rule="evenodd" clip-rule="evenodd" d="M443.277 832.531C444.232 830.617 445.27 828.571 446.268 826.504C446.633 825.752 447.223 825.627 447.962 825.631C451.668 825.647 455.374 825.664 459.08 825.631C460.184 825.619 460.666 826.008 460.6 827.133C460.547 828.077 460.59 829.028 460.59 829.976C460.59 843.079 460.59 856.182 460.59 869.284C460.59 869.888 460.572 870.49 460.59 871.095C460.617 871.869 460.229 872.168 459.492 872.164C457.251 872.154 455.009 872.148 452.768 872.164C451.937 872.164 451.756 871.722 451.783 871.019C451.807 870.415 451.783 869.81 451.783 869.208V836.104C451.783 835.585 451.746 835.065 451.783 834.551C451.873 833.455 451.428 832.994 450.3 833.025C448.319 833.078 446.333 833.043 444.359 833.025C444.043 833.021 443.662 833.15 443.277 832.531Z" fill="#FEFEFE"/>
<path fill-rule="evenodd" clip-rule="evenodd" d="M499.848 833.041C501.061 830.609 502.067 828.632 503.03 826.637C503.372 825.93 503.849 825.627 504.644 825.631C508.434 825.654 512.224 825.664 516.014 825.631C517.038 825.621 517.401 826.063 517.344 827.022C517.311 827.536 517.344 828.046 517.344 828.573V869.401C517.344 869.917 517.309 870.437 517.344 870.951C517.407 871.814 517.088 872.193 516.174 872.181C514.023 872.14 511.872 872.15 509.714 872.181C508.815 872.181 508.485 871.771 508.543 870.919C508.579 870.318 508.543 869.714 508.543 869.11V836.016C508.543 835.413 508.51 834.809 508.543 834.207C508.596 833.303 508.162 833.019 507.313 833.031C505 833.062 502.688 833.041 499.848 833.041Z" fill="white"/>
<path fill-rule="evenodd" clip-rule="evenodd" d="M560.802 311.573C561.076 311.012 561.478 310.848 561.859 310.643C577.393 302.24 592.929 293.836 608.466 285.432C609.9 284.654 611.373 283.925 612.973 283.509C615.419 282.874 617.654 283.304 619.401 285.16C622.837 288.809 625.105 293.162 626.383 297.968C627.047 300.467 626.242 302.78 624.238 304.507C623.315 305.284 622.324 305.977 621.278 306.577C605.827 315.673 589.893 323.892 574.204 332.553C573.286 333.062 572.645 333.412 571.963 332.144C568.271 325.228 564.5 318.36 560.802 311.573Z" fill="white"/>
<path fill-rule="evenodd" clip-rule="evenodd" d="M454.004 411.412C453.557 405.795 453.594 400.622 453.463 395.457C453.231 387.009 453.037 378.56 452.723 370.116C452.668 368.614 453.162 367.913 454.391 367.061C457.007 365.244 458.976 365.457 461.625 367.352C471.434 374.375 481.47 381.078 491.408 387.92C492.18 388.451 493.072 388.844 493.729 389.801L454.004 411.412Z" fill="white"/>
<path fill-rule="evenodd" clip-rule="evenodd" d="M756.68 246.75L717.247 268.203C716.633 267.179 716.809 266.122 716.782 265.13C716.506 254.963 716.266 244.795 716.004 234.628C715.932 231.87 715.844 229.113 715.69 226.36C715.633 225.362 716.008 224.817 716.844 224.311C720.941 221.853 720.941 221.83 724.895 224.546C734.768 231.319 744.639 238.096 754.508 244.875C755.201 245.369 756.038 245.695 756.68 246.75Z" fill="white"/>
<path fill-rule="evenodd" clip-rule="evenodd" d="M481.015 846.298C476.897 846.259 474.365 843.635 474.369 839.386C474.369 835.27 477.096 832.449 481.074 832.441C485.114 832.441 487.698 835.155 487.675 839.406C487.665 843.614 485.02 846.341 481.015 846.298Z" fill="#20211D"/>
<path fill-rule="evenodd" clip-rule="evenodd" d="M530.687 854.368C534.622 847.834 538.896 842.156 542.411 835.725C542.907 836.434 542.741 837.022 542.741 837.569C542.741 842.551 542.741 847.533 542.719 852.524C542.708 854.339 542.674 854.368 540.865 854.368C537.622 854.384 534.375 854.368 530.687 854.368Z" fill="#20211D"/>
</svg>
