<svg width="1000" height="1000" viewBox="0 0 1000 1000" fill="none" xmlns="http://www.w3.org/2000/svg">
<path d="M500.356 0C598.519 122.176 743.999 152.543 946.683 182.204C948.801 540.959 830.157 827.684 500.356 1000C169.847 827.683 51.9087 540.961 54.028 182.204C256.006 152.543 402.191 122.176 500.356 0Z" fill="#231F20"/>
<path d="M72.3901 198.448C73.802 539.549 188.209 812.148 499.65 978.108C811.09 812.148 925.497 539.549 926.909 198.448C861.938 188.56 795.553 177.966 731.994 161.018C672.672 144.775 614.763 122.175 564.621 86.8645C540.61 69.9157 518.718 50.8476 499.65 29.6616C479.876 51.555 458.688 70.6216 434.678 86.8645C383.831 122.175 326.628 144.775 267.306 161.018C203.746 177.966 138.067 188.56 72.3901 198.448Z" fill="#D91A21"/>
<path d="M72.3901 198.448C72.3901 256.357 75.9214 312.855 83.6898 366.525L290.611 153.955C282.842 156.074 275.074 158.192 267.306 161.018C203.746 177.966 138.067 188.56 72.3901 198.448Z" fill="#231F20" stroke="#231F20" stroke-miterlimit="10"/>
<path d="M116.176 519.069C130.3 564.972 147.249 609.465 168.435 651.131L663.491 138.419C628.886 125.001 595.695 108.051 564.621 86.8648C558.265 82.6276 552.615 78.3904 546.259 73.4473L116.176 519.069Z" fill="#231F20" stroke="#231F20" stroke-width="2" stroke-miterlimit="10"/>
<path d="M239.763 763.419C265.894 797.317 294.848 828.39 328.04 858.757L927.615 237.288C928.321 224.576 928.321 211.864 928.321 199.153C887.361 192.796 846.4 186.44 805.439 178.671L239.763 763.419Z" fill="#231F20" stroke="#231F20" stroke-width="2" stroke-miterlimit="10"/>
<path d="M433.312 941.478C455.204 955.602 477.803 969.021 501.814 981.733C731.335 858.849 854.216 678.765 902.945 455.601C902.239 454.895 901.531 453.483 902.239 452.776L433.312 941.478Z" fill="#231F20" stroke="#231F20" stroke-width="2" stroke-miterlimit="10"/>
<path d="M268.011 353.108C223.52 326.272 201.627 284.605 200.215 218.928C235.526 217.514 256.006 206.922 268.717 191.385C280.723 206.215 299.085 213.985 335.808 216.102C332.983 286.723 313.209 326.271 268.011 353.108Z" fill="#FFDA00"/>
<path d="M579.452 431.498C579.452 436.442 579.452 440.679 579.452 445.623C579.452 461.159 578.746 475.99 581.571 489.409C582.983 497.177 585.103 504.946 588.634 512.715C592.165 520.482 596.402 528.958 603.463 538.139C606.289 541.67 609.82 545.907 613.351 550.144C619 557.207 624.651 563.562 628.888 569.918C629.594 571.332 630.3 572.744 631.006 574.155C634.537 579.1 640.186 583.336 646.543 586.16C653.605 589.692 661.372 591.104 669.142 591.104C678.322 591.104 686.797 588.279 693.859 581.924C699.508 576.275 703.746 569.212 704.453 558.619C705.865 534.607 691.034 509.183 674.793 480.228C667.024 466.811 658.55 451.98 652.193 437.149C645.838 423.025 640.894 408.902 637.364 394.777C634.538 380.652 633.127 365.115 635.244 348.872C635.95 338.279 639.482 328.392 643.72 319.916C648.663 310.736 655.02 303.674 662.081 299.436C665.612 297.319 669.143 295.199 673.381 294.492C677.618 293.08 681.857 293.08 686.092 293.08C700.923 293.08 714.341 300.142 724.229 314.266C732.703 326.27 738.353 343.22 738.353 364.406C741.179 367.233 744.004 372.882 746.122 378.531C748.947 385.594 751.771 393.362 753.184 399.717C754.596 404.662 754.596 410.311 754.596 415.254C754.596 420.197 754.596 425.14 756.008 429.379C756.714 432.204 758.128 435.734 759.539 439.265C762.365 446.328 765.896 454.801 766.602 466.1C766.602 468.926 763.777 470.338 761.659 468.926C758.833 466.808 757.422 465.394 755.304 464.69C752.478 462.571 751.067 461.157 745.416 457.628C744.004 456.922 741.885 455.508 739.061 454.095C738.355 454.095 738.355 453.39 737.649 453.39C732.704 450.565 726.349 447.034 723.524 444.208C719.287 440.677 716.462 435.028 713.638 429.379C710.812 423.024 708.693 415.254 707.281 408.899C705.869 401.837 705.869 392.655 706.575 384.182C707.281 375.706 708.693 367.233 710.812 362.996C710.812 360.876 712.224 358.051 713.638 355.227C715.05 352.402 715.756 348.872 715.756 347.459C715.05 339.69 711.518 331.216 705.162 325.566C700.219 320.622 693.862 317.799 686.801 317.799C679.739 318.503 675.501 321.328 671.97 325.566C668.439 330.51 665.615 336.159 664.202 342.514C662.082 348.871 662.082 356.639 662.082 365.114C662.788 374.294 664.202 384.888 667.026 394.776C674.088 423.024 686.094 442.798 699.511 463.984C705.16 473.164 711.517 483.051 717.166 493.644C722.815 503.531 727.76 515.538 730.584 527.542C733.409 538.842 734.821 550.141 734.821 560.735C734.115 579.802 727.052 596.046 715.753 608.05C704.453 619.35 688.918 627.118 670.555 627.118C663.493 627.118 657.138 626.412 650.781 625C645.837 623.587 640.895 621.469 636.656 618.645C635.95 620.763 635.95 622.175 635.243 624.294C634.537 627.12 634.537 630.649 635.243 634.181C635.949 638.418 637.362 643.361 639.48 648.306C642.306 654.661 644.425 659.605 646.543 663.843C648.662 668.078 650.074 670.198 651.486 671.609C652.899 673.023 654.311 674.436 656.43 675.847C664.199 683.615 670.554 689.264 676.91 692.795C678.322 693.501 679.736 693.501 681.148 694.209C685.385 694.915 688.916 696.327 688.916 701.271C688.916 704.097 688.21 706.216 687.504 708.334C686.798 709.747 686.798 711.159 686.092 712.571C685.386 716.102 684.679 719.633 683.973 723.871C683.267 728.106 683.267 731.638 683.267 734.463C683.267 738.7 683.973 743.645 685.386 749.294C686.8 754.943 688.212 759.888 689.624 764.831C690.329 766.949 691.035 769.068 692.449 771.186C693.861 775.423 695.98 779.662 698.098 786.723C698.098 786.723 698.098 786.723 698.098 787.427C698.804 787.427 699.511 788.133 700.923 788.841C704.454 790.958 709.398 793.078 708.692 797.316C708.692 800.848 704.454 804.379 700.923 807.91C698.804 810.028 696.686 811.441 695.98 812.853C695.98 813.559 694.567 814.267 693.861 814.267C691.741 814.267 689.624 814.267 686.092 814.267C685.386 814.267 684.68 814.267 683.267 814.267C680.442 814.267 675.499 817.798 672.673 820.622C671.967 821.328 670.554 822.035 670.554 822.741C667.023 825.566 659.96 826.271 653.605 824.859C648.662 824.153 644.425 822.034 641.6 818.504C640.188 819.208 638.774 819.208 637.362 819.208C635.243 819.914 633.125 819.914 631.007 819.914C628.182 819.914 625.357 819.208 622.533 818.502C621.827 818.502 621.119 817.796 620.414 817.796C620.414 817.796 620.414 818.502 620.414 819.208C620.414 821.328 620.414 822.741 621.12 824.859C621.12 826.271 620.414 828.39 619.002 828.39C615.47 829.096 612.647 829.096 609.821 827.684C607.703 826.978 605.584 825.566 604.172 823.447C602.759 821.329 601.347 819.916 600.641 817.798C600.641 816.384 599.935 815.68 599.935 814.267C599.229 814.973 598.523 815.68 597.816 816.384C597.11 817.09 597.11 817.09 596.404 817.798C594.284 819.916 592.167 820.623 589.341 818.504C586.516 814.973 585.104 810.028 584.398 805.085C584.398 798.73 585.81 793.081 587.223 790.255C587.223 788.842 587.929 788.136 588.637 786.724V786.018C589.343 783.9 590.755 781.074 593.58 778.25C596.405 775.424 601.348 771.895 609.117 768.363C613.354 766.246 623.948 774.718 631.716 774.013C632.422 774.013 633.128 774.013 633.835 774.013C633.835 773.308 633.835 771.895 633.835 771.187C634.541 745.763 634.541 737.29 628.891 728.814C626.066 725.283 623.242 722.459 619.711 720.339C616.179 718.22 611.942 716.102 606.999 714.689C598.525 711.864 590.756 708.334 582.988 704.803C575.219 701.271 568.158 697.034 561.096 692.798C544.147 682.912 534.259 669.492 527.903 653.956C526.491 650.425 525.077 646.894 523.665 643.363C519.428 644.774 513.072 647.6 504.597 650.425C503.891 650.425 503.891 651.131 503.184 651.131C496.829 653.956 485.529 661.725 476.349 670.198C469.994 676.553 465.049 683.615 464.343 689.266C463.637 693.503 464.343 697.034 465.049 700.564C466.463 711.864 468.58 721.75 450.924 735.17C450.218 738.702 448.806 742.233 447.393 745.057C444.568 752.119 441.744 758.474 441.744 767.655C445.275 771.186 445.981 775.423 445.981 780.368C445.981 784.603 443.156 788.842 439.625 792.372C436.093 795.902 432.562 798.021 428.325 798.021C426.912 798.021 424.794 798.021 422.674 798.021C419.849 797.316 416.319 797.316 415.612 798.021C405.018 802.965 396.544 803.671 390.895 802.965C385.244 802.261 381.008 800.14 379.595 798.021C376.77 798.727 373.944 800.14 371.827 800.14H371.121C370.415 800.14 369.709 800.14 369.003 799.434L364.058 803.671C363.352 804.377 361.94 804.377 361.233 804.377C358.408 803.671 356.29 801.552 354.17 799.433C353.464 798.727 353.464 798.019 352.758 797.315C352.052 800.14 351.347 802.258 348.521 802.964C346.402 803.67 342.166 802.258 337.928 798.019C335.102 795.902 332.984 792.37 330.865 788.133C330.865 788.133 330.865 788.133 330.865 787.427C330.865 786.723 330.159 786.015 330.159 785.309V784.603C330.159 783.897 329.453 783.191 329.453 782.485C328.747 781.072 328.041 780.368 327.334 778.954C325.922 774.717 325.216 770.478 325.922 766.243C326.628 762.005 328.041 757.767 330.865 754.237C333.69 750.706 337.222 747.175 341.459 745.057C345.696 742.937 350.639 741.525 354.878 741.525C362.646 741.525 368.295 745.057 373.946 748.588C378.889 751.413 383.832 754.237 388.069 754.237C390.189 754.237 391.601 753.531 393.014 752.824C395.132 751.412 396.545 749.998 397.957 748.588C399.369 746.469 399.369 743.643 399.369 740.819C399.369 740.113 399.369 739.406 399.369 738.7C399.369 734.464 399.369 729.52 399.369 724.577C399.369 719.632 399.369 714.689 398.663 709.746C398.663 704.801 398.663 699.152 397.957 694.209C397.957 683.615 397.957 673.023 395.838 662.429C395.132 656.78 393.72 651.835 393.72 646.894C393.014 637.712 393.72 627.826 396.545 618.645C399.37 609.464 404.314 600.283 412.082 591.81C432.564 569.917 461.518 568.503 495.416 566.386C497.533 566.386 499.653 566.386 502.477 565.68C501.771 564.266 501.065 562.148 499.651 560.735C492.589 547.317 481.997 536.724 469.284 524.012C451.629 507.063 431.147 486.583 412.081 450.566C407.137 449.861 402.194 448.447 397.251 447.035C390.896 444.917 385.246 441.385 378.889 437.855C373.24 434.322 369.003 431.498 365.471 428.673C360.528 425.142 345.697 413.842 338.636 413.138C337.223 413.138 334.399 415.256 332.28 418.081C330.161 420.2 328.043 421.612 326.629 423.025C323.098 424.439 320.274 424.439 318.861 420.908C318.155 419.494 318.155 418.081 318.155 415.257C316.743 415.963 314.624 416.67 312.506 418.082C307.563 420.909 304.031 422.319 299.794 422.319C295.557 422.319 292.026 420.908 287.789 417.376C282.845 413.139 277.901 407.489 273.664 401.839C269.426 396.19 265.895 390.54 264.483 386.303C263.071 381.359 258.834 370.06 265.897 366.528C263.071 362.291 261.659 355.229 262.365 350.286C264.483 348.168 268.015 347.46 270.84 347.46C270.134 344.634 268.015 338.985 267.309 336.161C270.134 333.335 277.195 332.629 278.608 332.629C278.608 331.924 277.902 331.924 277.902 331.216C277.196 328.391 276.49 325.567 276.49 322.742C284.259 317.091 303.325 319.916 304.739 324.154C307.564 326.979 309.682 330.509 311.094 334.747C311.8 337.573 313.212 340.398 313.919 343.223C316.038 349.578 317.45 355.229 320.982 358.054L321.688 358.759C326.631 364.409 330.868 366.527 335.813 368.646C337.93 369.351 340.05 370.764 342.168 372.178C344.285 373.589 347.111 375.003 349.936 376.413C360.528 382.064 369.71 387.007 383.834 396.189C384.54 395.483 385.246 395.483 385.951 394.776C384.54 382.064 379.596 367.233 375.358 353.11C371.121 341.81 367.589 331.924 364.058 325.567C362.646 322.742 361.939 320.622 361.233 318.505C360.527 316.385 359.819 314.973 356.29 312.855C355.584 312.149 354.876 312.149 353.464 311.442C350.639 310.029 348.521 309.323 347.814 305.793C347.108 303.674 347.814 300.848 349.933 298.73C349.933 298.73 349.933 298.73 350.639 298.024C347.814 295.905 344.283 293.787 342.165 290.962C337.928 286.017 334.396 279.662 331.571 273.307C330.158 269.07 328.746 264.127 328.04 259.89C327.334 254.239 326.626 248.59 326.626 244.353C326.626 242.941 328.04 241.528 329.452 241.528C332.983 241.528 336.514 241.528 339.339 242.234V241.528C338.633 240.114 338.633 237.996 337.22 235.878C336.514 233.759 337.926 231.641 340.045 231.641C342.871 231.641 344.99 231.641 347.814 231.641C349.227 231.641 350.639 231.641 352.051 230.935V230.229C351.345 228.112 350.638 225.992 351.345 223.874C351.345 223.168 352.758 222.462 353.464 221.756C357.702 220.343 361.939 219.637 366.176 220.343C366.882 220.343 367.589 220.343 368.295 220.343C368.295 218.93 369.001 217.518 369.707 216.812C369.707 216.106 371.827 215.4 372.532 215.4C376.77 215.4 380.301 215.4 383.126 216.104C385.951 216.81 388.775 217.518 391.601 218.93C394.426 220.343 396.544 222.462 398.663 224.58C403.606 230.229 407.137 237.292 408.549 244.354C409.961 252.123 408.549 259.185 405.018 266.248C403.606 268.366 402.193 270.485 400.075 272.603C399.369 273.309 398.662 274.016 397.956 274.721C395.13 276.84 393.013 278.958 393.718 283.197C395.836 288.846 401.487 297.321 407.843 307.208C413.493 315.684 419.849 324.862 426.91 331.925C437.504 322.745 446.684 314.27 457.278 307.914C463.633 303.677 469.989 300.851 477.052 298.027C476.346 297.321 477.052 297.321 476.346 297.321C475.64 297.321 474.933 298.027 474.227 298.027C471.401 299.439 467.872 300.853 462.221 300.853C460.809 300.853 460.102 300.853 458.69 300.147C455.159 298.735 453.041 296.616 452.335 293.792C450.921 290.966 450.921 288.143 450.921 285.317C450.921 283.904 451.627 282.491 451.627 281.08C451.627 279.667 450.921 278.255 450.215 276.843C449.509 274.724 448.096 271.898 448.096 269.074C448.096 264.837 452.333 262.012 455.864 259.188C456.57 259.188 456.57 258.482 457.276 258.482C457.982 256.364 458.688 254.245 460.102 252.833L460.808 252.127C458.688 251.421 457.276 249.302 456.57 247.183C455.157 245.065 455.157 242.947 454.451 241.533C454.451 241.533 454.451 241.533 453.745 240.827C450.92 239.414 446.683 236.59 444.565 227.41C443.153 221.761 444.565 217.524 445.271 213.285C445.977 210.46 446.684 208.34 445.977 205.517C445.271 201.985 444.563 199.867 446.683 197.042C448.095 194.217 451.626 192.805 458.688 193.511C461.514 193.511 466.457 192.805 471.4 190.686C475.637 189.274 479.168 187.86 482.7 185.742C486.231 181.505 489.762 177.974 493.999 175.856C498.236 173.737 503.887 172.325 511.654 171.619C512.36 171.619 513.773 171.619 515.185 170.913C518.716 170.207 522.954 169.501 527.191 169.501C528.603 165.97 530.722 162.439 532.84 159.615C535.665 156.084 539.195 153.258 543.434 153.258C550.496 153.258 558.265 158.203 563.208 164.558C566.033 168.089 567.445 171.62 568.858 175.858C569.564 177.975 569.564 180.801 569.564 182.92C569.564 183.626 570.27 183.626 570.27 184.332C570.976 187.157 573.096 189.983 575.215 192.1C576.627 194.22 578.746 195.632 580.864 197.045C584.395 198.457 588.632 201.282 591.458 204.813C594.989 208.345 598.52 212.58 601.345 216.112C602.757 218.231 603.463 221.056 604.875 223.174C605.581 224.588 605.581 225.999 606.289 228.119C607.701 230.944 609.114 233.062 611.938 235.181C614.763 237.299 617.588 240.124 620.414 242.244C624.651 245.069 627.476 248.599 628.888 252.837C632.419 260.606 632.419 267.668 633.125 276.143C633.125 281.087 634.537 285.325 636.656 289.56C639.482 293.092 643.011 296.623 649.368 298.036C650.074 298.742 651.487 300.154 651.487 300.861C651.487 301.569 651.487 302.275 651.487 302.979C650.781 305.099 650.075 307.216 647.956 308.63C645.837 310.042 643.719 310.748 640.894 310.748C641.6 319.224 640.188 327.697 638.068 336.878C636.655 346.059 635.243 353.827 631.006 362.303C629.592 365.128 623.943 377.838 621.12 378.546C620.414 391.963 622.531 405.381 625.357 411.737C626.063 413.151 626.769 414.563 626.063 415.269C625.357 415.975 623.237 416.682 622.531 416.682C618.294 416.682 614.763 415.976 611.232 413.857C611.938 415.975 612.644 417.388 613.351 418.8V419.506C613.351 420.212 613.351 420.919 613.351 421.624C615.469 423.037 618.294 424.45 618.294 424.45C619.706 425.156 621.12 425.156 621.12 425.862C621.12 426.568 619.706 428.688 619 429.394C614.763 432.925 608.406 434.338 603.463 434.338C596.401 434.338 589.338 432.22 585.101 430.101C584.395 430.101 584.395 430.101 583.689 430.101C581.57 431.498 580.158 431.498 579.452 431.498Z" fill="#231F20"/>
<path d="M241.175 318.503V316.385C241.881 316.385 243.294 315.679 243.294 314.972C243.294 314.264 244 313.56 244 311.44V238.701C244 237.287 244 235.875 243.294 235.169C243.294 234.463 242.588 233.758 241.175 233.758V231.638H270.131C283.548 231.638 292.73 242.232 292.73 255.649C292.73 262.004 289.905 272.598 283.55 276.835L294.143 307.202C294.849 308.615 295.557 310.028 296.263 311.439C296.969 312.852 298.382 314.264 299.794 315.676V317.794H284.257V315.676C284.963 315.676 285.669 314.97 285.669 314.97C287.081 312.852 285.669 310.733 284.963 308.615L275.783 281.073C273.663 281.073 270.84 281.779 268.72 281.779H251.065V311.439C251.065 312.852 251.066 314.264 251.771 314.97C251.771 315.676 253.185 315.676 253.891 316.384V318.501H241.175V318.503Z" fill="black"/>
<path d="M267.304 240.82H251.767V272.598H267.304C280.016 272.598 284.959 266.243 284.959 255.649C284.96 245.763 280.017 240.82 267.304 240.82Z" fill="#FFDA00"/>
<path d="M296.966 286.018L298.379 285.313L303.322 301.556L301.91 302.262C299.791 299.437 299.085 298.731 294.142 301.556C284.962 305.793 275.78 307.205 262.362 307.205C252.476 307.205 244.002 305.793 237.645 300.85C229.171 294.495 226.345 285.315 226.345 278.252C226.345 266.247 232.701 248.59 263.068 248.59C271.543 248.59 281.429 250.004 287.786 252.122C293.435 253.535 296.966 255.653 296.966 255.653C297.672 255.653 299.085 255.653 299.085 254.948C299.791 254.242 301.205 253.535 301.91 252.829L303.322 253.535L297.673 270.484L296.26 269.778C296.966 266.952 293.435 264.129 289.905 262.715C283.55 259.89 273.662 257.772 263.774 257.772C242.588 257.772 234.82 267.658 234.82 278.252C234.82 285.315 239.057 292.377 246.826 295.907C250.357 297.319 260.243 298.025 268.011 298.025C272.955 298.025 288.491 295.907 294.847 289.55C296.258 288.137 296.966 286.724 296.966 286.018Z" fill="#231F20"/>
<path d="M258.124 315.679H259.537C260.949 322.034 263.774 320.624 267.306 314.973C269.423 311.442 270.131 305.793 270.131 300.142C269.425 290.962 266.6 281.781 263.776 273.307C260.245 262.713 256.713 252.121 256.713 240.821C256.713 233.054 258.831 225.286 263.776 219.637C267.307 216.104 271.544 213.28 277.193 212.574C279.311 212.574 281.431 211.868 281.431 209.748H282.844V225.992H281.431C280.019 221.047 277.193 221.755 274.37 223.165C272.25 223.871 270.838 225.284 269.425 226.698C266.6 230.228 265.188 235.878 265.188 241.527C265.188 251.414 268.719 260.595 271.544 271.189C274.37 281.075 277.899 290.256 278.607 300.849C279.313 308.618 277.901 315.68 274.37 321.329C272.25 324.861 268.719 328.392 264.483 329.805C260.952 331.219 260.246 332.631 260.246 334.75H258.834V315.679H258.124Z" fill="black"/>
<path d="M367.588 795.199C366.882 793.787 365.468 792.373 365.468 791.669C364.762 791.669 364.762 791.669 364.056 791.669C363.351 791.669 361.937 791.669 361.231 791.669C361.937 793.081 361.937 793.787 362.643 795.199C363.349 795.905 364.055 796.612 364.762 797.318L367.588 795.199Z" fill="#FFDA00"/>
<path d="M351.345 791.668C350.639 790.962 349.225 790.962 348.519 790.962C347.108 790.962 344.988 790.962 342.87 791.668C343.576 792.373 344.282 793.786 344.988 794.494C347.108 796.612 349.225 797.319 349.933 797.319C350.64 797.319 349.227 797.319 349.933 796.613C349.931 794.492 350.639 793.079 351.345 791.668Z" fill="#FFDA00"/>
<path d="M523.661 637.006C522.955 634.887 522.955 633.475 522.249 631.357C519.424 631.357 516.599 630.651 514.481 629.238C511.656 627.826 509.536 625 509.536 622.175C508.83 617.938 511.656 612.995 513.067 608.757C514.481 606.64 515.187 604.52 515.893 602.402C515.893 601.696 515.893 601.696 515.893 601.696C513.775 591.81 511.656 581.922 508.124 572.036C505.299 572.036 501.768 572.741 498.944 572.741C466.458 574.86 438.916 576.272 419.848 596.047C412.785 603.816 408.548 611.583 405.723 620.059C403.603 628.533 402.897 637.713 402.897 646.188C402.897 653.25 405.017 659.607 405.723 666.668C407.135 675.144 410.666 680.087 416.316 687.149C417.022 688.561 418.434 689.267 418.434 689.975C419.14 691.386 420.554 692.8 418.434 694.918C415.609 697.037 414.197 694.918 413.491 693.506C411.372 690.679 409.254 687.855 407.135 685.03C407.135 687.855 407.135 690.679 407.135 694.21C407.135 699.155 407.135 704.804 407.841 709.747C407.841 714.692 407.841 719.633 408.547 724.578C408.547 729.521 408.547 734.464 408.547 738.703C408.547 739.408 408.547 740.115 408.547 740.821C408.547 745.058 408.547 748.589 405.721 752.121C404.308 754.238 402.19 756.358 399.365 758.476C397.245 759.889 394.422 760.593 391.596 761.301C384.534 762.007 379.591 758.476 373.234 754.946C368.291 752.121 363.348 748.591 357.697 748.591C354.166 748.591 350.635 750.004 347.104 751.416C343.572 753.534 340.748 755.653 338.629 758.479C336.51 761.304 335.098 764.128 335.098 766.954C335.098 767.659 335.098 769.072 335.098 769.78C336.51 766.954 337.923 764.835 339.335 763.425C342.866 759.893 347.104 758.48 351.341 757.774C352.754 757.774 354.872 757.774 356.285 757.774C357.697 757.774 360.523 757.774 359.817 761.305C359.817 764.837 356.991 764.131 355.579 764.131C354.167 764.131 353.462 764.131 352.048 764.131C349.223 764.837 345.693 765.544 343.574 768.368C341.454 770.487 339.337 774.017 339.337 778.962C339.337 780.375 339.337 782.493 339.337 783.906C339.337 784.612 340.043 784.612 340.043 785.32C343.574 783.906 346.398 783.906 349.223 783.906C350.635 783.906 352.754 784.612 354.166 785.32C354.166 781.082 354.166 777.551 355.578 774.02C357.697 769.075 362.64 764.838 371.821 763.426C373.233 763.426 375.352 762.72 376.058 765.544C376.764 769.075 373.94 769.075 372.527 769.781C365.464 771.195 362.64 773.312 361.227 776.136C359.814 778.96 359.815 782.491 360.521 786.73C361.227 786.024 361.933 786.024 362.64 785.317C364.052 785.317 364.758 784.612 365.466 784.612H366.172C368.997 785.317 370.409 788.142 372.527 790.261V790.967C373.233 790.967 373.94 791.673 373.94 792.379C375.352 791.675 377.471 790.967 380.295 790.261C385.944 788.143 392.301 785.317 397.244 785.317C398.656 785.317 400.775 785.317 401.481 788.142C401.481 791.675 399.362 791.675 397.95 791.675C395.125 791.675 392.299 793.086 388.77 793.792C390.181 794.498 391.595 794.498 393.713 795.204C398.657 795.91 405.718 795.204 414.899 790.969C417.724 789.555 421.961 790.263 425.492 790.969C427.612 790.969 429.024 791.675 429.73 791.675C431.847 791.675 434.673 789.555 436.792 787.437C438.91 785.318 441.029 781.787 441.029 779.669C441.735 771.193 434.674 767.663 426.904 766.957C426.198 766.957 425.492 766.957 424.079 767.662C422.667 768.368 421.96 769.075 420.548 770.489C419.136 771.9 417.722 773.314 415.605 771.9C413.485 769.783 414.899 767.663 415.605 766.251C417.722 764.134 419.136 762.72 421.254 762.014C423.373 760.601 425.491 760.601 427.61 760.601C431.142 760.601 434.673 762.014 436.791 762.72C437.497 754.952 440.322 748.595 442.441 742.24C444.561 737.295 447.384 730.234 448.09 724.585C448.796 718.935 448.09 712.58 445.972 704.81C445.266 703.398 444.561 701.28 448.09 699.867C450.916 699.161 451.622 701.28 452.327 702.692C455.153 711.168 455.153 717.523 455.153 723.878C463.629 715.402 462.215 708.341 460.803 700.573C460.097 696.335 459.391 692.097 460.097 687.86C460.803 680.797 466.452 672.324 473.515 665.262C477.046 661.73 480.577 658.199 484.815 655.375C476.34 656.787 467.866 658.201 461.509 656.787C453.035 655.375 446.678 651.844 444.561 644.783C442.441 636.307 445.972 629.246 452.329 623.597C457.98 618.653 465.041 614.415 470.691 613.003C472.103 612.297 474.928 611.59 475.634 615.121C476.34 618.653 474.222 619.358 472.103 619.358C467.16 620.064 461.509 624.303 456.566 628.539C452.329 632.776 448.798 637.721 450.211 643.37C451.623 647.607 455.86 650.432 461.511 651.138C468.573 651.844 476.342 651.138 485.522 649.019C501.768 645.482 517.305 639.831 523.661 637.006Z" fill="#FFDA00"/>
<path d="M637.361 588.277C638.067 590.395 638.773 592.514 638.773 594.632C639.479 600.281 639.479 605.932 638.773 612.994C643.01 616.525 647.953 618.643 652.898 620.057C658.548 621.468 664.197 622.174 670.552 622.174C687.501 622.174 700.919 615.819 710.807 605.226C721.4 593.926 727.755 579.095 728.461 562.146C728.461 551.553 727.049 540.96 724.93 530.367C722.105 518.362 717.162 507.061 712.218 497.882C706.569 487.289 700.213 477.402 694.564 468.221C681.146 446.327 668.433 426.555 661.372 396.894C658.547 386.3 657.135 375.708 656.429 365.82C655.723 356.639 656.429 348.166 658.548 341.103C660.666 334.041 663.491 327.684 667.729 322.035C671.966 316.386 678.322 312.149 687.503 311.441C697.389 310.735 705.157 314.973 710.808 320.622C717.87 327.684 722.108 337.572 722.814 346.752C722.814 349.578 721.4 353.815 719.988 357.346C719.282 360.171 717.869 362.291 717.869 363.701C717.869 363.701 717.869 364.407 717.869 365.114C716.457 368.646 715.044 376.414 714.338 384.889C713.632 392.657 713.632 401.131 715.044 407.488C715.75 410.313 716.457 413.137 717.163 415.962C718.575 406.782 721.4 397.6 724.226 394.07C724.931 392.657 726.345 389.833 729.169 391.951C731.994 393.364 730.582 396.188 729.169 397.6C727.051 401.133 723.52 410.313 722.814 419.493C722.108 425.849 722.814 431.499 726.345 435.738C727.051 436.442 727.051 436.442 727.051 437.15C727.757 437.856 728.463 439.269 729.169 439.975C729.875 439.975 729.875 440.681 730.582 441.388C729.876 439.271 729.876 437.857 729.169 435.739C727.757 425.853 729.169 415.259 730.582 408.904C731.288 407.491 731.994 403.96 734.819 404.667C737.645 405.371 736.939 408.904 736.939 410.316C735.525 415.965 734.113 425.853 735.525 434.327C736.231 439.977 738.351 444.921 742.588 447.745C742.588 447.745 743.294 447.745 743.294 448.451C744 448.451 744 449.157 744.707 449.157C744.001 447.038 743.294 445.626 742.588 443.508C739.762 435.032 739.056 425.146 741.882 412.432C741.882 411.021 742.588 407.489 746.119 408.197C749.65 408.904 748.944 411.728 748.237 413.14C746.119 424.44 746.825 433.62 748.943 441.388C751.062 448.451 755.298 454.1 760.242 458.337C759.536 451.275 756.711 446.333 754.593 440.682C753.181 436.447 751.062 432.915 750.356 429.384C749.65 424.44 748.944 419.496 748.944 414.553C748.944 409.609 748.944 403.96 747.532 399.722C746.119 393.367 744.001 385.597 741.177 379.242C739.058 372.887 736.233 368.649 734.115 365.825C734.115 365.825 733.409 364.411 733.409 363.705C733.409 343.225 727.758 327.69 719.991 315.683C711.515 303.679 699.51 297.322 686.798 297.322C683.267 297.322 679.03 298.027 675.499 298.734C671.967 299.442 669.142 300.852 665.612 302.971C659.256 307.209 653.607 313.565 649.369 321.334C645.132 329.101 642.307 337.576 641.601 347.463C640.189 363 640.895 377.829 643.72 391.249C646.546 405.374 651.489 418.792 657.845 432.209C664.908 447.04 672.675 461.165 680.445 474.583C697.393 504.243 712.224 530.374 710.812 556.503C710.106 568.509 705.162 577.689 698.807 584.046C691.038 591.108 680.445 594.639 669.851 594.639C661.376 594.639 652.902 592.521 644.426 588.99C641.598 591.102 639.48 589.689 637.361 588.277Z" fill="#FFDA00"/>
<path d="M465.044 249.294C466.456 250 467.162 251.412 467.87 252.826C469.282 254.239 474.932 264.831 475.638 264.831C480.581 265.536 489.763 259.181 490.468 254.237C490.468 252.824 489.056 250 486.23 247.175C481.993 242.23 474.931 237.993 467.868 241.524C467.164 242.939 465.752 248.588 465.044 249.294Z" fill="black"/>
<path d="M417.728 361.582C417.728 360.876 418.434 359.464 419.14 358.757C419.14 358.051 419.846 357.343 419.846 357.343C420.552 354.518 421.965 352.399 422.671 348.868C423.377 346.042 424.79 343.218 425.496 341.101C419.14 346.75 414.903 351.694 412.077 357.343C409.252 362.287 407.84 367.937 407.134 375.706C411.371 372.176 414.197 367.939 417.728 361.582Z" fill="black"/>
<path d="M621.825 259.181C620.412 255.65 619 252.118 615.47 249.294C615.47 252.826 615.47 257.063 614.764 261.3C614.764 262.712 614.764 264.125 614.058 265.536C617.587 264.125 619.706 262.006 621.825 259.181Z" fill="#FFDA00"/>
<path d="M587.22 426.554C590.046 427.967 595.695 429.381 601.345 429.381C603.463 429.381 606.288 429.381 608.408 427.967C607.702 427.261 606.288 426.554 605.582 425.142C597.108 425.142 575.922 415.96 571.685 389.125C572.391 393.362 573.097 397.599 574.51 401.837C576.627 409.605 580.864 418.081 587.22 426.554Z" fill="#FFDA00"/>
<path d="M506.712 403.25C514.481 422.318 527.898 453.39 539.198 480.227C544.141 491.526 549.086 502.119 552.617 512.006C553.323 513.418 554.029 514.832 551.204 516.242C548.378 517.655 547.672 516.242 546.966 514.124C545.554 509.887 542.729 504.944 540.611 499.293C538.493 500.707 536.374 502.119 534.962 502.119C533.549 502.119 530.725 503.532 530.018 500.001C529.312 497.175 532.137 496.47 533.549 495.764C534.962 495.058 537.08 493.646 537.786 492.938C536.373 490.113 534.961 486.583 533.549 483.758C531.431 486.583 528.606 488.701 525.074 490.113C521.543 492.231 517.306 492.938 513.775 493.644C512.361 493.644 509.538 495.058 509.538 491.526C508.832 488.7 511.655 487.289 513.069 487.289C516.6 486.583 520.131 485.876 522.955 484.464C525.78 483.051 530.018 479.519 531.429 476.695C524.367 460.453 517.306 443.502 510.949 427.967C509.538 432.912 508.124 437.147 505.299 440.679C500.356 448.447 493.293 453.39 485.525 454.096C479.874 454.802 474.225 452.684 469.988 450.565C465.751 448.447 462.22 445.622 459.394 443.502C458.688 443.502 457.982 443.502 457.275 444.208C444.563 447.74 433.97 450.563 422.67 450.563C440.325 483.756 460.099 502.823 477.049 519.067C489.761 531.779 501.766 543.079 508.829 557.204C516.597 570.621 519.422 584.746 522.246 599.577C522.246 600.281 522.246 600.989 522.952 603.108C526.482 620.057 529.307 636.3 535.664 650.423C542.02 664.548 551.201 677.258 566.032 686.44C573.094 690.677 580.156 694.916 587.923 698.444C594.986 701.977 602.754 704.801 611.229 707.626C616.172 709.038 621.115 711.158 625.354 713.981C629.591 716.807 633.122 720.336 635.947 723.868C643.01 733.754 643.01 742.936 642.303 770.478C642.303 771.184 642.303 772.596 642.303 773.303C647.246 774.009 647.246 774.715 651.483 774.009C652.896 773.303 655.014 773.303 656.427 773.303C658.545 773.303 660.665 774.009 662.077 774.715C664.196 775.421 665.608 776.835 667.021 778.248C667.727 779.66 669.846 781.073 667.021 783.191C664.902 785.311 662.784 783.191 662.077 781.778C661.371 781.073 660.665 780.366 659.959 780.366C659.253 779.66 657.839 779.66 657.133 779.66C656.427 779.66 655.016 779.66 653.604 780.366C647.247 781.778 645.835 780.366 640.892 779.66C639.48 779.66 637.361 779.66 634.536 779.66C628.18 780.366 613.35 774.011 613.35 774.011C606.287 776.836 602.05 779.66 599.931 782.485C597.813 784.605 597.105 786.722 596.399 788.136C596.399 788.136 596.399 788.84 595.693 789.548C595.693 790.254 594.987 790.961 594.987 790.961V791.667C594.987 792.373 595.693 793.785 597.107 794.492C597.813 795.198 597.813 795.198 598.519 795.906C599.225 794.492 599.931 793.08 600.638 792.375C602.756 789.548 605.581 786.724 609.112 785.312C614.763 782.485 621.824 782.485 629.592 785.312C631.004 786.018 633.124 786.724 632.418 789.548C631.004 792.375 628.886 791.667 627.473 790.961C621.118 788.843 616.173 788.843 611.936 790.961C609.111 792.375 606.993 793.786 605.581 795.906C604.169 798.024 603.462 800.849 602.756 802.968C602.756 805.086 602.756 807.911 604.169 809.323C604.875 809.323 604.875 810.029 604.875 810.735C606.993 810.735 609.112 810.031 610.524 810.031C611.936 810.031 613.35 810.031 614.761 810.031C615.467 807.205 617.587 805.086 620.411 803.674C623.236 801.556 627.473 800.849 631.71 800.849C633.828 800.849 636.653 800.849 639.479 801.555C640.891 802.261 643.01 802.261 642.304 805.792C641.598 808.617 639.479 808.617 638.067 807.91C635.949 807.205 634.536 807.205 632.418 807.205C628.886 807.205 626.767 807.91 624.649 809.323C623.237 810.029 621.824 811.441 621.824 812.149C622.53 812.855 623.236 812.855 624.649 812.855C626.767 813.561 629.592 813.561 631.712 814.268C633.124 814.268 635.243 814.268 636.655 813.562C638.067 813.562 640.186 812.856 641.598 812.149C644.423 811.443 647.249 810.031 649.366 808.617C650.78 807.911 652.898 807.204 653.604 806.5C655.016 805.794 657.135 805.086 658.547 807.911C659.959 810.737 657.135 811.443 655.722 812.149C655.016 812.149 653.602 812.855 652.19 814.268C650.778 814.972 650.071 815.68 648.659 815.68C650.778 817.093 652.896 817.798 655.722 818.505C660.665 819.918 665.608 819.211 667.727 817.799C668.433 817.799 668.433 817.095 669.845 816.387C673.376 813.562 679.733 808.619 684.676 808.619C685.382 808.619 686.795 808.619 687.501 808.619C690.326 808.619 691.738 808.619 693.858 808.619C695.27 807.205 697.389 805.088 698.801 803.674C701.626 800.849 704.451 798.025 704.451 797.319C704.451 797.319 702.332 795.907 700.214 794.494C698.095 793.788 696.683 793.082 695.271 791.669C693.152 789.551 690.326 788.843 686.795 788.843C683.264 788.843 679.733 790.255 675.496 793.08C674.084 793.785 671.964 795.906 669.845 793.08C667.727 790.254 669.845 788.843 671.258 788.136C676.202 784.605 681.145 782.487 685.383 782.487C687.501 782.487 688.915 782.487 691.032 783.191C690.326 781.779 689.621 781.073 688.915 780.366C686.795 778.954 685.383 778.248 683.264 777.541C681.145 777.541 679.027 777.541 676.907 777.541C675.496 777.541 673.376 777.541 673.376 774.715C673.376 771.89 674.79 771.184 676.202 771.184C679.027 771.184 681.145 770.478 683.97 771.184C684.676 771.184 685.383 771.184 686.089 771.89C685.383 770.477 684.677 768.359 684.677 766.945C683.264 762.001 681.852 756.352 680.44 750.703C679.734 748.585 679.734 746.465 679.028 744.348C679.028 745.76 678.322 748.585 674.791 747.879C671.966 747.173 671.966 744.348 672.672 742.934C674.085 734.458 673.378 725.28 669.846 716.805C667.021 709.743 661.372 704.092 655.017 701.268C653.605 700.562 651.486 699.15 652.898 696.324C654.31 693.498 656.429 694.912 657.841 694.912C666.315 698.443 672.672 705.505 676.203 713.978C677.615 716.804 678.322 720.333 679.028 723.16C679.028 722.454 679.028 721.747 679.028 721.747C679.734 717.51 680.44 713.271 681.148 709.741C681.854 707.623 681.854 706.21 682.56 704.798C683.265 703.385 683.971 701.973 683.971 699.853C683.971 699.853 682.56 699.853 681.146 699.147C679.733 698.441 677.615 698.442 675.497 697.03C667.729 693.498 660.666 687.143 652.898 679.375C651.486 677.962 650.072 676.55 647.955 674.43C646.543 673.018 644.423 669.487 641.599 665.25C639.48 661.013 636.656 655.364 633.831 649.007C631.712 644.062 630.3 638.413 628.888 633.47C628.182 629.233 628.182 624.994 628.888 620.759C632.419 610.165 633.125 600.983 631.713 593.216C630.301 585.448 626.77 578.385 622.533 570.617C619.002 564.968 613.352 557.905 607.702 551.549C604.171 547.313 601.347 543.782 597.816 539.545C590.047 529.658 585.104 521.182 581.573 513.414C578.042 504.939 575.922 497.171 573.804 488.697C570.979 475.279 571.685 459.742 571.685 443.499C571.685 438.556 571.685 433.613 571.685 429.376C566.034 428.67 560.385 427.257 554.736 421.608C553.324 420.194 552.617 419.488 551.205 418.076H550.499C549.087 418.076 547.674 418.076 546.262 418.076C535.668 416.663 524.368 411.014 516.6 401.128C513.069 396.89 510.951 392.652 508.832 387.708C509.538 391.24 510.243 394.771 510.951 398.302C511.657 400.422 510.245 402.539 508.126 402.539C508.124 403.25 507.418 403.25 506.712 403.25Z" fill="#FFDA00"/>
<path d="M405.016 383.476C404.31 384.18 404.31 384.18 403.605 384.887C400.779 388.419 397.248 392.656 390.893 397.599H391.599C401.485 394.774 410.667 393.363 418.434 394.774C419.847 394.774 422.671 395.48 421.965 398.305C421.259 401.836 419.14 401.132 417.728 401.132C411.371 399.718 402.897 401.132 394.423 403.25C385.948 406.075 378.18 409.605 372.531 413.843C371.119 415.257 369 416.669 366.88 413.843C364.762 411.724 366.88 409.606 368.294 408.899C372.531 405.367 377.474 402.544 383.123 399.718C368.294 390.538 358.406 384.887 347.812 379.238C345.693 377.825 342.869 377.119 339.338 375.001C337.218 373.588 335.101 372.883 332.983 372.176C327.332 369.351 322.389 367.231 316.74 360.876C311.797 357.345 309.677 350.282 307.559 343.221C306.854 340.396 306.148 337.572 304.734 334.746C303.322 331.216 301.909 328.391 299.791 326.979C296.966 324.153 294.14 324.153 290.611 324.153C285.668 325.565 287.785 324.858 284.962 330.508C289.199 330.508 294.142 331.92 297.673 334.744C301.204 337.571 302.618 340.395 303.324 343.22C303.324 344.633 304.03 347.457 300.498 348.165C299.792 350.282 299.792 347.459 299.087 346.045C299.087 344.633 297.675 342.514 296.261 341.102C294.849 339.689 292.024 338.983 288.493 338.277C287.081 338.277 285.668 338.277 283.55 338.277C279.312 340.395 280.018 341.102 280.018 348.163C290.612 350.988 294.849 356.638 298.381 360.875C300.498 362.993 305.443 367.23 301.912 370.055C298.381 372.882 294.849 367.23 293.436 364.406C289.905 360.169 286.373 354.52 275.781 353.106C270.838 353.106 273.663 362.287 273.663 362.993C275.781 364.406 276.489 365.819 279.312 367.23C282.138 368.643 285.669 370.055 292.024 374.292C293.436 374.998 295.555 376.41 294.143 379.237C292.73 382.062 289.906 380.65 288.493 379.943C282.842 376.412 279.312 374.998 276.487 373.588C270.837 375.706 272.25 381.355 272.956 383.474C274.368 387.005 277.193 392.654 280.724 396.892C284.962 402.541 289.905 407.485 294.142 411.017C296.967 413.134 299.085 414.548 301.91 414.548C304.736 414.548 307.561 413.134 311.798 411.017C314.623 409.603 317.447 408.191 319.567 407.485C326.629 406.072 326.629 411.017 326.629 415.96C328.041 415.255 329.454 413.842 330.866 412.428C334.397 409.603 337.929 406.073 341.46 406.073C349.934 406.073 365.471 417.373 371.826 423.022C376.063 425.847 379.595 428.673 384.538 432.204C390.187 435.735 396.543 438.559 402.193 440.678C407.842 442.798 412.786 444.21 418.435 444.21C429.735 444.916 441.035 442.092 455.158 437.855C456.57 437.149 457.278 437.149 458.69 437.149C459.395 437.149 460.809 437.149 461.515 437.855C464.34 439.972 467.87 442.799 472.109 444.917C475.638 447.035 480.583 448.448 484.113 447.742C489.763 447.742 494.706 442.799 498.944 437.149C501.063 433.617 503.181 429.382 503.888 425.144C505.3 419.494 505.3 415.963 503.182 411.019C501.769 406.782 500.357 403.251 498.945 400.426C486.939 394.775 477.759 378.532 474.228 363.701C473.522 371.47 474.228 379.238 475.641 384.182C476.347 386.301 474.228 389.126 471.404 388.419C458.692 384.181 453.042 379.238 450.924 373.588C448.805 377.119 445.979 378.532 443.862 379.238C443.156 379.944 442.448 379.944 442.448 379.944C441.036 381.356 438.211 380.649 437.505 379.238C436.093 375.707 435.387 372.176 434.68 369.351C431.854 374.295 428.325 377.826 424.086 380.65C422.674 381.356 420.555 380.65 419.849 379.238C419.143 377.825 418.435 376.412 418.435 375.001C415.61 378.532 412.08 381.356 407.842 382.77C406.43 382.77 405.722 383.476 405.016 383.476Z" fill="#FFDA00"/>
<path d="M419.847 336.865C412.785 329.097 406.43 319.916 400.073 310.736C393.011 300.848 387.362 290.961 385.244 285.311V284.606C384.538 276.13 387.362 274.012 391.599 270.481C392.305 269.775 393.011 269.067 393.717 268.363C395.13 266.949 396.542 264.83 397.954 263.418C400.779 258.474 401.485 252.118 400.779 245.763C400.073 239.408 397.248 233.759 393.011 228.815C391.599 226.697 389.48 225.283 387.36 223.87C385.242 222.458 383.123 221.752 381.005 221.752C380.299 221.752 378.18 221.046 378.886 223.164C385.242 226.697 390.892 232.346 393.717 239.408C395.836 245.763 395.836 252.826 392.305 261.302C391.599 262.714 390.892 264.127 388.068 262.714C385.242 261.302 385.948 259.888 386.656 258.476C389.481 251.414 390.186 245.765 388.068 241.528C385.948 235.879 381.005 231.641 376.062 228.816C372.531 226.698 369 225.991 365.468 225.285C361.937 224.579 359.818 225.991 359.112 229.522C366.174 230.934 372.531 234.465 376.062 241.526C378.887 247.177 380.299 254.239 379.593 264.833C379.593 266.245 378.887 268.364 376.062 267.658C373.237 266.952 373.237 265.539 373.237 264.127C374.65 255.651 373.237 249.296 371.119 245.059C368.294 240.116 363.351 237.29 358.407 236.584C354.876 235.879 352.052 235.879 348.521 236.584C347.109 236.584 346.402 241.528 346.402 242.94C352.052 245.057 356.288 248.589 359.819 253.533C365.47 261.302 368.295 271.188 370.413 279.662C371.119 281.076 371.119 283.194 368.295 283.9C365.471 284.606 364.764 283.194 364.764 281.074C362.645 273.306 360.527 264.126 354.878 257.769C352.052 253.532 347.109 250.001 341.459 248.587C339.339 247.883 333.69 252.118 333.69 254.942C333.69 256.356 334.396 257.769 334.396 259.179C335.102 263.417 335.808 267.655 337.927 271.893C340.047 278.248 343.578 283.191 347.108 288.135C350.639 292.373 354.876 295.198 358.407 295.904C361.233 296.61 361.233 301.553 358.407 302.259C356.994 302.965 356.288 302.965 355.582 304.377C354.876 305.083 354.876 305.79 354.876 306.496C354.876 306.496 355.582 306.496 356.288 307.201C356.994 307.906 358.407 307.906 359.819 308.614C365.47 312.145 366.174 313.559 367.588 317.796C368.294 319.208 369.001 321.325 370.413 324.151C373.944 331.213 378.181 341.1 382.419 353.105C386.656 365.818 390.893 379.942 393.718 390.535C396.544 387.709 398.661 384.885 400.073 383.473C400.779 382.767 400.779 382.06 401.485 382.06V381.354C401.485 371.467 403.605 363.699 407.136 356.636C409.254 348.165 414.197 342.514 419.847 336.865Z" fill="#FFDA00"/>
<path d="M535.666 170.198C537.078 167.373 539.904 165.961 542.023 165.254C544.141 164.548 546.26 165.254 547.672 165.254C550.497 165.96 553.323 168.079 555.441 170.904C557.558 173.73 558.972 177.261 559.678 180.791C560.384 185.734 559.678 189.971 557.558 192.796C556.852 194.21 556.147 194.915 555.439 195.621C558.97 193.504 560.382 190.678 561.794 187.853C562.5 185.028 562.5 182.202 561.794 178.673C561.088 175.141 559.676 172.318 557.557 169.492C553.32 163.842 548.377 160.312 543.432 160.312C541.313 160.312 539.195 161.724 537.075 164.549C534.958 167.374 532.838 170.906 531.426 174.437C530.72 175.143 529.307 176.556 528.601 176.556C524.364 176.556 519.421 177.262 515.89 177.968C514.478 177.968 513.77 177.968 511.652 178.674C504.591 179.38 500.353 180.793 496.115 182.911C492.584 185.031 489.76 187.149 486.935 191.386L486.229 192.092C482.698 194.211 477.755 196.329 473.518 197.742C467.162 199.86 461.512 200.568 458.688 200.568C454.451 200.568 452.333 200.568 452.333 201.273C452.333 201.979 452.333 203.391 453.039 205.511V206.215C453.039 209.746 452.333 213.278 451.627 216.101C450.921 219.634 450.214 223.164 450.921 228.107C452.334 234.462 455.158 235.876 457.276 237.287C458.69 237.993 460.101 238.701 460.807 240.82C460.807 242.938 461.513 244.35 462.221 246.469C462.221 245.763 462.927 245.763 462.927 245.056C464.339 242.938 465.045 240.113 467.164 238.701C471.401 235.876 475.638 235.876 479.876 236.583C483.407 237.287 489.056 240.82 493.293 245.057C496.824 249.295 499.648 253.533 498.942 257.77C498.236 262.008 494.705 266.245 489.762 269.07C485.525 271.895 479.876 274.013 476.344 273.306C471.4 272.6 467.164 262.712 465.045 259.181C464.339 260.594 463.633 262.008 463.633 263.418C463.633 263.418 462.927 264.831 462.221 264.831C461.515 265.536 460.807 266.243 460.101 266.949C457.982 269.069 454.451 271.187 454.451 271.894C454.451 273.306 455.157 275.425 455.864 276.837C456.57 278.956 457.982 281.782 457.982 284.606C457.982 284.606 457.982 285.311 457.982 286.019C457.982 286.723 457.276 288.137 457.276 289.55C457.276 291.668 457.276 293.081 457.982 294.493C458.688 295.907 459.396 296.613 460.807 297.319C461.513 297.319 461.513 297.319 462.221 297.319C466.458 297.319 469.283 296.614 471.401 295.201C473.52 294.495 474.932 293.787 477.052 293.787C479.171 293.787 479.877 295.201 481.289 296.614C481.995 297.319 482.702 298.026 483.408 298.732C486.939 297.319 490.471 296.614 494.708 295.907C500.358 294.493 506.008 291.669 510.951 287.431C515.894 283.194 520.837 277.544 523.662 271.895C525.782 266.951 527.194 262.009 527.9 257.064C528.605 251.414 527.9 246.471 526.486 241.528C525.78 240.116 525.074 237.996 527.9 237.29C530.725 236.586 532.137 237.996 532.137 240.117C534.256 245.766 534.962 251.415 534.256 258.478C533.55 264.128 532.137 269.777 529.313 276.133C525.782 282.489 520.837 288.846 515.188 293.787C509.537 298.732 503.182 302.263 496.12 303.675C491.883 304.38 488.351 305.793 484.82 306.5C484.114 307.205 483.408 307.205 483.408 307.205C474.934 310.032 467.871 313.561 460.809 317.799C450.921 324.155 441.741 332.629 431.147 341.811C431.147 341.811 431.853 341.811 432.56 341.811C435.386 343.223 434.678 344.637 433.972 346.047C432.56 348.874 431.853 351.698 430.441 354.523C428.322 359.467 426.91 363.703 425.498 367.234C424.792 369.354 424.792 371.472 424.792 373.591C424.792 375.003 424.792 375.709 425.498 376.416C431.853 370.766 434.678 360.172 437.504 352.405C438.21 350.286 438.915 348.168 439.623 346.048C440.329 343.931 442.448 343.223 443.86 343.931C445.272 344.638 446.685 346.048 445.979 348.168C445.273 350.286 444.568 351.699 443.86 354.523C443.86 355.229 443.154 356.641 443.154 357.348C443.154 359.467 442.448 362.293 442.448 365.117C442.448 368.648 442.448 372.885 443.86 377.122C446.685 375.709 450.217 372.885 451.629 362.291C451.629 360.878 451.629 358.76 451.629 357.347C451.629 355.229 451.629 353.11 451.629 350.992C451.629 349.578 453.04 348.166 454.454 348.166C455.867 348.166 457.985 349.578 457.985 350.992C457.985 355.229 457.985 358.76 457.279 361.585C456.573 371.472 457.985 378.534 469.991 383.479C469.285 377.828 469.285 371.473 469.991 365.117C470.697 357.348 472.11 350.286 475.641 346.754C476.347 345.342 478.467 345.343 479.878 345.343C481.292 346.047 481.292 347.46 481.292 348.874C479.172 365.117 490.472 395.483 507.422 399.014C506.011 392.659 505.303 384.889 505.303 377.828C505.303 368.648 506.009 359.467 508.128 351.699C508.834 350.286 510.248 348.874 511.66 349.58C513.073 349.58 514.485 351.699 514.485 353.111C511.66 353.817 511.66 357.348 511.66 360.879C511.66 377.122 516.604 389.835 522.959 398.308C530.022 406.784 539.202 411.726 548.384 412.433C544.853 406.784 542.027 400.429 539.908 394.072C535.671 381.359 533.553 366.53 534.259 355.936C534.259 354.524 534.259 351.7 537.79 352.406C541.321 352.406 541.321 355.232 540.615 356.642C539.91 367.236 542.027 380.655 546.265 392.659C549.796 403.253 554.74 412.433 561.096 418.79C566.746 424.439 572.395 425.145 578.75 425.145C573.807 418.082 570.276 410.314 568.157 403.251C565.331 394.071 564.625 384.889 564.625 374.295C564.625 367.233 566.039 360.171 568.157 353.11C568.862 351.698 569.568 349.578 572.394 350.284C575.219 350.99 574.512 353.11 574.512 355.229C572.394 361.584 570.98 367.94 570.98 374.297C570.98 376.415 570.98 379.24 570.98 381.358C570.98 380.653 571.686 379.946 573.806 379.946C577.337 379.946 577.337 381.358 577.337 382.771C579.455 408.902 596.405 417.376 604.879 418.788C602.76 413.844 600.642 408.194 599.229 401.839C597.111 394.071 596.404 386.303 596.404 379.24C596.404 373.591 596.404 368.646 597.109 362.997C597.815 358.053 598.521 353.111 599.935 349.578C600.641 348.166 601.347 345.343 604.172 346.048C606.997 346.753 606.29 350.284 605.584 351.698C604.172 354.523 603.465 358.76 602.759 363.702C602.053 367.939 602.053 373.59 602.053 377.827C602.053 375.001 602.759 372.884 603.465 370.06C604.171 367.236 604.878 364.409 604.878 361.584C604.878 360.171 605.584 357.347 609.115 357.347C612.646 358.053 611.94 360.878 611.234 362.291C610.528 365.823 609.821 368.646 609.115 371.472C607.703 377.827 606.996 382.771 608.409 389.126C609.115 392.658 615.47 401.132 611.234 403.251C608.409 404.665 606.997 402.545 606.29 401.134C604.172 397.602 602.759 394.778 602.053 391.247C602.053 393.365 602.759 395.483 603.465 396.896C606.29 402.545 609.115 405.371 611.233 406.783C612.645 407.489 613.351 408.196 614.764 408.196C612.645 400.428 611.233 389.128 611.233 377.122C611.233 365.117 613.351 352.405 618.295 343.223C619.001 341.811 621.121 340.398 622.533 340.398C623.945 340.398 624.652 343.223 624.652 344.635C624.652 346.753 624.652 350.284 623.946 353.815C626.065 347.46 626.771 341.811 628.183 335.455C630.301 325.568 631.714 315.679 630.301 307.206C630.301 306.5 630.301 305.087 630.301 304.381C631.714 302.968 633.832 303.675 636.658 303.675C638.07 303.675 639.483 302.969 640.189 302.262C633.832 300.144 629.595 295.907 626.77 291.668C623.24 286.725 622.533 281.074 621.827 275.425C621.827 271.894 621.827 269.07 621.121 265.539C620.415 266.243 619.001 266.951 618.295 268.364C615.47 270.482 611.94 272.601 608.409 274.719C605.584 276.133 602.759 272.601 604.172 270.482C604.878 269.776 604.878 268.364 605.584 267.657L604.878 268.363C599.935 273.306 593.578 274.012 586.517 274.718C584.398 274.718 582.28 272.6 583.692 269.773C584.398 268.361 584.398 267.655 585.104 266.242C580.161 272.598 573.098 277.542 564.624 280.367C561.799 281.073 559.681 278.249 560.387 276.131C561.799 273.304 562.506 270.481 563.212 267.655C558.269 274.01 551.912 278.249 545.557 281.073C543.438 281.779 540.614 279.659 541.32 276.836C543.438 270.481 544.851 264.831 544.851 258.473C544.851 252.824 542.732 246.469 539.201 240.113C538.495 238.699 537.081 236.582 539.907 235.168C542.732 233.756 544.144 235.168 544.851 236.581C549.794 244.35 551.914 251.412 551.914 258.473C551.914 262.711 551.208 267.655 550.5 271.892C554.032 269.773 556.857 266.948 559.681 263.417C563.212 258.472 566.037 252.823 566.037 247.881C566.037 246.468 567.449 245.054 569.567 245.054C570.98 245.054 572.392 246.468 573.098 247.881C573.098 252.824 573.098 258.473 572.392 264.124C571.686 266.242 571.686 269.069 570.979 271.186C575.924 268.361 579.455 264.831 582.985 261.3C587.928 255.65 590.047 249.295 589.34 245.056C589.34 243.644 590.046 241.526 591.457 241.526C592.871 240.82 594.989 241.526 595.695 243.644C597.108 247.175 597.108 252.118 596.401 257.062C595.695 260.593 594.987 264.124 593.575 267.655C597.107 266.949 599.93 265.536 602.756 263.418C606.287 259.887 609.111 254.238 609.111 243.644C607.699 242.231 606.285 240.819 604.874 239.407C602.048 236.582 599.223 233.758 597.811 230.226C597.105 228.107 596.399 226.695 595.692 225.282C594.986 223.164 594.28 221.045 592.866 218.927C590.747 215.396 587.922 211.864 584.391 209.04C581.565 206.215 578.742 204.096 575.21 202.685C572.385 201.272 569.56 199.154 567.442 196.329C566.03 194.917 565.324 193.504 564.617 192.092C562.499 196.329 558.261 199.154 552.611 201.979C551.199 202.685 549.786 202.685 548.374 199.86C547.668 199.156 547.668 198.448 548.374 197.742H547.668C546.254 198.448 544.842 198.448 543.431 195.623C542.725 192.799 544.137 192.093 545.548 191.387C548.374 190.681 549.786 189.268 551.199 187.856C552.611 185.737 552.611 182.911 552.611 180.088C552.611 177.968 551.199 175.144 549.786 173.732C548.374 172.319 546.96 170.907 545.548 170.907C544.842 170.907 543.431 170.907 542.723 170.907C542.016 170.907 541.311 171.613 540.605 172.319C539.899 173.732 539.192 175.144 536.368 173.732C534.253 173.024 534.961 171.612 535.666 170.198Z" fill="#FFDA00"/>
<path d="M480.582 199.154C479.17 197.741 479.17 194.917 481.288 194.21C482.701 192.796 486.938 189.972 491.881 188.559C493.295 187.853 494.707 187.853 496.826 187.853C498.945 187.853 499.651 188.559 501.769 189.265C503.888 189.971 505.3 190.678 506.712 192.09C508.832 193.502 510.949 194.914 510.949 195.62C510.949 196.326 511.655 197.739 511.655 197.739C510.949 200.565 508.83 201.271 505.299 201.977C503.181 201.977 501.062 202.681 498.238 204.094C487.644 209.744 485.526 206.92 481.995 202.681C482.701 201.272 481.994 199.859 480.582 199.154Z" fill="black"/>
<path d="M487.644 197.741C488.35 197.741 488.35 197.741 487.644 197.741C489.056 199.858 490.469 201.272 496.118 197.741C498.238 196.327 500.356 196.327 502.473 195.621C501.768 194.917 501.062 194.917 500.356 194.209C499.65 193.503 498.236 193.503 497.53 193.503C496.824 193.503 495.411 193.503 494.705 194.209C491.881 194.917 489.763 196.329 487.644 197.741Z" fill="#FFDA00"/>
<path d="M492.587 213.277C503.181 218.928 509.536 227.402 512.361 237.289C514.48 244.351 514.48 250.708 513.067 257.77C511.655 264.125 508.124 270.482 503.181 275.425C496.826 281.78 487.644 286.017 475.638 286.017C474.225 286.017 472.107 286.017 472.107 282.487C472.107 279.661 473.519 279.661 475.638 279.661C486.232 279.661 493.293 276.129 498.943 270.48C503.181 266.243 505.299 261.3 506.712 256.355C508.124 250.706 507.418 245.056 506.006 239.407C503.888 230.931 498.238 223.87 489.057 218.927C487.644 218.221 486.232 217.513 487.644 214.689C489.763 211.865 491.175 212.571 492.587 213.277Z" fill="black"/>
<path d="M538.492 299.437C537.786 303.674 537.786 310.03 539.198 316.385C539.904 319.917 542.023 324.154 544.141 326.979C544.141 322.742 544.141 318.503 544.847 314.973C545.553 307.911 547.672 302.262 549.792 297.319C550.498 295.907 551.203 294.493 554.029 295.907C556.854 297.319 556.148 298.732 556.148 300.143C554.029 305.087 552.617 310.03 551.911 316.387C551.205 322.036 551.205 327.685 551.911 334.747C551.911 337.574 549.086 338.985 546.968 337.574C538.493 331.924 534.962 324.861 532.843 317.799C531.431 310.736 531.431 303.674 532.137 298.732C532.137 297.319 532.843 295.201 535.668 295.907C539.198 296.611 539.198 298.023 538.492 299.437Z" fill="black"/>
<path d="M573.095 290.254C573.095 291.668 572.389 293.786 572.389 295.199C571.683 302.261 573.095 310.03 576.627 316.385C579.452 321.328 582.982 325.565 587.926 327.683C586.513 324.153 585.807 319.916 585.807 315.679C585.807 307.203 587.926 299.436 591.458 293.08C592.164 291.668 592.869 290.254 595.695 291.668C598.52 293.08 597.814 294.493 597.107 295.905C594.281 300.848 592.164 307.909 592.164 314.972C592.164 320.622 593.575 325.565 597.107 329.802C597.813 331.216 598.52 331.92 597.813 333.334C596.401 336.159 592.869 334.747 590.044 334.747C580.864 332.628 574.507 326.271 570.27 319.21C566.739 311.442 565.327 302.967 566.033 294.493C566.033 292.375 566.739 290.962 566.739 288.844C566.739 287.43 567.445 286.019 570.27 286.019C573.801 287.429 573.801 288.842 573.095 290.254Z" fill="black"/>
<path d="M493.999 348.164C493.293 351.696 493.293 355.227 493.293 358.758C493.293 362.994 494.705 367.939 496.119 371.47C496.824 372.883 497.53 374.295 494.705 375.707C491.88 377.119 491.174 375.707 490.468 374.294C488.349 369.349 486.937 364.407 486.937 359.463C486.231 353.108 486.937 346.751 488.349 342.514C486.231 339.689 485.523 336.865 484.817 334.04C482.699 326.977 484.111 319.209 486.231 313.558C486.937 312.146 487.643 309.322 491.174 310.733C493.999 311.439 493.293 314.264 492.586 315.677C491.174 320.62 489.761 326.977 491.174 332.626C491.88 334.744 492.586 336.863 493.293 338.277C493.293 335.45 493.293 332.626 493.999 330.508C494.705 325.564 496.824 322.032 498.942 318.503C499.648 317.091 501.062 314.971 503.887 317.091C506.712 318.503 505.299 320.62 504.593 322.034C502.474 324.859 501.062 327.683 500.356 331.92C499.65 336.157 499.65 340.396 500.356 346.751C501.062 349.576 497.53 351.696 495.411 349.576C495.413 348.872 494.707 348.872 493.999 348.164Z" fill="black"/>
<path d="M530.724 360.17C530.724 360.876 530.724 362.288 530.724 363.702C530.018 371.47 529.312 388.419 537.079 394.775C538.492 395.481 539.904 396.895 537.785 399.012C535.667 401.13 534.253 400.426 533.547 399.012C523.661 390.537 525.073 371.47 525.073 362.996C525.073 361.584 525.073 360.17 525.073 360.17C525.073 358.758 525.073 355.933 527.898 355.933C530.724 355.932 530.724 358.758 530.724 360.17Z" fill="black"/>
<path d="M550.498 368.645C549.792 375 550.498 379.945 551.203 384.888C551.909 389.833 554.029 394.068 556.148 399.013C556.854 400.426 557.56 401.838 554.029 403.25C551.203 404.662 550.498 402.544 549.792 401.132C547.672 395.482 546.26 391.244 544.847 385.595C543.435 379.946 543.435 374.296 543.435 367.941C543.435 366.527 543.435 363.703 546.966 364.409C550.498 365.115 550.498 367.232 550.498 368.645Z" fill="black"/>
<path d="M588.632 362.994C587.22 370.763 588.632 378.531 590.044 386.301C590.044 387.713 590.75 390.538 587.926 391.244C584.395 391.95 584.395 389.126 583.689 387.713C581.57 379.239 580.864 370.764 582.276 362.29C582.276 360.876 582.982 357.345 586.513 358.053C589.338 358.051 588.632 360.876 588.632 362.994Z" fill="black"/>
<path d="M522.955 470.34C521.542 473.165 518.718 475.989 515.187 478.109C512.361 480.226 509.536 481.638 506.006 482.344C504.594 482.344 501.769 483.05 501.769 479.519C501.063 475.988 503.888 475.988 505.3 475.988C507.42 475.988 509.538 474.574 511.655 473.163C514.481 471.045 516.599 468.925 517.306 466.807C518.012 465.394 519.424 463.276 522.249 464.69C525.073 466.809 523.661 468.927 522.955 470.34Z" fill="black"/>
<path d="M518.718 458.334C516.598 461.865 513.067 465.396 509.537 468.22C506.006 471.047 501.769 472.457 498.238 472.457C496.826 472.457 494.707 472.457 494.707 469.632C494.707 466.101 496.826 466.101 498.238 466.101C501.063 466.101 503.888 465.395 506.712 463.275C509.537 461.156 512.363 458.331 514.481 455.507C515.187 454.094 516.598 451.976 519.424 453.389C520.836 454.803 519.424 456.923 518.718 458.334Z" fill="black"/>
<path d="M393.011 425.848C399.367 426.554 407.842 427.261 418.436 427.261C428.322 427.261 441.035 425.848 454.452 423.024C455.866 423.024 457.278 422.32 457.984 425.849C458.69 428.676 457.278 429.382 455.158 429.382C441.033 432.207 428.322 433.618 417.728 433.618C407.136 433.618 398.66 432.912 391.598 432.206C390.186 432.206 388.066 432.206 388.772 428.675C390.186 425.848 391.599 425.848 393.011 425.848Z" fill="black"/>
</svg>
