<?xml version="1.0" encoding="UTF-8"?><svg id="Calque_2" xmlns="http://www.w3.org/2000/svg" viewBox="0 0 3566.87 5165.37"><defs><style>.cls-1{fill:#00953b;}.cls-2{fill:#fff;}</style></defs><g id="Calque_1-2"><path class="cls-2" d="m3458.72,1324.87h-201.16v-534.27c-.32-19.31,4.53-38.36,14.06-55.16,72.87-113.58,104.55-248.73,89.77-382.86-5.42-81.38-5.42-163.04,0-244.42,5.49-43.94-16.36-86.79-55.16-108.15h-832.78c-38.38,21.67-59.77,64.45-54.08,108.15v167.64h-176.29V109.23c5.69-43.7-15.7-86.49-54.08-108.15h-818.72c-38.38,21.67-59.77,64.45-54.08,108.15v166.56h-175.21V108.15c5.49-43.94-16.36-86.79-55.16-108.15H259.57c-38.79,21.36-60.65,64.21-55.16,108.15v409.9c-1.08,24.13,4.53,48.08,16.22,69.22,71.5,111.75,103.13,244.38,89.77,376.37-7.57,108.15,0,216.31,0,324.46v41.1H108.15c-43.94-5.49-86.79,16.36-108.15,55.16v3105.06c16.27,30.47,44.48,52.8,77.87,61.65l1650.41,599.17c10.82,0,22.71,10.82,33.53,15.14h47.59c54.08-21.63,108.15-43.26,162.23-62.73l1514.14-551.58c34.31-8.63,63.61-30.9,81.11-61.65V1380.03c-21.36-38.79-64.21-60.65-108.15-55.16m34.61,3150.49l-1714.22,621.88L71.38,4475.36V1399.5h310.4v-662.98l-102.75-206.57V69.22h780.86v282.28h334.19V69.22h772.21v282.28h333.11V69.22h781.94v460.73l-102.75,205.49v662.98h310.4l4.33,3076.94Z"/><path class="cls-2" d="m532.11,715.97h2494v-5.41l108.15-191.43V217.39h-484.52v281.2h-637.02V217.39h-466.14v281.2h-637.02V217.39h-479.12v301.75l108.15,192.51-6.49,4.33Z"/><path class="cls-2" d="m242.26,4356.39l1536.85,559.15,1539.01-559.15V1569.3H242.26v2787.09Zm2858.47,0H765.72L3100.74,1854.82v2501.57Zm-83.28-2538.34L646.75,4361.8h-86.52L2926.61,1818.05h90.85Zm-2538.34,0h2330.69l-1096.67,1178.86-472.63-684.61-167.64-243.34h-186.02v1223.21h192.51v-154.66h510.48l-1110.73,1189.68V1818.05Zm924.71,1119.38h-324.46v-488.85l162.23,244.43,162.23,244.43Z"/><path class="cls-2" d="m1031.78,4246.07h1946.75v-2112.22l-828.45,900.91h35.69l373.13,540.76v-540.76h241.18v1035.02h-206.57l-484.52-706.24v706.24h-237.94v-737.6l-839.26,913.89Z"/><path class="cls-2" d="m3026.11,796H538.6v135.19h2487.51v-135.19Z"/><path class="cls-2" d="m532.11,1289.18v98.42h352.58v-98.42h-352.58Z"/><path class="cls-2" d="m884.69,1028.53h-352.58v99.5h352.58v-99.5Z"/><rect class="cls-2" x="890.1" y="1157.23" width="352.58" height="98.42"/><path class="cls-2" d="m1594.17,1386.52v-97.34h-352.58v98.42h352.58v-1.08Z"/><rect class="cls-2" x="1242.67" y="1028.53" width="352.58" height="98.42"/><rect class="cls-2" x="1599.58" y="1157.23" width="352.58" height="98.42"/><path class="cls-2" d="m1956.48,1386.52h352.58v-98.42h-352.58v98.42Z"/><rect class="cls-2" x="1956.48" y="1028.53" width="352.58" height="98.42"/><rect class="cls-2" x="2314.47" y="1157.23" width="352.58" height="98.42"/><path class="cls-2" d="m3019.62,1386.52v-97.34h-352.58v98.42h352.58v-1.08Z"/><rect class="cls-2" x="2667.04" y="1028.53" width="352.58" height="98.42"/><path class="cls-1" d="m3178.61,1398.41v-661.89l102.75-205.49V69.22h-781.94v282.28h-333.11V69.22h-772.21v282.28h-334.19V69.22H279.03v460.73l102.75,205.49v662.98H71.38v3076.94l1707.73,621.88,1709.89-621.88V1398.41h-310.4ZM430.45,217.39h480.2v281.2h635.94V217.39h467.22v281.2h637.02V217.39h483.44v300.66l-108.15,192.51v5.41H532.11v-5.41l-101.66-192.51V217.39Zm108.15,1068.55h346.09v98.42h-352.58v-98.42h6.49Zm0-162.23v-95.17h346.09v98.42h-346.09v-3.24Zm710.56,127.62h-359.07v-98.42h352.58l6.49,98.42Zm0-226.04h352.58v98.42h-357.99l5.41-98.42Zm0,357.99v-97.34h352.58v98.42h-357.99l5.41-1.08Zm356.9-230.37h352.58v98.42h-359.07l6.49-98.42Zm356.9,230.37v-97.34h352.58v98.42h-357.99l5.41-1.08Zm0-357.99h352.58v98.42h-359.07l6.49-98.42Zm710.56,226.04h-359.07v-98.42h352.58l6.49,98.42Zm0-226.04h352.58v98.42h-357.99l5.41-98.42Zm0,357.99v-97.34h352.58v98.42h-357.99l5.41-1.08Zm352.58-452.08H538.6v-135.19h2487.51v135.19Zm296.34,3425.19l-1543.34,559.15-1536.85-559.15V1569.3h3075.86l4.33,2787.09Z"/><path class="cls-1" d="m1079.36,2448.58v488.85h324.46l-162.23-244.43-162.23-244.43Z"/><path class="cls-1" d="m1240.51,3137.51h-161.15v157.9h-192.51v-1226.45h186.02l167.64,243.34,472.63,684.61,1096.67-1181.03H479.12v2511.3l1106.4-1189.68h-345.01Z"/><path class="cls-1" d="m3100.74,4360.72V1854.82L765.72,4360.72h2335.02Zm-989.6-290.93v-706.24l482.36,706.24h202.25v-1035.02h-239.02v540.76l-374.21-540.76h-35.69l829.53-899.83v2111.14h-1946.75l841.43-913.89v737.6h240.1Z"/><path class="cls-1" d="m646.75,4361.8L3016.38,1818.05h-89.77L560.23,4361.8h86.52Z"/></g></svg>
