<svg width="1000" height="1000" viewBox="0 0 1000 1000" fill="none" xmlns="http://www.w3.org/2000/svg">
<path d="M914.48 240.173V264.057C913.292 273.246 913.656 282.553 912.962 291.777C906.856 419.505 871.241 545.645 810.071 657.901C801.4 674.785 791.14 690.775 781.54 707.141C773.033 720.095 764.527 733.049 755.82 745.873C744.043 761.58 732.995 777.852 720.358 792.901C710.757 804.513 701.639 816.55 691.356 827.574C680.484 839.422 670.189 851.8 658.694 863.059C649.505 872.307 640.375 881.626 631.139 890.838C621.162 900.098 611.067 909.228 601.054 918.452C588.912 929.9 575.676 940.089 562.969 950.878C542.755 968.327 520.436 983.128 499.799 1000H498.575C498.516 999.776 498.422 999.318 498.363 999.082C477.609 982.693 455.713 967.727 435.617 950.49C422.675 939.536 409.227 929.147 396.92 917.464C383.742 905.169 370.012 893.462 357.552 880.425C346.363 868.895 334.609 857.894 324.043 845.764C315.501 836.187 306.83 826.739 298.382 817.091C284.04 799.325 269.168 781.982 256.026 763.286C242.248 745.32 230.106 726.213 217.634 707.329C207.587 690.292 196.939 673.573 187.938 655.925C125.686 541.045 90.2357 411.693 85.6824 281.082C85.5177 276.058 85.6353 271.022 85 266.022V239.326C85.7883 232.525 85.553 225.654 85.9413 218.842C87.4708 188.521 90.1887 158.131 96.7186 128.434C116.92 134.835 137.134 141.447 158.041 145.212C199.398 153.46 242.413 154.072 283.828 145.824C338.056 135.223 388.719 109.456 431.205 74.4061C457.195 52.8514 480.986 28.2494 499.622 0C512.412 19.8487 528.178 37.6031 545.073 54.0397C583.829 91.4428 630.586 121.128 682.12 137.329C726.241 151.389 773.516 155.025 819.343 148.765C847.71 145.33 875.265 137.4 902.303 128.411C909.715 161.554 912.221 195.569 913.586 229.442C913.727 233.019 913.833 236.631 914.48 240.173Z" fill="white"/>
<path d="M472.538 45.1802C482.268 34.8381 491.328 23.8608 499.658 12.3539C517.518 37.5913 539.473 59.7696 563.192 79.5242C598.725 108.868 639.693 131.917 683.896 145.224C729.841 159.225 778.916 162.143 826.343 154.93C850.416 151.354 874.088 145.283 897.09 137.352C902.973 166.884 905.373 197.004 906.538 227.054C909.962 332.545 892.537 438.518 856.664 537.727C831.191 608.227 796.27 675.256 753.631 736.896C685.191 836.128 597.195 920.911 499.505 991.105C444.924 951.737 393.319 908.098 346.504 859.706C287.758 799.136 236.53 731.084 196.139 656.925C124.733 526.443 87.8473 376.949 92.5183 228.148C93.6125 197.746 96.1303 167.308 101.931 137.411C144.793 152.071 190.162 160.343 235.554 158.519C283.593 156.836 331.044 143.718 373.494 121.269C410.497 101.75 443.924 75.6533 472.538 45.1802ZM499.564 64.6171C476.35 92.3841 447.736 115.292 417.063 134.305C376.471 159.284 331.032 176.344 284.005 184.133C232.306 192.851 179.102 190.169 127.956 179.191C126.098 190.31 124.909 201.546 123.968 212.782C118.685 281.729 124.368 351.311 138.322 418.964C148.782 469.286 164.124 518.584 183.985 565.988C218.564 648.771 267.015 725.53 325.443 793.524C376.859 853.576 435.935 906.816 499.481 953.761C555.556 912.475 608.043 866.165 654.941 814.644C704.533 760.251 747.796 699.964 782.363 634.935C830.485 544.692 861.617 445.331 872.641 343.616C878.277 289.036 879.336 233.607 871.124 179.238C813.166 191.616 752.467 193.345 694.497 180.109C646.07 169.273 599.995 148.365 559.674 119.469C537.661 103.561 516.941 85.5717 499.564 64.6171Z" fill="#1F1A17"/>
<path d="M428.993 149.706C454.925 132.823 479.162 113.068 499.646 89.8192C516 108.856 535.308 125.175 555.603 139.835C596.76 169.237 643.823 190.474 693.321 201.075C746.254 212.606 801.494 211.594 854.452 200.734C858.181 226.56 859.052 252.727 858.805 278.811C858.311 314.767 854.993 350.688 849.098 386.173C616.032 386.091 382.954 386.161 149.888 386.138C144.511 352.982 141.158 319.473 140.369 285.882C139.816 257.456 140.546 228.901 144.617 200.722C193.409 210.723 244.119 212.429 293.229 203.546C341.503 194.981 387.86 176.32 428.993 149.706ZM263.721 234.819C250.731 239.337 239.483 248.526 232.389 260.304C222.117 277.176 220.011 298.401 225.329 317.285C229.6 332.463 239.566 346.123 253.273 354.053C269.486 363.63 289.687 364.759 307.548 359.665C320.878 355.888 333.444 347.687 340.245 335.357C331.02 329.674 321.784 324.015 312.548 318.367C309.43 326.897 300.888 332.074 292.276 333.627C283.475 335.392 273.439 334.18 266.638 327.874C258.344 320.238 255.567 308.461 255.414 297.577C255.343 286.588 257.802 274.67 265.815 266.622C271.933 260.386 281.216 258.539 289.629 259.645C298.265 260.633 307.595 264.057 312.078 272.034C321.114 266.587 330.008 260.892 339.127 255.562C335.126 248.985 328.761 244.208 322.161 240.432C304.548 230.784 282.816 228.089 263.721 234.819ZM470.032 233.843C454.513 275.929 438.653 317.897 422.969 359.936C434.229 360.088 445.477 359.971 456.737 359.994C459.431 352.453 461.996 344.852 464.761 337.334C479.409 337.404 494.057 337.345 508.717 337.357C511.353 344.899 513.882 352.476 516.541 360.018C527.966 359.924 539.39 360.136 550.815 359.9C535.025 317.873 519.342 275.799 503.611 233.737C492.422 233.784 481.221 233.596 470.032 233.843ZM632.151 233.737C632.151 275.823 632.151 317.909 632.151 359.994C642.458 360.006 652.776 360.006 663.095 359.994C663.142 328.368 663.012 296.742 663.153 265.116C672.472 296.613 680.978 328.368 689.956 359.983C698.368 359.958 706.792 360.147 715.205 359.865C723.711 328.392 732.594 297.013 741.207 265.563C741.466 267.622 741.631 269.705 741.654 271.811C741.713 301.178 741.901 330.545 741.936 359.924C752.267 360.065 762.597 360.03 772.927 359.947C772.786 317.838 773.127 275.729 772.751 233.631C756.691 233.819 740.63 233.749 724.57 233.666C717.134 261.586 710.11 289.6 702.78 317.544C695.062 289.694 688.061 261.645 680.59 233.725C664.448 233.737 648.293 233.725 632.151 233.737Z" fill="#1F1A17"/>
<path d="M472.302 312.861C477.244 298.319 481.491 283.529 486.762 269.105C491.457 283.729 496.222 298.33 500.94 312.955C491.398 312.908 481.844 313.073 472.302 312.861Z" fill="#1F1A17"/>
<path d="M154.57 411.728C195.868 411.763 237.165 411.728 278.451 411.74C278.428 508.677 278.498 605.615 278.416 702.552C218.058 615.345 175.419 515.772 154.57 411.728Z" fill="#1F1A17"/>
<path d="M307.489 411.752C343.774 411.775 380.071 411.669 416.368 411.799C416.298 561.234 416.298 710.67 416.368 860.106C386.46 833.257 358.564 804.172 332.491 773.581C324.043 763.322 315.137 753.274 307.571 742.391C307.371 632.181 307.548 521.961 307.489 411.752Z" fill="#1F1A17"/>
<path d="M445.336 411.775C481.633 411.728 517.93 411.728 554.227 411.775C554.133 569.659 554.286 727.542 554.145 885.426C536.284 900.262 518.189 914.852 499.434 928.571C481.044 914.699 462.796 900.592 445.3 885.591C445.418 727.648 445.347 569.706 445.336 411.775Z" fill="#1F1A17"/>
<path d="M583.194 411.799C619.479 411.669 655.776 411.775 692.073 411.74C692.062 521.878 692.098 632.017 692.05 742.155C659.306 784.453 622.738 823.738 583.241 859.788C583.194 710.459 583.288 561.129 583.194 411.799Z" fill="#1F1A17"/>
<path d="M721.099 411.74C762.232 411.728 803.353 411.752 844.474 411.728C825.685 505.806 788.893 596.108 737.583 677.103C732.218 685.28 727.265 693.775 721.217 701.47C720.946 604.897 721.182 508.312 721.099 411.74Z" fill="#1F1A17"/>
</svg>
