<svg width="1000" height="1000" viewBox="0 0 1000 1000" fill="none" xmlns="http://www.w3.org/2000/svg">
<path fill-rule="evenodd" clip-rule="evenodd" d="M292.106 63.5988C234.884 93.0714 180.937 120.82 109.065 121.165L71.8368 121.337L69.4238 158.566C53.3948 414.34 78.5586 778.869 481.868 990.348L500.31 1000L518.752 990.348C922.061 778.869 947.225 414.34 931.196 158.566L928.783 121.337L891.554 121.165C819.682 120.993 765.735 93.0714 708.514 63.7711C648.017 32.4026 585.108 0 500.482 0C415.856 0 352.947 32.4026 292.106 63.5988Z" fill="black"/>
<path fill-rule="evenodd" clip-rule="evenodd" d="M500.482 954.843C159.737 776.112 88.8998 484.143 109.238 160.807C270.044 160.29 348.465 39.8138 500.482 39.8138C652.499 39.8138 730.92 160.29 891.726 160.807C912.064 484.143 841.227 776.112 500.482 954.843Z" fill="white"/>
<path fill-rule="evenodd" clip-rule="evenodd" d="M334.505 146.157C390.175 117.546 438.262 92.899 500.31 92.899C562.53 92.899 610.616 117.546 666.115 146.157C715.925 171.837 771.423 199.931 840.71 209.928C841.227 225.612 841.571 240.951 841.571 256.119C841.571 562.565 733.85 762.323 500.31 894.174C266.77 762.323 159.048 562.565 159.048 256.119C159.048 240.951 159.393 225.612 159.91 209.928C229.196 199.931 284.694 171.837 334.505 146.157Z" fill="black"/>
<path fill-rule="evenodd" clip-rule="evenodd" d="M500.482 192.347L559.944 375.56H752.637L596.828 488.797L656.29 672.182L500.482 558.773L344.501 672.182L404.136 488.797L248.155 375.56H440.847L500.482 192.347Z" fill="white"/>
</svg>
