<svg width="480" height="480" viewBox="0 0 480 480" fill="none" xmlns="http://www.w3.org/2000/svg">
<path d="M465.805 231.655C465.805 231.655 456.965 230.95 450.986 224.583C450.986 224.583 457.415 220.506 458.651 212.432C458.651 212.432 446.316 209.959 441.594 204.44C441.594 204.44 446.306 201.569 448.155 195.682C419.458 184.563 402.698 97.1434 448.534 49.0187L453.725 43.5613L442.463 26.0345L436.239 27.0463C406.806 31.87 384.333 28.6916 367.256 23.1832C358.631 20.3728 351.262 16.9594 345.018 13.5358C338.549 9.98955 333.224 6.46375 328.861 3.63288L323.301 0.00488281L317.946 3.90882C296.904 19.3202 263.291 23.9293 239.99 23.9293C216.689 23.9293 183.066 19.3202 162.034 3.90882L156.689 0.00488281L151.14 3.62267C146.766 6.45353 141.451 9.97933 134.982 13.5256C128.748 16.9492 121.38 20.3626 112.744 23.173C95.6465 28.6916 73.1938 31.8598 43.761 27.0361L37.5372 26.0243L26.275 43.5511L31.4666 49.0085C77.3021 97.1434 60.5418 184.563 31.8448 195.692C33.6843 201.579 38.4161 204.45 38.4161 204.45C33.6843 209.969 21.3593 212.442 21.3593 212.442C22.5959 220.516 29.0241 224.594 29.0241 224.594C23.0354 230.971 14.1953 231.666 14.1953 231.666C16.0144 242.253 19.7242 246.586 24.18 251.471C14.4712 274.312 12.8463 324.359 32.8667 360.168C80.6644 445.697 162.504 418.533 202.596 472.892C209.443 466.259 219.305 457.562 219.305 457.562C226.265 467.905 239.99 479.995 239.99 479.995C239.99 479.995 253.725 467.915 260.675 457.562C260.675 457.562 270.526 466.239 277.384 472.892C317.486 418.533 399.315 445.708 447.113 360.168C467.133 324.359 465.529 274.323 455.8 251.471C460.286 246.576 464.006 242.243 465.805 231.655Z" fill="black"/>
<path d="M454.072 236.663C444.456 235.11 437.2 224.553 437.2 224.553C437.2 224.553 442.912 222.233 445.938 217.194C435.728 213.679 427.43 203.653 427.43 203.653C427.43 203.653 433.02 202.049 437.2 197.756C413.531 186.331 391.027 95.4877 441.574 42.3962L437.782 36.5096C375.861 46.6272 341.737 23.4693 323.638 11.6553C300.041 28.9266 263.812 33.5459 240 33.5459C216.188 33.5459 179.969 28.9266 156.372 11.6553C138.252 23.4693 104.149 46.617 42.2073 36.5096L38.4158 42.3962C88.9728 95.4774 66.4587 186.331 42.7898 197.756C46.9595 202.049 52.5599 203.653 52.5599 203.653C52.5599 203.653 44.2717 213.689 34.0622 217.194C37.077 222.233 42.8 224.553 42.8 224.553C42.8 224.553 35.5645 235.12 25.9375 236.663C29.1056 243.796 36.7908 246.586 36.7908 246.586C27.7771 258.697 19.9487 315.733 40.9401 354.997C83.4643 434.486 164.997 412.626 203.965 458.431C206.101 454.823 217.036 445.779 221.676 444.941C225.048 449.57 236.862 464.277 240 466.392C243.148 464.266 254.951 449.57 258.334 444.941C262.964 445.779 273.909 454.823 276.045 458.431C315.002 412.636 396.546 434.486 439.07 354.997C460.082 315.743 452.253 258.697 443.229 246.586C443.219 246.586 450.904 243.796 454.083 236.663H454.072Z" fill="#005DAA"/>
<path d="M441.809 288.212C437.721 237.757 408.697 209.888 399.898 156.193C393.981 120.148 403.26 77.1743 426.418 50.1432L422.484 42.2433C422.484 42.2433 373.838 56.9904 324.936 21.5586C287.154 40.741 268.769 40.5468 239.99 40.5468C211.211 40.5468 192.826 40.7308 155.044 21.5586C106.153 56.9904 57.5067 42.2433 57.5067 42.2433L53.5619 50.1432C76.7402 77.1743 86.0197 120.138 80.0821 156.193C71.2727 209.888 42.2691 237.747 38.171 288.212C32.0596 364.103 114.441 433.873 239.98 432.749C365.539 433.873 447.921 364.103 441.809 288.212Z" fill="black"/>
<path d="M392.469 162.907C388.044 134.047 387.298 93.9752 410.343 54.149C357.599 56.4382 333.266 35.0177 324.559 30.3677C306.613 41.3641 279.94 49.7443 240.011 49.7443C200.083 49.7443 173.409 41.3641 155.463 30.3677C146.736 34.9972 122.423 56.428 69.6789 54.149C92.7346 93.9855 91.9681 134.037 87.5532 162.907C79.2446 216.898 44.8041 246.167 46.7969 302.049C48.9329 361.252 114.084 423.827 240.021 423.827C365.959 423.827 431.11 361.252 433.246 302.049C435.228 246.167 400.778 216.898 392.469 162.907Z" fill="#EE3124"/>
<path d="M379.53 170.368C378.355 167.711 376.372 165.881 374.553 164.655C376.403 163.01 377.425 160.516 377.333 157.818C377.292 155.682 376.576 153.904 375.411 153.025C375.248 152.902 375.054 152.81 374.87 152.718C375.565 150.082 374.481 147.558 373.153 145.544C375.35 143.132 375.565 140.404 374.921 138.421C374.226 136.326 372.57 134.906 370.823 134.906C370.393 134.906 369.985 134.987 369.596 135.141C369.729 134.905 369.883 134.65 370.036 134.374C377.435 121.538 384.558 97.1334 377.2 83.0608C374.124 77.1743 368.748 73.7609 361.635 73.1579C360.695 73.0762 359.785 73.0046 358.866 73.0046C346.878 73.0046 337.885 79.811 332.151 93.1579C329.77 98.7686 328.217 104.931 327.184 111.042L325.345 111.492C325.253 111.523 325.171 111.543 325.059 111.543C323.454 111.543 321.267 107.793 319.193 104.175C315.268 97.3889 309.923 88.2116 300.296 87.5064C301.707 85.299 302.954 82.4374 302.197 80.1073L301.635 78.4313L300.102 79.3613C296.791 81.4461 293.664 82.417 290.301 82.417C287.614 82.417 285.13 81.8038 282.514 81.16C279.908 80.5366 277.23 79.8723 274.349 79.8723C273.838 79.8723 273.347 79.9029 272.836 79.9234C261.574 80.8738 255.565 88.1707 254.011 90.3066C238.978 92.0951 232.908 98.5233 230.608 100.976C230.537 101.037 230.445 101.119 230.404 101.201C227.624 101.344 221.441 103.04 218.631 104.89C218.508 104.89 218.406 104.87 218.273 104.87C215.422 104.87 211.119 106.587 208.533 107.639L208.38 107.67C208.38 107.67 204.905 109.254 205.396 111.308C205.958 113.792 207.603 115.887 209.474 118.278L209.566 118.421C211.323 121.732 213.786 123.827 215.728 124.543C216.464 126.689 218.436 128.457 220.562 129.458C214.481 130.531 210.026 133.383 205.723 136.203C201.329 139.034 197.19 141.742 191.753 141.916C188.309 142.049 186.592 140.383 185.784 138.993C184.558 136.888 184.711 134.313 185.478 132.984C186.009 132.075 186.704 131.88 187.603 132.361C187.931 132.545 188.309 132.545 188.595 132.361C188.901 132.187 189.106 131.84 189.106 131.502C189.106 126.198 185.815 124.338 182.994 124.338C179.796 124.338 176.556 126.341 174.492 129.428C174.124 127.22 174.665 124.737 176.055 122.499C177.772 119.668 180.368 118.043 182.923 118.268C183.229 118.319 183.546 118.196 183.761 117.941C183.965 117.695 184.057 117.379 183.986 117.041C183.454 114.722 181.145 113.332 179.193 112.718C187.706 97.1027 194.318 70.9403 178.896 59.5044C175.912 57.2969 172.223 56.1421 168.206 56.1421C163.107 56.1421 158.283 58.0123 155.248 61.1804C153.081 63.4696 152.008 66.2698 152.151 69.2949C152.161 69.6526 152.386 69.9898 152.713 70.1431C153.03 70.3066 153.408 70.2862 153.705 70.0818C156.014 68.5284 158.293 67.7313 160.399 67.7313C164.027 67.7313 167.236 70.0307 169.218 74.0879C171.548 78.8401 171.518 84.6551 169.239 88.8145C165.846 81.3644 160.02 80.5366 157.547 80.5366C153.909 80.5366 150.537 82.1717 148.932 84.7471C147.839 86.4844 147.726 88.4364 148.636 90.2657C148.738 90.5417 148.993 90.7256 149.269 90.7972C149.525 90.8789 149.831 90.8176 150.066 90.6745C152.509 89.1211 154.287 89.3153 155.187 91.4717C156.362 94.3025 155.493 99.6679 152.356 102.816C151.068 104.113 149.433 105.473 147.716 106.934C145.008 109.234 142.218 111.564 140.256 113.996C136.444 110.133 136.065 106.178 137.026 103.684C138.16 100.721 141.216 99.2591 144.732 100.046C144.987 100.107 145.284 100.046 145.519 99.8825C145.733 99.7394 145.897 99.5146 145.927 99.2387C146.142 98.0838 145.835 97.0005 145.038 96.0297C143.659 94.3843 140.971 93.4134 137.844 93.4134C133 93.4134 126.837 95.8457 123.352 102.56C121.134 99.0751 121.993 95.8968 122.759 94.1901C124.497 90.4293 128.452 87.8846 132.642 87.8846C133.97 87.8846 135.299 88.1605 136.536 88.6613C136.842 88.7839 137.179 88.743 137.466 88.5591C137.741 88.3853 137.905 88.0787 137.905 87.7619C137.977 85.9019 137.23 84.1339 135.81 82.6316C133.459 80.2198 129.433 78.7788 125.038 78.7788C116.178 78.7788 105.253 84.7675 103.638 101.763C102.964 108.763 104.946 115.212 109.382 120.404C114.297 126.117 123.005 129.264 126.827 129.775C129.239 133.056 132.642 135.59 136.025 137.501C135.462 138.135 134.584 139.024 133.613 139.024C131.916 139.024 130.169 137.971 128.82 136.152C128.636 135.917 128.36 135.764 128.043 135.754C127.747 135.733 127.45 135.846 127.246 136.122C125.1 138.677 124.374 142.417 125.355 145.871C126.357 149.336 129.555 151.85 132.948 152.933C143.495 155.519 150.976 151.165 153.296 149.601C155.37 150.266 163.117 152.627 169.024 152.105C170.496 153.26 176.392 157.358 185.846 157.358C186.469 157.358 187.093 157.358 187.747 157.328C198.16 156.714 204.384 150.889 209.852 145.749C213.551 142.294 217.026 139.044 221.308 137.89C222.32 137.593 223.24 137.481 224.027 137.481H224.17C223.679 138.738 223.097 141.323 224.507 145.8C227.215 154.323 234.859 155.774 235.197 155.805L236.781 156.06L236.842 154.456C237.026 150.102 238.477 148.467 239.673 147.864C239.714 151.175 239.234 155.795 236.689 158.544C235.238 160.056 233.306 160.823 230.782 160.823C230.465 160.823 230.148 160.802 229.811 160.772C224.446 160.393 223.73 158.074 223.025 155.846C222.841 155.222 222.657 154.67 222.391 154.098L221.778 152.8L220.491 153.536C218.314 154.783 216.74 157.154 216.137 160.005C215.687 162.172 215.861 164.389 216.587 166.28C211.926 166.944 208.125 170.123 207.747 173.914L207.583 175.652C200.746 174.282 186.285 171.206 182.647 169.499C178.365 167.486 175.166 165.524 174.481 165.115C172.856 163.654 166.275 157.91 162.361 157.338C160.961 157.123 159.745 157.041 158.631 157.123C156.433 157.266 154.696 157.982 153.439 159.259C151.201 157.982 148.227 156.653 144.64 156.888C144.272 156.909 143.863 156.96 143.485 157.021C137.721 157.931 135.595 160.812 134.829 162.938C134.829 162.938 134.757 162.959 134.747 162.969C132.151 164.4 126.919 167.22 128.278 174.098C126.919 174.66 125.59 175.376 124.885 177.379C123.71 180.761 122.964 187.701 127.971 191.114C128.656 194.997 131.109 202.989 138.171 201.323C141.962 202.315 143.189 201.119 144.251 200.271C144.251 200.271 142.667 198.973 142.923 198.063C143.853 197.287 144.17 196.633 144.231 196.316C144.395 196.316 144.558 196.295 144.742 196.295C147.174 196.132 151.906 195.376 156.781 192.31C160.245 191.574 162.391 191.186 163.526 191.094H163.894C165.11 191.615 166.377 191.829 167.798 191.717C168.002 191.697 168.196 191.666 168.421 191.656C169.106 191.584 170.25 191.431 171.477 190.879C172.213 193.035 172.989 196.183 177.169 198.789C177.169 198.789 177.966 196.898 179.387 195.437C179.55 197.982 181.339 202.09 184.844 204.9C184.844 204.9 185.887 202.305 186.398 201.058C187.001 203.102 189.116 205.585 190.864 207.047C183.189 208.651 174.563 210.603 170.69 212.136C163.137 212.831 160.215 213.413 158.488 213.761L158.079 213.843C158.079 213.843 157.977 213.863 157.752 213.863C157.312 213.832 156.658 213.679 155.994 213.536C155.135 213.352 154.154 213.158 153.163 213.086C152.182 213.005 151.375 213.117 150.618 213.393C149.688 213.7 148.564 214.17 147.471 214.65C146.49 215.059 145.018 215.692 144.497 215.805C143.005 215.713 134.829 217.154 130.199 220.199C126.755 222.489 124.803 225.411 124.354 228.774C124.108 230.797 124.905 233.281 126.111 235.018C92.417 243.674 67.4502 274.282 67.4502 310.664C67.4502 353.7 102.473 388.743 145.529 388.743C188.585 388.743 223.618 353.71 223.618 310.664C223.618 275.958 200.879 246.495 169.535 236.357C171.691 236.183 175.054 235.529 178.682 232.381C178.927 232.361 179.172 232.32 179.417 232.289C180.664 235.355 183.669 241.323 188.503 241.63C188.503 241.63 188.043 239.249 189.525 237.583C189.77 241.191 195.35 244.972 197.885 245.575C197.885 245.575 196.719 242.07 198.16 239.75C198.16 239.75 199.908 244.379 203.158 245.503C203.975 242.581 205.784 241.681 205.784 241.681C206.714 244.052 208.247 245.514 210.148 246.341C209.944 246.546 209.78 246.709 209.586 246.893L208.002 248.324L209.934 249.223C211.364 249.898 212.867 250.204 214.44 250.204C217.558 250.204 220.48 248.927 222.596 247.312C223.281 250.705 225.1 253.086 226.898 254.987L229.136 257.44L229.341 254.129C229.392 252.851 229.852 251.564 230.353 250.45C230.639 250.981 230.945 251.461 231.221 251.921C232.233 253.567 233.132 254.987 232.826 258.319L232.519 261.211L234.951 259.658C235.043 259.596 236.474 258.666 237.66 256.725C240.204 263.623 244.977 267.098 245.233 267.271L247.767 269.09L247.45 265.963C247.317 264.706 247.307 263.582 247.328 262.591C250.107 266.321 253.551 269.029 255.83 269.877C257.782 273.873 260.153 277.532 262.821 280.874C244.374 292.024 231.978 310.296 227.021 333.894C225.549 340.915 229.801 342.734 232.1 343.725C232.468 343.868 232.805 344.011 233.051 344.154C234.032 344.676 235.902 345.197 239.407 346.055C243.475 347.128 248.932 348.508 251.61 349.969C252.008 351.461 252.529 352.667 253.01 353.628C250.199 356.878 242.943 365.677 241.502 371.901C241.053 372.156 239.908 372.483 239.254 372.667C238.314 372.943 237.404 373.209 236.699 373.597C236.597 373.659 236.515 373.72 236.403 373.761C235.401 374.292 233.633 375.273 232.172 377.011C230.69 377.767 229.515 379.566 229.28 380.005C227.747 382.519 228.135 385.473 229.004 388.038C229.004 388.038 230.588 386.74 231.518 386.863C233.051 388.937 235.401 388.447 237.026 387.455C237.394 388.171 238.038 388.886 239.152 389.356C239.642 388.344 239.683 388.293 240.164 387.987C242.514 389.704 245.774 388.324 247.154 387.854C247.624 388.753 248.217 389.213 248.983 389.561C249.504 388.743 250.741 387.455 250.741 387.455C251.456 387.558 253.48 388.273 254.635 387.701C255.033 388.692 255.79 390.072 256.495 390.726C256.495 390.726 258.365 389.05 259.285 389.193C261.829 389.581 264.425 389.264 266.612 388.14C270.976 387.803 273.817 385.279 274.267 381.354C274.604 378.595 273.286 375.376 272.683 374.057C272.775 372.504 272.959 368.866 272.376 366.607C273.306 362.724 277.609 350.47 279.837 347.547C281.574 345.268 281.84 342.162 280.583 339.586C279.356 337.103 276.893 335.621 274.052 335.621C273.541 335.621 273.03 335.652 272.529 335.744C271.988 335.805 269.515 336.111 267.43 336.561C266.653 335.192 265.406 333.189 263.904 331.553C264.65 331.073 265.304 330.715 265.876 330.429C267.777 331.901 271.078 333.71 273.838 333.71C274.573 333.71 275.238 333.577 275.81 333.332C275.81 333.332 274.992 330.133 276.26 329.571C277.823 331.645 282.351 333.935 284.701 333.086C284.262 330.767 283.628 326.955 284.19 326.188C286.06 327.772 290.281 328.845 295.851 327.772C295.851 327.772 291.967 323.981 291.773 321.926C292.826 322.407 295.432 323.235 296.536 323.521C298.089 321.283 298.048 318.431 297.977 318.114C298.845 317.787 299.438 317.481 300.307 316.806C306.909 322.764 313.797 327.701 319.591 331.41C329.32 337.614 337.741 341.599 340.787 342.959C340.072 345.135 338.396 347.66 337.588 350.47C336.689 353.536 336.454 357.644 336.076 358.411C333.592 361.221 331.14 366.331 329.954 368.794C329.801 369.131 329.658 369.418 329.566 369.642C329.29 369.826 328.595 370.204 328.023 370.511C325.968 371.635 322.862 373.291 320.593 376.03C318.835 378.176 318.579 379.729 318.896 381.845C319.05 382.928 319.949 384.778 320.889 385.401C320.981 386.188 321.809 387.476 322.238 387.936C322.238 387.936 323.025 386.004 324.098 385.759C325.703 386.055 326.714 385.698 327.859 385.401C327.931 385.912 328.83 387.108 329.535 387.312C329.535 387.312 330.169 385.268 331.242 385.401C332.07 385.79 333.47 386.025 334.716 385.708C335.003 386.403 335.687 387.445 336.076 387.813C336.076 387.813 337.629 385.401 338.774 385.309C340.061 385.841 342.105 386.014 343.301 385.524C343.761 386.311 344.384 387.006 345.243 387.312C345.243 387.312 346.5 384.369 347.798 384.543C350.077 385.718 354.257 384.645 356.454 383.132C360.552 380.302 360.358 375.253 360.225 373.373C360.47 371.819 362.228 360.68 360.48 352.228C360.153 350.593 360.736 348.048 361.39 345.371C361.676 344.134 361.993 342.867 362.228 341.528C362.586 339.637 362.81 337.736 363.005 335.846C363.24 333.72 363.465 331.717 363.853 330.378C364.865 326.873 364.568 323.838 363.025 321.783C361.932 320.322 360.276 319.525 358.365 319.525C357.752 319.525 357.108 319.607 356.433 319.78C356.035 319.637 355.677 319.525 355.36 319.412C353.735 318.85 353.01 318.595 352.54 318.36C353.061 317.195 357.282 314.773 358.6 314.691C358.488 312.371 355.248 311.461 353.654 311.298C354.257 310.348 356.525 310.348 357.517 309.469C357.118 308.181 353.5 306.045 349.576 306.045C349.402 306.045 349.208 306.065 349.034 306.065C351.037 303.408 353.715 297.389 350.414 294.486C349.719 295.11 347.798 298.912 344.854 299.351C346.418 296.949 348.585 293.025 346.612 288.539C346.612 288.539 343.546 292.208 340.47 291.921C339.918 291.87 339.458 291.717 339.09 291.298C339.029 290.603 338.794 289.234 338.191 287.312C351.906 286.689 362.964 280.71 369.504 270.348C376.965 258.462 377.23 242.693 370.22 228.13C365.325 218.002 360.378 210.286 355.554 202.795C345.938 187.823 337.629 174.916 335.258 149.039C332.805 122.499 337.404 97.8692 346.714 87.6699C349.842 84.2463 353.449 82.509 357.435 82.509C358.324 82.509 359.234 82.5907 360.174 82.7645C365.345 83.6945 368.769 86.1165 370.639 90.1329C376.392 102.489 365.743 125.943 362.79 131.094C362.535 131.533 361.952 131.809 361.308 131.809C360.94 131.809 360.256 131.707 359.918 131.032C359.285 129.857 359.673 127.036 362.637 122.652C363.148 121.906 363.117 120.904 362.575 120.189C362.167 119.647 361.553 119.361 360.889 119.361C360.675 119.361 360.45 119.392 360.225 119.453C356.341 120.741 353.684 123.071 352.305 126.382C350.629 130.388 351.211 135.294 352.519 139.188C348.595 139.484 346.377 141.323 345.161 142.928C343.403 145.238 342.759 148.385 343.526 151.124C343.761 151.972 344.497 152.596 345.376 152.678H345.56C345.764 152.678 345.938 152.667 346.142 152.596C344.558 154.435 343.843 156.909 343.229 158.953C342.299 162.11 341.696 163.592 340.245 163.868C339.509 163.96 338.907 164.461 338.641 165.146C338.365 165.841 338.436 166.607 338.886 167.19C340.47 169.356 342.831 170.409 344.895 170.726C344.405 173.863 344.803 176.622 346.071 178.656C347.205 180.475 348.973 181.681 351.191 182.141C349.545 183.112 348.523 185.667 348.861 188.273C349.044 189.826 350.302 194.946 358.314 195.631C358.723 195.652 359.131 195.682 359.54 195.682C362.821 195.682 365.611 194.507 367.818 192.208C371.507 188.324 372.57 182.202 372.836 178.615C373.602 179.555 374.297 181.18 374.778 182.284L374.88 182.57C375.217 183.337 375.973 183.848 376.801 183.848H376.811C377.649 183.848 378.406 183.378 378.753 182.611C380.828 178.104 381.083 173.986 379.509 170.419L379.53 170.368ZM239.019 131.032C237.374 129.826 234.349 128.835 228.799 128.835C227.307 128.835 225.662 128.896 223.904 129.07C223.73 126.863 224.108 124.052 224.282 123.03C224.292 122.938 224.323 122.805 224.343 122.734C224.773 122.407 225.396 121.957 225.989 121.497C226.704 121.497 227.379 121.477 228.012 121.477C234.369 121.477 238.579 122.08 240.828 123.316C240.838 126.014 240.092 128.631 239.009 131.022L239.019 131.032ZM350.312 217.328C360.133 234.088 366.612 245.146 358.14 259.893C356.607 262.56 349.412 270.204 337.159 270.204C333.776 270.204 330.23 269.612 326.643 268.488C326.479 268.426 326.316 268.426 326.152 268.406C320.317 263.337 312.887 260.577 307.869 260.577C307.532 260.577 307.184 260.588 306.857 260.639C304.885 257.501 299.704 248.426 298.252 244.573C298.375 243.827 298.528 242.959 298.692 241.947C299.826 235.284 300.94 228.181 301.288 223.235C303.587 226.914 304.66 232.075 304.66 232.075C304.66 232.075 309.361 230.787 308.258 218.85C309.259 219.3 310.301 219.555 311.313 219.801C313.643 220.363 315.514 220.813 316.617 223.439L317.813 226.219L319.172 223.48C321.165 219.535 322.024 215.733 319.847 210.705C320.153 210.726 320.47 210.756 320.756 210.756C324.701 210.756 327.992 209.019 329.964 205.861C332.172 202.407 332.243 198.258 331.242 196.101L330.465 194.486L329.075 195.611C327.583 196.837 326.643 197.123 326.142 197.123C325.897 197.123 325.549 197.062 325.171 196.633C323.812 195.12 323.454 190.818 323.73 188.283C324.027 185.514 323.822 180.772 320.051 177.276C322.228 176.49 323.945 175.212 324.997 173.546C326.357 171.523 326.674 169.07 325.979 166.382L325.652 165.084L324.333 165.36C323.965 165.432 323.587 165.462 323.25 165.462C320.542 165.462 318.917 163.214 318.171 161.875C316.648 159.044 316.392 155.376 317.578 153.557C320.675 148.855 322.974 139.729 323.158 131.431C323.362 123.838 318.498 118.615 316.995 117.154C316.944 116.847 316.873 116.449 316.781 115.948C318.242 116.51 319.571 116.704 320.634 116.704C323.383 116.704 325.835 115.529 326.837 113.853C325.907 120.404 325.56 126.73 325.488 131.972C324.905 173.935 339.612 199.004 350.353 217.338L350.312 217.328ZM347.573 151.278C347.757 150.961 348.033 150.542 348.329 150.542C348.431 150.542 348.585 150.552 348.738 150.623C348.329 150.797 347.941 151.032 347.573 151.267V151.278ZM356.106 183.214C355.616 184.573 355.023 185.074 354.757 185.187C354.665 185.238 354.553 185.238 354.481 185.268C354.481 185.054 354.502 184.686 354.584 184.175C354.706 183.47 354.441 182.703 353.878 182.223C353.633 182.008 353.327 181.865 353.02 181.783C353.235 181.64 353.408 181.467 353.531 181.242C354.011 180.557 354.011 179.627 353.551 178.922C353.265 178.523 353.235 178.176 353.367 177.716C353.684 176.806 354.808 175.744 356.219 174.936C357.118 177.604 356.934 180.996 356.096 183.224L356.106 183.214ZM368.339 139.065C368.298 139.136 368.258 139.167 368.206 139.208C368.206 138.993 368.258 138.666 368.36 138.217C368.462 138.554 368.452 138.881 368.339 139.065Z" fill="black"/>
<path d="M126.888 302.948C129.034 304.093 130.853 305.044 132.059 305.708C142.831 302.427 158.089 292.054 160.347 290.491C161.236 284.931 161.88 263.674 161.901 257.512C158.477 254.262 141.236 245.36 136.474 243.316C124.241 244.686 110.025 253.158 103.74 258.35C101.737 264.553 101.615 282.049 103.096 288.518C105.938 292.054 119.019 298.881 126.888 302.959V302.948Z" fill="white"/>
<path d="M186.04 312.718C197.537 310.399 202.371 308.958 209.913 305.544C212.447 297.665 212.274 290.215 212.131 284.185C212.11 283.02 212.08 281.937 212.08 280.915C209.566 275.508 204.844 265.616 187.706 250.593C178.089 252.647 168.431 256.96 166.346 257.951C165.989 261.456 163.73 283.776 164.732 291.584C165.897 293.137 175.043 304.798 186.05 312.718H186.04Z" fill="white"/>
<path d="M186.93 316.878C182.27 329.192 174.687 342.253 173.256 344.665C174.247 346.678 178.478 355.58 179.756 362.131C186.981 361.119 196.414 358.4 202.842 356.04C206.245 351.369 214.135 335.815 216.036 328.457C215.279 322.764 213.317 316.152 210.609 310.235C203.803 312.984 189.659 316.275 186.94 316.888L186.93 316.878Z" fill="white"/>
<path d="M169.034 347.179C167.91 347.343 166.653 347.425 165.222 347.425C155.074 347.425 140 343.337 137.087 342.529C134.502 345.074 126.806 352.064 116.627 356.643C115.871 362.039 116.392 370.511 119.335 377.89C127.378 382.632 138.855 383.337 145.018 383.337C146.428 383.337 147.859 383.306 149.238 383.214C158.671 378.687 170.046 369.683 174.961 363.919C174.818 359.29 171.446 352.218 169.412 347.956L169.034 347.179Z" fill="white"/>
<path d="M134.47 339.903C132.12 335.059 130.066 315.202 129.759 309.08C122.605 306.628 106.468 297.011 100.756 292.821C95.5129 294.108 82.7076 302.346 77.0254 306.158C76.4122 317.226 85.2932 341.61 86.4276 344.717C91.2615 346.771 106.54 351.962 113.949 352.882C120.572 351.523 131.66 343.5 134.46 339.903H134.47Z" fill="white"/>
<path d="M71.5487 306.137C70.864 330.624 81.3494 346.74 81.3494 346.74L83.4547 345.565C74.5942 328.283 73.8686 305.657 73.8686 305.657L71.5487 306.137Z" fill="white"/>
<path d="M133.94 240.782C136.331 240.332 137.557 240.342 137.557 240.342L136.76 236.735C136.065 236.949 135.289 237.103 134.318 237.256C133.94 237.931 133.786 239.402 133.94 240.782Z" fill="white"/>
<path d="M128.054 238.513C106.909 245.187 96.9756 255.284 96.9756 255.284L100.706 256.449C115.208 246.607 125.611 242.785 131.6 241.303C130.231 240.741 129.035 239.832 128.054 238.513Z" fill="white"/>
<path d="M283.72 297.389C276.975 294.017 271.262 289.888 266.469 284.962C239.612 301.313 229.484 335.437 230.363 337.389C231.252 339.188 233.674 341.13 235.994 341.13C246.653 341.13 255.524 346.413 255.626 346.444C255.728 346.526 255.79 346.658 255.79 346.771C255.779 346.893 255.718 347.016 255.606 347.077C255.565 347.098 254.43 347.772 255.095 349.775C255.483 350.951 256.689 351.635 257.568 352.157C258.242 352.555 258.702 352.821 258.702 353.219C258.702 353.465 258.559 353.659 258.314 353.812C252.683 357.195 246.633 369.51 245.273 372.33C246.101 372.32 248.953 373.148 248.329 374.63C248.033 374.568 247.593 374.497 247.113 374.497C246.357 374.497 244.435 374.589 242.402 375.601C240.858 376.357 239.888 377.42 239.387 378.34C239.479 378.268 239.612 378.258 239.714 378.207C240.889 377.961 241.962 378.288 242.606 379.096C243.189 379.811 243.373 380.884 243.086 382.08C242.79 383.521 241.809 384.134 240.767 384.798C240.623 384.901 240.491 384.982 240.368 385.074C240.95 385.381 242.034 385.831 243.373 385.831C244.517 385.831 246.582 385.197 246.582 385.197C246.152 383.633 246.255 381.528 246.704 380.608C246.827 379.934 248.002 373.833 253.367 373.209C254.808 373.046 255.912 374.211 255.074 374.211C252.223 374.211 250.015 376.234 249.239 378.37C249.555 378.288 249.923 378.248 250.302 378.248C251.855 378.248 252.54 379.178 252.826 379.719C253.265 380.659 253.224 381.814 252.724 382.509C252.386 382.938 251.957 383.419 251.497 383.94C251.221 384.226 250.966 384.533 250.71 384.829C251.119 384.911 251.773 385.033 252.489 385.033C253.306 385.033 254.328 384.86 254.849 384.594C254.236 376.755 260.828 372.616 262.299 374.456C262.637 374.895 261.124 373.945 258.835 376.817C257.445 378.37 256.321 380.659 256.546 382.192C257.333 381.201 258.559 380.394 259.745 380.353H259.888C261.247 380.353 261.942 380.894 262.259 381.375C262.749 381.978 262.862 382.857 262.565 383.838C262.351 384.625 261.492 385.401 260.511 386.28C260.715 386.301 261.002 386.342 261.308 386.342C262.218 386.342 263.086 386.107 263.853 385.596C265.927 384.318 266.694 382.979 266.694 382.979C266.786 382.846 266.878 382.806 267.001 382.806C267.144 382.806 267.246 382.857 267.328 382.969C267.379 383.071 267.726 383.664 267.695 384.257C269.433 383.828 270.332 382.806 270.669 381.017C271.099 378.646 268.973 374.364 268.963 374.333C268.942 374.272 268.912 374.201 268.912 374.17C268.922 374.088 268.922 372.535 269.044 371.717C269.116 371.196 268.595 368.334 268.247 366.658C268.247 366.607 268.247 366.505 268.268 366.474C269.862 361.068 270.721 358.84 271.344 357.205C271.804 356.03 272.131 355.161 272.54 353.608C273.091 351.451 273.817 350.307 274.645 348.989C275.115 348.253 275.585 347.496 276.117 346.464C277.527 343.603 277.578 340.2 276.188 339.341C275.575 338.953 274.297 338.759 272.795 338.759C271.058 338.759 269.392 339.014 268.881 339.423C267.941 340.169 267.808 340.7 268.166 342.162C268.309 342.775 268.523 343.173 268.687 343.49C268.963 344.012 269.198 344.441 268.901 345.115C268.738 345.432 268.503 345.504 268.39 345.504C267.9 345.504 267.532 344.829 266.827 343.49C266.51 342.877 266.152 342.233 265.876 341.824C265.631 341.467 265.386 340.894 265.018 340.056C264.016 337.706 262.33 333.812 259.029 331.922C257.752 331.206 257.312 330.869 257.333 330.44C257.353 330.031 257.793 329.878 258.334 329.663C258.579 329.571 259.009 329.408 259.509 329.224C261.104 328.661 262.402 327.169 261.186 327.404C259.448 327.711 257.496 328.048 255.534 328.048C253.97 328.048 252.662 327.813 251.548 327.364C250.547 326.934 250.056 326.679 250.118 326.219C250.189 325.667 250.976 325.575 253.286 325.289C256.536 324.88 261.145 324.676 266.173 322.008C266.796 325.831 269.351 329.459 272.489 329.888C272.376 328.498 272.305 323.838 273.316 323.133C273.398 323.041 273.551 323.03 273.654 323.082C273.705 323.102 273.746 323.133 273.797 323.143C274.052 323.306 274.43 323.572 274.941 323.971C276.239 324.941 278.344 326.536 281.083 327.752C280.133 325.585 278.825 320.843 281.707 317.706C281.748 317.624 281.87 317.563 281.983 317.604C282.075 317.604 282.167 317.624 282.259 317.726C282.575 318.125 282.902 318.707 283.281 319.402C284.456 321.549 286.04 324.41 289.678 324.625C288.125 322.601 287.072 320.016 289.3 316.377C289.372 316.285 289.504 316.204 289.617 316.204C289.75 316.255 289.872 316.296 289.923 316.428C290.066 316.766 292.611 319.331 294.676 319.862C295.565 318.064 296.3 315.498 296.26 312.77C291.579 308.181 287.266 303.061 283.751 297.41" fill="#FFEF00"/>
<path d="M237.026 379.77C236.811 380.68 236.198 382.928 236.157 383.94L236.116 384.124C235.932 385.248 235.493 386.188 234.512 386.29C232.509 386.546 231.916 384.338 231.916 384.338V384.277C232.253 384.073 232.652 383.909 233.091 383.756C234.849 383.286 235.932 381.272 235.759 379.913C235.626 378.963 235.064 378.636 234.164 378.615C234.083 378.615 234.757 377.338 235.871 376.418C237.097 375.417 239.07 374.803 239.581 375.263C239.867 375.539 237.639 377.113 237.016 379.75" fill="#FFEF00"/>
<path d="M246.121 338.769C247.225 338.135 249.361 336.592 250.444 335.641C251.456 334.752 253.715 332.31 251.957 336.081C251.405 337.307 253.306 338.053 254.267 338.677C255.37 339.382 256.372 340.199 257.404 340.976C258.027 341.436 260.409 342.407 260.49 343.132C259.826 343.459 258.017 342.703 257.2 342.57C255.769 342.346 253.868 341.354 252.58 340.71C250.301 339.504 245.11 339.341 246.121 338.779" fill="black"/>
<path d="M266.705 351.553C267.87 350.879 271.324 349.101 269.628 355.232C269.158 356.878 268.892 361.998 265.795 362.744C267.175 360.516 268.166 356.847 267.482 353.464C266.715 353.444 266.092 353.669 265.376 353.71C265.366 353.71 265.54 352.218 266.705 351.553Z" fill="black"/>
<path d="M233.459 380.097C233.367 379.729 233.071 379.647 232.683 379.698C232.355 379.78 230.506 381.528 231.088 382.631C231.374 383.153 233.613 380.577 233.459 380.097Z" fill="white"/>
<path d="M238.273 383.122C238.027 382.979 237.935 381.405 238.804 380.261C239.141 379.79 239.938 379.862 240.296 380.158C240.47 380.332 240.664 380.925 240.398 381.415C240.194 381.804 239.07 383.541 238.262 383.122" fill="white"/>
<path d="M248.268 383.286C247.828 383.122 247.624 381.498 248.278 380.619C248.727 380.016 249.146 379.842 249.954 380.097C250.444 380.251 250.506 381.119 250.046 381.641C249.412 382.356 248.799 383.47 248.268 383.276" fill="white"/>
<path d="M257.2 385.38C256.71 385.053 256.689 384.604 256.822 383.643C256.914 382.928 257.456 382.212 258.519 382.079C259.101 382.018 259.673 382.458 259.653 382.928C259.612 383.51 257.517 385.605 257.2 385.38Z" fill="white"/>
<path d="M323.73 384.093C324.415 383.142 325.181 382.314 325.529 381.773C326.122 380.781 326.377 378.625 323.822 378.012C322.841 377.777 321.686 379.013 320.848 380.567C320.756 380.097 320.767 379.504 320.889 379.013C321.727 375.702 328.37 371.86 329.801 372.871C330.138 373.117 326.796 375.835 326.52 379.443C326.306 382.049 327.42 383.49 327.42 383.49C327.42 383.49 325.263 384.614 323.73 384.103" fill="#FFEF00"/>
<path d="M323.648 380.843C323.403 381.129 322.667 382.509 322.35 382.212C321.41 381.323 322.729 379.443 323.219 379.545C324.078 379.76 323.894 380.557 323.648 380.843Z" fill="white"/>
<path d="M330.465 378.318C328.206 377.981 328.38 381.619 328.871 381.538C329.351 381.456 330.179 380.597 330.69 379.954C331.15 379.289 331.354 378.441 330.465 378.318Z" fill="white"/>
<path d="M338.662 379.238C338.825 378.543 338.703 377.951 338.079 377.808C336.066 377.297 336.025 381.262 336.454 381.487C336.904 381.701 338.427 380.025 338.662 379.238Z" fill="white"/>
<path d="M346.714 379.147C346.949 378.554 346.51 377.828 345.651 377.777C343.832 377.716 343.945 381.313 345.048 381.691C345.478 381.855 346.357 379.985 346.714 379.147Z" fill="white"/>
<path d="M131.753 232.872C130.997 234.405 130.803 238.073 129.822 237.174C128.912 236.326 128.043 234.578 128.074 232.626C128.146 228.406 133.01 230.184 131.753 232.872Z" fill="white"/>
<path d="M145.835 235.099C147.378 232.534 143.822 231.666 142.79 233.556C141.89 235.151 142.493 237.808 143.413 238.554C144.721 239.647 144.721 236.949 145.825 235.099" fill="white"/>
<path d="M159.468 233.996C159.755 233.546 159.642 231.563 157.189 232.534C154.553 233.597 155.984 237.583 156.985 238.288C158.119 239.085 157.721 236.755 159.458 233.996" fill="white"/>
<path d="M131.211 171.359C131.6 169.734 133.276 166.811 136.301 165.994C136.301 165.994 138.682 170.47 140 171.318C140.767 171.809 140.849 174.609 139.908 176.673C138.886 175.222 137.987 173.434 137.537 172.003C137.006 170.388 132.172 170.756 133.49 175.467C134.001 177.256 135.095 178.319 136.352 178.911C136.25 178.86 136.117 178.85 135.984 178.83C131.457 177.583 130.833 173.004 131.201 171.359" fill="#FFEF00"/>
<path d="M129.934 186.678C127.86 182.366 133.46 181.558 133.787 182.979C134.349 185.299 135.33 186.862 136.567 188.048C138.049 186.147 136.127 181.906 136.086 180.526C133.981 179.831 130.915 176.663 130.915 176.663C126.153 177 126.848 185.401 128.636 187.363C129.832 188.671 131.15 189.356 132.796 189.336C131.161 188.753 130.343 187.547 129.934 186.678Z" fill="#FFEF00"/>
<path d="M134.737 195.345C135.095 194.037 137.568 193.045 138.764 194.497C139.275 195.14 140.041 196.162 140.961 197.041C142.862 194.108 139.356 190.695 137.599 189.806C136.28 191.012 132.846 191.328 130.741 190.654C130.976 191.778 131.671 195.14 133.531 197.338C134.093 198.043 134.982 198.595 135.943 198.319C134.972 197.317 134.553 196.091 134.727 195.345" fill="#FFEF00"/>
<path d="M137.936 196.091C138.375 196.643 139.336 197.706 139.213 198.35C138.968 199.729 135.933 197.461 136.188 196.643C136.331 196.009 137.394 195.406 137.946 196.091" fill="white"/>
<path d="M131.17 187.455C131.732 188.099 133.306 189.06 133.704 188.191C134.113 187.292 133.173 186.944 132.366 185.513C131.742 184.43 130.168 186.249 131.17 187.455Z" fill="white"/>
<path d="M136.597 174.998C136.27 174.252 133.602 174.415 134.961 176.378C136.372 178.37 137.721 178.483 137.792 177.594C137.854 177.144 137.189 176.347 136.597 174.998Z" fill="white"/>
<path d="M141.891 167.946C141.268 168.089 141.82 170.654 143.516 171.277C144.303 171.533 143.516 170.307 143.618 169.53C143.802 168.487 143.618 167.609 141.881 167.936" fill="white"/>
<path d="M157.65 167.047C157.793 166.464 156.321 164.768 155.953 166.137C155.391 168.202 156.669 169.5 157.241 169.5C157.813 169.5 157.558 168.151 157.65 167.047Z" fill="white"/>
<path d="M226.653 136.541L227.624 139.412C227.624 139.412 229.627 140.945 229.842 141.047C230.026 141.15 231.457 140.077 231.457 140.077L230.067 137.399L226.664 136.53L226.653 136.541Z" fill="black"/>
<path d="M107.358 108.16C106.121 99.2692 109.443 89.8057 115.554 84.9616C120.786 80.7817 130.301 79.5349 134.89 85.2784C126.99 82.5804 111.527 92.238 122.064 106.75C120.807 112.974 121.962 121.037 124.762 125.728C118.416 124.808 108.707 117.89 107.358 108.16Z" fill="#FFEF00"/>
<path d="M137.221 150.705C125.244 149.193 127.461 139.658 128.718 139.443C128.718 139.443 129.311 143.378 134.646 143.143C138.376 142.979 139.091 140.148 139.561 138.625C142.883 143.827 145.775 145.36 150.282 147.619C148.821 149.08 145.428 151.717 137.221 150.695" fill="#FFEF00"/>
<path d="M167.471 93.1886C164.957 83.1221 153.644 81.3746 151.906 87.3633C151.906 87.3633 155.974 85.8713 157.956 87.9254C161.247 91.349 160.409 96.5815 156.127 102.202C162.106 98.1554 165.141 95.3654 167.471 93.1886Z" fill="#FFEF00"/>
<path d="M125.101 108.16C128.964 94.0878 140.89 94.9463 142.505 97.2764C139.602 97.2151 136.138 97.0005 133.91 101.957C130.17 110.409 136.833 116.418 139.674 117.246C136.761 122.284 136.496 129.458 138.611 135.059C126.378 131.615 122.873 116.162 125.101 108.16Z" fill="#FFEF00"/>
<path d="M183.771 75.1202C181.319 60.4549 170.976 60.2505 167.859 60.2505C163.087 60.2505 158.661 62.4273 156.791 65.4625C158.263 64.88 160.092 64.4712 162.105 64.4712C165.795 64.4712 174.451 66.0246 174.849 80.4651C175.156 91.3389 166.04 97.6751 157.251 103.735C146.5 111.175 137.353 119.024 140.9 132.524C144.252 145.268 157.956 148.528 165.693 147.731C151.048 132.759 165.917 113.536 175.831 112.79C183.567 98.4109 185.509 85.6056 183.771 75.11" fill="#FFEF00"/>
<path d="M218.15 123.909C218.15 123.909 219.326 127.006 221.983 127.568C221.523 126.362 222.065 123.01 222.065 123.01C222.065 123.01 221.063 123.919 218.15 123.919" fill="white"/>
<path d="M225.836 138.86C225.836 138.86 225.294 141.773 226.316 143.919C227.359 142.202 228.544 141.906 228.544 141.906C228.544 141.906 226.899 140.71 225.836 138.86Z" fill="white"/>
<path d="M250.424 123.081C252.468 123.837 254.175 124.226 255.636 124.226C257.742 124.226 259.06 123.408 260.46 122.56C261.676 121.814 262.933 121.078 264.752 120.781C264.977 120.117 265.202 119.473 265.386 118.87C266.122 116.581 266.766 114.547 267.992 112.452C266.96 112.698 266.02 111.287 265.907 110.776C265.325 108.62 267.972 110.879 267.767 106.729C267.696 104.645 271.078 105.196 271.048 103.898C271.048 103.868 271.048 103.694 270.772 103.336C270.169 102.58 269.402 102.243 268.442 102.243C266.347 102.243 263.976 103.98 263.69 104.266C263.547 104.501 263.26 104.563 263.025 104.42C262.77 104.277 262.698 103.97 262.8 103.715C264.569 100.046 261.002 95.4161 257.803 93.5459C246.888 93.781 238.171 98.8908 234.379 102.09C236.015 102.427 237.823 102.938 238.621 103.183C239.07 102.498 240.205 101.272 242.944 101.057C245.182 100.904 247.001 101.395 248.881 101.926C249.985 102.243 251.119 102.549 252.387 102.764C252.571 102.785 252.744 102.917 252.816 103.122C252.877 103.296 252.826 103.5 252.693 103.643L252.632 103.725C251.16 105.36 250.026 106.586 248.462 107.077C246.633 107.69 245.795 106.453 244.333 106.556C244.037 106.586 246.193 108.017 245.866 108.988C245.826 109.131 245.703 109.264 245.539 109.305C245.366 109.366 245.212 109.335 245.059 109.243C240.613 106.167 235.923 104.614 231.14 104.614C226.357 104.614 223.097 106.075 221.625 106.74C221.942 107.107 223.536 108.14 223.363 109.744C223.23 110.848 220.225 107.455 215.606 108.692C215.432 111.747 214.073 113.536 213.368 114.251C213.122 114.486 210.966 113.433 210.302 113.045C210.455 113.566 211.385 114.966 212.1 115.273C212.244 115.345 212.325 115.498 212.325 115.651C212.601 117.654 214.563 121.568 218.161 121.855C221.4 122.11 223.24 120.168 224.855 118.482C225.458 117.808 227.634 114.476 228.452 114.997C228.769 115.212 228.534 117.358 227.246 118.247C229.566 117.991 231.692 117.869 233.562 117.869C242.341 117.869 244.906 120.608 246.367 123.561C246.439 123.715 246.428 123.939 246.326 124.093C246.193 124.256 245.989 124.338 245.795 124.307C245.59 124.277 245.396 124.236 245.202 124.205C244.834 124.144 244.497 124.082 244.19 124.052C244.313 128.456 241.053 136.203 237.261 140.465C235.279 142.641 233.245 143.827 231.405 143.827C230.864 143.827 230.332 143.694 229.811 143.51C229.76 143.51 229.729 143.5 229.668 143.5C229.505 143.5 229.3 143.623 229.086 143.837C228.554 144.358 228.217 145.237 228.217 145.431C228.738 148.548 232.335 150.684 233.868 151.43C234.001 150.46 234.4 148.681 235.698 146.883C237.098 144.951 239.213 144.471 240.45 144.369C240.154 138.4 241.83 137.389 242.167 137.225C242.33 137.174 242.484 137.174 242.627 137.245C242.637 137.256 243.822 137.848 245.253 137.848C247.777 137.848 249.535 136.101 250.476 132.616C251.549 128.548 251.038 127.312 250.404 125.779C250.179 125.186 249.913 124.553 249.709 123.704C249.648 123.52 249.709 123.306 249.873 123.183C250.036 123.05 250.24 122.979 250.414 123.081" fill="#FFEF00"/>
<path d="M230.659 239.627C230.803 239.555 230.966 239.535 231.119 239.535C231.344 239.535 231.549 239.596 231.712 239.719C232.039 239.923 232.203 240.281 232.182 240.649C231.906 244.542 233.889 248.876 235.361 251.216C235.514 249.754 235.258 247.905 234.921 245.738C234.696 244.215 234.451 242.509 234.328 240.659C233.93 235.406 234.911 231.144 235.708 227.71C236.444 224.461 236.985 222.1 235.923 220.71H235.8C234.216 220.71 229.413 224.389 227.297 230.47C225.294 236.223 225.979 241.691 226.817 245.145C227.481 242.989 228.636 240.659 230.649 239.627" fill="#FFEF00"/>
<path d="M239.795 208.293C239.949 207.169 239.755 206.137 239.233 205.197C235.902 209.315 232.039 211.85 228.85 213.924C226.622 215.396 224.68 216.663 223.904 217.931C221.216 222.305 221.073 225.718 220.899 229.663C220.715 233.976 220.49 238.82 216.576 245.401C218.027 245.217 220.204 244.461 222.483 241.845C221.972 238.206 221.114 225.074 233.459 216.888C235.769 215.355 239.356 211.819 239.816 208.304" fill="#FFEF00"/>
<path d="M233.766 199.964C231.078 201.477 227.685 202.243 225.979 202.55C226.122 204.226 225.897 207.384 222.811 210.736C222.954 210.767 223.066 210.767 223.219 210.767C226.183 210.767 231.007 208.099 233.071 204.533C233.981 202.918 234.206 201.375 233.766 199.975" fill="#FFEF00"/>
<path d="M249.719 171.472C250.311 170.807 251.303 169.765 251.415 169.336C251.282 169.234 250.822 169.009 249.586 168.866C249.422 168.855 249.249 168.855 249.054 168.855C243.403 168.855 233.827 176.03 232.55 181.221C232.039 183.327 233.306 184.246 235.452 185.554C236.944 186.474 238.518 187.414 238.385 189.213C238.365 189.54 238.16 189.837 237.864 190.031C237.7 190.133 237.506 190.174 237.332 190.174C237.179 190.174 237.026 190.153 236.893 190.112C234.614 189.131 232.509 188.661 230.209 188.661C226.878 188.661 223.198 189.632 218.671 191.104C213.449 192.811 210.628 198.564 209.392 202.039C214.409 199.024 219.019 198.605 223.515 198.196C229.177 197.716 234.542 197.225 240.541 191.38C240.94 187.077 246.438 175.784 248.063 173.413C248.513 172.749 249.126 172.105 249.708 171.472" fill="#FFEF00"/>
<path d="M218.437 186.423C218.508 186.413 218.529 186.393 218.57 186.27C218.672 185.82 218.365 184.911 217.956 184.052C216.556 185.411 213.869 187.558 211.089 187.558C210.292 187.558 209.546 187.394 208.871 187.067C209.147 189.111 209.617 191.278 210.2 192.514C212.887 189.918 215.667 187.895 218.437 186.433" fill="#FFEF00"/>
<path d="M219.019 170.756C218.938 170.603 218.631 170.173 217.701 170.173C216.372 170.173 214.809 170.95 213.838 171.655C215.197 172.279 217.067 173.413 217.762 175.161C217.844 175.314 217.926 175.539 218.038 175.764C219.05 178.38 221.462 184.44 227.185 184.44H227.277C227.185 182.744 227.226 180.475 228.442 178.594C225.345 177.664 221.85 174.772 219.019 170.756Z" fill="#FFEF00"/>
<path d="M285.804 138.258C284.977 138.329 284.19 138.38 283.454 138.38C275.206 138.38 271.916 133.925 269.269 130.327C268.277 128.958 267.337 127.701 266.264 126.853C265.661 126.362 265.007 126.147 264.159 126.147C263.178 126.147 262.084 126.434 260.919 126.73C259.509 127.118 257.874 127.507 256.147 127.507C255.523 127.507 254.9 127.486 254.307 127.364C254.695 129.837 254.593 133.557 253.408 136.48C251.967 139.995 249.187 142.264 246.315 142.264C245.579 142.264 244.854 142.121 244.169 141.835C244.21 142.622 244.292 143.48 244.384 144.379C244.752 147.967 245.171 152.361 243.352 156.807C240.868 162.806 236.259 166.393 231.067 166.393C230.281 166.393 229.453 166.321 228.625 166.147C224.547 165.33 222.279 163.398 221.021 161.559C221.154 167.711 225.968 172.238 230.536 175.171C231.374 174.804 232.355 173.945 233.52 172.913C236.688 170.082 241.492 165.841 251.66 163.695C252.171 163.603 252.6 163.184 252.958 162.519C254.328 160.005 254.103 154.701 253.009 151.983C252.386 150.44 253.03 147.772 253.163 147.272C253.254 146.802 253.714 146.485 254.174 146.485C254.665 146.485 255.084 146.802 255.217 147.272C255.493 148.314 256.147 149.448 256.852 150.665C258.926 154.262 261.778 159.198 256.995 166.311C250.587 175.846 244.016 187.118 244.016 198.432C244.016 204.574 245.631 209.592 246.908 213.608C248.186 217.512 249.156 220.608 248.441 223.449C248.349 223.838 248.063 224.134 247.675 224.226C247.603 224.236 247.501 224.236 247.429 224.236C247.133 224.236 246.847 224.134 246.653 223.92C246.05 223.276 244.885 222.479 243.648 222.479C241.44 222.479 239.938 225.044 239.397 229.714C238.385 238.554 237.475 246.331 243.607 258.595C244.353 255.018 245.661 252.065 246.826 249.356C247.767 247.231 248.564 245.381 248.921 243.685C250.403 236.469 250.158 230.941 249.974 226.045C249.667 218.881 249.432 212.729 254.328 203.93C254.471 199.76 255.278 196.766 256.004 194.109C256.555 192.106 257.066 190.215 257.22 188.089C257.302 186.883 257.22 185.606 257.118 184.104C256.76 179.259 256.32 172.606 261.604 163.071C265.15 156.694 264.701 149.561 263.709 144.737C262.503 138.738 260.04 134.272 258.722 132.995C258.415 132.719 258.313 132.3 258.436 131.901C258.538 131.523 258.896 131.216 259.305 131.186C259.489 131.165 259.683 131.165 259.846 131.165C263.536 131.165 265.907 135.488 267.756 139.74C268.696 141.916 272.355 146.73 276.974 146.73C277.281 146.73 277.588 146.71 277.874 146.669C283.403 145.912 285.14 141.825 285.835 138.278" fill="#FFEF00"/>
<path d="M272.887 119.065C273.602 119.515 274.481 119.729 275.575 119.729C278.293 119.729 281.972 118.298 285.876 116.837C290.812 114.926 296.413 112.78 301.748 112.78H301.952C308.932 112.872 311.783 113.843 312.938 114.711C312.979 114.027 312.795 113.025 311.947 111.717C309.29 107.588 301.666 100.424 290.005 99.7905C288.319 99.719 286.878 99.6679 285.631 99.6679C282.095 99.6679 280.787 100.026 279.417 100.414C279.203 100.485 279.019 100.516 278.804 100.577C278.641 100.608 278.436 100.577 278.314 100.455C278.181 100.322 278.109 100.158 278.15 99.9744C278.436 98.2167 279.469 96.0296 284.813 93.1068C286.367 92.2381 287.89 91.5943 289.341 90.9811C292.713 89.5401 295.657 88.2933 297.701 84.9923C294.318 85.9734 291.354 86.4537 288.666 86.4537C285.222 86.4537 282.698 85.6873 280.235 84.9412C278.017 84.2667 275.943 83.6229 273.255 83.5105C265.805 83.2141 261.277 87.905 258.968 90.511C264.047 92.4834 265.273 97.9918 265.57 100.169C267.041 99.3306 268.768 98.8809 270.393 98.8809C272.989 98.8809 274.757 100.087 274.839 101.906C275.064 106.331 272.907 108.344 271.855 109.07C272.1 110.511 271.753 111.911 271.385 113.25C270.802 115.57 270.312 117.409 272.897 119.034" fill="#FFEF00"/>
<path d="M310.629 104.921C314.778 109.55 317.671 111.983 319.837 112.575C318.795 111.318 317.517 109.489 315.892 107.067C311.845 101.201 306.316 93.0865 301.503 92.1667C300.593 91.9827 299.684 91.9316 298.825 91.9316C294.451 91.9316 292.091 94.0778 291.253 94.9976C290.639 95.6721 290.282 96.3466 290.118 96.8882C299.173 96.9598 305.867 99.5862 310.629 104.931" fill="#FFEF00"/>
<path d="M302.412 127.383C310.557 129.1 315.718 137.501 317.292 143.285C318.835 138.809 319.663 131.635 318.457 127.802C317.2 123.827 312.233 116.275 302.35 116.275C301.911 116.275 301.441 116.305 300.991 116.326C296.597 116.622 292.458 118.451 288.451 120.189C284.169 122.049 280.163 123.807 275.932 123.807C275.002 123.807 274.093 123.704 273.214 123.551C273.776 126.78 275.922 134.374 283.842 134.854C284.016 134.864 284.2 134.864 284.364 134.864C287.389 134.864 289.29 133.127 291.282 131.308C293.388 129.335 295.81 127.128 299.785 127.128C300.633 127.118 301.522 127.2 302.412 127.383Z" fill="#FFEF00"/>
<path d="M315.023 165.503C312.182 161.579 312.856 155.876 313.786 150.358C315.319 141.283 308.554 133.158 301.298 131.247C300.654 131.073 300.041 131.001 299.438 131.001C296.341 131.001 294.614 133.24 294.062 135.14C293.572 136.827 293.756 139.208 295.81 140.496C307.563 147.731 308.074 153.986 308.574 159.995C308.85 163.286 309.106 166.392 311.364 169.612C313.132 172.136 315.105 173.454 317.047 173.454C318.988 173.454 320.286 172.35 320.951 171.656C321.594 170.971 322.013 170.286 322.208 169.714C318.968 169.029 316.536 167.629 315.013 165.513" fill="#FFEF00"/>
<path d="M308.983 186.26C306.173 197.522 315.33 204.318 317.936 205.534C319.009 206.045 320.072 206.28 321.063 206.28C323.005 206.28 324.364 205.268 325.151 204.44C325.846 203.674 326.326 202.846 326.592 202.121C326.06 202.213 325.529 202.284 325.059 202.284C323.301 202.284 321.768 201.61 320.664 200.342C318.058 197.358 318.191 191.891 318.753 187.813C319.111 185.227 318.794 183.275 317.803 182.161C317.026 181.262 315.984 181.088 315.278 181.088C312.867 181.078 309.801 183.04 308.993 186.26" fill="#FFEF00"/>
<path d="M311.568 205.697C307.48 201.313 302.36 195.886 306.039 180.639C307.072 176.346 306.489 174.987 306.193 174.619C306.091 174.476 305.896 174.333 305.518 174.333C303.566 174.333 300.092 177.389 299.018 179.586C296.3 185.125 292.887 195.682 300.613 204.001C302.606 206.198 303.934 208.099 305.099 209.816C306.571 211.952 307.634 213.495 309.32 214.415C310.628 215.099 311.732 215.151 312.897 215.161C314.001 215.181 315.207 215.222 316.433 215.917C316.637 214.68 316.515 212.412 314.481 209.213C313.704 207.997 312.662 206.862 311.568 205.708" fill="#FFEF00"/>
<path d="M301.687 211.778C300.981 211.032 300.327 210.603 299.786 210.603C298.651 210.603 297.783 212.36 297.466 213.444C299.295 214.486 302.054 217.194 304.006 219.657C304.098 217.358 303.761 214.057 301.687 211.778Z" fill="#FFEF00"/>
<path d="M277.169 197.082C276.853 200.547 276.525 204.154 275.095 206.76C279.755 209.693 282.79 214.231 285.488 218.298C288.493 222.815 291.119 226.75 295.105 227.384C292.254 223.173 292.724 218.4 293.194 213.413C293.296 212.289 293.408 211.175 293.49 210.03C293.848 204.624 291.252 190.756 286.796 186.004C285.805 184.931 284.752 184.389 283.741 184.389C283.301 184.389 282.841 184.481 282.381 184.696C278.14 186.433 277.67 191.594 277.159 197.072" fill="#FFEF00"/>
<path d="M273.48 210.817C271.589 217.266 272.008 222.263 273.429 228.334C275.882 228.722 280.777 231.155 283.434 234.507C284.303 225.156 280.91 218.758 278.661 215.631C276.689 212.912 274.727 211.4 273.47 210.807" fill="#FFEF00"/>
<path d="M271.19 239.167C267.276 230.787 264.997 216.643 270.822 205.462C273.52 200.271 275.227 186.576 271.762 176.847C270.147 172.32 267.613 169.213 264.281 167.639C262.667 169.438 259.233 181.64 261.154 188.978C261.236 189.295 261.318 189.295 261.461 189.295C262.442 189.295 264.404 187.925 265.477 186.924C265.692 186.76 265.947 186.668 266.192 186.668C266.284 186.668 266.366 186.689 266.468 186.699C266.826 186.791 267.082 187.067 267.214 187.384C267.838 189.315 266.366 190.848 264.608 192.616C261.941 195.304 257.925 199.382 257.822 207.792C257.69 218.768 261.829 232.545 271.19 239.157" fill="#FFEF00"/>
<path d="M255.411 221.957C255.34 221.651 255.248 221.487 255.186 221.426C255.115 221.477 254.951 221.569 254.788 221.865C254.103 222.949 253.745 225.473 254.706 229.326C256.995 238.237 260.633 242.376 264.353 245.228C264.66 243.276 264.405 239.137 262.156 236.336C258.14 231.421 256.699 227.476 255.411 221.957Z" fill="#FFEF00"/>
<path d="M257.088 245.35C256.781 243.224 254.41 239.954 253.48 239.678C253.123 240.291 253.071 242.499 253.031 243.725C252.99 244.819 252.969 245.882 252.826 246.72C254.901 248.59 255.412 250.644 255.872 253.148C257.415 250.205 257.323 247.139 257.088 245.36" fill="#FFEF00"/>
<path d="M270.711 152.289C268.258 157.951 271.559 163.981 276.863 172.545C278.641 175.417 281.452 177.062 284.385 178.83C286.745 180.24 289.362 181.814 291.733 184.185C292.131 182.744 292.704 181.467 293.245 180.179C295.402 175.12 297.425 170.348 289.259 158.196C287.43 155.478 279.05 150.613 274.001 150.613C271.446 150.613 270.884 151.87 270.711 152.3" fill="#FFEF00"/>
<path d="M303.23 156.51C301.022 148.917 294.022 144.042 291.733 143.449C291.549 143.398 291.365 143.388 291.211 143.388C288.922 143.388 287.818 148.242 287.532 150.562C299.05 160.24 299.673 168.273 298.927 173.853C303.414 168.079 304.885 162.243 303.22 156.5" fill="#FFEF00"/>
<path d="M226.653 136.541L227.624 139.412C227.624 139.412 229.627 140.945 229.842 141.047C230.026 141.15 231.457 140.077 231.457 140.077L230.067 137.399L226.664 136.53L226.653 136.541Z" fill="black"/>
<path d="M359.979 324.318C359.468 323.572 358.681 323.214 357.628 323.214C356.985 323.214 356.504 323.357 356.504 323.357C356.433 323.377 356.351 323.408 356.29 323.408C353.939 323.408 348.155 320.628 348.635 318.707C348.942 317.511 350.771 315.733 352.846 314.762C351.599 313.597 349.626 313.791 347.674 315.038C347.051 315.447 346.09 315.723 346.356 314.445C346.601 313.311 348.073 311.328 351.374 309.673C349.299 308.385 345.917 308.324 342.973 310.204C342.84 310.276 342.677 310.153 342.534 310.051C342.278 309.847 342.176 309.499 342.329 309.193C343.27 307.271 348.328 305.513 348.236 302.202C344.189 303.061 340.96 302.601 339.049 301.609C338.845 301.487 338.722 301.293 338.681 301.047C338.64 300.812 338.722 300.526 338.937 300.444C342.217 299.31 343.454 296.152 343.873 294.599C341.481 295.335 338.17 295.897 336.034 293.71C335.901 293.556 335.789 293.403 335.789 293.219C335.472 290.051 327.889 267.108 306.305 264.583C306.019 264.563 305.722 264.512 305.436 264.512C304.128 264.512 303.198 264.921 301.982 265.432C301.737 265.524 301.44 265.656 301.185 265.769C301.093 265.82 300.98 265.82 300.909 265.82C300.756 265.82 300.623 265.769 300.51 265.687C300.326 265.564 300.214 265.35 300.214 265.094C300.214 263.398 301.41 262.018 302.197 261.098C302.299 260.996 302.421 260.853 302.524 260.731C302.135 260.148 301.594 259.29 300.97 258.217C299.918 256.469 297.526 252.412 296.545 251.921C296.106 252.688 295.288 253.72 294.317 255.018C292.181 257.767 289.299 261.579 287.838 265.217C287.746 265.503 287.47 265.687 287.194 265.687H287.143C286.847 265.656 286.591 265.432 286.509 265.145C286.468 265.002 286.417 264.808 286.325 264.553C285.784 262.805 284.608 259.238 286.928 257.409C289.248 255.57 292.478 252.483 293.765 246.535C294.511 243.02 295.564 235.927 295.687 231.87C293.081 231.625 291.047 230.48 288.236 228.498C288.512 233.393 287.214 239.76 284.547 242.56L283.024 244.195L282.227 242.141C282.125 241.885 282.002 241.609 281.91 241.354C280.224 237.031 278.364 233.107 274.225 232.698C274.297 233.025 274.358 233.372 274.44 233.679C275.206 237.307 275.932 240.741 278.446 242.58L280.163 243.858L278.323 244.951C277.25 245.595 275.952 245.922 274.624 245.922C272.631 245.922 270.638 245.217 268.942 243.97C268.87 247.292 268.093 250.337 266.489 253.556L264.516 257.46L263.811 253.137C263.249 249.581 262.319 248.763 261.154 247.895C261.021 252.912 258.845 257.695 255.288 260.036L253.367 261.262L253.121 259.003C252.754 255.754 252.232 253.802 251.292 252.095C250.842 253.311 250.26 254.261 249.667 255.232C249.187 256.05 248.666 256.857 248.277 257.91C250.035 260.281 252.018 262.744 253.571 264.226C253.571 263.613 253.735 263.142 254.031 262.754C254.358 262.325 254.849 262.09 255.421 262.09C255.595 262.09 255.717 262.09 255.738 262.11C255.952 262.131 256.126 262.294 256.228 262.478C256.249 262.529 258.354 266.678 260.122 270.623C261.747 274.251 273.796 288.436 279.846 291.032C281.001 290.572 281.41 289.816 280.756 286.3C280.531 285.074 280.837 283.97 281.645 282.999C282.237 282.284 283.229 281.609 283.668 281.609C284.343 281.609 284.404 282.1 284.465 283.122C284.976 290.572 286.264 295.651 288.349 298.227C305.508 319.79 334.706 337.092 345.998 338.227C346.223 338.247 346.407 338.37 346.53 338.544C346.632 338.717 346.673 338.973 346.601 339.167C346.417 339.647 346.305 340.475 345.825 341.313C342.881 346.167 339.529 353.689 339.785 355.181C340.04 356.878 339.069 359.698 337.649 361.293C336.525 362.529 333.408 368.365 333.755 370.347C335.82 369.877 336.719 370.48 335.768 370.981C335.36 371.226 330.546 373.526 330.015 376.265C330.383 376.101 330.71 376.019 331.037 376.019C332.232 376.019 333.234 376.694 333.724 377.787C333.765 377.93 333.796 378.063 333.857 378.237C334.603 374.619 339.253 369.816 341.696 371.574C339.907 372.156 338.211 374.088 337.332 375.815C337.782 375.631 338.282 375.529 338.814 375.529C338.916 375.529 339.028 375.529 339.11 375.559C339.877 375.61 340.521 375.917 340.98 376.459C341.604 377.195 341.87 378.298 341.747 379.617C341.614 380.853 340.664 381.896 339.652 382.989C339.631 383.02 339.591 383.071 339.55 383.132C340.439 382.877 342.135 382.591 342.748 382.223C342.503 380.24 341.767 375.396 343.954 372.136C345.16 370.296 346.979 369.295 348.564 370.695C347.204 371.921 345.048 373.229 344.925 376.07C345.303 375.886 345.722 375.764 346.203 375.754H346.458C347.593 375.754 348.615 376.224 349.238 377.041C349.8 377.828 349.984 378.758 349.729 379.678C349.453 380.608 348.87 381.395 348.247 382.284C350.321 382.1 352.978 381.088 354.542 379.341C356.974 376.653 357.168 373.934 356.31 372.412C356.218 372.248 356.198 372.085 356.239 371.88C356.841 369.376 357.863 361.558 356.77 354.732C356.566 353.434 356.279 352.892 356.034 352.453C355.564 351.553 355.37 351.001 355.891 348.794C356.106 347.884 356.484 346.699 356.913 345.319C358.068 341.681 359.631 336.704 359.151 333.73C358.855 331.982 359.458 330.511 359.989 329.203C360.633 327.465 361.185 326.086 359.969 324.348" fill="#FFEF00"/>
<path d="M213.184 233.72C213.184 233.72 214.155 234.977 215.279 236.173C215.667 234.119 215.861 232.024 216.045 229.959C216.291 227.292 216.495 224.768 217.18 222.499C218.202 218.994 219.316 216.755 220.246 215.335C218.713 214.967 216.894 214.201 215.698 212.657L214.942 211.686L215.81 210.787C216.127 210.481 216.505 210.164 216.894 209.806C218.672 208.212 220.123 206.781 220.348 204.952L216.332 205.115L210.711 206.485C209.627 207.476 208.626 208.784 207.747 210.511L206.418 213.168L205.213 210.491C204.834 209.643 204.61 208.743 204.446 207.834C197.486 208.651 174.349 213.986 171.263 215.141C168.912 216.03 160.89 216.439 157.64 217.031C155.892 217.338 153.777 216.183 152.203 216.214C150.68 216.244 145.141 218.932 143.005 218.718C135.453 217.88 123.22 226.505 126.95 232.361C126.929 232.351 126.929 232.31 126.929 232.289C126.705 229.734 128.779 227.343 131.743 227.159C134.329 227.016 134.88 230.46 134.676 231.39C134.472 232.545 133.93 233.833 133.531 235.141C136.689 234.252 138.59 232.698 138.57 232.197C138.508 230.062 138.805 225.136 142.515 223.449C142.586 223.429 145.601 222.836 143.353 224.247C141.104 225.647 140.358 230.797 141.288 233.69C141.472 233.168 141.697 232.627 142.024 232.095C143.414 229.571 146.316 228.61 147.849 230.123C149.26 231.533 150.026 233.935 149.433 234.957C149.076 235.59 148.605 236.193 148.125 236.878C151.089 236.275 152.632 235.294 152.52 233.454C152.417 231.206 152.969 225.268 156.117 223.868C158.018 223.02 157.67 223.654 156.791 224.574C154.645 226.832 154.124 229.387 155.177 233.802C155.381 232.126 156.148 230.746 157.895 230.062C162.974 228.191 163.22 233.24 163.117 234.19C162.974 235.601 161.942 236.653 160.859 237.777C161.084 237.757 161.257 237.757 161.482 237.706C168.064 236.766 166.541 228.825 166.449 228.232C166.449 228.232 167.584 227.752 168.238 228.825C168.902 229.878 168.442 231.789 167.859 233.23C169.995 233.332 175.545 229.326 177.108 228.058C177.803 228.028 179.868 229.08 181.779 228.488C181.493 231.329 183.996 235.09 186.102 236.326C186.858 234.16 187.502 231.155 189.392 229.111C189.75 232.361 191.16 234.957 193.358 236.847C195.432 232.821 198.222 232.443 198.222 232.443C198.222 232.443 199.07 236.95 201.922 238.646C202.698 236.582 203.639 234.436 205.856 232.984C205.836 236.684 208.207 238.646 210.23 240.159C210.915 237.348 213.194 233.71 213.194 233.71" fill="#FFEF00"/>
<path d="M212.008 183.214C212.611 183.214 213.919 182.815 216.209 180.301C216.086 179.933 215.963 179.545 215.8 179.197C214.849 179.228 214.195 179.279 214.195 179.279C212.417 179.279 210.68 179.228 208.963 179.116C209.126 179.443 209.3 179.79 209.484 180.189C210.271 181.855 210.997 183.214 212.019 183.214" fill="#FFEF00"/>
<path d="M207.348 195.427C205.212 192.034 201.462 185.544 206.071 178.891C187.502 177.001 174.247 169.183 174.247 169.183C174.247 169.183 173.552 171.032 172.55 171.421C170.966 172.034 169.77 171.543 169.77 171.543C169.77 171.543 172.06 168.723 170.792 166.709C167.563 161.508 158.202 159.484 155.943 161.109C154.839 161.906 154.89 163.368 155.248 164.655C155.401 164.267 155.575 163.909 155.841 163.531C157.732 160.741 161.431 165.36 160.91 166.597C160.399 169.07 158.805 169.499 159.459 172.759C157.548 172.984 154.911 170.153 154.839 166.709C154.236 165.738 153.736 164.573 153.93 163.245C151.528 161.416 148.738 161.078 146.255 160.251C144.722 159.719 135.657 160.097 138.283 166.341C139.193 168.477 140.256 169.632 141.329 170.205C139.806 167.803 140.419 165.146 141.319 164.982C145.417 164.236 146.306 167.752 145.805 169.469C145.785 169.642 145.723 169.837 145.682 170C148.534 169.796 148.912 165.779 148.912 165.779C148.912 165.779 149.913 166.004 149.699 167.016C149.075 170.072 147.624 171.083 145.989 171.717C146.081 172.32 145.938 173.025 146.224 173.638C144.62 173.495 143.557 172.892 143.025 172.238C142.279 172.269 141.871 172.238 141.319 172.187C142.218 174.313 142.33 175.774 141.39 177.461C141.37 178.012 141.932 178.666 142.433 179.085C141.942 179.3 140.92 179.535 139.745 179.545C139.193 180.332 138.989 180.394 137.466 181.232C139.448 183.787 138.467 186.28 138.151 188.508C140.215 189.571 141.922 191.717 142.269 193.454C143.904 193.924 153.204 191.523 155.493 189.356C157.425 189.111 161.104 188.181 163.434 188.058C163.281 187.047 163.036 184.042 165.028 184.093C164.661 184.737 165.233 186.914 166.326 188.253C170.966 189.51 172.785 186.014 173.47 185.79C174.247 188.661 175.054 191.574 176.209 192.943C177.578 189.847 179.04 187.21 181.155 187.2C180.818 189.091 181.625 194.558 183.771 197.471C185.1 195.243 187.123 193.833 188.524 193.505C187.45 198.677 191.293 202.346 191.293 202.346C191.293 202.346 192.703 196.336 194.972 195.846C194.328 200.823 197.353 203.674 197.353 203.674C197.353 203.674 197.783 200.925 198.478 199.964C199.07 200.608 201.789 202.07 204.405 203.368C204.855 200.935 205.795 198.309 207.348 195.396" fill="#FFEF00"/>
<path d="M233.01 139.228C234.39 138.073 236.137 136.101 237.64 133.618C215.923 127.649 207.624 140.301 198.938 143.664C190.864 146.76 184.507 144.481 182.044 141.18C177.251 134.762 182.218 128.13 185.723 129.09C184.088 126.024 174.053 128.109 176.843 140.598C171.641 137.685 170.527 131.063 170.629 127.905C170.792 122.652 174.482 116.714 179.898 115.6C171.896 113.822 165.642 121.15 163.649 127.915C161.789 134.282 162.29 145.493 176.393 151.124C189.689 156.428 199.019 149.816 203.393 146.311C206.102 144.103 214.42 136.459 221.227 134.517C223.741 133.812 231.518 134.486 233 139.228" fill="#FFEF00"/>
<path d="M148.176 174.64C150.312 175.1 151.926 177.041 158.222 175.815C161.676 175.12 155.411 179.351 154.205 187.465C152.856 186.903 152.028 185.912 153.469 182.386C155.023 178.636 147.869 178.339 148.176 174.64Z" fill="black"/>
<path d="M336.066 307.731C336.066 307.731 335.882 315.242 336.199 318.084C336.485 320.945 344.783 322.151 348.227 326.024C350.302 321.538 340.695 318.165 340.072 316.571C339.459 314.946 339.234 307.915 336.076 307.731" fill="black"/>
<path d="M352.447 336.316C350.69 337.777 352.008 344.195 351.916 348.814C354.808 347.026 352.989 344.154 354.093 341.007C355.074 338.217 357.026 336.162 356.678 333.188C355.38 334.333 353.715 335.253 352.447 336.316Z" fill="black"/>
<path d="M368.738 165.503C367.297 164.757 367.072 163.449 367.072 163.449C367.072 163.449 370.669 163.838 372.151 162.151C372.202 162.1 372.274 162.049 372.325 162.008C373.756 160.7 373.888 158.809 373.919 158.074C373.919 157.89 373.899 157.757 373.899 157.593C373.163 158.104 372.284 158.37 371.446 158.37C371.354 158.37 371.262 158.37 371.17 158.35C369.944 158.258 368.359 157.113 367.389 155.611C366.479 154.139 366.285 152.596 366.837 151.186C367.522 149.387 368.86 149.193 369.402 149.193C370.158 149.193 370.894 149.51 371.569 150.01C371.313 149.009 370.639 147.731 369.31 146.065L368.462 144.982L369.555 144.206C371.875 142.489 371.936 140.741 371.763 139.852C371.763 139.852 371.763 139.831 371.752 139.801C371.65 140.23 371.456 140.629 371.221 140.966C370.475 142.09 369.218 142.765 367.93 142.765C366.837 142.765 365.856 142.233 365.314 141.293C364.221 139.474 365.478 136.377 367.613 132.402C376.77 115.488 380.531 95.856 374.369 84.3077C371.824 79.5657 367.256 77.0313 361.39 76.5509C360.552 76.4896 359.703 76.4487 358.916 76.4487C332.488 76.4487 329.136 115.294 328.911 131.993C328.38 173.005 343.188 196.898 354.307 215.876C364.364 233.025 371.17 244.921 362.044 261.548C355.534 273.393 338.324 274.998 331.691 274.558C333.357 276.858 334.634 279.014 335.636 280.935C348.37 280.618 359.295 276.009 365.324 266.658C372.345 255.744 372.795 243.868 366.234 230.204C361.451 220.291 357.557 213.066 352.764 205.708C341.523 188.498 333.214 173.475 331.415 149.193C329.433 122.621 331.64 76.3363 360.184 78.3292C366.469 78.7788 371.569 83.1529 374.113 88.0277C380.174 99.6475 372.028 120.281 366.04 132.279C365.263 133.802 363.27 135.202 361.379 135.202C360.214 135.202 358.262 135.059 357.108 133.178C356.362 131.932 355.891 129.336 356.75 126.423C356.362 126.648 354.512 129.08 354.471 132.32C354.45 135.774 356.3 140.107 357.751 141.835C358.6 142.836 358.589 143.511 358.589 143.511C358.589 143.511 355.667 142.519 353.704 142.56C351.18 142.591 349.228 143.378 348.012 144.941C347.409 145.687 347.041 146.556 346.867 147.414C347.399 147.169 347.92 147.108 348.36 147.108C351.037 147.108 353.858 150.123 355.248 151.625C357.036 153.567 356.832 154.17 356.832 154.17C356.832 154.17 354.594 152.954 352.529 153.321C348.779 154.006 347.797 155.825 346.602 159.883C345.866 162.315 345.089 165.013 343.015 166.362C344.425 166.812 345.692 166.955 346.694 166.995C348.635 167.057 350.046 165.667 351.16 164.921C352.59 164.001 353.847 165.003 353.847 165.003C353.847 165.003 349.903 166.096 348.86 168.927C348.165 170.828 347.951 175.059 349.106 176.847C349.33 177.225 349.596 177.542 349.923 177.798C349.944 177.399 350.015 176.98 350.168 176.582C351.783 172.34 357.895 170.501 357.895 170.501C357.895 170.501 361.87 174.497 360.122 184.226C359.714 186.454 357.721 190.317 353.337 188.733C353.337 188.743 354.665 191.492 357.895 192.105C368.779 194.405 369.504 174.773 369.504 174.773C369.504 174.773 372.447 171.901 376.729 178.207C377.363 175.805 377.24 173.597 376.372 171.727C374.982 168.641 371.047 166.679 368.738 165.483" fill="#FFEF00"/>
</svg>
