<?xml version="1.0" encoding="UTF-8" standalone="no"?>
<svg
   xmlns:dc="http://purl.org/dc/elements/1.1/"
   xmlns:cc="http://creativecommons.org/ns#"
   xmlns:rdf="http://www.w3.org/1999/02/22-rdf-syntax-ns#"
   xmlns:svg="http://www.w3.org/2000/svg"
   xmlns="http://www.w3.org/2000/svg"
   xmlns:sodipodi="http://sodipodi.sourceforge.net/DTD/sodipodi-0.dtd"
   xmlns:inkscape="http://www.inkscape.org/namespaces/inkscape"
   width="776.88055"
   version="1.1"
   height="1016.2102"
   viewBox="0 0 621.50443 812.96819"
   id="svg2885"
   inkscape:version="0.47 r22583"
   sodipodi:docname="Carabobo_FC-Seite001.svg">
  <metadata
     id="metadata2950">
    <rdf:RDF>
      <cc:Work
         rdf:about="">
        <dc:format>image/svg+xml</dc:format>
        <dc:type
           rdf:resource="http://purl.org/dc/dcmitype/StillImage" />
        <dc:title>carabobo_fc.ai</dc:title>
      </cc:Work>
    </rdf:RDF>
  </metadata>
  <sodipodi:namedview
     pagecolor="#ffffff"
     bordercolor="#666666"
     borderopacity="1"
     objecttolerance="10"
     gridtolerance="10"
     guidetolerance="10"
     inkscape:pageopacity="0"
     inkscape:pageshadow="2"
     inkscape:window-width="1152"
     inkscape:window-height="804"
     id="namedview2948"
     showgrid="false"
     inkscape:zoom="1.0172753"
     inkscape:cx="388.44027"
     inkscape:cy="714.5389"
     inkscape:window-x="-4"
     inkscape:window-y="-4"
     inkscape:window-maximized="1"
     inkscape:current-layer="svg2885" />
  <title
     id="title2887">carabobo_fc.ai</title>
  <defs
     id="defs2889">
    <inkscape:perspective
       sodipodi:type="inkscape:persp3d"
       inkscape:vp_x="0 : 262.35062 : 1"
       inkscape:vp_y="0 : 1000 : 0"
       inkscape:vp_z="391.53751 : 262.35062 : 1"
       inkscape:persp3d-origin="195.76875 : 174.90041 : 1"
       id="perspective2952" />
    <clipPath
       id="Clip0">
      <path
         d="m 0,0 313.23,0 0,419.761 L 0,419.761 0,0 z"
         id="path2892" />
    </clipPath>
    <clipPath
       id="Clip1">
      <path
         d="m 0,0 215.941,0 0,14.9614 L 0,14.9614 0,0 z"
         transform="translate(48.6445,161.082)"
         id="path2895" />
    </clipPath>
    <clipPath
       id="Clip2">
      <path
         d="m 0,0 67.3677,0 0,38.7979 L 0,38.7979 0,0 z"
         transform="translate(122.931,112.236)"
         id="path2898" />
    </clipPath>
  </defs>
  <g
     id="Layer 1"
     transform="matrix(1.9841792,0,0,1.9367407,-7.5424538e-6,0)">
    <g
       id="Gruppe3"
       clip-path="url(#Clip0)">
      <path
         style="fill:#fbdf26;fill-rule:nonzero;stroke:none"
         d="m 156.615,419.761 14.582,-13.784 74.723,0 c 37.174,0 67.31,-30.136 67.31,-67.31 L 313.23,0 c -58.618,27.5234 0,0 -96.387,27.5234 0,0 -38.094,0 -60.228,-12.6953 -22.134,12.6953 0,0 -60.2278,12.6953 0,0 -37.7691,0 -96.3872,-27.5234 l 0,338.667 c 0,37.174 30.1357,67.31 67.31,67.31 l 74.723,0 14.582,13.784 z"
         id="path2902" />
      <path
         style="fill:#3f4096;fill-rule:nonzero;stroke:none"
         d="M 205.183,21.4522 C 175.46,21.4522 154.51,14.1827 144.955,10.025 135.4,14.1827 114.45,21.4522 84.7271,21.4522 57.3076,21.4522 20.9077,8.4922 0,0 c 0,0 0,31.8462 0,320.936 0,30.685 24.9644,55.649 55.6499,55.649 l 79.3621,0 c 6.689,6.323 0,0 9.943,9.399 0,0 3.254,-3.076 9.942,-9.399 l 79.363,0 c 30.685,0 55.65,-24.964 55.65,-55.649 0,-289.0898 0,0 0,-320.936 -20.908,8.4917 -57.307,21.4522 -84.727,21.4522 z"
         transform="translate(11.6601,17.7314)"
         id="path2904" />
      <path
         style="fill:#d83339;fill-rule:nonzero;stroke:none"
         d="m 193.522,16.0904 c -27.69,0 -48.289,-5.857 -60.227,-10.4693 C 121.356,10.2334 100.757,16.0904 73.0669,16.0904 49.8554,16.0904 21.624,7.8472 0,0 c 0,0 0,55.9727 0,303.914 0,24.256 19.7334,43.989 43.9897,43.989 l 84.0013,0 c 3.524,3.331 0,0 5.304,5.014 0,0 1.78,-1.683 5.304,-5.014 l 84.001,0 c 24.256,0 43.99,-19.733 43.99,-43.989 0,-247.9413 0,0 0,-303.914 -21.624,7.8472 -49.856,16.0904 -73.068,16.0904 z m 61.408,100.1906 -243.2704,0 0,-86.3903 243.2704,0 0,86.3903 z"
         transform="translate(23.3203,34.7529)"
         id="path2906" />
      <path
         style="fill:#ffffff;fill-rule:nonzero;stroke:none"
         d="m 0,0 c 0,0 0,86.9936 0,187.633 0,17.826 14.5035,32.329 32.3301,32.329 l 86.5049,0 2.8,2.938 2.801,-2.938 86.504,0 c 17.827,0 32.33,-14.503 32.33,-32.329 0,-100.6394 0,0 0,-187.633 L 0,0 z"
         transform="translate(34.9799,151.034)"
         id="path2908" />
      <path
         style="fill:#a83034;fill-rule:nonzero;stroke:none"
         d="M 243.27,32.8628 0,32.8628 0,0 l 243.27,0 0,32.8628 z"
         transform="translate(34.9799,152.132)"
         id="path2910" />
      <g
         id="Gruppe1"
         clip-path="url(#Clip1)">
        <path
           style="fill:#ffffff;fill-rule:nonzero;stroke:none"
           d="M 12.7314,5.6607 C 12.6235,5.1406 12.0825,3.5606 9.623,3.5606 c -2.7841,0 -3.6757,2 -3.6757,3.9204 0,1.9204 0.8916,3.9199 3.6757,3.9199 2,0 2.7842,-1.04 3.1353,-2.3799 l 5.8384,0 c 0,2.8799 -3.1621,5.9404 -8.8116,5.9404 C 3.5415,14.9614 0,11.7012 0,7.481 0,2.98 3.8384,0 9.7851,0 c 5.2979,0.02 8.2168,2.0801 8.7305,5.6607 l -5.7842,0 z"
           transform="translate(48.6445,161.082)"
           id="path2913" />
        <path
           style="fill:#ffffff;fill-rule:nonzero;stroke:none"
           d="m 7.1089,0 5.8111,0 7.0283,14.2817 -6.1626,0 -0.8111,-2.0405 -6.1362,0 L 5.9737,14.2817 0,14.2817 7.1089,0 z m 4.6763,9.1806 -1.73,-4.4004 -0.0542,0 -1.8647,4.4004 3.6489,0 z"
           transform="translate(67.5385,161.422)"
           id="path2915" />
        <path
           style="fill:#ffffff;fill-rule:nonzero;stroke:none"
           d="m 0,0 11.3257,0 c 3.3789,0 6.2978,1.3803 6.2978,4.0805 0,1.4805 -0.9189,3.0406 -2.8921,3.5801 1.6216,0.4605 2.6221,1.7808 2.8379,3.5606 0.0816,0.7002 0.1084,2.4003 0.649,3.0605 l -5.9463,0 C 11.9746,13.5615 11.8662,12.8217 11.7856,12.0815 11.623,10.7212 11.4609,9.3007 9.1089,9.3007 l -3.1621,0 0,4.981 L 0,14.2817 0,0 z m 5.9468,6.2407 3.1084,0 c 1.1084,0 2.622,-0.1401 2.622,-1.4199 0,-0.8999 -0.6757,-1.4204 -2.9463,-1.4204 l -2.7841,0 0,2.8403 z"
           transform="translate(88.3779,161.422)"
           id="path2917" />
        <path
           style="fill:#ffffff;fill-rule:nonzero;stroke:none"
           d="m 7.1089,0 5.811,0 7.0279,14.2817 -6.1626,0 -0.8111,-2.0405 -6.1357,0 L 5.9732,14.2817 0,14.2817 7.1089,0 z m 4.6758,9.1806 -1.73,-4.4004 -0.0537,0 -1.8652,4.4004 3.6489,0 z"
           transform="translate(106.218,161.422)"
           id="path2919" />
        <path
           style="fill:#ffffff;fill-rule:nonzero;stroke:none"
           d="m 0,0 10.5693,0 c 5.0816,0 6.1626,2.1206 6.1626,3.5805 0,1.44 -0.9463,2.2202 -2.3789,2.8003 1.7305,0.44 3.3521,1.46 3.3521,3.5606 0,2.8598 -3.3521,4.3403 -6.7578,4.3403 L 0,14.2817 0,0 z m 5.9473,5.561 3.1352,0 c 1.2432,0 2.0269,-0.2603 2.0269,-1.1807 0,-0.7197 -0.8106,-0.9799 -2.0269,-0.9799 l -3.1352,0 0,2.1606 z m 0,5.3203 3.4868,0 c 1.2431,0 2.3242,-0.2602 2.3242,-1.3603 0,-0.8399 -0.6758,-1.3003 -2.0811,-1.3003 l -3.7299,0 0,2.6606 z"
           transform="translate(127.057,161.422)"
           id="path2921" />
        <path
           style="fill:#ffffff;fill-rule:nonzero;stroke:none"
           d="m 9.7851,0 c 5.8658,0 9.7847,3.1206 9.7847,7.481 0,4.3598 -3.9189,7.4804 -9.7847,7.4804 C 3.9199,14.9614 0,11.8408 0,7.481 0,3.1206 3.9199,0 9.7851,0 z m 0,11.4009 c 1.5137,0 3.8384,-0.7397 3.8384,-3.9199 0,-3.1807 -2.3247,-3.9204 -3.8384,-3.9204 -1.5136,0 -3.8378,0.7397 -3.8378,3.9204 0,3.1802 2.3242,3.9199 3.8378,3.9199 z"
           transform="translate(146.086,161.082)"
           id="path2923" />
        <path
           style="fill:#ffffff;fill-rule:nonzero;stroke:none"
           d="m 0,0 10.5684,0 c 5.0811,0 6.1621,2.1206 6.1621,3.5805 0,1.44 -0.9453,2.2202 -2.3789,2.8003 1.7305,0.44 3.3525,1.46 3.3525,3.5606 0,2.8598 -3.3525,4.3403 -6.7578,4.3403 L 0,14.2817 0,0 z m 5.9463,5.561 3.1358,0 c 1.2431,0 2.0273,-0.2603 2.0273,-1.1807 0,-0.7197 -0.8115,-0.9799 -2.0273,-0.9799 l -3.1358,0 0,2.1606 z m 0,5.3203 3.4864,0 c 1.2431,0 2.3252,-0.2602 2.3252,-1.3603 0,-0.8399 -0.6768,-1.3003 -2.0821,-1.3003 l -3.7295,0 0,2.6606 z"
           transform="translate(167.738,161.422)"
           id="path2925" />
        <path
           style="fill:#ffffff;fill-rule:nonzero;stroke:none"
           d="m 9.7851,0 c 5.8653,0 9.7842,3.1206 9.7842,7.481 0,4.3598 -3.9189,7.4804 -9.7842,7.4804 C 3.9189,14.9614 0,11.8408 0,7.481 0,3.1206 3.9189,0 9.7851,0 z m 0,11.4009 c 1.5137,0 3.8379,-0.7397 3.8379,-3.9199 0,-3.1807 -2.3242,-3.9204 -3.8379,-3.9204 -1.5146,0 -3.8388,0.7397 -3.8388,3.9204 0,3.1802 2.3242,3.9199 3.8388,3.9199 z"
           transform="translate(186.767,161.082)"
           id="path2927" />
        <path
           style="fill:#ffffff;fill-rule:nonzero;stroke:none"
           d="m 0,0 14.9199,0 0,3.6606 -8.9737,0 0,1.7803 7.7041,0 0,3.3999 -7.7041,0 0,5.4409 L 0,14.2817 0,0 z"
           transform="translate(217.013,161.422)"
           id="path2929" />
        <path
           style="fill:#ffffff;fill-rule:nonzero;stroke:none"
           d="m 0,0 5.6231,0 0,3.9604 L 0,3.9604 0,0 z"
           transform="translate(230.284,171.744)"
           id="path2931" />
        <path
           style="fill:#ffffff;fill-rule:nonzero;stroke:none"
           d="M 12.7304,5.6607 C 12.622,5.1406 12.082,3.5606 9.623,3.5606 c -2.7842,0 -3.6768,2 -3.6768,3.9204 0,1.9204 0.8926,3.9199 3.6768,3.9199 2,0 2.7832,-1.04 3.1348,-2.3799 l 5.8388,0 c 0,2.8799 -3.1631,5.9404 -8.8115,5.9404 C 3.541,14.9614 0,11.7012 0,7.481 0,2.98 3.8378,0 9.7851,0 c 5.2979,0.02 8.2168,2.0801 8.7305,5.6607 l -5.7852,0 z"
           transform="translate(238.15,161.082)"
           id="path2933" />
        <path
           style="fill:#ffffff;fill-rule:nonzero;stroke:none"
           d="m 0,0 5.623,0 0,3.9604 L 0,3.9604 0,0 z"
           transform="translate(258.963,171.744)"
           id="path2935" />
      </g>
      <path
         style="fill:#a83034;fill-rule:nonzero;stroke:none"
         d="m 49.395,173.29 32.9668,0 0,-173.29 -32.9668,0 0,173.29 z m 98.793,0 32.966,0 0,-173.29 -32.966,0 0,173.29 z m -49.396,0 13.063,0 3.42,3.555 3.42,-3.555 13.063,0 0,-173.29 -32.966,0 0,173.29 z M 0,147.32 c 0,14.319 11.6499,25.97 25.9697,25.97 l 6.9966,0 L 32.9663,0 0,0 C 0,0 0,75.0649 0,147.32 z M 197.584,0 l 0,173.29 6.996,0 c 14.32,0 25.969,-11.651 25.969,-25.97 0,-72.2551 0,0 0,-147.32 l -32.965,0 z"
         transform="translate(41.3403,191.347)"
         id="path2937" />
      <path
         style="fill:#000000;fill-rule:nonzero;stroke:none"
         d="m 6.1392,89.2559 c 2.3442,1.3789 0,0 3.3027,1.9423 C 9.2261,93.1821 8.2867,101.825 7.712,107.113 l 48.0649,0 c 0,-2.215 0,-4.64 0,-5.453 1.1118,-1.19 5.5112,-5.8953 6.415,-6.8617 0,0 1.0928,-0.2338 5.6421,-1.2055 l 0,-21.5611 c -2.291,0 0,0 -2.5879,0 4.1431,-5.2876 11.1202,-11.5488 19.565,-14.3569 0.1621,0.3633 0.3247,0.7793 0.4409,1.1514 l 0.6045,1.9331 2.0273,0.0049 37.1202,0 0.607,-1.938 c 0.115,-0.3721 0.278,-0.7881 0.44,-1.1514 8.446,2.8081 15.422,9.0693 19.565,14.3569 0,0 -0.297,0 -2.588,0 l 0,21.5611 c 4.55,0.9717 0,0 5.643,1.2055 0.904,0.9664 5.302,5.6717 6.414,6.8617 0,0.813 0,3.238 0,5.453 l 48.065,0 c -0.574,-5.289 -1.514,-13.9309 -1.729,-15.9148 0,0 0.958,-0.5634 3.302,-1.9423 0,-2.5982 0,0 0,-3.6143 0,0 1.81,-0.3623 6.139,-1.2285 l 0,-9.022 c 0,-2.9814 -2.426,-5.4062 -5.406,-5.4062 -1.445,0 0,0 -2.871,0 0,0 -0.244,-2.1211 -0.738,-6.4429 -2.038,-0.7056 0,0 -2.115,-0.7324 0,0 0.053,0 0.284,0 l 0,-14.0576 -1.498,-0.7686 c -0.385,-0.1978 -1.872,-0.9243 -3.495,-1.3726 -0.71,-1.9917 -2.149,-4.2168 -4.011,-5.4165 0,0 0,-0.5683 0,-2.6132 -2.11,-1.5074 0,0 -2.951,-2.108 0,0 -0.142,-2.2856 -1.307,-21.1254 l -12.099,0 c 0,19.2099 0,0 0,21.9912 0,0 -0.783,0.4262 -3.007,1.6372 0,1.9931 0,0 0,2.1806 -1.898,1.4122 -2.37,4.4019 -2.482,7.3413 0,0 -1.194,0 -5.699,0 0.145,0.794 0,0 0.289,1.587 -1.963,-2.2984 -4.214,-4.6001 -6.708,-6.8003 -5.092,-4.4922 -14.656,-11.5269 -26.327,-13.647 0.079,-0.3921 0.129,-0.8223 0.129,-1.3149 l 0,-7.1924 -2.702,-0.0528 c -1.609,-0.0312 -2.874,-0.0556 -3.882,-0.0664 -0.126,-1.4306 -0.521,-2.9917 -1.69,-4.2382 -0.289,-0.3082 -1.73,-1.1763 -3.302,-1.7813 -0.488,-4.6294 -2.576,-6.5459 -4.419,-7.3159 0,0 -0.235,-2.0601 -0.877,-7.6758 L 96.8838,0 c -0.6416,5.6157 0,0 -0.8769,7.6758 -1.8428,0.77 -3.9307,2.6865 -4.4185,7.3154 -1.5732,0.6055 -3.0136,1.4741 -3.3022,1.7813 -1.1724,1.2505 -1.5674,2.8178 -1.6914,4.2524 -0.253,0.0015 -0.5108,0.0039 -0.8096,0.0068 l -2.1235,0.0288 c -1.2544,0.021 -2.815,0.0469 -3.4746,1.8052 l -0.1753,0.4678 5e-4,4.9888 c 0,0.4931 0.0493,0.9233 0.1289,1.3154 -11.6714,2.1201 -21.2349,9.1548 -26.3277,13.647 -2.4941,2.2002 -4.7456,4.5019 -6.7075,6.8003 0,0 0.144,-0.793 0.2881,-1.587 -4.5049,0 0,0 -5.6983,0 -0.1118,-2.9394 -0.5844,-5.9291 -2.4814,-7.3413 0,0 0,-0.1875 0,-2.1806 -2.2241,-1.211 0,0 -3.0068,-1.6372 0,0 0,-2.7813 0,-21.9912 l -12.1001,0 c -1.1651,18.8403 0,0 -1.3067,21.1254 0,0 -0.8398,0.6006 -2.9511,2.108 0,2.0449 0,0 0,2.6132 -1.8604,1.1997 -3.3008,3.4248 -4.0113,5.4165 -1.622,0.4483 -3.1098,1.1758 -3.4946,1.3726 l -1.4981,0.7686 0,14.0576 c 0.2315,0 0,0 0.2842,0 0,0 -0.0771,0.0268 -2.1152,0.7324 -0.4941,4.3218 0,0 -0.7368,6.4429 0,0 -1.4273,0 -2.8716,0 C 2.4253,69.9849 0,72.4097 0,75.3911 l 0,9.022 c 4.3296,0.8662 0,0 6.1392,1.2285 0,0 0,1.0161 0,3.6143 z"
         transform="translate(51.184,43.9209)"
         id="path2939" />
      <path
         style="fill:#ffffff;fill-rule:nonzero;stroke:none"
         d="m 6.1387,84.9233 3.479,2.0464 -1.8897,17.3873 42.5362,0 0,-6.5411 7.749,-8.2876 4.3086,-0.9209 0,-16.5752 -5.0244,0 c 3.6381,-6.5127 13.2392,-16.8667 25.5791,-20.2588 0,0 1.1752,0 2.2509,3.4785 l 35.0946,0 c 1.076,-3.4785 0,0 2.251,-3.4785 12.339,3.3921 21.941,13.7461 25.579,20.2588 l -5.025,0 0,16.5752 4.309,0.9209 7.749,8.2876 0,6.5411 42.537,0 -1.891,-17.3873 3.479,-2.0464 0,-4.2969 6.14,-1.228 0,-6.7632 c 0,-1.4639 -1.187,-2.6504 -2.651,-2.6504 l -5.33,0 -0.819,-7.1621 -5.32,-1.8413 -0.819,-3.6836 4.093,0 0,-9.6177 c -2.792,-1.4326 0,0 -4.502,-1.4326 0,-1.7104 -2.321,-5.9341 -4.502,-5.9341 l 0,-3.0698 -2.865,-2.0459 -1.228,-19.8496 -6.753,0 0,20.8721 -3.006,1.6372 0,2.456 c -1.458,0 -2.519,0.7544 -2.519,8.1851 l -5.115,0 1.636,9.0039 3.581,0 0,2.5581 -2.966,2.9668 c 0,-9.1069 -21.76,-34.0327 -45.083,-34.0327 -0.033,-0.2803 -0.916,-2.4907 -0.562,-2.5449 1.497,-0.2281 3.18,-0.0518 4.717,-0.0518 0,0 10e-4,0 10e-4,-5.3203 -6.549,-0.1279 0,0 -6.549,0 0,-1.6304 0.235,-3.8799 -0.98,-5.1758 -0.379,-0.4048 -3.931,-1.6513 -3.931,-1.5776 0,-3.2632 -0.78,-7.1616 -4.297,-7.1616 L 108.763,0 96.5869,0 95.7681,7.1626 c -3.5157,0 -4.2969,3.8984 -4.2969,7.1616 0,-0.0737 -3.5513,1.1728 -3.9307,1.5776 -1.2148,1.2959 -0.9809,3.5454 -0.9809,5.1758 0,0 0,-0.1279 -6.5479,0 l 0,5.3203 c 1.5371,0 3.2202,-0.1763 4.7178,0.0518 0.354,0.0542 -0.5293,2.2646 -0.5615,2.5449 -23.3238,0 -45.083,24.9258 -45.083,34.0327 l -2.9673,-2.9668 0,-2.5581 3.581,0 1.6372,-9.0039 -5.1157,0 c 0,-7.4307 -1.061,-8.1851 -2.5185,-8.1851 l 0,-2.456 -3.0069,-1.6372 0,-20.8721 -6.7529,0 -1.2276,19.8496 -2.8652,2.0459 0,3.0698 c -2.1797,0 -4.5019,4.2237 -4.5019,5.9341 0,0 -1.71,0 -4.5015,1.4326 l 0,9.6177 4.0923,0 -0.8184,3.6836 -5.3203,1.8413 -0.8188,7.1621 -5.3306,0 C 1.1865,69.9848 0,71.1713 0,72.6352 l 0,6.7632 6.1387,1.228 0,4.2969 z"
         transform="translate(53.9404,46.6768)"
         id="path2941" />
      <g
         id="Gruppe2"
         clip-path="url(#Clip2)">
        <path
           style="fill:#ffffff;fill-rule:nonzero;stroke:none"
           d="m 66.9819,38.7979 c 0.254,-1.6675 0.3858,-3.375 0.3858,-5.1138 C 67.3677,15.0811 52.2876,0 33.6841,0 15.0806,0 0,15.0811 0,33.6841 c 0,1.7388 0.1323,3.4463 0.3862,5.1138 l 66.5957,0 z"
           transform="translate(122.931,112.236)"
           id="path2944" />
        <path
           style="fill:#373535;fill-rule:nonzero;stroke:none"
           d="m 32.4849,13.6871 c 0,0 -5.9952,-4.0645 -12.0918,-6.605 0.9834,-2.3838 0,0 1.9902,-5.336 C 25.7002,0.6202 29.249,0 32.9419,0 c 3.6934,0 7.2432,0.6202 10.5605,1.7466 0,0 1.1416,2.4033 2.3946,4.3194 -9.2461,4.2675 0,0 -13.4121,7.6211 z M 53.9243,26.896 c 0,0 3.7598,3.4551 8.1289,9.5513 1.7119,-2.2378 0,0 3.8076,-4.3779 -0.1787,-6.8589 -2.4619,-13.1997 -6.2304,-18.4038 0,0 -3.1338,-0.4195 -6.5186,-1.0962 1.4219,5.3852 0,0 0.8125,14.3266 z M 41.6812,38.0562 c 0,0 0.7148,-4.1733 4.4199,-9.3311 -8.5362,-4.3686 0,0 -13.5147,-9.1445 0,0 -5.1821,5.2837 -13.2099,9.043 3.2314,4.6181 0,0 4.2041,9.4326 l 18.1006,0 z M 2.3062,36.7525 c 3.6577,-5.4868 0,0 7.621,-10.3643 0,0 -0.102,-6.6045 1.5245,-12.7011 -3.3077,0.8818 0,0 -6.2622,1.5419 C 1.9106,20.3482 0,26.4248 0,32.9424 c 0,0.7071 0.0303,1.4063 0.0742,2.1026 0,0 1.1968,0.8188 2.232,1.7075 z"
           transform="translate(123.673,112.977)"
           id="path2946" />
      </g>
    </g>
  </g>
</svg>
