<svg width="1000" height="1000" viewBox="0 0 1000 1000" fill="none" xmlns="http://www.w3.org/2000/svg">
<path d="M910.726 181.33C909.732 171.127 908.72 163.037 907.933 157.339C907.54 154.491 907.201 152.239 906.947 150.625C906.698 149.028 906.518 147.976 906.486 147.787L906.468 147.677L906.47 147.699L901.462 118.961L897.662 97.1602L846.401 99.1743C838.902 99.4729 831.491 99.6112 824.168 99.6112H824.058C737.389 99.6252 663.402 79.6084 611.516 59.6056C585.573 49.6112 565.198 39.6569 551.66 32.4121C544.89 28.7927 539.83 25.8487 536.623 23.9208C535.026 22.9608 533.898 22.2554 533.246 21.8405C532.922 21.6361 532.701 21.4918 532.691 21.4878L532.683 21.4818L532.631 21.4457C532.607 21.4317 532.583 21.4177 532.559 21.3996L532.401 21.2954L532.609 21.4317L514.326 9.29289L500.333 -5.2745e-05L468.127 21.3876C468.031 21.4538 467.955 21.4998 467.899 21.5399C466.837 22.2253 459.083 27.1474 445.788 34.1176C431.868 41.4165 411.809 51 386.711 60.5374C334.968 80.2256 261.977 99.6072 176.703 99.6112H176.629C176.551 99.6112 176.42 99.6112 176.236 99.6132C169.003 99.6072 161.672 99.4689 154.261 99.1743L125.116 98.034L103.005 97.1662L94.1967 147.699L94.1847 147.779C94.1507 147.976 93.9703 149.026 93.7217 150.623C91.9461 161.948 86.008 204.261 86 265.766C86.0261 336.945 93.9122 434.035 126.422 538.497C142.696 590.719 165.168 644.777 195.996 698.054C226.817 751.325 266.017 803.784 315.422 852.549C335.012 871.875 357.961 894.942 383.789 917.846C409.65 940.743 438.499 963.658 470.915 982.629L487.818 992.509L500.632 1000L530.28 982.526C562.436 963.548 591.187 940.619 617.001 917.732C642.802 894.821 665.765 871.768 685.24 852.553C734.651 803.784 773.849 751.325 804.672 698.052C850.916 618.123 878.35 536.514 894.273 461.82C910.189 387.1 914.658 319.167 914.668 265.77C914.662 230.618 912.72 201.744 910.726 181.33ZM532.657 21.4638L532.609 21.4317L532.631 21.4457C532.639 21.4517 532.647 21.4578 532.657 21.4638Z" fill="#D9251C"/>
<path d="M881.551 152.044L876.543 123.307L847.396 124.451C839.558 124.76 831.816 124.906 824.166 124.906C733.541 124.922 656.542 104.066 602.42 83.2053C575.371 72.786 554.071 62.3888 539.728 54.7172C532.557 50.8813 527.126 47.7269 523.585 45.5966C521.813 44.5304 520.517 43.7207 519.709 43.2077C519.304 42.9511 519.022 42.7728 518.867 42.6706C518.789 42.6185 518.743 42.5884 518.727 42.5804L500.334 30.3655L481.94 42.5804L481.9 42.6065C480.535 43.5023 448.875 63.9781 395.694 84.1833C341.716 104.713 265.709 124.922 176.501 124.906C168.855 124.906 161.11 124.76 153.27 124.451L124.124 123.309L119.118 152.044C118.869 153.501 111.3 197.336 111.294 265.77C111.31 335.073 119.034 429.678 150.574 530.979C166.352 581.618 188.109 633.921 217.889 685.386C247.664 736.845 285.481 787.456 333.193 834.55C352.889 853.986 375.481 876.676 400.57 898.921C425.681 921.163 453.302 943.025 483.688 960.797L500.58 970.672L517.436 960.735C547.572 942.959 575.126 921.066 600.217 898.809C625.284 876.554 647.895 853.869 667.476 834.55C715.186 787.456 753.003 736.845 782.778 685.386C827.453 608.178 854.061 529.131 869.537 456.549C885.006 383.949 889.365 317.752 889.373 265.77C889.365 197.336 881.8 153.501 881.551 152.044Z" fill="white"/>
<path d="M848.705 158.345C644.052 166.393 500.334 70.9625 500.334 70.9625C500.334 70.9625 356.617 166.393 151.964 158.345C151.964 158.345 84.8949 543.158 356.617 811.397C396.268 850.539 445.186 900.256 500.511 932.588C555.381 900.252 604.657 850.286 644.052 811.397C915.776 543.158 848.705 158.345 848.705 158.345Z" fill="#291670"/>
<path d="M686.163 608.152C681.954 613.12 677.541 617.916 672.94 622.525C630.235 665.18 571.577 691.466 506.46 691.482C441.347 691.466 382.69 665.18 339.983 622.525C297.328 579.818 271.042 521.16 271.024 456.048C271.042 390.933 297.328 332.275 339.983 289.57C382.69 246.915 441.347 220.627 506.46 220.611C571.577 220.627 630.235 246.915 672.94 289.57C677.195 293.831 681.287 298.254 685.207 302.825L730.634 257.809C726.577 253.226 722.387 248.771 718.062 244.45C664.008 190.346 588.997 156.785 506.46 156.801C423.928 156.785 348.915 190.346 294.863 244.45C240.76 298.5 207.2 373.513 207.216 456.048C207.2 538.58 240.76 613.595 294.863 667.647C348.915 721.75 423.928 755.31 506.46 755.294H506.524C589.035 755.294 664.022 721.738 718.062 667.647C722.663 663.048 727.114 658.294 731.411 653.4L686.163 608.152ZM506.462 313.749C545.857 313.765 581.229 329.626 607.082 355.428C611.244 359.601 615.144 364.024 618.767 368.669L664.326 323.521C660.474 318.94 656.43 314.529 652.204 310.306C615.006 273.056 563.276 249.923 506.462 249.939C449.646 249.923 397.919 273.056 360.721 310.306C323.471 347.504 300.338 399.234 300.354 456.048C300.338 512.859 323.471 564.591 360.721 601.787C397.919 639.035 449.646 662.17 506.462 662.154H506.518C563.312 662.154 615.016 639.023 652.204 601.787C656.809 597.187 661.196 592.368 665.352 587.339L619.926 541.913C615.982 547.113 611.695 552.045 607.082 556.667C581.229 582.467 545.857 598.33 506.462 598.344C467.068 598.33 431.694 582.467 405.843 556.667C380.042 530.814 364.18 495.444 364.166 456.048C364.18 416.653 380.04 381.277 405.843 355.428C431.694 329.626 467.068 313.765 506.462 313.749Z" fill="white"/>
</svg>
