<?xml version="1.0" encoding="utf-8"?>
<!-- Generator: Adobe Illustrator 21.0.2, SVG Export Plug-In . SVG Version: 6.00 Build 0)  -->
<svg version="1.1" id="Capa_1" xmlns="http://www.w3.org/2000/svg" xmlns:xlink="http://www.w3.org/1999/xlink" x="0px" y="0px"
	 viewBox="0 0 1984.3 1984.3" style="enable-background:new 0 0 1984.3 1984.3;" xml:space="preserve">
<style type="text/css">
	.st0{fill-rule:evenodd;clip-rule:evenodd;fill:#FFFFFF;stroke:#ED1C24;stroke-width:11.4647;stroke-miterlimit:22.9256;}
	.st1{fill-rule:evenodd;clip-rule:evenodd;fill:#ED1C24;}
	.st2{fill-rule:evenodd;clip-rule:evenodd;fill:none;stroke:#ED1C24;stroke-width:11.4653;stroke-miterlimit:22.9256;}
	.st3{fill-rule:evenodd;clip-rule:evenodd;fill:#FFFFFF;stroke:#ED1C24;stroke-width:11.5571;stroke-miterlimit:22.9256;}
</style>
<g>
	<path class="st0" d="M124.8,315.2C436.7,365,726.2,250.5,997.1,0c227.4,248.5,521.5,338.8,861.1,320.9
		c98.2,837.7-258,1387.7-866.7,1663.4C295.4,1644,43,1068.3,124.8,315.2z"/>
	<path class="st1" d="M303.5,1283.7l0.1-924.5L169,348.4C126.9,788.4,186.6,1078.2,303.5,1283.7z"/>
	<path class="st1" d="M490.9,337.7l206.9-75.6l0.6,1486.7c-72.1-59-142.6-122.1-210.3-192.7L490.9,337.7z"/>
	<polygon class="st1" points="876,150.8 996.3,50.5 1107.8,154.5 1110.6,1866.1 990.9,1925.7 873.9,1863.9 	"/>
	<path class="st1" d="M1283.5,263.3l215.3,70.1l3.4,1221.3c-66.8,75.9-139.3,143.5-218.7,201.2L1283.5,263.3z"/>
	<path class="st2" d="M169,348.4c295.9,47,570.4-61.2,827.2-297.9c215.7,234.9,494.5,320.2,816.6,303.2
		c93.1,791.7-244.7,1311.5-821.9,1572C330.8,1604.2,91.4,1060.1,169,348.4z"/>
	<path class="st3" d="M713.8,667.1l-78.3,4.9c-1.1-45.1-18.7-67.6-52.7-67.6c-38.9,0-58.4,34.7-58.4,104.1
		c0,40.1,5.3,67.2,15.9,81.5c10.6,14.3,25.4,21.4,44.5,21.4c30.8,0,49.7-20.1,56.6-60.3l72.5,4.5c-4.7,38.2-18.9,67.2-42.7,87.1
		c-23.8,19.9-52.8,29.8-87.3,29.8c-42.2,0-76.5-14.6-103-43.7c-26.5-29.2-39.7-69.4-39.7-120.9c0-48.1,12.8-87.6,38.3-118.3
		c25.6-30.7,60.5-46.1,104.8-46.1C661,543.4,704.2,584.6,713.8,667.1z"/>
	<path class="st3" d="M1030.9,795.7l99.8,319.1h-80.4l-19.4-65.7H927.6l-20.1,65.7H842l102.2-319.1H1030.9L1030.9,795.7z
		 M945.6,990.2h67.8l-33.8-112L945.6,990.2z"/>
	<path class="st3" d="M1508.9,1085.6v198.7c0,32.2-3.7,56-11,71.7c-7.3,15.6-20.8,28.6-40.5,38.6c-19.7,10.1-44.9,15.1-75.7,15.1
		c-30.7,0-55.1-4.5-73.3-13.6c-18.2-9.1-31.8-21.9-40.9-38.6c-9-16.7-13.6-41-13.6-73.2v-198.7h81.2v198.7c0,17.2,1.4,29.8,4.3,37.9
		c2.9,8.1,8.7,14.5,17.3,19.3c8.6,4.7,19.3,7.1,31.9,7.1c14,0,25.5-2.3,34.2-7c8.8-4.7,14.7-10.9,17.6-18.6
		c2.9-7.7,4.3-20.6,4.3-38.7v-198.7H1508.9z"/>
	<path class="st1" d="M1693.2,355.1l119.7-1.4c32.8,378.7-2.8,676.4-138.3,945.2l0-944.4L1693.2,355.1z"/>
</g>
</svg>
