<svg xmlns="http://www.w3.org/2000/svg" viewBox="0 0 79.15 102.05"><defs><style>.cls-1{fill:#fff;}.cls-2{fill:#86c2eb;}</style></defs><g id="Capa_2" data-name="Capa 2"><g id="Capa_1-2" data-name="Capa 1"><path d="M39.58,102.05C15.7,97,0,80.9,0,49.07V0H79.15V49.07c0,31.83-15.7,48-39.57,53"/><path class="cls-1" d="M6.74,50.68V23.89H72.41V50.68c0,25-14.7,42.67-32.83,42.67S6.74,75.65,6.74,50.68"/><path class="cls-2" d="M55.09,88.58a27.73,27.73,0,0,1-14.48,4.75C41.18,86,44,79.19,46.49,72.4c1.41-3.9,2.92-7.86,3.17-12,.05-1.85-.71-3.56-1.22-5.29.25-.09.71.09.82-.22a10.5,10.5,0,0,1,.27-1.68,8.52,8.52,0,0,1,2,2.53c.22.54.82.38,1.28.39a7.43,7.43,0,0,0-.53-5.34,5.71,5.71,0,0,0,.14-2.6,10.5,10.5,0,0,0,2.36.54,4,4,0,0,0,1.58-1.9,5.75,5.75,0,0,1,.34,3.15c-.14,1.13-.62,2.2-.69,3.35,1.65.27,2.92-1,3.9-2.09a10.51,10.51,0,0,1,.32,4.14,19.85,19.85,0,0,1-.61,2c.24.78.71,1.47,1,2.24.68,1.77,1.36,3.74.74,5.63A3.64,3.64,0,0,0,60.57,63a4.88,4.88,0,0,0-1.83-1.58,6.17,6.17,0,0,0-.09,3.38,8.94,8.94,0,0,0,4,4.81l.09.3a5.68,5.68,0,0,1-2.92-.07A9.06,9.06,0,0,1,62,73.43a5.71,5.71,0,0,1-.68,4.44,6.85,6.85,0,0,0-.51-2.54c-.27-.53-.62-1-.9-1.54a6.73,6.73,0,0,1-1.39,4.63c-.82.8-2.26.93-2.66,2.15s.38,2.4.75,3.53a3.19,3.19,0,0,1-1.77-1,6,6,0,0,1-.9-3.15l-.43,0A15,15,0,0,0,54,84.8c.22.71.91,2.77,1.14,3.78M39.87,93.35h-.3a13.87,13.87,0,0,0-8.31-2.49,25.17,25.17,0,0,1,1.45-6.4,5.48,5.48,0,0,1,5.34.61,10.4,10.4,0,0,1,2.66,2.46c0,.82-.31,1.6-.39,2.42-.22,1.12-.28,2.27-.45,3.4m-1.88,0a27.56,27.56,0,0,1-6.23-1.09l-.34-.17-.56-.22A9.3,9.3,0,0,1,38,93.31m-2-15.4c2.32-.43,4.49,1,6,2.65.23.29.67.6.48,1-.56,1.65-1,3.34-1.46,5-.69-.44-1.17-1.14-1.86-1.58a7.47,7.47,0,0,0-3.27-1.56,18.7,18.7,0,0,0-2.8,0,37.67,37.67,0,0,1,2.12-4.15,7,7,0,0,0,.82-1.4m4.27-5a3.65,3.65,0,0,1,2.12.28,8,8,0,0,1,2.35,2c-.67,1.73-1.2,3.53-1.94,5.24-1.55-1.63-3.55-3.32-6-3.14l0-.37c1.11-1.35,2.27-2.64,3.39-4m2.48-4.19a3.79,3.79,0,0,1,2.11.17c.56.26,1.08.6,1.63.86.1,1.16-.63,2.18-.95,3.25l-.12.41c-.14.33-.28.65-.41,1a7.61,7.61,0,0,0-2.67-2c-.5-.17-1-.22-1.55-.35a26.28,26.28,0,0,0,2-3.36m1.79-3.79a4.88,4.88,0,0,1,3.37.72c0,1.22-.74,2.28-.87,3.48a2.21,2.21,0,0,1-1.11-.48,5,5,0,0,0-2.75-.75c.18-.92.48-1.82.73-2.73l.63-.24m0-4a6.73,6.73,0,0,1,3,.32,5.7,5.7,0,0,0,1.09.32,8.89,8.89,0,0,1-.42,3.39c-.57-.19-1.11-.48-1.7-.63a9.88,9.88,0,0,0-2.49,0c.06-1.06.06-2.12,0-3.17Zm-1.32-2.61c.6-.53,1.43-.37,2.16-.39a4,4,0,0,1,1.57.57,14.74,14.74,0,0,0,1.88,0c0,.82.07,1.64,0,2.46-.58-.16-1.14-.38-1.73-.53a9.33,9.33,0,0,0-3.25-.07,7.19,7.19,0,0,0-.67-2m-1.78-2.58c.12-.6.36-1.58,1.15-1.49a13.37,13.37,0,0,0,2.06,2.68l.05.35c-.66,0-1.29.21-2,.24a5.55,5.55,0,0,0-1.31-1.78M24.13,29.38a7.41,7.41,0,0,1,2-4,9.05,9.05,0,0,0,.6,9.33,9.51,9.51,0,0,0,2.11,2c.86,1.33.59,3,.74,4.47.17.52.07,1.34.72,1.55A12.21,12.21,0,0,0,31,39.46a9.06,9.06,0,0,0-1.24-6.27,3.26,3.26,0,0,1,2.08,2,2.59,2.59,0,0,0,.7,1.7c1.2.32,2.12-.67,2.78-1.52a2.75,2.75,0,0,0,.49-2.27,5.2,5.2,0,0,0-.81-1.5,2.55,2.55,0,0,1,2.12,2.67c.33.05.72.11.84-.29.47-1.09-.24-2.17-.72-3.12a4.85,4.85,0,0,1,1.85,1.91c.17.7-.23,1.35-.28,2.05.65-1.13,1.81-1.82,2.43-3a10.68,10.68,0,0,0,1.41-6.33A4.87,4.87,0,0,1,43.92,29c0,2.43-1.56,4.41-2.78,6.38-.75,1.5-1,3.21-1.87,4.69l-.48.16a4.74,4.74,0,0,0-2.56,1.44c-.78.87-1.47,1.83-2.22,2.74a25.78,25.78,0,0,1-2.22,3c-.37.41-1,.5-1.39.82-1.11,1.3-2.19,2.63-3.3,3.93a4.26,4.26,0,0,0,0,.61A3.19,3.19,0,0,1,29,52.26a1.38,1.38,0,0,0,1.19-.68,12.58,12.58,0,0,1,2.59-3.16l-1,.07a5.26,5.26,0,0,1,1-1.87A55.62,55.62,0,0,1,36.59,42a6.18,6.18,0,0,1,3-1.33,27.83,27.83,0,0,0,2.65-5,8.79,8.79,0,0,1,3-4.13,2.86,2.86,0,0,1,2.44-.18A3.47,3.47,0,0,0,45.88,33a5.67,5.67,0,0,0,0,1.09c.75.18,1.08-.57,1.22-1.17a6.5,6.5,0,0,1,4.69-.64,6.94,6.94,0,0,1,3.36,2.06c-1.67-.18-3.53-.2-4.92.88a1.35,1.35,0,0,0-.35,1.47,4.1,4.1,0,0,0,1.22,1.16,2.59,2.59,0,0,1,2.58,2.31,2.52,2.52,0,0,0-2.37-.69c-.21.21-.43.41-.64.6,0,.41-.08.87.22,1.21s.9.35,1.33.57a2.62,2.62,0,0,1,1,3.33,2.79,2.79,0,0,0-2.42-1.48,7.09,7.09,0,0,1,2.74,4,2.08,2.08,0,0,0-1.62-.24c-.38.17-.27.67-.2,1A3.65,3.65,0,0,1,51.87,50l-1.3.39.42,0a4,4,0,0,1,1,1.24,6.66,6.66,0,0,1,.17,3.85,7.54,7.54,0,0,0-1.26-2c-.49-.59-1.13-1.26-2-1.09l-.26.65-.06.72c-.34,0-.68,0-1,0a10.51,10.51,0,0,0,.2,2.31l0,.81-.27.49c-1,.22-1.8-.6-2.51-1.21a12.8,12.8,0,0,1-2.34-4.66,6,6,0,0,0-2.63-4.16,7.54,7.54,0,0,0-6-.29l-.38.59a10.23,10.23,0,0,1,4.44.24,4.49,4.49,0,0,1,2.13,1.83,2.18,2.18,0,0,1-.48,2.46A9.34,9.34,0,0,1,35.94,54a7.77,7.77,0,0,1-3.46-.15c-.52-.16-.88.29-1.26.55a5.51,5.51,0,0,0-1.25,1,34.15,34.15,0,0,1-3.43,7.16,3.1,3.1,0,0,0,.19,3.58L27,66a10.2,10.2,0,0,0,.75-3c.9-2.05,1.67-4.17,2.69-6.17a4.69,4.69,0,0,1,3.73-2.07c1.5-.2,3.06.19,4.52-.28,1.17-.32,1.25-2,2.49-2.17a.69.69,0,0,1,.28.7,3.77,3.77,0,0,1-1.41,2.87c-1.28,1-3,.54-4.43,1a7.57,7.57,0,0,0-2.26,1.07,20.68,20.68,0,0,1-1.77,1.35l-.35.37a2.32,2.32,0,0,1-.29.9,8.19,8.19,0,0,0-.75,2A9.13,9.13,0,0,1,28,66.76a5.25,5.25,0,0,1-3.93,1.9,1.36,1.36,0,0,1-.4-1.36c.35-.27.67-.67,1.15-.69s.93,0,1.4.08c-.74-.38-1.29-1-2-1.43a4.12,4.12,0,0,0-2.73,1,2.3,2.3,0,0,0,.89,2.12c-1.78-.29-3.05-1.81-3.92-3.29a.94.94,0,0,1,0-1c.75,0,1.35.62,2.11.61a3.57,3.57,0,0,0,2.24-1.05,2.26,2.26,0,0,0,.29-2.49c-.13-.38-.1-1.12.48-1,.54-.07.67.72,1.23.64.08-.26.17-.51.27-.76-.19-.6-.64-1.09-1.32-.9a5.59,5.59,0,0,0-1.29,1.72,2.14,2.14,0,0,1,.41,1.52A2.51,2.51,0,0,1,20.8,64c-.83.06-1.4-.76-2.22-.73-.34,0-.58.28-.85.44a1.58,1.58,0,0,1,0-2.25c.81-.84,2.13-1,2.87-1.91.84-1.08,1.74-2.12,2.58-3.2a4.65,4.65,0,0,1,.74-.73c0-.4.16-.94-.27-1.19-.5.08-1.05.3-1.51,0-.31-.2-.84-.51-.63-.94a18.94,18.94,0,0,0,2.09-1.91c.44-1.28.85-2.56,1.29-3.84.6-.79,1.32-1.5,2-2.25.05-.24.11-.48.17-.72a8.38,8.38,0,0,0-.4-3,4.47,4.47,0,0,0-2.88-2.47,8.71,8.71,0,0,0-2.88-.21c0-1.07.95-1.77,1.84-2.17a6.11,6.11,0,0,1,2.66-.19,12,12,0,0,1-1.24-7.32"/><path class="cls-1" d="M60.87,5.24h7.91l-.53,2.37H64v2.44h3.8v2.44H64v3.11h4.5L69,18.05H60.87Zm-10.36,0h3.07s0,5.54,0,8.31c0,1.22.33,2.09,1.28,2.09s1.25-.82,1.25-2.08c0-2.78,0-8.32,0-8.32h3.14v8.3a4.58,4.58,0,0,1-1.54,3.9,6,6,0,0,1-4.46.56,3.18,3.18,0,0,1-2.36-1.93,6.13,6.13,0,0,1-.39-2.72c0-2.7,0-8.11,0-8.11m-40.35,0,3.21,0V18.05H10.16Zm15,0h3.07s0,5.54,0,8.31c0,1.22.33,2.09,1.28,2.09s1.25-.82,1.25-2.08c0-2.78,0-8.32,0-8.32h3.14v8.3a4.58,4.58,0,0,1-1.54,3.9,6,6,0,0,1-4.46.56,3.18,3.18,0,0,1-2.36-1.93,6.13,6.13,0,0,1-.39-2.72c0-2.7,0-8.11,0-8.11M15.87,6.58C16.94,5.13,19,4.87,20.64,5.23a3.48,3.48,0,0,1,2.71,2.23,14,14,0,0,1,.58,5.28A7.44,7.44,0,0,1,22.69,17c0,.07,0,.21,0,.29a8.25,8.25,0,0,0,1.91,1.62c-.74.46-1.47.94-2.2,1.41a22.27,22.27,0,0,1-2.54-2.2,4.08,4.08,0,0,1-3.78-1.22,7.34,7.34,0,0,1-1.35-4.33c0-2-.06-4.23,1.11-6m3.5.87c-1,0-1.39,1.33-1.39,4.14,0,3.25.58,4.14,1.35,4.14s1.41-1.16,1.41-4.14-.43-4.14-1.37-4.14m21.84-.87C42.27,5.13,44.32,4.87,46,5.23a3.45,3.45,0,0,1,2.7,2.23,14,14,0,0,1,.59,5.28A7.45,7.45,0,0,1,48,17a2.58,2.58,0,0,1,0,.29A8.1,8.1,0,0,0,50,18.89c-.75.46-1.47.94-2.2,1.41a22.37,22.37,0,0,1-2.55-2.2,4.09,4.09,0,0,1-3.78-1.22,7.41,7.41,0,0,1-1.35-4.33c0-2-.06-4.23,1.12-6m3.49.87c-1,0-1.39,1.33-1.39,4.14,0,3.25.58,4.14,1.35,4.14s1.42-1.16,1.42-4.14-.44-4.14-1.38-4.14m-9.17,10.6V5.25h3.19v12.8Zm32,60.29.42.73-.07,0a.23.23,0,0,0-.24,0,1.72,1.72,0,0,0-1,1.07.57.57,0,0,0,0,.26.29.29,0,0,0,.12.18.26.26,0,0,0,.33,0l.32-.37.23-.29a2.86,2.86,0,0,1,.37-.39,1.36,1.36,0,0,1,.34-.21.84.84,0,0,1,.39,0,1.07,1.07,0,0,1,.39.14,1,1,0,0,1,.38.51,1.17,1.17,0,0,1,0,.71,2.72,2.72,0,0,1-1.23,1.49c-.08,0-.13.08-.13.1s0,.05,0,.1l-.07,0-.47-.72.07,0a.26.26,0,0,0,.24,0,1.19,1.19,0,0,0,.45-.26,2.15,2.15,0,0,0,.41-.46,1.1,1.1,0,0,0,.2-.5.42.42,0,0,0,0-.25.37.37,0,0,0-.13-.17.24.24,0,0,0-.29,0,2.11,2.11,0,0,0-.33.36l-.23.28a4.61,4.61,0,0,1-.34.39,1.18,1.18,0,0,1-.25.19.79.79,0,0,1-.45.11.78.78,0,0,1-.43-.14.9.9,0,0,1-.41-.6,1.56,1.56,0,0,1,.3-1.11,2.87,2.87,0,0,1,.37-.45,4.43,4.43,0,0,1,.55-.43.58.58,0,0,0,.13-.11.16.16,0,0,0,0-.12ZM12.39,80l-2,1.32a.15.15,0,0,0-.08.08.3.3,0,0,0,0,.13l-.06,0-.54-.84.06,0a.17.17,0,0,0,.12.06s.06,0,.11,0l2-1.32-.54-.83a.17.17,0,0,0-.08-.07.23.23,0,0,0-.14,0l0-.06L11.9,78l0,.06a.31.31,0,0,0-.07.12.22.22,0,0,0,0,.1l1.46,2.25a.15.15,0,0,0,.09.07.2.2,0,0,0,.13,0l0,.06-.69.45,0-.06c0-.05.06-.08.06-.12a.26.26,0,0,0,0-.11Zm-.92,2.89,2.19-1.59a.13.13,0,0,0,.07-.09.19.19,0,0,0,0-.12l.06,0,.59.81-.06,0a.33.33,0,0,0-.12-.06.19.19,0,0,0-.11,0l-2.19,1.59a.18.18,0,0,0-.07.09.32.32,0,0,0,0,.13l-.06,0-.59-.81.07,0a.21.21,0,0,0,.11,0s.07,0,.11,0m2.47,1.31-.68.56,1.32,1.57a.12.12,0,0,0,.1.06.19.19,0,0,0,.12,0l0,0-.63.53-.05,0a.27.27,0,0,0,.05-.13.16.16,0,0,0,0-.1l-1.87-2.22.06,0a.28.28,0,0,0,.12,0,.18.18,0,0,0,.11,0l2.07-1.73s.06-.07.06-.1a.17.17,0,0,0,0-.13l.06-.05,1.83,2.18a.12.12,0,0,0,.1.06.15.15,0,0,0,.12,0l.05.06-.63.53-.05-.06a.21.21,0,0,0,.05-.12.16.16,0,0,0,0-.1L14.9,83.37l-.58.49.84,1a.12.12,0,0,0,.09.06.17.17,0,0,0,.13,0l0,.06-.62.52-.05-.06a.28.28,0,0,0,.05-.12.14.14,0,0,0,0-.1Zm2.62,3-.74.76a.16.16,0,0,0-.05.1.19.19,0,0,0,0,.12l-.05.06L15,87.55l.05-.06a.3.3,0,0,0,.13,0,.14.14,0,0,0,.1-.06l1.88-1.94a.19.19,0,0,0,.05-.1.24.24,0,0,0,0-.13l.05,0,1.44,1.39a2.35,2.35,0,0,1,.39.43,1.12,1.12,0,0,1,.17.37.8.8,0,0,1,0,.43,1.07,1.07,0,0,1-.24.37.87.87,0,0,1-1.26.05l-.17,1.07a1.48,1.48,0,0,0,0,.38.27.27,0,0,0,.08.18l-.05.06-.84-.81.06,0c.06,0,.11,0,.14,0a.6.6,0,0,0,.06-.22l.19-1.13Zm.36-.38.78.75.25.22a.7.7,0,0,0,.17.09.37.37,0,0,0,.37-.13.36.36,0,0,0,.12-.37.46.46,0,0,0-.09-.17L18.28,87l-.77-.75Zm2.9,3.24-.62.86a.19.19,0,0,0,0,.11.22.22,0,0,0,.06.12l0,.06-.8-.59,0-.06a.22.22,0,0,0,.13,0,.18.18,0,0,0,.09-.07l1.59-2.19a.17.17,0,0,0,0-.11.22.22,0,0,0-.06-.12l.05-.06,1.62,1.18a3.09,3.09,0,0,1,.44.38,1,1,0,0,1,.22.34.75.75,0,0,1,0,.42,1.28,1.28,0,0,1-.19.41.87.87,0,0,1-1.24.23l0,1.07a3,3,0,0,0,0,.39.29.29,0,0,0,.11.16l0,.07L20.26,92l0-.07c.08,0,.12,0,.15,0a.5.5,0,0,0,0-.23l0-1.15Zm.31-.42.87.63a2,2,0,0,0,.28.19.64.64,0,0,0,.18.06.35.35,0,0,0,.35-.18.34.34,0,0,0,.06-.38.57.57,0,0,0-.11-.16l-.26-.21L20.62,89Zm4.22,4-1.25-.72-.42.29a.36.36,0,0,0-.11.1c0,.06,0,.13.07.2l0,.07L21.68,93l0-.06a.45.45,0,0,0,.16,0,.7.7,0,0,0,.19-.1l2.24-1.54a.37.37,0,0,0,.14-.14c0-.06,0-.12,0-.2l0-.06,1,.56,0,.07c-.1,0-.16,0-.19,0a.25.25,0,0,0,0,.16L25,94.51a.91.91,0,0,0,0,.25.26.26,0,0,0,.1.14l0,.07-1-.59,0-.07c.09,0,.16,0,.2,0a.28.28,0,0,0,0-.15Zm0-.47.12-1.24-1,.72Zm3,2.55.92-2.54a.17.17,0,0,0,0-.12.19.19,0,0,0-.09-.09l0-.08,1.68.61a2.53,2.53,0,0,1,.8.44,1.28,1.28,0,0,1,.4.83,1.78,1.78,0,0,1-.12.83,1.54,1.54,0,0,1-.91,1,1.29,1.29,0,0,1-.56.08,3.2,3.2,0,0,1-.71-.18l-1.67-.61,0-.07a.24.24,0,0,0,.13,0,.22.22,0,0,0,.07-.09m.75,0L29,96a1.31,1.31,0,0,0,.63.1,1,1,0,0,0,.75-.74,1.16,1.16,0,0,0,0-.83.81.81,0,0,0-.24-.31A1.51,1.51,0,0,0,29.7,94l-.82-.3Zm4.64.48-.17.86,2,.39a.14.14,0,0,0,.11,0,.17.17,0,0,0,.08-.1l.08,0-.16.81-.07,0a.24.24,0,0,0,0-.12.17.17,0,0,0-.1-.06l-2.85-.55v-.08a.23.23,0,0,0,.13,0,.16.16,0,0,0,.05-.11l.52-2.65a.18.18,0,0,0,0-.11.3.3,0,0,0-.1-.09v-.07l2.79.54c.05,0,.09,0,.11,0a.3.3,0,0,0,.09-.1h.07l-.16.81h-.07a.33.33,0,0,0,0-.13.19.19,0,0,0-.1,0l-2-.38-.14.74,1.27.25a.19.19,0,0,0,.11,0,.21.21,0,0,0,.08-.1h.08l-.16.79h-.07a.33.33,0,0,0,0-.13.19.19,0,0,0-.1,0Zm7.6,1.08.44.68-.06,0s-.08-.06-.11-.06a.77.77,0,0,0-.24.1,3.3,3.3,0,0,1-.68.3,1.94,1.94,0,0,1-.66.07A2,2,0,0,1,37.83,98a1.59,1.59,0,0,1-.44-.52,1.61,1.61,0,0,1-.17-.79,1.52,1.52,0,0,1,.35-1A1.85,1.85,0,0,1,39.13,95a2.08,2.08,0,0,1,.65.09,3.71,3.71,0,0,1,.68.33.8.8,0,0,0,.23.11s.06,0,.11-.06l.06,0-.46.66-.06,0v-.06a.14.14,0,0,0-.05-.13,1.16,1.16,0,0,0-.21-.15,1.79,1.79,0,0,0-.87-.25,1.34,1.34,0,0,0-.88.26,1,1,0,0,0-.4.84,1,1,0,0,0,.37.84,1.25,1.25,0,0,0,.87.29,1.62,1.62,0,0,0,.88-.22.83.83,0,0,0,.21-.14.16.16,0,0,0,.06-.12v-.06Zm3.65,0-1.43.15-.17.47a.56.56,0,0,0,0,.15c0,.07.07.11.17.13v.07l-1,.11V98.2a.37.37,0,0,0,.14-.08.63.63,0,0,0,.09-.2l.91-2.56a.58.58,0,0,0,0-.19.17.17,0,0,0-.15-.14V95l1.13-.12v.08c-.09,0-.13.09-.12.15a.47.47,0,0,0,.06.15l1.47,2.32a.6.6,0,0,0,.16.2.34.34,0,0,0,.16.06v.08L44.23,98v-.08c.1,0,.14-.08.13-.16a.3.3,0,0,0-.06-.14Zm-.24-.42-.63-1.07-.4,1.18Zm4.65.28-1.77-1.76.57,1.87a.14.14,0,0,0,.06.1.24.24,0,0,0,.13,0l0,.08-.89.27,0-.07a.26.26,0,0,0,.09-.1.2.2,0,0,0,0-.11l-.79-2.59a.23.23,0,0,0-.06-.09.25.25,0,0,0-.13,0l0-.07,1.18-.36,0,.07a.14.14,0,0,0-.07.16.18.18,0,0,0,.07.09l1.31,1.32.37-1.8a.34.34,0,0,0,0-.17c0-.06-.07-.08-.14-.07l0-.07,1.16-.36,0,.08a.19.19,0,0,0-.09.09.2.2,0,0,0,0,.11l.79,2.59a.29.29,0,0,0,.06.1l.13,0,0,.07-1,.3,0-.08a.19.19,0,0,0,.09-.09.11.11,0,0,0,0-.11L49,94.58Zm3.28-2.5.41,1s0,.08.08.09a.18.18,0,0,0,.13,0l0,.07-.91.39,0-.07a.24.24,0,0,0,.08-.1.14.14,0,0,0,0-.11l-1.06-2.49s0-.08-.07-.09a.18.18,0,0,0-.13,0l0-.07L52,92.36a3.31,3.31,0,0,1,.53-.18,1.07,1.07,0,0,1,.4,0,.8.8,0,0,1,.35.19,1,1,0,0,1,.26.36,1,1,0,0,1,.06.59.86.86,0,0,1-.25.43,2.56,2.56,0,0,1-.6.35Zm-.21-.48,1-.42a1,1,0,0,0,.38-.24.33.33,0,0,0,.07-.18.6.6,0,0,0,0-.22.43.43,0,0,0-.13-.17.3.3,0,0,0-.17-.08,1,1,0,0,0-.44.11l-1,.42Zm3.9-1.48.47.74,1.74-1.08a.18.18,0,0,0,.07-.09.2.2,0,0,0,0-.13l.07,0,.44.7-.07,0a.28.28,0,0,0-.11-.07l-.11,0-2.46,1.54,0-.06a.19.19,0,0,0,.06-.12.13.13,0,0,0,0-.11L54,91.65a.14.14,0,0,0-.09-.08.31.31,0,0,0-.13,0l0-.06L56.16,90a.18.18,0,0,0,.07-.08.3.3,0,0,0,0-.13l.06,0,.44.7-.06,0s-.08-.06-.12-.06a.1.1,0,0,0-.1,0l-1.7,1.05.4.65,1.1-.69a.15.15,0,0,0,.08-.08.31.31,0,0,0,0-.13l.06,0,.43.68-.07,0a.28.28,0,0,0-.11-.07l-.11,0Zm2.9-4.22a1.9,1.9,0,0,1,1.33-.46,1.58,1.58,0,0,1,1.16.65,1.53,1.53,0,0,1,.33.83A1.72,1.72,0,0,1,60.36,91a1.92,1.92,0,0,1-1.32.46,1.48,1.48,0,0,1-.67-.22,1.38,1.38,0,0,1-.48-.42,1.65,1.65,0,0,1-.35-.84,1.77,1.77,0,0,1,.77-1.59m.34.43a1,1,0,0,0-.43.68,1.09,1.09,0,0,0,.23.89,1.07,1.07,0,0,0,.8.44,1.12,1.12,0,0,0,.78-.26,1.08,1.08,0,0,0,.43-.68,1.16,1.16,0,0,0,0-.49,1.2,1.2,0,0,0-.2-.39,1.06,1.06,0,0,0-.81-.45,1.12,1.12,0,0,0-.78.26M61.58,87,63,88.35a.19.19,0,0,0,.1.05.24.24,0,0,0,.13,0l0,.06-.66.66,0-.06a.24.24,0,0,0,0-.12.18.18,0,0,0-.06-.1l-1.91-1.92a.19.19,0,0,0-.1,0,.27.27,0,0,0-.13,0l0-.05.77-.77.05,0a.12.12,0,0,0,0,.15s.07,0,.13,0l2.55,0L62.48,85a.19.19,0,0,0-.1,0,.27.27,0,0,0-.13,0l0,0,.66-.67,0,.06c0,.05,0,.09,0,.12a.14.14,0,0,0,0,.1l1.91,1.92a.19.19,0,0,0,.1.05.24.24,0,0,0,.13,0l.05.06-.71.71,0-.06a.12.12,0,0,0,0-.14.4.4,0,0,0-.2,0Zm3.65-2.82.69.56,1.29-1.6a.14.14,0,0,0,0-.1.21.21,0,0,0,0-.12l0-.06.64.52,0,.06a.17.17,0,0,0-.13,0l-.09.06L65.79,85.7l-.06,0a.39.39,0,0,0,0-.13.18.18,0,0,0-.07-.09l-2.1-1.71a.17.17,0,0,0-.11,0,.28.28,0,0,0-.12,0l-.06,0,1.79-2.21a.16.16,0,0,0,0-.1.28.28,0,0,0,0-.12l0-.06.64.52,0,.06-.13,0a.2.2,0,0,0-.1.07l-1.25,1.55.59.47.81-1a.18.18,0,0,0,0-.11.33.33,0,0,0-.06-.12l0-.06.63.51,0,.06a.21.21,0,0,0-.13,0,.12.12,0,0,0-.09.06Z"/></g></g></svg>
