<?xml version="1.0" encoding="UTF-8" standalone="no"?>
<svg
   xmlns:dc="http://purl.org/dc/elements/1.1/"
   xmlns:cc="http://creativecommons.org/ns#"
   xmlns:rdf="http://www.w3.org/1999/02/22-rdf-syntax-ns#"
   xmlns:svg="http://www.w3.org/2000/svg"
   xmlns="http://www.w3.org/2000/svg"
   xmlns:sodipodi="http://sodipodi.sourceforge.net/DTD/sodipodi-0.dtd"
   xmlns:inkscape="http://www.inkscape.org/namespaces/inkscape"
   inkscape:version="1.0 (4035a4fb49, 2020-05-01)"
   sodipodi:docname="Estudiantes de La Plata.svg"
   viewBox="0 0 350 575"
   height="575"
   width="350"
   id="svg10"
   version="1.1">
  <metadata
     id="metadata16">
    <rdf:RDF>
      <cc:Work
         rdf:about="">
        <dc:format>image/svg+xml</dc:format>
        <dc:type
           rdf:resource="http://purl.org/dc/dcmitype/StillImage" />
        <dc:title></dc:title>
      </cc:Work>
    </rdf:RDF>
  </metadata>
  <defs
     id="defs14" />
  <sodipodi:namedview
     inkscape:current-layer="g38"
     inkscape:window-maximized="1"
     inkscape:window-y="-8"
     inkscape:window-x="-8"
     inkscape:cy="407.57284"
     inkscape:cx="437.05428"
     inkscape:zoom="0.8684355"
     showgrid="false"
     id="namedview12"
     inkscape:window-height="705"
     inkscape:window-width="1366"
     inkscape:pageshadow="2"
     inkscape:pageopacity="0"
     guidetolerance="10"
     gridtolerance="10"
     objecttolerance="10"
     borderopacity="1"
     bordercolor="#666666"
     pagecolor="#ffffff" />
  <g
     transform="translate(-265.15449,-117.41364)"
     id="g18"
     inkscape:label="Image"
     inkscape:groupmode="layer">
    <g
       transform="translate(262.18226,-37.454609)"
       id="g22">
      <g
         transform="matrix(0.6971178,0,0,0.69668881,0.90023619,3.5073872)"
         id="g33">
        <g
           transform="translate(0,205.69383)"
           id="g38">
          <g
             id="g43">
            <path
               style="fill:#a8976d"
               d="M 245.5,826.82278 C 228.47862,805.38966 211.00992,790.0429 193.79138,781.39523 176.04597,772.48294 161.697,769.13058 128,766.02434 90.174028,762.53747 72.94086,758.86828 55.377393,750.56193 29.371455,738.26285 13.508842,720.75837 5.7779266,695.82863 L 3.505258,688.5 3.238745,445.25 2.972232,202 H 254.00584 505.03946 l -0.27134,242.25 -0.27134,242.25 -2.25658,7.94198 c -9.00768,31.70234 -33.64255,53.75307 -71.5041,64.00348 -12.28197,3.32515 -23.73799,5.03341 -50.7361,7.56549 -12.375,1.16062 -27.17136,3.01055 -32.88081,4.11096 -31.66394,6.10277 -56.22039,21.74505 -80.36052,51.18909 C 262.2164,826.85127 257.375,832.62443 256,834.14025 l -2.5,2.75603 z M 212,143.63123 223.71848,94.961008 187.86628,62.5 238.23451,61.499871 253.78717,11.563659 269.66487,61.5 l 50.16328,1.000318 -35.82783,32.46069 10.75165,48.670222 -41.70492,-23.19938 z"
               id="path26"
               sodipodi:nodetypes="ssssscccccccsssssscsccccccccccc" />
            <path
               style="fill:#ec1b23"
               d="M 243,799.77024 C 223.04439,778.6521 205.94495,767.24299 182.66013,759.51021 169.60139,755.17346 160.13242,753.27695 142.6308,751.49287 134.85886,750.70062 121.75,749.35783 113.5,748.50889 87.997478,745.88464 73.721436,742.07083 56.820846,733.36719 49.452342,729.57248 45.703124,726.77962 38.921379,720.03352 29.638941,710.79988 26.301963,705.61417 22.168948,694 L 19.5,686.5 19.237619,452.25 18.975239,218 H 254.00409 489.03294 l -0.27048,233.25 c -0.2539,218.96384 -0.37794,233.61749 -2.02511,239.25 -8.71116,29.78782 -34.73258,48.98574 -75.73735,55.87701 -5.225,0.87812 -19.50004,2.51445 -31.72231,3.63629 -35.02512,3.21484 -51.60988,6.89739 -69.67849,15.47168 -16.14342,7.66072 -36.54983,23.61937 -49.0992,38.3976 -3.3,3.8861 -6.225,7.05072 -6.5,7.03249 -0.275,-0.0182 -5.225,-5.03341 -11,-11.14483 z"
               id="path24"
               sodipodi:nodetypes="ssssssscccccssssssss" />
            <path
               style="fill:#fefdfd"
               d="m 245.26224,780.02851 c -4.53077,-4.34094 -12.06827,-10.67567 -16.75,-14.07717 L 220,759.76679 V 562.38339 365 h 33.5 33.5 l -0.0699,197.75 -0.0699,197.75 -9.18013,6.7524 c -5.04906,3.71382 -12.54303,9.90132 -16.65326,13.75 -4.11023,3.84868 -7.48523,6.97985 -7.5,6.95817 -0.0148,-0.0217 -3.73385,-3.59112 -8.26462,-7.93206 z M 142,735.90068 c -4.125,-0.45773 -14.53104,-1.52188 -23.12453,-2.36478 -8.59349,-0.8429 -19.505991,-2.28766 -24.25,-3.21058 L 86,728.64729 V 546.82364 365 h 33.5 33.5 v 186 c 0,176.52707 -0.0891,185.9932 -1.75,185.86645 -0.9625,-0.0734 -5.125,-0.50805 -9.25,-0.96577 z M 355,551.04531 V 365 h 33.5027 33.50269 l -0.25269,181.67806 -0.2527,181.67807 -2.90062,0.77573 c -6.5999,1.76506 -22.18176,3.88968 -39.09938,5.33129 -9.9,0.84361 -19.4625,1.77991 -21.25,2.08066 L 355,737.09063 Z M 177.59371,334.95873 c -4.74281,-1.41872 -9.50092,-6.83173 -11.22831,-12.77374 -1.16377,-4.00324 -1.46725,-8.77424 -1.20949,-19.01458 0.32163,-12.77816 0.52266,-13.97417 3.07996,-18.32436 3.92684,-6.67991 9.58735,-9.27053 18.81369,-8.61039 3.96271,0.28353 7.96201,1.19713 9.41873,2.1516 L 199,280.04611 V 267.02305 254 h 6.5 6.5 v 40.5 40.49931 h -13.00064 c 0,0 0,-1.25256 0,-1.8633 0,-1.74727 -0.29176,-1.71596 -4.66884,0.5 -4.87492,2.468 -11.2293,2.97019 -16.73681,1.32272 z M 195.75,320.84049 199,318.83688 v -12.85035 -12.85034 l -3.12495,-2.22516 c -2.02539,-1.44221 -4.69466,-2.25786 -7.58606,-2.3181 -3.67696,-0.0766 -4.87207,0.38472 -6.79902,2.62444 -2.76202,3.21033 -4.01478,11.05827 -3.19985,20.04549 1.06174,11.70907 7.90948,15.4654 17.45988,9.57763 z m 38.70863,13.27985 c -5.0856,-2.31007 -9.0807,-7.00312 -10.52378,-12.36228 -0.65907,-2.44762 -0.97763,-9.71278 -0.7763,-17.70454 0.4048,-16.06805 2.25891,-21.3161 9.13957,-25.8695 3.73118,-2.46918 4.86797,-2.68402 14.20212,-2.68402 9.1644,0 10.49695,0.24027 13.76974,2.48282 6.35269,4.35294 8.13691,8.88538 8.56874,21.76718 L 269.21585,311 H 253.10793 237 v 3.91821 c 0,2.15502 0.27953,4.64666 0.62118,5.53699 1.75424,4.57148 12.71269,5.93754 20.23802,2.52284 C 260.25677,321.89012 262.5296,321 262.90994,321 l 5.05335,8.97795 -2.24801,1.47295 c -7.32673,4.80066 -23.52016,6.18364 -31.25665,2.66944 z m 21.29702,-38.3115 c -0.38715,-4.02917 -1.09963,-5.70797 -3.18299,-7.5 -3.79106,-3.26093 -9.87071,-3.1693 -12.98936,0.19578 -2.1736,2.34535 -4.07875,9.8847 -2.95662,11.70035 0.27025,0.43727 4.79705,0.79503 10.05957,0.79503 h 9.56821 z M 86,295 v -40 h 27.5 27.5 v 7 7 H 121.5 102 v 9 9 h 18 18 v 7.5 7.5 h -18 -18 v 9.5 9.5 h 19.5 19.5 v 7 7 H 113.5 86 Z m 207,0 v -40 h 8 8 v 33 33 h 18 18 v 7 7 h -26 -26 z m 75,-0.0832 v -40.08317 l 22.25,0.34039 c 20.438,0.31266 22.57575,0.51436 26.25,2.47675 8.58091,4.58302 10.85423,9.80959 10.70127,24.60318 -0.12944,12.51784 -1.76157,17.39685 -7.50714,22.44147 -4.95534,4.35079 -9.12152,5.29245 -23.44413,5.29897 L 384,310 v 12.5 12.5 h -8 -8 v -40.08317 z m 37.56811,0.61916 c 4.76538,-1.9911 6.76907,-6.89981 6.23568,-15.2764 -0.33283,-5.22703 -0.86751,-6.77786 -3.10995,-9.02029 -2.55667,-2.55668 -3.32239,-2.72905 -13.70093,-3.08429 L 384,267.77875 V 282.38938 297 h 9.03212 c 5.66764,0 10.33731,-0.54535 12.53599,-1.46401 z"
               id="path28"
               sodipodi:nodetypes="sscccccccsssssssscccccsssccccccsssccssssssccccccccsssscccsssssssssssscccsssccssssssscsccccccccccccccccccccccccccccccccccccccccssssscccccccsssscccsss" />
          </g>
        </g>
      </g>
    </g>
  </g>
</svg>
