<svg width="1000" height="1000" viewBox="0 0 1000 1000" fill="none" xmlns="http://www.w3.org/2000/svg">
<path d="M500 1000C619.8 949.4 722.2 867.2 794 758.4C863 654 903 530 903 402.6V0H500H97V402.6C97 530 137 654 206 758.4C277.8 867.2 380.2 949.4 500 1000Z" fill="#070308"/>
<path d="M471.2 29.6H128V334.8H471.2V29.6ZM872 121.2H500V242.4H872V121.2ZM223.2 727.4H776.8C800.6 689.2 820.4 648.6 835.6 606.2H164.4C179.6 648.6 199.4 689.2 223.2 727.4ZM128 363.8V401.6C128 429.6 130 457.6 134 485H866C870 457.4 872 429.6 872 401.6V363.8H128ZM500 966.8C566.4 938.4 626.8 897.8 678.6 848.8H321.4C373.2 898 433.6 938.4 500 966.8Z" fill="#C3281E"/>
<path d="M303.6 267V246C290.2 252.2 273.8 254.2 259.2 252.4C218.4 247.2 192.2 214.4 192.2 173.8C192.2 136.6 216.2 101.6 254 101.6C269.2 101.6 283.6 108.8 290 126.4C296 113.2 296.8 84.8 291.8 72.4C288.4 72 284.8 72 281.2 72C266.4 72 252 74.8 240 79C212 88.6 188.2 110 174 136C164.4 153.6 160.2 169.4 149.2 169.4C161.8 224.4 201.4 270.2 260.2 273.4C274.6 273.8 289 271.8 303.6 267ZM281.2 65.8C327.8 65.8 359.6 91.4 359.6 138.2C359.6 155.6 354.2 172.8 342.2 185.2H364.2C388.8 160.2 384.4 129 401 129C378 71.6 346 43.8 274.4 45.6C252.8 45.8 242.4 46 224.6 39.6L237.6 73.4C249.8 69 265.4 65.8 281.2 65.8ZM265.8 279.2C256.8 279.2 247.6 278.2 238.8 276C238.8 295.4 234.4 304.2 226.2 310.2C236.4 320.8 262.8 325.4 284.6 319.2C270.4 310.4 265.8 296.4 265.8 279.2ZM412.4 179.8C407.6 185.8 401 191 385 191H336.6V117H351.2C349.2 109 345.6 101.8 341.4 95.4H335C322.6 95.4 311 93.6 298.8 89L309.4 116.8V190.6C322.4 194.8 331.2 202.4 340.6 212.2H370C386.6 212.2 393.2 223.4 391.8 238.8C421.2 223.4 416.2 189.4 412.4 179.8ZM336.6 279.6V262C329.2 250.6 320.2 237.6 309.6 229V276.4C309.6 293.6 305 304.2 296.8 309.8C307 320.4 333.4 325 355.2 318.8C341 310.4 336.6 294.2 336.6 279.6ZM441.2 80.8C436.2 89.8 427 95.4 410.2 95.4H390.4C394.6 102 398.4 109.2 402.2 117C418 117 422.6 133.8 420.4 143.6C450.6 128.2 445 90.4 441.2 80.8ZM379 270C364.8 254.4 351 227.4 325.8 206.6C308.4 192.2 285 189.2 265.6 189.2V109.2C256.4 106.6 247.6 107.2 238.6 109.6V241C247.2 244.6 256.4 246.8 265.6 247.2V211.4C297.6 211.4 312.2 219.8 328.4 240.6C345.6 262.6 367.8 305.6 388.8 320.2C401.2 317.8 428.4 298.4 430.6 273.4C414 285.4 394.6 287 379 270Z" fill="white"/>
</svg>
