<svg width="1000" height="1000" viewBox="0 0 1000 1000" fill="none" xmlns="http://www.w3.org/2000/svg">
<path d="M2 577.2C7.6 572.6 10.4 572.6 18.4 577.2C41.6 591.4 65.6 604 89.8 616.2C95 618.8 94.8 618.8 95 613C96 582 97.2 551 98.4 520C98.4 517.6 98.8 515 99.2 512.6C100.8 503.4 104.8 501.2 113.6 504.8C111.8 495.4 109.8 486.2 108.2 477C94.6 394.8 104.4 315.8 140 240.4C179.6 156.6 241.4 94.2002 324.2 52.8002C370 30.0002 418.4 17.0002 469.4 13.2002C470.4 13.2002 471.4 13.6002 471.8 12.2002H473.8C475.8 13.2002 477.8 12.4002 479.8 12.8002C481.8 12.6002 483.8 13.4002 485.8 12.2002H513.6C515.6 13.2002 517.8 12.4002 520 12.8002C522 12.8002 523.8 12.4002 525.8 13.2002C595 17.6002 658.8 38.4002 716.4 76.6002C804.8 135.2 862 216.4 886.6 319.8C901.2 380.8 900.2 442 885.8 503.2C885.8 503.6 885.8 504.2 885.6 505.4C888.6 502.6 891.6 501.2 895 502.8C898.6 504.6 899.8 508 900.6 511.8C902.8 522.6 902 533.6 902.4 544.6C903.2 567.6 904 590.6 904.8 613.6C904.8 617.8 905.8 618.6 909.8 616.4C932.4 604 955.2 591.8 978 579.6C981.6 577.6 985.4 576 989.2 574.6C992.2 573.4 995.4 573.6 997.8 576.2V586.2C992.2 611.4 982.4 635.2 971.6 658.4C953.6 696.6 930.6 731.6 904.4 764.6C900.8 769.2 900.8 770 904.4 774.4C907.6 778 910.4 782 913.4 785.8C925.8 801.4 923.2 816.6 910 829.4C891 847.8 870.8 864.8 849.6 880.4C819.8 902.2 788 920.8 754.4 936.2C713 955.2 669.8 968.6 625.2 977.2C599.4 982.2 573.2 986.2 546.8 986.8C542 986.8 537.2 987 532.4 987.2C530.8 987.2 529.2 987.2 527.6 987.2C525.6 987.2 523.8 987.2 521.8 987.2C519.2 987.4 516.4 986.6 513.8 987.8H474C471.4 986.8 468.8 987.6 466.2 987.2C463.8 987.4 461.4 986.6 459.2 987.8H456.2C448 986.6 439.8 987 431.6 986.2C412.2 984.4 393 981.6 374 978.2C344.8 973 315.8 965.8 287.6 956.4C246.6 942.8 207.8 924.8 171.4 901.6C138.8 880.8 109.6 856 83 827.8C80.2 824.8 77.8 821.4 75.8 817.8C70.8 808.2 72.4 798 79.8 789.2C84.8 783.4 90 777.8 95 772.2C97.6 769.4 97.4 767.2 95 764.4C87.2 754.6 79.6 744.4 72.4 734.2C42.8 691.8 19.4 646.4 4.2 597C3.2 593.8 3 590.6 2 587.4V577.4V577.2Z" fill="#076C31"/>
<path d="M490.8 975.6C405.2 974.2 319 959 237.4 921.8C188.4 899.6 144.6 869.8 106.2 832.2C100.8 826.8 95.3999 821.4 90.5999 815.6C84.9999 809 84.9999 804 90.5999 797.4C113.8 771.4 137 745.4 160.2 719.4C161.8 717.6 162.8 717.2 164.8 719.2C238.8 787.8 327.6 827.4 425.2 848.8C482.8 861.4 540.6 858 597.6 843.4C660 827.4 719.6 804.2 774.4 769.6C797.4 755.2 818.6 738.4 837 718.4C839.4 715.8 840.4 716.2 842.4 718.8C862.4 744 882.6 769 902.8 794.2C910 803.2 909.8 810.8 901.4 818.8C844 875 777.4 916.6 701.4 942.8C653.8 959.2 604.8 969 554.8 973C534.6 974.6 514.4 975.2 490.6 975.8L490.8 975.6Z" fill="#F5E817"/>
<path d="M879.6 409.8C880.2 618.2 709.4 791.2 496 789.4C288 787.6 116 617 119.6 402.6C123.2 195.2 294.2 25.6001 507.2 29.6001C715.4 33.6001 880.4 204.2 879.6 409.8Z" fill="#F5E817"/>
<path d="M110.8 530C130.6 575 155.6 615.6 186.4 652.6C217.2 689.6 252.8 721.4 292.6 750.2C285.6 750.8 280.4 748.8 275.4 746.4C259.4 739 246 728 231.8 717.8C223.2 711.4 214.6 704.8 205.4 699.2C201.8 697 198 694.8 194.2 692.8C178.6 685.2 170.6 686.8 159 699.6C144.6 715.6 131.6 733 116.8 748.6C109.2 756.6 109.2 756.8 102.4 748C74.6 712.6 50 675.4 32.4 633.8C26.6 620 21.6 606.2 17 591C30.2 598 42.4 604.6 54.6 611.2C66.4 617.6 78.2 624 90 630.2C91.8 631.2 93.8 632 96 632.6C101.6 634 106.4 631 106.8 625.4C107.6 616.4 107.6 607.6 108 598.6C108.8 576.8 109.6 554.8 110.4 533C110.4 532.4 110.4 531.8 110.8 530Z" fill="#F5E817"/>
<path d="M983 591.2C976.4 613.4 968.8 634.2 959.4 654.4C942.6 690.4 920.4 723 895.8 754C893.4 757 892 756.4 889.6 754.4C880 746.4 872.8 736.6 865 727C856.6 716.6 848.6 706.2 838.4 697.4C826.6 687.2 814.2 686.2 800.8 693.6C788.6 700.2 777.8 708.6 766.8 717C754.4 726.6 742.6 736.6 728.8 744.2C722.6 747.6 716.2 750.6 707 750.4C788.6 693.6 850.4 622 889.2 529.6C890.6 540.2 890.2 549.6 890.6 558.8C891.4 580.4 892.2 602.2 893.2 623.8C893.6 631.2 898.6 634.2 905.6 632C912 629.8 917.4 626 923.2 623C941.6 613.2 960 603.2 978.4 593.4C979.6 592.8 980.8 592.2 983 591.2Z" fill="#F5E817"/>
<path d="M308.6 763.6C311.6 759.8 314.4 760.2 318.6 762.2C381.6 794.2 448.4 809.4 519.2 805.8C575.6 803 628.6 787.4 679.4 763C684.6 760.6 688.4 759 692.2 764.4C694.6 765 696.2 766.6 697.8 768.4C702.6 774.2 708 779.6 713.4 785C714.4 786 715.4 786.8 715.2 788.4C690.8 800.4 665.6 810.2 639.8 818.6C598.6 832 556.6 841.6 513 843.8C446.6 847.2 384 831 323.4 805.6C310.6 800.2 298 794.4 286 787.4C286.4 785 288 783.2 289.6 781.6C295.8 775.4 301.2 768.4 308.6 763.6Z" fill="#FEFEFE"/>
<path d="M715 788.6C707.4 780.6 699.8 772.6 692 764.6C715.2 765 734.6 755 753.2 742.8C772.4 730.2 790.6 716.6 810.2 704.8C812.8 703.2 815.8 702 818.8 701C821.8 700 824.8 700.4 826.8 703.4C828.8 706.2 828.6 709 827.2 711.8C826 714.2 824.2 716 822 717.8C789 745 753.2 767.6 715.8 788.4C715.6 788.4 715.2 788.4 714.8 788.6H715Z" fill="#F5E817"/>
<path d="M308.6 763.6C301 771.6 293.4 779.6 285.8 787.4C268.4 778.6 251.8 768.2 235.2 757.8C216.2 745.8 198.2 732.8 180.8 718.6C178.2 716.4 175.6 714.4 173.8 711.6C172 708.6 171.4 705.4 173.8 702.4C176 699.4 179.2 699.2 182.4 700.4C188 702.2 193 705.2 197.8 708.4C217.4 721.6 236.6 735 256.6 747.6C272.4 757.6 289.4 764.4 308.6 763.8V763.6Z" fill="#F5E817"/>
<path d="M256 863C253 869.6 249.8 876.2 246.8 882.8C245.6 885.6 244.4 886.6 241.2 885C236.8 882.6 230.2 881.6 228.4 878.2C226.6 874.6 231.4 869.4 233.4 864.8C238.6 853.2 244.2 841.6 249.2 830C251 826 252.6 825.8 256.2 827.6C261 830.2 266 832.4 271 834.4C274.2 835.6 275 837.4 274.6 840.8C273.2 851.2 271.8 861.8 270.4 873.8C276.6 867 281.8 861.2 287.2 855.4C292.933 849.134 299.533 847.733 307 851.2C310.4 852.8 313.6 854.4 317 855.8C319.2 856.6 319.2 857.6 318.4 859.6C311 875.6 303.6 891.4 296.4 907.4C295.6 909.4 294.6 910 292.6 908.8C292.4 908.8 292 908.4 291.8 908.4C287.2 906.2 280.4 905 278.6 901.4C276.8 897.6 282 892.4 283.8 887.6C285.4 883.8 287.2 880.2 288.8 876.6C288.4 876.4 288.2 876.2 287.8 876C282.2 882 276.4 887.8 271.2 894.2C268.8 897 266.8 897.2 263.6 895.6C254.4 891 254.4 891.2 255.6 881.2C256.2 876.6 256.4 872 257 867.4C257.6 866 257.6 864.6 257.2 863.2C256.8 862 256.4 863.2 256 863.2V863Z" fill="#076C31"/>
<path d="M408.4 908.4C416 912 416.8 917.6 415.8 924.4C415.2 927.8 413.4 931.4 415.4 935C416.4 936.8 414.6 936.8 413.4 936.6C407.6 935.6 402 934.6 396.2 933.6C394.4 933.2 394.2 932.2 394.2 930.8C394.4 927.6 394.8 924.6 395.2 921.4C395.8 915.6 394.2 913.2 388.4 911.8C382 910.2 378.133 912.667 376.8 919.2C376.2 922.6 376.4 927.2 374.4 929C372.2 930.8 367.8 928.4 364.4 927.8C354.4 926.2 354.4 926 356.2 916C358.8 901.4 361.6 887 364 872.4C364.6 869.2 365.4 868.8 368.4 869.4C379.2 871.6 390.2 873.4 401.2 875.6C403.6 876 406 876.8 408.4 877.6C416.4 880.4 421 886 421 892.6C421 900.6 417.8 904.8 408.4 908.4Z" fill="#076C31"/>
<path d="M672.8 914.8C658.8 914.8 648.4 907.2 644.2 893.8C640 880.4 644 868.2 655.4 860.2C663 854.8 671.8 852.2 681 852.2C695.4 852.2 705.6 860 709.6 873.8C713.4 887.4 708.6 900.4 696.8 908C690.2 912.2 680.6 915 672.8 915V914.8Z" fill="#076C31"/>
<path d="M607.2 870.6C616.2 870.2 623.6 872.8 628.2 881.2C629.6 883.8 629.4 885 626.2 885.2C623.2 885.4 620.4 886.4 617.4 886.8C613.6 887.4 609.8 889.2 606.4 885.2C605.8 884.4 603.8 884.4 602.6 884.6C599.4 885.2 594.4 884.8 594.6 889.4C594.6 893.6 599.2 892.6 602.2 892.8C608 893.2 613.8 893 619.6 894C628.2 895.2 634 899.8 635.2 906.4C636.8 914 633.4 921.6 626.2 925.8C615.6 932 604.2 934 592.2 931.6C586 930.4 581 927 578 921C577 918.8 577.2 917.6 579.8 917.2C584.8 916.4 590 915.4 595 914.4C596.2 914.2 597.2 914.4 598 915.2C602.4 919.8 607.4 918 612.4 916.4C614 916 615.4 914.8 615.2 912.8C615 911 613.6 910 611.8 909.6C607.8 908.6 603.6 909 599.4 908.8C595 908.8 590.8 908.2 586.6 907.2C580.4 905.8 575.8 902.6 574.6 896.2C573.2 889.4 575 883.4 580.6 878.8C588.4 872.6 597.6 871 607.2 870.6Z" fill="#076C31"/>
<path d="M548.2 897C544.8 897.2 541.8 897.4 538.8 894.4C536.4 891.8 532.2 892.6 528.8 894C527.4 894.6 526.2 895.6 526.2 897.2C526.2 899 527.6 899.8 529.2 900C534.4 901 539.6 901.6 544.8 902.8C548 903.4 551.4 904.2 554.4 905.2C560.4 907.4 564.6 911.6 565.2 918.2C565.8 924.6 563.4 930.4 558.2 933.8C544.8 942.2 530.6 943.2 516 936.8C514 936 512.4 934.4 510.8 933C508.4 930.4 505.6 927.2 506.6 924C507.4 921.6 511.6 923.2 514.2 922.8C516.4 922.4 518.8 922.4 521.2 922.2C524 921.8 526.4 921.8 528.6 924.6C530.8 927.6 539.4 927.6 542.6 925.4C543.8 924.6 544.6 923.6 544.4 922.2C544.2 920.6 543 919.4 541.6 919.2C537.8 918.4 534.2 917.8 530.4 917.2C526 916.6 521.6 915.8 517.4 914.4C511.4 912.2 506.8 908.8 506 902C505.2 894.6 508 888.8 514.4 884.8C521.6 880.4 529.6 879.6 537.8 879.8C542.8 879.8 547.8 880.4 552.2 883C554 884 555.8 885.4 557.2 887C559.2 889.4 561.8 892.4 561 895.2C560.4 897.6 556.4 896 554 896.6C552 897 550 897 548 897.2L548.2 897Z" fill="#076C31"/>
<path d="M495 940.4C488.4 940.4 482 940.4 475.8 940.4C473.4 940.4 473.2 938.6 473 937C472.4 933.4 470.8 932 467 932.2C463.8 932.4 460.8 932 457.6 931.6C453.2 931.2 449.4 931 448.6 936.8C448.6 937.8 448 938.6 446.6 938.6C440.2 938.4 433.8 938.6 427 937.4C435.4 918.8 443.8 900.8 451.8 882.8C452.8 880.8 454 880.8 455.8 880.8C461.2 881 466.8 881.4 472.2 881.6C473.6 881.6 474.6 881.6 475.2 883.4C481.8 902.2 488.4 921.2 495 940.2V940.4Z" fill="#076C31"/>
<path d="M726 832C728.2 832 728.4 833.8 729 835C734.4 845.4 739.6 855.6 744.8 866C746.2 868.8 747.4 869.4 750.4 867.8C756.8 864.2 763.4 861.4 769.8 857.8C772.6 856.2 773.4 857.2 774.6 859.4C780.2 870 780.2 869.8 769.6 875.2C759 880.6 748.2 885.8 737.6 891.4C735 892.8 734.2 892.4 732.8 890C725.2 874.8 717.4 859.4 709.6 844.4C708 841.6 708.8 840.4 711.4 839.2C716.4 837 721.2 834.4 726 832Z" fill="#076C31"/>
<path d="M351.6 866.4C351.4 867.4 351 868.4 350.8 869.2C346.2 885 341.4 900.8 337 916.8C336.2 919.6 335.4 921 332 919.8C327.6 918.2 322.8 917 318.2 915.8C315.8 915.2 315 914.2 315.8 911.6C320.8 895 325.6 878.4 330.6 861.6C331.2 859.8 331.6 858.6 334 859.4C339.2 861 344.4 862.4 349.8 864C351 864.4 352 864.8 351.8 866.2L351.6 866.4Z" fill="#076C31"/>
<path d="M256 863C256.4 862.2 256.6 861.2 257.6 859C258 862.6 258 864.8 257 867C256.6 865.6 257.4 864 256 862.8V863Z" fill="#D5D41E"/>
<path d="M499.8 51.0001C695.4 50.2001 860.6 210 858.4 413.6C856.4 608.2 698.8 768.4 499.2 768.2C296.8 768 138.6 602.4 141 405C143.4 209.2 303.4 50.4001 499.8 51.0001Z" fill="#076C31"/>
<path d="M548.6 813.4C550.8 813.4 553.4 813.6 553.6 815.4C554.2 819.6 555.8 823.6 556.4 827.8C556.6 829.8 554.8 831.4 552.6 831.8C549.4 832.4 545.6 833.8 542.8 832.8C539.4 831.6 541.4 827.2 540.6 824.4C540.6 824 540.6 823.8 540.6 823.4C539.2 814 539.6 813.4 548.8 813.4H548.6Z" fill="#0B6E34"/>
<path d="M574.8 828C571.6 829.6 570.6 826.4 568.8 825C567.4 823.8 566 821.4 563.8 822.4C561.6 823.4 563.6 825.6 563.6 827.2C563.6 828.4 564.8 829.8 562.4 830.2C560.4 830.6 559.8 829.8 559.6 828C559 823.4 558 818.8 557.2 814.4C557.2 813.6 556.6 812.6 557.8 812.4C562 811.6 566.2 809.6 570.4 811.2C573.2 812.4 574 815.8 572.6 817.4C569.2 821.2 572.6 822.6 574.2 824.8C574.8 825.6 575.8 826 575.8 827.2C575.6 827.6 575.2 827.8 574.8 828Z" fill="#0B6D33"/>
<path d="M515.4 826.2C515.4 832 512 835.8 506.4 835.8C500.8 835.8 497.2 831.8 497.2 825.8C497.2 820 500.8 816.2 506.2 816.2C511.8 816.2 515.2 820 515.2 826.2H515.4Z" fill="#0D6E35"/>
<path d="M422.4 816.4C422.4 822.8 418.8 826.6 413.4 826.6C407.6 826.6 404 823 404 817.4C404 811.2 407.6 807 413 807.2C418.8 807.2 422.4 810.8 422.4 816.4Z" fill="#0B6D33"/>
<path d="M377.6 797.4C380.8 798.2 384.4 798.4 385.6 802.4C385.8 803.4 386.2 804.6 385.2 805.2C384.2 805.8 383 805.4 382.2 804.4C381.6 803.6 381.4 802.6 380.6 802C379.4 801 377.6 800.4 376.6 802C375.6 803.4 377.2 804.2 378.4 805C379 805.4 379.8 805.8 380.4 806.4C383 808.2 385 810.2 383.8 813.8C382.8 816.8 380.4 817.8 377.6 817.6C374 817.2 370.6 816.2 369.6 812.2C369.4 811.2 368.6 809.4 370.4 809C371.6 808.8 373 809.2 373.4 811C373.4 811.8 374 812.6 374.6 813C376 814.2 378 815 379.4 813.4C381.2 811.4 379 810.6 377.8 809.6C376.6 808.8 375.4 808 374.2 807C372.4 805.4 371.8 803.4 372.6 801.2C373.4 798.8 375.4 798.2 377.6 797.8V797.4Z" fill="#0D6E35"/>
<path d="M600.6 822.2C599.8 822.2 598.8 822.2 598 821.6C596.4 820.6 594 819.4 595 817.4C596 815.6 597.8 816.2 599.4 817.8C600.6 819.2 602.6 818.6 604 817.8C604.8 817.2 605.6 816.4 605.2 815.4C604.4 813.6 602.8 814.2 601.2 814C600.8 814 600.6 814 600.2 814C597.4 814 594.4 813.6 593.2 810.4C592.4 808.4 592.8 806.4 594.4 805C597 802.6 600.4 802.2 603.8 803.2C605.2 803.6 606.8 805 606.4 806.4C605.8 807.8 603.8 808.4 602.4 807C601.6 806.2 600.6 806.2 599.6 806.2C598.4 806.2 597.2 806.8 597 808C596.8 809.6 598.4 809.6 599.4 809.8C600.4 809.8 601.4 809.8 602.4 809.8C606.2 809.6 609.2 811 609.6 815C610 819.2 607 820.6 603.6 821.6C602.8 821.8 602 821.8 601 822L600.6 822.2Z" fill="#0D6F35"/>
<path d="M443.4 831.8C446.2 826.4 448.6 821.6 451 816.8C451.8 815.2 452.4 813.8 454.6 814.2C456.4 814.4 457 815.6 457.4 817.2C458.6 821.8 460 826.4 461.2 831C461.4 831.8 462.8 833.4 460.8 833.8C459.6 834 458.2 833.8 457.4 832.4C454.6 828 451.6 827.6 448.2 831.4C447.533 832.067 445.933 832.267 443.4 832V831.8Z" fill="#0C6E34"/>
<path d="M574.8 828C575.2 827.8 575.4 827.4 575.8 827.2C578.6 822.8 577.6 817.6 578.8 813C579.4 811 578.4 808 581.8 807.4C584.8 806.8 585.2 809.4 586.4 811C588.8 814.4 591.2 817.8 593.4 821.2C594 822 595 823 594 823.8C593.4 824.4 591.6 824.6 591.2 824.2C586.2 819.4 582.8 819.6 580.2 826.6C579.6 828 576.6 828 574.6 828H574.8Z" fill="#0C6E34"/>
<path d="M464.4 827C464.6 824 464.8 821 465.2 818C465.2 816.8 465.2 815.2 467.2 815.4C469.4 815.4 469.4 817 469.2 818.6C469 821.4 468.6 824.2 468.4 827C468.4 829.4 469 831.4 471.8 831.6C474.8 831.8 475.2 829.8 475.4 827.4C475.4 824.6 475.8 821.8 476.2 819C476.2 817.8 475.8 816.2 478 816.4C480.2 816.4 480.2 817.8 480.2 819.4C480 822.2 479.6 825 479.4 827.8C478.8 833.4 476.6 835.6 471.6 835.2C466.4 834.8 464.4 832.6 464.4 827.2V827Z" fill="#0D6E35"/>
<path d="M383.4 818.8C387 814 390.4 809.4 393.8 804.6C394.8 803.2 396 803 397.6 803.4C399.4 803.8 399.4 805 399.4 806.4C400 811.2 400.6 816 401 820.6C401 821.6 402 823.2 400.4 823.4C399.2 823.4 397.6 823.4 397 821.4C395.8 816.8 391.4 815.4 388.2 818.6C386.4 820.6 385 819.2 383.2 818.6L383.4 818.8Z" fill="#0B6E34"/>
<path d="M438.2 824C435.6 822.8 434.6 824.4 434.4 827.4C434.4 828.8 434.4 830.6 432 830.2C429.2 829.8 430.2 827.8 430.4 826.4C430.8 823.8 431.2 821.2 431.8 818.6C432.4 816.2 431.4 812.4 433.6 811.8C436.8 811 440.6 811.8 443.6 813.6C446.6 815 446.6 817.8 445.8 820.6C444.8 824 442 824.8 438 824.2L438.2 824Z" fill="#0D6E35"/>
<path d="M622.2 816.2C620.4 816.4 620.2 815.4 619.8 814.6C618.4 810.2 617 805.8 615.8 801.4C615.4 800 615.2 798.8 617.2 798.4C618.6 798.2 619.4 798.8 619.8 800C620.2 801.6 620.6 803.2 621.2 804.8C622 807.2 622.2 810.2 623.8 811.6C625.4 813 628 810.8 630.2 810.4C631 810.4 632.2 809.6 632.8 811C633.2 811.8 633.4 813 632 813.4C628.6 814.4 625.4 815.4 622.4 816.4L622.2 816.2Z" fill="#0D6F35"/>
<path d="M483 826.4C483 824 483 821.4 483 819C483 817.2 484 816.8 485.6 816.8C487.4 816.8 487.2 818.2 487.2 819.2C487.2 821 487.2 822.8 487.2 824.6C487.2 829.134 489.4 831.6 493.8 832C495 832 496.2 831.8 496.2 833.6C496.2 835.8 494.8 835.4 493.4 835.4C492.8 835.4 492 835.4 491.4 835.4C485.8 835.134 483 832.134 483 826.4Z" fill="#0C6E34"/>
<path d="M616.6 815.6C616.8 817 616.6 818 615.4 818.2C614.2 818.6 613.2 818.2 612.6 817C611.2 812.2 609.8 807.6 608.6 802.8C608.2 801.6 608.6 800.6 610 800.2C611 800.2 612 800 612.4 801.2C613.8 806 615.2 811 616.6 815.6Z" fill="#117037"/>
<path d="M528.2 829.4C526.4 829.4 524.6 830 525 827.6C525.4 824.6 528.2 826.2 529.8 825.6C531.2 825 532.4 826 532.2 827.6C531.8 830.6 529.4 828.8 528.4 829.4H528.2Z" fill="#1D7741"/>
<path d="M402.6 799.8C402.4 802 401.6 802.4 400.6 802.6C398.4 802.6 396.8 799.6 394.4 801.2C394.4 800.8 393.8 800.2 394 800C394.4 798.8 395.4 798.2 396.6 798.4C398.8 799 400.2 801 402.8 800L402.6 799.8Z" fill="#1F763F"/>
<path d="M393.4 899.4C391.2 899 389 898.2 386.8 898.2C381.2 898.2 381.2 895.2 382 890.8C382.6 887.2 384 886 387.4 887C390 887.8 393 888 395.6 888.8C398.8 889.6 401 891.4 400.4 895.2C400 898 397.2 899.6 393.4 899.4Z" fill="#F4E717"/>
<path d="M663.4 882.4C663.4 874 666.8 869.4 673 867.6C678.6 866.2 683.8 868.6 687 874.4C689.2 878.4 690.4 882.6 690.2 887.2C690 892.8 687.2 896.6 682.2 898.6C677 900.6 672.6 899.6 668.8 895.2C665 891.2 663.4 886.2 663.2 882.2L663.4 882.4Z" fill="#F5E817"/>
<path d="M455.2 919.6C457.6 913 460 906.8 462.6 899.6C464.6 906.4 466 912 467.8 917.6C468.4 919.8 467.8 920.6 465.4 920.2C462.2 919.8 458.8 919.8 455.2 919.6Z" fill="#F1E618"/>
<path d="M150.8 409.2C150.6 219.6 303.6 60.4003 500 60.6003C698.8 60.6003 853.2 224.4 848.6 417.8C844.2 604.8 690.2 761.4 493.6 758.2C303 755.2 150.4 599.4 150.6 409.2H150.8Z" fill="#FEFEFE"/>
<path d="M548.6 828.8C545.2 829.6 544.8 828.6 544.6 826.8C544.4 823.6 546.8 824.6 548.2 824.4C549.8 824.2 552 824 552 826.4C552 829.6 549.2 828.8 548.6 829V828.8Z" fill="#F3F6F4"/>
<path d="M547.6 816.8C549 816.8 550.6 816.8 550.6 818.4C550.6 821.2 548 820.8 546.2 821.2C544.6 821.4 543.8 821.2 543.6 819.2C543.6 816 546.2 817.6 547.4 816.8H547.6Z" fill="#ECF1ED"/>
<path d="M565.6 814C567.2 814 568.8 814 568.8 815.8C568.8 819 565.8 818.2 564 819C562.2 819.6 561.8 818.4 561.8 816.8C561.4 813.2 564.4 814.8 565.8 814H565.6Z" fill="#F3F6F3"/>
<path d="M511.4 826.2C511 829.6 510 832.4 506 832.2C502.2 832.2 501.2 829 501.2 825.8C501.2 822.6 502.4 819.6 506.2 819.6C510.4 819.6 511 822.8 511.4 826V826.2Z" fill="#FBFCFB"/>
<path d="M418.4 816.8C417.8 820 417 823.2 413 823.2C409.4 823.2 408 820.6 408.4 817C408.8 813.6 410 810.6 414 810.8C417.4 810.8 418.8 813.4 418.6 816.8H418.4Z" fill="#FBFCFB"/>
<path d="M453.8 820C454.8 821.8 455.8 823.4 454.6 825.2C454.4 825.6 452.2 825.4 452 825.2C451.2 823.2 452.8 821.8 453.8 820.2V820Z" fill="#EEF3EF"/>
<path d="M582.6 812C584.2 814.6 585.2 816 586 817.4C584.8 818.4 583 819 582.4 818.4C581 816.8 582.4 815.2 582.6 812.2V812Z" fill="#DEE9E0"/>
<path d="M396.2 808.4C396.2 811 397.4 812.8 395.6 814.2C395.2 814.6 393.2 814 393 813.6C392.6 811.4 394.2 810.2 396.2 808.4Z" fill="#DDE7DF"/>
<path d="M442.2 818C442.2 820 440.8 820.8 439.2 820.6C438 820.4 435.4 821.2 436 818.4C436.2 817.2 435.4 815 438 815.4C439.8 815.8 441.6 815.8 442.2 818Z" fill="#F4F7F5"/>
<path d="M499.6 746.8C314.4 747.2 162.8 596.2 162 412C161.2 224.6 311.6 74.4 495.2 72.2C681.4 69.8 836.4 218.6 837.2 408.2C838 598.6 683.8 747.4 499.6 747V746.8Z" fill="#F5E817"/>
<path d="M357.8 321.2C351 337.6 344.8 352.6 338.6 367.4C334.2 378.2 329.6 388.8 325.4 399.6C324 403.2 322.2 404.4 318.4 404C311.4 403.6 304.4 403.6 297.6 403.6C294 403.6 292.4 402.2 291 399C282 378.2 273 357.4 264 336.6C263.2 334.8 262.4 333 261.6 331.2C259.6 331.4 259.8 333.2 259.6 334.2C240.6 397 244.8 458.2 272.8 517.8C283.6 541 298 561.8 315.4 580.4C317 582 318 583.6 318 586C318 609.4 318 632.8 318 656.2C318 657 318 657.8 317.8 659.2C309.4 653.6 302.2 647.6 295.2 641.4C239 591.2 204.2 528.8 193.8 454.2C180.8 361 205.4 278.2 266.2 206.2C268.8 203.2 269.6 203.4 271.4 207C284.2 234.2 297.2 261.4 310.4 289C312.4 287.6 312.4 285.4 312.8 283.8C328.2 235.2 343.4 186.4 358.6 137.8C359.6 134.6 361 132.8 364 131.4C379.2 124.2 395 118 411.2 113C415.2 111.8 415.8 113 415.8 116.6C415.6 137.6 415.6 158.8 415.6 179.8C415.6 353.2 415.6 526.6 415.6 700.2C415.6 701.6 415.6 702.8 415.6 704.2C415.8 707 414.6 707.2 412.4 706.4C394.8 700.6 377.6 693.4 360.6 686C357.8 684.8 358 682.6 358 680.2C358 659.8 357.6 639.4 357.6 619C357.6 556.2 357.6 493.6 357.6 430.8C357.6 403 357.6 375 357.8 347.2C357.8 339.2 357.8 331 357.8 321.4V321.2Z" fill="#076C31"/>
<path d="M437.4 409.4C437.4 310.2 437.4 211 437.4 111.6C437.4 107 439 105.8 443 105.2C494.8 96.0002 545.6 99.2002 595.8 115.2C601 116.8 602.6 119 602.6 124.4C602.2 141 602.6 157.6 602.6 174.2C602.6 179.6 602.6 179.8 597.6 177.6C566.4 164.4 533.8 157.8 499.8 157.8C496 157.8 495.2 158.6 495.2 162.4C495.2 232.2 495.2 301.8 495.2 371.6C495.2 375.4 496.4 376.2 500 376.2C519 376.2 537.8 376.2 556.8 376.2C560.2 376.2 561.2 377 561.2 380.6C561.2 399.6 561.2 418.4 561.2 437.4C561.2 440.8 560.2 441.6 557 441.6C538.2 441.6 519.4 441.6 500.8 441.6C496.4 441.6 495.4 442.6 495.4 447C495.4 535.6 495.4 624.2 495.6 712.8C495.6 717.8 494.8 719.6 489.4 719.2C473.4 718.2 457.8 716.6 442 714C438 713.4 438 711.2 438 708.2C438 608.8 438 509.4 438 410L437.4 409.4Z" fill="#076C31"/>
<path d="M624 126.4C630.6 128.6 636.4 131.8 642.4 135C695.2 162.8 736.6 202.2 767 253.4C768.8 256.6 768.6 258 765.6 260C752 269.4 738.6 278.8 725.4 288.4C722.6 290.4 721.4 290.4 719.6 287.2C709.2 268.6 696.8 251.6 681.6 235.6V583.2C702.2 561.8 718 537.8 730.2 511C745.2 523.2 759.6 535.2 774.2 547C776.4 548.8 775.6 550.2 774.6 552C761.4 577.4 745 600.8 725.4 621.6C697.6 651 665.4 674.2 628.6 691C627.2 691.6 625.8 692.8 624 692.6C621.6 676 621.8 151 624.2 126.6L624 126.4Z" fill="#076C31"/>
</svg>
