<?xml version="1.0" encoding="utf-8"?>
<!-- Generator: Adobe Illustrator 28.0.0, SVG Export Plug-In . SVG Version: 6.00 Build 0)  -->
<svg version="1.1" id="Layer_1" xmlns="http://www.w3.org/2000/svg" xmlns:xlink="http://www.w3.org/1999/xlink" x="0px" y="0px"
	 viewBox="0 0 49.317 68" enable-background="new 0 0 49.317 68" xml:space="preserve">
<path fill="#27682E" d="M49.317,0v57.544C49.317,63.318,44.635,68,38.86,68H10.456C4.681,68,0,63.318,0,57.544V0H49.317"/>
<path fill="#FFFFFF" d="M48.33,0.986H0.986v56.558c0,5.222,4.248,9.47,9.47,9.47H38.86c5.222,0,9.47-4.248,9.47-9.47V0.986
	L48.33,0.986z"/>
<path fill="#27682E" d="M46.522,2.548H2.548v54.996c0.001,4.361,3.547,7.908,7.908,7.909h28.405
	c4.361-0.001,7.907-3.547,7.908-7.909V2.548H46.522z"/>
<rect x="3.041" y="3.041" fill="#FFFFFF" width="43.234" height="16.95"/>
<rect x="20.425" y="20.483" fill="#FFFFFF" width="8.466" height="44.475"/>
<path fill="#FFFFFF" d="M3.041,20.483v37.06c0,2.045,0.831,3.897,2.174,5.241c1.343,1.343,3.196,2.174,5.241,2.174h1.503V20.483
	H3.041z"/>
<path fill="#FFFFFF" d="M37.357,20.483v44.475h1.503c2.044,0,3.896-0.831,5.24-2.174c1.343-1.344,2.174-3.196,2.174-5.241v-37.06
	H37.357z"/>
<path d="M21.533,12.063V5.709h3.272c0.607,0,1.07,0.052,1.391,0.156c0.321,0.104,0.579,0.297,0.776,0.579
	c0.197,0.282,0.295,0.625,0.295,1.029c0,0.353-0.075,0.657-0.226,0.913c-0.15,0.255-0.357,0.463-0.62,0.622
	c-0.167,0.102-0.398,0.185-0.69,0.252c0.234,0.079,0.404,0.156,0.511,0.234c0.072,0.052,0.177,0.164,0.314,0.334
	c0.137,0.171,0.228,0.302,0.275,0.395l0.951,1.841h-2.218l-1.05-1.942c-0.133-0.252-0.251-0.415-0.355-0.49
	c-0.142-0.098-0.302-0.147-0.481-0.147h-0.173v2.579H21.533z M23.505,8.284h0.828c0.09,0,0.263-0.029,0.52-0.087
	c0.13-0.026,0.236-0.092,0.318-0.199c0.083-0.107,0.123-0.229,0.123-0.368c0-0.206-0.065-0.363-0.195-0.473
	c-0.13-0.11-0.375-0.164-0.733-0.164h-0.862V8.284z"/>
<path d="M12.947,14.613l1.721,0.521c-0.116,0.482-0.298,0.886-0.546,1.209c-0.249,0.324-0.557,0.568-0.925,0.733
	c-0.369,0.165-0.837,0.247-1.407,0.247c-0.69,0-1.255-0.101-1.692-0.301c-0.438-0.201-0.816-0.554-1.134-1.059
	c-0.318-0.505-0.477-1.152-0.477-1.94c0-1.051,0.279-1.859,0.839-2.424c0.559-0.564,1.35-0.847,2.373-0.847
	c0.8,0,1.43,0.162,1.888,0.485c0.458,0.324,0.798,0.821,1.02,1.491l-1.734,0.386c-0.061-0.194-0.124-0.335-0.19-0.425
	c-0.11-0.15-0.244-0.266-0.403-0.347c-0.159-0.081-0.337-0.122-0.533-0.122c-0.445,0-0.786,0.179-1.022,0.537
	c-0.18,0.266-0.269,0.683-0.269,1.251c0,0.704,0.107,1.187,0.321,1.448c0.214,0.261,0.514,0.392,0.901,0.392
	c0.376,0,0.66-0.105,0.852-0.316C12.721,15.321,12.86,15.015,12.947,14.613z"/>
<path d="M33.682,10.86h2.583l0.996,3.866l0.989-3.866h2.581v6.354h-1.608v-4.846l-1.239,4.846h-1.456l-1.237-4.846v4.846h-1.608
	V10.86z"/>
<path d="M24.659,32.072c-5.633,0-10.199,4.566-10.199,10.199c0,5.633,4.566,10.199,10.199,10.199
	c5.632,0,10.198-4.566,10.198-10.199C34.857,36.639,30.291,32.073,24.659,32.072z"/>
<polygon fill="#FFFFFF" points="27.054,49.549 24.794,48.64 24.794,46.448 28.589,43.691 30.673,44.368 30.839,46.798 "/>
<polygon fill="#FFFFFF" points="22.263,49.549 18.477,46.798 18.643,44.368 20.727,43.691 24.523,46.448 24.523,48.64 "/>
<polygon fill="#FFFFFF" points="22.319,34.975 26.998,34.975 28.292,37.039 27.004,38.812 22.313,38.812 21.025,37.039 "/>
<polygon fill="#FFFFFF" points="30.874,37.792 32.32,42.242 30.757,44.11 28.673,43.433 27.223,38.972 28.512,37.199 "/>
<polygon fill="#FFFFFF" points="20.806,37.199 22.094,38.972 20.644,43.433 18.559,44.11 16.997,42.242 18.442,37.792 "/>
<path fill="#FFFFFF" d="M16.781,42.407l1.594,1.906l-0.17,2.479l-1.656,1.203c-1.12-1.583-1.788-3.507-1.815-5.588H16.781z"/>
<path fill="#FFFFFF" d="M30.941,44.313l1.594-1.906h2.047c-0.028,2.081-0.695,4.005-1.815,5.588l-1.656-1.204L30.941,44.313z"/>
<path fill="#FFFFFF" d="M32.61,36.327l-1.658,1.205l-2.41-0.604l-1.32-2.105l0.633-1.949c1.455,0.495,2.76,1.316,3.823,2.379
	C32.014,35.587,32.325,35.946,32.61,36.327z"/>
<path fill="#FFFFFF" d="M17.639,35.251c1.063-1.063,2.368-1.884,3.824-2.379l0.633,1.949l-1.32,2.105l-2.41,0.604l-1.658-1.205
	C16.992,35.946,17.303,35.587,17.639,35.251z"/>
<path fill="#FFFFFF" d="M21.719,51.756l0.634-1.951l2.306-0.927l2.305,0.927l0.634,1.951c-0.929,0.288-1.916,0.442-2.939,0.442
	C23.635,52.198,22.648,52.043,21.719,51.756z"/>
</svg>
