<?xml version="1.0" encoding="utf-8"?>
<!-- Generator: Adobe Illustrator 13.0.0, SVG Export Plug-In . SVG Version: 6.00 Build 14948)  -->
<!DOCTYPE svg PUBLIC "-//W3C//DTD SVG 1.0//EN" "http://www.w3.org/TR/2001/REC-SVG-20010904/DTD/svg10.dtd">
<svg version="1.0" id="Ebene_1" xmlns="http://www.w3.org/2000/svg" xmlns:xlink="http://www.w3.org/1999/xlink" x="0px" y="0px"
	 width="336.796px" height="441.766px" viewBox="0 0 336.796 441.766" enable-background="new 0 0 336.796 441.766"
	 xml:space="preserve">
<path fill="#003587" d="M168.398,441.766c-35.425-17.353-71.968-44.299-100.999-75.343c-26.244-28.064-46.733-60.637-58.205-99.388
	C4.35,250.673,1.184,233.278,0,214.788c13.689-7.739,44.684-23.434,55.788-51.161l0,0l19.784,0.019l0,0
	c-6.979-3.868-26.464-26.259-26.006-53.801c0.583-35.148,21.244-45.989,20.879-74.981C70.323,25.201,68.925,13.816,62.317,0
	c14.053,6.646,23.385,12.407,43.884,12.466c24.267,0.07,31.536-9.57,62.196-10.062c30.66,0.492,37.929,10.133,62.196,10.063
	c20.5-0.059,29.831-5.821,43.884-12.466c-6.608,13.816-8.006,25.201-8.127,34.864c-0.365,28.992,20.295,39.833,20.879,74.981
	c0.458,27.542-19.027,49.933-26.006,53.801l0,0l19.784-0.02l0,0c11.104,27.727,42.099,43.421,55.789,51.16
	c-1.184,18.491-4.351,35.886-9.195,52.246c-11.472,38.753-31.96,71.324-58.205,99.388
	C240.366,397.467,203.823,424.413,168.398,441.766L168.398,441.766z"/>
<path fill="#FFFFFF" d="M168.398,432.314C121.76,407.258,76,371.229,45.543,324.945C25.37,294.29,11.91,259.135,9.355,219.691
	c12.703-7.352,39.902-21.398,51.771-47.934l0,0l16.118-0.046l6.318-5.533l-0.043-6.984l0,0
	c-7.063-3.871-25.801-24.454-25.378-50.617C58.599,80.17,79.1,65.945,79.001,35.409c-0.011-3.537-0.127-12.223-1.957-19.443
	c9.805,3.863,21.364,5.108,30.341,5.101c21.669-0.019,39.559-10.018,61.012-10.136c21.452,0.135,39.342,10.135,61.012,10.153
	c8.977,0.007,20.537-1.238,30.341-5.101c-1.828,7.221-1.946,15.907-1.957,19.443c-0.099,30.536,20.403,44.762,20.863,73.168
	c0.422,26.163-18.316,46.747-25.379,50.617l0,0l-0.044,6.985l6.318,5.533l16.117,0.045l0,0
	c11.869,26.537,39.069,40.582,51.772,47.935c-2.556,39.443-16.016,74.599-36.188,105.254
	C260.795,371.248,215.037,407.276,168.398,432.314L168.398,432.314z"/>
<path fill="#003587" d="M168.398,418.42c-42.2-21.953-85.436-57.422-114.117-102.01c-17.491-27.193-29.571-57.778-32.7-90.756
	c7.626-4.191,29.276-15.159,44.382-38.932l0,0l102.435,23.287l102.434-23.298l0,0c15.107,23.772,36.756,34.739,44.382,38.931
	C306.954,312.697,236.333,383.067,168.398,418.42L168.398,418.42z"/>
<path fill="#FFFFFF" d="M175.704,221.517l-0.015,32.524c0,0,10.279,0,13.901,0c0,5.33,0.012,71.882,0.012,71.883
	c0,4.449-1.213,7.905-3.604,10.272c-2.489,2.462-6.178,3.684-10.967,3.633l-13.238,0.017c-4.816,0.051-8.505-1.171-10.994-3.633
	c-2.392-2.367-3.604-5.823-3.604-10.272c0-0.001,0.011-66.554,0.012-71.883c3.622,0,13.901,0,13.901,0l-0.016-35.406l-77.125,0.017
	v35.389c0,0,11.443,0,15.233,0c-0.002,5.397-0.032,86.512-0.032,86.512l39.644,38.75l59.172-0.017l39.643-38.751
	c0,0-0.031-81.114-0.033-86.511c3.791,0,15.234,0,15.234,0v-35.39l-77.123-0.017L175.704,221.517z"/>
<path fill="#DD001A" d="M168.398,64.482c-25.771-18.2-45.799-24.368-63.644-26.68c14.244-9.929,40.838-20.283,63.644-19.201
	c22.805-1.083,49.399,9.272,63.644,19.201C214.196,40.114,194.168,46.282,168.398,64.482L168.398,64.482z"/>
<path fill="#DD001A" d="M168.398,185.237l-42.106-9.546l0,0c7.028-4.413,20.687-23.265,19.695-42.754
	c-9.877,7.095-22.242,11.327-34.347,11.38c-20.176,0.088-38.712-10.866-38.731-37.064c-0.018-23.084,18.875-28.979,18.45-48.86
	c-0.069-3.253-0.663-6.887-1.946-11.039c36.729-0.942,61.405,17.328,78.985,36.308c17.581-18.98,42.256-37.25,78.986-36.308
	c-1.285,4.152-1.877,7.786-1.947,11.039c-0.425,19.881,18.467,25.776,18.45,48.86c-0.02,26.199-18.556,37.152-38.732,37.064
	c-12.105-0.053-24.469-4.285-34.347-11.38c-0.991,19.49,12.667,38.342,19.696,42.754l0,0L168.398,185.237L168.398,185.237z"/>
<path fill="#FFFFFF" d="M120.49,77.701c13.557,0,24.614,10.76,24.614,23.953c0,13.193-11.057,23.953-24.614,23.953
	s-24.614-10.759-24.614-23.953C95.876,88.461,106.934,77.701,120.49,77.701L120.49,77.701z"/>
<path fill="#FFFFFF" d="M216.306,77.701c-13.558,0-24.614,10.76-24.614,23.953c0,13.193,11.057,23.953,24.614,23.953
	c13.556,0,24.613-10.759,24.613-23.953C240.919,88.461,229.861,77.701,216.306,77.701L216.306,77.701z"/>
<polygon fill="#DD001A" points="168.398,190.679 86.113,171.946 80.777,176.97 73.326,176.971 70.313,181.524 168.398,203.857 
	266.482,181.502 263.47,176.948 256.018,176.948 250.682,171.923 168.398,190.679 "/>
</svg>
