<svg width="1000" height="1000" viewBox="0 0 1000 1000" fill="none" xmlns="http://www.w3.org/2000/svg">
<path d="M895.39 419.892V221.547L883.232 224.924C882.152 225.228 773.54 255.826 727.879 208.038C675.431 153.259 717.984 49.0713 718.423 48.0243L722.037 39.2097L713.121 35.5961C681.63 23.8314 649.049 15.2223 615.856 9.89531C577.492 3.67519 538.712 0.36731 499.848 0C460.916 0.344073 422.067 3.65207 383.638 9.89531C350.448 15.234 317.868 23.8428 286.373 35.5961L277.457 39.2097L281.172 48.0919C281.611 49.1388 324.266 153.225 271.682 208.105C225.954 255.893 117.275 225.363 116.329 224.992L104.002 221.547V419.757C104.002 427.997 102.111 623.303 204.61 766.835C338.855 954.846 490.797 997.602 497.18 999.325L499.68 1000L502.145 999.325C508.562 997.602 660.504 954.846 794.715 766.835C897.248 623.303 895.492 427.997 895.357 419.892" fill="black"/>
<path d="M876.343 246.539C844.36 253.732 758.139 267.579 713.965 221.446C688.264 194.597 678.132 154.678 684.144 105.877C686.584 86.8739 690.952 68.169 697.18 50.0509C669.665 40.6313 641.428 33.4704 612.749 28.6392C575.417 22.643 537.69 19.437 499.882 19.0479C462.019 19.4643 424.238 22.6701 386.846 28.6392C358.099 33.4626 329.794 40.6236 302.212 50.0509C308.471 68.1622 312.851 86.8692 315.282 105.877C321.327 154.678 310.993 194.597 285.461 221.277C241.287 267.41 155.032 253.563 123.05 246.539V420.061C123.05 422.155 121.361 617.596 220.145 755.961C288.332 851.267 361.685 907.498 411.331 937.859C456.822 965.755 490.662 977.339 499.848 980.21C509.102 977.305 543.414 965.519 589.108 937.42C638.416 907.025 711.466 850.929 779.416 755.792C878.301 617.325 876.511 421.986 876.478 420.027L876.343 246.539ZM147.906 420.399V276.022C192.891 282.101 261.415 282.168 303.259 238.399C352.938 186.525 343.786 110.436 332.776 66.1603C351.95 60.722 371.41 56.3474 391.067 53.0566C427.02 47.3405 463.345 44.2814 499.747 43.9043C536.151 44.3196 572.476 47.4125 608.426 53.1579C628.03 56.4917 647.434 60.9114 666.549 66.3967C659.794 93.4146 653.715 132.388 661.483 170.449L188.669 643.263C146.994 532.32 147.906 421.817 147.906 420.399ZM759.186 741.405C652.904 890.206 532.911 941.979 499.679 954.171C473.235 944.749 392.553 910.537 306.805 821.615L851.587 276.63V420.365C851.587 422.256 852.972 609.963 759.119 741.405" fill="white"/>
<path d="M656.248 484.228V482.945H656.079L656.248 484.228Z" fill="white"/>
<path d="M335.613 609.761L336.086 609.491H335.782V609.66" fill="white"/>
<path d="M461.313 867.546C451.182 859.812 445.812 849.781 445.812 839.278C445.849 833.626 447.4 828.086 450.303 823.236L442.401 804.526C433.415 813.878 428.341 826.309 428.216 839.278C428.216 855.388 436.153 870.349 450.574 881.46C459.574 888.286 469.942 893.09 480.969 895.543L471.783 873.861C468.075 872.14 464.565 870.023 461.313 867.546Z" fill="white"/>
<path d="M545.543 768.39L541.153 778.758C546.833 780.285 552.397 782.215 557.803 784.533L565.064 767.376C566.942 762.651 570.453 758.757 574.959 756.4H543.044C544.635 757.816 545.74 759.698 546.2 761.777C546.661 763.857 546.455 766.029 545.611 767.984C545.582 768.118 545.56 768.254 545.543 768.39Z" fill="white"/>
<path d="M526.157 859.643H507.042L499.815 876.732L453.885 768.289V768.052C453.04 766.097 452.834 763.925 453.295 761.845C453.756 759.766 454.86 757.884 456.451 756.468H424.435C428.941 758.825 432.452 762.719 434.33 767.444L499.714 921.987L526.157 859.643Z" fill="white"/>
<path d="M555.066 791.017C549.655 788.702 544.078 786.794 538.383 785.31C536.12 784.702 533.79 784.161 531.459 783.655C521.645 781.66 511.653 780.664 501.638 780.683H500.794C489.996 780.744 479.298 782.757 469.217 786.627L475.971 802.838C484.147 799.782 492.809 798.237 501.537 798.278H502.01C509.493 798.305 516.96 798.96 524.333 800.237C526.731 800.642 529.061 801.115 531.358 801.689C537.137 803.026 542.787 804.868 548.244 807.194C549.224 807.599 551.182 808.511 551.216 808.545C552.464 809.143 553.605 809.941 554.593 810.909C556.591 812.897 557.853 815.505 558.173 818.305C558.173 818.542 558.173 818.677 558.173 818.677L561.213 814.253L571.344 799.798C568.249 797.654 565.011 795.725 561.652 794.023C559.389 792.942 557.261 791.929 555.066 791.017Z" fill="white"/>
<path d="M537.539 810.706C534.668 809.76 531.73 808.95 528.69 808.274L520.349 827.93H539.43L545.475 813.678C543.044 812.597 540.274 811.584 537.539 810.706Z" fill="white"/>
<path d="M498.227 852.584H552.905V869.166C544.362 873.391 535.267 876.392 525.887 878.082L517.883 897.029C536.523 895.378 554.502 889.312 570.331 879.332H570.534V834.989H490.73L498.227 852.584Z" fill="white"/>
<path d="M321.024 430.463C314.878 434.596 308.27 437.996 301.335 440.595L292.149 425.532C294.986 424.553 300.795 422.155 301.267 421.784H301.436C302.503 421.222 303.472 420.492 304.307 419.622C306.358 417.587 307.636 414.9 307.921 412.024C307.929 411.877 307.929 411.731 307.921 411.584L321.024 430.463Z" fill="white"/>
<path d="M251.791 431.983H251.521C246.818 431.976 242.127 431.535 237.505 430.666C235.107 430.193 232.743 429.619 230.447 428.943C224.163 427.068 218.222 424.194 212.851 420.433L211.197 419.217C209.291 417.74 207.497 416.126 205.827 414.387C202.639 411.376 200.099 407.746 198.364 403.718C196.628 399.691 195.733 395.352 195.733 390.966C195.733 386.581 196.628 382.242 198.364 378.214C200.099 374.187 202.639 370.557 205.827 367.545V345.019C203.981 346.212 202.191 347.462 200.457 348.768C186.036 359.879 178.1 374.874 178.1 390.949C178.1 407.025 186.036 422.054 200.457 433.165C202.179 434.482 203.834 435.732 205.827 436.88C208.095 438.333 210.44 439.663 212.851 440.865C218.462 443.613 224.364 445.72 230.447 447.147C232.777 447.687 235.107 448.16 237.505 448.498C242.065 449.2 246.671 449.561 251.284 449.578H251.555C257.412 449.583 263.265 449.245 269.082 448.565L258.951 431.679C256.654 431.882 254.223 431.949 251.791 431.983Z" fill="white"/>
<path d="M212.851 448.632V455.927C212.939 459.415 212.092 462.864 210.4 465.916C208.708 468.967 206.231 471.512 203.226 473.286H239.734C236.824 471.484 234.436 468.953 232.807 465.944C231.178 462.934 230.364 459.551 230.447 456.129C230.447 456.129 230.447 455.825 230.447 455.69V454.306C224.408 453.002 218.514 451.101 212.851 448.632Z" fill="white"/>
<path d="M302.584 456.603C302.584 456.603 277.389 414.388 276.241 412.463C273.529 407.448 269.775 403.073 265.231 399.629C272.38 396.478 278.623 391.583 283.391 385.394C288.158 379.204 291.297 371.918 292.519 364.202C286.98 362.064 281.261 360.425 275.431 359.305C273.742 373.861 262.867 385.141 249.696 385.141H230.446V325.6H243.718C245.947 325.6 248.176 325.33 250.473 325.296H251.554C263.157 325.286 274.725 326.589 286.035 329.18C282.317 322.825 277.022 317.537 270.662 313.828C264.302 310.118 257.092 308.113 249.73 308.005H203.124C206.163 309.766 208.671 312.314 210.383 315.381C212.094 318.448 212.947 321.92 212.85 325.431V411.247C213.695 411.99 214.573 412.733 215.518 413.476C220.037 416.887 225.078 419.544 230.446 421.345V402.568H239.092C242.045 402.559 244.972 403.132 247.704 404.256C250.889 406.036 253.572 408.592 255.505 411.686L292.148 473.186H321.969C313.794 470.05 306.948 464.194 302.584 456.603Z" fill="white"/>
<path d="M321.058 351.47L307.988 370.315C307.727 367.412 306.447 364.696 304.374 362.648C303.467 361.708 302.405 360.931 301.234 360.352L300.187 359.811C297.991 358.764 295.661 357.819 293.432 356.941C287.663 354.851 281.733 353.235 275.702 352.111C273.304 351.672 270.906 351.301 268.441 350.997C263.04 350.321 257.604 349.971 252.162 349.95H251.689C246.975 349.939 242.27 350.38 237.64 351.267V333.401C239.768 333.097 241.929 332.827 244.091 332.658C246.252 332.49 248.582 332.354 250.845 332.354H251.689C256.833 332.356 261.972 332.616 267.09 333.131C274.907 333.935 282.644 335.38 290.224 337.454C293.027 338.231 295.762 339.109 298.464 340.055C306.458 342.866 314.052 346.703 321.058 351.47Z" fill="white"/>
<path d="M617.343 628.504C622.768 619.634 627.467 610.338 631.392 600.71C663.645 579.838 692.723 542.959 707.515 496.015C721.536 449.002 720.781 398.817 705.354 352.246H662.058C667.108 343.733 671.165 334.667 674.148 325.228C674.992 322.527 675.702 319.859 676.343 317.157C682.726 290.139 679.957 263.796 663.645 243.499C648.38 224.485 624.233 214.793 599.477 211.956C600.667 202.297 598.987 192.501 594.648 183.79C589.277 172.156 580.056 162.733 568.542 157.11L567.056 156.333C552.299 149.381 536.251 145.597 519.943 145.222V85.8499C519.943 82.6343 518.666 79.5505 516.392 77.2767C514.119 75.003 511.035 73.7256 507.819 73.7256C504.604 73.7256 501.52 75.003 499.246 77.2767C496.972 79.5505 495.695 82.6343 495.695 85.8499C495.662 86.3897 495.662 86.9311 495.695 87.4709C488.373 88.6675 481.189 90.5908 474.249 93.2122C464.952 96.7086 456.171 101.446 448.143 107.295V116.718C445.036 118.44 442.098 120.095 439.261 122.223C433.182 126.377 408.866 143.601 399.309 168.187C407.914 163.572 416.896 159.696 426.158 156.603C447.637 149.072 470.062 145.931 479.585 147.89C458.014 151.512 436.972 157.785 416.938 166.566C416.938 166.566 398.464 175.347 397.451 175.887C398.397 176.495 399.342 177.137 400.254 177.846C401.441 178.789 402.569 179.804 403.631 180.885C408.509 185.879 412.192 191.914 414.403 198.535C416.614 205.156 417.296 212.193 416.397 219.116C415.269 229.802 411.699 240.087 405.962 249.173C403.825 252.624 401.432 255.909 398.802 259.001H366.448C371.867 263.665 376.497 269.173 380.16 275.313C380.16 275.651 380.531 275.955 380.734 276.326C384.663 283.16 387.533 290.55 389.244 298.244C390.987 306.144 391.601 314.252 391.068 322.324H319.369C321.742 324.905 323.889 327.684 325.786 330.632C332.623 341.584 337.706 353.537 340.849 366.059C342.941 373.707 344.609 381.463 345.847 389.295C349.501 413.363 350.362 437.774 348.414 462.04C344.293 516.988 328.15 564.1 307.279 588.18C328.322 576.126 350.116 565.432 372.527 556.164C363.582 576.014 351.29 594.179 336.188 609.862C355.362 599.9 375.044 590.949 395.155 583.047C397.215 618.609 413.223 648.97 435.918 664.438C433.689 663.898 431.46 663.357 429.366 662.682C427.141 662.011 424.954 661.222 422.814 660.318C421.131 659.652 419.485 658.897 417.883 658.055C414.567 664.118 409.684 669.178 403.742 672.707C397.801 676.236 391.021 678.104 384.111 678.116C375.53 678.062 367.212 675.151 360.47 669.842C358.464 672.325 356.199 674.589 353.716 676.596L352.872 677.305C351.084 678.821 349.175 680.188 347.164 681.392C344.757 682.852 342.226 684.095 339.599 685.107C331.044 688.368 321.721 689.049 312.784 687.066C319.121 691.412 326.613 693.764 334.297 693.82C337.718 693.848 341.128 693.404 344.428 692.503C345.908 692.106 347.363 691.621 348.785 691.051C352.738 689.464 356.41 687.252 359.66 684.499C363.974 688.18 368.974 690.97 374.372 692.709C379.77 694.447 385.459 695.1 391.11 694.629C396.762 694.158 402.264 692.573 407.3 689.965C412.335 687.357 416.805 683.777 420.45 679.433C417.5 688.142 411.919 695.72 404.479 701.122C397.038 706.524 388.104 709.484 378.91 709.592C369.462 709.583 360.283 706.448 352.804 700.676C362.024 717.562 382.186 729.281 405.556 729.281C417.444 729.343 429.122 726.155 439.329 720.061C448.564 727.143 459.911 730.913 471.548 730.767C484.889 731.016 497.789 725.992 507.448 716.785C515.422 723.801 525.668 727.689 536.289 727.728C543.509 727.646 550.603 725.829 556.975 722.432C563.346 719.035 568.807 714.156 572.899 708.207C585.349 716.903 600.198 721.507 615.384 721.378C641.693 721.378 664.455 708.207 675.398 689.024C669.296 691.216 662.867 692.358 656.384 692.402C637.471 692.402 620.99 683.452 612.48 670.315C603.298 675.43 592.893 677.94 582.389 677.576C578.491 677.402 574.627 676.779 570.872 675.718C587.488 666.633 603.834 650.22 617.343 628.504Z" fill="black"/>
<path d="M434.567 287.065C438.671 280.574 442.317 273.803 445.475 266.802H382.017C394.131 283.469 400.518 303.613 400.22 324.215V324.992C413.758 314.411 425.375 301.582 434.567 287.065Z" fill="white"/>
<path d="M424.84 150.456C427.508 149.443 430.21 148.497 432.878 147.653C449.531 142.142 466.941 139.259 484.482 139.108C476.891 135.594 468.716 133.51 460.369 132.962C472.423 128.752 485.252 127.231 497.957 128.504C495.885 127.139 494.164 125.306 492.932 123.153C491.699 121 490.992 118.587 490.865 116.109C490.389 110.911 491.335 105.682 493.601 100.979C494.393 99.3021 495.331 97.6975 496.404 96.1836C486.231 97.5965 476.361 100.677 467.191 105.302C463.399 107.205 459.733 109.348 456.215 111.719V122.526L455.066 122.999C450.404 124.916 445.888 127.173 441.557 129.753C438.536 131.513 435.615 133.441 432.81 135.528C432.605 135.643 432.413 135.779 432.236 135.934C424.659 141.492 417.954 148.151 412.344 155.691C414.202 154.846 416.093 154.002 418.018 153.191C419.943 152.381 422.51 151.3 424.84 150.456Z" fill="white"/>
<path d="M511.905 86.5254C511.957 85.9599 511.89 85.3897 511.709 84.8514C511.528 84.3132 511.236 83.8185 510.853 83.3991C510.47 82.9797 510.004 82.6447 509.485 82.4155C508.965 82.1862 508.403 82.0679 507.835 82.0679C507.268 82.0679 506.706 82.1862 506.186 82.4155C505.667 82.6447 505.2 82.9797 504.818 83.3991C504.435 83.8185 504.143 84.3132 503.962 84.8514C503.781 85.3897 503.714 85.9599 503.766 86.5254V144.85C506.535 145.256 509.237 145.695 511.905 146.269V86.5254Z" fill="white"/>
<path d="M708.089 416.921C707.317 398.783 704.438 380.797 699.511 363.324C699.308 362.581 699.072 361.804 698.835 361.095H647.028C660.537 340.528 668.575 320.028 670.669 301.149C672.877 286.033 670.065 270.61 662.665 257.245C649.899 234.989 624.097 222.459 591.236 219.521C593.474 209.481 592.603 198.997 588.737 189.464C571.648 148.667 499.646 139.987 427.981 170.045C421.699 172.679 415.586 175.55 409.744 178.589C412.685 181.134 415.295 184.039 417.511 187.235C424.115 197.053 426.946 208.928 425.482 220.669C425.239 223.007 424.867 225.33 424.367 227.627C422.304 236.733 418.571 245.379 413.357 253.125C420.44 247.283 427.848 241.849 435.546 236.846C437.403 235.664 439.227 234.482 441.118 233.469C445.002 231.038 449.055 228.707 453.175 226.445C509.406 195.745 563.712 192.672 576.106 218.947C557.914 219.016 539.788 221.135 522.071 225.262C500.378 230.226 479.225 237.308 458.916 246.404C457.194 247.451 455.539 248.532 453.85 249.781C461.045 261.233 465.646 274.12 467.332 287.539C469.018 300.957 467.748 314.582 463.611 327.458C461.722 333.322 459.244 338.979 456.214 344.344C452.276 350.528 447.956 356.461 443.28 362.108C445.034 351.897 446.162 341.589 446.657 331.24H336.829C339.328 335.766 341.963 341.372 344.124 346.201C350.076 360.536 354.37 375.505 356.924 390.815C361.358 417.472 361.813 444.639 358.275 471.429C356.742 483.253 354.486 494.971 351.52 506.519C346.026 528.599 337.514 549.817 326.225 569.572C343.136 559.546 360.665 550.601 378.707 542.79L379.315 541.338C379.309 541.214 379.309 541.09 379.315 540.967C381.814 533.807 389.852 506.721 389.852 452.112C389.852 389.227 377.93 362.142 377.187 360.521C386.548 368.371 394.085 378.167 399.274 389.227C400.659 392.098 401.976 395.07 403.158 398.143C414.269 427.019 415.89 464.979 405.725 504.087C405.387 505.438 404.982 506.823 404.61 508.174C404.239 509.525 403.597 511.72 403.057 513.476C401.053 520.005 398.801 526.309 396.302 532.388C395.728 533.739 395.188 535.09 394.58 536.441C385.954 556.6 373.835 575.075 358.781 591.017C378.496 581.188 398.798 572.582 419.571 565.249L425.211 563.256C484.313 542.993 540.409 534.212 580.564 536.982V530.666L659.119 471.463H670.129V484.702L615.789 540.359L615.215 543.466C632.81 547.451 645.61 557.279 647.332 570.281C647.801 573.789 647.466 577.357 646.353 580.717C686.474 542.351 710.993 482.946 708.089 416.921ZM457.126 361.095C462.631 358.224 468.305 355.455 474.012 352.855C548.312 319.623 620.483 321.379 634.87 356.806C635.453 358.194 635.916 359.629 636.255 361.095H457.126Z" fill="white"/>
<path d="M539.329 709.455C530.627 709.5 522.031 707.548 514.203 703.748C516.78 707.992 520.335 711.558 524.57 714.149C528.806 716.74 533.6 718.28 538.553 718.641C543.141 718.628 547.666 717.575 551.79 715.563C555.913 713.551 559.528 710.632 562.362 707.024C563.37 705.879 564.307 704.672 565.165 703.41C563.253 704.384 561.279 705.23 559.255 705.943C552.872 708.277 546.126 709.466 539.329 709.455Z" fill="white"/>
<path d="M616.431 709.963C609.587 709.28 603.037 706.836 597.417 702.871C594.09 704.496 590.619 705.807 587.049 706.789C593.132 711.487 600.409 714.388 608.055 715.164C613.547 715.671 619.085 715.091 624.352 713.457C629.62 711.823 634.514 709.167 638.754 705.64C631.896 709.234 624.135 710.737 616.431 709.963Z" fill="white"/>
<path d="M597.08 688.72C599.918 692.034 603.355 694.784 607.211 696.826C612.521 699.483 618.314 701.035 624.241 701.389C630.168 701.743 636.105 700.892 641.693 698.886C632.06 699.161 622.592 696.344 614.675 690.848C611.273 688.391 608.334 685.349 605.996 681.864C608.142 679.926 610.182 677.875 612.108 675.718C609.689 677.192 607.186 678.522 604.611 679.703C601.004 681.318 597.263 682.617 593.432 683.587C590.921 684.222 588.372 684.696 585.8 685.005C584.719 685.005 583.604 685.242 582.422 685.275C579.388 685.529 576.338 685.529 573.304 685.275L571.041 685.005C561.085 683.657 551.839 679.105 544.699 672.037C541.764 669.1 539.253 665.77 537.235 662.141C536.321 660.533 535.52 658.863 534.837 657.143C534.499 656.333 534.195 655.522 533.925 654.678C532.384 656.793 530.715 658.812 528.927 660.723C523.549 666.235 517.281 670.802 510.386 674.232C508.528 675.211 506.603 676.089 504.611 676.9C502.618 677.71 500.254 678.589 497.856 679.298C495.348 680.093 492.801 680.758 490.224 681.29C487.927 681.797 485.563 682.202 483.165 682.506C472.703 683.884 462.073 683.23 451.858 680.581C450.406 680.176 448.954 679.771 447.569 679.264C448.953 680.732 450.431 682.109 451.994 683.384C457.36 687.99 463.627 691.429 470.395 693.481C477.162 695.534 484.283 696.155 491.305 695.306C494.04 694.952 496.741 694.365 499.376 693.55C499.731 693.469 500.08 693.367 500.423 693.246C502.75 692.476 505.009 691.516 507.178 690.375L508.461 689.733C517.276 684.892 524.555 677.672 529.467 668.896C530.863 677.218 535.085 684.804 541.423 690.375L542.166 691.017C549.38 696.684 558.445 699.465 567.596 698.818C569.406 698.737 571.21 698.556 573 698.278C574.48 698.044 575.945 697.728 577.39 697.332C580.867 696.531 584.26 695.401 587.522 693.955C590.844 692.47 594.04 690.72 597.08 688.72Z" fill="white"/>
<path d="M445.981 703.479C443.376 702.075 440.95 700.363 438.754 698.379C435.803 703.457 431.585 707.683 426.512 710.643C421.438 713.603 415.684 715.195 409.811 715.265C408.592 715.266 407.375 715.198 406.164 715.062C411.799 717.43 417.984 718.178 424.021 717.224C430.059 716.269 435.711 713.649 440.341 709.659C443.754 713.254 447.875 716.103 452.444 718.027C457.012 719.951 461.93 720.908 466.886 720.838C473.552 721.054 480.134 719.302 485.81 715.801C491.486 712.299 496.004 707.203 498.801 701.148C490.44 706.752 480.564 709.663 470.5 709.49C461.954 709.563 453.525 707.496 445.981 703.479Z" fill="white"/>
<path d="M442.773 602.938C444.871 603.265 447.014 603.132 449.055 602.549C451.096 601.966 452.985 600.946 454.594 599.561C454.336 599.593 454.075 599.593 453.817 599.561C446.556 598.041 442.064 589.092 441.861 577.575L430.21 581.797C430.885 592.874 435.512 601.385 442.773 602.938Z" fill="#FFA400"/>
<path d="M564.15 673.016C580.631 643.465 595.795 600.946 605.555 552.685C606.332 548.903 607.041 545.154 607.717 541.439L595.12 539.311L659.084 485.275V479.568L588.466 534.752C588.466 537.859 588.466 540.932 588.23 544.039C586.406 596.353 576.038 642.756 561.55 671.868L564.15 673.016Z" fill="#FFA400"/>
<path d="M569.521 670.347C578.672 664.108 586.893 656.603 593.938 648.057C592.621 646.335 591.203 644.68 589.751 642.857C588.298 641.033 587.285 640.053 586.069 638.736C581.324 649.659 575.793 660.224 569.521 670.347Z" fill="#FFA400"/>
<path d="M599.173 641.675C601.605 638.5 603.969 635.123 606.265 631.543C604.34 628.369 602.01 624.789 599.511 621.175C598.16 619.216 596.708 617.291 595.323 615.501C593.432 620.702 591.507 625.633 589.514 630.564C591.541 632.658 593.769 635.123 595.897 637.656C597.079 638.906 598.126 640.223 599.173 641.675Z" fill="#FFA400"/>
<path d="M611.062 623.776C613.02 620.398 614.912 617.021 616.702 613.644C614.878 609.726 612.278 604.424 609.441 599.46C607.549 596.082 605.489 592.908 603.699 590.24C602.033 595.778 600.322 601.171 598.566 606.417C600.829 609.186 603.666 612.8 606.266 616.548C607.955 618.912 609.576 621.412 611.062 623.776Z" fill="#FFA400"/>
<path d="M624.502 596.69L625.313 594.596C622.364 583.037 617.587 572.024 611.162 561.972C609.744 568.119 608.19 574.164 606.603 580.04C608.325 582.472 612.716 588.787 616.498 595.373C618.221 598.379 619.876 601.418 621.226 604.255C622.375 601.756 623.455 599.257 624.502 596.69Z" fill="#FFA400"/>
<path d="M476.411 666.025C481.584 665.363 486.715 664.405 491.778 663.154C494.074 662.546 496.303 661.904 498.532 661.195C515.756 655.758 529.636 646.977 537.539 636.811C538.692 645.768 542.41 654.201 548.245 661.094C549.01 662.024 549.821 662.914 550.677 663.762C551.487 664.572 552.365 665.315 553.243 666.058C554.121 666.801 554.56 667.173 555.236 667.679C560.621 655.832 564.96 643.538 568.204 630.935C549.722 632.811 531.494 636.661 513.831 642.418C493.166 649.191 472.98 657.348 453.412 666.835L456.789 667.004H461.382C466.406 666.958 471.424 666.631 476.411 666.025Z" fill="#FFA400"/>
<path d="M432.979 652.785C436.456 656.073 440.182 659.088 444.124 661.803C465.817 651.061 488.242 641.864 511.23 634.278C530.38 627.922 550.221 623.875 570.331 622.222C571.885 615.467 573.303 608.713 574.553 601.316C555.463 602.653 536.646 606.596 518.626 613.035C488.87 623.513 460.189 636.824 432.979 652.785Z" fill="#FFA400"/>
<path d="M426.935 646.402C455.222 629.732 485.059 615.843 516.026 604.93C547.164 594.46 568.272 592.907 576.073 592.738C577.053 585.984 577.931 578.993 578.64 571.833C559.79 572.802 541.217 576.781 523.625 583.619C485.699 597.466 466.617 610.806 466.448 610.908C466.28 611.009 481.578 589.867 520.687 575.582C549.9 564.91 570.602 563.322 579.383 563.255C579.856 557.446 580.194 551.57 580.43 545.592C544.82 550.317 510.436 561.778 479.113 579.364L473.912 582.269C473.709 582.944 473.507 583.619 473.338 584.261C467.765 602.397 453.412 614.319 441.187 610.908C431.528 608.206 426.124 596.622 427.104 582.876L403.463 591.455C404.569 603.854 408.103 615.915 413.865 626.949C417.419 633.938 421.808 640.47 426.935 646.402Z" fill="#FFA400"/>
<path d="M562.767 431.644C564.332 421.434 568.1 411.687 573.809 403.079C579.519 394.471 587.033 387.209 595.83 381.796H508.022C516.819 387.209 524.334 394.471 530.043 403.079C535.752 411.687 539.52 421.434 541.085 431.644C530.875 430.067 521.131 426.286 512.529 420.565C503.927 414.844 496.673 407.319 491.271 398.513V486.321C496.684 477.524 503.946 470.01 512.554 464.3C521.162 458.591 530.909 454.823 541.119 453.258C539.568 463.486 535.806 473.253 530.096 481.879C524.386 490.506 516.865 497.784 508.056 503.208H595.864C587.067 497.795 579.553 490.532 573.843 481.924C568.134 473.317 564.366 463.57 562.801 453.36C572.996 454.918 582.731 458.672 591.332 464.363C599.933 470.055 607.195 477.547 612.615 486.321V398.513C607.202 407.311 599.94 414.825 591.332 420.534C582.724 426.243 572.977 430.011 562.767 431.576" fill="#E2231A"/>
</svg>
