<svg width="1000" height="1000" viewBox="0 0 1000 1000" fill="none" xmlns="http://www.w3.org/2000/svg">
<path fill-rule="evenodd" clip-rule="evenodd" d="M926.32 249.94C933.1 275 935.48 301.06 933.42 328.1C919.08 636.46 774.62 859.1 500 996C225.38 859.1 80.9202 636.46 66.5802 328.1C64.5402 301.06 66.9002 275 73.6802 249.94C194.08 237.66 300.66 193.26 393.42 116.72C430.98 80.9398 466.52 43.6398 500 4.81982C554.58 73.0398 618.52 130.46 691.84 177.12C765.12 217.24 843.28 241.5 926.32 249.94Z" fill="#0C0C0C"/>
<path fill-rule="evenodd" clip-rule="evenodd" d="M496.44 36.7998C522.6 64.7398 549.82 92.5598 578.16 120.28C673.54 204.66 784.84 254.4 912.1 269.5C919.66 590.18 782.3 825.26 500 974.7C217.7 825.24 80.3198 590.18 87.8998 269.48C257.52 248.66 393.7 171.1 496.46 36.7798L496.44 36.7998Z" fill="#EFEAEA"/>
<path fill-rule="evenodd" clip-rule="evenodd" d="M869.48 523.5H659.88C685.28 467.94 710.76 412.28 736.26 356.52C747.52 340.54 761.12 326.92 777.12 315.66C750.2 303.68 723.56 291.24 697.18 278.36C696.54 301.08 694.16 323.58 690.08 345.86C664.24 405.82 637.6 465.02 610.14 523.5H563.96C565.12 509.1 563.92 494.88 560.4 480.86C544.98 490.34 528.4 496.86 510.66 500.4C484.64 502.18 458.58 502.76 432.5 502.18C433.08 474.92 432.5 447.68 430.72 420.46C416.72 425.34 403.1 431.24 389.86 438.22C386.32 466.54 385.14 494.96 386.3 523.48H364.98C365.56 504.5 364.98 485.54 363.2 466.64C347.6 429.5 331.02 392.8 313.46 356.5C305.32 332.22 299.98 307.36 297.48 281.9C272.46 292.8 247.6 304.06 222.88 315.64C238.86 326.9 252.48 340.5 263.74 356.5C289.56 412.12 315.02 467.78 340.12 523.48H251.3C261.46 503.82 275.68 487.24 293.94 473.74C287.08 459.68 280.58 445.46 274.4 431.1C243.36 460.36 214.34 491.14 187.36 523.46H130.52C108.8 444.48 98.1401 363.96 98.5401 281.88C261.26 257.98 395.08 183.38 499.98 58.0601C604.9 183.38 738.72 257.98 901.42 281.88C901.82 364.02 891.16 444.54 869.44 523.46L869.48 523.5Z" fill="#E00C02"/>
<path fill-rule="evenodd" clip-rule="evenodd" d="M365 239.3C449.66 235.76 534.92 234.58 620.78 235.74C621.36 258.28 620.78 280.76 619 303.24C601.54 290.7 582 283 560.38 280.14C517.76 278.36 475.14 277.78 432.48 278.36V331.64C417.58 332.26 403.38 335.82 389.84 342.3C386.88 319.9 385.12 297.4 384.52 274.8C380.66 261.14 374.14 249.3 364.98 239.28L365 239.3Z" fill="#FEFCFB"/>
<path fill-rule="evenodd" clip-rule="evenodd" d="M365 523.5C366.14 541.96 364.96 559.72 361.44 576.78C355.3 558.6 348.2 540.84 340.12 523.5C315.02 467.8 289.56 412.14 263.74 356.52C252.48 340.54 238.88 326.92 222.88 315.66C247.6 304.06 272.46 292.82 297.48 281.92C300 307.38 305.32 332.26 313.46 356.52C331.02 392.82 347.6 429.52 363.2 466.66C364.98 485.58 365.56 504.52 364.98 523.5H365Z" fill="#FEFAF9"/>
<path fill-rule="evenodd" clip-rule="evenodd" d="M659.86 523.5C645.1 557.76 630.3 592.1 615.46 626.52C597.76 633.62 579.4 636.58 560.4 635.4C578.02 598.52 594.6 561.22 610.14 523.5C637.58 465.04 664.22 405.82 690.08 345.86C694.18 323.58 696.54 301.08 697.18 278.36C723.56 291.24 750.2 303.68 777.12 315.66C761.14 326.92 747.52 340.52 736.26 356.52C710.74 412.28 685.28 467.92 659.88 523.5H659.86Z" fill="#FCF8F8"/>
<path fill-rule="evenodd" clip-rule="evenodd" d="M73.6799 249.94C66.8999 275 64.5199 301.06 66.5799 328.1C63.0599 302.7 61.8799 276.66 63.0199 249.94H73.6799Z" fill="black"/>
<path fill-rule="evenodd" clip-rule="evenodd" d="M926.32 249.94H936.98C938.14 276.66 936.96 302.7 933.42 328.1C935.46 301.06 933.1 275 926.32 249.94Z" fill="black"/>
<path fill-rule="evenodd" clip-rule="evenodd" d="M475.14 342.32C510.68 341.74 546.22 342.32 581.72 344.1C608.66 346.22 634.72 352.14 659.88 361.86C653.88 375.64 647.36 389.26 640.34 402.72C547.38 373.24 457.38 380.36 370.34 424.04C360.2 410.72 354.88 396.52 354.36 381.4C392.94 361.72 433.2 348.7 475.14 342.32Z" fill="#FEFAFA"/>
<path fill-rule="evenodd" clip-rule="evenodd" d="M738.02 399.16C758.88 409.34 777.82 422.38 794.86 438.24C787.1 453.74 779.4 469.14 771.76 484.42C759.76 466.48 744.36 452.28 725.58 441.78C727.84 427.3 731.98 413.08 738.02 399.14V399.16Z" fill="#FEF7F7"/>
<path fill-rule="evenodd" clip-rule="evenodd" d="M563.94 523.5C565.1 539.08 563.92 554.46 560.38 569.68C545.8 561.2 530.42 554.7 514.2 550.14C487 548.36 459.76 547.78 432.48 548.36V793.5C410.48 794.64 389.18 793.46 368.54 789.94C375.8 777.78 381.12 764.76 384.52 750.86C386.3 675.08 386.88 599.3 386.3 523.5C385.12 494.98 386.3 466.56 389.86 438.24C403.1 431.26 416.72 425.34 430.72 420.48C432.5 447.68 433.08 474.92 432.5 502.2C458.58 502.78 484.64 502.2 510.66 500.42C528.4 496.88 544.98 490.36 560.4 480.88C563.92 494.9 565.1 509.1 563.96 523.52L563.94 523.5Z" fill="#F8F5F5"/>
<path fill-rule="evenodd" clip-rule="evenodd" d="M251.32 523.5C280.36 564.98 317.68 596.94 363.22 619.42C366.16 636.12 365.58 652.7 361.44 669.16C327.04 651.98 295.08 631.26 265.52 606.98C237.34 580.6 211.28 552.76 187.36 523.5C214.34 491.18 243.36 460.38 274.4 431.14C280.58 445.5 287.08 459.72 293.94 473.78C275.68 487.28 261.46 503.86 251.3 523.52L251.32 523.5Z" fill="#FBF9F9"/>
<path fill-rule="evenodd" clip-rule="evenodd" d="M130.52 523.5H187.36C211.28 552.78 237.34 580.6 265.52 606.98C295.08 631.24 327.04 651.96 361.44 669.16C365.56 652.7 366.16 636.12 363.22 619.42C317.66 596.94 280.36 564.98 251.32 523.5H340.14C348.22 540.84 355.32 558.62 361.46 576.78C361.68 578.7 362.86 579.9 365.02 580.34C368.56 561.54 369.74 542.6 368.58 523.5H386.34C386.94 599.3 386.34 675.08 384.56 750.86C381.16 764.76 375.84 777.78 368.58 789.94C366.66 790.16 365.46 791.34 365.02 793.5C388.06 798.18 410.58 798.18 432.52 793.5V548.36C459.78 547.78 487.02 548.36 514.24 550.14C530.46 554.7 545.84 561.2 560.42 569.68C563.94 554.46 565.14 539.08 563.98 523.5H610.16C594.62 561.22 578.04 598.52 560.42 635.4C579.44 636.58 597.78 633.62 615.48 626.52C630.34 592.08 645.14 557.74 659.88 523.5H869.48C808.9 721.44 685.74 865.92 500 956.92C314.28 865.92 191.12 721.44 130.52 523.5Z" fill="#030303"/>
<path fill-rule="evenodd" clip-rule="evenodd" d="M365 523.5H368.56C369.72 542.6 368.56 561.54 365 580.34C362.84 579.9 361.66 578.72 361.44 576.78C364.94 559.7 366.14 541.94 365 523.5Z" fill="#3F3F3F"/>
<path fill-rule="evenodd" clip-rule="evenodd" d="M755.78 573.24C758.9 572.78 761.26 573.96 762.88 576.8C769.84 589.98 775.76 603.6 780.64 617.66C718.86 668.28 647.8 696.7 567.48 702.92C529.74 706.18 492.44 704.4 455.58 697.6C452.64 682.08 453.24 666.68 457.36 651.42C553.52 670.44 643.52 654.46 727.36 603.46C737.56 593.86 747.04 583.8 755.78 573.26V573.24Z" fill="#F7F7F7"/>
<path fill-rule="evenodd" clip-rule="evenodd" d="M453.82 718.9C462.56 719.6 470.84 721.98 478.68 726C483.92 741.2 491.02 755.42 500 768.64C508.52 755.74 515.62 742.14 521.32 727.78C537.9 725.42 554.48 725.42 571.06 727.78C547.84 778.38 524.14 828.7 500 878.76C484.28 848.52 469.48 817.72 455.6 786.4C453.82 763.92 453.24 741.44 453.82 718.9Z" fill="#F6F6F6"/>
<path fill-rule="evenodd" clip-rule="evenodd" d="M627.9 793.5C607.08 794.64 586.96 793.46 567.5 789.94C570.82 776.18 576.14 763.16 583.48 750.86C597.2 744.1 610.82 737 624.34 729.54C627.88 750.72 629.06 772.04 627.9 793.48V793.5Z" fill="#FBFBFB"/>
<path fill-rule="evenodd" clip-rule="evenodd" d="M368.56 789.94C389.2 793.46 410.52 794.64 432.5 793.5C410.56 798.18 388.04 798.18 365 793.5C365.44 791.34 366.62 790.16 368.56 789.94Z" fill="#7D7D7D"/>
<path fill-rule="evenodd" clip-rule="evenodd" d="M567.5 789.94C586.96 793.46 607.08 794.64 627.9 793.5C607.14 798.18 585.82 798.18 563.96 793.5C564.4 791.34 565.58 790.16 567.52 789.94H567.5Z" fill="#828282"/>
</svg>
