<svg width="500" height="500" viewBox="0 0 500 500" fill="none" xmlns="http://www.w3.org/2000/svg">
<path d="M144.31 116.071C150.472 116.509 156.605 117.71 162.681 118.817C172.358 121.248 181.576 124.491 189.499 130.738C195.934 135.153 200.414 141.602 203.203 148.821C203.937 151.187 206.05 151.934 207.869 153.379C212.154 156.263 215.281 159.52 220.2 161.217C224.83 162.647 229.123 164.049 233.99 162.719C238.153 162.108 240.403 159.39 243.782 157.312C243.926 160.85 243.984 164.43 243.79 167.968C242.985 173.525 241.195 178.86 238.592 183.836C239.455 185.065 240.31 186.302 241.144 187.553C240.748 187.769 240.354 187.977 239.95 188.185C237.312 187.991 234.731 187.819 232.085 188.185C231.97 189.351 231.862 190.516 231.726 191.673C231.114 196.109 230.359 200.208 230.942 204.752C231.431 207.031 232.804 209.187 233.818 211.28C234.645 212.934 235.435 214.601 236.176 216.291L236.384 216.837C237.78 223.761 240.008 230.355 241.985 237.106C242.833 241.189 243.194 245.295 243.265 249.465C243.322 256.597 243.524 263.816 242.985 270.934C242.079 277.916 240.426 284.681 238.556 291.461C237.363 295.617 238.735 299.068 238.75 303.231C238.879 306.416 238.477 309.537 238.096 312.686C237.635 315.555 237.247 318.438 236.852 321.321L238.067 320.854C240.296 320.178 241.69 318.315 243.46 316.82C243.848 319.229 243.891 321.558 243.344 323.952C240.015 329.115 236.499 334.356 232.459 338.986C229.878 342.193 226.85 344.875 224.715 348.449C221.336 353.876 216.828 358.176 212.255 362.584C200.967 372.693 186.3 379.308 171.589 382.579C165.499 384.103 159.222 385.074 152.931 384.923C147.41 384.823 141.722 385.246 136.33 384.384C131.498 383.959 126.768 384.578 121.95 383.636C83.4556 380.07 47.441 357.594 27.3092 324.585C23.8078 318.998 20.4932 313.355 18.1852 307.15C17.2434 304.368 15.0002 303.447 12.9726 301.571C5.46638 295.027 1.43998 285.716 0.18175 275.974C-0.335933 267.569 0.0738636 259.517 3.78388 251.809C5.04211 248.912 7.06963 246.56 8.6155 243.857C9.47112 241.441 9.34167 238.5 9.7875 235.991C12.3543 222.381 16.7905 208.906 23.362 196.698C27.5537 189.617 32.0258 182.433 37.3608 176.193C39.6112 173.259 42.1779 171.448 43.6879 168.097C51.9419 150.877 66.1136 137.295 82.5064 127.812C91.3501 122.621 101.854 119.809 111.884 118.056C122.517 115.848 133.511 115.905 144.31 116.071Z" fill="#030202"/>
<path d="M133.518 121.168C138.134 120.874 142.585 121.636 147.201 121.657C156.087 121.859 163.953 124.447 172.236 127.323C174.925 128.286 177.449 129.573 179.85 131.112C175.292 130.976 171.143 129.185 166.542 128.423C160.229 127.014 154.362 127.567 147.898 127.503C141.068 127.503 134.877 129.128 128.263 130.537C120.641 132.269 113.876 135.476 106.649 138.273C100.552 140.696 94.9594 144.032 89.6388 147.836C85.0294 150.863 80.7018 154.149 77.1638 158.419C73.7415 162.611 69.8302 166.853 67.3431 171.613C65.4803 175.107 63.6828 178.659 62.1728 182.326C60.9007 185.424 60.253 188.66 59.1247 191.802C56.5797 198.302 55.9469 205.923 55.3067 212.825C55.0482 215.22 54.897 217.592 54.8681 220.001C51.834 219.368 48.9365 218.786 45.8018 219.001C43.3212 219.174 40.8407 219.397 38.353 219.44C38.1229 215.471 38.7484 211.603 38.9066 207.656C38.9353 201.192 40.2008 194.707 41.9048 188.487C43.8245 182.592 45.3056 175.998 48.3254 170.621C50.9281 165.681 54.0054 161.044 57.2908 156.535C61.9721 150.309 67.7238 145.542 73.6267 140.567C78.8325 136.475 83.9086 132.457 90.056 129.832C97.72 126.798 105.586 124.784 113.602 122.959C120.225 121.55 126.817 121.736 133.518 121.168Z" fill="#656565"/>
<path d="M140.334 134.793C147.136 134.247 153.837 133.909 160.624 134.8C166.405 135.577 172.02 138.503 177.247 141.114C181.187 144.205 185.005 147.584 188.579 151.1C190.98 153.314 193.727 154.975 195.862 157.499C199.198 161.496 203.325 163.804 207.596 166.673C210.803 168.643 213.8 171.145 217.367 172.203C221.968 173.684 226.383 173.482 231.142 173.439C231.064 173.956 230.985 174.482 230.905 175.006C225.944 176.833 220.192 178.378 214.879 177.731C210.529 176.933 206.373 174.855 202.232 173.324C197.631 171.57 194.575 168.42 190.757 165.451C187.867 163.107 184.761 161.367 181.533 159.541C177.52 157.219 172.581 156.119 168.116 154.918C164.119 153.796 160.373 155.119 156.347 154.357C158.094 152.509 160.193 152.559 162.522 152.056C164.83 151.675 167.023 150.963 169.173 150.036C164.234 146.836 158.122 145.204 152.334 144.435C144.066 143.364 136.617 145.291 128.471 146.046C123.23 146.528 118.771 148.814 113.602 149.835C109.317 150.726 105.413 152.524 101.602 154.623C101.437 155.558 101.293 156.492 101.12 157.427C98.4168 157.808 95.4835 158.074 92.917 159.023C92.5139 160.706 94.0239 162.683 94.6277 164.221C91.8531 163.567 89.3436 162.309 86.5251 163.438C84.1089 164.301 82.1322 164.912 79.5508 164.272C81.2839 161.432 83.8289 159.671 86.1368 157.369C91.7738 151.661 98.554 147.268 105.988 144.255C112.596 141.019 119.57 138.791 126.659 136.886C131.188 135.728 135.69 135.239 140.334 134.793Z" fill="#413B37"/>
<path d="M316.171 141.904C322.872 142.559 329.306 144.773 334.771 148.735C337.942 151.538 341.141 154.184 343.032 157.959C338.158 160.67 333.348 163.495 328.429 166.112C326.093 163.581 324.08 161.173 320.758 159.908C318.033 158.699 315.431 159.037 312.525 158.973C306.328 158.678 300.31 162.74 297.736 168.306C295.752 172.138 296.204 176.164 296.305 180.348C296.37 183.555 297.966 186.259 299.735 188.825C303.243 193.492 308.938 195.699 314.711 195.188C320.571 195.419 325.036 192.226 328.48 187.797C332.901 190.112 337.208 192.694 341.473 195.282C342.17 195.634 342.946 196.461 342.399 197.245C336.281 206.786 324.547 212.53 313.266 211.754C305.479 212.128 297.901 209.417 291.754 204.708C286.239 199.884 281.839 194.117 280.135 186.87C278.676 181.794 278.977 176.876 279.179 171.642C279.718 167.399 281.056 163.208 283.083 159.448C285.103 155.759 288.195 152.502 291.315 149.72C298.268 143.96 307.212 141.429 316.171 141.904Z" fill="white"/>
<path d="M475.017 142.71C480.611 142.638 486.226 142.602 491.82 142.738C490.288 145.614 488.067 147.829 486.104 150.396C484.551 152.294 483.127 154.372 481.394 156.104C476.512 156.694 471.3 156.313 466.36 156.256C467.942 152.531 470.157 149.217 472.019 145.628C472.752 144.457 473.371 142.695 475.017 142.71Z" fill="white"/>
<path d="M368.595 161.743C365.651 161.745 362.662 162.027 360.28 163.381C355.198 166.062 351.157 170.462 349.115 175.862C347.454 179.485 348.007 182.915 347.899 186.776C347.972 190.429 347.597 193.772 349.028 197.223C351.235 202.974 355.658 208.065 361.496 210.309C365.472 212.135 369.455 211.847 373.719 211.602C377.515 211.099 380.19 209.022 383.173 206.865C383.288 207.98 383.397 209.101 383.504 210.216C388.724 210.344 393.966 210.324 399.193 210.23C399.143 195.692 399.157 181.161 399.178 166.63C399.034 165.12 399.566 163.818 398.114 162.826C393.297 162.683 388.458 162.848 383.634 162.747C383.453 163.847 383.282 164.941 383.109 166.04C380.283 164.445 377.062 161.77 373.704 161.87C372.111 161.841 370.361 161.741 368.595 161.743ZM372.674 176.217C374.013 176.205 375.372 176.347 376.572 176.452C380.736 177.803 383.77 182.398 383.367 186.776C383.662 190.149 382.037 193.348 379.341 195.318C375.084 198.244 368.678 197.899 365.442 193.6C362.948 190.558 362.906 186.956 363.524 183.246C364.199 180.535 366.521 178.242 368.894 176.905C370.015 176.394 371.335 176.229 372.674 176.217Z" fill="white"/>
<path d="M474.706 161.73C470.835 161.716 466.956 162.113 463.635 163.848C455.482 167.925 449.551 176.76 450.134 186.057C449.802 191.471 450.996 196.72 454.145 201.178C458.229 207.368 465.556 211.164 472.86 211.689C477.879 211.718 482.415 212.186 487.189 210.317C491.316 208.965 494.53 206.534 497.32 203.256C494.66 200.753 491.726 198.899 488.692 196.871C487.873 196.382 486.895 195.612 485.917 195.598C484.436 196.152 483.092 197.087 481.669 197.777C477.261 200.452 470.761 198.906 467.468 195.095C466.526 194.096 466.562 192.78 466.331 191.485C474.262 191.421 482.2 191.536 490.137 191.485C493.768 191.363 496.868 192.277 499.988 189.897C499.952 186.029 500.283 181.614 498.96 177.947C496.594 170.031 489.649 163.603 481.539 162C479.347 161.894 477.028 161.738 474.706 161.73ZM475.737 174.815C476.956 174.807 478.174 174.881 479.338 175.05C481.935 176.265 484.048 178.421 484.422 181.37C478.418 181.463 472.386 181.564 466.397 181.356C466.986 178.516 469.294 175.812 472.133 175.071C473.298 174.913 474.518 174.824 475.737 174.815Z" fill="white"/>
<path d="M409.222 162.999C410.725 162.697 412.372 162.74 413.903 162.74C424.551 162.841 435.207 162.683 445.855 162.82C445.855 166.444 446.171 170.161 445.776 173.762C443.561 177.293 440.693 180.42 438.276 183.829C435.401 187.804 432.007 191.507 429.52 195.749C435.279 195.929 441.038 195.742 446.797 195.879C446.833 200.681 446.782 205.484 446.833 210.288C438.499 210.273 430.16 210.251 421.827 210.295C407.785 210.036 421.827 210.295 407.785 210.036C407.95 206.65 407.562 203.141 408.029 199.79C409.078 197.655 410.869 195.714 412.314 193.815C415.464 189.768 418.389 185.533 421.697 181.607C422.833 180.241 423.753 178.731 424.624 177.186C419.482 177.019 414.334 177.142 409.194 177.106C409.201 172.411 409.078 167.694 409.222 162.999Z" fill="white"/>
<path d="M150.774 174.87C155.821 175.007 161.02 174.561 165.901 175.481C171.575 176.423 177.678 177.394 182.977 179.659C186.4 181.118 190.067 182.577 193.158 184.662C195.891 186.467 198.63 188.402 201.707 189.588C205.087 190.889 208.501 191.357 212.075 191.766C208.293 194.837 203.059 193.657 198.508 193.715C198.875 200.258 200.931 206.491 201.031 213.035C198.421 213.006 195.761 213.085 193.18 212.74C191.131 212.423 190.491 210.834 189.111 209.533C188.032 208.375 186.63 207.778 185.256 207.023C182.079 208.382 181.482 211.064 179.382 213.343C175.774 214.904 170.438 214.997 166.887 217.319C166.089 218.657 166.505 220.691 166.103 222.223C165.218 223.438 163.788 223.884 162.328 223.869C159.251 224.085 156.275 222.769 153.643 221.302C151.665 220.267 151.651 216.902 149.58 216.04C147.021 214.954 144.066 214.659 141.348 214.07C136.812 213.106 132.023 214.041 127.529 213.343C124.769 211.891 123.179 208.547 120.361 207.037C118.319 206.074 116.003 206.333 114.386 207.965C111.798 210.194 111.834 213.214 110.216 215.91C109.353 216.55 108.196 216.859 107.189 217.233C101.192 219.174 95.4986 222.065 90.178 225.429C88.1864 226.544 88.0492 228.385 87.2728 230.333C84.2751 230.132 81.298 229.722 78.3433 229.212C78.4366 227.78 78.3787 226.314 78.5663 224.89C80.5719 221.634 84.2247 219.375 86.4104 216.226C86.5831 214.925 86.0287 213.926 85.6479 212.718C83.9513 213.322 81.4566 215.946 79.7161 214.609C81.3558 212.495 83.2467 210.482 84.6699 208.217C86.2014 205.024 82.4552 199.719 85.7627 197.223C89.0348 194.218 92.9172 191.795 96.7417 189.545C108.433 182.8 121.648 178.566 134.956 176.495C140.341 175.956 145.31 174.676 150.774 174.87Z" fill="#FADEB9"/>
<path d="M71.3766 178.543C73.7061 178.896 74.7989 180.492 76.1214 182.218C73.1741 181.959 70.7149 181.311 68.0542 180.018C69.0752 179.392 70.0673 178.163 71.3766 178.543Z" fill="#303030"/>
<path d="M239.95 188.185C240.353 187.977 240.748 187.769 241.144 187.553C246.083 195.002 250.397 203.018 253.561 211.387C256.674 219.116 258.378 227.032 260.276 235.099C261.247 247.035 261.635 258.956 260.779 270.913C260.262 278.088 258.327 284.897 257.357 292.007C254.215 303.403 249.556 313.908 243.344 323.952C243.891 321.558 243.847 319.229 243.459 316.82C241.69 318.315 240.296 320.178 238.066 320.854C239.411 318.179 240.655 315.475 242.179 312.887C250.879 296.214 255.768 277.534 255.574 258.676C255.524 253.175 255.732 247.998 254.783 242.606C254.258 238.148 253.575 233.87 252.102 229.606C251.641 227.492 251.203 225.379 250.599 223.301C249.355 217.837 246.968 212.883 245.048 207.656C244.308 205.765 243.136 204.269 241.942 202.659C240.705 197.942 237.922 194.433 235.018 190.638C233.911 190.947 232.817 191.313 231.725 191.673C231.862 190.515 231.969 189.351 232.085 188.185C234.731 187.819 237.312 187.991 239.95 188.185Z" fill="#050A08"/>
<path d="M235.018 190.638C237.922 194.433 240.705 197.942 241.942 202.659C240.677 204.341 239.605 206.398 238.009 207.792C236.895 208.289 235.651 208.555 234.471 208.878C234.256 209.676 234.033 210.482 233.817 211.28C232.803 209.187 231.431 207.031 230.942 204.751C230.359 200.207 231.114 196.109 231.725 191.673C232.817 191.313 233.911 190.947 235.018 190.638Z" fill="#5E2BDF"/>
<path d="M194.259 198.905C194.266 200.207 194.273 201.516 194.294 202.817C193.267 203.155 192.275 203.802 191.167 203.5C186.939 202.615 183.237 201.099 178.8 201.372C175.816 201.3 172.668 202.932 169.777 202.328C168.792 201.199 169.073 199.395 168.964 197.971C176.924 195.037 186.421 195.936 194.259 198.905Z" fill="#160702"/>
<path d="M113.402 197.77C120.627 196.698 127.975 197.058 135.065 198.82C135.387 199.366 135.704 199.919 136.028 200.466C135.647 201.573 135.273 202.687 134.913 203.802C131.254 203.953 127.824 202.752 124.179 202.774C120.85 202.738 117.428 202.601 114.134 203.112C111.546 203.564 108.986 205.305 106.377 205.297C104.5 204.952 104.457 202.745 104.227 201.242C107.247 199.747 110.015 198.273 113.402 197.77Z" fill="#170903"/>
<path d="M30.2931 203.119C30.6022 208.001 30.214 212.811 30.7317 217.678C30.9689 220.044 31.0337 222.402 30.9689 224.775C29.6532 225.516 28.3375 226.249 27.0576 227.054C24.2105 228.779 22.1469 231.246 19.0049 232.54C19.3213 224.631 22.758 216.442 25.7419 209.172C26.9713 206.699 27.4315 204.162 30.2931 203.119Z" fill="#914354"/>
<path d="M241.942 202.659C243.136 204.269 244.308 205.765 245.048 207.656C245.213 211.344 244.199 214.551 242.575 217.808C239.411 217.643 238.332 215.493 236.449 213.379C236.34 214.349 236.247 215.32 236.175 216.29C235.435 214.601 234.644 212.934 233.817 211.28C234.032 210.482 234.256 209.676 234.471 208.878C235.651 208.555 236.895 208.289 238.009 207.792C239.605 206.398 240.676 204.341 241.942 202.659Z" fill="#4D4EE0"/>
<path d="M120.361 207.037C123.179 208.547 124.769 211.891 127.529 213.343C132.023 214.04 136.812 213.106 141.348 214.069C144.066 214.659 147.022 214.954 149.581 216.039C151.652 216.902 151.666 220.267 153.643 221.302C156.275 222.769 159.251 224.085 162.328 223.869C163.788 223.883 165.218 223.437 166.103 222.222C166.505 220.691 166.089 218.656 166.887 217.319C170.439 214.997 175.774 214.904 179.383 213.343C181.482 211.064 182.079 208.382 185.257 207.023C186.63 207.778 188.032 208.374 189.111 209.533C190.491 210.834 191.132 212.423 193.18 212.739C195.761 213.085 198.422 213.005 201.032 213.034L201.039 214.192C198.861 214.407 196.582 214.673 194.396 214.429C192.088 214.155 189.888 212.833 187.587 212.732C184.689 213.58 182.403 216.471 180.562 218.728C181.073 219.368 181.583 220.008 182.094 220.648C181.403 220.72 180.713 220.784 180.023 220.842C177.909 221.001 174.07 220.9 172.963 223.086C173.272 228.845 174.997 234.69 175.595 240.385C174.846 240.564 174.098 240.751 173.351 240.931C173.056 241.722 172.761 242.505 172.466 243.296C171.582 242.994 170.698 242.728 169.82 242.433C169.159 241.909 168.498 241.383 167.85 240.845C167.095 239.651 166.334 238.465 165.55 237.285C166.369 236.573 167.204 235.868 168.009 235.128C167.757 233.432 167.534 231.735 167.275 230.038C162.939 230.326 158.82 230.361 154.549 229.362C154.635 233.927 155.714 238.321 155.47 242.908C153.435 243.936 151.393 244.929 149.25 245.705C148.862 241.657 148.538 237.573 147.862 233.561C147.474 229.808 146.604 226.191 145.871 222.51C140.917 220.605 135.863 220.634 130.643 220.778C131.117 222.726 131.728 224.624 132.426 226.5C129.111 229.664 125.675 232.274 122.762 235.732C126.76 237.285 130.823 238.572 134.655 240.542C134.777 245.331 134.785 250.234 134.051 254.972C133.275 258.618 132.023 263.55 128.479 265.47C127.141 265.585 125.524 265.765 124.258 265.233C122.036 264.111 120.188 262.026 118.722 260.049C115.026 254.469 112.272 247.862 111.424 241.196C111.273 241.326 111.137 241.463 111.007 241.606C110.108 235.869 109.411 230.161 109.411 224.344C108.613 224.458 107.822 224.596 107.039 224.796C103.285 225.566 99.6471 227.521 96.3471 229.434C95.1105 230.268 93.4707 231.145 93.5146 232.857C92.9248 242.671 96.3685 251.075 100.79 259.588C99.0218 260.473 97.6051 261.494 95.5202 260.969C94.614 260.79 94.0466 259.747 93.579 259.028C89.9047 252.161 88.4666 244.878 87.3672 237.25C84.5487 236.674 81.6939 236.452 78.8175 236.386C78.7746 238.781 78.7391 241.14 78.9258 243.533C78.5086 241.779 77.6603 239.644 78.0774 237.861C78.7821 235.653 80.0326 233.589 81.0182 231.497C79.7891 231.526 78.5665 231.562 77.3364 231.605C77.6817 230.807 78.027 230.023 78.3434 229.212C81.2981 229.722 84.2753 230.132 87.2729 230.332C88.0494 228.385 88.1866 226.543 90.1782 225.429C95.4987 222.065 101.193 219.174 107.19 217.233C108.196 216.859 109.353 216.55 110.216 215.91C111.834 213.213 111.798 210.193 114.386 207.965C116.004 206.332 118.319 206.074 120.361 207.037Z" fill="#070403"/>
<path d="M245.048 207.656C246.968 212.883 249.355 217.837 250.599 223.302C248.01 223.467 245.595 223.092 243.085 222.525C242.158 224.092 241.352 225.753 240.533 227.378C239.382 223.733 238.448 220.116 236.384 216.838L236.175 216.291C236.247 215.32 236.34 214.35 236.449 213.379C238.332 215.493 239.411 217.643 242.575 217.808C244.2 214.551 245.213 211.345 245.048 207.656Z" fill="#4B6ED4"/>
<path d="M28.3376 208.72C29.0421 212.423 29.5023 216.197 29.8546 219.951C29.8833 221.086 30.099 222.582 29.3441 223.531C27.4316 226.04 24.2968 227.342 21.4496 228.463C21.2339 224.652 21.8594 221.799 23.3693 218.34C24.872 215.032 25.5119 211.028 28.3376 208.72Z" fill="#EA456B"/>
<path d="M236.384 216.837C238.448 220.116 239.382 223.732 240.533 227.378C241.057 229.111 241.525 230.821 241.769 232.612C241.863 234.115 241.884 235.61 241.985 237.106C240.008 230.355 237.779 223.761 236.384 216.837Z" fill="#29496E"/>
<path d="M195.099 219.85C199.054 219.713 203.519 220.511 206.855 222.733C207.977 224.415 208.286 226.731 208.696 228.678C209.307 232.389 210.069 236.25 209.889 240.018C209.99 242.505 206.956 243.469 205.568 245.237C204.706 247.574 205.446 250.356 206.057 252.664C205.554 252.456 205.043 252.262 204.533 252.068C204.353 250.565 204.188 249.069 204.08 247.567C204.245 246.395 204.065 244.791 205.137 244.036C206.222 243.073 207.488 242.297 208.689 241.477C208.883 236.192 208.623 231.009 207.293 225.867C206.992 224.912 206.661 223.653 205.777 223.078C203.138 221.294 199.442 220.762 196.343 220.389C196.315 221.733 196.336 223.085 196.351 224.429C194.107 225.982 191.958 227.622 189.909 229.412C192.641 230.376 195.402 231.275 198.134 232.245C198.537 237.357 198.329 242.074 197.379 247.114C196.481 249.458 194.827 253.024 191.821 252.823C188.808 252.664 186.457 249.4 184.869 247.15C180.842 239.191 179.001 230.577 178.656 221.698C177.06 221.769 175.435 222.323 173.925 222.826C173.954 228.967 175.544 234.503 176.845 240.592C176.082 241.376 175.321 242.16 174.558 242.943C176.514 244.928 178.628 246.726 180.692 248.588C182.036 250.011 183.215 251.564 184.481 253.053C180.001 250.076 177.276 245.259 172.466 243.296C172.761 242.505 173.056 241.722 173.351 240.93C174.098 240.751 174.846 240.564 175.594 240.384C174.997 234.69 173.271 228.845 172.962 223.085C174.069 220.9 177.909 221 180.022 220.842C179.548 226.162 180.217 231.31 181.662 236.423C182.905 240.571 183.97 244.461 186.508 248.041C187.795 249.861 189.441 251.895 191.85 252.039C193.77 252.247 195.423 250.133 195.998 248.516C197.624 243.641 197.279 237.788 197.12 232.705C194.266 231.727 191.39 230.864 188.571 229.8C190.506 227.514 192.886 225.817 195.222 223.984C195.157 222.604 195.078 221.23 195.099 219.85Z" fill="#7A7673"/>
<path d="M196.344 220.39C199.442 220.763 203.138 221.295 205.777 223.078C206.661 223.653 206.992 224.912 207.294 225.868C208.624 231.009 208.883 236.193 208.689 241.478C207.488 242.297 206.222 243.074 205.137 244.037C204.065 244.792 204.246 246.395 204.08 247.567C201.672 247.409 199.593 248.121 197.401 249.019C197.386 248.387 197.379 247.754 197.379 247.115C198.328 242.074 198.537 237.357 198.134 232.246C195.402 231.275 192.641 230.377 189.909 229.412C191.958 227.622 194.107 225.983 196.351 224.43C196.336 223.086 196.315 221.734 196.344 220.39Z" fill="#FCFCFC"/>
<path d="M130.643 220.778C135.862 220.634 140.917 220.605 145.871 222.51C146.604 226.192 147.474 229.808 147.862 233.561C147.847 237.645 147.783 241.693 148.387 245.748C149.401 246.15 150.407 246.554 151.421 246.948C151.04 248.279 150.997 249.673 149.868 250.609C148.437 251.737 146.151 251.874 144.425 252.356C140.73 253.103 137.458 255.908 134.223 257.849C134.151 256.892 134.094 255.936 134.05 254.973C134.784 250.234 134.777 245.331 134.655 240.542C130.822 238.572 126.76 237.285 122.762 235.732C125.674 232.274 129.111 229.664 132.425 226.5C131.728 224.624 131.117 222.726 130.643 220.778Z" fill="#FCFBFB"/>
<path d="M178.657 221.698C179.002 230.577 180.842 239.191 184.868 247.15C184.782 247.61 184.689 248.077 184.602 248.538C183.294 248.538 181.993 248.552 180.691 248.588C178.628 246.726 176.514 244.929 174.559 242.944C175.32 242.161 176.083 241.377 176.845 240.593C175.543 234.503 173.955 228.967 173.926 222.826C175.436 222.323 177.061 221.77 178.657 221.698Z" fill="#FDFAF9"/>
<path d="M243.085 222.524C245.595 223.092 248.01 223.466 250.599 223.301C251.203 225.378 251.641 227.492 252.102 229.606C248.693 230.743 245.184 231.497 241.769 232.612C241.525 230.821 241.057 229.11 240.533 227.377C241.352 225.753 242.158 224.091 243.085 222.524Z" fill="#3391CA"/>
<path d="M109.411 224.344C109.411 230.161 110.108 235.869 111.007 241.606C111.136 241.463 111.273 241.326 111.424 241.197C112.272 247.862 115.026 254.47 118.722 260.049C118.571 260.868 118.42 261.695 118.268 262.515C112.358 261.551 106.729 262.918 100.833 262.731C100.891 262.083 100.94 261.436 100.984 260.79C101.293 257.504 99.1215 254.8 97.9428 251.795C95.4837 245.892 94.0026 239.198 94.528 232.799C94.5998 231.174 96.2387 230.455 97.4249 229.686C100.589 227.974 103.91 226.587 107.038 224.796C107.821 224.596 108.613 224.459 109.411 224.344Z" fill="#FEFDFC"/>
<path d="M107.037 224.796C103.91 226.587 100.588 227.975 97.4247 229.686C96.2385 230.455 94.5997 231.174 94.5269 232.799C94.0024 239.198 95.4835 245.892 97.9427 251.795C99.1214 254.8 101.293 257.504 100.984 260.79C99.0281 261.199 96.1667 262.321 94.3048 261.357C92.3916 259.301 91.4285 256.231 90.3786 253.664C88.3366 248.509 87.5965 243.159 86.7481 237.724C84.512 237.545 82.2685 237.479 80.0249 237.501C79.8168 242.088 79.8308 246.438 81.6786 250.731C83.8718 255.929 85.1737 261.379 86.1294 266.922C87.1793 275.284 86.5755 283.581 84.7705 291.792C84.0734 296.006 82.8219 299.126 80.4635 302.67C87.1075 286.407 87.6394 267.217 80.946 250.889C80.0613 248.473 79.5293 246.022 78.9255 243.534C78.7379 241.14 78.7743 238.781 78.8172 236.387C81.6936 236.452 84.5475 236.674 87.366 237.25C88.4663 244.878 89.9045 252.162 93.5787 259.028C94.0454 259.747 94.6137 260.79 95.5199 260.969C97.6048 261.494 99.0206 260.473 100.79 259.589C96.3683 251.075 92.9236 242.671 93.5134 232.857C93.4705 231.145 95.1093 230.268 96.3468 229.434C99.6468 227.522 103.285 225.566 107.037 224.796Z" fill="#7D7267"/>
<path d="M40.0856 226.199C46.8513 226.314 53.9908 229.427 58.168 234.862C54.0915 232.246 49.9214 228.556 45.2121 227.486C41.6242 226.652 37.828 226.314 34.3696 227.824C30.5806 229.542 27.0647 231.239 24.6561 234.791C27.5105 234.927 30.3649 234.97 33.2265 235.049C33.1761 236.157 33.1186 237.264 33.0683 238.378C34.233 238.141 35.3978 237.91 36.5625 237.666C40.0281 239.701 43.2348 241.765 45.8304 244.9C45.2911 245.195 44.7591 245.489 44.2198 245.783C41.5092 243.203 38.5902 240.88 35.2828 239.112C35.8723 239.917 36.4619 240.722 37.0874 241.491C32.3924 238.465 26.8059 238.414 22.3481 235.071C24.994 232.525 27.8124 229.952 30.9401 228.018C33.5643 226.364 37.0659 226.141 40.0856 226.199Z" fill="#343635"/>
<path d="M45.2117 227.486C49.9211 228.557 54.0912 232.246 58.1676 234.863C60.4252 237.228 62.554 239.68 64.2646 242.476C66.5941 246.266 69.3911 250.206 70.7574 254.433C71.965 258.079 72.7704 261.875 73.5469 265.628C74.5828 270.525 74.2301 275.939 74.2375 280.964C74.2161 286.306 73.1661 291.095 70.9226 295.934C68.5427 301.268 65.6813 306.804 61.1233 310.615C58.8722 312.334 56.3057 313.829 53.6455 314.807C50.5682 315.102 47.419 315.174 44.3489 314.821C41.4442 314.469 39.1291 313.161 36.5982 311.852C34.6282 310.615 32.8882 309.106 31.2058 307.509C35.3184 304.706 39.4526 303.303 42.7959 299.529C49.1159 292.195 52.0924 282.654 51.7977 273.027C51.395 266.261 50.4388 259.697 47.268 253.6C44.9456 248.689 41.3004 244.842 37.0871 241.492C36.4616 240.723 35.872 239.917 35.2824 239.112C38.5898 240.88 41.5089 243.203 44.2195 245.784C55.17 259.38 56.7798 279.864 48.4328 295.136C45.7078 300.104 41.4945 303.21 36.929 306.338C41.6527 306.33 46.6138 305.834 51.0715 304.174C55.9679 302.066 60.7061 298.853 63.2875 294.043C64.7322 291.181 66.6594 288.313 67.2268 285.184C68.7798 277.75 68.3486 270.093 66.7453 262.716C65.5012 256.986 62.8199 251.845 59.5124 247.049C56.4635 243.454 52.4232 240.579 48.3969 238.177C43.8815 235.495 39.2801 235.337 34.2255 234.64C35.2393 235.129 36.2531 235.603 37.2957 236.035C36.5695 236.164 35.8432 236.293 35.117 236.437C35.5988 236.854 36.0733 237.264 36.5622 237.666C35.3975 237.911 34.2328 238.141 33.068 238.378C33.1183 237.264 33.1758 236.157 33.2261 235.049C30.3646 234.971 27.5102 234.927 24.6558 234.791C27.0644 231.239 30.5802 229.542 34.3693 227.824C37.8277 226.314 41.624 226.652 45.2117 227.486Z" fill="#666666"/>
<path d="M154.549 229.362C158.82 230.361 162.939 230.326 167.275 230.038C167.534 231.735 167.757 233.432 168.009 235.128C167.203 235.869 166.369 236.573 165.55 237.285C166.333 238.465 167.095 239.651 167.85 240.845C168.792 245.77 169.741 250.788 169.914 255.799C169.928 257.568 169.978 259.56 169.368 261.242C165.111 263.946 159.653 264.413 155.124 266.749C154.016 263.686 155.347 261.35 156.044 258.41C157.568 252.585 159.948 246.985 161.451 241.168C160.33 241.829 159.373 242.563 158.496 243.533C158.604 240.197 159.043 237.077 157.957 233.82C157.324 234.488 156.605 235.157 156.095 235.926C155.742 238.234 155.771 240.593 155.47 242.908C155.714 238.321 154.635 233.927 154.549 229.362Z" fill="#FADFBC"/>
<path d="M252.102 229.606C253.575 233.871 254.259 238.149 254.783 242.606L254.035 242.765C252.626 240.672 251.397 238.486 249.837 236.495C248.09 237.695 245.623 239.335 245.279 241.585C244.811 244.605 244.918 247.747 245.07 250.795C244.638 249.811 244.163 248.84 243.682 247.876C243.538 248.402 243.402 248.933 243.265 249.465C243.193 245.295 242.833 241.189 241.985 237.106C241.884 235.61 241.863 234.115 241.77 232.612C245.184 231.497 248.693 230.743 252.102 229.606Z" fill="#2DB1B5"/>
<path d="M279.128 232.281C284.031 232.446 288.95 232.375 293.853 232.382C320.513 232.382 347.173 232.361 373.833 232.411C374.085 242.75 373.97 253.125 373.898 263.471C363.436 263.478 352.976 263.421 342.515 263.492C342.443 265.484 342.414 267.469 342.414 269.461C342.421 299.306 342.327 329.166 342.457 359.011C331.672 358.989 320.887 359.082 310.102 358.975C310.015 327.131 310.124 295.272 310.038 263.428C299.727 263.543 289.416 263.342 279.106 263.529C278.977 253.154 278.977 242.664 279.128 232.281Z" fill="white"/>
<path d="M380.204 232.454C391.917 232.382 403.636 232.389 415.348 232.461C416.873 238.537 418.814 244.504 420.403 250.566C426.579 273.142 433.144 295.481 439.42 318.035C439.823 318.035 440.225 318.035 440.628 318.035C441.369 314.584 442.397 311.183 443.325 307.776C450.5 282.561 457.661 257.641 464.779 232.375C476.419 232.498 488.11 232.217 499.729 232.541C499.909 234.726 498.565 237.063 498.004 239.177C493.1 255.009 487.629 270.647 482.768 286.5C477.605 302.642 472.077 318.676 467.137 334.888C464.549 342.928 462.119 350.994 459.271 358.954C446.481 359.061 433.683 359.025 420.884 359.004C419.339 355.258 418.238 351.382 416.973 347.543C412.99 335.011 409.022 322.451 404.858 309.983C397.956 288.449 390.975 266.994 384.03 245.475C382.685 241.183 380.945 236.89 380.204 232.454Z" fill="white"/>
<path d="M147.862 233.562C148.538 237.573 148.862 241.657 149.25 245.705C151.393 244.929 153.434 243.936 155.469 242.908C155.771 240.593 155.742 238.234 156.094 235.926C156.605 235.157 157.324 234.488 157.956 233.82C159.043 237.077 158.604 240.197 158.496 243.533C156.267 249.314 153.125 254.843 150.077 260.221C148.596 262.795 148.121 265.239 148.258 268.209C147.891 268.238 147.524 268.267 147.165 268.296C146.632 264.931 147.006 261.602 146.841 258.237C146.798 256.756 145.273 256.547 144.159 256.166C142.326 258.467 140.039 258.488 137.537 259.531C134.777 261.925 133.317 265.362 129.621 267.044C127.011 268.188 123.905 266.664 121.339 265.959C115.414 264.334 108.526 264.427 102.458 264.075C98.1442 263.83 94.175 262.465 90.2133 260.84C89.3146 262.486 88.3869 263.931 88.2936 265.872C88.0136 270.179 88.5381 274.515 88.3076 278.836C88.1424 283.588 86.9637 287.96 86.4886 292.684C85.9212 292.368 85.3528 292.073 84.7705 291.792C86.5754 283.581 87.1792 275.284 86.1293 266.922C85.1737 261.378 83.8718 255.929 81.6786 250.731C79.8307 246.438 79.8167 242.088 80.0248 237.501C82.2684 237.479 84.512 237.545 86.7481 237.724C87.5964 243.159 88.3365 248.509 90.3785 253.664C91.4284 256.231 92.3915 259.301 94.3047 261.357C96.1666 262.321 99.028 261.199 100.984 260.79C100.94 261.436 100.891 262.083 100.833 262.731C106.728 262.917 112.358 261.551 118.268 262.515C118.419 261.695 118.571 260.868 118.721 260.049C120.188 262.026 122.036 264.111 124.258 265.233C125.523 265.765 127.141 265.585 128.478 265.47C132.023 263.55 133.273 258.618 134.05 254.973C134.094 255.936 134.151 256.892 134.222 257.849C137.458 255.908 140.729 253.103 144.425 252.356C146.151 251.874 148.437 251.737 149.868 250.609C150.997 249.673 151.04 248.279 151.421 246.948C150.407 246.554 149.4 246.15 148.387 245.748C147.783 241.693 147.847 237.645 147.862 233.562Z" fill="#F4E1C7"/>
<path d="M34.2261 234.64C39.2806 235.337 43.8821 235.495 48.3974 238.177C52.4238 240.579 56.4641 243.454 59.513 247.049C62.8205 251.845 65.5018 256.986 66.7459 262.716C68.3492 270.094 68.7804 277.75 67.2274 285.184C66.66 288.313 64.7328 291.181 63.2881 294.043C60.7067 298.853 55.9685 302.066 51.072 304.174C46.6143 305.834 41.6533 306.33 36.9295 306.338C41.4951 303.21 45.7084 300.104 48.4334 295.136C56.7804 279.864 55.1705 259.381 44.2201 245.784C44.7593 245.489 45.2914 245.195 45.8306 244.9C49.4399 248.696 52.0499 253.168 53.4159 258.237C54.6311 262.58 54.8542 266.901 55.4505 271.337C56.1197 271.366 56.7879 271.395 57.4571 271.423C57.9237 265.657 54.689 260.379 55.1276 254.433C56.6367 254.606 57.9312 254.233 59.0165 255.541C61.9722 258.719 62.7701 264.119 64.2512 268.152C64.9344 268.353 65.6175 268.555 66.3072 268.763C65.2573 261.681 62.5182 254.779 58.4557 248.89C53.3512 241.909 45.6652 237.761 37.2962 236.035C36.2537 235.603 35.2399 235.129 34.2261 234.64Z" fill="#030303"/>
<path d="M260.276 235.1C261.419 239.075 261.592 243.037 261.916 247.128C263.347 260.681 262.038 274.63 258.824 287.845C258.436 289.276 257.867 290.627 257.357 292.007C258.328 284.897 260.262 278.088 260.779 270.913C261.635 258.956 261.247 247.035 260.276 235.1Z" fill="black"/>
<path d="M35.1172 236.437C35.8434 236.293 36.5695 236.163 37.2957 236.035C45.6647 237.76 53.3507 241.909 58.4551 248.889C62.5176 254.778 65.2568 261.681 66.3067 268.762C65.617 268.554 64.9339 268.353 64.2507 268.151C62.7696 264.119 61.9717 258.719 59.016 255.541C57.9306 254.232 56.6362 254.606 55.1271 254.433C54.6885 260.379 57.9232 265.657 57.4565 271.423C56.7874 271.394 56.1192 271.365 55.45 271.336C54.8536 266.901 54.6306 262.58 53.4155 258.237C52.0494 253.168 49.4394 248.695 45.8301 244.9C43.2346 241.765 40.0279 239.701 36.5624 237.666C36.0734 237.264 35.5988 236.854 35.1172 236.437Z" fill="#A7A7A7"/>
<path d="M249.837 236.495C251.397 238.486 252.626 240.672 254.035 242.764C253.791 246.963 253.913 251.14 253.309 255.325C252.554 254.39 251.821 253.377 250.937 252.564C248.859 251.636 247.342 252.564 245.53 253.52C245.4 252.607 245.235 251.701 245.07 250.795C244.918 247.747 244.811 244.605 245.279 241.585C245.623 239.335 248.09 237.695 249.837 236.495Z" fill="#12D9AD"/>
<path d="M167.85 240.845C168.497 241.383 169.159 241.909 169.82 242.433C173.351 247.049 176.859 251.68 180.382 256.302C181.748 258.265 183.459 260.681 183.661 263.112C183.79 264.736 181.64 265.643 180.418 266.161C174.508 268.339 167.792 268.712 161.545 269.108C158.762 269.323 157.173 268.511 155.124 266.749C159.653 264.413 165.111 263.946 169.368 261.242C169.978 259.56 169.928 257.568 169.914 255.799C169.741 250.788 168.792 245.77 167.85 240.845Z" fill="#AD896A"/>
<path d="M161.451 241.167C159.948 246.985 157.568 252.585 156.044 258.41C155.347 261.35 154.017 263.686 155.124 266.749C157.173 268.511 158.762 269.323 161.545 269.108C167.792 268.712 174.508 268.339 180.418 266.159C181.64 265.642 183.79 264.736 183.66 263.111C183.459 260.681 181.748 258.265 180.382 256.302C176.859 251.68 173.351 247.049 169.82 242.433C170.697 242.728 171.581 242.994 172.466 243.296C177.276 245.259 180.001 250.076 184.48 253.053C187.061 255.72 190.512 258.942 190.103 262.989C190.649 267.325 186.271 269.948 182.834 271.373C175.248 274.127 166.484 275.385 158.438 274.745C155.914 274.234 153.269 273.558 151.199 271.941C150.048 270.876 149.2 269.453 148.258 268.209C148.121 265.239 148.596 262.795 150.077 260.221C153.125 254.843 156.267 249.314 158.496 243.533C159.373 242.563 160.33 241.829 161.451 241.167Z" fill="#110401"/>
<path d="M254.035 242.765L254.783 242.606C255.732 247.998 255.524 253.175 255.574 258.676C255.768 277.534 250.879 296.214 242.179 312.888C240.82 312.816 239.454 312.729 238.095 312.686C238.477 309.537 238.879 306.416 238.749 303.231C238.735 299.069 237.361 295.617 238.555 291.462C240.424 284.681 242.078 277.916 242.984 270.934C243.524 263.816 243.322 256.598 243.264 249.465C243.401 248.934 243.538 248.402 243.681 247.876C244.163 248.84 244.638 249.811 245.069 250.795C245.234 251.702 245.401 252.607 245.529 253.521C246.335 260.818 245.12 268.411 244.444 275.694C243.976 279.419 243.272 283.078 242.078 286.644C239.634 293.849 240.36 301.592 240.842 309.041C243.229 304.166 246.011 299.615 247.701 294.424C249.491 289.779 249.621 284.998 250.865 280.246C251.727 277.103 252.669 274.048 252.993 270.783C253.61 265.585 252.762 260.524 253.309 255.325C253.913 251.141 253.791 246.963 254.035 242.765Z" fill="#41DB8B"/>
<path d="M25.7059 243.203C30.4081 243.483 34.075 246.014 37.5261 248.984C42.4224 253.045 45.3416 259.099 46.4632 265.276C47.1102 268.892 47.9011 272.229 47.5919 275.931C47.1893 280.791 46.2331 285.544 44.0042 289.916C41.876 294.315 39.072 299.348 34.3841 301.39C37.7633 295.408 40.3517 289.326 41.1138 282.438C41.6315 274.234 41.2433 266.282 36.843 259.099C34.3984 254.887 30.0917 252.362 25.5764 250.91C21.1043 249.609 17.5238 251.234 12.9941 251.119C15.0073 246.222 20.2991 242.491 25.7059 243.203Z" fill="#A4A4A4"/>
<path d="M184.868 247.15C186.457 249.4 188.808 252.665 191.821 252.824C194.827 253.024 196.48 249.458 197.378 247.115C197.378 247.754 197.386 248.387 197.401 249.02C199.593 248.121 201.672 247.409 204.08 247.567C204.188 249.07 204.353 250.565 204.533 252.069C205.043 252.263 205.554 252.457 206.057 252.665C209.623 254.261 212.456 257.762 214.771 260.811C221.422 270.187 225.635 281.087 227.318 292.44C227.813 298.889 227.642 305.417 227.541 311.888C227.548 317.561 225.765 322.737 223.758 327.965C223.5 324.068 224.787 320.429 224.269 316.54C224.672 316.784 225.074 317.029 225.47 317.267C224.412 306.331 225.441 296.682 223.614 285.961C222.543 282.884 221.293 279.98 220.789 276.723C218.862 275.385 217.022 273.969 215.231 272.451C212.082 275.176 209.192 278.161 206.323 281.172C207.408 283.323 209.817 285.94 209.264 288.442C208.66 293.216 208.753 297.94 208.775 302.736C208.724 304.289 208.832 305.813 207.847 307.114C205.993 309.537 203.332 311.248 201.412 313.65C199.011 316.497 197.882 319.682 196.452 323.061C195.546 323.421 194.639 323.78 193.733 324.154C193.043 325.233 192.64 327.239 191.095 327.181C189.197 327.095 187.241 326.045 185.357 326.21C184.056 326.498 182.777 327.095 181.539 327.598C182.416 327.864 183.359 328.044 184.192 328.432C185.091 329.151 184.998 330.74 184.976 331.783C184.221 331.107 183.474 330.431 182.682 329.791C180.54 327.893 178.736 326.959 175.816 326.749C180.72 325.65 185.178 323.816 189.311 320.933C196.049 317.123 201.196 310.22 203.986 303.087C205.849 298.508 207.014 293.87 206.273 288.895C205.684 286.335 204.18 284.049 201.822 282.82C199.263 282.459 196.452 282.403 193.899 282.82C191.864 283.474 190.009 284.934 188.119 285.94C183.703 288.298 178.807 290.074 173.825 290.678C167.836 291.073 161.875 290.793 156.152 288.851C157.554 287.5 159.02 286.364 160.883 285.703C163.859 286.227 166.268 286.234 169.23 285.623C170.639 286.256 172.157 287.133 173.702 287.292C174.86 287.148 175.925 286.12 176.96 285.588C179.871 284.473 182.841 284.25 185.659 282.776C188.449 281.353 190.512 278.822 193.345 277.729C195.553 276.866 197.904 276.327 200.183 275.673C200.175 274.889 200.169 274.112 200.161 273.328C197.911 272.955 195.423 272.416 193.166 272.897C191.037 273.372 188.959 274.458 186.931 275.284C183.567 276.694 179.785 277.513 176.241 278.455C175.96 277.643 175.644 276.845 175.327 276.047C169.698 276.025 164.104 276.391 158.474 276.111C158.46 275.659 158.453 275.198 158.438 274.745C166.484 275.385 175.248 274.127 182.834 271.373C186.271 269.95 190.649 267.326 190.103 262.99C190.512 258.942 187.061 255.72 184.48 253.053C183.214 251.565 182.036 250.012 180.691 248.588C181.993 248.552 183.294 248.538 184.602 248.538C184.689 248.078 184.782 247.61 184.868 247.15Z" fill="#F7DEBD"/>
<path d="M250.937 252.564C251.821 253.377 252.554 254.39 253.309 255.325C252.763 260.524 253.612 265.585 252.993 270.783C252.669 274.048 251.728 277.103 250.865 280.245C248.895 278.469 246.86 276.83 244.444 275.694C245.12 268.411 246.335 260.818 245.53 253.52C247.342 252.564 248.859 251.636 250.937 252.564Z" fill="#0AF98E"/>
<path d="M144.159 256.166C145.273 256.547 146.798 256.756 146.841 258.237C147.006 261.601 146.632 264.93 147.165 268.296C147.524 268.267 147.891 268.238 148.258 268.209C149.2 269.453 150.048 270.876 151.199 271.941C153.269 273.558 155.915 274.234 158.438 274.745C158.453 275.197 158.46 275.658 158.474 276.111C164.104 276.391 169.698 276.024 175.327 276.046C175.644 276.844 175.96 277.642 176.241 278.454C176.5 280.828 176.665 283.214 176.96 285.587C175.925 286.119 174.86 287.148 173.703 287.291C172.157 287.133 170.64 286.255 169.23 285.623C169.108 283.466 168.95 281.302 168.706 279.152C164.874 278.829 161.077 278.62 157.23 278.549C152.269 278.498 148.488 275.758 143.584 275.348C139.551 274.867 135.546 275.938 132.756 279.023C136.394 279.979 139.205 277.599 142.815 278.994C149.034 281.129 154.175 284.724 160.883 285.702C159.021 286.364 157.554 287.5 156.152 288.851C152.075 287.614 147.798 285.681 143.584 285.055C137.94 284.767 132.741 284.566 127.594 287.291C124.164 289.01 121.662 292.224 120.994 296.005C120.799 298.766 120.699 301.664 121.195 304.395C122.733 310.393 124.991 315.943 129.651 320.207C135.165 325.218 142.031 327.554 149.307 328.525C158.208 329.467 167.103 328.727 175.816 326.749C178.736 326.958 180.541 327.892 182.682 329.791C180.095 330.747 177.787 331.847 175.011 332.207C172.466 332.516 169.892 332.602 167.332 332.825C167.088 333.529 166.829 334.234 166.571 334.931C169.187 337.427 172.847 340.475 176.657 340.36C178.369 340.403 179.376 339.015 180.418 337.872C182 335.888 183.474 333.817 184.976 331.782C184.998 330.74 185.091 329.15 184.192 328.432C183.359 328.043 182.416 327.863 181.539 327.597C182.777 327.094 184.056 326.498 185.357 326.21C187.241 326.044 189.197 327.094 191.095 327.18C192.64 327.238 193.044 325.232 193.733 324.154C194.639 323.779 195.546 323.42 196.452 323.061C197.883 319.681 199.011 316.496 201.412 313.649C203.332 311.247 205.993 309.537 207.847 307.114C208.833 305.812 208.724 304.288 208.775 302.735C208.753 297.939 208.66 293.216 209.264 288.441C209.817 285.939 207.409 283.322 206.323 281.172C209.192 278.159 212.082 275.176 215.231 272.451C217.022 273.968 218.862 275.385 220.79 276.722C221.293 279.979 222.543 282.884 223.615 285.961C225.441 296.681 224.414 306.33 225.47 317.266C225.074 317.028 224.672 316.784 224.269 316.54C224.787 320.429 223.5 324.068 223.758 327.964C221.336 335.449 216.82 342.459 211.802 348.47C203.778 357.443 193.418 364.403 182.05 368.364C180.137 368.479 178.218 368.537 176.305 368.652C176.557 368.149 176.802 367.652 177.046 367.149C173.825 366.977 170.985 367.192 167.829 367.868C161.048 368.817 153.93 368.285 147.179 367.264C142.053 366.553 137.035 364.661 132.289 362.613C127.982 360.592 123.589 358.061 120.203 354.682C118.412 352.892 116.449 351.209 114.86 349.239C113.358 347.693 114.508 345.356 114.702 343.487C111.1 340.23 106.606 338.469 102.997 335.233C101.221 333.752 99.898 331.933 98.6045 330.042C99.352 329.115 100.107 328.187 100.862 327.259C98.5606 325.656 96.3973 324.125 95.0375 321.594C93.003 317.834 90.9041 314.397 89.8252 310.378C90.8173 309.817 91.8168 309.285 92.8023 308.731C90.1994 303.432 87.2158 298.694 86.4888 292.684C86.9638 287.96 88.1425 283.588 88.3086 278.836C88.5382 274.515 88.0137 270.179 88.2937 265.872C88.387 263.931 89.3147 262.486 90.2134 260.84C94.1752 262.465 98.1443 263.83 102.458 264.075C108.526 264.427 115.414 264.334 121.339 265.959C123.905 266.663 127.011 268.187 129.622 267.044C133.317 265.362 134.777 261.925 137.538 259.53C140.04 258.488 142.326 258.467 144.159 256.166Z" fill="#FDDDB8"/>
<path d="M193.166 272.897C195.424 272.415 197.912 272.955 200.162 273.328C200.169 274.112 200.176 274.889 200.183 275.673C197.904 276.327 195.553 276.866 193.345 277.729C190.513 278.821 188.449 281.352 185.66 282.776C182.841 284.25 179.872 284.473 176.96 285.588C176.665 283.214 176.5 280.828 176.241 278.455C179.786 277.513 183.567 276.694 186.932 275.284C188.96 274.457 191.037 273.372 193.166 272.897Z" fill="#B08A67"/>
<path d="M143.584 275.349C148.488 275.758 152.269 278.498 157.23 278.549C161.077 278.621 164.874 278.829 168.706 279.153C168.95 281.302 169.108 283.466 169.23 285.623C166.268 286.234 163.859 286.227 160.883 285.702C154.175 284.724 149.034 281.129 142.815 278.994C139.205 277.6 136.394 279.979 132.756 279.023C135.546 275.938 139.551 274.867 143.584 275.349Z" fill="#B08763"/>
<path d="M250.865 280.245C249.621 284.998 249.492 289.779 247.702 294.424C246.011 299.614 243.229 304.166 240.842 309.04C240.36 301.592 239.634 293.849 242.079 286.644C243.272 283.078 243.977 279.419 244.444 275.694C246.86 276.83 248.895 278.469 250.865 280.245Z" fill="#10FB76"/>
<path d="M193.899 282.819C196.452 282.402 199.263 282.459 201.822 282.819C204.18 284.048 205.684 286.335 206.273 288.895C207.014 293.87 205.849 298.507 203.986 303.087C201.197 310.22 196.049 317.122 189.312 320.933C187.191 321.163 185.437 321.594 183.596 322.68C184.221 320.645 185.171 319.064 183.747 317.079C182.618 315.073 180.677 315.713 178.736 315.403C176.981 315.044 175.248 314.605 173.523 314.131C173.638 313.728 173.753 313.326 173.868 312.916C168.741 312.635 163.853 311.319 158.683 311.542C150.134 311.449 141.758 311.585 133.475 314.002C133.108 315.203 132.728 316.403 132.289 317.583C131.462 318.495 130.542 319.351 129.651 320.207C124.991 315.943 122.733 310.393 121.195 304.395C120.699 301.664 120.799 298.766 120.994 296.005C121.662 292.224 124.164 289.01 127.594 287.292C132.742 284.566 137.94 284.767 143.584 285.055C147.798 285.681 152.075 287.614 156.153 288.851C161.875 290.792 167.836 291.073 173.825 290.677C178.808 290.074 183.704 288.298 188.119 285.939C190.01 284.933 191.864 283.473 193.899 282.819Z" fill="#090302"/>
<path d="M198.112 286.17C197.861 288.542 198.407 291.994 196.862 293.978C195.186 295.689 192.669 296.71 190.52 297.702C183.086 301.103 174.688 302.642 166.6 303.461C156.569 304.058 146.403 303.922 136.365 303.469C132.619 303.376 130.06 300.938 128.946 297.508C128.658 295.532 128.729 293.49 128.665 291.498C130.449 290.693 132.347 289.808 134.259 289.377C136.639 289.097 139.069 289.118 141.463 289.183C144.914 289.183 148.243 290.628 151.457 291.807C154.319 292.929 157.238 293.633 160.229 294.301C164.564 295.409 169.36 295.071 173.817 295C179.879 294.23 185.926 292.267 191.102 288.981C193.36 287.658 195.402 286.306 198.112 286.17Z" fill="#F9FBF9"/>
<path d="M84.7709 291.792C85.3532 292.073 85.9216 292.368 86.489 292.684C87.2151 298.694 90.1997 303.433 92.8026 308.732C91.817 309.285 90.8175 309.817 89.8254 310.378C90.9043 314.398 93.0032 317.834 95.0377 321.594C96.3975 324.125 98.5608 325.657 100.862 327.26C100.107 328.188 99.3522 329.115 98.6047 330.043C99.8982 331.934 101.222 333.753 102.998 335.234C106.607 338.469 111.1 340.23 114.703 343.488C114.508 345.357 113.358 347.694 114.86 349.239C116.45 351.209 118.412 352.892 120.202 354.682C123.589 358.061 127.982 360.592 132.289 362.613C137.035 364.661 142.053 366.553 147.179 367.264C153.931 368.285 161.049 368.817 167.829 367.868C169.18 368.034 170.518 368.256 171.862 368.479C169.087 370.104 166.297 369.997 163.191 370.515C155.642 371.723 148.265 371.003 140.708 370.356C136.927 369.99 133.303 369.12 129.636 368.149C123.683 366.61 117.88 363.31 112.358 360.614C108.347 358.752 105.434 355.596 102.034 352.741C98.3956 349.642 95.16 346.17 92.069 342.532C87.2944 337.455 84.1596 330.46 80.9099 324.276C78.6813 320.142 77.3514 315.77 75.9926 311.298C75.1872 311.636 74.3957 311.996 73.5903 312.348C76.1363 309.285 78.5441 306.179 80.4638 302.67C82.8222 299.126 84.0737 296.006 84.7709 291.792Z" fill="#B48864"/>
<path d="M75.9924 311.298C77.3512 315.771 78.6811 320.142 80.9098 324.276C84.1594 330.46 87.2943 337.456 92.0689 342.532C95.1598 346.17 98.3955 349.643 102.033 352.741C105.434 355.596 108.347 358.752 112.358 360.614C117.88 363.31 123.682 366.61 129.636 368.149C133.302 369.12 136.926 369.99 140.708 370.356C148.265 371.003 155.642 371.723 163.191 370.515C166.297 369.997 169.087 370.104 171.862 368.48C170.517 368.257 169.18 368.034 167.829 367.868C170.985 367.193 173.825 366.977 177.046 367.15C176.801 367.653 176.558 368.149 176.306 368.652C178.218 368.537 180.138 368.48 182.05 368.365C176.974 370.421 171.639 371.909 166.247 372.872C163.242 373.462 160.336 374.188 157.245 374.182C151.04 374.332 144.792 374.419 138.594 374.023C133.073 373.247 127.5 372.003 122.374 369.782C117.873 367.883 113.53 366.021 109.396 363.375C93.3484 352.929 80.9816 337.161 74.5832 319.114C73.9784 316.95 72.2752 314.484 73.5902 312.348C74.3956 311.996 75.187 311.636 75.9924 311.298Z" fill="#F6DCC4"/>
<path d="M29.3076 312.197C30.1201 312.441 30.9253 312.693 31.7307 312.952C33.9954 315.318 35.9726 316.49 39.2153 317.173C41.4298 317.878 44.6868 318.193 46.1392 320.157C47.9798 322.414 49.5472 324.88 51.4382 327.102C54.2566 330.955 57.5712 334.313 60.9291 337.685C58.8657 336.398 56.7369 335.284 54.7817 333.824C51.6395 331.53 49.3603 328.647 46.362 326.138C45.83 327.44 44.881 328.842 45.5209 330.272C46.4627 333.048 48.3249 334.773 47.5628 337.916C46.2471 336.635 44.8953 335.478 43.6946 334.09C38.2087 327.26 33.3267 319.99 29.3076 312.197Z" fill="#E59055"/>
<path d="M36.5985 311.853C39.1293 313.161 41.4445 314.469 44.3492 314.821C47.4193 315.174 50.5685 315.102 53.6457 314.807C49.72 315.943 45.2192 315.475 41.1497 315.332C41.4086 315.943 41.6674 316.554 41.919 317.166C41.013 317.18 40.1143 317.18 39.2156 317.173C35.9729 316.49 33.9957 315.318 31.731 312.953C33.3559 312.579 34.952 312.147 36.5985 311.853Z" fill="#220203"/>
<path d="M158.683 311.543C163.853 311.32 168.742 312.636 173.868 312.917C173.753 313.326 173.638 313.729 173.524 314.132C175.248 314.606 176.981 315.045 178.736 315.404C180.252 316.432 181.706 317.525 183.172 318.618C182.079 320.078 181.102 321.113 179.254 321.559C174.264 322.867 168.908 324.672 163.737 324.564C156.67 324.564 148.833 325.002 141.945 323.269C138.3 322.127 134.77 320.602 132.289 317.583C132.728 316.403 133.108 315.203 133.475 314.002C141.758 311.586 150.134 311.45 158.683 311.543Z" fill="#961F29"/>
<path d="M238.095 312.686C239.454 312.729 240.82 312.816 242.179 312.888C240.655 315.476 239.411 318.179 238.066 320.854L236.851 321.322C237.247 318.438 237.635 315.555 238.095 312.686Z" fill="#86D3A5"/>
<path d="M144.986 313.606C149.062 313.305 153.154 313.182 157.245 313.095C163.45 312.844 169.978 314.728 176.032 316.144C178.412 316.69 179.476 317.546 180.892 319.452C174.393 322.004 167.742 322.335 160.84 322.277C154.664 322.191 147.833 322.665 141.816 321.285C138.551 320.458 136.208 318.87 134.273 316.123C137.817 314.986 141.233 313.879 144.986 313.606Z" fill="#F2163A"/>
<path d="M178.736 315.403C180.677 315.713 182.618 315.073 183.747 317.079C185.17 319.064 184.221 320.645 183.596 322.68C185.436 321.594 187.191 321.163 189.311 320.933C185.178 323.816 180.72 325.65 175.816 326.749C167.102 328.727 158.208 329.467 149.307 328.525C142.031 327.554 135.165 325.218 129.65 320.207C130.542 319.351 131.462 318.495 132.289 317.583C134.769 320.602 138.3 322.127 141.944 323.269C148.833 325.002 156.669 324.563 163.737 324.563C168.906 324.672 174.263 322.867 179.254 321.558C181.101 321.112 182.079 320.077 183.171 318.617C181.705 317.525 180.252 316.432 178.736 315.403Z" fill="#1A0401"/>
<path d="M46.3623 326.138C49.3605 328.648 51.6396 331.531 54.7819 333.825C56.7371 335.284 58.8659 336.399 60.9294 337.685C61.6844 338.454 62.4245 339.252 63.1505 340.051C62.6615 340.051 62.1659 340.051 61.6694 340.059C62.7119 342.064 63.8412 344.02 64.7035 346.112C62.9779 347.377 61.2457 348.636 59.5127 349.887C54.8538 346.335 51.158 342.538 47.563 337.916C48.3251 334.774 46.463 333.048 45.521 330.273C44.8812 328.842 45.8302 327.44 46.3623 326.138Z" fill="#F2B23C"/>
<path d="M51.4385 327.102C55.9756 330.956 59.7927 335.529 64.3303 339.389C68.7586 343.588 73.8636 346.673 78.9331 349.994C82.8005 352.533 85.2018 356.005 88.0642 359.521C84.2387 356.674 81.9811 352.69 77.8328 350.282C72.7857 347.234 68.1333 343.998 63.5174 340.324L63.1506 340.051C62.4245 339.253 61.6844 338.454 60.9294 337.685C57.5715 334.313 54.2569 330.956 51.4385 327.102Z" fill="#735A20"/>
<path d="M182.683 329.791C183.474 330.431 184.222 331.106 184.977 331.782C183.474 333.817 182.001 335.888 180.419 337.872C179.376 339.015 178.369 340.403 176.658 340.36C172.847 340.475 169.188 337.427 166.571 334.931C166.829 334.234 167.088 333.529 167.332 332.825C169.892 332.602 172.466 332.516 175.011 332.207C177.787 331.847 180.095 330.747 182.683 329.791Z" fill="#AF8560"/>
<path d="M198.917 336.722C198.393 343.602 193.345 350.145 187.715 353.855C181.323 357.745 173.401 359.866 165.923 358.795C159.747 357.565 153.701 354.625 149.825 349.527C149.228 347.536 149.12 345.047 151.356 344.062C152.657 343.646 154.613 343.38 155.742 344.335C158.453 346.284 160.883 348.39 164.025 349.663C168.094 351.504 172.344 351.274 176.701 351.036C184.12 349.994 190.017 345.651 194.582 339.9C196.056 338.281 196.258 336.348 198.917 336.722Z" fill="white"/>
<path d="M61.6695 340.057C62.166 340.05 62.6615 340.05 63.1506 340.05L63.5173 340.323C68.1333 343.998 72.7856 347.233 77.8327 350.281C81.9811 352.69 84.2387 356.673 88.0641 359.521C90.0053 361.512 92.0109 363.424 94.1462 365.2C93.5424 365.746 92.9097 366.286 92.2414 366.753C90.3646 366.79 88.3871 365.775 86.7053 365.028C82.2396 362.799 77.7245 361.052 73.7842 357.896C71.4408 356.026 69.4781 355.357 66.501 355.012C64.0997 353.424 61.7843 351.669 59.5127 349.886C61.2458 348.635 62.9779 347.377 64.7035 346.111C63.8412 344.019 62.7119 342.064 61.6695 340.057Z" fill="#F6DB37"/>
<path d="M66.501 355.013C69.4781 355.358 71.4408 356.027 73.7842 357.896C77.7244 361.052 82.2396 362.799 86.7053 365.028C88.387 365.777 90.3646 366.79 92.2414 366.754C92.9096 366.287 93.5424 365.748 94.1462 365.201C96.9292 367.819 101.006 369.465 103.112 372.629C99.5536 372.161 96.4831 370.759 93.1905 369.443C83.9148 365.748 74.3311 361.304 66.501 355.013Z" fill="#D9E979"/>
</svg>
