<svg version="1.1" id="Layer_1" xmlns="http://www.w3.org/2000/svg" xmlns:xlink="http://www.w3.org/1999/xlink" x="0px" y="0px"
	 width="100%" viewBox="0 0 204 324" enable-background="new 0 0 204 324" xml:space="preserve">
<path fill="#231F20" opacity="1.000000" stroke="none" 
	d="
M1.000000,296.000000 
	C1.000000,213.645767 1.000000,131.291550 1.468657,48.467911 
	C18.935360,47.998623 35.935036,48.128342 52.930397,47.914753 
	C57.630848,47.855675 59.214100,49.749752 59.030952,54.115448 
	C58.877415,57.775230 58.901237,61.449936 59.025665,65.111946 
	C59.171360,69.399803 57.158611,71.097443 52.967712,71.036522 
	C44.637150,70.915428 36.300583,71.132629 27.972616,70.942238 
	C24.440983,70.861496 22.767586,71.729095 22.932585,75.651466 
	C23.198507,81.972885 23.122099,88.316681 22.956617,94.644920 
	C22.872807,97.849861 23.970558,99.159698 27.267843,99.043129 
	C32.427265,98.860725 37.598404,99.035851 42.764107,98.996628 
	C46.479885,98.968422 48.247448,100.526581 48.050648,104.447052 
	C47.833694,108.768982 47.810020,113.121025 48.054958,117.439949 
	C48.296494,121.698906 46.241993,123.083763 42.376675,123.016945 
	C37.711998,122.936287 33.030937,123.224594 28.382870,122.936012 
	C24.309763,122.683136 22.838915,123.997665 22.915766,128.242447 
	C23.154041,141.403244 23.046944,154.571381 22.956154,167.735855 
	C22.942011,169.786499 22.312292,171.832901 21.936255,174.065125 
	C32.541908,173.770874 43.411671,173.084366 52.997658,180.315491 
	C52.997658,176.821487 52.997669,174.084534 52.997654,171.347565 
	C52.997482,142.184357 52.997261,113.021156 52.997280,83.857948 
	C52.997280,82.524773 53.057259,81.188675 52.989887,79.858971 
	C52.781197,75.740227 54.346760,73.599182 58.825573,73.947586 
	C62.138447,74.205284 65.487503,73.996605 68.820442,73.997849 
	C76.907326,74.000862 76.998161,74.076347 77.000061,82.000671 
	C77.006699,109.664055 76.970848,137.327530 77.051521,164.990677 
	C77.059647,167.777679 77.446602,170.647186 78.197838,173.327026 
	C79.113907,176.594864 82.031448,177.780640 84.913116,176.810425 
	C86.870415,176.151413 89.239700,174.194199 89.766510,172.345108 
	C90.792274,168.744675 90.938728,164.813370 90.951149,161.017471 
	C91.037903,134.520905 90.980774,108.023888 91.024529,81.527115 
	C91.028526,79.107552 91.417168,76.688629 91.650780,73.997704 
	C97.509499,73.997704 102.826019,73.987457 108.142487,74.000359 
	C114.468941,74.015709 114.987328,74.483894 114.992264,80.822258 
	C115.014442,109.318863 115.115501,137.816376 114.892418,166.311249 
	C114.854218,171.190933 113.809593,176.183075 112.454079,180.900345 
	C110.906906,186.284607 110.908081,186.235260 116.700562,187.092453 
	C128.039871,188.770508 138.609543,192.376709 146.601669,201.293442 
	C149.482986,204.508133 152.501877,207.599503 155.997559,211.321640 
	C155.997559,204.465576 155.990631,198.216003 155.999313,191.966446 
	C156.010147,184.169403 156.174606,184.004150 163.713272,183.998001 
	C167.212860,183.995148 170.712433,183.995651 174.212021,183.998459 
	C181.868164,184.004608 181.996597,184.119736 181.999176,191.892334 
	C182.007431,216.889359 182.070053,241.886765 181.932724,266.883026 
	C181.911560,270.735016 182.953583,272.277039 187.006653,272.074402 
	C192.990707,271.775146 199.000931,271.998932 205.000000,272.000000 
	C205.000000,280.354218 205.000000,288.708466 204.741852,297.514008 
	C204.317642,297.918640 204.151596,297.871918 203.641571,297.598541 
	C190.481552,297.247742 177.665665,297.093628 164.849319,297.037079 
	C163.242752,297.029968 161.633896,297.537445 159.690979,297.870422 
	C158.902954,297.916992 158.450027,297.899597 157.900009,297.632355 
	C157.495956,297.201569 157.189026,297.020660 156.730484,296.464233 
	C156.578888,287.169067 156.578888,278.249359 156.578888,269.329681 
	C156.156921,269.104462 155.734955,268.879242 155.312988,268.654022 
	C144.207092,284.815155 128.891388,292.812866 109.595139,292.993530 
	C90.394157,293.173309 74.971855,285.536743 63.315956,269.371582 
	C62.726383,272.298706 62.322269,274.238983 61.945862,276.184601 
	C59.538353,288.628815 50.635323,295.994049 37.945591,296.004211 
	C25.630404,296.014038 13.315198,296.002289 1.000000,296.000000 
M137.811523,236.054764 
	C136.814606,227.165115 130.593964,221.789764 124.545334,216.282532 
	C119.332191,211.536057 112.837288,210.516663 106.389328,211.264908 
	C89.239052,213.255112 70.331161,235.844376 86.002167,256.290253 
	C92.045784,264.175354 99.930183,269.260895 110.190170,268.641937 
	C125.656090,267.708954 139.799820,252.436966 137.811523,236.054764 
M35.514877,247.032928 
	C33.444218,246.116486 31.439697,244.980621 29.288261,244.332214 
	C25.539516,243.202408 23.801279,244.521057 23.937830,248.718307 
	C24.174816,256.002655 23.943596,263.301208 24.060209,270.591370 
	C24.081804,271.941467 24.392338,273.886444 25.296528,274.521088 
	C29.649534,277.576508 37.875835,273.205231 37.974857,267.898193 
	C38.070686,262.762421 38.146187,257.616302 37.904804,252.490036 
	C37.826904,250.835724 36.716331,249.230042 35.514877,247.032928 
M35.574715,217.537933 
	C35.702419,212.242584 36.161102,206.928360 35.860256,201.657471 
	C35.585846,196.849686 31.672541,197.105698 28.056540,196.942184 
	C24.039747,196.760590 23.923769,199.104630 23.977171,202.029877 
	C24.071091,207.174667 24.209042,212.333191 23.938618,217.465424 
	C23.727949,221.463623 25.680271,222.765198 28.999146,221.826767 
	C31.206308,221.202698 33.102814,219.479950 35.574715,217.537933 
M60.280331,193.063217 
	C60.630733,199.901733 60.981140,206.740250 61.334167,213.629898 
	C64.957703,208.884476 68.559937,204.166931 72.098282,199.533066 
	C68.294632,197.238174 64.545265,194.976044 60.280331,193.063217 
z"/>
<path fill="#000000" opacity="1.000000" stroke="none" 
	d="
M205.000000,271.531342 
	C199.000931,271.998932 192.990707,271.775146 187.006653,272.074402 
	C182.953583,272.277039 181.911560,270.735016 181.932724,266.883026 
	C182.070053,241.886765 182.007431,216.889359 181.999176,191.892334 
	C181.996597,184.119736 181.868164,184.004608 174.212021,183.998459 
	C170.712433,183.995651 167.212860,183.995148 163.713272,183.998001 
	C156.174606,184.004150 156.010147,184.169403 155.999313,191.966446 
	C155.990631,198.216003 155.997559,204.465576 155.997559,211.321640 
	C152.501877,207.599503 149.482986,204.508133 146.601669,201.293442 
	C138.609543,192.376709 128.039871,188.770508 116.700562,187.092453 
	C110.908081,186.235260 110.906906,186.284607 112.454079,180.900345 
	C113.809593,176.183075 114.854218,171.190933 114.892418,166.311249 
	C115.115501,137.816376 115.014442,109.318863 114.992264,80.822258 
	C114.987328,74.483894 114.468941,74.015709 108.142487,74.000359 
	C102.826019,73.987457 97.509499,73.997704 91.650780,73.997704 
	C91.417168,76.688629 91.028526,79.107552 91.024529,81.527115 
	C90.980774,108.023888 91.037903,134.520905 90.951149,161.017471 
	C90.938728,164.813370 90.792274,168.744675 89.766510,172.345108 
	C89.239700,174.194199 86.870415,176.151413 84.913116,176.810425 
	C82.031448,177.780640 79.113907,176.594864 78.197838,173.327026 
	C77.446602,170.647186 77.059647,167.777679 77.051521,164.990677 
	C76.970848,137.327530 77.006699,109.664055 77.000061,82.000671 
	C76.998161,74.076347 76.907326,74.000862 68.820442,73.997849 
	C65.487503,73.996605 62.138447,74.205284 58.825573,73.947586 
	C54.346760,73.599182 52.781197,75.740227 52.989887,79.858971 
	C53.057259,81.188675 52.997280,82.524773 52.997280,83.857948 
	C52.997261,113.021156 52.997482,142.184357 52.997654,171.347565 
	C52.997669,174.084534 52.997658,176.821487 52.997658,180.315491 
	C43.411671,173.084366 32.541908,173.770874 21.936255,174.065125 
	C22.312292,171.832901 22.942011,169.786499 22.956154,167.735855 
	C23.046944,154.571381 23.154041,141.403244 22.915766,128.242447 
	C22.838915,123.997665 24.309763,122.683136 28.382870,122.936012 
	C33.030937,123.224594 37.711998,122.936287 42.376675,123.016945 
	C46.241993,123.083763 48.296494,121.698906 48.054958,117.439949 
	C47.810020,113.121025 47.833694,108.768982 48.050648,104.447052 
	C48.247448,100.526581 46.479885,98.968422 42.764107,98.996628 
	C37.598404,99.035851 32.427265,98.860725 27.267843,99.043129 
	C23.970558,99.159698 22.872807,97.849861 22.956617,94.644920 
	C23.122099,88.316681 23.198507,81.972885 22.932585,75.651466 
	C22.767586,71.729095 24.440983,70.861496 27.972616,70.942238 
	C36.300583,71.132629 44.637150,70.915428 52.967712,71.036522 
	C57.158611,71.097443 59.171360,69.399803 59.025665,65.111946 
	C58.901237,61.449936 58.877415,57.775230 59.030952,54.115448 
	C59.214100,49.749752 57.630848,47.855675 52.930397,47.914753 
	C35.935036,48.128342 18.935360,47.998623 1.468657,47.999252 
	C1.000000,48.000000 1.000000,47.500000 1.453044,47.250904 
	C4.460430,46.663429 7.865499,47.183453 9.323321,45.738663 
	C10.705755,44.368587 10.048161,40.940079 10.399442,37.239452 
	C11.144512,39.923576 11.660845,41.457710 11.991260,43.030888 
	C13.362192,49.558170 18.522892,46.537739 22.128468,46.860744 
	C25.833004,47.192623 24.960497,43.934364 24.970198,41.809383 
	C25.032280,28.206493 25.000746,14.603176 25.000000,1.000000 
	C29.024544,1.000000 33.049088,1.000000 37.521957,1.397005 
	C37.323406,4.011081 36.168644,6.216731 36.118484,8.447224 
	C35.912575,17.603046 35.668816,26.790545 36.256802,35.913681 
	C36.456894,39.018246 38.307682,42.986538 40.724972,44.778767 
	C45.968193,48.666214 52.549706,48.248898 57.553623,44.616405 
	C60.149757,42.731796 61.717445,37.899254 61.792515,34.356979 
	C62.027924,23.248573 61.333961,12.120472 61.000000,1.000000 
	C65.356903,1.000000 69.713799,1.000000 74.537735,1.399569 
	C70.903900,12.062445 72.985733,20.997034 81.419891,28.212986 
	C78.248993,29.020933 75.079834,28.914806 73.492882,30.447208 
	C71.120193,32.738342 74.264854,43.574482 77.255234,45.491058 
	C81.450989,48.180176 91.207481,48.492256 94.813736,45.292534 
	C98.965302,41.608982 100.039391,36.230789 98.659668,31.103685 
	C97.373459,26.324085 94.752304,21.903727 92.758293,17.414181 
	C99.598885,15.565512 99.902344,14.982560 98.001030,6.856021 
	C97.550720,4.931302 97.327614,2.953425 97.000000,1.000000 
	C101.689255,1.000000 106.378510,1.000000 111.476929,1.384368 
	C107.278114,11.936242 110.489670,23.942799 119.310944,28.274105 
	C116.820656,31.025450 110.858620,25.853287 110.156250,32.002468 
	C109.792160,35.190090 109.999748,38.934746 111.400436,41.689892 
	C112.724312,44.293953 115.948029,45.932159 118.340775,47.999229 
	C112.300179,47.999229 105.989983,48.220543 99.704529,47.921608 
	C95.497765,47.721535 93.479553,48.779797 93.924156,53.414341 
	C94.288452,57.211830 94.280556,61.098404 93.925865,64.897713 
	C93.500687,69.452034 95.859962,70.885948 99.739021,70.960678 
	C104.402916,71.050529 109.102425,71.344254 113.726357,70.909653 
	C118.902031,70.423195 120.147423,72.349846 120.110023,77.353638 
	C119.884636,107.511482 120.074364,137.672256 119.918098,167.830978 
	C119.894264,172.430099 121.551956,174.216034 126.011986,174.034225 
	C130.004364,173.871475 134.008820,174.022171 138.007706,173.996765 
	C144.614914,173.954803 144.998550,173.562592 144.999878,166.816238 
	C145.005798,136.656708 145.070160,106.496857 144.924026,76.338043 
	C144.904114,72.229729 146.082581,70.676994 150.284958,70.928741 
	C155.431702,71.237061 160.611618,70.962540 165.776703,71.002945 
	C169.503006,71.032082 171.280685,69.448189 171.044937,65.539932 
	C170.834641,62.053478 171.004227,58.544262 171.002060,55.045090 
	C170.997833,48.210766 170.996490,48.214485 163.957367,47.933384 
	C163.772614,47.926003 163.600006,47.614670 163.313965,47.342548 
	C168.595367,45.976334 171.637634,42.938862 172.187912,37.329014 
	C173.389191,25.082092 174.307541,12.896554 170.000000,1.000000 
	C171.066666,1.000000 172.133347,1.000000 173.600006,1.468657 
	C174.000000,24.907112 174.000000,47.876907 174.000000,71.000000 
	C184.789627,71.000000 194.894821,71.000000 205.000000,71.000000 
	C205.000000,71.750000 205.000000,72.500000 204.531342,73.624252 
	C187.419037,73.998436 170.773758,74.127014 154.132797,73.915138 
	C149.505280,73.856216 147.945282,75.614616 147.956497,80.035454 
	C148.037567,111.991028 148.036057,143.946991 147.957520,175.902573 
	C147.946793,180.266891 149.386993,182.144012 154.071533,182.085251 
	C171.045364,181.872330 188.023499,182.000519 205.000000,182.000000 
	C205.000000,211.687561 205.000000,241.375122 205.000000,271.531342 
z"/>
<path fill="#231F20" opacity="1.000000" stroke="none" 
	d="
M169.531433,1.000000 
	C174.307541,12.896554 173.389191,25.082092 172.187912,37.329014 
	C171.637634,42.938862 168.595367,45.976334 163.313965,47.342548 
	C163.600006,47.614670 163.772614,47.926003 163.957367,47.933384 
	C170.996490,48.214485 170.997833,48.210766 171.002060,55.045090 
	C171.004227,58.544262 170.834641,62.053478 171.044937,65.539932 
	C171.280685,69.448189 169.503006,71.032082 165.776703,71.002945 
	C160.611618,70.962540 155.431702,71.237061 150.284958,70.928741 
	C146.082581,70.676994 144.904114,72.229729 144.924026,76.338043 
	C145.070160,106.496857 145.005798,136.656708 144.999878,166.816238 
	C144.998550,173.562592 144.614914,173.954803 138.007706,173.996765 
	C134.008820,174.022171 130.004364,173.871475 126.011986,174.034225 
	C121.551956,174.216034 119.894264,172.430099 119.918098,167.830978 
	C120.074364,137.672256 119.884636,107.511482 120.110023,77.353638 
	C120.147423,72.349846 118.902031,70.423195 113.726357,70.909653 
	C109.102425,71.344254 104.402916,71.050529 99.739021,70.960678 
	C95.859962,70.885948 93.500687,69.452034 93.925865,64.897713 
	C94.280556,61.098404 94.288452,57.211830 93.924156,53.414341 
	C93.479553,48.779797 95.497765,47.721535 99.704529,47.921608 
	C105.989983,48.220543 112.300179,47.999229 118.340775,47.999229 
	C115.948029,45.932159 112.724312,44.293953 111.400436,41.689892 
	C109.999748,38.934746 109.792160,35.190090 110.156250,32.002468 
	C110.858620,25.853287 116.820656,31.025450 119.310944,28.274105 
	C110.489670,23.942799 107.278114,11.936242 111.943039,1.384368 
	C118.687645,1.000000 125.375282,1.000000 132.545990,1.396189 
	C133.433594,3.049864 134.074768,4.285088 134.195541,5.569263 
	C134.486984,8.667485 135.160522,11.950661 134.414001,14.831158 
	C134.048233,16.242468 130.862289,16.922894 130.113083,17.319641 
	C132.089874,23.044134 135.144409,28.457550 135.574844,34.072132 
	C136.032974,40.048111 134.338715,46.441051 126.499924,47.737053 
	C136.209824,47.737053 145.919739,47.737053 156.672760,47.737053 
	C153.351181,46.104404 149.847412,45.533081 148.873856,43.652134 
	C147.117157,40.258118 146.072235,36.064011 146.152527,32.233879 
	C146.370941,21.814257 147.332794,11.410216 148.000000,1.000000 
	C155.020950,1.000000 162.041901,1.000000 169.531433,1.000000 
M159.002502,31.834761 
	C159.082214,32.767834 159.161926,33.700909 159.241653,34.633980 
	C159.374130,34.624046 159.506622,34.614113 159.639099,34.604179 
	C159.639099,27.280472 159.639099,19.956766 159.639099,12.633059 
	C159.426849,12.634401 159.214615,12.635743 159.002365,12.637085 
	C159.002365,18.753618 159.002365,24.870152 159.002502,31.834761 
z"/>
<path fill="#D7DF21" opacity="1.000000" stroke="none" 
	d="
M156.882080,296.839722 
	C157.189026,297.020660 157.495956,297.201569 158.199310,297.927094 
	C160.399612,298.647430 162.203064,298.969910 164.007507,298.975616 
	C177.671555,299.018677 191.335815,298.999664 205.000000,299.000000 
	C205.000000,307.651886 205.000000,316.303772 205.000000,324.951050 
	C136.999985,324.946472 68.999977,324.946472 1.000000,324.946472 
	C1.000000,316.241089 1.000000,307.589203 1.468657,298.468384 
	C51.532021,297.999237 101.126740,298.009216 150.721405,297.963379 
	C152.822784,297.961426 154.923676,297.440826 156.918762,297.112488 
	C156.812714,297.063141 156.882080,296.839722 156.882080,296.839722 
z"/>
<path fill="#231F20" opacity="1.000000" stroke="none" 
	d="
M205.000000,181.531433 
	C188.023499,182.000519 171.045364,181.872330 154.071533,182.085251 
	C149.386993,182.144012 147.946793,180.266891 147.957520,175.902573 
	C148.036057,143.946991 148.037567,111.991028 147.956497,80.035454 
	C147.945282,75.614616 149.505280,73.856216 154.132797,73.915138 
	C170.773758,74.127014 187.419037,73.998436 204.531342,73.999252 
	C205.000000,81.020950 205.000000,88.041893 204.531342,95.532150 
	C195.071686,96.003502 186.079742,96.079269 177.090195,95.965927 
	C174.112366,95.928391 172.850983,96.970711 172.967575,100.025040 
	C173.126251,104.181450 173.183350,108.358490 172.950577,112.507980 
	C172.750351,116.077522 174.223923,117.167244 177.624802,117.049889 
	C183.278946,116.854767 188.944916,117.001762 194.605911,117.006081 
	C198.884323,117.009338 201.595352,118.358345 201.069763,123.437210 
	C200.711746,126.896667 200.744141,130.446777 201.062714,133.914001 
	C201.519745,138.888138 199.324570,140.326523 194.664261,140.074554 
	C189.019775,139.769379 183.341873,140.136047 177.686798,139.953140 
	C174.361160,139.845551 172.716385,140.788345 172.952911,144.430374 
	C173.189804,148.077957 173.170700,151.762772 172.955978,155.413147 
	C172.753006,158.863815 174.013657,160.128143 177.528702,160.058273 
	C186.682571,159.876328 195.842499,159.998901 205.000000,160.000000 
	C205.000000,167.020950 205.000000,174.041901 205.000000,181.531433 
z"/>
<path fill="#D7DF21" opacity="1.000000" stroke="none" 
	d="
M175.000000,1.000000 
	C184.955597,1.000000 194.911209,1.000000 205.000000,1.000000 
	C205.000000,23.687405 205.000000,46.375046 204.531342,69.531525 
	C196.233978,70.000328 188.395813,69.769493 180.580292,70.090485 
	C176.191025,70.270752 174.859695,68.892876 174.904373,64.461456 
	C175.117645,43.309464 174.999969,22.154139 175.000000,1.000000 
z"/>
<path fill="#000000" opacity="1.000000" stroke="none" 
	d="
M205.000000,159.531342 
	C195.842499,159.998901 186.682571,159.876328 177.528702,160.058273 
	C174.013657,160.128143 172.753006,158.863815 172.955978,155.413147 
	C173.170700,151.762772 173.189804,148.077957 172.952911,144.430374 
	C172.716385,140.788345 174.361160,139.845551 177.686798,139.953140 
	C183.341873,140.136047 189.019775,139.769379 194.664261,140.074554 
	C199.324570,140.326523 201.519745,138.888138 201.062714,133.914001 
	C200.744141,130.446777 200.711746,126.896667 201.069763,123.437210 
	C201.595352,118.358345 198.884323,117.009338 194.605911,117.006081 
	C188.944916,117.001762 183.278946,116.854767 177.624802,117.049889 
	C174.223923,117.167244 172.750351,116.077522 172.950577,112.507980 
	C173.183350,108.358490 173.126251,104.181450 172.967575,100.025040 
	C172.850983,96.970711 174.112366,95.928391 177.090195,95.965927 
	C186.079742,96.079269 195.071686,96.003502 204.531342,96.000732 
	C205.000000,117.020897 205.000000,138.041794 205.000000,159.531342 
z"/>
<path fill="#000000" opacity="1.000000" stroke="none" 
	d="
M1.000000,296.250000 
	C13.315198,296.002289 25.630404,296.014038 37.945591,296.004211 
	C50.635323,295.994049 59.538353,288.628815 61.945862,276.184601 
	C62.322269,274.238983 62.726383,272.298706 63.315956,269.371582 
	C74.971855,285.536743 90.394157,293.173309 109.595139,292.993530 
	C128.891388,292.812866 144.207092,284.815155 155.312988,268.654022 
	C155.734955,268.879242 156.156921,269.104462 156.578888,269.329681 
	C156.578888,278.249359 156.578888,287.169067 156.730484,296.464233 
	C156.882080,296.839722 156.812714,297.063141 156.454178,297.039856 
	C104.397095,297.011047 52.698547,297.005524 1.000000,297.000000 
	C1.000000,297.000000 1.000000,296.500000 1.000000,296.250000 
z"/>
<path fill="#231F20" opacity="1.000000" stroke="none" 
	d="
M60.531376,1.000000 
	C61.333961,12.120472 62.027924,23.248573 61.792515,34.356979 
	C61.717445,37.899254 60.149757,42.731796 57.553623,44.616405 
	C52.549706,48.248898 45.968193,48.666214 40.724972,44.778767 
	C38.307682,42.986538 36.456894,39.018246 36.256802,35.913681 
	C35.668816,26.790545 35.912575,17.603046 36.118484,8.447224 
	C36.168644,6.216731 37.323406,4.011081 37.985138,1.397005 
	C45.354252,1.000000 52.708500,1.000000 60.531376,1.000000 
z"/>
<path fill="#231F20" opacity="1.000000" stroke="none" 
	d="
M24.531307,1.000000 
	C25.000746,14.603176 25.032280,28.206493 24.970198,41.809383 
	C24.960497,43.934364 25.833004,47.192623 22.128468,46.860744 
	C18.522892,46.537739 13.362192,49.558170 11.991260,43.030888 
	C11.660845,41.457710 11.144512,39.923576 10.399442,37.239452 
	C10.048161,40.940079 10.705755,44.368587 9.323321,45.738663 
	C7.865499,47.183453 4.460430,46.663429 1.453044,47.000904 
	C1.000000,31.763163 1.000000,16.526325 1.000000,1.000000 
	C8.685123,1.000000 16.373871,1.000000 24.531307,1.000000 
z"/>
<path fill="#231F20" opacity="1.000000" stroke="none" 
	d="
M96.531418,1.000000 
	C97.327614,2.953425 97.550720,4.931302 98.001030,6.856021 
	C99.902344,14.982560 99.598885,15.565512 92.758293,17.414181 
	C94.752304,21.903727 97.373459,26.324085 98.659668,31.103685 
	C100.039391,36.230789 98.965302,41.608982 94.813736,45.292534 
	C91.207481,48.492256 81.450989,48.180176 77.255234,45.491058 
	C74.264854,43.574482 71.120193,32.738342 73.492882,30.447208 
	C75.079834,28.914806 78.248993,29.020933 81.419891,28.212986 
	C72.985733,20.997034 70.903900,12.062445 75.002388,1.399569 
	C82.020950,1.000000 89.041893,1.000000 96.531418,1.000000 
z"/>
<path fill="#000000" opacity="1.000000" stroke="none" 
	d="
M147.533890,1.000000 
	C147.332794,11.410216 146.370941,21.814257 146.152527,32.233879 
	C146.072235,36.064011 147.117157,40.258118 148.873856,43.652134 
	C149.847412,45.533081 153.351181,46.104404 156.672760,47.737053 
	C145.919739,47.737053 136.209824,47.737053 126.499924,47.737053 
	C134.338715,46.441051 136.032974,40.048111 135.574844,34.072132 
	C135.144409,28.457550 132.089874,23.044134 130.113083,17.319641 
	C130.862289,16.922894 134.048233,16.242468 134.414001,14.831158 
	C135.160522,11.950661 134.486984,8.667485 134.195541,5.569263 
	C134.074768,4.285088 133.433594,3.049864 133.014526,1.396189 
	C137.689255,1.000000 142.378510,1.000000 147.533890,1.000000 
z"/>
<path fill="#F5FB46" opacity="1.000000" stroke="none" 
	d="
M1.000000,297.250000 
	C52.698547,297.005524 104.397095,297.011047 156.560211,297.089233 
	C154.923676,297.440826 152.822784,297.961426 150.721405,297.963379 
	C101.126740,298.009216 51.532021,297.999237 1.468657,297.999756 
	C1.000000,298.000000 1.000000,297.500000 1.000000,297.250000 
z"/>
<path fill="#F5FB46" opacity="1.000000" stroke="none" 
	d="
M174.750000,1.000000 
	C174.999969,22.154139 175.117645,43.309464 174.904373,64.461456 
	C174.859695,68.892876 176.191025,70.270752 180.580292,70.090485 
	C188.395813,69.769493 196.233978,70.000328 204.531342,70.000183 
	C205.000000,70.000000 205.000000,70.500000 205.000000,70.750000 
	C194.894821,71.000000 184.789627,71.000000 174.000000,71.000000 
	C174.000000,47.876907 174.000000,24.907112 174.000000,1.468657 
	C174.000000,1.000000 174.500000,1.000000 174.750000,1.000000 
z"/>
<path fill="#F5FB46" opacity="1.000000" stroke="none" 
	d="
M205.000000,298.750000 
	C191.335815,298.999664 177.671555,299.018677 164.007507,298.975616 
	C162.203064,298.969910 160.399612,298.647430 158.296417,298.176941 
	C158.450027,297.899597 158.902954,297.916992 160.151733,297.957611 
	C175.293594,297.928955 189.639572,297.877045 203.985550,297.825165 
	C204.151596,297.871918 204.317642,297.918640 204.741852,297.982666 
	C205.000000,298.000000 205.000000,298.500000 205.000000,298.750000 
z"/>
<path fill="#000000" opacity="1.000000" stroke="none" 
	d="
M137.873108,236.486694 
	C139.799820,252.436966 125.656090,267.708954 110.190170,268.641937 
	C99.930183,269.260895 92.045784,264.175354 86.002167,256.290253 
	C70.331161,235.844376 89.239052,213.255112 106.389328,211.264908 
	C112.837288,210.516663 119.332191,211.536057 124.545334,216.282532 
	C130.593964,221.789764 136.814606,227.165115 137.873108,236.486694 
z"/>
<path fill="#000000" opacity="1.000000" stroke="none" 
	d="
M35.796516,247.317520 
	C36.716331,249.230042 37.826904,250.835724 37.904804,252.490036 
	C38.146187,257.616302 38.070686,262.762421 37.974857,267.898193 
	C37.875835,273.205231 29.649534,277.576508 25.296528,274.521088 
	C24.392338,273.886444 24.081804,271.941467 24.060209,270.591370 
	C23.943596,263.301208 24.174816,256.002655 23.937830,248.718307 
	C23.801279,244.521057 25.539516,243.202408 29.288261,244.332214 
	C31.439697,244.980621 33.444218,246.116486 35.796516,247.317520 
z"/>
<path fill="#000000" opacity="1.000000" stroke="none" 
	d="
M35.356537,217.893448 
	C33.102814,219.479950 31.206308,221.202698 28.999146,221.826767 
	C25.680271,222.765198 23.727949,221.463623 23.938618,217.465424 
	C24.209042,212.333191 24.071091,207.174667 23.977171,202.029877 
	C23.923769,199.104630 24.039747,196.760590 28.056540,196.942184 
	C31.672541,197.105698 35.585846,196.849686 35.860256,201.657471 
	C36.161102,206.928360 35.702419,212.242584 35.356537,217.893448 
z"/>
<path fill="#000000" opacity="1.000000" stroke="none" 
	d="
M60.538113,192.888565 
	C64.545265,194.976044 68.294632,197.238174 72.098282,199.533066 
	C68.559937,204.166931 64.957703,208.884476 61.334167,213.629898 
	C60.981140,206.740250 60.630733,199.901733 60.538113,192.888565 
z"/>
<path fill="#0B0600" opacity="1.000000" stroke="none" 
	d="
M203.641571,297.598541 
	C189.639572,297.877045 175.293594,297.928955 160.486862,297.893646 
	C161.633896,297.537445 163.242752,297.029968 164.849319,297.037079 
	C177.665665,297.093628 190.481552,297.247742 203.641571,297.598541 
z"/>
<path fill="#000000" opacity="1.000000" stroke="none" 
	d="
M159.002441,31.410723 
	C159.002365,24.870152 159.002365,18.753618 159.002365,12.637085 
	C159.214615,12.635743 159.426849,12.634401 159.639099,12.633059 
	C159.639099,19.956766 159.639099,27.280472 159.639099,34.604179 
	C159.506622,34.614113 159.374130,34.624046 159.241653,34.633980 
	C159.161926,33.700909 159.082214,32.767834 159.002441,31.410723 
z"/>
</svg>