<?xml version="1.0" standalone="no"?>
<!DOCTYPE svg PUBLIC "-//W3C//DTD SVG 20010904//EN"
 "http://www.w3.org/TR/2001/REC-SVG-20010904/DTD/svg10.dtd">
<svg version="1.0" xmlns="http://www.w3.org/2000/svg"
 width="204.000000pt" height="324.000000pt" viewBox="0 0 204.000000 324.000000"
 preserveAspectRatio="xMidYMid meet">

<g transform="translate(0.000000,324.000000) scale(0.100000,-0.100000)"
fill="#000000" stroke="none">
<path d="M412 3220 c-31 -29 -34 -50 -30 -213 4 -170 11 -185 91 -194 41 -5
49 -2 77 25 l30 30 0 162 c0 158 -1 161 -25 185 -32 33 -110 35 -143 5z m92
-46 c13 -12 16 -40 16 -143 0 -135 -9 -167 -46 -159 -18 3 -19 14 -22 147 -2
97 1 148 9 157 15 18 24 18 43 -2z"/>
<path d="M800 3227 c-45 -23 -62 -84 -39 -144 5 -15 35 -53 65 -84 40 -43 54
-65 54 -87 0 -58 -56 -66 -67 -11 -4 24 -11 29 -34 29 -24 0 -29 -4 -29 -25 0
-73 63 -116 136 -93 32 11 41 20 53 53 22 66 9 106 -60 180 -52 55 -60 68 -57
97 2 28 7 33 28 33 20 0 26 -6 28 -27 3 -25 8 -28 38 -28 38 0 38 0 23 52 -16
59 -81 84 -139 55z"/>
<path d="M1173 3230 c-38 -15 -56 -55 -51 -110 5 -45 11 -57 67 -114 47 -49
61 -71 61 -94 0 -60 -61 -68 -68 -8 -3 21 -8 26 -33 26 -26 0 -29 -3 -29 -34
0 -22 9 -45 23 -62 20 -23 32 -27 72 -27 67 0 95 32 95 109 0 53 -2 57 -60
119 -66 71 -82 108 -56 133 20 20 49 6 54 -27 3 -16 10 -21 33 -21 26 0 29 3
29 31 0 63 -72 105 -137 79z"/>
<path d="M1528 3224 c-41 -21 -50 -69 -46 -226 3 -134 4 -138 30 -164 21 -22
36 -27 74 -27 88 0 112 63 101 272 -5 102 -6 106 -36 133 -35 32 -80 36 -123
12z m80 -56 c8 -8 12 -56 12 -149 0 -112 -3 -139 -16 -150 -11 -9 -20 -10 -32
-2 -14 8 -17 32 -20 148 -3 136 3 165 32 165 7 0 17 -5 24 -12z"/>
<path d="M0 3020 l0 -210 30 0 30 0 0 148 c0 82 4 140 9 132 4 -8 23 -75 42
-147 l34 -133 32 0 33 0 0 210 0 210 -30 0 -29 0 -3 -112 -3 -113 -29 113 -29
112 -43 0 -44 0 0 -210z"/>
<path d="M0 2140 l0 -600 95 0 95 0 0 255 0 254 123 3 122 3 3 87 3 87 -123 3
-123 3 0 165 0 165 175 5 175 5 0 80 0 80 -272 3 -273 2 0 -600z"/>
<path d="M960 2655 l0 -84 128 -3 127 -3 3 -512 2 -513 95 0 95 0 0 515 0 515
130 0 130 0 0 85 0 85 -355 0 -355 0 0 -85z"/>
<path d="M550 1992 c0 -540 2 -559 62 -628 37 -42 76 -64 141 -79 l48 -11 -49
-42 c-101 -85 -171 -228 -174 -358 -1 -35 -6 -60 -10 -58 -4 3 -8 11 -8 18 0
17 -60 76 -89 88 l-25 9 31 18 c71 44 98 123 91 269 -7 134 -37 190 -128 238
-30 16 -64 19 -227 22 l-193 4 0 -587 0 -587 197 4 c180 3 202 5 238 25 95 51
126 113 133 266 l5 108 23 -57 c48 -117 161 -224 291 -274 72 -28 203 -37 282
-20 146 31 278 135 344 269 20 40 37 82 37 92 0 10 3 20 8 22 4 3 7 -95 7
-216 l0 -222 223 -3 222 -2 0 100 0 100 -125 0 -125 0 0 440 0 441 -97 -3 -98
-3 0 -208 c0 -197 -5 -244 -19 -177 -10 52 -59 141 -106 193 -91 102 -230 167
-356 167 -35 0 -64 2 -64 4 0 2 11 24 25 48 40 72 46 162 43 638 l-3 435 -87
3 -87 3 -3 -485 c-3 -474 -3 -485 -24 -513 -17 -23 -30 -29 -70 -31 -43 -2
-53 1 -74 23 l-25 27 -3 489 -3 489 -89 0 -90 0 0 -488z m-192 -707 c42 -53
40 -203 -3 -253 -20 -24 -30 -27 -87 -27 l-63 0 -3 153 -3 152 70 0 c62 0 72
-3 89 -25z m855 -148 c67 -31 125 -86 157 -152 20 -41 25 -65 25 -135 0 -73
-4 -92 -27 -135 -32 -62 -104 -130 -166 -157 -60 -27 -159 -29 -229 -5 -70 24
-145 93 -180 165 -37 75 -39 181 -5 257 74 165 263 237 425 162z m-856 -318
c35 -21 43 -54 43 -174 0 -106 -2 -116 -24 -142 -22 -26 -30 -28 -98 -28 l-73
0 -3 170 c-1 93 0 176 3 183 7 18 120 12 152 -9z"/>
<path d="M1505 2468 c-3 -7 -4 -236 -3 -508 l3 -495 268 -3 267 -2 0 80 0 80
-172 2 -173 3 -3 128 -3 127 141 0 140 0 0 80 0 79 -137 3 -138 3 0 135 0 135
173 3 172 2 0 80 0 80 -265 0 c-203 0 -267 -3 -270 -12z"/>
</g>
</svg>
