<svg width="500" height="500" viewBox="0 0 500 500" fill="none" xmlns="http://www.w3.org/2000/svg">
<path d="M222.743 254.913C221.513 254.403 219.498 252.142 222.851 245.847L230.64 229.574C230.876 229.082 230.308 228.466 229.953 228.884L223.142 235.729C219.92 239.091 214.453 248.542 213.395 250.291L205.121 263.964C205.735 263.944 206.25 264.427 206.269 265.042C206.275 265.244 206.227 265.444 206.128 265.621L198.565 278.318C196.719 281.467 200.036 283.669 200.486 282.944C212.372 263.805 219.286 265.333 219.286 265.333L223.254 256.148C223.463 255.687 223.259 255.145 222.798 254.936C222.781 254.927 222.762 254.92 222.743 254.913ZM249.767 95C181.807 95 126.715 150.046 126.715 217.949C126.679 244.236 135.115 269.835 150.772 290.953C155.934 288.726 158.803 285.396 160.852 282.847L183.763 253.569C184.246 252.952 184.876 252.466 185.596 252.157L189.045 250.674L226.717 202.928L232.18 198.655L243.405 183.044C243.695 182.64 244.048 182.285 244.452 181.993L249.349 178.435C250.559 177.557 252.193 177.543 253.417 178.401L259.36 182.569C262.513 184.78 265.069 187.737 266.8 191.175L290.605 232.954C290.994 233.751 291.654 234.383 292.467 234.737C297.136 237.059 299.988 237.469 306.098 244.101C308.949 247.193 321.442 261.154 338.95 282.851C341.495 286.332 344.901 289.091 348.835 290.858C364.445 269.756 372.852 244.195 372.815 217.949C372.815 150.046 317.725 95 249.767 95ZM159.9 224.726L151.921 222.137L146.993 228.914V220.538L139.014 217.949L146.993 215.359V206.98L151.921 213.76L159.9 211.171L154.97 217.949L159.9 224.726ZM158.008 252.141L155.417 260.11L152.825 252.141H144.44L151.223 247.216L148.632 239.247L155.416 244.173L162.201 239.247L159.609 247.216L166.394 252.141H158.008ZM159.61 188.678L162.201 196.646L155.417 191.721L148.633 196.646L151.224 188.678L144.44 183.752H152.826L155.417 175.784L158.009 183.752H166.395L159.61 188.678ZM173.075 170.652L168.149 163.873L160.171 166.462L165.1 159.684L160.171 152.906L168.149 155.495L173.078 148.716V157.095L181.057 159.68L173.078 162.27V170.648L173.075 170.652ZM194.047 141.32L191.455 149.288L188.864 141.32H180.478L187.262 136.395L184.671 128.426L191.455 133.35L198.239 128.425L195.648 136.4L202.432 141.326H194.046L194.047 141.32ZM220.473 127.865L215.544 134.644V126.268L207.565 123.679L215.544 121.089V112.71L220.473 119.489L228.448 116.9L223.519 123.679L228.449 130.457L220.473 127.865ZM253.96 120.185L256.551 128.153L249.767 123.228L242.982 128.153L245.571 120.188L238.787 115.263H247.173L249.765 107.295L252.357 115.263H260.742L253.96 120.185ZM283.986 126.268V134.646L279.059 127.867L271.081 130.457L276.01 123.679L271.082 116.9L279.06 119.489L283.987 112.71V121.089L291.966 123.679L283.986 126.268ZM339.63 211.171L347.608 213.76L352.536 206.98V215.359L360.515 217.949L352.536 220.538V228.916L347.608 222.138L339.63 224.727L344.565 217.949L339.63 211.171ZM308.077 149.29L305.484 141.322H297.099L303.881 136.396L301.296 128.427L308.077 133.352L314.859 128.428L312.273 136.396L319.055 141.322H310.67L308.077 149.29ZM326.458 170.654V162.276L318.479 159.686L326.458 157.102V148.719L331.385 155.498L339.363 152.909L334.436 159.687L339.363 166.465L331.385 163.876L326.458 170.654ZM341.521 183.755L344.115 175.787L346.708 183.755H355.093L348.311 188.68L350.904 196.649L344.116 191.723L337.334 196.649L339.927 188.68L333.138 183.755H341.521ZM346.707 252.141L344.114 260.11L341.52 252.141H333.135L339.924 247.216L337.331 239.247L344.113 244.173L350.902 239.247L348.309 247.216L355.09 252.141H346.707ZM294.337 289.004C294.928 288.146 295.888 285.79 294.085 281.426L288.64 266.794C287.901 264.927 289.52 263.793 290.606 265.022C290.606 265.022 300.897 276.878 303.556 281.829L308.631 290.248C312.997 290.53 325.046 290.858 336.645 290.858C335.477 289.699 334.398 288.453 333.416 287.132C313.625 262.614 301.073 248.976 300.947 248.841C296.936 244.484 295.082 243.646 292.023 242.254C291.58 242.053 291.099 241.836 290.605 241.601V245.323C290.635 245.574 290.455 245.803 290.203 245.833C290 245.857 289.804 245.743 289.726 245.553L260.628 194.479L260.547 194.317C259.334 191.912 257.545 189.842 255.34 188.293L252.502 186.3L238.62 218.299C240.279 218.299 241.624 219.642 241.625 221.3C241.626 221.71 241.542 222.117 241.378 222.494L228.553 252.139H240.326C244.876 252.139 249.383 253.025 253.594 254.749L256.697 256.02C256.697 256.02 247.334 275.267 247.334 285.402C247.348 287.246 247.605 289.079 248.099 290.855H269.68L268.681 284.779C277.147 286.669 285.712 288.08 294.336 289.007V289.004H294.337ZM127.812 320.193C127.812 300.392 106.803 290.858 81.8445 290.858C55.1454 290.858 30.6484 302.683 21.6569 321.017C19.1754 325.902 17.8859 331.306 17.8929 336.785C17.7794 341.523 19.0909 346.185 21.6569 350.169C25.5094 355.856 32.3899 359.43 42.4829 359.43C54.8709 359.43 64.6884 352.644 64.6884 340.819C64.6884 340.819 64.8704 337.522 61.0179 337.522C57.8984 337.522 57.0714 339.72 57.1639 340.819C57.6249 350.079 52.1179 357.505 42.2999 357.505C31.2929 357.505 26.7014 348.154 26.7014 338.163C26.7014 317.719 42.1159 304.15 58.1724 298.284C65.6759 295.451 73.6444 294.05 81.665 294.155C99.8315 294.155 114.696 301.124 114.696 319.827C114.696 335.409 101.575 348.703 85.884 349.895L86.526 347.788C89.7385 336.327 93.6835 323.769 100.104 314.509C100.474 313.956 101.114 313.041 101.849 312.126L100.932 311.025C99.5595 311.857 98.241 312.776 96.984 313.774C66.8924 337.244 65.9784 403.249 25.8794 403.249C24.4984 403.249 23.1199 403.156 21.7514 402.974C13.4034 401.599 8.99636 396.005 8.99636 388.217C8.99636 386.658 9.54786 384.548 9.54786 383.358C9.61136 381.144 7.86736 379.298 5.65236 379.234C5.63486 379.233 5.61836 379.233 5.60186 379.233H5.14435C1.56685 379.233 0.0983451 382.071 0.00634495 386.108C-0.267655 397.751 8.35436 404.533 21.6609 405.818C23.1274 405.909 24.5959 406 26.1559 406C57.4414 406 76.6174 382.348 84.7845 353.654C88.921 353.169 93.005 352.31 96.986 351.089C111.486 347.05 127.812 337.338 127.812 320.193ZM425.828 327.067H414.813L412.339 332.844L408.024 342.561H402.89L401.323 345.862H406.649L400.223 360.072C395.642 370.064 388.483 379.874 384.354 379.874C383.438 379.874 382.884 379.505 382.884 378.591C382.884 377.678 383.157 376.847 384.169 374.281C385.455 371.254 387.567 366.855 389.126 363.647C391.416 358.972 395.088 351.73 395.088 348.154C395.088 344.579 392.798 341.736 388.299 341.736C383.253 341.736 378.665 344.765 374.44 349.161L377.195 342.561H366.831L358.386 361.813C354.995 368.597 348.11 379.873 343.795 379.873C342.879 379.873 342.51 379.322 342.51 378.406C342.599 377.583 342.816 376.778 343.153 376.021C343.522 375.197 348.568 363.371 348.568 363.371L357.743 342.377H346.551L337.649 362.819C334.901 369.146 327.927 379.872 323.428 379.872C322.644 379.948 321.946 379.376 321.869 378.591C321.869 378.591 321.869 378.591 321.869 378.589V378.221C321.869 377.122 322.697 375.104 323.34 373.636L328.016 363.371L337.649 342.377H326.553L324.344 347.144C322.697 350.352 319.941 354.11 315.539 354.11C313.426 354.11 312.421 353.288 311.963 352.461C311.321 345.402 306.822 341.643 300.217 341.643C291.041 341.643 284.526 347.051 280.211 353.653C277.385 358.203 275.164 363.102 273.608 368.227C269.662 374.738 265.535 379.781 262.231 379.781C261.405 379.781 260.853 379.32 260.853 378.222C260.853 377.121 261.955 374.647 262.322 373.727L269.571 358.327C271.589 353.562 272.969 350.445 272.969 347.327C272.969 344.026 270.679 341.641 266.911 341.641C261.681 341.641 255.991 344.668 251.496 349.616C251.648 348.831 251.709 348.03 251.679 347.232C251.679 343.564 249.845 341.638 246.081 341.638C241.312 341.638 236.358 344.483 231.862 349.614L234.799 342.46H224.704L216.173 361.718C212.137 370.795 205.622 379.781 201.951 379.781C201.126 379.781 200.575 379.319 200.575 378.221C200.575 376.48 202.502 372.171 203.235 370.428L214.522 344.852C215.347 342.928 209.933 341.734 203.052 341.734C195.987 341.734 188.738 345.219 183.418 349.71C179.657 352.825 176.904 354.385 175.525 354.385C175.075 354.481 174.632 354.195 174.535 353.746C174.522 353.685 174.516 353.623 174.517 353.561C174.517 352.002 178.279 347.6 178.279 344.209C178.279 342.651 177.454 341.641 175.341 341.641C171.307 341.641 166.533 345.492 163.047 349.524L165.984 342.464H156.076L147.545 361.718C143.507 370.795 136.809 380.238 133.139 380.238C132.312 380.238 131.764 379.781 131.764 378.679C131.764 376.938 133.599 372.722 134.608 370.52L145.894 344.852C146.719 342.928 141.305 341.734 134.423 341.734C124.238 341.734 114.328 348.61 109.099 355.669C103.319 363.276 99.3755 371.344 99.2825 377.946C99.1925 383.263 101.941 386.563 107.448 386.563C113.596 386.563 118.552 381.705 121.395 378.037C121.226 378.762 121.103 379.497 121.025 380.238C121.025 383.903 122.494 386.562 126.989 386.562C130.933 386.562 136.164 383.262 140.385 378.036L136.986 385.829H147.719L158.272 361.902C161.766 354.111 165.712 350.079 166.809 350.079C167.061 350.03 167.305 350.195 167.354 350.448C167.359 350.477 167.362 350.507 167.362 350.537C167.362 351.362 165.712 353.565 165.712 355.578C165.712 357.592 166.809 359.153 169.75 359.153C172.04 359.153 174.61 358.052 176.905 356.583C171.492 363.92 167.818 371.62 167.818 377.948C167.728 383.265 170.477 386.564 175.985 386.564C181.764 386.564 187.177 381.064 190.113 377.396C190.003 378.248 189.942 379.105 189.93 379.963C189.93 383.54 191.95 386.564 196.078 386.564C200.664 386.564 204.335 383.721 208.923 378.131L205.525 385.831H216.533L226.624 363.003C231.029 353.102 236.991 347.783 239.928 347.783C240.661 347.708 241.319 348.24 241.395 348.975C241.395 348.976 241.395 348.978 241.396 348.979V349.252C241.275 350.366 240.964 351.451 240.479 352.46L225.995 385.922H237.281L247.558 362.635C251.959 352.644 256.824 347.783 260.494 347.783C261.594 347.783 262.055 348.337 262.055 349.525C261.957 350.802 261.614 352.048 261.045 353.197L251.135 374.28C250.222 376.309 249.664 378.478 249.483 380.696C249.483 383.905 251.225 386.752 256.182 386.752C262.609 386.752 267.468 381.893 272.971 374.651V376.208C273.431 381.984 276.642 387.026 285.174 387.026C295.266 387.026 303.436 380.058 308.386 368.968C310.258 365.069 311.469 360.885 311.968 356.587C313.073 357.148 314.308 357.402 315.544 357.326C317.211 357.345 318.854 356.934 320.316 356.133L318.573 359.89C316.549 364.108 314.347 368.784 312.611 372.728C311.512 375.061 310.857 377.578 310.684 380.151C310.684 384.092 312.885 386.936 317.377 386.936C321.869 386.936 328.022 382.719 332.426 376.76H332.521C332.226 377.992 332.071 379.252 332.056 380.518C332.056 383.819 333.068 386.937 337.655 386.937C342.982 386.937 347.104 383.085 351.145 378.226L347.747 385.927H358.85L367.753 365.759C372.799 354.391 377.844 347.517 382.52 347.517C383.323 347.489 384.01 348.091 384.086 348.892V349.163C384.086 351.089 381.331 356.315 378.856 361.54C376.558 366.307 374.815 369.972 373.625 372.817C372.521 375.214 371.868 377.792 371.698 380.424C371.698 383.906 373.625 386.566 377.94 386.566C384.36 386.566 390.876 380.332 394.355 375.655C393.57 377.897 393.139 380.247 393.077 382.621C393.077 389.041 396.925 392.249 402.34 392.249C405.938 392.222 409.436 391.068 412.343 388.95C416.562 386.015 419.96 381.616 422.804 377.582L420.877 375.747C418.217 379.507 415.277 383.083 412.248 385.283C410.651 386.632 408.648 387.407 406.559 387.483C404.269 387.483 402.799 386.29 402.799 383.359C402.799 380.429 404.173 376.482 406.286 371.164C406.374 371.075 409.403 364.289 412.248 357.782C414.634 352.277 417.02 346.963 417.478 345.863H424.726L426.195 342.562H419.037L425.828 327.067ZM112.86 379.964C111.301 379.964 110.2 379.415 110.2 377.398C110.291 371.988 114.785 362.363 120.386 354.661C124.33 349.344 129.468 345.404 134.973 345.404L127.999 360.985C122.769 372.722 117.08 379.964 112.86 379.964ZM181.491 379.964C179.932 379.964 178.831 379.415 178.741 377.398C178.832 371.988 183.327 362.363 188.925 354.661C192.868 349.344 198.008 345.404 203.513 345.404L196.538 360.986C191.218 372.999 185.805 379.965 181.489 379.965L181.491 379.964ZM303.335 349.622C303.061 355.579 297.831 369.97 291.684 378.591C289.21 382.074 287.096 383.081 285.265 383.081C282.693 383.081 281.955 380.971 282.324 377.856C282.871 372.448 287.37 359.796 293.612 351.087C296.456 347.145 298.385 345.494 300.586 345.494C302.788 345.495 303.43 347.329 303.335 349.622ZM474.579 342.56L484.685 319.244H472.725L462.618 342.56H437.198L432.957 352.338H458.385L448.279 375.655H460.239L470.346 352.338H495.767L500 342.56H474.579Z" fill="white"/>
</svg>
