<svg width="500" height="500" viewBox="0 0 500 500" fill="none" xmlns="http://www.w3.org/2000/svg">
<path d="M165.448 142.057C170.377 142.407 175.284 143.368 180.144 144.254C187.886 146.198 195.26 148.792 201.599 153.791C206.747 157.322 210.33 162.482 212.562 168.257C213.149 170.149 214.84 170.747 216.295 171.903C219.723 174.21 222.225 176.815 226.16 178.173C229.864 179.318 233.298 180.439 237.192 179.375C240.522 178.886 242.322 176.712 245.026 175.05C245.141 177.88 245.187 180.744 245.032 183.574C244.388 188.02 242.955 192.288 240.873 196.268C241.563 197.252 242.248 198.241 242.915 199.242C242.599 199.415 242.282 199.582 241.96 199.748C239.849 199.593 237.784 199.455 235.668 199.748C235.576 200.68 235.489 201.612 235.38 202.538C234.891 206.087 234.287 209.366 234.753 213.001C235.144 214.824 236.243 216.55 237.054 218.224C237.715 219.547 238.348 220.881 238.941 222.233L239.107 222.67C240.223 228.209 242.006 233.483 243.588 238.884C244.267 242.152 244.554 245.436 244.612 248.772C244.658 254.478 244.819 260.253 244.388 265.947C243.663 271.532 242.34 276.945 240.844 282.369C239.89 285.694 240.988 288.455 241 291.785C241.103 294.333 240.781 296.829 240.476 299.349C240.108 301.644 239.798 303.95 239.481 306.257L240.453 305.883C242.236 305.342 243.352 303.852 244.767 302.656C245.078 304.583 245.112 306.447 244.675 308.362C242.012 312.492 239.199 316.685 235.967 320.389C233.902 322.955 231.48 325.1 229.772 327.959C227.069 332.301 223.462 335.741 219.804 339.267C210.773 347.354 199.039 352.646 187.271 355.263C182.399 356.483 177.378 357.259 172.345 357.138C167.927 357.058 163.378 357.397 159.064 356.707C155.198 356.367 151.414 356.862 147.56 356.109C116.764 353.256 87.9527 335.275 71.8474 308.868C69.0462 304.399 66.3946 299.884 64.5482 294.92C63.7947 292.694 62.0001 291.957 60.3781 290.456C54.3731 285.222 51.152 277.773 50.1454 269.979C49.7313 263.255 50.0591 256.813 53.0271 250.647C54.0337 248.329 55.6557 246.448 56.8924 244.286C57.5769 242.353 57.4733 240 57.83 237.993C59.8834 227.105 63.4323 216.325 68.6896 206.559C72.0429 200.893 75.6206 195.147 79.8885 190.154C81.6889 187.807 83.7423 186.358 84.9502 183.678C91.5534 169.902 102.89 159.036 116.005 151.449C123.08 147.297 131.483 145.048 139.507 143.644C148.014 141.878 156.809 141.924 165.448 142.057Z" fill="#030202"/>
<path d="M156.815 146.136C160.508 145.9 164.068 146.51 167.761 146.527C174.87 146.688 181.163 148.759 187.789 151.06C189.94 151.831 191.959 152.86 193.88 154.091C190.234 153.982 186.915 152.55 183.234 151.94C178.184 150.813 173.49 151.255 168.319 151.204C162.855 151.204 157.902 152.504 152.61 153.631C146.513 155.017 141.101 157.583 135.32 159.82C130.443 161.758 125.968 164.427 121.711 167.47C118.024 169.892 114.562 172.52 111.732 175.937C108.994 179.29 105.865 182.684 103.875 186.492C102.385 189.287 100.947 192.129 99.7389 195.062C98.7208 197.541 98.2031 200.129 97.3001 202.643C95.2639 207.843 94.7577 213.94 94.2458 219.462C94.0387 221.377 93.9179 223.275 93.8949 225.202C91.4676 224.696 89.1496 224.23 86.6418 224.403C84.6574 224.541 82.6729 224.719 80.6828 224.753C80.4987 221.578 80.9991 218.484 81.1257 215.326C81.1487 210.155 82.161 204.967 83.5242 199.991C85.06 195.275 86.2449 190 88.6607 185.698C90.7429 181.746 93.2047 178.036 95.8333 174.43C99.5778 169.449 104.179 165.635 108.902 161.655C113.066 158.382 117.127 155.167 122.045 153.067C128.176 150.64 134.469 149.029 140.882 147.568C146.18 146.441 151.454 146.591 156.815 146.136Z" fill="#656565"/>
<path d="M162.267 157.036C167.709 156.598 173.069 156.328 178.499 157.042C183.124 157.663 187.616 160.004 191.798 162.092C194.95 164.565 198.004 167.268 200.863 170.081C202.784 171.853 204.981 173.181 206.689 175.2C209.358 178.398 212.66 180.245 216.076 182.54C218.642 184.116 221.04 186.118 223.893 186.963C227.575 188.148 231.106 187.987 234.914 187.952C234.851 188.367 234.787 188.786 234.724 189.206C230.755 190.667 226.154 191.904 221.903 191.386C218.423 190.748 215.099 189.086 211.786 187.86C208.104 186.457 205.66 183.938 202.605 181.562C200.293 179.687 197.808 178.295 195.226 176.834C192.016 174.976 188.065 174.096 184.493 173.135C181.295 172.238 178.298 173.296 175.077 172.687C176.475 171.209 178.154 171.249 180.018 170.846C181.864 170.541 183.618 169.972 185.338 169.23C181.387 166.67 176.498 165.365 171.867 164.749C165.253 163.892 159.294 165.434 152.777 166.038C148.583 166.423 145.017 168.252 140.882 169.069C137.454 169.782 134.33 171.22 131.282 172.9C131.149 173.647 131.034 174.395 130.896 175.143C128.734 175.448 126.387 175.661 124.333 176.42C124.011 177.766 125.219 179.347 125.702 180.578C123.482 180.055 121.475 179.048 119.22 179.951C117.287 180.642 115.706 181.131 113.641 180.619C115.027 178.347 117.063 176.937 118.909 175.097C123.419 170.53 128.843 167.015 134.79 164.605C140.076 162.017 145.656 160.234 151.327 158.71C154.951 157.784 158.552 157.392 162.267 157.036Z" fill="#413B37"/>
<path d="M302.935 162.725C308.296 163.248 313.444 165.02 317.815 168.189C320.352 170.432 322.911 172.549 324.424 175.569C320.524 177.737 316.676 179.998 312.742 182.091C310.873 180.067 309.262 178.14 306.605 177.127C304.425 176.161 302.343 176.431 300.019 176.38C295.061 176.144 290.246 179.394 288.187 183.846C286.6 186.911 286.962 190.132 287.042 193.48C287.094 196.045 288.371 198.208 289.786 200.262C292.593 203.995 297.149 205.76 301.767 205.352C306.455 205.536 310.027 202.982 312.782 199.439C316.32 201.291 319.765 203.356 323.176 205.427C323.734 205.709 324.355 206.37 323.918 206.997C319.023 214.63 309.636 219.226 300.611 218.605C294.382 218.904 288.319 216.735 283.402 212.968C278.99 209.108 275.47 204.495 274.106 198.697C272.939 194.636 273.18 190.702 273.341 186.515C273.773 183.121 274.843 179.768 276.465 176.759C278.081 173.809 280.554 171.203 283.051 168.977C288.613 164.37 295.768 162.345 302.935 162.725Z" fill="#020202"/>
<path d="M430.013 163.367C434.488 163.31 438.98 163.281 443.455 163.391C442.23 165.691 440.452 167.463 438.882 169.516C437.64 171.035 436.501 172.697 435.115 174.083C431.209 174.555 427.039 174.25 423.087 174.204C424.353 171.225 426.124 168.573 427.614 165.703C428.201 164.765 428.696 163.356 430.013 163.367Z" fill="#050505"/>
<path d="M344.876 178.594C342.521 178.596 340.13 178.822 338.224 179.904C334.158 182.049 330.925 185.57 329.291 189.889C327.963 192.788 328.405 195.532 328.319 198.621C328.377 201.543 328.078 204.217 329.222 206.978C330.988 211.58 334.526 215.652 339.197 217.447C342.377 218.908 345.564 218.677 348.975 218.482C352.012 218.079 354.151 216.417 356.538 214.692C356.63 215.583 356.717 216.48 356.803 217.372C360.979 217.476 365.172 217.459 369.354 217.384C369.314 205.753 369.325 194.129 369.342 182.504C369.227 181.296 369.653 180.255 368.491 179.461C364.637 179.346 360.766 179.478 356.907 179.398C356.763 180.278 356.625 181.152 356.487 182.032C354.226 180.755 351.649 178.615 348.963 178.696C347.688 178.672 346.289 178.593 344.876 178.594ZM348.139 190.173C349.21 190.164 350.297 190.278 351.258 190.361C354.588 191.442 357.015 195.118 356.693 198.621C356.929 201.318 355.629 203.878 353.472 205.454C350.067 207.795 344.942 207.519 342.354 204.08C340.358 201.647 340.324 198.764 340.819 195.796C341.359 193.628 343.217 191.793 345.115 190.723C346.012 190.315 347.068 190.182 348.139 190.173Z" fill="#020202"/>
<path d="M429.764 178.582C426.669 178.571 423.565 178.889 420.908 180.277C414.386 183.538 409.641 190.607 410.107 198.044C409.842 202.375 410.797 206.574 413.316 210.141C416.583 215.093 422.444 218.13 428.288 218.549C432.303 218.573 435.932 218.947 439.751 217.452C443.053 216.37 445.624 214.426 447.856 211.803C445.728 209.801 443.381 208.317 440.954 206.695C440.298 206.304 439.516 205.688 438.734 205.677C437.549 206.12 436.474 206.868 435.335 207.42C431.809 209.56 426.609 208.323 423.974 205.274C423.221 204.474 423.249 203.422 423.065 202.387C429.41 202.335 435.76 202.427 442.11 202.387C445.014 202.289 447.494 203.02 449.99 201.116C449.962 198.021 450.226 194.49 449.168 191.556C447.276 185.223 441.719 180.081 435.231 178.798C433.477 178.714 431.622 178.589 429.764 178.582ZM430.589 189.05C431.564 189.044 432.539 189.103 433.471 189.238C435.547 190.21 437.238 191.935 437.537 194.294C432.734 194.368 427.909 194.45 423.117 194.283C423.589 192.011 425.435 189.848 427.707 189.255C428.639 189.129 429.614 189.057 430.589 189.05Z" fill="#020202"/>
<path d="M377.378 179.599C378.581 179.358 379.898 179.392 381.123 179.392C389.641 179.473 398.166 179.346 406.684 179.456C406.684 182.355 406.937 185.328 406.621 188.21C404.85 191.034 402.555 193.536 400.622 196.263C398.321 199.444 395.606 202.406 393.616 205.799C398.223 205.943 402.831 205.793 407.438 205.903C407.467 209.745 407.426 213.587 407.467 217.43C400.8 217.418 394.128 217.401 387.462 217.436C376.228 217.229 387.462 217.436 376.228 217.229C376.36 214.519 376.05 211.713 376.424 209.032C377.263 207.324 378.696 205.771 379.852 204.252C382.371 201.014 384.712 197.626 387.358 194.486C388.267 193.393 389.003 192.185 389.699 190.948C385.586 190.816 381.468 190.914 377.355 190.885C377.361 187.129 377.263 183.355 377.378 179.599Z" fill="#020202"/>
<path d="M170.619 189.098C174.656 189.207 178.815 188.851 182.721 189.587C187.259 190.34 192.142 191.117 196.381 192.929C199.119 194.096 202.053 195.264 204.526 196.932C206.712 198.376 208.903 199.923 211.365 200.872C214.069 201.913 216.801 202.287 219.659 202.615C216.634 205.071 212.447 204.128 208.806 204.174C209.099 209.408 210.744 214.395 210.825 219.629C208.737 219.606 206.608 219.669 204.543 219.393C202.904 219.14 202.392 217.869 201.288 216.828C200.425 215.902 199.303 215.424 198.205 214.821C195.662 215.908 195.185 218.053 193.505 219.876C190.618 221.125 186.35 221.199 183.509 223.057C182.87 224.127 183.204 225.755 182.882 226.98C182.174 227.952 181.03 228.309 179.862 228.297C177.4 228.47 175.019 227.417 172.914 226.244C171.332 225.416 171.32 222.724 169.664 222.033C167.616 221.165 165.252 220.929 163.078 220.457C159.448 219.687 155.618 220.434 152.023 219.876C149.814 218.715 148.543 216.04 146.288 214.832C144.654 214.061 142.802 214.268 141.508 215.574C139.437 217.357 139.466 219.773 138.172 221.93C137.482 222.442 136.556 222.689 135.751 222.988C130.953 224.541 126.398 226.854 122.141 229.545C120.548 230.437 120.439 231.909 119.818 233.468C117.419 233.307 115.038 232.979 112.674 232.571C112.749 231.426 112.703 230.253 112.852 229.114C114.457 226.508 117.379 224.702 119.127 222.183C119.266 221.142 118.823 220.342 118.518 219.376C117.16 219.859 115.164 221.959 113.772 220.889C115.084 219.198 116.597 217.587 117.736 215.775C118.961 213.221 115.964 208.977 118.61 206.981C121.227 204.576 124.333 202.638 127.393 200.838C136.746 195.442 147.318 192.054 157.964 190.398C162.273 189.966 166.247 188.943 170.619 189.098Z" fill="#FADEB9"/>
<path d="M107.101 192.034C108.964 192.316 109.839 193.593 110.897 194.973C108.539 194.766 106.572 194.249 104.443 193.213C105.26 192.713 106.054 191.729 107.101 192.034Z" fill="#303030"/>
<path d="M241.961 199.748C242.283 199.582 242.599 199.415 242.915 199.242C246.867 205.201 250.318 211.615 252.849 218.31C255.34 224.493 256.703 230.826 258.221 237.28C258.998 246.828 259.308 256.365 258.624 265.93C258.21 271.67 256.662 277.117 255.886 282.806C253.372 291.923 249.645 300.326 244.675 308.362C245.113 306.447 245.078 304.583 244.767 302.656C243.353 303.852 242.237 305.342 240.454 305.883C241.529 303.743 242.524 301.58 243.744 299.51C250.703 286.171 254.615 271.228 254.459 256.14C254.419 251.74 254.586 247.599 253.827 243.285C253.407 239.718 252.86 236.296 251.681 232.885C251.313 231.194 250.962 229.503 250.479 227.841C249.484 223.469 247.574 219.506 246.039 215.325C245.446 213.812 244.509 212.615 243.554 211.327C242.565 207.554 240.339 204.747 238.015 201.71C237.129 201.957 236.255 202.25 235.38 202.538C235.49 201.612 235.576 200.68 235.668 199.748C237.785 199.455 239.85 199.593 241.961 199.748Z" fill="#050A08"/>
<path d="M449.989 201.117C449.966 201.888 449.908 202.653 449.856 203.424C444.202 203.36 438.554 203.418 432.906 203.435C429.828 203.452 426.831 203.291 423.76 203.521C424.404 204.563 424.859 205.569 425.94 206.231C428.649 208.014 432.25 207.582 435.333 207.421C431.807 209.561 426.607 208.324 423.973 205.276C423.219 204.476 423.248 203.424 423.064 202.388C429.408 202.337 435.758 202.429 442.109 202.388C445.013 202.291 447.492 203.021 449.989 201.117Z" fill="black"/>
<path d="M238.014 201.711C240.338 204.748 242.564 207.555 243.553 211.328C242.541 212.674 241.684 214.319 240.407 215.435C239.515 215.832 238.52 216.045 237.577 216.304C237.404 216.942 237.226 217.586 237.054 218.225C236.243 216.551 235.144 214.825 234.753 213.002C234.287 209.367 234.891 206.088 235.38 202.539C236.254 202.252 237.128 201.958 238.014 201.711Z" fill="#5E2BDF"/>
<path d="M205.407 208.324C205.413 209.365 205.419 210.411 205.436 211.453C204.613 211.723 203.82 212.241 202.934 211.999C199.552 211.292 196.589 210.078 193.04 210.296C190.653 210.239 188.134 211.545 185.822 211.061C185.034 210.158 185.258 208.715 185.172 207.576C191.539 205.229 199.138 205.948 205.407 208.324Z" fill="#160702"/>
<path d="M140.72 207.416C146.501 206.559 152.379 206.847 158.051 208.256C158.31 208.693 158.563 209.136 158.822 209.573C158.517 210.459 158.218 211.35 157.93 212.242C155.002 212.363 152.259 211.402 149.342 211.419C146.679 211.391 143.941 211.281 141.307 211.69C139.236 212.052 137.189 213.444 135.101 213.438C133.599 213.162 133.565 211.396 133.381 210.194C135.797 208.998 138.011 207.819 140.72 207.416Z" fill="#170903"/>
<path d="M74.2336 211.695C74.481 215.601 74.1704 219.449 74.5845 223.343C74.7743 225.235 74.8261 227.122 74.7743 229.02C73.7217 229.613 72.6691 230.199 71.6453 230.843C69.3675 232.224 67.7167 234.197 65.2031 235.232C65.4562 228.905 68.2056 222.354 70.5927 216.538C71.5762 214.56 71.9444 212.529 74.2336 211.695Z" fill="#914354"/>
<path d="M243.554 211.328C244.509 212.617 245.446 213.813 246.039 215.326C246.171 218.276 245.36 220.842 244.06 223.447C241.529 223.315 240.666 221.595 239.159 219.904C239.073 220.681 238.998 221.457 238.941 222.234C238.348 220.882 237.716 219.548 237.054 218.225C237.227 217.586 237.405 216.942 237.578 216.304C238.521 216.045 239.516 215.832 240.408 215.435C241.685 214.319 242.542 212.674 243.554 211.328Z" fill="#4D4EE0"/>
<path d="M146.288 214.831C148.543 216.039 149.814 218.714 152.023 219.876C155.618 220.434 159.449 219.686 163.078 220.457C165.252 220.928 167.617 221.164 169.664 222.033C171.321 222.723 171.332 225.415 172.914 226.243C175.019 227.417 177.401 228.469 179.862 228.297C181.03 228.308 182.175 227.951 182.882 226.979C183.204 225.754 182.871 224.126 183.509 223.057C186.351 221.199 190.618 221.124 193.506 219.876C195.185 218.052 195.663 215.907 198.205 214.82C199.304 215.424 200.425 215.901 201.288 216.827C202.393 217.868 202.905 219.14 204.544 219.393C206.609 219.669 208.737 219.605 210.825 219.628L210.831 220.554C209.088 220.727 207.265 220.94 205.516 220.744C203.67 220.526 201.91 219.467 200.069 219.387C197.751 220.066 195.922 222.378 194.449 224.184C194.858 224.696 195.266 225.208 195.675 225.72C195.122 225.777 194.57 225.829 194.018 225.875C192.327 226.002 189.255 225.921 188.37 227.67C188.617 232.277 189.997 236.953 190.475 241.509C189.877 241.653 189.278 241.802 188.68 241.946C188.444 242.579 188.209 243.206 187.973 243.838C187.265 243.597 186.558 243.384 185.856 243.148C185.327 242.728 184.798 242.308 184.28 241.877C183.676 240.922 183.066 239.973 182.439 239.03C183.095 238.46 183.762 237.897 184.407 237.304C184.205 235.947 184.027 234.589 183.82 233.232C180.351 233.462 177.056 233.491 173.639 232.691C173.708 236.344 174.571 239.858 174.375 243.528C172.747 244.35 171.114 245.144 169.4 245.765C169.089 242.527 168.83 239.26 168.29 236.05C167.979 233.048 167.283 230.154 166.696 227.209C162.733 225.685 158.69 225.708 154.514 225.823C154.893 227.382 155.382 228.901 155.94 230.402C153.289 232.933 150.539 235.021 148.21 237.787C151.408 239.03 154.658 240.059 157.723 241.635C157.821 245.466 157.827 249.389 157.24 253.179C156.619 256.096 155.618 260.041 152.783 261.577C151.713 261.669 150.418 261.813 149.406 261.387C147.629 260.49 146.151 258.822 144.977 257.24C142.021 252.777 139.818 247.491 139.139 242.159C139.018 242.262 138.909 242.372 138.805 242.487C138.086 237.897 137.528 233.33 137.528 228.676C136.89 228.768 136.257 228.878 135.63 229.039C132.628 229.654 129.717 231.219 127.077 232.749C126.088 233.416 124.776 234.118 124.811 235.486C124.339 243.338 127.094 250.062 130.632 256.872C129.217 257.58 128.084 258.396 126.416 257.976C125.691 257.833 125.237 256.999 124.863 256.423C121.923 250.93 120.773 245.104 119.893 239.001C117.638 238.541 115.355 238.362 113.054 238.311C113.02 240.226 112.991 242.113 113.14 244.028C112.807 242.625 112.128 240.916 112.462 239.49C113.025 237.724 114.026 236.073 114.814 234.399C113.831 234.422 112.853 234.451 111.869 234.486C112.145 233.847 112.421 233.22 112.674 232.57C115.038 232.979 117.42 233.307 119.818 233.468C120.439 231.909 120.549 230.436 122.142 229.545C126.398 226.853 130.954 224.541 135.751 222.988C136.556 222.688 137.482 222.441 138.173 221.929C139.467 219.772 139.438 217.356 141.509 215.573C142.803 214.268 144.655 214.061 146.288 214.831Z" fill="#070403"/>
<path d="M246.039 215.324C247.575 219.506 249.484 223.469 250.479 227.84C248.409 227.973 246.476 227.674 244.468 227.219C243.726 228.473 243.082 229.802 242.427 231.102C241.506 228.186 240.759 225.292 239.108 222.669L238.941 222.232C238.998 221.456 239.073 220.679 239.159 219.903C240.666 221.594 241.529 223.314 244.06 223.446C245.36 220.84 246.171 218.275 246.039 215.324Z" fill="#4B6ED4"/>
<path d="M72.6704 216.176C73.2341 219.138 73.6022 222.158 73.8841 225.16C73.9071 226.069 74.0796 227.265 73.4757 228.025C71.9457 230.032 69.4378 231.073 67.1601 231.971C66.9875 228.922 67.4879 226.639 68.6958 223.872C69.898 221.226 70.4099 218.022 72.6704 216.176Z" fill="#EA456B"/>
<path d="M239.107 222.668C240.758 225.291 241.505 228.184 242.426 231.1C242.846 232.487 243.22 233.855 243.415 235.288C243.49 236.49 243.507 237.686 243.588 238.883C242.006 233.482 240.223 228.207 239.107 222.668Z" fill="#29496E"/>
<path d="M206.08 225.078C209.243 224.969 212.815 225.607 215.484 227.385C216.381 228.731 216.629 230.583 216.956 232.142C217.445 235.11 218.055 238.198 217.911 241.212C217.992 243.203 215.564 243.973 214.454 245.388C213.764 247.258 214.357 249.484 214.845 251.33C214.443 251.163 214.034 251.008 213.626 250.853C213.482 249.65 213.35 248.454 213.264 247.252C213.396 246.314 213.252 245.032 214.109 244.428C214.978 243.657 215.99 243.036 216.951 242.38C217.106 238.152 216.899 234.005 215.835 229.893C215.593 229.128 215.329 228.121 214.621 227.661C212.51 226.234 209.554 225.809 207.075 225.51C207.052 226.585 207.069 227.667 207.081 228.742C205.286 229.985 203.566 231.296 201.927 232.728C204.113 233.499 206.321 234.218 208.507 234.995C208.829 239.084 208.662 242.857 207.903 246.89C207.184 248.765 205.861 251.618 203.457 251.457C201.047 251.33 199.166 248.719 197.895 246.918C194.674 240.551 193.201 233.66 192.925 226.556C191.648 226.614 190.348 227.057 189.14 227.46C189.163 232.372 190.434 236.801 191.476 241.673C190.866 242.299 190.256 242.926 189.646 243.553C191.211 245.141 192.902 246.579 194.553 248.069C195.628 249.208 196.572 250.45 197.584 251.641C194.001 249.259 191.821 245.406 187.973 243.835C188.208 243.203 188.444 242.576 188.68 241.943C189.278 241.799 189.877 241.65 190.475 241.506C189.997 236.95 188.617 232.274 188.37 227.667C189.255 225.918 192.327 225.999 194.018 225.872C193.638 230.128 194.173 234.247 195.329 238.336C196.324 241.655 197.176 244.767 199.206 247.632C200.236 249.087 201.553 250.715 203.48 250.83C205.016 250.996 206.339 249.305 206.799 248.011C208.099 244.111 207.823 239.429 207.696 235.363C205.412 234.58 203.112 233.89 200.857 233.039C202.404 231.21 204.308 229.852 206.177 228.386C206.126 227.281 206.062 226.183 206.08 225.078Z" fill="#7A7673"/>
<path d="M207.076 225.512C209.555 225.811 212.511 226.236 214.622 227.663C215.33 228.123 215.594 229.13 215.836 229.895C216.9 234.007 217.107 238.154 216.952 242.382C215.991 243.038 214.979 243.659 214.11 244.43C213.253 245.034 213.397 246.316 213.265 247.254C211.338 247.127 209.676 247.697 207.921 248.416C207.91 247.91 207.904 247.404 207.904 246.892C208.663 242.86 208.83 239.086 208.508 234.997C206.322 234.22 204.113 233.501 201.928 232.73C203.567 231.298 205.287 229.987 207.081 228.744C207.07 227.669 207.053 226.587 207.076 225.512Z" fill="#FCFCFC"/>
<path d="M154.513 225.821C158.689 225.705 162.733 225.682 166.696 227.207C167.282 230.152 167.978 233.045 168.289 236.047C168.277 239.315 168.226 242.553 168.709 245.797C169.52 246.119 170.325 246.441 171.136 246.758C170.831 247.822 170.797 248.938 169.894 249.685C168.749 250.588 166.92 250.698 165.54 251.083C162.583 251.681 159.966 253.924 157.378 255.477C157.32 254.712 157.274 253.947 157.239 253.177C157.826 249.386 157.82 245.463 157.723 241.633C154.657 240.057 151.407 239.027 148.209 237.785C150.539 235.018 153.288 232.93 155.94 230.399C155.382 228.898 154.893 227.379 154.513 225.821Z" fill="#FCFBFB"/>
<path d="M192.925 226.559C193.201 233.662 194.674 240.553 197.895 246.92C197.826 247.289 197.751 247.662 197.682 248.031C196.635 248.031 195.594 248.042 194.553 248.071C192.902 246.581 191.211 245.143 189.647 243.556C190.257 242.929 190.866 242.302 191.476 241.675C190.435 236.803 189.164 232.374 189.141 227.462C190.349 227.059 191.648 226.616 192.925 226.559Z" fill="#FDFAF9"/>
<path d="M244.467 227.219C246.475 227.673 248.407 227.972 250.478 227.84C250.961 229.502 251.312 231.193 251.68 232.884C248.954 233.793 246.147 234.397 243.415 235.289C243.219 233.856 242.845 232.488 242.425 231.101C243.081 229.801 243.725 228.473 244.467 227.219Z" fill="#3391CA"/>
<path d="M137.528 228.676C137.528 233.329 138.086 237.896 138.805 242.486C138.908 242.371 139.018 242.262 139.138 242.158C139.817 247.49 142.02 252.776 144.977 257.24C144.856 257.896 144.735 258.557 144.614 259.213C139.886 258.442 135.382 259.535 130.666 259.385C130.712 258.868 130.752 258.35 130.787 257.832C131.034 255.204 129.297 253.041 128.354 250.637C126.386 245.914 125.202 240.559 125.621 235.44C125.679 234.14 126.99 233.565 127.939 232.949C130.47 231.581 133.128 230.47 135.63 229.038C136.257 228.877 136.889 228.768 137.528 228.676Z" fill="#FEFDFC"/>
<path d="M135.629 229.039C133.127 230.471 130.47 231.581 127.939 232.95C126.99 233.566 125.679 234.141 125.621 235.441C125.201 240.56 126.386 245.915 128.353 250.638C129.296 253.042 131.034 255.205 130.786 257.833C129.222 258.161 126.932 259.058 125.443 258.288C123.913 256.643 123.142 254.186 122.302 252.133C120.669 248.009 120.076 243.729 119.397 239.381C117.609 239.237 115.814 239.185 114.019 239.203C113.853 242.872 113.864 246.352 115.342 249.786C117.097 253.945 118.138 258.305 118.903 262.74C119.743 269.429 119.259 276.067 117.816 282.635C117.258 286.006 116.257 288.502 114.37 291.338C119.685 278.327 120.111 262.975 114.756 249.913C114.048 247.98 113.622 246.019 113.139 244.029C112.99 242.113 113.019 240.227 113.053 238.311C115.354 238.363 117.637 238.541 119.892 239.001C120.772 245.104 121.923 250.931 124.862 256.424C125.236 256.999 125.69 257.833 126.415 257.977C128.083 258.397 129.216 257.58 130.631 256.873C127.093 250.062 124.338 243.338 124.81 235.487C124.775 234.118 126.087 233.416 127.076 232.749C129.716 231.219 132.627 229.655 135.629 229.039Z" fill="#7D7267"/>
<path d="M82.0689 230.159C87.4814 230.251 93.1931 232.741 96.535 237.09C93.2736 234.996 89.9375 232.045 86.17 231.188C83.2998 230.521 80.2628 230.251 77.4961 231.459C74.4649 232.833 71.6522 234.191 69.7253 237.032C72.0088 237.141 74.2923 237.176 76.5816 237.239C76.5413 238.125 76.4953 239.011 76.455 239.902C77.3868 239.713 78.3186 239.529 79.2504 239.333C82.0229 240.961 84.5882 242.612 86.6647 245.119C86.2333 245.355 85.8076 245.591 85.3762 245.827C83.2078 243.762 80.8725 241.904 78.2266 240.489C78.6983 241.133 79.1699 241.778 79.6703 242.393C75.9143 239.971 71.4451 239.931 67.8789 237.257C69.9956 235.22 72.2504 233.161 74.7524 231.614C76.8519 230.291 79.6531 230.113 82.0689 230.159Z" fill="#343635"/>
<path d="M86.1693 231.189C89.9368 232.046 93.2729 234.997 96.5343 237.091C98.3404 238.983 100.043 240.944 101.412 243.182C103.276 246.213 105.513 249.365 106.606 252.747C107.572 255.664 108.216 258.701 108.838 261.703C109.666 265.62 109.384 269.951 109.39 273.972C109.373 278.246 108.533 282.076 106.738 285.947C104.834 290.215 102.545 294.644 98.8983 297.693C97.098 299.068 95.0445 300.264 92.9163 301.046C90.4545 301.282 87.9352 301.34 85.4791 301.058C83.1553 300.776 81.3032 299.729 79.2785 298.682C77.7025 297.693 76.3105 296.485 74.9646 295.208C78.2547 292.965 81.562 291.843 84.2367 288.823C89.2926 282.956 91.6739 275.324 91.4381 267.622C91.116 262.209 90.351 256.958 87.8144 252.08C85.9565 248.152 83.0403 245.074 79.6697 242.394C79.1693 241.778 78.6976 241.134 78.2259 240.49C80.8718 241.905 83.2071 243.763 85.3756 245.828C94.1357 256.705 95.4242 273.092 88.7462 285.309C86.5662 289.284 83.1956 291.768 79.5431 294.27C83.3221 294.264 87.291 293.868 90.8571 292.539C94.7742 290.854 98.5647 288.283 100.63 284.435C101.786 282.145 103.327 279.85 103.782 277.348C105.024 271.401 104.679 265.275 103.396 259.374C102.401 254.789 100.256 250.677 97.6099 246.84C95.1711 243.964 91.9385 241.663 88.7174 239.742C85.1052 237.597 81.424 237.47 77.3804 236.912C78.1914 237.303 79.0024 237.683 79.8365 238.028C79.2555 238.132 78.6746 238.235 78.0936 238.35C78.479 238.684 78.8586 239.012 79.2498 239.334C78.318 239.529 77.3862 239.713 76.4543 239.903C76.4946 239.012 76.5406 238.126 76.5809 237.24C74.2916 237.177 72.0081 237.142 69.7246 237.033C71.6515 234.192 74.4642 232.834 77.4954 231.459C80.2621 230.252 83.2991 230.522 86.1693 231.189Z" fill="#666666"/>
<path d="M173.639 232.691C177.055 233.491 180.351 233.462 183.82 233.232C184.027 234.59 184.205 235.947 184.406 237.304C183.762 237.897 183.095 238.461 182.439 239.03C183.066 239.973 183.676 240.922 184.28 241.877C185.033 245.817 185.792 249.832 185.931 253.841C185.942 255.256 185.982 256.849 185.493 258.195C182.088 260.358 177.723 260.732 174.099 262.601C173.213 260.151 174.277 258.282 174.835 255.929C176.054 251.27 177.958 246.789 179.161 242.136C178.263 242.665 177.498 243.252 176.796 244.028C176.883 241.36 177.234 238.863 176.365 236.258C175.859 236.793 175.284 237.327 174.875 237.943C174.593 239.789 174.616 241.676 174.375 243.528C174.57 239.858 173.708 236.344 173.639 232.691Z" fill="#FADFBC"/>
<path d="M251.681 232.887C252.86 236.298 253.407 239.72 253.826 243.286L253.228 243.413C252.101 241.739 251.117 239.99 249.869 238.397C248.471 239.358 246.499 240.669 246.222 242.469C245.849 244.885 245.935 247.399 246.056 249.838C245.711 249.05 245.331 248.273 244.946 247.502C244.831 247.922 244.721 248.348 244.612 248.774C244.554 245.437 244.267 242.153 243.588 238.886C243.508 237.69 243.49 236.493 243.416 235.291C246.148 234.399 248.955 233.796 251.681 232.887Z" fill="#2DB1B5"/>
<path d="M273.301 235.023C277.224 235.156 281.158 235.098 285.081 235.104C306.409 235.104 327.737 235.087 349.066 235.127C349.267 243.398 349.175 251.698 349.117 259.975C340.748 259.981 332.379 259.935 324.01 259.993C323.953 261.586 323.93 263.173 323.93 264.767C323.936 288.643 323.861 312.531 323.964 336.407C315.336 336.39 306.708 336.464 298.081 336.378C298.012 310.903 298.098 285.416 298.029 259.941C289.781 260.033 281.532 259.872 273.284 260.021C273.181 251.721 273.181 243.329 273.301 235.023Z" fill="#010101"/>
<path d="M354.162 235.165C363.531 235.107 372.907 235.113 382.277 235.171C383.496 240.031 385.049 244.805 386.321 249.654C391.261 267.715 396.513 285.586 401.534 303.63C401.856 303.63 402.179 303.63 402.501 303.63C403.093 300.869 403.916 298.148 404.658 295.422C410.398 275.25 416.127 255.314 421.821 235.102C431.134 235.199 440.486 234.975 449.781 235.234C449.925 236.982 448.85 238.852 448.401 240.543C444.478 253.209 440.101 265.719 436.213 278.402C432.083 291.315 427.66 304.142 423.708 317.112C421.637 323.543 419.693 329.997 417.415 336.364C407.183 336.45 396.944 336.422 386.706 336.404C385.469 333.408 384.589 330.307 383.577 327.236C380.39 317.21 377.215 307.162 373.885 297.188C368.363 279.961 362.778 262.797 357.222 245.582C356.146 242.148 354.754 238.714 354.162 235.165Z" fill="#010101"/>
<path d="M168.29 236.051C168.831 239.26 169.09 242.527 169.4 245.766C171.114 245.145 172.748 244.351 174.376 243.528C174.617 241.676 174.594 239.79 174.876 237.943C175.284 237.328 175.86 236.793 176.366 236.258C177.234 238.863 176.883 241.36 176.797 244.029C175.014 248.653 172.5 253.076 170.062 257.379C168.877 259.438 168.497 261.394 168.606 263.769C168.313 263.792 168.02 263.815 167.732 263.838C167.307 261.146 167.606 258.483 167.473 255.791C167.439 254.606 166.219 254.44 165.328 254.135C163.861 255.975 162.032 255.993 160.03 256.827C157.822 258.742 156.654 261.492 153.698 262.837C151.61 263.752 149.125 262.533 147.071 261.969C142.332 260.669 136.821 260.744 131.967 260.462C128.516 260.266 125.341 259.174 122.171 257.874C121.452 259.191 120.71 260.347 120.635 261.9C120.411 265.345 120.831 268.814 120.647 272.271C120.515 276.073 119.571 279.57 119.192 283.349C118.737 283.096 118.283 282.86 117.817 282.636C119.261 276.067 119.744 269.429 118.904 262.74C118.139 258.305 117.098 253.945 115.344 249.786C113.865 246.352 113.854 242.873 114.021 239.203C115.815 239.186 117.61 239.237 119.399 239.381C120.078 243.73 120.67 248.009 122.304 252.133C123.143 254.187 123.914 256.643 125.444 258.288C126.934 259.058 129.223 258.161 130.788 257.833C130.753 258.351 130.713 258.869 130.667 259.386C135.383 259.536 139.887 258.443 144.615 259.214C144.736 258.558 144.857 257.897 144.978 257.241C146.151 258.823 147.629 260.491 149.407 261.388C150.419 261.814 151.713 261.67 152.783 261.578C155.619 260.042 156.619 256.096 157.241 253.18C157.275 253.951 157.321 254.716 157.379 255.481C159.967 253.928 162.584 251.684 165.541 251.086C166.921 250.701 168.75 250.592 169.895 249.689C170.798 248.941 170.832 247.825 171.137 246.761C170.326 246.445 169.521 246.122 168.71 245.8C168.227 242.556 168.279 239.318 168.29 236.051Z" fill="#F4E1C7"/>
<path d="M77.3809 236.91C81.4245 237.468 85.1057 237.595 88.7179 239.74C91.939 241.661 95.1715 243.962 97.6103 246.838C100.256 250.675 102.402 254.787 103.397 259.371C104.679 265.273 105.025 271.399 103.782 277.346C103.328 279.848 101.786 282.143 100.63 284.433C98.5652 288.281 94.7747 290.852 90.8576 292.537C87.2914 293.866 83.3226 294.263 79.5436 294.268C83.196 291.766 86.5667 289.281 88.7466 285.307C95.4246 273.09 94.1362 256.703 85.376 245.826C85.8074 245.59 86.2331 245.354 86.6644 245.118C89.5519 248.155 91.6399 251.733 92.7327 255.788C93.7048 259.262 93.8831 262.719 94.3605 266.268C94.8954 266.291 95.4304 266.314 95.9653 266.337C96.3392 261.724 93.7508 257.502 94.1017 252.745C95.3096 252.883 96.3449 252.584 97.2135 253.631C99.5775 256.173 100.216 260.493 101.401 263.72C101.947 263.881 102.494 264.042 103.046 264.209C102.206 258.543 100.015 253.021 96.7648 248.31C92.681 242.725 86.5322 239.406 79.8369 238.026C79.0029 237.681 78.1919 237.301 77.3809 236.91Z" fill="#030303"/>
<path d="M258.221 237.281C259.136 240.462 259.274 243.631 259.533 246.904C260.678 257.747 259.631 268.905 257.06 279.477C256.749 280.622 256.295 281.703 255.886 282.808C256.663 277.119 258.21 271.672 258.624 265.932C259.309 256.366 258.998 246.829 258.221 237.281Z" fill="black"/>
<path d="M78.0938 238.349C78.6747 238.234 79.2556 238.131 79.8366 238.027C86.5318 239.408 92.6806 242.727 96.7645 248.312C100.014 253.023 102.206 258.544 103.046 264.21C102.493 264.043 101.947 263.882 101.401 263.721C100.216 260.494 99.5772 256.175 97.2131 253.632C96.3446 252.585 95.3092 252.885 94.1013 252.747C93.7505 257.503 96.3388 261.725 95.965 266.338C95.43 266.315 94.8951 266.292 94.3602 266.269C93.8828 262.72 93.7044 259.263 92.7324 255.789C91.6395 251.734 89.5516 248.156 86.6641 245.119C84.5877 242.612 82.0223 240.961 79.2499 239.333C78.8588 239.011 78.4791 238.683 78.0938 238.349Z" fill="#A7A7A7"/>
<path d="M249.87 238.395C251.118 239.988 252.101 241.736 253.229 243.41C253.033 246.769 253.131 250.111 252.648 253.459C252.044 252.711 251.457 251.9 250.75 251.25C249.087 250.508 247.874 251.25 246.424 252.015C246.321 251.285 246.188 250.56 246.056 249.835C245.935 247.396 245.849 244.883 246.223 242.467C246.499 240.667 248.472 239.355 249.87 238.395Z" fill="#12D9AD"/>
<path d="M184.28 241.875C184.798 242.306 185.327 242.726 185.857 243.146C188.681 246.839 191.488 250.543 194.306 254.242C195.399 255.812 196.768 257.745 196.929 259.689C197.032 260.989 195.313 261.713 194.335 262.128C189.607 263.87 184.234 264.169 179.236 264.486C177.01 264.658 175.739 264.008 174.1 262.599C177.723 260.73 182.089 260.356 185.494 258.193C185.983 256.847 185.943 255.254 185.931 253.839C185.793 249.83 185.034 245.815 184.28 241.875Z" fill="#AD896A"/>
<path d="M179.161 242.133C177.958 246.786 176.055 251.267 174.835 255.926C174.277 258.278 173.213 260.148 174.099 262.598C175.738 264.007 177.009 264.657 179.235 264.485C184.234 264.168 189.606 263.869 194.334 262.126C195.312 261.712 197.032 260.988 196.928 259.688C196.767 257.744 195.398 255.811 194.305 254.241C191.487 250.542 188.68 246.838 185.856 243.145C186.558 243.381 187.265 243.594 187.972 243.835C191.821 245.406 194.001 249.259 197.584 251.641C199.649 253.775 202.41 256.352 202.082 259.59C202.519 263.058 199.016 265.158 196.267 266.297C190.198 268.5 183.187 269.506 176.751 268.994C174.732 268.586 172.615 268.045 170.958 266.751C170.038 265.9 169.359 264.761 168.606 263.766C168.497 261.39 168.876 259.435 170.061 257.375C172.5 253.073 175.013 248.65 176.797 244.025C177.498 243.249 178.263 242.662 179.161 242.133Z" fill="#110401"/>
<path d="M253.228 243.412L253.826 243.285C254.586 247.599 254.419 251.74 254.459 256.141C254.614 271.228 250.703 286.171 243.743 299.51C242.656 299.453 241.563 299.384 240.476 299.349C240.781 296.83 241.103 294.333 241 291.785C240.988 288.455 239.889 285.694 240.844 282.369C242.34 276.945 243.663 271.533 244.387 265.948C244.819 260.253 244.658 254.478 244.612 248.772C244.721 248.347 244.83 247.921 244.945 247.501C245.331 248.272 245.71 249.049 246.056 249.837C246.188 250.561 246.32 251.286 246.424 252.017C247.068 257.855 246.096 263.929 245.555 269.755C245.181 272.735 244.618 275.663 243.663 278.516C241.707 284.279 242.288 290.474 242.673 296.433C244.583 292.533 246.809 288.892 248.161 284.739C249.593 281.024 249.696 277.198 250.692 273.396C251.382 270.883 252.135 268.438 252.394 265.827C252.889 261.668 252.21 257.619 252.647 253.46C253.13 250.113 253.033 246.771 253.228 243.412Z" fill="#41DB8B"/>
<path d="M70.5639 243.761C74.3257 243.986 77.2591 246.01 80.0201 248.386C83.9371 251.636 86.2724 256.479 87.1697 261.42C87.6874 264.313 88.3201 266.982 88.0727 269.944C87.7506 273.832 86.9856 277.634 85.2025 281.131C83.5 284.652 81.2567 288.678 77.5065 290.312C80.2099 285.526 82.2806 280.66 82.8903 275.149C83.3044 268.587 82.9938 262.225 79.4736 256.479C77.518 253.108 74.0726 251.089 70.4604 249.927C66.8827 248.886 64.0182 250.186 60.3945 250.094C62.0051 246.177 66.2385 243.192 70.5639 243.761Z" fill="#A4A4A4"/>
<path d="M197.895 246.919C199.166 248.72 201.047 251.331 203.457 251.458C205.861 251.619 207.184 248.766 207.903 246.891C207.903 247.403 207.909 247.909 207.921 248.415C209.675 247.696 211.337 247.126 213.264 247.253C213.35 248.455 213.483 249.652 213.627 250.854C214.035 251.009 214.443 251.164 214.846 251.331C217.699 252.608 219.965 255.409 221.817 257.848C227.138 265.349 230.508 274.068 231.854 283.151C232.251 288.31 232.113 293.533 232.033 298.71C232.039 303.248 230.612 307.389 229.007 311.571C228.8 308.453 229.83 305.543 229.416 302.431C229.738 302.627 230.06 302.822 230.376 303.012C229.531 294.263 230.353 286.544 228.892 277.968C228.035 275.506 227.034 273.183 226.632 270.577C225.09 269.507 223.618 268.374 222.185 267.16C219.666 269.34 217.354 271.727 215.059 274.137C215.927 275.857 217.854 277.951 217.411 279.953C216.928 283.772 217.003 287.551 217.02 291.387C216.98 292.63 217.066 293.849 216.278 294.89C214.794 296.829 212.666 298.198 211.13 300.119C209.209 302.397 208.306 304.945 207.161 307.648C206.437 307.936 205.712 308.223 204.987 308.522C204.435 309.385 204.113 310.99 202.876 310.944C201.358 310.875 199.793 310.035 198.286 310.168C197.245 310.398 196.221 310.875 195.232 311.278C195.934 311.49 196.687 311.634 197.354 311.945C198.073 312.52 197.999 313.791 197.981 314.625C197.377 314.085 196.779 313.544 196.146 313.032C194.432 311.513 192.989 310.766 190.653 310.599C194.576 309.719 198.142 308.252 201.45 305.946C206.839 302.897 210.958 297.375 213.189 291.669C214.679 288.005 215.611 284.295 215.018 280.315C214.547 278.267 213.345 276.438 211.458 275.455C209.41 275.167 207.161 275.121 205.119 275.455C203.492 275.978 202.008 277.146 200.495 277.951C196.963 279.838 193.046 281.258 189.06 281.742C184.269 282.058 179.5 281.834 174.922 280.281C176.044 279.199 177.217 278.29 178.707 277.761C181.088 278.181 183.015 278.187 185.385 277.698C186.512 278.204 187.726 278.906 188.962 279.032C189.888 278.917 190.74 278.095 191.568 277.669C193.897 276.778 196.273 276.599 198.528 275.42C200.759 274.281 202.41 272.257 204.677 271.382C206.442 270.692 208.323 270.261 210.147 269.737C210.141 269.11 210.135 268.489 210.129 267.862C208.329 267.563 206.339 267.132 204.533 267.517C202.83 267.897 201.168 268.765 199.546 269.427C196.854 270.554 193.828 271.21 190.993 271.963C190.768 271.313 190.515 270.675 190.262 270.036C185.759 270.019 181.284 270.312 176.78 270.088C176.768 269.726 176.763 269.358 176.751 268.995C183.187 269.507 190.199 268.501 196.267 266.298C199.017 265.159 202.52 263.059 202.082 259.591C202.41 256.353 199.649 253.776 197.584 251.642C196.572 250.451 195.629 249.209 194.553 248.07C195.594 248.041 196.635 248.03 197.682 248.03C197.751 247.661 197.826 247.288 197.895 246.919Z" fill="#F7DEBD"/>
<path d="M250.748 251.252C251.456 251.902 252.042 252.713 252.646 253.461C252.209 257.619 252.888 261.669 252.393 265.827C252.134 268.439 251.381 270.883 250.691 273.397C249.115 271.976 247.487 270.665 245.554 269.756C246.095 263.929 247.067 257.855 246.423 252.017C247.872 251.252 249.086 250.51 250.748 251.252Z" fill="#0AF98E"/>
<path d="M165.327 254.133C166.219 254.438 167.438 254.604 167.473 255.789C167.605 258.481 167.306 261.144 167.732 263.836C168.019 263.813 168.313 263.79 168.606 263.767C169.36 264.762 170.038 265.901 170.959 266.753C172.615 268.047 174.732 268.587 176.751 268.996C176.762 269.358 176.768 269.726 176.78 270.089C181.283 270.313 185.758 270.02 190.262 270.037C190.515 270.675 190.768 271.314 190.993 271.964C191.2 273.862 191.332 275.772 191.568 277.67C190.739 278.095 189.888 278.918 188.962 279.033C187.725 278.906 186.512 278.205 185.384 277.698C185.287 275.973 185.16 274.242 184.965 272.522C181.899 272.263 178.862 272.096 175.784 272.039C171.816 271.998 168.79 269.807 164.867 269.479C161.641 269.094 158.437 269.951 156.205 272.418C159.115 273.183 161.364 271.279 164.252 272.395C169.227 274.103 173.34 276.979 178.706 277.762C177.217 278.291 176.043 279.2 174.922 280.281C171.66 279.292 168.238 277.744 164.867 277.244C160.352 277.014 156.193 276.853 152.075 279.033C149.331 280.408 147.33 282.979 146.795 286.004C146.64 288.213 146.559 290.531 146.956 292.717C148.187 297.514 149.993 301.954 153.72 305.365C158.132 309.374 163.625 311.244 169.446 312.02C176.567 312.774 183.682 312.181 190.653 310.599C192.988 310.766 194.432 311.514 196.146 313.033C194.076 313.798 192.229 314.678 190.009 314.965C187.973 315.212 185.914 315.282 183.866 315.46C183.67 316.023 183.463 316.587 183.256 317.145C185.35 319.141 188.278 321.58 191.326 321.488C192.695 321.522 193.5 320.412 194.334 319.498C195.6 317.91 196.779 316.254 197.981 314.626C197.998 313.792 198.073 312.521 197.354 311.945C196.687 311.635 195.933 311.491 195.232 311.278C196.221 310.876 197.245 310.398 198.286 310.168C199.793 310.036 201.358 310.876 202.876 310.945C204.113 310.991 204.435 309.386 204.987 308.523C205.712 308.224 206.436 307.936 207.161 307.649C208.306 304.945 209.209 302.397 211.13 300.119C212.666 298.198 214.794 296.829 216.278 294.891C217.066 293.85 216.98 292.63 217.02 291.388C217.003 287.551 216.928 283.772 217.411 279.953C217.854 277.952 215.927 275.858 215.059 274.138C217.354 271.728 219.666 269.341 222.185 267.161C223.617 268.375 225.09 269.508 226.631 270.578C227.034 273.183 228.035 275.507 228.892 277.969C230.353 286.545 229.53 294.264 230.376 303.013C230.06 302.823 229.737 302.627 229.415 302.432C229.829 305.544 228.8 308.454 229.007 311.572C227.069 317.559 223.456 323.167 219.442 327.976C213.022 335.154 204.734 340.722 195.64 343.892C194.11 343.984 192.574 344.03 191.044 344.122C191.246 343.719 191.441 343.322 191.637 342.919C189.06 342.781 186.788 342.954 184.263 343.495C178.839 344.254 173.144 343.828 167.743 343.012C163.642 342.442 159.627 340.929 155.831 339.29C152.386 337.674 148.871 335.649 146.162 332.946C144.73 331.513 143.16 330.167 141.888 328.591C140.686 327.355 141.607 325.485 141.762 323.99C138.88 321.384 135.285 319.975 132.398 317.387C130.977 316.202 129.919 314.747 128.883 313.234C129.482 312.492 130.086 311.75 130.689 311.008C128.849 309.725 127.118 308.5 126.03 306.475C124.403 303.467 122.723 300.718 121.86 297.502C122.654 297.054 123.454 296.628 124.242 296.185C122.159 291.946 119.772 288.155 119.191 283.347C119.571 279.568 120.514 276.071 120.647 272.269C120.831 268.812 120.411 265.343 120.635 261.898C120.71 260.345 121.452 259.189 122.171 257.872C125.34 259.171 128.515 260.264 131.966 260.46C136.821 260.742 142.331 260.667 147.071 261.967C149.124 262.531 151.609 263.75 153.697 262.835C156.654 261.49 157.821 258.74 160.03 256.825C162.032 255.991 163.861 255.973 165.327 254.133Z" fill="#FDDDB8"/>
<path d="M204.532 267.52C206.338 267.134 208.328 267.566 210.129 267.865C210.135 268.492 210.14 269.113 210.146 269.74C208.323 270.263 206.442 270.695 204.676 271.385C202.41 272.259 200.759 274.284 198.527 275.423C196.272 276.602 193.897 276.78 191.567 277.672C191.332 275.774 191.199 273.864 190.992 271.966C193.828 271.212 196.853 270.557 199.545 269.429C201.167 268.768 202.83 267.899 204.532 267.52Z" fill="#B08A67"/>
<path d="M164.867 269.479C168.79 269.807 171.816 271.998 175.785 272.039C178.862 272.096 181.899 272.263 184.965 272.522C185.16 274.242 185.287 275.973 185.385 277.698C183.015 278.187 181.088 278.182 178.707 277.762C173.34 276.979 169.227 274.103 164.252 272.395C161.365 271.279 159.116 273.183 156.205 272.418C158.437 269.951 161.641 269.094 164.867 269.479Z" fill="#B08763"/>
<path d="M250.691 273.395C249.696 277.197 249.592 281.022 248.16 284.738C246.808 288.891 244.582 292.532 242.673 296.431C242.287 290.472 241.707 284.278 243.662 278.514C244.617 275.661 245.181 272.733 245.555 269.754C247.487 270.663 249.115 271.974 250.691 273.395Z" fill="#10FB76"/>
<path d="M205.12 275.456C207.162 275.122 209.411 275.168 211.459 275.456C213.345 276.44 214.547 278.269 215.019 280.316C215.612 284.297 214.68 288.007 213.19 291.671C210.958 297.377 206.84 302.898 201.45 305.947C199.754 306.131 198.35 306.476 196.878 307.345C197.378 305.717 198.137 304.451 196.998 302.864C196.095 301.259 194.542 301.771 192.989 301.524C191.586 301.236 190.2 300.885 188.819 300.506C188.911 300.183 189.003 299.861 189.095 299.533C184.994 299.309 181.083 298.257 176.947 298.435C170.108 298.36 163.407 298.469 156.781 300.402C156.488 301.363 156.183 302.323 155.832 303.266C155.17 303.997 154.434 304.681 153.721 305.366C149.994 301.955 148.188 297.515 146.957 292.717C146.56 290.532 146.64 288.214 146.796 286.005C147.331 282.979 149.332 280.408 152.076 279.034C156.194 276.854 160.353 277.015 164.868 277.245C168.239 277.745 171.661 279.292 174.923 280.282C179.501 281.835 184.269 282.059 189.061 281.743C193.047 281.26 196.964 279.839 200.496 277.952C202.008 277.147 203.492 275.979 205.12 275.456Z" fill="#090302"/>
<path d="M208.489 278.137C208.288 280.035 208.725 282.796 207.489 284.383C206.148 285.752 204.135 286.569 202.415 287.363C196.468 290.083 189.75 291.314 183.279 291.97C175.255 292.448 167.122 292.338 159.092 291.976C156.095 291.901 154.048 289.951 153.156 287.208C152.926 285.626 152.983 283.992 152.932 282.399C154.358 281.755 155.877 281.047 157.407 280.702C159.311 280.478 161.255 280.495 163.17 280.547C165.931 280.547 168.594 281.703 171.165 282.646C173.454 283.544 175.79 284.107 178.183 284.642C181.651 285.528 185.487 285.258 189.054 285.2C193.903 284.585 198.74 283.015 202.881 280.386C204.687 279.328 206.321 278.246 208.489 278.137Z" fill="#F9FBF9"/>
<path d="M117.817 282.633C118.283 282.857 118.738 283.093 119.192 283.346C119.773 288.155 122.16 291.945 124.242 296.184C123.454 296.627 122.655 297.053 121.861 297.502C122.724 300.717 124.403 303.466 126.031 306.475C127.118 308.499 128.849 309.724 130.69 311.007C130.086 311.749 129.482 312.491 128.884 313.233C129.919 314.746 130.978 316.201 132.398 317.386C135.286 319.974 138.881 321.384 141.762 323.989C141.607 325.485 140.687 327.354 141.889 328.591C143.16 330.167 144.73 331.513 146.163 332.945C148.872 335.648 152.386 337.673 155.832 339.289C159.628 340.929 163.643 342.441 167.744 343.011C173.145 343.828 178.839 344.253 184.263 343.494C185.345 343.626 186.415 343.805 187.49 343.983C185.27 345.283 183.038 345.196 180.553 345.611C174.514 346.577 168.612 346.002 162.567 345.484C159.542 345.191 156.643 344.495 153.709 343.718C148.947 342.487 144.305 339.847 139.887 337.69C136.678 336.2 134.348 333.675 131.628 331.392C128.717 328.913 126.129 326.135 123.655 323.224C119.836 319.163 117.328 313.567 114.728 308.62C112.945 305.313 111.881 301.815 110.794 298.238C110.15 298.508 109.517 298.796 108.873 299.078C110.909 296.627 112.836 294.142 114.372 291.335C116.259 288.5 117.259 286.003 117.817 282.633Z" fill="#B48864"/>
<path d="M110.793 298.238C111.88 301.816 112.944 305.313 114.727 308.621C117.327 313.567 119.835 319.164 123.654 323.225C126.127 326.135 128.716 328.913 131.626 331.392C134.347 333.676 136.676 336.201 139.886 337.691C144.303 339.848 148.945 342.488 153.708 343.719C156.641 344.495 159.54 345.191 162.566 345.485C168.611 346.002 174.512 346.577 180.552 345.611C183.037 345.197 185.269 345.283 187.489 343.983C186.413 343.805 185.343 343.627 184.262 343.494C186.787 342.954 189.059 342.781 191.636 342.919C191.44 343.322 191.245 343.719 191.043 344.121C192.574 344.029 194.109 343.983 195.639 343.891C191.578 345.536 187.31 346.727 182.997 347.498C180.592 347.969 178.268 348.55 175.795 348.545C170.831 348.665 165.833 348.734 160.875 348.418C156.457 347.797 151.999 346.802 147.898 345.024C144.298 343.506 140.824 342.016 137.516 339.899C124.678 331.542 114.785 318.928 109.665 304.491C109.182 302.759 107.819 300.786 108.872 299.078C109.516 298.796 110.149 298.509 110.793 298.238Z" fill="#F6DCC4"/>
<path d="M73.4453 298.957C74.0953 299.153 74.7395 299.354 75.3837 299.561C77.1956 301.453 78.7773 302.391 81.3715 302.937C83.143 303.501 85.7487 303.754 86.9105 305.324C88.383 307.131 89.637 309.103 91.1497 310.881C93.4045 313.964 96.0561 316.65 98.7422 319.348C97.0914 318.318 95.3889 317.426 93.8243 316.259C91.3108 314.424 89.4874 312.117 87.0889 310.11C86.6632 311.151 85.904 312.273 86.4159 313.417C87.1694 315.638 88.6591 317.018 88.0494 319.532C86.9968 318.508 85.9155 317.582 84.9549 316.472C80.5662 311.007 76.6606 305.192 73.4453 298.957Z" fill="#E59055"/>
<path d="M79.2788 298.68C81.3035 299.727 83.1556 300.773 85.4794 301.055C87.9354 301.337 90.4548 301.28 92.9166 301.044C89.7761 301.953 86.1754 301.579 82.9198 301.464C83.1268 301.953 83.3339 302.441 83.5352 302.93C82.8105 302.942 82.0915 302.942 81.3725 302.936C78.7784 302.39 77.1966 301.452 75.3848 299.56C76.6847 299.261 77.9616 298.916 79.2788 298.68Z" fill="#220203"/>
<path d="M176.945 298.434C181.081 298.256 184.992 299.309 189.093 299.533C189.001 299.861 188.909 300.183 188.817 300.505C190.198 300.885 191.584 301.235 192.987 301.523C194.201 302.346 195.363 303.22 196.536 304.094C195.662 305.262 194.88 306.09 193.402 306.447C189.41 307.494 185.125 308.937 180.989 308.851C175.335 308.851 169.065 309.202 163.555 307.816C160.639 306.901 157.814 305.682 155.83 303.266C156.181 302.323 156.486 301.362 156.779 300.401C163.405 298.469 170.106 298.36 176.945 298.434Z" fill="#961F29"/>
<path d="M240.475 299.348C241.562 299.382 242.655 299.451 243.742 299.509C242.523 301.579 241.528 303.742 240.452 305.882L239.48 306.256C239.796 303.949 240.107 301.643 240.475 299.348Z" fill="#86D3A5"/>
<path d="M165.988 300.087C169.25 299.845 172.522 299.747 175.795 299.678C180.759 299.477 185.982 300.984 190.825 302.117C192.729 302.554 193.58 303.239 194.713 304.763C189.514 306.805 184.193 307.07 178.671 307.024C173.73 306.955 168.266 307.334 163.452 306.23C160.84 305.568 158.965 304.297 157.418 302.1C160.254 301.191 162.986 300.305 165.988 300.087Z" fill="#F2163A"/>
<path d="M192.989 301.523C194.542 301.771 196.095 301.259 196.998 302.864C198.137 304.451 197.378 305.717 196.877 307.344C198.35 306.476 199.753 306.131 201.45 305.947C198.143 308.253 194.577 309.72 190.654 310.6C183.682 312.182 176.567 312.774 169.446 312.021C163.626 311.244 158.132 309.375 153.721 305.366C154.434 304.681 155.17 303.997 155.832 303.266C157.816 305.682 160.64 306.902 163.556 307.816C169.067 309.202 175.336 308.851 180.991 308.851C185.126 308.938 189.411 307.494 193.403 306.447C194.881 306.09 195.664 305.262 196.538 304.095C195.365 303.22 194.203 302.346 192.989 301.523Z" fill="#1A0401"/>
<path d="M87.0902 310.109C89.4888 312.117 91.3121 314.423 93.8257 316.258C95.3902 317.426 97.0928 318.317 98.7436 319.347C99.3475 319.962 99.94 320.601 100.521 321.239C100.13 321.239 99.7329 321.239 99.336 321.245C100.17 322.85 101.073 324.415 101.763 326.088C100.383 327.101 98.9967 328.107 97.6105 329.108C93.8832 326.267 90.9267 323.23 88.0508 319.531C88.6605 317.018 87.1707 315.637 86.4172 313.417C85.9053 312.272 86.6646 311.15 87.0902 310.109Z" fill="#F2B23C"/>
<path d="M91.1504 310.883C94.7799 313.966 97.8341 317.624 101.464 320.713C105.007 324.072 109.091 326.54 113.146 329.197C116.24 331.227 118.161 334.006 120.451 336.818C117.391 334.54 115.585 331.354 112.266 329.427C108.228 326.988 104.506 324.4 100.814 321.461L100.52 321.242C99.9393 320.604 99.3469 319.965 98.7429 319.35C96.0568 316.652 93.4051 313.966 91.1504 310.883Z" fill="#735A20"/>
<path d="M196.146 313.031C196.779 313.543 197.377 314.084 197.981 314.625C196.779 316.252 195.599 317.909 194.334 319.496C193.5 320.411 192.695 321.521 191.326 321.487C188.277 321.579 185.35 319.14 183.256 317.144C183.463 316.586 183.67 316.022 183.866 315.459C185.913 315.28 187.972 315.211 190.009 314.964C192.229 314.676 194.075 313.796 196.146 313.031Z" fill="#AF8560"/>
<path d="M209.135 318.577C208.715 324.081 204.677 329.315 200.173 332.283C195.06 335.395 188.721 337.092 182.739 336.235C177.798 335.251 172.961 332.899 169.861 328.821C169.383 327.228 169.297 325.237 171.086 324.449C172.127 324.116 173.691 323.903 174.595 324.668C176.763 326.227 178.707 327.912 181.221 328.93C184.476 330.403 187.876 330.218 191.361 330.029C197.297 329.195 202.014 325.72 205.666 321.119C206.846 319.825 207.007 318.278 209.135 318.577Z" fill="#110502"/>
<path d="M99.3349 321.248C99.7318 321.242 100.129 321.242 100.52 321.242L100.813 321.461C104.506 324.4 108.227 326.988 112.265 329.427C115.584 331.354 117.39 334.541 120.45 336.818C122.003 338.412 123.608 339.942 125.316 341.362C124.833 341.8 124.327 342.231 123.792 342.605C122.291 342.634 120.709 341.823 119.363 341.224C115.791 339.441 112.179 338.044 109.027 335.518C107.152 334.023 105.582 333.488 103.2 333.212C101.279 331.941 99.427 330.537 97.6094 329.111C98.9956 328.11 100.382 327.103 101.762 326.091C101.072 324.417 100.169 322.853 99.3349 321.248Z" fill="#F6DB37"/>
<path d="M103.201 333.211C105.582 333.487 107.153 334.022 109.028 335.517C112.18 338.043 115.792 339.44 119.364 341.223C120.71 341.822 122.292 342.633 123.793 342.604C124.328 342.23 124.834 341.799 125.317 341.361C127.543 343.455 130.805 344.772 132.49 347.303C129.643 346.929 127.187 345.808 124.552 344.755C117.132 341.799 109.465 338.244 103.201 333.211Z" fill="#D9E979"/>
</svg>
