<svg width="500" height="500" viewBox="0 0 500 500" fill="none" xmlns="http://www.w3.org/2000/svg">
<g clip-path="url(#clip0_29_563)">
<path d="M457.353 260.309L457.351 260.311L455.046 260.313C454.478 260.313 453.947 260.484 453.434 261.008C452.797 261.658 452.701 262.492 452.854 263.308C454.724 273.282 455.687 283.018 456.001 292.201H427.075C426.422 292.201 425.881 292.432 425.448 292.86C424.993 293.31 424.713 293.884 424.713 294.824L424.716 303.126C424.716 304.778 425.854 305.701 427.226 305.701H455.992C455.777 312.045 455.281 318.008 454.604 323.343C454.086 327.428 453.471 331.256 452.819 334.738C452.695 335.734 452.958 336.361 453.44 336.895C454.014 337.471 454.685 337.608 455.475 337.608L458.344 337.604L462.808 337.608C463.946 337.608 464.788 337.084 465.293 336.566C466.037 335.802 466.165 334.984 466.246 334.513C466.829 331.108 467.388 327.381 467.853 323.412C468.482 318.056 468.941 312.07 469.14 305.701H497.487C498.859 305.701 499.996 304.778 499.997 303.126L500 294.824C500 293.884 499.719 293.31 499.265 292.86C498.832 292.432 498.291 292.201 497.638 292.201H469.146C468.972 286.713 468.586 281.031 467.927 275.212C467.483 271.292 466.92 267.314 466.225 263.3C466.083 262.484 465.801 261.671 464.962 261.018C464.407 260.586 463.635 260.313 463.114 260.313L459.221 260.31C459.215 260.31 459.21 260.309 459.204 260.309L458.428 260.31L457.353 260.309Z" fill="white"/>
<path d="M266.123 113C247.35 113 228.992 115.304 211.292 119.744C196.479 123.46 182.309 128.674 168.891 135.276C163.924 137.721 159.243 140.276 154.795 142.919C146.128 148.069 138.234 153.564 130.836 159.544C125.108 164.175 119.931 168.874 115.458 173.307C112.473 176.265 109.718 179.142 106.825 182.376C106.563 182.67 106.316 182.941 106.06 183.228C105.605 183.737 105.059 184.522 105.329 185.601C105.415 185.948 105.607 186.265 105.877 186.522C106.374 186.959 106.952 187.063 107.473 187.023C108.09 186.976 108.786 186.611 109.176 186.318C109.437 186.122 109.688 185.894 109.928 185.648C110.816 184.738 111.63 183.84 112.488 182.952C114.025 181.359 115.594 179.793 117.211 178.228C123.318 172.313 130.948 165.86 139.271 159.954C143.777 156.757 148.512 153.655 153.663 150.629C157.891 148.146 165.861 143.685 175.927 139.353C184.846 135.514 193.504 132.536 201.639 130.227C207.515 128.559 213.591 127.103 219.727 125.925C225.171 124.88 230.681 124.04 236.222 123.395C244.734 122.403 253.227 121.937 261.723 121.937C281.429 121.937 301.553 124.59 320.884 130C327.869 131.955 334.672 134.239 341.305 136.855C349.91 140.248 357.829 143.976 366.284 148.716C381.862 157.449 395.745 168.063 408.249 180.683C414.324 186.815 419.579 192.992 424.115 199.029C429.778 206.564 434.33 213.878 437.953 220.554C440.268 224.819 442.204 228.828 443.776 232.341C447.093 239.749 449.068 245.803 449.068 245.803C449.277 246.376 449.433 246.617 449.68 246.991C450.283 247.796 451.246 248.265 452.227 248.265L460.281 248.262C460.89 248.262 461.165 248.139 461.495 247.947C461.798 247.772 462.219 247.368 462.406 246.932C462.627 246.42 462.685 245.734 462.485 245.107C459.587 236.445 455.629 227.35 450.942 218.607C443.638 204.985 432.56 188.32 416.411 172.467C402.151 158.466 387.777 148.609 375.774 141.723C360.855 133.165 345.026 126.499 328.243 121.692C308.024 115.902 287.032 113 266.123 113Z" fill="white"/>
<path d="M229.163 298.048C229.443 298.086 229.507 298.099 229.774 298.124C232.882 298.55 235.3 298.986 237.477 299.542C239.991 300.184 242.125 300.97 243.688 301.839C244.87 302.496 245.802 303.199 246.57 303.973C247.009 304.416 247.407 304.91 247.764 305.422C248.304 306.195 249.058 307.593 249.441 308.47C249.761 309.204 249.958 309.767 250.028 309.978C250.407 311.111 250.674 312.298 250.831 313.509C251.094 315.543 251.071 317.452 250.782 319.263C250.485 321.125 249.848 323.865 247.695 326.744C245.861 329.197 243.3 331.157 240.291 332.601C236.667 334.356 232.84 335.226 229.011 335.666C221.851 336.455 214.033 335.032 207.63 331.851C205.586 330.823 203.804 329.764 202.205 328.574C200.647 327.414 199.167 326.092 198.065 324.582C196.324 322.197 195.666 320.09 195.679 317.983C195.692 315.987 196.328 314.171 197.293 312.813C198.395 311.151 200.177 309.952 202.201 309.113C205.616 307.696 209.822 307.301 213.216 307.421C217.336 307.573 224.738 308.858 228.655 310.244C229.736 310.638 233.729 312.19 234.428 312.902C234.924 313.398 235.242 314.123 235.026 314.784C234.123 317.531 227.485 318.968 225.577 319.248C220.439 320.036 217.733 318.091 211.896 315.789C210.446 315.229 208.513 314.593 207.037 314.453C205.563 314.319 203.914 314.488 202.656 315.165C201.373 315.855 200.692 317.003 200.712 318.243C200.731 319.408 201.649 320.47 203.563 321.308C204.419 321.677 205.232 321.981 206.023 322.229C208.124 322.887 210.077 323.156 212.313 323.184C216.694 323.257 221.334 322.942 225.8 322.013C230.616 321.012 235.229 319.29 239.096 316.552C240.1 315.827 241.105 314.771 241.118 313.423C241.156 310.715 236.4 309.061 236.4 309.061C232.209 307.306 225.17 306.401 220.079 305.85C219.082 305.743 218.16 305.634 217.349 305.549C216.445 305.471 215.382 305.378 214.359 305.287C213.572 305.218 212.856 305.167 211.966 305.1C211.151 305.039 210.093 304.958 209.3 304.887C207.542 304.731 205.969 304.579 204.743 304.449C204.123 304.383 202.498 304.196 200.845 303.905C199.681 303.701 198.511 303.475 197.393 303.029C196.352 302.613 195.293 301.937 194.453 301.043C193.714 300.256 193.149 299.326 192.969 298.391C192.105 294.983 193.211 290.772 195.106 288.037C200.091 280.89 211.74 278.183 220.439 277.115C228.858 276.059 242.479 276.072 250.758 280.472C252.03 281.146 252.691 281.795 252.424 283.156C251.877 285.725 249.957 287.378 247.617 288.103C245.175 288.879 240.1 289.179 237.875 289.319C227.904 289.878 215.835 289.578 206.335 292.172C205.598 292.389 204.313 292.732 203.894 293.203C203.097 294.067 203.913 294.603 204.991 294.944C205.783 295.195 206.8 295.365 208.167 295.568L229.163 298.048Z" fill="white"/>
<path d="M302.705 325.06C300.848 329.422 295.938 334.089 289.858 331.19C283.841 328.29 274.263 308.692 274.263 308.692C274.263 308.692 270.625 301.38 269.939 301.571C269.939 301.571 269.15 300.146 268.667 308.133C268.17 316.081 268.768 331.584 265.588 334.026C262.586 336.467 258.948 335.501 257.053 332.639C255.349 329.816 254.636 323.127 255.565 311.376C256.672 299.599 259.406 287.073 262.904 283.168C266.39 279.302 269.188 282.113 270.282 283.13C270.282 283.13 274.95 287.365 282.658 299.79L284.007 302.092C284.007 302.092 291.003 313.83 291.741 313.805C291.741 313.805 292.313 314.339 292.822 313.945C293.559 313.741 293.254 309.977 293.254 309.977C293.254 309.977 291.804 297.183 285.431 275.525C285.431 275.525 284.465 272.829 285.113 270.298C285.762 267.742 288.319 268.937 288.319 268.937C288.319 268.937 298.215 273.91 303.023 290.023C307.793 306.136 304.588 320.672 302.705 325.06Z" fill="white"/>
<path d="M357.839 289.78C350.844 291.396 332.442 292.286 332.442 292.286L330.115 299.562C330.115 299.562 339.31 298.773 346.012 299.473C346.012 299.473 348.174 299.219 348.428 301.941C348.517 304.472 348.212 307.181 348.212 307.181C348.212 307.181 348.072 308.822 345.745 309.242C343.227 309.675 325.918 310.336 325.918 310.336L323.12 319.813C323.12 319.813 322.077 322.013 324.417 321.377C326.579 320.805 344.715 317.396 347.067 317.892C349.611 318.515 352.409 321.886 351.595 324.964C350.628 328.78 332.531 340.317 321.518 339.516C321.518 339.516 315.719 339.885 310.822 332.075C306.269 324.621 312.552 310.514 312.552 310.514C312.552 310.514 309.678 303.938 311.763 301.699C311.763 301.699 313.01 300.58 316.634 300.325L321.06 291.141C321.06 291.141 316.011 291.485 313.01 287.771C310.199 284.247 309.97 282.632 312.12 281.652C314.409 280.52 335.456 276.679 349.929 277.162C349.929 277.162 354.965 276.666 359.327 285.405C359.327 285.405 361.438 288.928 357.839 289.78Z" fill="white"/>
<path d="M405.425 294.722C405.425 294.722 405.357 294.186 405.095 293.648C404.542 292.514 403.128 291.373 399.677 295.256C395.315 300.076 387.43 309.131 381.084 321.429C387.748 320.679 394.17 317.067 396.103 315.223C397.964 313.572 401.286 310.252 403.455 305.73C404.651 303.235 405.505 300.375 405.559 297.228C405.573 296.411 405.525 295.576 405.425 294.722ZM408.922 315.428C404.42 323.287 391.703 339.729 374.814 335.851C372.737 340.879 370.786 345.932 369.015 351.35C366.026 360.497 363.538 370.682 361.853 383.541C361.853 383.541 361.268 387.522 357.961 386.136C355.365 385.23 351.438 381.624 349.377 376.427C348.834 375.058 348.435 373.624 348.209 372.053C347.916 369.597 347.954 366.674 348.336 363.444C349.022 357.642 350.77 350.699 353.485 343.001C355.354 337.703 357.683 332.047 360.443 326.16C357.823 321.887 356.03 315.782 357.556 307.096C357.556 307.096 358.297 301.791 361.986 294.521C364.732 289.112 369.113 282.616 376.025 276.409C376.025 276.409 377.97 274.727 379.09 275.248C380.336 275.77 379.774 281.013 378.782 283.569C377.764 286.112 370.541 298.614 370.541 298.614C370.541 298.614 366.039 307.045 367.311 313.697C371.265 307.626 377.545 298.682 384.347 291.682C390.217 285.642 396.475 281.044 401.941 280.994C405.121 280.965 408.274 282.507 410.42 286.456C412.165 289.666 412.992 293.976 412.992 298.474C412.992 304.4 411.568 310.722 408.922 315.428Z" fill="white"/>
<path d="M174.573 267.307C174.573 267.307 173.285 269.627 172.981 270.057C172.838 270.289 172.369 270.933 171.793 271.426C171.346 271.807 170.866 272.075 170.228 272.134C169.57 272.194 168.901 271.95 168.186 271.354C166.469 269.828 165.487 267.499 165.411 265.21C165.373 264.206 165.536 263.099 165.345 262.26C165.178 261.511 164.709 260.741 164.191 259.982C163.723 259.297 163.216 258.645 162.854 258C162.532 257.427 162.269 256.852 162.056 256.321C161.378 254.633 161.192 253.143 161.125 251.769C160.819 246.148 163.783 240.93 167.636 236.848C171.528 232.702 176.554 229.297 182.073 226.957C187.3 224.757 194.991 223.256 200.727 225.24C202.596 225.889 205.191 227.479 206.501 229.132C206.781 229.488 207.009 229.857 207.289 230.035C207.544 230.2 208.205 230.264 208.739 230.365C210.57 230.683 213.203 232.07 214.284 232.985C216.433 234.855 217.616 236.635 218.163 239.217C218.678 241.641 218.259 244.39 217.282 246.842C216.247 249.438 214.612 251.815 212.86 253.6C207.022 259.578 201.248 263.787 193.771 266.712C191.386 267.646 188.19 268.413 185.691 268.705C184.374 268.858 183.141 268.905 181.951 268.858C180.638 268.805 179.332 268.632 178.224 268.429C178.224 268.429 175.468 267.868 174.573 267.307ZM186.976 258.188C189.954 257.9 192.55 257.371 194.947 256.612C196.246 256.201 197.548 255.675 198.815 255.065C201.58 253.733 204.402 251.791 206.196 250.165C207.147 249.303 207.97 248.42 208.624 247.548C209.927 245.809 210.7 243.848 210.456 241.786C210.252 240.056 209.121 238.746 207.683 238.136C204.507 236.753 200.921 238.395 198.323 239.897C196.455 240.982 193.627 243.071 190.992 245.316C187.872 247.974 184.9 250.989 183.037 253.398C181.98 254.84 180.901 256.264 179.919 257.758C180.07 258.174 183.544 258.368 185.464 258.24M169.812 253.518C170.828 251.911 172.012 250.339 173.148 248.857C174.408 247.215 176.592 244.742 177.447 243.836C179.35 241.821 181.376 239.856 183.117 238.365C184.159 237.487 185.341 236.483 185.341 236.483C185.341 236.483 184.507 236.499 183.426 236.715C182.902 236.816 181.982 237.059 181.233 237.334C180.32 237.67 179.57 237.983 178.908 238.318C176.844 239.361 175.05 240.772 174.211 241.492C172.654 242.831 171.006 244.587 169.961 246.49C169.352 247.598 168.934 248.77 168.86 249.924C168.809 250.72 168.927 251.515 169.239 252.29C169.468 252.837 169.812 253.518 169.812 253.518Z" fill="white"/>
<path d="M181.243 278.844C181.472 278.883 181.815 278.984 182.12 279.099C184.74 280.091 185.821 282.52 186.47 285.19C187.958 291.371 188.594 305.055 188.848 310.409C189.026 314.428 189.128 318.383 189.293 322.364C189.433 325.721 189.713 330.198 189.013 333.352C188.759 334.484 187.996 335.806 186.902 336.48C185.669 337.281 182.833 337.345 181.268 337.014C177.44 336.226 176.194 333.759 175.647 329.969C174.337 320.914 174.973 303.135 175.736 295.644C175.99 293.164 176.919 285.229 178.216 281.909C178.661 280.777 179.602 278.526 181.243 278.844Z" fill="white"/>
<path d="M40.4183 213.561C37.3641 213.517 31.8469 213.551 25.5042 214.349C21.1447 214.898 16.6173 215.743 12.4565 216.895C10.1526 217.518 8.2312 218.28 6.56345 219.37C4.65939 220.614 3.09573 222.274 1.84153 224.478C0.671523 226.538 -0.429778 228.806 0.167945 231.095C0.676645 233.029 3.30201 233.665 5.67351 234.065C7.81006 234.396 12.6551 234.648 13.9396 233.084C14.3016 232.707 14.4648 231.64 13.9774 230.934C13.4941 230.082 12.2739 229.469 11.1039 229.253C10.1164 229.072 8.45765 228.908 7.42259 228.76C6.7096 228.659 6.33852 228.536 6.1474 228.434C6.09184 228.405 6.05149 228.377 6.02237 228.353C5.96909 228.308 5.96276 228.257 5.96276 228.257C5.96276 228.257 5.9811 228.208 6.02475 228.164C6.08067 228.109 6.1626 228.032 6.24538 227.972C7.06739 227.44 9.70935 226.69 10.3803 226.519C13.4023 225.681 18.0514 225.184 21.8489 224.987C25.6012 224.792 29.4081 224.791 32.5201 224.906C45.0936 225.307 57.2819 227.331 69.5083 230.821C76.1345 232.712 82.8961 235.066 90.0555 237.875C100.116 241.864 110.446 247.322 119.977 254.037C128.424 259.988 135.959 266.733 141.801 274.187C145.338 278.744 149.574 285.611 151.689 292.279C152.408 294.546 153.021 297.144 153.087 300.21C153.15 303.181 152.698 306.601 151.416 309.966C149.005 316.295 143.918 322.202 135.536 326.582C132.438 328.201 128.887 329.622 124.858 330.768C120.511 332.005 116.03 332.799 111.57 333.281C106.308 333.851 101.053 333.972 95.7066 333.831C94.9559 333.811 93.3721 333.717 91.5734 333.554C86.9916 333.138 82.8238 332.423 80.4302 331.972L79.605 293.261C85.6066 293.352 92.2057 294.058 98.4315 295.144C101.908 295.75 107.775 296.925 115.014 299.261C116.466 299.752 118.197 300.805 118.337 302.344C118.393 302.996 118.16 303.566 117.748 304.119C116.66 305.58 114.872 306.672 113.362 307.405C112.452 307.847 111.66 308.178 111.298 308.586C110.904 309.12 110.873 309.884 111.42 310.317C112.169 310.908 113.34 311.326 114.529 311.597C120.53 312.965 124.53 310.273 126.855 307.717C129.372 304.95 130.091 302.804 130.329 300.557C130.736 296.703 128.976 293.683 128.087 292.432C125.878 289.324 122.485 287.234 119.749 285.925C113.548 282.958 106.471 281.43 102.879 280.791C98.3076 279.978 92.4908 279.32 85.7708 279.184C82.6436 279.122 79.4982 279.273 79.4982 279.273C79.4982 279.273 79.3708 274.021 79.1419 270.537C78.7603 264.801 77.1713 253.546 71.9571 250.303C71.0033 249.718 69.8328 249.655 69.1715 250.545C68.1541 251.868 67.1621 256.904 66.9332 258.201C66.7154 259.437 66.4895 260.993 66.2759 262.647C65.9403 265.244 65.6563 268.141 65.4669 270.487C65.3609 271.792 65.0705 276.051 65.0143 280.551C64.9508 280.615 64.8605 280.715 64.7715 280.778C64.7715 280.778 62.4262 281.132 59.4298 281.728C49.5742 283.689 42.7308 286.415 40.0489 287.592C35.2544 289.69 28.3762 293.398 26.2881 298.261C25.8042 299.465 25.6008 300.219 25.5435 301.446C25.417 304.158 26.415 306.545 27.2674 308.063C29.5288 312.332 34.0577 316.937 37.8647 320.37C40.6118 322.848 44.6133 325.931 47.8326 328.13C50.4557 329.922 52.4365 331.186 54.2688 332.264C56.4053 333.522 58.4979 334.64 60.632 335.656C61.7874 336.206 63.2091 336.9 64.5172 337.521C64.5172 337.521 64.7119 339.355 64.9668 341.455C65.2258 343.705 65.4534 345.986 66.3491 348.089C66.6914 348.854 67.0871 349.535 67.627 350.14C69.1277 351.819 70.8171 352.17 71.5223 352.298C72.9557 352.557 74.3203 352.416 75.7589 352.145C76.3553 352.034 76.9669 351.825 77.4395 351.579C78.2319 351.168 78.8454 350.549 79.2676 349.665C79.9033 348.394 80.132 346.366 80.1495 346.106C80.2283 344.941 80.1731 343.631 80.1731 343.631C80.1731 343.631 84.7987 344.731 88.029 345.316C93.3274 346.249 98.4143 346.804 104.449 346.897C111.73 347.01 119.498 346.073 127.818 344.066C132.846 342.852 137.63 341.246 142.303 339.077C146.639 337.065 150.514 334.667 153.877 331.891C156.402 329.807 159.035 327.186 161.572 323.582C162.294 322.557 162.932 321.565 163.405 320.747C163.55 320.495 163.953 319.906 164.486 319.005C165.969 316.499 167.809 312.629 168.769 307.698C169.027 306.235 169.213 304.797 169.305 303.358C169.659 297.064 168.381 290.721 165.918 284.934C165.365 283.575 163.393 278.759 159.155 272.656C155.457 267.332 151.156 262.383 146.658 257.893C143.668 254.91 141.399 252.822 137.546 249.589C132.089 245.062 126.884 241.659 125.282 240.603C119.99 237.136 113.865 233.732 108.491 231.134C99.8295 226.948 91.3658 223.738 82.9354 221.128C80.0091 220.222 77.2907 219.452 74.8517 218.804C69.7956 217.459 62.1419 215.611 54.0299 214.57C49.1229 213.941 44.3978 213.618 40.4183 213.561ZM64.5049 293.886C64.5049 293.886 64.3772 299.61 64.3518 305.396C64.3241 311.372 64.3945 317.408 64.4644 321.663C64.5227 325.212 64.5805 327.522 64.5805 327.522C64.5805 327.522 60.4567 326.172 58.324 325.108C54.4079 323.424 50.6801 321.457 47.1226 319.235C42.622 316.424 38.8427 313.556 35.3143 310.389C34.5923 309.741 33.3185 308.513 32.6784 307.865C31.0621 306.263 29.438 304.637 29.8233 302.458C30.1158 300.792 33.6809 299.212 35.0505 298.833C38.3095 297.904 41.6007 297.06 45.086 296.348C48.7905 295.591 52.3746 295.007 54.9497 294.725C58.5014 294.183 64.5049 293.886 64.5049 293.886Z" fill="white"/>
</g>
<defs>
<clipPath id="clip0_29_563">
<rect width="500" height="500" fill="white"/>
</clipPath>
</defs>
</svg>
