<svg width="500" height="500" viewBox="0 0 500 500" fill="none" xmlns="http://www.w3.org/2000/svg">
<path d="M163.05 189C144.425 188.976 132.09 198.757 130.355 213.383C129.95 216.763 129.533 220.141 129.104 223.519H371.439C371.439 223.519 371.894 219.956 372.249 217.096C374.071 202.362 367.788 189.002 344.933 189.002V189.004C344.933 189.004 172.869 189.011 163.05 189ZM15.1563 189.005L10.9031 223.519H120.802L125.039 189.005H15.1545H15.1563V189.005ZM384.063 189.005L379.819 223.519H498.958C498.958 223.519 499.102 222.271 499.63 218.208C502.53 195.553 487.86 189.005 473.696 189.005H384.063ZM378.177 236.66L368.894 311.986L409.997 311.972L419.288 236.675L378.177 236.659V236.66ZM456.264 236.66L446.966 311.986L488.069 311.972L497.36 236.675L456.264 236.659V236.66ZM9.29984 236.671L0 311.99H109.892L113.941 279.315L45.1291 279.308L46.8698 265.218H115.654L119.175 236.673H9.30527L9.29984 236.671ZM127.492 236.671C124.477 256.329 134.353 265.216 148.351 265.216C155.964 265.216 203.951 265.194 203.951 265.194L202.216 279.305L122.243 279.313L118.216 311.987C118.216 311.987 205.282 312.016 208.81 311.987C211.724 311.778 232.091 311.224 239.025 294.627C241.274 289.239 243.262 269.919 243.819 265.864C247.022 242.309 230.652 236.693 217.761 236.693C210.654 236.693 141.526 236.671 127.492 236.671ZM255.423 236.671L246.14 311.99H287.221L293.006 265.218H344.608C359.242 265.218 367.108 257.379 368.568 246.852C369.035 243.465 369.457 240.072 369.834 236.673H255.423V236.671Z" fill="#E52534"/>
</svg>
