<svg width="500" height="500" viewBox="0 0 500 500" fill="none" xmlns="http://www.w3.org/2000/svg">
<path d="M249.894 56C191.363 56 143.674 103.724 143.674 162.324C143.674 221.121 191.351 268.849 249.894 268.849C308.436 268.849 356.314 221.126 356.314 162.324C356.314 103.724 308.436 56 249.894 56ZM322.474 212.592C299.272 215.148 274.157 215.788 249.894 215.788C225.631 215.788 200.515 215.148 177.104 212.592C170.506 211.951 167.1 210.248 166.248 203.218C164.97 189.794 164.97 176.158 164.97 162.312C164.97 148.675 164.97 135.042 166.248 121.619C167.1 114.588 170.509 112.885 177.104 112.245C200.515 109.689 225.631 109.049 249.894 109.049C274.157 109.049 299.272 109.689 322.471 112.245C329.282 112.885 332.688 114.588 333.539 121.619C334.605 135.042 334.605 148.675 334.605 162.312C334.605 176.158 334.605 189.794 333.539 203.218C332.688 210.248 329.282 211.951 322.474 212.592Z" fill="#1D1D1B"/>
<path d="M206.9 162.312C206.9 138.875 225.631 119.277 249.894 119.277C274.157 119.277 292.887 138.875 292.887 162.312C292.887 185.959 274.157 205.574 249.894 205.574C225.631 205.574 206.9 185.959 206.9 162.312Z" fill="#1D1D1B"/>
<path d="M407.546 389.214C396.085 389.214 386.768 379.892 386.768 367.16C386.768 354.43 396.085 345.104 407.546 345.104C419.009 345.104 428.327 354.43 428.327 367.16C428.327 379.892 419.012 389.214 407.546 389.214ZM314.04 389.214C302.934 389.214 293.62 380.429 293.62 367.16C293.62 354.061 302.934 345.104 314.04 345.104C325.145 345.104 334.462 354.07 334.462 367.16C334.462 380.429 325.145 389.214 314.04 389.214ZM219.638 389.214C208.173 389.214 198.856 379.892 198.856 367.16C198.856 354.43 208.173 345.104 219.638 345.104C231.103 345.104 240.416 354.43 240.416 367.16C240.416 379.892 231.103 389.214 219.638 389.214ZM92.0953 389.034C80.8098 389.034 71.3139 380.069 71.3139 366.981C71.3139 353.71 80.8098 344.924 92.0953 344.924C103.381 344.924 112.694 353.71 112.694 366.981C112.694 380.08 103.381 389.034 92.0953 389.034ZM407.546 324.126C384.44 324.126 365.092 342.237 365.092 367.16C365.092 392.085 384.08 410.193 407.546 410.193C430.656 410.193 450 392.085 450 367.16C450 342.237 431.015 324.126 407.546 324.126ZM219.638 324.126C196.529 324.126 177.183 342.237 177.183 367.16C177.183 392.085 196.172 410.193 219.638 410.193C242.745 410.193 262.092 392.085 262.092 367.16C262.092 342.237 243.103 324.126 219.638 324.126ZM117.71 325.56C115.022 325.56 113.412 327.175 113.412 329.865V334.526C108.576 328.606 99.6188 324.126 90.6617 324.126C68.806 324.126 50 342.773 50 367.16C50 391.547 67.7317 408.401 90.123 408.401C94.2794 408.425 98.3965 407.595 102.218 405.959C106.04 404.325 109.486 401.92 112.341 398.895C112.161 415.932 103.21 423.643 87.7977 423.643C79.5589 423.643 71.8557 421.133 62.8985 415.393C60.5702 413.779 57.8828 414.317 56.6288 416.828L51.257 427.409C50.003 429.919 50.3591 432.25 52.867 433.861C63.9729 441.035 77.0511 444.621 88.3365 444.621C117.892 444.621 134.194 428.664 134.194 391.916V329.865C134.194 327.175 132.58 325.56 129.896 325.56H117.71ZM316.547 324.126C307.949 324.126 299.531 327.891 293.977 333.627V295.616C293.977 292.926 292.367 291.312 289.679 291.312H276.422C273.737 291.312 272.124 292.926 272.124 295.616V404.456C272.124 407.147 273.737 408.758 276.422 408.758H288.425C291.112 408.758 292.723 407.147 292.723 404.456V399.796C297.918 405.711 307.59 410.193 317.086 410.193C338.044 410.193 356.138 391.189 356.138 367.16C356.138 342.788 337.877 324.126 316.547 324.126ZM154.074 290.596C148.879 288.264 145.296 290.596 145.296 296.332V403.737C145.296 409.477 148.879 411.807 154.074 409.477L160.882 406.431C165.18 404.459 167.152 401.589 167.152 396.928V303.147C167.152 298.485 165.18 295.616 160.882 293.642L154.074 290.596Z" fill="#1D1D1B"/>
</svg>
