<svg width="500" height="500" viewBox="0 0 500 500" fill="none" xmlns="http://www.w3.org/2000/svg">
<path d="M255.808 450C251.981 449.909 248.155 449.909 244.328 450C239.067 449.717 233.807 449.525 228.546 449.142C214.582 448.092 200.709 445.981 187.129 442.831C140.168 431.926 98.9419 410.026 62.9766 378.17C59.6244 375.202 56.4741 372.142 53.2229 369.083C52.4555 368.417 51.7891 367.457 51.4055 366.498C50.8299 365.155 51.1227 363.721 52.0719 362.671C53.021 361.621 54.5557 361.238 55.8986 361.813C56.7568 362.197 57.6252 362.58 58.3825 363.055C92.7222 384.289 130.212 399.788 169.53 408.966C182.726 412.025 196.024 414.418 209.413 416.135C228.637 418.528 248.054 419.386 267.379 418.72C277.809 418.437 288.138 417.478 298.468 416.135C322.569 413.075 346.388 407.623 369.439 399.97C381.586 395.951 393.45 391.357 405.021 386.005C406.747 385.046 408.847 384.764 410.756 385.238C413.916 386.005 415.824 389.257 415.057 392.407C414.966 392.791 414.774 393.265 414.582 393.649C413.815 395.083 412.765 396.325 411.422 397.284C400.427 405.896 388.563 413.449 376.032 419.76C352.406 431.714 327.153 440.226 301.143 445.103C286.129 447.779 271.014 449.404 255.808 449.98V450Z" fill="#00A8E1"/>
<path d="M420.227 356.745C426.538 356.936 432.757 357.32 438.876 358.946C440.603 359.42 442.228 359.996 443.854 360.763C446.055 361.621 447.489 363.732 447.771 366.024C448.155 368.699 448.246 371.476 448.054 374.253C446.812 390.61 441.744 406.391 433.323 420.446C430.263 425.515 426.527 430.109 422.226 434.128C421.368 434.986 420.318 435.662 419.167 436.036C417.349 436.511 416.198 435.561 416.107 433.744C416.198 432.785 416.39 431.836 416.774 430.876C420.126 421.89 423.377 412.995 425.952 403.716C427.487 398.647 428.537 393.477 429.203 388.217C429.395 386.309 429.486 384.39 429.294 382.482C429.203 379.231 427.093 376.454 423.943 375.495C420.974 374.535 417.915 373.96 414.764 373.768C405.96 373.384 397.166 373.768 388.462 374.919L376.891 376.353C375.649 376.444 374.498 376.353 373.831 375.202C373.165 374.051 373.448 372.91 374.114 371.759C374.882 370.709 375.841 369.75 376.982 369.083C384.06 364.014 391.996 360.955 400.417 358.946C406.919 357.603 413.523 356.936 420.217 356.745H420.227Z" fill="#00A8E1"/>
<path d="M313.936 93.5371C316.46 92.0226 319.085 90.4071 321.812 88.9935C328.879 85.3586 336.755 83.5412 344.732 83.945C350.487 84.2479 355.737 85.8635 359.776 90.1042C363.613 94.042 365.027 98.8885 365.43 104.139C365.531 105.25 365.531 106.36 365.531 107.572V159.874C365.531 164.418 364.926 165.024 360.382 165.024H348.064C347.256 165.024 346.448 165.024 345.64 164.923C344.429 164.822 343.419 163.812 343.217 162.6C343.015 161.49 343.015 160.379 343.015 159.268V112.519C343.116 110.601 342.914 108.784 342.409 106.966C341.602 103.836 338.774 101.615 335.543 101.413C329.586 101.009 323.629 102.221 318.177 104.745C317.369 104.947 316.864 105.754 316.965 106.562V159.672C316.965 160.682 316.965 161.591 316.763 162.6C316.763 164.014 315.652 165.024 314.239 165.024C312.724 165.125 311.21 165.125 309.594 165.125H298.892C295.156 165.125 294.348 164.216 294.348 160.48V112.721C294.348 111.005 294.247 109.187 293.843 107.471C293.136 104.038 290.208 101.615 286.775 101.413C280.717 101.009 274.558 102.221 269.106 104.846C268.298 105.048 267.793 105.956 267.995 106.764V160.581C267.995 164.317 267.187 165.125 263.451 165.125H249.921C246.387 165.125 245.479 164.115 245.479 160.682V90.609C245.479 89.8013 245.58 88.9935 245.782 88.1858C246.185 86.9741 247.397 86.2673 248.609 86.2673H261.23C263.047 86.2673 264.158 87.378 264.764 89.0945C265.269 90.5081 265.572 91.8207 266.076 93.3352C267.086 93.3352 267.692 92.6284 268.399 92.2245C273.952 88.7916 279.808 85.8635 286.371 84.6518C291.42 83.6421 296.468 83.6421 301.517 84.6518C306.262 85.6615 310.503 88.4887 313.229 92.5274C313.431 92.8303 313.633 93.0323 313.835 93.2342C313.734 93.3352 313.835 93.3352 313.936 93.5371Z" fill="#00A8E1"/>
<path d="M164.704 97.3744C165.41 97.1725 166.016 96.7686 166.42 96.1628C168.238 94.3454 170.156 92.6289 172.175 91.0134C177.426 86.9746 183.989 84.9552 190.552 85.46C193.177 85.561 194.086 86.3688 194.288 88.893C194.49 92.326 194.389 95.8599 194.389 99.2929C194.49 100.706 194.389 102.019 194.187 103.433C193.783 105.25 193.076 105.957 191.259 106.159C189.845 106.26 188.532 106.159 187.119 106.058C180.354 105.452 173.791 106.765 167.43 108.885C166.016 109.39 166.016 110.4 166.016 111.51V159.976C166.016 160.884 166.016 161.692 165.915 162.601C165.814 163.913 164.805 164.923 163.492 164.923C162.785 165.024 161.977 165.024 161.271 165.024H148.145C147.438 165.024 146.63 165.024 145.923 164.923C144.611 164.822 143.601 163.711 143.5 162.399C143.399 161.591 143.399 160.783 143.399 159.976V91.3163C143.399 86.6717 143.904 86.1668 148.548 86.1668H158.242C160.867 86.1668 162.078 87.0755 162.785 89.5998C163.492 92.124 164.098 94.6483 164.704 97.3744Z" fill="#00A8E1"/>
<path d="M204.082 125.444V89.5995C204.183 87.1762 205.091 86.2675 207.515 86.1665C212.765 86.0656 218.015 86.0656 223.266 86.1665C225.588 86.1665 226.295 86.8733 226.497 89.1956C226.598 90.1044 226.598 90.9121 226.598 91.8208V159.067C226.598 160.177 226.497 161.288 226.396 162.399C226.295 163.711 225.285 164.62 223.973 164.721C223.367 164.822 222.862 164.822 222.256 164.822H208.221C207.717 164.822 207.313 164.822 206.808 164.721C205.394 164.62 204.183 163.509 204.082 162.096C203.981 161.288 203.981 160.48 203.981 159.672C204.082 148.465 204.082 136.954 204.082 125.444Z" fill="#00A8E1"/>
<path d="M215.794 50.0193C217.41 49.9184 219.025 50.2213 220.54 50.7261C225.992 52.5436 228.82 57.2892 228.315 63.4483C227.911 68.6987 223.973 72.9394 218.723 73.7472C216.501 74.1511 214.179 74.1511 211.958 73.7472C206.202 72.6365 201.962 68.3958 202.366 61.126C202.971 53.9572 207.717 50.0193 215.794 50.0193Z" fill="#00A8E1"/>
<path d="M128.456 117.164C128.052 111.914 126.638 106.765 124.518 102.019C120.378 93.3356 114.017 86.9745 104.324 84.7532C93.2172 82.3299 83.2212 84.7532 74.134 91.5182C73.5281 92.124 72.8214 92.6288 72.0136 93.0327C71.8117 92.9317 71.6097 92.8308 71.6097 92.7298C71.3068 91.7201 71.1049 90.7104 70.802 89.7007C69.9942 87.1765 68.9845 86.2677 66.2583 86.2677C63.2293 86.2677 60.0992 86.3687 57.0701 86.2677C54.7478 86.1668 52.6275 86.4697 51.012 88.2871C51.012 123.626 51.012 159.067 51.1129 194.305C52.4255 196.426 54.4449 196.829 56.7672 196.728C60.4021 196.627 64.037 196.728 67.6719 196.728C71.9126 196.728 74.033 194.642 74.033 190.468V161.692C74.033 160.985 73.7301 160.177 74.4369 159.572C79.4853 163.509 85.6445 165.933 92.0056 166.539C100.891 167.447 108.968 165.226 115.733 159.168C120.681 154.624 124.316 148.768 126.234 142.306C128.96 134.026 129.162 125.646 128.456 117.164ZM104.324 138.065C103.617 141.195 102.002 144.022 99.6792 146.143C97.054 148.364 93.823 149.677 90.39 149.677C85.2406 149.98 80.1921 148.869 75.6485 146.446C74.5378 145.941 73.8311 144.83 73.932 143.618V125.343C73.932 119.285 74.033 113.227 73.932 107.168C73.8311 105.755 74.6388 104.543 75.9514 104.038C81.5047 101.413 87.26 100.202 93.3182 101.413C97.5589 102.019 101.194 104.745 102.91 108.683C104.425 111.914 105.334 115.448 105.535 118.982C106.141 125.444 106.141 131.906 104.324 138.065Z" fill="#00A8E1"/>
<path d="M402.386 132.006C409.959 133.42 417.733 133.521 425.306 132.309C429.749 131.704 433.989 130.391 437.927 128.271C442.471 125.645 445.803 122.01 447.216 116.962C450.75 104.24 445.298 91.4167 432.071 86.6712C425.609 84.5508 418.743 83.844 411.978 84.7527C396.025 86.5702 385.625 95.3545 380.879 110.601C377.547 121.001 377.951 131.603 380.677 142.103C384.211 155.532 393.097 163.509 406.526 166.336C414.199 168.053 421.974 167.75 429.648 166.538C433.686 165.831 437.725 164.822 441.562 163.307C443.884 162.398 445.096 160.985 444.995 158.36C444.894 155.936 444.995 153.412 444.995 150.888C444.995 147.859 443.783 146.95 440.855 147.657C437.927 148.364 435.1 148.969 432.172 149.575C425.912 150.888 419.45 150.888 413.19 149.777C404.607 148.061 399.054 140.69 399.559 131.603C400.467 131.704 401.477 131.805 402.386 132.006ZM399.862 116.558C400.165 114.135 400.871 111.813 401.78 109.591C404.809 102.22 411.17 99.6962 417.632 100.1C419.45 100.201 421.267 100.605 422.984 101.312C425.609 102.422 427.325 104.846 427.628 107.673C427.931 109.389 427.83 111.207 427.325 112.923C426.114 116.558 423.186 118.073 419.652 118.779C417.531 119.284 415.31 119.486 413.089 119.284C409.151 119.284 405.112 118.981 401.174 118.376C400.165 118.241 399.727 117.635 399.862 116.558Z" fill="#00A8E1"/>
<path d="M156.817 202.938C158.958 202.726 161.088 203.15 163.118 204.008C167.288 205.613 170.165 209.45 170.377 213.943C171.236 223.667 164.713 228.574 156.07 228.362C154.899 228.362 153.717 228.15 152.546 227.938C145.923 226.332 142.51 221.213 143.146 213.842C143.681 207.966 148.275 203.594 154.576 203.059C155.323 202.948 156.07 202.847 156.817 202.948V202.938Z" fill="#232F3E"/>
<path d="M93.0552 302.161C93.6913 300.02 94.3375 297.991 94.9736 295.86C99.8908 279.311 104.798 262.863 109.715 246.304L110.351 244.386C110.886 242.467 112.704 241.286 114.622 241.286H130.858C134.917 241.286 135.775 242.457 134.382 246.304L127.97 263.287C120.812 281.866 113.663 300.555 106.504 319.144C106.292 319.78 105.969 320.426 105.757 321.062C105.01 323.304 102.768 324.798 100.416 324.586C95.7208 324.475 91.0156 324.475 86.3205 324.586C83.0087 324.697 81.0903 323.192 79.909 320.204C77.2434 313.156 74.4667 305.997 71.791 298.95C65.3795 282.179 58.8669 265.418 52.4655 248.536C51.8294 247.253 51.3952 245.759 51.0721 244.366C50.749 242.225 51.4962 241.165 53.6367 241.165C59.7252 241.054 65.8136 241.165 71.791 241.165C74.3556 241.165 75.5269 242.871 76.1731 245.113C77.3443 249.172 78.5257 253.332 79.808 257.391C84.1901 272.233 88.4611 287.187 92.833 302.029C92.722 302.14 92.833 302.14 93.0451 302.14L93.0552 302.161Z" fill="#232F3E"/>
<path d="M168.672 282.936V321.385C168.46 323.526 167.5 324.485 165.36 324.586C159.594 324.697 153.93 324.697 148.165 324.586C146.024 324.586 145.065 323.516 144.853 321.486C144.742 320.85 144.742 320.093 144.742 319.457V245.547C144.853 242.235 145.701 241.276 149.013 241.276H164.39C167.702 241.276 168.661 242.235 168.661 245.547V282.926L168.672 282.936Z" fill="#232F3E"/>
<path d="M448.165 276.312V276.737C447.741 276.312 447.529 275.666 447.741 275.131V274.273C447.741 274.273 447.741 274.162 447.852 274.162H447.741V273.092H447.953C447.953 272.98 447.842 272.98 447.842 272.88C447.63 270.85 447.206 268.821 446.671 266.902C442.723 252.807 433.858 243.518 419.439 239.883C412.715 238.277 405.879 238.065 399.043 239.136C384.625 241.276 374.266 248.96 369.247 262.631C364.33 275.656 364.441 289.974 369.358 302.999C373.629 314.853 382.171 322.324 394.459 325.424C400.972 327.029 407.808 327.454 414.542 326.494C436.968 323.829 446.257 306.846 447.761 292.104H447.65V290.61C447.539 289.974 447.438 289.439 448.074 289.004V289.216C448.074 289.105 448.185 288.893 448.286 288.792V276.514C448.286 276.403 448.175 276.403 448.175 276.302L448.165 276.312ZM422.529 296.607C421.893 298.849 420.924 300.878 419.54 302.797C417.188 306.109 413.452 308.239 409.393 308.562C407.363 308.774 405.334 308.774 403.304 308.35C398.821 307.492 395.085 304.503 393.268 300.343C391.663 297.031 390.703 293.397 390.38 289.772C389.845 283.471 389.744 277.171 391.238 270.971C391.774 268.518 392.844 266.054 394.126 263.924C396.479 260.077 400.538 257.623 405.021 257.3C407.05 257.088 409.08 257.088 411.109 257.512C415.38 258.37 418.904 261.147 420.833 265.095C422.65 268.831 423.72 273.001 423.932 277.161C424.043 279.079 424.144 281.008 424.043 282.926C424.367 287.621 423.831 292.215 422.549 296.597L422.529 296.607Z" fill="#232F3E"/>
<path d="M260.947 203.695H246.105C242.046 203.695 241.299 204.442 241.299 208.501V243.104C241.299 243.851 241.622 244.598 241.087 245.345C240.127 245.234 239.592 244.598 238.845 244.174C227.738 237.661 216.097 236.48 204.354 241.932C196.135 245.779 191.006 252.716 187.694 260.945C184.493 268.851 183.746 277.181 183.958 285.612C183.958 293.518 185.776 301.313 189.299 308.36C193.358 316.155 199.235 322.132 207.777 324.697C219.419 328.332 230.313 326.515 240.249 319.144C240.996 318.72 241.42 317.972 242.389 317.75C242.924 318.922 243.348 320.204 243.56 321.486C243.984 323.193 245.479 324.374 247.296 324.374H249.861C253.708 324.374 257.444 324.485 261.179 324.374C264.168 324.374 265.026 323.415 265.127 320.315V207.744C265.016 204.432 264.168 203.685 260.957 203.685L260.947 203.695ZM241.4 282.3V301.737C241.612 303.019 240.864 304.19 239.693 304.725C234.564 307.613 228.698 308.784 222.922 307.926C218.005 307.391 213.734 304.402 211.492 300.02C209.786 296.607 208.827 292.972 208.504 289.237C207.645 282.512 208.181 275.676 209.786 269.154C210.321 267.336 210.957 265.63 211.927 263.923C214.168 259.753 218.439 257.088 223.144 256.765C228.809 256.23 234.463 257.3 239.592 259.652C240.875 260.077 241.622 261.359 241.511 262.752C241.299 269.376 241.4 275.777 241.4 282.3Z" fill="#232F3E"/>
<path d="M325.447 290.731C331.636 290.307 337.836 289.125 343.389 286.137C349.053 283.36 353.001 278.13 354.172 271.93C354.92 268.083 354.92 264.024 354.061 260.177C351.82 250.565 345.731 244.588 336.543 241.488C331.414 239.883 325.972 239.246 320.63 239.458C302.688 239.883 289.017 248.96 283.464 266.902C279.728 278.756 280.263 290.822 283.888 302.675C287.624 314.852 296.166 322.223 308.342 325.535C313.573 326.817 319.025 327.352 324.366 327.14C332.161 327.029 339.956 325.535 347.327 322.758C350.427 321.587 351.174 320.517 351.174 317.205V309.511C351.063 306.411 349.78 305.341 346.691 306.098C344.338 306.734 342.097 307.27 339.744 307.805C332.585 309.511 325.113 309.834 317.854 308.552C310.594 307.159 305.677 302.999 303.758 295.739C303.223 293.598 302.799 291.468 302.587 289.226C303.122 289.226 303.657 289.226 304.082 289.438C311.129 290.721 318.288 291.256 325.437 290.721L325.447 290.731ZM303.122 273.647C303.87 269.477 304.829 265.428 307.393 262.005C311.341 256.775 316.794 255.28 322.983 255.917C323.518 255.917 323.942 256.129 324.477 256.129C331.949 257.3 333.767 263.287 332.383 269.053C331.313 273.324 327.789 274.929 323.841 275.676C321.701 276.1 319.459 276.312 317.218 276.211C312.836 276.1 308.565 275.787 304.294 275.141C303.334 275.03 302.9 274.606 303.122 273.647Z" fill="#232F3E"/>
</svg>
