<svg width="500" height="500" viewBox="0 0 500 500" fill="none" xmlns="http://www.w3.org/2000/svg">
<path d="M101.089 419.88C101.089 411.356 101.089 402.895 101.089 394.371C101.089 393.989 101.089 393.671 101.089 393.289C101.089 392.78 101.279 392.526 101.788 392.589C102.043 392.589 102.297 392.589 102.615 392.589C115.338 392.589 128.124 392.589 140.847 392.589C142.501 392.589 142.374 392.399 142.374 394.116C142.374 396.661 142.374 399.205 142.374 401.75C142.374 403.277 142.501 403.086 140.974 403.086C132.196 403.086 123.481 403.086 114.702 403.086C112.857 403.086 113.112 402.831 113.048 404.74C113.048 407.539 113.048 410.401 113.048 413.2C113.048 414.409 113.048 414.409 114.32 414.409C122.018 414.409 129.715 414.409 137.412 414.409C139.13 414.409 139.066 414.218 139.066 416.126C139.066 418.607 139.066 421.152 139.066 423.633C139.066 424.905 139.066 424.905 137.794 424.905C131.114 424.905 124.371 424.905 117.692 424.905C116.42 424.905 115.211 424.905 113.939 424.905C113.302 424.905 113.048 425.16 113.048 425.796C113.048 429.167 113.048 432.602 113.048 435.974C113.048 436.61 113.302 436.865 113.939 436.865C114.32 436.865 114.638 436.865 115.02 436.865C123.671 436.865 132.259 436.865 140.911 436.865C142.565 436.865 142.374 436.737 142.374 438.391C142.374 440.936 142.374 443.48 142.374 446.025C142.374 447.234 142.374 447.234 141.102 447.234C136.967 447.234 132.768 447.234 128.633 447.234C120.045 447.234 111.458 447.234 102.87 447.234C102.488 447.234 102.17 447.234 101.788 447.234C101.343 447.234 101.152 447.043 101.089 446.597C101.089 446.216 101.089 445.898 101.089 445.516C101.089 436.928 101.089 428.404 101.089 419.88Z" fill="#6172A0"/>
<path d="M193.201 400.287C190.784 403.149 188.366 406.012 185.949 408.875C178.315 400.287 166.738 401.177 160.249 407.92C153.697 414.791 153.888 425.732 160.694 432.412C167.31 438.9 178.824 439.473 186.204 430.758C186.522 430.885 186.712 431.139 186.903 431.33C189.066 433.493 191.293 435.656 193.456 437.882C194.219 438.646 194.219 438.709 193.519 439.473C189.003 444.371 183.468 447.424 176.852 448.379C168.964 449.587 161.649 447.997 155.16 443.226C148.608 438.391 144.727 431.966 143.582 423.887C141.483 408.684 151.471 395.07 165.529 391.89C175.453 389.663 184.295 392.017 191.865 398.76C192.374 399.269 192.883 399.651 193.201 400.287Z" fill="#6172A0"/>
<path d="M424.628 437.628C425.9 434.893 426.981 432.412 428.126 429.931C433.597 417.908 439.004 405.885 444.475 393.862C444.666 393.416 444.857 392.971 445.111 392.526C445.875 391.381 447.274 390.999 448.546 391.635C449.691 392.208 450.264 393.544 449.882 394.816C449.755 395.261 449.501 395.707 449.31 396.152C441.994 412.31 434.679 428.468 427.299 444.689C427.109 445.071 426.981 445.452 426.79 445.771C425.709 447.424 423.355 447.361 422.274 445.771C422.083 445.452 421.956 445.134 421.829 444.816C414.577 428.404 407.325 411.992 400.009 395.643C399.691 394.88 399.437 394.116 399.691 393.289C400.009 392.271 400.963 391.444 402.045 391.381C403.126 391.254 404.208 391.89 404.717 393.035C405.734 395.261 406.689 397.488 407.706 399.778C413.114 411.992 418.521 424.269 423.992 436.483C424.182 436.737 424.31 436.992 424.628 437.628Z" fill="#A8B5CD"/>
<path d="M376.727 421.47C376.727 428.849 376.727 436.228 376.727 443.608C376.727 444.116 376.727 444.625 376.663 445.071C376.345 446.597 375.264 447.488 373.864 447.424C372.528 447.361 371.447 446.279 371.256 444.816C371.192 444.371 371.256 443.926 371.256 443.48C371.256 428.658 371.256 413.9 371.256 399.078C371.256 397.297 371.447 397.488 369.602 397.488C364.895 397.488 360.124 397.488 355.416 397.488C354.971 397.488 354.526 397.488 354.08 397.424C352.935 397.233 351.981 396.279 351.981 395.197C351.981 394.116 352.872 393.098 354.017 392.844C354.335 392.78 354.716 392.78 355.098 392.78C367.757 392.78 380.416 392.78 393.075 392.78C393.584 392.78 394.157 392.716 394.666 392.971C395.684 393.416 396.383 394.434 396.256 395.388C396.129 396.406 395.238 397.233 394.22 397.424C393.775 397.488 393.33 397.488 392.885 397.488C388.114 397.488 383.342 397.488 378.508 397.488C378.19 397.488 377.872 397.488 377.554 397.488C377.108 397.488 376.918 397.678 376.918 398.124C376.918 398.442 376.918 398.76 376.918 399.078C376.727 406.584 376.727 414.027 376.727 421.47Z" fill="#A8B5CD"/>
<path d="M280.988 429.422C281.879 429.358 282.769 429.295 283.596 429.167C293.393 427.641 300.708 418.098 298.673 407.475C296.955 398.569 289.003 392.526 280.543 392.589C272.019 392.653 263.494 392.589 254.907 392.589C253.062 392.589 253.253 392.335 253.253 394.243C253.253 411.292 253.253 428.404 253.253 445.452C253.253 445.707 253.253 445.898 253.253 446.152C253.253 447.17 253.316 447.17 254.334 447.234C256.942 447.234 259.55 447.234 262.095 447.234C262.858 447.234 263.622 447.234 264.385 447.234C264.957 447.234 265.339 447.106 265.276 446.407C265.212 446.089 265.276 445.77 265.276 445.452C265.276 440.745 265.276 436.038 265.276 431.394C265.276 431.076 265.085 430.694 265.657 430.312C265.912 430.63 266.166 431.012 266.484 431.33C271.51 436.356 276.535 441.381 281.561 446.407C282.133 446.979 282.706 447.234 283.533 447.234C288.049 447.17 292.566 447.234 297.082 447.234C297.4 447.234 297.782 447.297 298.164 447.043C292.375 441.254 286.586 435.465 280.861 429.74C280.861 429.613 280.924 429.549 280.988 429.422ZM266.548 419.18C265.085 419.18 265.212 419.244 265.212 417.78C265.212 415.618 265.212 413.391 265.212 411.228C265.212 408.938 265.212 406.584 265.212 404.294C265.212 403.595 265.466 403.404 266.166 403.404C270.683 403.404 275.199 403.34 279.716 403.404C283.787 403.467 287.159 407.157 287.095 411.419C287.031 415.745 283.596 419.18 279.207 419.244C274.945 419.18 270.746 419.18 266.548 419.18Z" fill="#6172A0"/>
<path d="M81.1776 429.04C90.7196 426.941 97.081 418.035 95.5543 408.111C94.0275 398.442 85.6942 392.526 77.4244 392.589C68.8365 392.653 60.2487 392.589 51.6609 392.589C49.8161 392.589 50.0069 392.398 50.0069 394.243C50.0069 411.355 50.0069 428.404 50.0069 445.516C50.0069 445.77 50.0069 446.025 50.0069 446.343C49.9433 447.106 50.325 447.234 50.9611 447.234C52.1697 447.234 53.3784 447.234 54.5871 447.234C56.7499 447.234 58.9764 447.234 61.1393 447.234C61.7754 447.234 62.0935 447.043 62.0299 446.407C62.0299 446.088 62.0299 445.77 62.0299 445.452C62.0299 440.872 62.0299 436.356 62.0299 431.775C62.0299 431.33 62.0299 430.948 62.0299 430.249C62.6024 430.758 62.9205 431.076 63.3021 431.394C68.3276 436.356 73.2895 441.381 78.315 446.407C78.9511 447.043 79.5236 447.297 80.4142 447.297C84.8036 447.234 89.1929 447.297 93.5822 447.297C93.9639 447.297 94.3456 447.424 94.9181 447.043C89.1293 441.254 83.3404 435.465 77.4244 429.549C78.8875 429.422 80.0325 429.294 81.1776 429.04ZM63.1749 419.18C62.0935 419.18 62.0935 419.18 62.0935 418.098C62.0935 415.808 62.0935 413.518 62.0935 411.292C62.0935 408.938 62.0935 406.648 62.0935 404.294C62.0935 403.595 62.2843 403.404 62.9841 403.404C67.5006 403.404 72.0172 403.34 76.5338 403.467C79.6509 403.595 81.9409 405.312 83.2132 408.111C84.5491 411.037 84.1038 413.9 82.0682 416.381C80.4778 418.289 78.4422 419.244 75.9613 419.244C71.6355 419.18 67.3734 419.18 63.1749 419.18Z" fill="#6172A0"/>
<path d="M221.255 391.19C206.306 391.19 192.311 403.086 192.311 420.071C192.311 437.055 206.306 449.142 221.255 448.824C236.776 449.078 250.135 436.292 250.199 420.198C250.263 403.849 236.84 391.19 221.255 391.19ZM231.751 433.557C223.036 440.681 210.568 437.373 205.987 427.132C204.906 424.778 204.524 422.679 204.524 419.943C204.715 413.455 207.387 408.302 212.985 404.867C219.982 400.605 228.761 402.386 234.041 408.62C240.148 416.063 239.13 427.577 231.751 433.557Z" fill="#6172A0"/>
<path d="M353.826 414.918C351.472 402.195 340.213 392.59 327.235 392.59C319.983 392.59 312.731 392.59 305.543 392.59C303.953 392.59 304.144 392.462 304.144 394.053C304.144 402.641 304.144 411.228 304.144 419.816C304.144 428.34 304.144 436.865 304.144 445.453C304.144 445.834 304.144 446.152 304.144 446.534C304.144 447.043 304.334 447.297 304.843 447.234C305.034 447.234 305.289 447.234 305.543 447.234C312.859 447.234 320.111 447.234 327.426 447.234C329.08 447.234 330.734 447.107 332.324 446.788C347.21 443.671 356.434 429.358 353.826 414.918ZM329.398 436.229C328.38 436.483 327.299 436.674 326.218 436.674C323.164 436.674 320.111 436.674 317.121 436.674C315.912 436.674 315.912 436.674 315.912 435.402C315.912 430.313 315.912 425.223 315.912 420.134C315.912 415.172 315.912 410.211 315.912 405.249C315.912 404.931 315.912 404.613 315.912 404.294C315.849 403.722 316.103 403.468 316.676 403.468C317.312 403.468 317.948 403.468 318.584 403.468C321.574 403.531 324.564 403.34 327.553 403.658C334.487 404.358 340.594 409.829 341.93 416.699C343.711 425.605 338.304 434.066 329.398 436.229Z" fill="#6172A0"/>
<path d="M143.905 93.2145C144.698 92.3087 149.261 88.6012 154.046 84.9748C188.078 59.1866 222.658 49.1251 264.976 52.6974C297.413 55.4362 327.212 67.9891 351.314 89.0642C376.13 110.765 394.59 141.328 393.124 158.289C392.786 162.213 391.302 164.838 385.997 170.903C377.862 180.204 371.576 182.791 362.44 180.597C356.57 179.186 354.896 177.916 333.515 158.616C321.033 147.35 304.594 133.66 296.983 128.196C246.009 91.5918 197.451 79.2513 154.925 92.094C148.538 94.0235 143.122 95.4351 142.889 95.2314C142.656 95.0273 143.113 94.1204 143.905 93.2145ZM213.325 344.816C210.305 336.073 211.096 326.394 215.322 320.348C219.425 314.482 226.819 311.208 255.849 302.411C291.79 291.517 326.943 273.838 350.086 255.014C375.03 234.728 393.068 206.907 398.799 179.884C399.616 176.035 400.693 172.417 401.193 171.846C402.22 170.672 405.23 189.832 405.895 201.771C407.207 225.288 401.109 254.015 390.02 276.571C384.166 288.477 381.932 291.592 366.359 309.546C351.165 327.065 347.952 330.178 338.762 336.295C315.235 351.952 289.635 360.523 260.847 362.382C232.662 364.204 218.171 358.846 213.325 344.816ZM189.966 327.56C162.775 290.777 157.281 231.36 174.369 158.884C179.933 135.286 180.384 129.513 177.373 120.488C175.236 114.082 174.218 112.816 166.182 106.569L157.342 99.6961L164.164 97.9721C172.737 95.8055 193.312 94.8854 204.11 96.1863C212.686 97.2198 239.027 105.215 241.589 106.173C254.147 110.871 264.923 115.327 275.662 123.586C282.889 129.144 295.27 137.277 321.056 158.957C355.076 187.558 355.943 188.198 362.048 189.197C369.784 190.465 379.098 188.166 384.563 183.639C386.845 181.748 389.071 180.516 389.511 180.901C390.764 181.997 385.997 195.514 380.456 206.576C373.924 219.613 357.149 239.231 343.094 250.267C318.289 269.744 279.678 288.002 241.473 298.318C213.786 305.794 203.329 315.503 203.386 333.681L203.413 342.303L199.412 338.614C197.211 336.584 192.96 331.61 189.966 327.56ZM126.818 303.523C107.393 277.679 96.193 248.184 94.2416 217.732C92.1718 185.441 100.436 152.957 117.324 126.995C128.545 109.746 136.833 104.702 149.646 107.324C159.343 109.309 165.568 113.908 168.771 121.457C171.903 128.839 171.403 136.185 166.295 157.832C146.091 243.442 156.11 306.9 196.102 346.624C201.685 352.17 205.226 356.489 204.244 356.554C200.937 356.774 178.059 346.59 167.637 340.257C153.452 331.638 136.45 316.337 126.818 303.523Z" fill="#6172A0"/>
</svg>
