<svg width="500" height="500" viewBox="0 0 500 500" fill="none" xmlns="http://www.w3.org/2000/svg">
<path d="M257.975 226.925H234.413V284.588H247.1V267.288H256.738C269.675 267.288 280.05 260.363 280.05 247.025V246.863C280.05 235.088 271.725 226.925 257.975 226.925ZM267.2 247.275C267.2 252.213 263.488 255.913 257.15 255.913H247.1V238.313H256.9C263.25 238.313 267.2 241.425 267.2 247.113V247.275Z" fill="#101E28"/>
<path d="M387.477 264C394.815 261.275 399.838 255.437 399.838 246.125V245.962C399.838 234.1 391.689 226.937 378.088 226.937H351.726V284.6H364.414V266.15H374.377L384.887 281.837C386.039 283.563 387.988 284.6 390.063 284.6H401.565L387.477 264ZM386.975 246.787C386.975 251.65 383.439 254.762 377.253 254.762H364.4V238.325H377.002C383.177 238.325 386.965 241.187 386.965 246.625V246.787H386.975Z" fill="#101E28"/>
<path d="M404.614 226.925V238.313H422.162V284.588H434.851V238.313H448.25C450.54 238.313 452.403 236.45 452.403 234.163V226.925H404.628H404.614Z" fill="#101E28"/>
<path d="M481.738 250.088C471.789 247.538 469.314 246.301 469.314 242.525V242.363C469.314 239.563 471.862 237.351 476.711 237.351C480.537 237.351 484.464 238.675 488.464 240.975C490.336 242.05 492.725 241.525 493.95 239.75L498.277 233.488C492.439 228.8 485.275 226.163 476.889 226.163C465.126 226.163 456.737 233.075 456.737 243.525V243.688C456.737 255.126 464.225 258.325 475.827 261.288C485.449 263.75 487.426 265.4 487.426 268.613V268.775C487.426 272.151 484.3 274.201 479.113 274.201C473.927 274.201 469.227 272.426 464.938 269.488C463.163 268.275 460.764 268.576 459.389 270.226L454.425 276.163C461.339 282.338 470.139 285.375 478.863 285.375C491.287 285.375 500 278.963 500 267.526V267.363C500 257.326 493.424 253.126 481.738 250.088Z" fill="#101E28"/>
<path d="M206.5 250.088C196.55 247.538 194.075 246.301 194.075 242.525V242.363C194.075 239.563 196.625 237.351 201.475 237.351C205.3 237.351 209.225 238.675 213.225 240.975C215.1 242.05 217.488 241.525 218.713 239.75L223.038 233.488C217.2 228.8 210.038 226.163 201.65 226.163C189.888 226.163 181.5 233.075 181.5 243.525V243.688C181.5 255.126 188.988 258.325 200.588 261.288C210.213 263.75 212.188 265.4 212.188 268.613V268.775C212.188 272.151 209.063 274.201 203.875 274.201C198.688 274.201 193.987 272.426 189.7 269.488C187.925 268.275 185.525 268.576 184.15 270.226L179.188 276.163C186.1 282.338 194.9 285.375 203.625 285.375C216.05 285.375 224.763 278.963 224.763 267.526V267.363C224.763 257.326 218.175 253.126 206.5 250.088Z" fill="#101E28"/>
<path d="M313.876 226.15C297.513 226.15 284.264 239.413 284.264 255.763C284.264 272.113 297.526 285.376 313.876 285.376C330.226 285.376 343.489 272.113 343.489 255.763C343.489 239.413 330.226 226.15 313.876 226.15ZM313.876 273.401C304.139 273.401 296.239 265.5 296.239 255.763C296.239 246.025 304.139 238.125 313.876 238.125C323.614 238.125 331.514 246.025 331.514 255.763C331.514 265.5 323.614 273.401 313.876 273.401Z" fill="#101E28"/>
<path d="M3.56251 226.925C13.5 195.1 43.2125 172 78.3251 172C113.438 172 143.15 195.1 153.088 226.925H90.2375V255.9H89.7L73.8376 231.213C71.9126 228.025 69.975 226.938 66.1127 226.938H3.56251V226.925ZM138.538 238.312V284.588H122.938V238.312H105.1V284.588H94.6878C90.8251 284.588 88.9878 283.5 86.9625 280.313L66.7751 250.088H66.45V284.588H51.2876V238.312H33.5126V284.588H17.6375V238.312H0.912502C0.312501 242.225 0 246.238 0 250.325C0 293.588 35.0625 328.65 78.3251 328.65C121.588 328.65 156.65 293.588 156.65 250.325C156.65 246.238 156.338 242.225 155.738 238.312H138.538Z" fill="#FF28FF"/>
</svg>
