<svg width="500" height="500" viewBox="0 0 500 500" fill="none" xmlns="http://www.w3.org/2000/svg">
<path d="M156.118 211.431C154.281 204.566 148.886 199.172 142.021 197.334C129.591 194 79.7258 194 79.7258 194C79.7258 194 29.8612 194 17.431 197.334C10.5663 199.172 5.17156 204.566 3.33395 211.431C9.97976e-07 223.861 0 249.811 0 249.811C0 249.811 9.97976e-07 275.761 3.33395 288.191C5.17156 295.056 10.5663 300.45 17.431 302.288C29.8612 305.622 79.7258 305.622 79.7258 305.622C79.7258 305.622 129.591 305.622 142.021 302.288C148.886 300.45 154.281 295.056 156.118 288.191C159.452 275.761 159.452 249.811 159.452 249.811C159.452 249.811 159.439 223.861 156.118 211.431Z" fill="#FF0000"/>
<path d="M63.7656 273.728L105.191 249.813L63.7656 225.898V273.728Z" fill="white"/>
<path d="M193.118 266.574L175.215 201.917H190.835L197.109 231.226C198.71 238.446 199.878 244.602 200.639 249.694H201.099C201.624 246.045 202.806 239.929 204.63 231.331L211.127 201.917H226.747L208.62 266.574V297.591H193.106V266.574H193.118Z" fill="#282828"/>
<path d="M231.446 295.541C228.296 293.414 226.051 290.106 224.712 285.618C223.386 281.129 222.717 275.17 222.717 267.714V257.568C222.717 250.046 223.479 243.996 225.001 239.441C226.524 234.886 228.899 231.552 232.128 229.465C235.357 227.378 239.597 226.328 244.847 226.328C250.019 226.328 254.153 227.392 257.277 229.518C260.388 231.644 262.672 234.978 264.116 239.494C265.559 244.022 266.282 250.046 266.282 257.568V267.714C266.282 275.17 265.573 281.155 264.169 285.67C262.764 290.198 260.48 293.506 257.33 295.593C254.18 297.68 249.901 298.73 244.506 298.73C238.94 298.743 234.596 297.667 231.446 295.541ZM249.113 284.594C249.979 282.31 250.426 278.595 250.426 273.424V251.648C250.426 246.634 249.993 242.959 249.113 240.649C248.233 238.325 246.698 237.17 244.492 237.17C242.367 237.17 240.857 238.325 239.991 240.649C239.111 242.972 238.678 246.634 238.678 251.648V273.424C238.678 278.595 239.098 282.323 239.938 284.594C240.778 286.878 242.287 288.02 244.492 288.02C246.698 288.02 248.233 286.878 249.113 284.594Z" fill="#282828"/>
<path d="M317.091 297.604H304.779L303.414 289.046H303.073C299.725 295.504 294.711 298.733 288.017 298.733C283.384 298.733 279.958 297.21 277.753 294.178C275.548 291.133 274.445 286.382 274.445 279.924V227.696H290.183V279.005C290.183 282.129 290.524 284.347 291.207 285.673C291.89 286.998 293.031 287.668 294.633 287.668C295.998 287.668 297.31 287.248 298.571 286.408C299.831 285.567 300.75 284.504 301.366 283.218V227.683H317.091V297.604Z" fill="#282828"/>
<path d="M359.843 214.581H344.223V297.601H328.826V214.581H313.207V201.927H359.843V214.581Z" fill="#282828"/>
<path d="M397.801 297.604H385.49L384.124 289.046H383.783C380.436 295.504 375.422 298.733 368.728 298.733C364.094 298.733 360.669 297.21 358.464 294.178C356.259 291.133 355.156 286.382 355.156 279.924V227.696H370.894V279.005C370.894 282.129 371.235 284.347 371.917 285.673C372.6 286.998 373.742 287.668 375.344 287.668C376.708 287.668 378.021 287.248 379.281 286.408C380.541 285.567 381.46 284.504 382.077 283.218V227.683H397.801V297.604Z" fill="#282828"/>
<path d="M449.885 238.865C448.927 234.454 447.391 231.265 445.265 229.283C443.139 227.301 440.211 226.316 436.484 226.316C433.596 226.316 430.892 227.13 428.385 228.771C425.878 230.412 423.935 232.551 422.57 235.216H422.452V198.385H407.292V297.59H420.286L421.888 290.974H422.229C423.45 293.337 425.274 295.187 427.703 296.566C430.131 297.931 432.835 298.614 435.801 298.614C441.117 298.614 445.042 296.159 447.549 291.263C450.056 286.354 451.316 278.701 451.316 268.28V257.215C451.316 249.405 450.83 243.275 449.885 238.865ZM435.46 267.387C435.46 272.48 435.25 276.47 434.83 279.358C434.41 282.245 433.714 284.307 432.717 285.514C431.732 286.734 430.393 287.338 428.726 287.338C427.427 287.338 426.233 287.036 425.13 286.42C424.027 285.816 423.135 284.897 422.452 283.689V244.01C422.977 242.107 423.896 240.558 425.196 239.337C426.482 238.117 427.9 237.513 429.409 237.513C431.01 237.513 432.244 238.143 433.111 239.39C433.99 240.65 434.594 242.75 434.935 245.716C435.276 248.683 435.447 252.896 435.447 258.37V267.387H435.46Z" fill="#282828"/>
<path d="M473.642 271.416C473.642 275.905 473.774 279.266 474.036 281.51C474.299 283.754 474.85 285.382 475.69 286.419C476.53 287.443 477.817 287.955 479.562 287.955C481.912 287.955 483.539 287.036 484.406 285.212C485.285 283.387 485.758 280.342 485.837 276.089L499.409 276.89C499.487 277.494 499.526 278.334 499.526 279.397C499.526 285.855 497.754 290.685 494.224 293.875C490.693 297.064 485.692 298.665 479.234 298.665C471.477 298.665 466.043 296.237 462.932 291.368C459.808 286.498 458.259 278.977 458.259 268.791V256.584C458.259 246.097 459.874 238.431 463.103 233.601C466.332 228.771 471.858 226.355 479.693 226.355C485.088 226.355 489.236 227.34 492.124 229.322C495.011 231.304 497.046 234.375 498.227 238.562C499.409 242.75 499.999 248.525 499.999 255.901V267.872H473.642V271.416ZM475.638 238.471C474.837 239.455 474.312 241.07 474.036 243.314C473.774 245.559 473.642 248.958 473.642 253.526V258.54H485.154V253.526C485.154 249.037 484.997 245.637 484.695 243.314C484.393 240.991 483.841 239.363 483.04 238.405C482.24 237.46 481.006 236.974 479.339 236.974C477.659 236.987 476.425 237.486 475.638 238.471Z" fill="#282828"/>
</svg>
