<svg width="500" height="500" viewBox="0 0 500 500" fill="none" xmlns="http://www.w3.org/2000/svg">
<path fill-rule="evenodd" clip-rule="evenodd" d="M488.677 195.791C464.656 231.513 388.714 320.313 254.604 319.562C117.238 318.795 46.0344 231.686 22.0532 197.694C16.0226 189.154 15.7237 181.344 21.9521 172.249C46.0344 137.075 120.314 49.1109 254.288 49.0001C391.196 48.8763 468.451 141.334 488.435 172.64C494.331 181.875 494.331 187.179 488.677 195.791ZM254.741 64.8751C165.51 64.8751 106.454 137.769 106.454 184.986C106.454 229.741 164.277 305.081 255.453 305.081C349.427 305.081 405.938 228.744 405.056 184.986C405.643 136.782 344.164 64.8751 254.741 64.8751Z" fill="white"/>
<path fill-rule="evenodd" clip-rule="evenodd" d="M255.019 289.53C313.945 289.53 361.716 242.563 361.716 184.628C361.716 126.694 313.945 79.7271 255.019 79.7271C196.09 79.7271 148.319 126.694 148.319 184.628C148.319 242.563 196.09 289.53 255.019 289.53Z" fill="white"/>
<path d="M425.726 350.166C396.997 350.132 382.458 350.267 382.458 350.267L361.641 450.287H439.826C439.826 450.287 488.375 449.228 495.746 407.392C498.405 392.253 514.655 347.929 459.169 350.267C446.453 350.206 435.302 350.178 425.726 350.166ZM84.932 350.271C56.781 350.213 20.1736 350.447 20.1736 350.447L0 447.975H81.8988C81.8988 447.975 102.902 449.242 111.329 438.928C107.954 444.829 105.218 449.239 105.218 449.239H149.582L158.199 435.154H194.754V449.239H271.26L282.195 399.845L310.777 449.239H353.652L376.35 350.447H334.533L325.482 402.164L299.429 350.447H253.614L235.95 431.16L218.301 350.447H170.376L126.656 419.394C126.656 419.394 134.443 400.051 118.682 394.998C126.657 389.964 134.649 384.91 133.593 368.526C133.801 364.529 132.331 350.862 108.595 350.447C102.76 350.343 94.3157 350.29 84.932 350.271ZM52.4687 375.022C52.4687 375.022 77.6945 375.268 84.199 375.037C90.7222 374.829 89.5883 377.149 89.5883 380.09V380.094C89.6637 387.862 82.5197 386.617 82.5197 386.617H50.7894L52.4687 375.022ZM416.6 376.511C416.6 376.511 430.362 376.926 445.746 376.511C462.733 377.924 456.061 402.003 454.232 407.471C445.748 427.908 408.305 422.042 408.305 422.042L416.6 376.511ZM186.986 381.56L193.075 415.4H169.546L186.986 381.56ZM45.5683 408.705C45.5683 408.705 74.4703 408.988 81.9362 408.75C89.4022 408.504 88.1185 411.161 88.1185 414.517C88.189 423.426 80.0139 421.997 80.0139 421.997H43.646L45.5683 408.705Z" fill="white"/>
</svg>
