<svg width="500" height="500" viewBox="0 0 500 500" fill="none" xmlns="http://www.w3.org/2000/svg">
<path d="M249.868 7C176.704 7 117.093 66.6548 117.093 139.905C117.093 213.402 176.689 273.061 249.868 273.061C323.045 273.061 382.892 213.407 382.892 139.905C382.892 66.6548 323.045 7 249.868 7ZM340.592 202.739C311.59 205.934 280.197 206.735 249.868 206.735C219.539 206.735 188.144 205.934 158.881 202.739C150.633 201.939 146.375 199.811 145.31 191.022C143.712 174.243 143.712 157.198 143.712 139.89C143.712 122.844 143.712 105.803 145.31 89.0239C146.375 80.2348 150.636 78.1059 158.881 77.3064C188.144 74.1113 219.539 73.3116 249.868 73.3116C280.197 73.3116 311.59 74.1113 340.588 77.3064C349.102 78.1059 353.36 80.2348 354.424 89.0239C355.756 105.803 355.756 122.844 355.756 139.89C355.756 157.198 355.756 174.243 354.424 191.022C353.36 199.811 349.102 201.939 340.592 202.739Z" fill="#1D1D1B"/>
<path d="M196.125 139.89C196.125 110.594 219.539 86.0962 249.868 86.0962C280.197 86.0962 303.608 110.594 303.608 139.89C303.608 169.449 280.197 193.967 249.868 193.967C219.539 193.967 196.125 169.449 196.125 139.89Z" fill="#1D1D1B"/>
<path d="M446.932 423.517C432.606 423.517 420.96 411.864 420.96 395.95C420.96 380.037 432.606 368.38 446.932 368.38C461.261 368.38 472.909 380.037 472.909 395.95C472.909 411.864 461.265 423.517 446.932 423.517ZM330.05 423.517C316.167 423.517 304.525 412.536 304.525 395.95C304.525 379.576 316.167 368.38 330.05 368.38C343.932 368.38 355.578 379.587 355.578 395.95C355.578 412.536 343.932 423.517 330.05 423.517ZM212.047 423.517C197.717 423.517 186.07 411.864 186.07 395.95C186.07 380.037 197.717 368.38 212.047 368.38C226.379 368.38 238.02 380.037 238.02 395.95C238.02 411.864 226.379 423.517 212.047 423.517ZM52.6191 423.292C38.5123 423.292 26.6424 412.086 26.6424 395.726C26.6424 379.137 38.5123 368.155 52.6191 368.155C66.7259 368.155 78.3674 379.137 78.3674 395.726C78.3674 412.1 66.7259 423.292 52.6191 423.292ZM446.932 342.157C418.05 342.157 393.865 364.796 393.865 395.95C393.865 427.105 417.6 449.74 446.932 449.74C475.82 449.74 500 427.105 500 395.95C500 364.796 476.268 342.157 446.932 342.157ZM212.047 342.157C183.161 342.157 158.979 364.796 158.979 395.95C158.979 427.105 182.715 449.74 212.047 449.74C240.931 449.74 265.114 427.105 265.114 395.95C265.114 364.796 241.379 342.157 212.047 342.157ZM84.6371 343.95C81.2778 343.95 79.2652 345.968 79.2652 349.331V355.157C73.22 347.758 62.0235 342.157 50.8271 342.157C23.5075 342.157 0 365.465 0 395.95C0 426.434 22.1646 447.501 50.1538 447.501C55.3493 447.531 60.4956 446.494 65.273 444.449C70.0506 442.406 74.3574 439.4 77.9261 435.619C77.7016 456.915 66.5128 466.553 47.2471 466.553C36.9487 466.553 27.3196 463.415 16.1232 456.241C13.2128 454.223 9.85346 454.896 8.28605 458.034L1.57123 471.261C0.00380635 474.399 0.448927 477.312 3.58378 479.326C17.4661 488.294 33.8138 492.776 47.9206 492.776C84.8654 492.776 105.242 472.829 105.242 426.895V349.331C105.242 345.968 103.226 343.95 99.87 343.95H84.6371ZM333.184 342.157C322.436 342.157 311.913 346.863 304.971 354.033V306.52C304.971 303.157 302.959 301.139 299.599 301.139H283.027C279.672 301.139 277.655 303.157 277.655 306.52V442.57C277.655 445.933 279.672 447.947 283.027 447.947H298.031C301.391 447.947 303.403 445.933 303.403 442.57V436.744C309.897 444.138 321.988 449.74 333.857 449.74C360.055 449.74 382.672 425.986 382.672 395.95C382.672 365.485 359.846 342.157 333.184 342.157ZM130.092 300.244C123.598 297.33 119.12 300.244 119.12 307.415V441.672C119.12 448.846 123.598 451.759 130.092 448.846L138.603 445.038C143.975 442.573 146.44 438.985 146.44 433.16V315.934C146.44 310.106 143.975 306.52 138.603 304.052L130.092 300.244Z" fill="#1D1D1B"/>
</svg>
