<svg width="500" height="500" viewBox="0 0 500 500" fill="none" xmlns="http://www.w3.org/2000/svg">
<path d="M10.8584 223.384H485.353V278.687H10.8584V223.384Z" fill="black"/>
<path d="M135.101 246.363V239.293C135.101 238.282 134.343 237.525 133.333 237.525H102.02C101.01 237.525 100.252 238.282 100.252 239.293V248.383C100.757 248.383 101.515 248.131 102.02 248.131H133.333C134.343 248.131 135.101 247.373 135.101 246.363Z" fill="white"/>
<path d="M404.293 246.363V239.293C404.293 238.282 403.535 237.525 402.525 237.525H371.212C370.202 237.525 369.444 238.282 369.444 239.293V248.383C369.949 248.383 370.707 248.131 371.212 248.131H402.525C403.535 248.131 404.293 247.373 404.293 246.363Z" fill="white"/>
<path d="M69.9495 237.525H38.3839C37.3738 237.525 36.6162 238.282 36.6162 239.293V248.383C37.1213 248.383 37.8788 248.131 38.3839 248.131H69.9495C70.9596 248.131 71.7172 247.373 71.7172 246.363V239.293C71.7172 238.282 70.9596 237.525 69.9495 237.525Z" fill="white"/>
<path d="M472.727 237.02C472.727 237.02 436.616 237.02 435.859 237.02C434.596 237.02 434.091 237.778 434.091 238.535C434.091 239.293 434.091 244.343 434.091 244.343H472.727V253.434H434.091C434.091 253.434 434.091 259.242 434.091 260.253C434.091 261.263 435.101 261.768 435.859 261.768C436.364 261.768 472.727 261.768 472.727 261.768V271.111C472.727 271.111 437.121 271.111 435.859 271.111C428.283 271.111 423.99 265.556 423.99 260.253C423.99 251.414 423.99 240.303 423.99 239.293C423.99 234.747 427.778 228.182 435.101 228.182C444.192 228.182 472.727 228.182 472.727 228.182V237.02ZM402.02 271.111L388.384 257.475H371.465C370.455 257.475 369.697 258.232 369.697 259.242V267.828V271.364H360.354V239.293C360.354 233.232 365.404 228.182 371.465 228.182H402.778C408.838 228.182 413.889 233.232 413.889 239.293V246.364C413.889 252.424 408.838 257.475 402.778 257.475H401.515L415.404 271.111H402.02ZM349.747 237.02C349.747 237.02 313.636 237.02 312.879 237.02C311.616 237.02 311.111 237.778 311.111 238.535C311.111 239.293 311.111 244.343 311.111 244.343H349.747V253.434H311.111C311.111 253.434 311.111 259.242 311.111 260.253C311.111 261.263 312.121 261.768 312.879 261.768C313.384 261.768 349.747 261.768 349.747 261.768V271.111C349.747 271.111 314.141 271.111 312.879 271.111C305.303 271.111 301.01 265.556 301.01 260.253C301.01 251.414 301.01 240.303 301.01 239.293C301.01 234.747 304.798 228.182 312.121 228.182C321.212 228.182 349.747 228.182 349.747 228.182V237.02ZM290.657 271.364H280.556V227.929H290.657V271.364ZM270.202 271.111H260.354V240.556L246.465 266.061H238.131L223.485 240.556V271.364H213.636V228.182H225.505L241.667 256.465L258.333 228.182H269.95V271.111H270.202ZM203.535 237.02C203.535 237.02 167.424 237.02 166.667 237.02C165.404 237.02 164.899 237.778 164.899 238.535C164.899 239.293 164.899 244.343 164.899 244.343H203.535V253.434H164.899C164.899 253.434 164.899 259.242 164.899 260.253C164.899 261.263 165.909 261.768 166.667 261.768C167.172 261.768 203.535 261.768 203.535 261.768V271.111C203.535 271.111 167.929 271.111 166.667 271.111C159.091 271.111 154.798 265.556 154.798 260.253C154.798 251.414 154.798 240.303 154.798 239.293C154.798 234.747 158.586 228.182 165.909 228.182C175 228.182 203.535 228.182 203.535 228.182V237.02ZM132.828 271.111L119.192 257.475H102.273C101.263 257.475 100.505 258.232 100.505 259.242V267.828V271.364H90.9091V239.293C90.9091 233.232 95.9596 228.182 102.02 228.182H133.333C139.394 228.182 144.444 233.232 144.444 239.293V246.364C144.444 252.424 139.394 257.475 133.333 257.475H132.323L146.212 271.111H132.828ZM80.5556 246.364C80.5556 252.424 75.5051 257.475 69.4444 257.475H38.3838C37.3737 257.475 36.6162 258.232 36.6162 259.242V271.364H27.2727V267.576V239.293C27.2727 233.232 32.3232 228.182 38.3838 228.182H69.4444C75.5051 228.182 80.5556 233.232 80.5556 239.293V246.364ZM492.424 210H7.57576C3.53535 210 0 213.283 0 217.576V281.97C0 286.01 3.28283 289.545 7.57576 289.545H492.424C496.465 289.545 500 286.263 500 281.97V217.576C500 213.283 496.717 210 492.424 210Z" fill="white"/>
</svg>
