<svg width="500" height="500" viewBox="0 0 500 500" fill="none" xmlns="http://www.w3.org/2000/svg">
<g clip-path="url(#clip0_38_58)">
<path fill-rule="evenodd" clip-rule="evenodd" d="M284.363 219.582H286.294V302.818H284.363L283.591 302.045V220.354L284.363 219.582Z" fill="white"/>
<path fill-rule="evenodd" clip-rule="evenodd" d="M307.529 247.005L315.251 241.019L324.903 259.365L320.077 279.644L307.529 275.395L292.851 259.4L306.757 247.005H307.529Z" fill="white"/>
<path fill-rule="evenodd" clip-rule="evenodd" d="M305.598 241.791H307.529V280.609H305.598L279.086 258.618L304.826 242.563L305.598 241.791Z" fill="white"/>
<path fill-rule="evenodd" clip-rule="evenodd" d="M303.668 237.929H305.598V284.472H303.668L302.896 283.699V238.701L303.668 237.929Z" fill="white"/>
<path fill-rule="evenodd" clip-rule="evenodd" d="M301.737 234.646H303.668V287.562H301.737L275.122 260.421L300.965 235.418L301.737 234.646Z" fill="white"/>
<path fill-rule="evenodd" clip-rule="evenodd" d="M299.807 232.135H301.737V290.265H299.807L299.035 289.492V232.907L299.807 232.135Z" fill="white"/>
<path fill-rule="evenodd" clip-rule="evenodd" d="M297.877 229.817H299.807V292.582H297.877L269.82 258.85L297.104 230.59L297.877 229.817Z" fill="white"/>
<path fill-rule="evenodd" clip-rule="evenodd" d="M295.946 227.693H297.876V294.514H295.946L275.508 264.284L295.174 228.466L295.946 227.693Z" fill="white"/>
<path fill-rule="evenodd" clip-rule="evenodd" d="M294.015 225.955H295.946V296.252H294.015L264.414 257.061L293.243 226.727L294.015 225.955Z" fill="white"/>
<path fill-rule="evenodd" clip-rule="evenodd" d="M292.085 224.41H294.015V297.797H292.085L263.205 294.243L263.719 225.08L292.085 224.41Z" fill="white"/>
<path fill-rule="evenodd" clip-rule="evenodd" d="M290.154 222.865H292.085V299.342H290.154L270.129 298.569L269.717 226.019L290.154 222.865Z" fill="white"/>
<path fill-rule="evenodd" clip-rule="evenodd" d="M288.224 221.706H290.154V300.501H288.224L279.64 295.827L265.431 221.552L288.224 221.706Z" fill="white"/>
<path fill-rule="evenodd" clip-rule="evenodd" d="M286.293 220.547H288.224V301.659H286.293L263.591 285.643V219.157L286.293 220.547Z" fill="white"/>
<path fill-rule="evenodd" clip-rule="evenodd" d="M284.363 219.582H286.293V302.818H284.363L268.764 304.002L266.19 217.779L284.363 219.582Z" fill="white"/>
<path fill-rule="evenodd" clip-rule="evenodd" d="M282.432 218.616H284.363V303.783H282.432L264.672 277.158L279.601 224.333L282.432 218.616Z" fill="white"/>
<path fill-rule="evenodd" clip-rule="evenodd" d="M280.502 217.844H282.432V304.556H280.502L265.418 309.964L264.903 213.157L280.502 217.844Z" fill="white"/>
<path fill-rule="evenodd" clip-rule="evenodd" d="M278.571 217.071H280.502V305.135H278.571L257.722 310.543L258.237 210.427L278.571 217.071Z" fill="white"/>
<path fill-rule="evenodd" clip-rule="evenodd" d="M276.641 216.492H278.571V305.908H276.641L267.838 302.046L256.615 216.543L276.641 216.492Z" fill="white"/>
<path fill-rule="evenodd" clip-rule="evenodd" d="M274.71 215.912H276.641V306.488H274.71L256.126 310.35L258.288 212.359L274.71 215.912Z" fill="white"/>
<path fill-rule="evenodd" clip-rule="evenodd" d="M272.78 215.526H274.71V306.874H272.78L252.239 310.736L252.136 213.312L272.78 215.526Z" fill="white"/>
<path fill-rule="evenodd" clip-rule="evenodd" d="M248.383 0.00219727C226.525 0.140751 205.332 3.08706 185.147 8.49368L187.053 14.6433L224.083 37.7822L249.807 0.00219727C249.332 0.00259887 248.857 0.00219727 248.383 0.00219727Z" fill="white"/>
<path fill-rule="evenodd" clip-rule="evenodd" d="M185.153 8.4939C163.87 14.1943 143.709 22.6364 125.066 33.4129L128.867 39.7919L176.032 57.1735L185.859 10.7392L185.153 8.4939Z" fill="white"/>
<path fill-rule="evenodd" clip-rule="evenodd" d="M125.072 33.407C106.038 44.4092 88.5851 57.8435 73.1479 73.2931L78.8851 79.8594L118.014 81.6154L127.299 39.1462L125.072 33.407Z" fill="white"/>
<path fill-rule="evenodd" clip-rule="evenodd" d="M73.184 73.2629C57.8006 88.6531 44.4139 106.042 33.4458 125.002L45.6141 132.672L81.2921 123.107L75.5609 76.2868L73.184 73.2629Z" fill="white"/>
<path fill-rule="evenodd" clip-rule="evenodd" d="M33.452 124.995C22.632 143.698 14.1662 163.931 8.45801 185.293L21.4889 190.332L56.1897 170.289L35.9737 126.818L33.452 124.995Z" fill="white"/>
<path fill-rule="evenodd" clip-rule="evenodd" d="M8.45808 185.281C2.94105 205.923 5.35475e-05 227.619 5.35475e-05 250.001C5.35475e-05 250.097 -6.69344e-05 250.194 5.35475e-05 250.291H26.641L16.9885 188.877L8.45808 185.281Z" fill="white"/>
<path fill-rule="evenodd" clip-rule="evenodd" d="M4.02991 250.267L0 250.291C0.025502 272.642 2.98485 294.302 8.51232 314.915L23.0574 312.676L32.5592 260.647L4.02991 250.267Z" fill="white"/>
<path fill-rule="evenodd" clip-rule="evenodd" d="M10.3099 314.311L8.5 314.873C14.2424 336.302 22.7648 356.596 33.6508 375.344L45.5836 368.561L49.4869 326.877L10.3099 314.311Z" fill="white"/>
<path fill-rule="evenodd" clip-rule="evenodd" d="M82.1129 367.432L34.8819 374.668L33.6211 375.296C44.6258 394.26 58.0496 411.642 73.4739 427.023L84.2787 415.399L82.1129 367.432Z" fill="white"/>
<path fill-rule="evenodd" clip-rule="evenodd" d="M127.22 409.811L75.6754 424.778L73.4492 427.006C88.8448 442.361 106.235 455.718 125.193 466.662L130.839 457.537L127.22 409.811Z" fill="white"/>
<path fill-rule="evenodd" clip-rule="evenodd" d="M176.834 436.462L126.641 464.272L125.205 466.668C143.928 477.475 164.182 485.924 185.563 491.611L187.946 483.971L176.834 436.462Z" fill="white"/>
<path fill-rule="evenodd" clip-rule="evenodd" d="M231.727 460.295L187.138 486.198L185.533 491.605C206.1 497.078 227.71 500 250 500C250.129 500 250.257 500 250.386 500L231.727 460.295Z" fill="white"/>
<path fill-rule="evenodd" clip-rule="evenodd" d="M279.778 457.561L250.29 495.8L250.386 500C272.752 499.966 294.429 496.991 315.052 491.448L314.159 488.968L279.778 457.561Z" fill="white"/>
<path fill-rule="evenodd" clip-rule="evenodd" d="M330.013 441.996L313.628 487.06L315.052 491.448C336.418 485.705 356.651 477.199 375.35 466.342L375.06 465.66L330.013 441.996Z" fill="white"/>
<path fill-rule="evenodd" clip-rule="evenodd" d="M374.614 415.605L374.131 464.369L375.356 466.336C394.28 455.346 411.635 441.951 426.99 426.559L426.502 425.846L374.614 415.605Z" fill="white"/>
<path fill-rule="evenodd" clip-rule="evenodd" d="M457.336 370.993L414.865 384.512L426.954 426.517L426.991 426.559C442.382 411.131 455.77 393.704 466.729 374.699L457.336 370.993Z" fill="white"/>
<path fill-rule="evenodd" clip-rule="evenodd" d="M491.584 314.541L462.56 316.086L447.544 352.279L466.723 374.705C477.487 356.038 485.906 335.848 491.584 314.541Z" fill="white"/>
<path fill-rule="evenodd" clip-rule="evenodd" d="M500 249.711L470.656 258.402V295.096L491.584 314.541C497.071 293.951 500 272.32 500 250.001C500 249.905 500 249.808 500 249.711Z" fill="white"/>
<path fill-rule="evenodd" clip-rule="evenodd" d="M491.499 185.118L463.803 198.148L470.077 235.228L500 249.711C499.974 227.373 497.021 205.72 491.499 185.118Z" fill="white"/>
<path fill-rule="evenodd" clip-rule="evenodd" d="M466.457 124.839L445.367 133.451L453.668 182.118L491.494 185.118C485.77 163.761 477.291 143.534 466.457 124.839Z" fill="white"/>
<path fill-rule="evenodd" clip-rule="evenodd" d="M426.496 72.9431L409.459 108.11L447.406 130.639L466.458 124.839C455.431 105.811 441.97 88.3678 426.496 72.9431Z" fill="white"/>
<path fill-rule="evenodd" clip-rule="evenodd" d="M374.903 33.3948L362.91 61.4038L407.408 87.4876L426.496 72.949C411.14 57.6414 393.802 44.3217 374.903 33.4007V33.3948Z" fill="white"/>
<path fill-rule="evenodd" clip-rule="evenodd" d="M314.479 8.39722L310.352 27.6735L345.439 54.1677L374.897 33.3947C356.157 22.5656 335.884 14.0952 314.479 8.39722Z" fill="white"/>
<path fill-rule="evenodd" clip-rule="evenodd" d="M249.807 0.00228651L252.883 23.8531L296.772 32.797L314.478 8.39719C293.908 2.92169 272.295 0.00228651 250 0.00228651C249.935 0.00228651 249.871 0.00208571 249.807 0.00228651Z" fill="white"/>
<path fill-rule="evenodd" clip-rule="evenodd" d="M160.039 33.6036C165.274 24.9769 173.658 15.2625 185.161 8.49097C197.709 8.77932 209.891 12.6177 219.305 17.5742L225.483 59.482L183.012 67.2068L160.039 33.6036Z" fill="white"/>
<path fill-rule="evenodd" clip-rule="evenodd" d="M107.143 64.1175C110.048 53.8934 116.472 41.7738 125.083 33.3979C136.594 30.8051 149.579 30.8663 160.038 33.6038L169.498 69.1385L142.471 96.1759L107.143 64.1175Z" fill="white"/>
<path fill-rule="evenodd" clip-rule="evenodd" d="M63.8994 107.57C64.0661 97.6582 66.8495 83.9934 73.1666 73.2815C82.9381 68.0982 94.7986 64.6218 107.143 64.1174L132.818 101.97L105.791 129.007L63.8994 107.57Z" fill="white"/>
<path fill-rule="evenodd" clip-rule="evenodd" d="M33.3978 160.486C30.7748 150.244 30.402 136.771 33.4596 124.974C41.5671 117.508 51.9102 110.982 63.8997 107.57L98.0696 144.457L59.4596 167.632L33.3978 160.486Z" fill="white"/>
<path fill-rule="evenodd" clip-rule="evenodd" d="M17.5673 219.775C12.0952 208.493 8.4768 197.04 8.4668 185.249C15.2025 175.442 21.7053 167.906 33.3975 160.486L71.0422 186.944L51.7372 221.706L17.5673 219.775Z" fill="white"/>
<path fill-rule="evenodd" clip-rule="evenodd" d="M17.7606 280.995C9.69188 272.636 2.57777 260.706 0 250.289C3.59355 238.173 9.87319 227.907 17.5676 219.775L51.7375 229.431L59.4595 268.056L17.7606 280.995Z" fill="white"/>
<path fill-rule="evenodd" clip-rule="evenodd" d="M33.5905 340.091C23.5749 333.798 14.358 324.822 8.5 314.871C8.82956 302.51 12.772 289.495 17.7603 280.995L55.5982 279.643L63.3201 329.855L33.5905 340.091Z" fill="white"/>
<path fill-rule="evenodd" clip-rule="evenodd" d="M64.2857 393.007C52.5627 389.624 41.4159 382.815 33.6291 375.315C30.3796 361.61 31.3647 348.964 33.5909 340.091L80.6951 337.58L94.2086 372.342L64.2857 393.007Z" fill="white"/>
<path fill-rule="evenodd" clip-rule="evenodd" d="M107.529 436.266C96.1787 435.946 82.623 432.288 73.4442 426.996C67.2654 415.521 64.6584 404.675 64.2856 393.007L96.1389 374.274L132.818 393.586L107.529 436.266Z" fill="white"/>
<path fill-rule="evenodd" clip-rule="evenodd" d="M160.618 466.78C149.749 469.063 137.797 469.699 125.201 466.67C116.324 457.052 111.142 447.474 107.529 436.267L128.957 399.381L175.289 430.281L160.618 466.78Z" fill="white"/>
<path fill-rule="evenodd" clip-rule="evenodd" d="M219.691 482.423C209.595 487.833 198.443 491.302 185.52 491.602C173.869 484.154 167.36 476.988 160.618 466.78L175.289 430.28L225.482 449.592L219.691 482.423Z" fill="white"/>
<path fill-rule="evenodd" clip-rule="evenodd" d="M280.888 482.424C272.172 490.652 260.912 497.144 250.386 499.998C238.89 496.952 228.06 490.153 219.691 482.424L229.343 438.005L273.745 447.661L280.888 482.424Z" fill="white"/>
<path fill-rule="evenodd" clip-rule="evenodd" d="M339.961 466.587C333.759 476.889 324.311 485.91 315.053 491.45C302.84 491.29 291.387 487.87 280.888 482.423L275.676 441.867L325.869 434.142L339.961 466.587Z" fill="white"/>
<path fill-rule="evenodd" clip-rule="evenodd" d="M393.05 435.881C389.233 447.676 383.453 457.88 375.346 466.352C364 469.204 351.824 469.211 339.962 466.587L322.008 426.417L366.409 409.036L393.05 435.881Z" fill="white"/>
<path fill-rule="evenodd" clip-rule="evenodd" d="M436.293 392.428C435.833 405.007 432.383 417.579 426.991 426.562C416.537 432.558 404.228 435.388 393.05 435.881L366.409 393.587L406.95 372.343L436.293 392.428Z" fill="white"/>
<path fill-rule="evenodd" clip-rule="evenodd" d="M466.795 339.512C469.603 350.994 469.377 363.742 466.725 374.701C457.978 383.204 446.861 389.256 436.293 392.428L403.089 360.755L437.838 325.993L466.795 339.512Z" fill="white"/>
<path fill-rule="evenodd" clip-rule="evenodd" d="M482.625 280.416C488.516 292.096 491.463 303.17 491.588 314.539C485.33 324.683 477.159 332.71 466.795 339.512L433.977 322.13L435.907 283.506L482.625 280.416Z" fill="white"/>
<path fill-rule="evenodd" clip-rule="evenodd" d="M482.433 219.196C490.778 228.03 496.972 238.652 500 249.709C496.82 261.907 489.801 272.029 482.626 280.416L437.838 268.056L445.56 229.431L482.433 219.196Z" fill="white"/>
<path fill-rule="evenodd" clip-rule="evenodd" d="M466.602 160.099C475.217 165.125 486.601 176.012 491.499 185.123C491.005 199.077 487.68 208.482 482.432 219.196L453.281 221.706L445.56 171.494L466.602 160.099Z" fill="white"/>
<path fill-rule="evenodd" clip-rule="evenodd" d="M435.907 106.991C447.517 110.918 457.165 116.029 466.463 124.843C469.501 137.658 468.875 149.664 466.602 160.099L433.977 165.7L406.95 150.25L435.907 106.991Z" fill="white"/>
<path fill-rule="evenodd" clip-rule="evenodd" d="M392.664 63.9239C403.821 63.8636 416.07 67.2694 426.499 72.9453C432.612 83.7088 435.393 95.5995 435.907 106.991L399.228 123.213L372.201 103.9L392.664 63.9239Z" fill="white"/>
<path fill-rule="evenodd" clip-rule="evenodd" d="M339.575 33.2173C350.94 30.7108 362.987 30.5033 374.903 33.3923C383.537 42.7331 389.382 53.1085 392.664 63.9236L354.826 98.1067L329.729 71.0694L339.575 33.2173Z" fill="white"/>
<path fill-rule="evenodd" clip-rule="evenodd" d="M280.309 17.3809C290.377 12.4474 301.565 8.81316 314.473 8.39087C325.98 15.6043 333.444 23.9044 339.575 33.2172L322.007 62.3788L280.502 56.5851L280.309 17.3809Z" fill="white"/>
<path d="M219.305 17.574C224.929 12.0322 236.684 3.62225 249.807 -0.000244141C261.438 3.61662 270.285 8.72558 280.309 17.3808L266.023 59.4818L225.482 57.5508L219.305 17.574Z" fill="white"/>
<path fill-rule="evenodd" clip-rule="evenodd" d="M160.039 33.6038C152.204 45.9258 148.456 60.2519 148.456 74.5458L166.602 104.866L204.247 90.3821L197.297 54.0748C186.876 43.8858 174.349 36.6598 160.039 33.6038Z" fill="white"/>
<path fill-rule="evenodd" clip-rule="evenodd" d="M106.371 106.605C102.67 91.0903 102.925 78.3785 107.143 64.1177C120.361 63.8155 136.153 66.9652 148.456 74.5461L167.568 125.145L140.54 144.457L106.371 106.605Z" fill="white"/>
<path fill-rule="evenodd" clip-rule="evenodd" d="M74.131 148.706C65.9906 133.744 63.4595 121.79 63.8994 107.57C77.659 102.92 94.2332 103.436 106.37 106.605L146.332 154.113L115.444 165.701L74.131 148.706Z" fill="white"/>
<path fill-rule="evenodd" clip-rule="evenodd" d="M48.6484 191.772C41.1784 182.696 35.7998 171.632 33.3975 160.486C44.375 153.466 59.4426 148.872 74.131 148.706L98.0692 161.838L96.1387 181.151" fill="white"/>
<path fill-rule="evenodd" clip-rule="evenodd" d="M40.5404 246.04C30.2629 238.555 23.3302 230.085 17.5674 219.775C23.9327 212.759 32.5638 206.168 42.0848 202.008L51.7373 237.156L40.5404 246.04Z" fill="white"/>
<path fill-rule="evenodd" clip-rule="evenodd" d="M42.4712 298.763C30.8681 292.879 24.9937 288.475 17.7607 280.995C23.4827 269.279 34.1587 258.477 43.8225 252.22L94.2086 264.194L90.3476 298.956L47.8766 310.543L42.4712 298.763Z" fill="white"/>
<path fill-rule="evenodd" clip-rule="evenodd" d="M74.5175 351.679C60.9146 351.739 45.8886 347.636 33.5908 340.091C35.1443 332.156 38.61 325.221 38.61 325.221L67.1815 320.199L82.6256 349.168L74.5175 351.679Z" fill="white"/>
<path fill-rule="evenodd" clip-rule="evenodd" d="M106.757 393.586C91.7008 397.917 76.1267 396.435 64.2857 393.007C63.3274 376.327 68.7339 361.841 74.5175 351.679L117.375 324.062L140.541 349.168L106.757 393.586Z" fill="white"/>
<path fill-rule="evenodd" clip-rule="evenodd" d="M148.842 425.838C136.226 433.187 123.338 436.646 107.529 436.266C102.731 420.108 103.447 406.342 106.757 393.586L144.402 356.893L171.429 380.068L148.842 425.838Z" fill="white"/>
<path fill-rule="evenodd" clip-rule="evenodd" d="M197.684 446.116C187.024 456.703 174.755 463.47 160.618 466.78C152.899 454.762 148.751 440.228 148.842 425.838L173.359 381.999L206.178 395.518L197.684 446.116Z" fill="white"/>
<path fill-rule="evenodd" clip-rule="evenodd" d="M250.386 453.069C244.166 463.393 234.27 475.046 219.691 482.423C207.883 471.533 201.733 459.816 197.684 446.116L211.969 391.655L244.788 403.242L250.386 453.069Z" fill="white"/>
<path fill-rule="evenodd" clip-rule="evenodd" d="M302.895 445.923C299.142 459.193 293.37 470.66 280.888 482.424C267.56 475.373 256.776 464.532 250.386 453.069L248.648 395.518H294.98L302.895 445.923Z" fill="white"/>
<path fill-rule="evenodd" clip-rule="evenodd" d="M351.737 425.645C351.515 441.128 347.604 454.624 339.961 466.587C324.38 463.028 311.796 455.232 302.896 445.923L291.12 395.518L325.869 380.068L351.737 425.645Z" fill="white"/>
<path fill-rule="evenodd" clip-rule="evenodd" d="M393.629 393.393C397.486 407.286 397.538 422.317 393.05 435.88C377.145 436.221 364.19 432.692 351.737 425.645L325.869 376.205L360.618 353.03L393.629 393.393Z" fill="white"/>
<path fill-rule="evenodd" clip-rule="evenodd" d="M425.869 351.292C433.656 364.871 436.735 378.633 436.293 392.428C425.022 396.303 408.531 397.332 393.629 393.393L356.757 353.03L383.784 325.993L425.869 351.292Z" fill="white"/>
<path fill-rule="evenodd" clip-rule="evenodd" d="M446.139 302.432C456.064 312.48 463.271 324.265 466.795 339.512C456.201 347.184 453.515 349.343 425.869 351.293L412.741 345.306L433.977 297.025L446.139 302.432Z" fill="white"/>
<path fill-rule="evenodd" clip-rule="evenodd" d="M452.896 249.709C466.068 257.459 476.256 268.329 482.625 280.416C473.146 290.265 462.401 297.53 446.139 302.432L412.741 291.231L418.533 250.675L452.896 249.709Z" fill="white"/>
<path fill-rule="evenodd" clip-rule="evenodd" d="M461.003 203.166C470.045 207.533 475.737 212.126 482.432 219.196C474.779 232.285 466.217 241.805 452.895 249.709H415.637L420.463 204.325L461.003 203.166Z" fill="white"/>
<path fill-rule="evenodd" clip-rule="evenodd" d="M425.483 148.319C442.346 148.589 455.037 152.634 466.602 160.099C466.602 160.099 464.3 168.817 460.819 176.404L387.524 180.213L418.852 144.978L425.483 148.319Z" fill="white"/>
<path fill-rule="evenodd" clip-rule="evenodd" d="M393.243 106.411C407.654 102.693 421.782 102.799 435.907 106.991C435.907 123.723 431.888 137.956 425.483 148.319H425.097L383.784 122.247L393.243 106.411Z" fill="white"/>
<path fill-rule="evenodd" clip-rule="evenodd" d="M351.351 74.1598C362.174 67.7315 376.545 63.2655 392.664 63.9245C396.888 80.0179 396.625 93.7052 393.243 106.412L358.687 140.595L323.938 123.213L351.351 74.1598Z" fill="white"/>
<path fill-rule="evenodd" clip-rule="evenodd" d="M302.317 54.0749C312.556 44.6887 322.026 37.7039 339.575 33.2175C346.995 45.7278 351.122 58.693 351.351 74.1596L325.869 117.42L287.259 105.832L302.317 54.0749Z" fill="white"/>
<path fill-rule="evenodd" clip-rule="evenodd" d="M249.807 47.1221C256.097 35.8105 264.98 26.656 280.309 17.3811C291.581 27.9733 298.791 40.6075 302.316 54.0748L283.397 111.626L254.44 98.1073L249.807 47.1221Z" fill="white"/>
<path fill-rule="evenodd" clip-rule="evenodd" d="M197.297 54.0745C201.483 39.4389 208.424 27.5884 219.305 17.574C234.091 25.9328 243.046 35.4767 249.807 47.1219L244.788 105.832L206.178 101.969L197.297 54.0745Z" fill="white"/>
<path fill-rule="evenodd" clip-rule="evenodd" d="M229.344 94.6307L244.894 57.0865C246.172 54.0905 247.914 50.0732 249.807 47.1218C251.761 50.5015 253.364 54.1277 255.234 58.4597L270.27 94.6307L258.301 130.938L237.066 125.144L229.344 94.6307Z" fill="white"/>
<path fill-rule="evenodd" clip-rule="evenodd" d="M193.243 79.7597L195.584 62.2679C195.98 59.3807 196.881 55.3492 197.297 54.0745C199.787 56.4584 202.101 59.251 204.161 61.9433L229.344 94.6307L231.274 127.075L208.108 130.938L193.243 79.7597Z" fill="white"/>
<path fill-rule="evenodd" clip-rule="evenodd" d="M154.633 125.917L149.003 84.0529C148.764 82.2304 148.43 79.0189 148.455 74.5457C152.519 76.8858 155.398 79.0006 159.557 82.0699L175.417 94.3706L189.641 113.666L181.39 143.359L154.633 125.917Z" fill="white"/>
<path fill-rule="evenodd" clip-rule="evenodd" d="M125.676 154.885L109.328 115.515C107.841 111.934 106.371 106.605 106.371 106.605C106.371 106.605 115.818 109.434 124.531 113.465L154.633 125.917L167.568 146.388L163.707 169.563L125.676 154.885Z" fill="white"/>
<path fill-rule="evenodd" clip-rule="evenodd" d="M89.9615 170.335L78.4905 155.346C75.8632 151.726 74.1313 148.706 74.1313 148.706C74.1313 148.706 82.0032 148.892 90.4335 150.196L125.676 154.885L141.506 165.701L136.68 180.185L89.9615 170.335Z" fill="white"/>
<path fill-rule="evenodd" clip-rule="evenodd" d="M56.5638 302.04L51.6387 306.816L76.8702 325.462L104.602 311.818L93.3882 295.067L56.5638 302.04Z" fill="white"/>
<path fill-rule="evenodd" clip-rule="evenodd" d="M85.5212 277.712L63.0507 295.122C58.6741 298.186 54.2471 302.625 54.2471 302.625C54.2471 302.625 57.1851 303.92 62.3606 304.559L102.074 309.715L112.407 312.197L131.804 280.664L85.5212 277.712Z" fill="white"/>
<path fill-rule="evenodd" clip-rule="evenodd" d="M114.672 298.183L107.143 307.839L114.479 312.474L116.409 298.955L114.672 298.183Z" fill="white"/>
<path fill-rule="evenodd" clip-rule="evenodd" d="M125.869 345.499L85.3795 350.918C80.9406 351.591 74.5176 351.679 74.5176 351.679C75.0229 350.627 75.8689 349.361 75.8689 349.361L113.514 325.993L128.958 342.409L125.869 345.499Z" fill="white"/>
<path fill-rule="evenodd" clip-rule="evenodd" d="M154.826 374.274L115.383 390.768C110.899 392.772 106.757 393.586 106.757 393.586C106.757 393.586 108.511 387.167 110.132 383.774L125.869 345.499L140.541 337.58L167.568 333.718L171.429 354.962L154.826 374.274Z" fill="white"/>
<path fill-rule="evenodd" clip-rule="evenodd" d="M190.348 394.745L155.893 421.244C153.22 423.225 148.842 425.838 148.842 425.838C148.901 419.938 149.902 412.341 149.902 412.341L154.826 374.274L165.637 360.755L198.456 353.03L190.348 394.745Z" fill="white"/>
<path fill-rule="evenodd" clip-rule="evenodd" d="M229.73 405.367L204.662 438.124C202.108 441.703 197.684 446.116 197.684 446.116C197.674 446.176 196.039 439.362 195.499 433.827L190.348 394.745L196.525 376.205L225.483 362.687L229.73 405.367Z" fill="white"/>
<path fill-rule="evenodd" clip-rule="evenodd" d="M270.656 405.174L255.446 442.181C254.215 445.634 250.386 453.068 250.386 453.068C247.62 448.536 245.353 442.742 245.353 442.742L229.729 405.367L233.204 381.999L254.44 364.617L270.656 405.174Z" fill="white"/>
<path fill-rule="evenodd" clip-rule="evenodd" d="M310.232 394.745L305.196 432.879C305.196 432.879 304.085 441.504 302.896 445.923C299.813 443.169 295.725 437.849 295.725 437.849L270.656 405.174L271.815 368.48L294.981 364.617L310.232 394.745Z" fill="white"/>
<path fill-rule="evenodd" clip-rule="evenodd" d="M345.367 374.081L351.051 415.412C351.589 419.528 351.737 425.645 351.737 425.645C348.35 423.718 343.876 420.473 343.876 420.473L310.231 394.745L301.737 375.24L314.286 349.168L345.367 374.081Z" fill="white"/>
<path fill-rule="evenodd" clip-rule="evenodd" d="M374.324 345.112L390.925 384.964C390.925 384.964 392.98 390.118 393.629 393.393C388.832 392.019 382.576 389.483 382.576 389.483L345.367 374.081L325.869 345.305L345.174 322.13L374.324 345.112Z" fill="white"/>
<path fill-rule="evenodd" clip-rule="evenodd" d="M374.324 345.112L416.22 350.653C420.955 351.173 425.868 351.292 425.868 351.292C424.641 349.014 422.007 345.112 422.007 345.112L406.949 316.337L389.575 300.887L352.896 310.543L356.757 331.786L374.324 345.112Z" fill="white"/>
<path fill-rule="evenodd" clip-rule="evenodd" d="M425.869 286.016L440.192 296.974C443.733 299.852 446.139 302.432 446.139 302.432L436.827 304.267L421.578 304.719L420.457 289.822L425.869 286.016Z" fill="white"/>
<path fill-rule="evenodd" clip-rule="evenodd" d="M425.059 237.511L445.191 245.882C448.472 247.277 452.896 249.709 452.896 249.709C449.43 251.727 444.101 254.109 444.101 254.109L424.631 262.211L415.877 250.307L425.059 237.511Z" fill="white"/>
<path fill-rule="evenodd" clip-rule="evenodd" d="M374.041 136.747L387.997 131.948L385.255 161.054L366.128 158L374.041 136.747Z" fill="white"/>
<path fill-rule="evenodd" clip-rule="evenodd" d="M345.174 125.723L383.636 109.697C388.115 107.792 393.243 106.411 393.243 106.411C392.069 110.737 389.757 116.693 389.757 116.693L382.203 135.064L374.131 154.499L354.826 165.7L327.799 161.838L345.174 125.723Z" fill="white"/>
<path fill-rule="evenodd" clip-rule="evenodd" d="M309.846 105.275L343.436 79.3961C343.436 79.3961 347.507 76.33 351.351 74.1814C351.271 78.7999 350.396 86.0335 350.396 86.0335L345.174 125.746L329.73 145.444L296.911 140.616L309.846 105.275Z" fill="white"/>
<path fill-rule="evenodd" clip-rule="evenodd" d="M270.27 94.6307L293.534 64.4009C293.534 64.4009 299.096 56.9339 302.317 54.0745C303.489 58.0042 304.433 65.2775 304.433 65.2775L309.846 105.252L291.12 132.869L267.954 127.075L270.27 94.6307Z" fill="white"/>
<path fill-rule="evenodd" clip-rule="evenodd" d="M158.88 159.134L154.633 125.917L174.904 134.221L190.734 142.525L183.012 167.631L158.88 159.134Z" fill="white"/>
<path fill-rule="evenodd" clip-rule="evenodd" d="M158.88 159.134L125.676 154.885L133.977 174.777L142.471 190.806L167.568 185.012L158.88 159.134Z" fill="white"/>
<path fill-rule="evenodd" clip-rule="evenodd" d="M159.266 341.057L154.826 374.274L185.907 361.528L194.594 347.237L175.289 325.993L159.266 341.057Z" fill="white"/>
<path fill-rule="evenodd" clip-rule="evenodd" d="M185.907 361.528L190.347 394.745L216.988 374.467L221.621 354.962L200.386 345.305L185.907 361.528Z" fill="white"/>
<path fill-rule="evenodd" clip-rule="evenodd" d="M182.625 337.967L185.907 361.528L207.722 352.258L211.004 338.546L199.421 328.89L182.625 337.967Z" fill="white"/>
<path fill-rule="evenodd" clip-rule="evenodd" d="M250.193 378.716L229.73 405.367L216.988 374.467L223.552 349.168L248.648 358.824L250.193 378.716Z" fill="white"/>
<path fill-rule="evenodd" clip-rule="evenodd" d="M314.093 138.47L345.174 125.723L340.926 158.941L323.938 170.528L307.529 164.734L314.093 138.47Z" fill="white"/>
<path fill-rule="evenodd" clip-rule="evenodd" d="M283.204 125.724L309.845 105.253L314.093 138.47L303.762 157.502L277.844 151.394L283.204 125.724Z" fill="white"/>
<path fill-rule="evenodd" clip-rule="evenodd" d="M249.807 121.282L270.27 94.6311L283.204 125.724L276.641 146.388L250.579 142.525L249.807 121.282Z" fill="white"/>
<path fill-rule="evenodd" clip-rule="evenodd" d="M249.807 121.282L229.344 94.6311L216.227 127.523L219.778 137.807L238.656 144.102L249.807 121.282Z" fill="white"/>
<path fill-rule="evenodd" clip-rule="evenodd" d="M374.131 154.499L381.467 153.533L389.575 159.907L382.819 177.288L361.583 174.391L374.131 154.499Z" fill="white"/>
<path fill-rule="evenodd" clip-rule="evenodd" d="M340.926 158.941L374.131 154.499L366.829 171.886L353.436 188.897L335.726 183.256L335.594 165.495L340.926 158.941Z" fill="white"/>
<path fill-rule="evenodd" clip-rule="evenodd" d="M337.645 182.502L352.509 184.434L359.652 188.875L353.861 212.05L329.729 201.428L337.645 182.502Z" fill="white"/>
<path fill-rule="evenodd" clip-rule="evenodd" d="M317.375 162.031L340.927 158.941L337.645 182.502L326.834 190.806L310.425 182.115L317.375 162.031Z" fill="white"/>
<path fill-rule="evenodd" clip-rule="evenodd" d="M292.278 147.74L314.093 138.47L317.375 162.031L310.425 171.494L287.259 169.563L292.278 147.74Z" fill="white"/>
<path fill-rule="evenodd" clip-rule="evenodd" d="M264.286 140.208L283.205 125.723L292.278 147.74L287.259 159.907L264.093 158.941L264.286 140.208Z" fill="white"/>
<path fill-rule="evenodd" clip-rule="evenodd" d="M235.521 140.208L249.807 121.281L264.285 140.208L259.266 157.01L244.787 159.907L235.521 140.208Z" fill="white"/>
<path fill-rule="evenodd" clip-rule="evenodd" d="M250 154.306C258.233 144.817 264.286 140.208 264.286 140.208C270.055 147.122 274.71 157.589 274.71 157.589L264.093 173.425H251.544L250 154.306Z" fill="white"/>
<path fill-rule="evenodd" clip-rule="evenodd" d="M235.521 140.208L218.34 127.075L214.865 157.01L229.344 162.803L235.521 140.208Z" fill="white"/>
<path fill-rule="evenodd" clip-rule="evenodd" d="M235.521 140.208C230.094 146.968 223.552 158.941 223.552 158.941L234.17 172.46L241.892 173.425L250 154.306C245.546 149.034 240.692 144.096 235.521 140.208Z" fill="white"/>
<path fill-rule="evenodd" clip-rule="evenodd" d="M162.162 182.695L158.88 159.134L174.904 161.258L184.942 167.631L177.22 189.841L162.162 182.695Z" fill="white"/>
<path fill-rule="evenodd" clip-rule="evenodd" d="M147.104 184.626L162.162 182.695L169.498 190.806L175.29 208.188L140.541 210.119L147.104 184.626Z" fill="white"/>
<path fill-rule="evenodd" clip-rule="evenodd" d="M167.181 202.394C165.262 197.496 163.355 191.218 162.162 182.695C162.162 182.695 168.609 181.923 174.903 181.923L183.977 192.738L174.324 206.256L167.181 202.394Z" fill="white"/>
<path fill-rule="evenodd" clip-rule="evenodd" d="M84.4798 231.735L84.3916 238.963L110.825 243.326L105.009 218.337L84.4798 231.735Z" fill="white"/>
<path fill-rule="evenodd" clip-rule="evenodd" d="M94.7873 229.817L85.4486 233.763L75.1396 233.983L79.5452 209.127L94.7873 229.817Z" fill="white"/>
<path fill-rule="evenodd" clip-rule="evenodd" d="M94.7874 229.817L79.3911 218.007L83.9507 198.461L129.504 205.512L132.147 224.551L94.7874 229.817Z" fill="white"/>
<path d="M125.868 216.878L120.362 209.854L137.059 213.269L130.473 217.897L125.868 216.878Z" fill="white"/>
<path fill-rule="evenodd" clip-rule="evenodd" d="M125.869 216.878L94.7876 229.817L110.425 241.598L114.479 251.64L133.784 249.709L147.297 232.328L125.869 216.878Z" fill="white"/>
<path fill-rule="evenodd" clip-rule="evenodd" d="M140.154 235.611L125.869 216.878L132.802 213.893L147.683 207.802L165.637 219.775L159.846 237.156L140.154 235.611Z" fill="white"/>
<path fill-rule="evenodd" clip-rule="evenodd" d="M140.155 235.611L125.606 246.972L144.889 263.521L160.029 250.432L140.155 235.611Z" fill="white"/>
<path fill-rule="evenodd" clip-rule="evenodd" d="M140.154 235.611C144.473 241.241 149.925 246.39 154.247 250.096L173.359 248.744L179.15 233.294L157.722 225.376C150.719 228.302 146.157 231.303 140.154 235.611Z" fill="white"/>
<path fill-rule="evenodd" clip-rule="evenodd" d="M157.722 225.375C154.268 220.404 150.08 214.476 147.684 207.801C153.903 205.059 160.745 203.267 167.182 202.393L183.012 210.119L181.081 225.569L157.722 225.375Z" fill="white"/>
<path fill-rule="evenodd" clip-rule="evenodd" d="M167.182 202.393C167.182 202.393 171.555 201.722 174.904 201.621L180.116 208.188L175.145 217.72C175.145 217.72 170.483 210.179 167.182 202.393Z" fill="white"/>
<path fill-rule="evenodd" clip-rule="evenodd" d="M172.766 240.594C172.766 240.594 162.396 232.118 157.722 225.376C163.863 222.35 175.497 220.144 175.497 220.144L183.383 240.109L172.766 240.594Z" fill="white"/>
<path fill-rule="evenodd" clip-rule="evenodd" d="M154.247 250.096C161.022 244.987 167.96 241.429 174.969 238.545L184.749 255.931L170.079 264.481L154.747 259.016L154.247 250.096Z" fill="white"/>
<path fill-rule="evenodd" clip-rule="evenodd" d="M144.747 259.148C144.747 259.148 148.536 254.474 154.247 250.095C162.956 257.673 171.444 261.925 171.444 261.925L162.633 285.723L141.223 283.608L144.747 259.148Z" fill="white"/>
<path d="M159.266 341.057L125.869 345.499L127.606 341.443L154.826 279.542C160.654 268.308 175.365 257.65 175.365 257.65L184.485 282.991L159.266 341.057Z" fill="white"/>
<path d="M182.625 337.967L159.266 341.057C162.139 312.984 176.29 269.068 176.29 269.068L199.965 312.447L182.625 337.967Z" fill="white"/>
<path d="M202.317 333.717C202.317 333.717 190.342 336.762 182.625 337.966C181.154 323.697 181.964 314.566 185.978 300.653L219.905 331.47L208.627 337.111L202.317 333.717Z" fill="white"/>
<path fill-rule="evenodd" clip-rule="evenodd" d="M207.722 352.258C204.305 343.798 202.316 333.718 202.316 333.718L212.862 330.647L233.484 344.546L210.619 353.645L207.722 352.258Z" fill="white"/>
<path fill-rule="evenodd" clip-rule="evenodd" d="M228.452 342.498L207.722 352.258L216.988 374.467L235.714 359.983L248.648 360.755L256.37 335.649L228.452 342.498Z" fill="white"/>
<path fill-rule="evenodd" clip-rule="evenodd" d="M250.425 347.573L235.714 359.983L250.193 378.716L264.092 380.068L285.328 341.443L250.425 347.573Z" fill="white"/>
<path fill-rule="evenodd" clip-rule="evenodd" d="M272.237 349.563L250.193 378.716L270.656 405.174L283.397 374.274L298.841 368.48L302.702 325.993L272.237 349.563Z" fill="white"/>
<path fill-rule="evenodd" clip-rule="evenodd" d="M295.788 344.234L283.397 374.274L310.231 394.745L314.479 361.335L325.868 349.168L322.007 318.268L295.788 344.234Z" fill="white"/>
<path fill-rule="evenodd" clip-rule="evenodd" d="M318.279 331.519L314.479 361.334L345.366 374.081L341.119 341.056L349.034 325.993L333.59 298.955L318.279 331.519Z" fill="white"/>
<path fill-rule="evenodd" clip-rule="evenodd" d="M337.344 307.71L341.12 341.057L374.324 345.112L361.39 314.212L368.34 291.231L345.174 271.918L337.344 307.71Z" fill="white"/>
<path fill-rule="evenodd" clip-rule="evenodd" d="M348.497 282.281L361.39 314.212L387.904 310.671L391.86 287.018L347.749 247.876L348.497 282.281Z" fill="white"/>
<path fill-rule="evenodd" clip-rule="evenodd" d="M352.92 255.605L383.635 295.182L388.495 248.998L340.023 220.203L339.711 246.006L352.92 255.605Z" fill="white"/>
<path fill-rule="evenodd" clip-rule="evenodd" d="M374.944 212.801L382.296 212.755L383.09 221.419L371.969 219.518L374.944 212.801Z" fill="white"/>
<path fill-rule="evenodd" clip-rule="evenodd" d="M374.324 216.492L376.969 213.067L367.888 211.243L364.041 215.388L369.975 217.788L374.324 216.492Z" fill="white"/>
<path d="M359.652 235.418L382.14 252.551L383.448 220.764L381.564 219.596L374.324 216.492L359.652 220.74V235.418Z" fill="white"/>
<path d="M333.591 202.2C333.591 202.2 345.665 204.576 352.51 207.608L367.181 213.595L374.324 216.492L359.652 235.418C354.349 231.074 344.945 226.249 344.945 226.249L325.07 202.253L331.425 197.828L333.591 202.2Z" fill="white"/>
<path fill-rule="evenodd" clip-rule="evenodd" d="M317.707 182.045C325.716 181.594 330.495 181.675 337.645 182.502C336.442 189.065 335.125 195.638 333.591 202.201L327.438 201.256L312.547 190.785L317.707 182.045Z" fill="white"/>
<path fill-rule="evenodd" clip-rule="evenodd" d="M298.456 166.666C305.738 164.069 311.588 163.016 317.374 162.031C318.394 171.295 318.342 181.944 318.147 190.806L279.537 174.391L294.981 165.7L298.456 166.666Z" fill="white"/>
<path d="M274.71 157.589C274.71 157.589 283.608 150.893 292.278 147.74C295.242 154.71 298.456 166.666 298.456 166.666L283.591 174.198L275.676 176.322L274.71 157.589Z" fill="white"/>
<path d="M274.71 157.589C268.72 162.591 262.955 167.514 258.359 173.214L258.343 176.013L280.4 176.506C280.4 176.506 277.862 165.044 274.71 157.589Z" fill="white"/>
<path d="M250 154.306C254.562 159.42 260.649 172.274 260.649 172.274L255.633 177.291L241.508 178.642L238.157 173.988C238.157 173.988 243.079 162.033 250 154.306Z" fill="white"/>
<path fill-rule="evenodd" clip-rule="evenodd" d="M270.849 215.14H272.78V307.26H270.849L257.722 308.651L254.942 210.865L270.849 215.14Z" fill="white"/>
<path fill-rule="evenodd" clip-rule="evenodd" d="M268.919 214.947H270.849V307.453H268.919L248.069 310.08V210.157L268.919 214.947Z" fill="white"/>
<path fill-rule="evenodd" clip-rule="evenodd" d="M266.988 214.754H268.919V307.839H266.988L243.565 311.29L243.977 229.946L266.988 214.754Z" fill="white"/>
<path fill-rule="evenodd" clip-rule="evenodd" d="M265.058 214.561H266.988V307.839H265.058L237.619 308.612L261.712 220.689L265.058 214.561Z" fill="white"/>
<path fill-rule="evenodd" clip-rule="evenodd" d="M263.127 214.561H265.058V308.032H263.127L237.954 309.436L238.365 209.565L263.127 214.561Z" fill="white"/>
<path fill-rule="evenodd" clip-rule="evenodd" d="M261.197 214.561H263.127V308.033H261.197L242.407 311.38L242.098 213.17L261.197 214.561Z" fill="white"/>
<path fill-rule="evenodd" clip-rule="evenodd" d="M259.266 214.561H261.197V308.032H259.266L241.815 313.131L241.506 208.329L259.266 214.561Z" fill="white"/>
<path fill-rule="evenodd" clip-rule="evenodd" d="M257.336 214.561H259.266V308.033H257.336L238.442 311.483L238.648 208.638L257.336 214.561Z" fill="white"/>
<path fill-rule="evenodd" clip-rule="evenodd" d="M255.405 214.753H257.336V307.839H255.405L240.527 312.526L239.91 212.642L255.405 214.753Z" fill="white"/>
<path fill-rule="evenodd" clip-rule="evenodd" d="M253.475 214.754H255.405V307.839H253.475L240.245 311.908L239.318 213.775L253.475 214.754Z" fill="white"/>
<path d="M251.544 214.947H253.474V307.646H251.544L238.829 311.406L238.52 213.762L251.544 214.947Z" fill="white"/>
<path fill-rule="evenodd" clip-rule="evenodd" d="M249.614 215.912H251.545V306.68H249.614L239.987 307.762L239.267 212.153L249.614 215.912Z" fill="white"/>
<path fill-rule="evenodd" clip-rule="evenodd" d="M247.684 216.299H249.614V306.295H247.684L236.821 306.861L237.13 213.672L247.684 216.299Z" fill="white"/>
<path fill-rule="evenodd" clip-rule="evenodd" d="M245.753 216.878H247.684V305.715H245.753L237.465 306.282L237.259 218.371L245.753 216.878Z" fill="white"/>
<path fill-rule="evenodd" clip-rule="evenodd" d="M243.822 217.65H245.753V304.942H243.822L220.296 296.136L220.399 217.702L243.822 217.65Z" fill="white"/>
<path fill-rule="evenodd" clip-rule="evenodd" d="M241.892 218.423H243.822V304.17H241.892L222.587 303.707V218.887L241.892 218.423Z" fill="white"/>
<path fill-rule="evenodd" clip-rule="evenodd" d="M239.961 219.196H241.892V303.205H239.961L218.288 303.874L216.023 218.423L239.961 219.196Z" fill="white"/>
<path fill-rule="evenodd" clip-rule="evenodd" d="M238.031 220.161H239.962V302.239H238.031L217.593 302.084L217.079 223.715L238.031 220.161Z" fill="white"/>
<path fill-rule="evenodd" clip-rule="evenodd" d="M236.101 221.32H238.031V301.08H236.101L215.457 300.411L216.796 220.754L236.101 221.32Z" fill="white"/>
<path fill-rule="evenodd" clip-rule="evenodd" d="M234.17 222.671H236.1V299.728H234.17L217.439 299.574L215.688 221.796L234.17 222.671Z" fill="white"/>
<path fill-rule="evenodd" clip-rule="evenodd" d="M232.239 224.024H234.17V298.184H232.239L215.096 297.72L214.479 224.487L232.239 224.024Z" fill="white"/>
<path fill-rule="evenodd" clip-rule="evenodd" d="M232.239 225.569H230.309L214.401 227.474L213.681 294.333L230.309 296.445H232.239V225.569Z" fill="white"/>
<path fill-rule="evenodd" clip-rule="evenodd" d="M230.309 227.5H228.378L214.016 228.272L214.633 294.243L228.378 294.707H230.309V227.5Z" fill="white"/>
<path fill-rule="evenodd" clip-rule="evenodd" d="M228.378 229.431V292.582H226.448L207.452 292.737L207.658 230.307L226.448 229.431H228.378Z" fill="white"/>
<path fill-rule="evenodd" clip-rule="evenodd" d="M226.448 290.072H224.517L209.537 290.638L209.846 227.371L224.517 231.749H226.448V290.072Z" fill="white"/>
<path fill-rule="evenodd" clip-rule="evenodd" d="M210.283 287.329L222.587 287.175H224.517V234.259H222.587L211.931 233.384L210.283 287.329Z" fill="white"/>
<path fill-rule="evenodd" clip-rule="evenodd" d="M222.587 283.699H220.656L207.323 284.883L208.044 234.594L220.656 237.735H222.587V283.699Z" fill="white"/>
<path fill-rule="evenodd" clip-rule="evenodd" d="M218.726 241.598H220.656V279.836H218.726L205.393 279.682L206.113 240.928L218.726 241.598Z" fill="white"/>
<path fill-rule="evenodd" clip-rule="evenodd" d="M216.795 246.812H218.726V274.236H216.795L200.682 257.601L216.795 246.812Z" fill="white"/>
<path d="M218.533 153.147C236.047 164.929 242.466 183.232 242.466 183.232L213.367 208.104L211.011 155.353L218.533 153.147Z" fill="white"/>
<path d="M38.6101 303.011C38.6101 300.183 40.3824 298.682 42.7548 298.682C44.2671 298.682 45.5696 299.24 46.7182 299.728C61.261 305.342 75.556 310.661 92.5118 310.622C104.49 310.622 114.718 306.418 114.718 295.734C114.718 289.893 112.725 287.858 110.232 286.595C107.496 285.087 104.416 283.677 101.266 282.504C93.0144 279.431 84.9575 278.082 76.4479 274.815C68.3467 271.749 58.1491 267.455 50.6252 260.331C41.4018 251.88 36.6694 240.464 36.6694 225.904C36.6694 191.081 65.1918 169.541 100.692 169.541C124.205 169.541 143.436 176.901 143.436 176.901C145.265 177.523 147.104 178.127 147.104 180.184V213.788C147.104 216.321 145.928 218.22 143.706 218.22C142.412 218.22 139.768 217.071 139.768 217.071C139.768 217.071 117.707 208.541 102.609 208.707C85.6101 208.707 78.955 216.081 78.955 224.165C78.955 231.627 86.0625 233.609 95.5627 236.622C100.123 237.872 118.56 242.613 126.834 246.426C145.292 253.84 157.062 270.998 157.062 292.607C157.062 324.475 133.642 350.623 91.209 350.623C73.9055 350.623 62.4494 348.154 41.892 341.056C40.0402 340.47 38.6101 339.708 38.6101 337.387V303.011Z" fill="black"/>
<path d="M381.371 213.595H355.985C354.127 213.595 352.51 212.514 352.51 210.119V174.005C352.51 172.227 353.912 170.818 355.599 170.818H381.371V120.123C381.371 118.029 382.633 116.647 384.942 116.647H421.815C423.96 116.647 425.29 118.103 425.29 120.123V170.818H457.143C459.527 170.818 461.004 172.061 461.004 174.584V209.926C461.004 212.247 459.497 213.595 457.336 213.595H425.29V275.351C425.29 281.219 425.514 294.024 432.346 300.626C437.949 306.1 448.513 307.26 457.529 307.26C459.468 307.26 461.004 308.656 461.004 310.736V346.464C461.004 348.37 459.862 350.037 457.452 350.037H452.046C423.761 350.037 408.173 339.951 399.163 330.856C386.754 318.05 381.371 302.38 381.371 276.553V213.595Z" fill="black"/>
<path d="M178.168 79.2C176.165 79.2 174.886 80.636 174.886 82.4836V251.871C174.886 288.803 182.568 305.03 195.971 320.333C214.849 341.889 241.471 350.563 263.158 350.563C314.506 350.563 353.554 308.754 353.554 261.238C353.554 212.858 313.466 171.888 266.03 171.888C237.93 171.888 218.805 187.542 218.805 187.542V82.4836C218.805 80.4073 217.175 79.2 215.523 79.2H178.168ZM262.863 214.676C288.725 214.676 309.545 234.053 309.545 261.376C309.545 289.27 287.225 307.87 262.326 307.87C234.587 307.87 216.784 284.872 216.784 259.952C216.784 237.995 233.65 214.676 262.863 214.676Z" fill="black"/>
</g>
<defs>
<clipPath id="clip0_38_58">
<rect width="500" height="500" fill="white"/>
</clipPath>
</defs>
</svg>
