<svg width="1000" height="1000" viewBox="0 0 1000 1000" fill="none" xmlns="http://www.w3.org/2000/svg">
<g clip-path="url(#clip0_27_79)">
<path d="M500.285 1000.57C775.499 1000.57 1000 775.499 1000 500.285C1000 225.071 775.499 0 500.285 0C224.501 0 0 225.071 0 500.285C0 776.068 225.071 1000.57 500.285 1000.57Z" fill="#2762A6"/>
<path d="M36.4674 500.855C36.4674 756.695 245.014 965.242 501.425 965.242C757.265 965.242 965.812 756.695 965.812 500.855C965.812 244.445 757.265 35.8973 501.425 35.8973C245.014 35.8973 36.4674 244.445 36.4674 500.855ZM65.5273 500.855C65.5273 260.399 260.969 64.9574 501.425 64.9574C741.311 64.9574 936.752 260.399 936.752 500.855C936.752 740.741 741.311 936.182 501.425 936.182C260.969 936.752 65.5273 741.311 65.5273 500.855Z" fill="white"/>
<path d="M501.425 760.684C358.405 760.684 242.165 644.444 242.165 501.994C242.165 359.544 358.405 243.305 501.425 243.305C643.305 243.305 760.114 359.544 760.114 501.994C760.114 644.444 643.305 760.684 501.425 760.684Z" fill="white"/>
<path d="M192.023 501.994C192.023 671.795 330.484 810.257 500.285 810.257C670.085 810.257 807.977 671.795 807.977 501.994C807.977 332.194 669.516 193.732 500.285 193.732C330.484 193.732 192.023 332.194 192.023 501.994ZM220.513 501.994C220.513 347.578 345.869 222.222 500.285 222.222C654.131 222.222 779.487 347.578 779.487 501.994C779.487 656.41 654.131 781.766 500.285 781.766C346.439 781.766 220.513 656.41 220.513 501.994Z" fill="white"/>
<path d="M316.239 300.285C414.245 254.131 461.538 301.425 533.333 309.402C599.43 333.903 662.108 305.413 721.937 296.866C674.644 488.889 742.45 575.499 753.846 714.53C621.083 708.262 513.96 621.083 356.695 698.006C374.929 564.673 360.114 430.769 316.239 300.285Z" fill="#CD3529"/>
<path d="M525.356 306.553V400H707.692L723.077 296.296C646.724 313.96 585.185 325.926 525.356 306.553Z" fill="white"/>
<path d="M916.24 560.114L919.089 542.45L867.237 534.473L833.049 529.345L830.77 528.775L828.49 546.439L833.049 547.578L866.667 552.707L861.539 587.464L833.049 582.906L822.792 581.197L819.943 598.86L833.049 601.14L867.237 606.838L908.262 613.105L911.111 595.442L876.354 589.744L881.482 554.986L916.24 560.114Z" fill="white"/>
<path d="M833.049 622.222L811.396 614.815L805.698 631.339L833.049 641.026L867.237 652.991L890.029 660.399L895.727 643.875L867.237 634.188L833.049 622.222Z" fill="white"/>
<path d="M833.048 433.618L827.35 431.909L827.92 450.712L833.048 452.422L848.433 457.55L849.572 492.878L833.048 499.715L830.199 501.425L830.769 520.798L833.048 519.658L867.236 504.274L917.948 482.051L917.379 463.248L867.236 445.584L833.048 433.618ZM897.436 472.935L867.806 484.9L864.957 486.61L863.817 462.108L867.806 463.818L897.436 472.935Z" fill="white"/>
<path d="M803.989 640.456L794.302 656.98L807.977 673.504L789.744 703.704L768.661 700.285L758.405 716.809L833.618 729.345L852.991 732.194L862.678 715.669L833.048 678.063L803.989 640.456ZM839.886 713.39L833.048 711.681L805.128 706.553L817.664 686.04L833.048 704.843L839.886 713.39Z" fill="white"/>
<path d="M783.476 300.855L750.427 263.818L768.091 247.863L797.721 280.912L809.117 271.225L778.917 237.607L793.732 224.502L826.211 259.829L833.048 253.561L837.037 250.143L833.048 245.584L793.162 201.14L739.031 249.573L727.065 260.399L739.031 274.074L772.08 311.111L783.476 300.855Z" fill="white"/>
<path d="M796.582 356.695L807.408 385.185C811.396 396.011 814.245 402.849 815.955 405.698C818.234 409.687 821.083 413.106 823.932 415.385C826.211 417.094 829.63 418.234 833.049 418.803C833.619 418.803 834.758 418.803 835.328 418.803C839.317 419.373 843.305 418.803 847.294 417.664C852.422 415.385 855.841 412.536 858.12 408.547C860.399 404.559 861.539 399.43 861.539 394.302C863.248 396.012 864.958 397.151 867.237 398.291C868.946 398.861 870.656 399.43 872.365 399.43C876.354 400.57 880.342 400 883.761 398.86C887.18 397.721 890.599 395.442 892.878 392.593C895.157 389.744 896.867 386.325 897.436 383.476C898.006 380.057 898.006 377.208 897.436 373.789C896.867 370.37 895.157 365.242 892.308 358.974L879.772 325.926L867.237 330.484L833.049 343.59L796.582 356.695ZM867.237 348.718L872.365 347.009L876.354 356.695C879.203 364.672 880.912 369.231 881.482 370.94C882.052 374.359 882.052 376.638 880.912 378.348C879.772 380.627 878.063 381.766 875.784 382.906C872.935 384.046 870.656 384.046 868.376 382.906C868.376 382.906 868.376 382.906 867.807 382.906C866.097 381.766 864.388 379.487 862.678 377.208C862.109 376.068 860.399 372.08 857.55 365.242L853.562 354.416L867.237 348.718ZM839.886 359.544L845.015 373.219C847.864 381.197 849.003 385.755 849.003 388.604C849.573 391.453 848.433 393.163 847.294 395.442C846.154 397.151 844.445 398.29 841.596 399.43C838.747 400.57 836.468 400.57 833.619 400C833.619 400 833.619 399.43 833.049 399.43C830.77 398.29 829.63 397.151 827.921 394.872C826.781 393.732 825.072 389.744 822.792 383.476L817.094 368.091L833.049 361.823L839.886 359.544Z" fill="white"/>
<path d="M731.054 226.211C733.333 221.653 734.473 217.094 733.903 212.536C733.333 207.407 731.054 203.419 727.065 198.861C731.054 198.861 735.042 198.29 738.461 197.151L739.031 196.581C742.45 194.872 745.869 192.023 748.148 188.604C749.857 185.755 750.997 181.766 750.997 178.348C750.997 174.929 750.427 171.51 749.288 168.661C747.578 165.812 745.869 162.963 743.02 160.684C741.88 159.544 740.741 158.405 739.031 157.835C736.752 156.125 733.903 154.416 729.914 151.567L715.1 142.45L699.715 133.333L659.259 200.57L653.561 209.687L659.259 213.106L679.772 225.641C689.459 231.339 695.726 234.758 698.575 236.467C703.134 238.177 707.692 239.316 711.111 238.747C712.251 238.747 713.39 238.177 715.1 238.177C717.379 237.607 720.228 236.467 722.507 234.758C725.926 233.049 728.775 229.63 731.054 226.211ZM715.669 215.955C715.669 216.524 715.669 216.524 715.669 215.955C713.96 218.804 712.25 220.513 709.971 221.083C707.692 221.652 704.843 221.653 702.564 220.513C700.855 220.513 697.436 218.234 691.738 214.815L677.493 206.268L690.028 186.325L702.564 193.732C709.402 197.721 713.96 200.57 715.669 202.849C715.669 202.849 716.239 202.849 716.239 203.419C717.379 205.128 718.518 207.408 718.518 209.117C717.948 211.396 716.809 213.675 715.669 215.955ZM718.518 185.755C717.948 185.185 716.809 185.185 715.669 184.616C713.96 182.906 711.111 181.766 707.692 179.487L697.436 173.22L708.262 155.556L716.239 160.114L717.379 160.684C724.786 164.672 729.345 167.521 730.484 168.661C732.763 170.37 734.473 172.649 734.473 174.359C734.473 176.638 734.473 178.917 732.763 181.197C731.054 183.476 729.345 185.185 726.496 185.755C723.647 187.464 721.367 186.894 718.518 185.755Z" fill="white"/>
<path d="M664.957 117.379L659.829 115.669L647.863 111.681L631.339 157.835C629.06 164.672 627.35 169.231 625.641 172.08C623.932 174.929 621.652 176.638 618.803 177.778C615.954 179.487 611.966 178.917 606.838 177.208C601.71 176.068 598.86 173.22 596.581 170.371C594.302 167.522 593.732 164.103 594.302 160.684C594.302 158.405 595.442 153.846 598.291 146.439L614.245 100.855L597.151 95.1568L581.766 140.171C578.917 149.857 576.638 156.695 576.068 161.824C576.068 165.242 576.068 168.661 577.778 172.65C578.917 176.638 581.766 180.057 584.615 183.476C588.034 186.325 593.732 189.744 601.709 192.593C608.547 194.872 614.245 196.011 619.373 195.442C623.932 195.442 627.92 194.302 631.339 192.593C634.758 190.313 637.607 187.464 640.456 184.046C642.735 180.057 645.584 173.219 649.003 162.963L658.689 134.473L664.957 117.379Z" fill="white"/>
<path d="M308.832 218.234L296.866 197.721L334.473 174.359L327.066 161.824L288.889 184.616L278.633 167.522L319.658 143.02L312.251 130.484L263.818 158.975L255.841 164.103L263.818 178.348L300.855 240.456L358.975 205.698L351.567 192.593L308.832 218.234Z" fill="white"/>
<path d="M451.282 159.544C448.433 162.963 444.445 165.242 439.886 165.812C433.618 166.952 427.92 165.242 422.792 161.254C418.234 157.265 414.815 149.288 413.106 138.462C411.396 127.635 411.966 120.228 415.385 114.53C418.234 109.402 423.362 105.983 430.2 104.844C434.758 104.274 439.316 104.843 442.735 107.123C446.724 109.402 449.573 112.251 451.282 116.809L467.806 109.972C464.957 103.134 460.969 98.5757 456.41 95.1569C448.433 90.0287 439.316 88.3193 428.49 89.4589C415.955 91.7381 406.838 97.4361 400.57 106.553C394.302 115.67 392.593 127.635 394.872 142.45C397.151 156.125 402.279 166.382 411.396 173.22C420.513 180.057 430.2 182.336 442.165 180.627C451.852 178.918 459.26 175.499 464.388 169.801C469.516 164.103 472.935 156.126 474.074 146.439L455.841 143.59C455.841 150.997 454.131 155.556 451.282 159.544Z" fill="white"/>
<path d="M515.1 86.6097H497.436L494.017 174.359L556.695 176.638L557.265 161.823L512.251 160.114L515.1 86.6097Z" fill="white"/>
<path d="M215.955 217.664L233.049 197.721L221.083 187.465L208.547 202.849L176.068 241.596L187.464 251.852L204.559 231.339L208.547 234.758L261.539 278.633L263.818 275.214L272.365 264.957L263.818 257.55L215.955 217.664Z" fill="white"/>
<path d="M208.547 301.994C206.268 302.564 203.989 302.564 202.849 303.134C199.43 304.273 195.442 305.413 191.453 308.262C194.302 300.854 194.302 294.587 192.593 288.889C190.883 283.191 186.895 279.202 180.627 275.783C176.069 272.934 171.51 271.795 166.382 272.364C164.673 272.364 162.963 272.934 161.254 273.504C158.975 274.074 156.126 275.783 154.416 277.493C150.997 280.342 146.439 286.04 141.881 294.587L124.217 327.635L161.824 348.148L202.28 370.37L208.547 358.405L210.827 354.416L208.547 353.276L178.348 336.182L180.057 332.764C181.767 329.345 183.476 327.065 185.186 325.356C186.895 323.646 188.604 323.077 190.884 322.507C193.163 321.937 198.861 320.798 206.838 320.228H208.547L230.2 318.519L241.026 299.715L220.513 300.855C215.385 301.424 211.396 301.994 208.547 301.994ZM178.918 303.134C178.348 305.413 176.069 310.541 172.08 317.949L165.243 329.915L161.254 327.635L145.299 319.088L152.137 306.553C155.556 300.285 157.835 296.296 158.405 295.157C159.544 294.017 160.114 293.447 160.684 292.878C162.393 292.308 163.533 291.738 164.673 291.168C166.952 291.168 169.801 291.168 172.65 292.878C174.929 294.017 176.638 295.726 177.778 298.006C178.918 299.145 179.487 300.855 178.918 303.134Z" fill="white"/>
<path d="M205.698 642.735L192.593 650.712L208.547 677.493L218.234 692.877L208.547 699.145L197.151 705.983L174.359 667.236L161.824 675.214H161.254L161.824 675.783L184.046 713.39L167.522 723.647L161.824 713.96L143.02 682.621L129.915 690.028L161.824 743.59L163.533 747.008L208.547 719.658L239.886 700.855L208.547 647.863L205.698 642.735Z" fill="white"/>
<path d="M161.823 550.427L176.638 549.288L175.498 531.624L161.823 532.764L141.88 533.903L141.31 521.937C140.74 513.96 140.17 507.692 139.031 503.134C137.891 500.285 136.182 496.866 133.903 494.017C131.623 491.168 128.205 488.889 124.786 487.18C121.367 486.04 117.948 484.9 113.96 484.9C112.82 484.9 111.68 484.9 111.111 484.9C104.273 485.47 98.575 487.749 94.0166 491.168C90.028 494.587 87.1789 499.145 86.0393 504.274C85.4695 507.692 85.4695 515.1 86.0393 525.926L87.7488 554.416L113.39 552.707L161.823 550.427ZM101.424 536.752L100.854 527.635C100.284 521.367 100.284 516.809 100.854 515.1C100.854 512.251 101.994 509.402 103.703 507.123C105.982 505.413 108.262 504.274 111.68 504.274C112.25 504.274 113.39 504.274 113.39 504.274C115.669 504.274 117.378 504.843 118.518 505.413C120.797 506.553 122.507 508.262 123.646 510.541C124.786 512.82 125.356 517.379 125.925 524.786V534.473L112.82 535.043L101.424 536.752Z" fill="white"/>
<path d="M137.322 648.433C144.159 646.154 149.288 641.595 152.137 635.328C154.416 630.769 154.986 623.362 154.416 613.105C154.416 605.128 153.846 600.57 153.846 598.291C153.846 595.442 154.416 592.593 155.556 590.883C156.695 589.174 157.835 588.034 160.114 587.464C160.684 587.464 161.254 586.895 162.393 586.895C165.242 586.895 167.521 587.465 169.801 589.174C172.65 591.453 175.498 594.872 177.208 600.57C178.917 605.698 178.917 610.256 177.208 614.245C175.498 618.234 172.08 621.083 166.952 623.932L173.789 640.456C182.906 635.898 189.174 630.769 192.023 622.792C194.872 615.385 194.872 606.268 191.453 595.442C189.174 588.034 186.325 582.336 182.336 578.348C178.917 573.789 174.359 571.51 169.231 569.801C166.952 569.801 164.672 569.231 162.393 569.231C160.114 569.231 157.265 569.8 154.416 570.37C149.288 572.08 144.729 574.929 141.88 578.348C139.031 581.766 136.752 585.755 136.182 590.883C135.613 595.442 135.613 602.279 136.182 610.826C136.752 619.943 136.182 625.641 135.613 628.49C135.043 630.769 133.333 631.909 131.624 632.479C129.345 633.048 127.635 633.048 125.356 631.339C122.507 629.06 120.228 625.641 118.519 620.513C117.379 615.385 116.809 611.396 117.949 608.547C119.088 605.128 121.937 602.849 125.926 600.57L119.658 583.476C117.379 584.046 115.67 585.185 113.96 585.755C109.402 588.604 105.983 592.593 103.704 597.721C100.285 604.559 100.855 613.105 104.273 624.501C106.553 630.769 109.402 636.467 112.82 639.886C113.39 639.886 113.39 641.026 113.96 641.026C117.379 644.444 120.798 646.154 124.786 647.293C128.205 649.573 132.763 649.573 137.322 648.433Z" fill="white"/>
<path d="M99.1455 434.758C101.425 439.316 104.844 442.735 108.262 446.154C109.972 447.863 111.681 448.433 112.821 449.573C117.379 452.422 122.507 454.701 129.345 456.41C141.88 459.829 152.137 459.829 161.254 455.841C162.393 455.271 163.533 454.701 164.673 454.131C174.359 449.003 181.197 439.886 185.185 427.351C188.604 414.815 187.465 403.989 181.767 393.732C177.778 386.325 170.94 380.627 161.254 376.638C158.974 375.499 155.556 374.359 152.137 373.789C138.462 369.801 126.496 370.371 116.809 376.069C115.1 376.638 114.53 377.778 112.821 378.348C104.843 384.046 99.1455 392.023 96.2965 402.849C94.5871 409.687 94.0171 416.524 94.5869 422.222C95.1568 426.211 96.8663 430.769 99.1455 434.758ZM111.111 406.268C111.681 404.559 112.251 403.419 112.821 401.71C115.1 397.151 118.519 393.732 123.077 391.453C129.345 388.604 137.322 388.604 147.009 391.453C152.707 393.163 157.835 395.442 161.254 398.291C164.103 400 165.812 402.279 167.522 404.559C170.94 410.257 171.51 417.094 169.801 423.362C168.661 428.49 165.242 433.049 160.684 435.898C159.544 436.467 158.405 437.037 157.265 438.177C150.997 441.596 143.02 441.596 133.333 438.747C123.647 435.898 116.809 431.909 112.821 426.211C112.821 426.211 112.821 425.641 112.251 425.071C109.972 419.373 109.402 413.106 111.111 406.268Z" fill="white"/>
<path d="M596.011 814.815L582.906 818.234C582.906 824.501 580.057 829.63 576.638 834.758C573.219 839.886 569.801 843.305 565.812 845.584C565.242 846.154 565.242 846.154 564.672 846.154L565.812 850.143L568.661 860.969C576.068 855.84 581.766 850.143 586.325 842.735L602.849 904.843L618.803 900.855L596.011 814.815Z" fill="white"/>
<path d="M561.254 875.214C557.835 871.795 553.846 869.516 548.718 868.376C557.265 863.248 561.254 856.98 560.684 849.003C560.684 843.305 557.835 838.177 553.846 834.758C548.718 829.63 541.31 827.35 533.333 827.92C528.205 827.92 524.216 829.06 520.228 831.339C516.809 833.618 513.39 835.897 511.681 839.316C509.402 842.165 508.262 846.723 507.692 852.421L523.077 854.131C523.077 850.143 524.216 847.293 526.496 845.014C528.205 842.735 530.484 842.165 533.333 842.165C536.182 841.595 539.031 842.165 540.741 844.444C542.45 846.154 543.59 849.003 544.16 851.282C544.16 854.701 543.02 857.55 540.741 860.399C538.461 862.678 535.043 863.817 530.484 863.817L529.345 877.493C532.194 876.353 535.043 875.784 537.322 875.784C540.171 875.784 543.59 876.923 545.869 879.202C548.148 881.481 549.858 884.9 549.858 888.889C549.858 893.447 549.288 896.866 547.009 899.715C544.729 902.564 541.88 903.704 537.892 904.274C534.473 904.274 532.194 903.704 529.345 901.425C527.065 899.145 525.356 896.296 524.786 891.738L508.262 894.587C509.971 901.994 512.82 908.262 518.518 912.251C524.216 916.239 530.484 918.518 539.031 917.949C547.578 917.379 553.846 914.53 560.114 908.262C562.963 904.843 565.242 901.424 566.382 897.436C566.952 894.017 567.521 891.168 567.521 887.749C567.521 884.9 566.952 883.191 566.382 881.482C564.672 879.772 563.533 877.493 561.254 875.214Z" fill="white"/>
<path d="M472.365 827.92C471.795 827.92 471.225 827.92 470.655 827.92C463.248 827.92 456.98 830.199 451.852 835.328C446.154 840.456 442.735 847.863 442.735 856.41C442.735 864.957 444.444 872.365 449.003 878.063C454.131 883.761 459.829 886.61 466.667 887.18C468.376 887.749 470.085 887.18 470.655 887.18C475.213 886.61 479.772 884.33 483.191 880.912C482.051 890.598 480.342 897.436 477.493 900.855C475.783 903.134 473.504 904.274 471.225 904.843C470.655 904.843 469.515 904.843 468.376 904.843C465.527 904.843 463.248 903.704 462.108 901.994C460.399 900.285 459.829 897.436 459.259 894.587L442.735 895.727C443.305 903.134 445.584 908.832 450.142 912.821C454.131 916.809 459.829 918.519 466.667 919.088C467.806 919.088 469.515 919.088 471.225 919.088C479.202 918.519 485.47 915.1 490.598 909.402C496.866 902.564 500.285 891.168 501.424 874.644C501.994 858.69 500.285 847.294 494.587 839.886C488.889 831.909 481.481 827.92 472.365 827.92ZM478.632 871.225C476.353 873.504 474.074 874.074 470.655 874.074C470.655 874.074 470.655 874.074 470.085 874.074C467.236 874.074 464.387 872.935 462.108 870.086C459.829 867.237 459.259 863.248 459.259 857.55C459.259 851.852 460.969 847.863 463.248 845.014C465.527 842.735 468.376 841.596 471.225 841.596C471.795 841.596 471.795 841.596 471.795 841.596C474.644 842.165 477.493 843.305 480.342 846.724C482.621 849.573 483.761 854.131 483.761 859.829C482.621 864.957 480.912 868.946 478.632 871.225Z" fill="white"/>
<path d="M409.117 831.909C402.849 834.188 397.151 835.898 392.592 835.898L388.604 850.712C397.721 850.712 405.698 848.433 413.105 843.875L396.011 905.983L412.535 910.541L435.897 824.502L422.222 821.083C419.943 825.071 415.384 829.06 409.117 831.909Z" fill="white"/>
<path d="M709.402 821.653C723.077 821.653 733.904 810.826 733.904 797.151C733.904 783.476 723.077 772.649 709.402 772.649C696.297 772.649 685.47 783.476 685.47 797.151C685.47 810.826 696.297 821.653 709.402 821.653Z" fill="white"/>
<path d="M287.18 830.769C300.285 830.769 311.111 819.943 311.111 806.268C311.111 792.593 300.285 781.767 287.18 781.767C273.504 781.767 262.678 792.593 262.678 806.268C263.248 819.373 274.074 830.769 287.18 830.769Z" fill="white"/>
<path d="M309.402 281.482L268.376 286.61L331.054 830.769L376.638 825.641L313.96 280.912L309.402 281.482Z" fill="white"/>
<path d="M757.835 713.96C753.847 667.806 743.59 627.35 734.473 587.464C714.53 507.692 694.587 425.071 725.926 297.436L727.066 292.308L721.938 292.878C705.983 295.157 690.029 299.145 674.074 302.564C629.06 312.82 582.906 323.647 535.043 305.983H534.473H533.903C512.821 303.704 493.448 297.436 474.644 291.738C430.2 278.063 384.616 264.388 315.1 297.436L312.251 298.576L313.391 301.425C357.835 434.758 371.51 567.522 353.846 697.436L353.277 703.704L359.544 700.855C463.818 650.143 543.59 671.225 628.49 694.017C668.946 704.843 711.111 715.67 755.556 717.949H759.544L757.835 713.96ZM629.06 687.179C548.148 665.527 464.958 643.875 361.254 692.308C365.812 657.55 368.091 622.222 368.091 587.464C368.091 585.185 368.091 582.336 368.091 580.057C368.091 554.986 366.382 529.915 364.103 504.274C415.955 484.331 470.086 477.493 528.205 487.18L527.066 312.251C528.775 312.251 531.054 312.821 532.764 312.821C582.337 331.054 629.63 320.228 675.784 309.972C690.599 306.553 704.274 303.704 717.949 301.425C707.123 348.148 702.564 388.604 702.564 425.071C702.564 451.852 704.844 476.353 708.262 500.285C712.821 531.054 719.658 559.544 726.496 587.464C726.496 588.034 727.066 589.174 727.066 590.313C736.183 628.49 745.869 667.807 750.428 711.681C708.262 707.693 668.376 697.436 629.06 687.179Z" fill="#2762A6"/>
<path d="M274.074 290.598L335.613 825.071L371.51 821.083L309.972 286.61L274.074 290.598Z" fill="#2762A6"/>
<path d="M726.496 586.325C719.658 558.405 712.821 529.914 708.262 499.145C647.294 501.994 528.205 486.61 528.205 486.61C470.086 476.353 415.955 483.761 364.103 503.704C366.382 528.775 368.091 554.416 368.091 579.487C496.296 547.009 602.279 592.593 726.496 586.325Z" fill="white"/>
<path d="M428.49 468.946C390.883 468.946 360.684 432.479 360.684 388.034C360.684 343.02 390.883 306.553 428.49 306.553C465.527 306.553 496.297 343.02 496.297 388.034C496.297 432.479 466.097 468.946 428.49 468.946Z" fill="white"/>
<path d="M391.453 344.16C410.826 335.043 420.513 344.16 434.758 345.869C447.863 350.997 460.399 345.299 472.365 343.02C463.248 381.197 476.353 398.86 478.632 426.781C451.852 425.641 430.769 407.977 398.86 423.362C403.419 397.151 400.57 370.37 391.453 344.16Z" fill="#CD3529"/>
<path d="M433.618 345.299V364.103H470.086L472.935 343.59C457.55 347.009 445.584 349.288 433.618 345.299Z" fill="white"/>
<path d="M390.313 340.171L382.336 341.311L394.872 450.142L403.989 449.003L391.453 340.171H390.313Z" fill="white"/>
<path d="M479.772 426.781C479.202 417.664 476.923 409.117 475.214 401.71C471.225 385.755 467.236 369.231 473.504 343.59V342.45H472.365C468.946 343.02 466.097 343.59 462.678 344.16C453.561 346.439 444.444 348.148 434.758 344.729C430.769 344.16 426.781 343.02 422.792 341.88C413.675 339.031 405.128 336.183 390.883 343.02H390.313V343.59C399.43 370.37 401.709 397.151 398.291 422.792V423.932L399.43 423.362C419.943 413.105 436.467 417.664 452.992 422.222C460.969 424.501 469.516 426.781 478.063 426.781H478.633H479.772ZM454.131 421.653C438.177 417.664 421.083 413.106 400.57 422.792C401.14 415.955 401.709 409.117 401.709 401.71C401.709 401.14 401.709 400.57 401.709 400C401.709 394.872 401.14 389.744 401.14 384.616C411.396 380.627 422.222 378.918 433.618 381.197V346.439C434.188 346.439 434.188 346.439 434.758 346.439C444.444 349.858 454.131 348.148 463.248 345.869C466.097 345.299 468.946 344.73 471.795 344.16C469.516 353.277 468.946 361.824 468.946 368.661C468.946 374.359 469.516 378.917 470.086 383.476C471.225 389.744 472.365 395.442 473.504 401.14V401.71C475.214 409.117 477.493 417.094 478.063 425.641C470.086 425.641 462.108 423.362 454.131 421.653Z" fill="#2762A6"/>
<path d="M383.476 342.45L395.442 449.003L402.849 448.433L390.314 341.311L383.476 342.45Z" fill="#2762A6"/>
<path d="M473.504 401.14C472.365 395.442 470.655 389.744 470.086 383.476C458.12 384.046 434.188 380.627 434.188 380.627C422.792 378.348 411.966 380.057 401.709 384.046C402.279 389.174 402.279 394.302 402.279 399.43C427.92 393.732 449.003 402.849 473.504 401.14Z" fill="white"/>
<path d="M414.245 377.778C406.838 377.778 400.57 370.37 400.57 361.823C400.57 352.707 406.838 345.299 414.245 345.299C421.653 345.299 427.92 352.707 427.92 361.823C427.92 370.37 421.653 377.778 414.245 377.778Z" fill="white"/>
</g>
<defs>
<clipPath id="clip0_27_79">
<rect width="1000" height="1000" fill="white"/>
</clipPath>
</defs>
</svg>
