<svg width="1000" height="1000" viewBox="0 0 1000 1000" fill="none" xmlns="http://www.w3.org/2000/svg">
<path d="M996 500C996 774 774 996 500 996C226 996 4 774 4 500C4 226 226 4 500 4C774 4 996 226 996 500Z" fill="white"/>
<path fill-rule="evenodd" clip-rule="evenodd" d="M842 159.3C797.083 114.406 743.76 78.803 685.078 54.5239C626.396 30.2448 563.506 17.7659 500 17.8001C371.955 17.8256 249.135 68.5796 158.424 158.953C67.7138 249.326 16.5026 371.956 16 500C16.5078 628.045 67.7201 750.674 158.429 841.049C249.137 931.424 371.954 982.184 500 982.22C628.046 982.184 750.863 931.424 841.571 841.049C932.28 750.674 983.492 628.045 984 500C984 436.648 971.452 373.923 947.079 315.446C922.707 256.97 886.993 203.9 842 159.3ZM969.8 500C969.34 624.292 919.638 743.334 831.581 831.053C743.525 918.772 624.292 968.017 500 968C375.706 968.017 256.471 918.773 168.411 831.055C80.3518 743.336 30.6457 624.293 30.18 500C30.6562 375.71 80.3657 256.674 168.423 168.957C256.48 81.2411 375.709 31.9939 500 32.0001C624.287 31.9992 743.511 81.2487 831.564 168.964C919.617 256.68 969.324 375.714 969.8 500Z" fill="#1E3D8E"/>
<path fill-rule="evenodd" clip-rule="evenodd" d="M500 161.38C314.4 161.38 163 313.48 163 500C163 686.52 314.4 838.64 500 838.64C685.6 838.64 837 686.52 837 500C837 313.48 685.6 161.38 500 161.38Z" fill="#1E3D8E"/>
<path fill-rule="evenodd" clip-rule="evenodd" d="M508.46 669.22L521.68 709.82H564.36L529.82 734.92L543 775.52L508.46 750.42L473.94 775.52L487.14 734.92L452.62 709.82H495.3L508.46 669.22Z" fill="white"/>
<path fill-rule="evenodd" clip-rule="evenodd" d="M690.34 386.8L703.52 427.4H746.24L711.68 452.5L724.88 493.1L690.34 468L655.8 493.1L669 452.5L634.46 427.4H677.16L690.34 386.8Z" fill="white"/>
<path fill-rule="evenodd" clip-rule="evenodd" d="M555.28 467.74L565.08 497.94H596.88L571.18 516.62L581 546.84L555.28 528.16L529.58 546.84L539.4 516.62L513.7 497.94H545.48L555.28 467.74Z" fill="white"/>
<path fill-rule="evenodd" clip-rule="evenodd" d="M500.14 218.36L513.34 258.94H556.02L521.5 284.04L534.68 324.64L500.14 299.56L465.62 324.64L478.8 284.04L444.26 258.94H486.94L500.14 218.36Z" fill="white"/>
<path fill-rule="evenodd" clip-rule="evenodd" d="M314.98 383.4L328.18 424H370.86L336.32 449.1L349.52 489.68L314.98 464.6L280.44 489.68L293.64 449.1L259.1 424H301.8L314.98 383.4Z" fill="white"/>
<path d="M166.26 254.72C163.16 253.26 153.12 249.68 146.48 259.56C138.98 270.74 147.44 281.56 157.86 288.6C168.28 295.64 181.54 299.28 189.04 288.12C194.42 280.12 190.88 273.16 184.56 266.86L200.32 243.42C216 254 224 277.76 208.8 300.44C191.96 325.5 164.8 327.84 141.82 312.44C117.4 296 111.58 269.8 127.62 246C142 224.8 161.06 220.58 181.88 231.56L166.26 254.72Z" fill="#1E3D8E"/>
<path d="M188.2 174.58L230.88 140.26C243.6 130.02 260.24 128.26 271.32 141.94C277.32 149.48 280.3 160.2 275.08 168.94C283.08 166.36 292.24 170.04 300.36 178.46C303.52 181.78 310.58 190.34 315.34 192.06L292.94 210.06C288.986 207.214 285.345 203.956 282.08 200.34C275.9 193.9 269.48 187.18 260.64 194.34L248.64 203.94L269.06 229.28L246.64 247.28L188.2 174.58ZM236.2 188.34L247.92 178.92C252.1 175.54 257.22 170.26 251.92 163.74C248.22 159.14 243.56 158.56 235 165.44L224.52 173.86L236.2 188.34Z" fill="#1E3D8E"/>
<path d="M398.68 118.34C408.08 142.34 399.58 159.08 373.02 169.44C346.46 179.8 328.8 173.44 319.4 149.26L298.6 96.0001L325.38 85.5601L343.86 132.92C347.32 141.8 351.66 152.92 364.68 147.82C377.36 142.86 373.02 131.82 369.56 122.9L351.08 75.5401L377.86 65.0801L398.68 118.34Z" fill="#1E3D8E"/>
<path d="M431.02 124.98L470.88 74.9799L430 77.9999L428.26 54.1399L506.88 48.3999L508.4 69.2599L468.32 120.82L514 117.48L515.72 141.32L432.56 147.32L431.02 124.98Z" fill="#1E3D8E"/>
<path d="M557.06 52L632.54 68.44L627.46 91.8L580 81.54L577.52 92.92L620.56 102.26L616 124L572.96 114.64L570.4 126L619.22 136.6L614.12 160L537.22 143.28L557.06 52Z" fill="#1E3D8E"/>
<path d="M675.82 86L701.82 98.2L662.28 182.7L636.28 170.52L675.82 86Z" fill="#1E3D8E"/>
<path d="M743.38 120.26L786.46 154C799.32 164 804.84 179.88 793.96 193.78C787.96 201.38 778.18 206.66 768.5 203.54C772.82 210.76 771.3 220.5 764.94 230.3C762.42 234.16 755.66 242.96 755.06 247.98L732.44 230.22C734.309 225.724 736.663 221.445 739.46 217.46C744.34 209.98 749.46 202.2 740.5 195.18L728.5 185.74L708.4 211.34L685.8 193.58L743.38 120.26ZM740.84 170L752.66 179.26C756.88 182.58 763.18 186.38 768.34 179.8C772 175.18 771.52 170.48 762.88 163.8L752.28 155.5L740.84 170Z" fill="#1E3D8E"/>
<path d="M872.38 246C888.38 269.46 882.1 296.58 858.52 312.6C834.94 328.62 807.44 324.38 791.52 300.92C775.6 277.46 781.8 250.34 805.36 234.32C828.92 218.3 856.44 222.52 872.38 246ZM810.74 287.86C814.86 293.86 825.18 300.48 842.36 288.8C859.54 277.12 857.24 265.12 853.12 259.06C849 253 838.7 246.44 821.52 258.1C804.34 269.76 806.64 281.78 810.74 287.84V287.86Z" fill="#1E3D8E"/>
<path d="M858.22 511.28L852.4 434.24L876.26 432.44L880 480.8L891.6 479.92L888.3 435.92L910.46 434.24L913.78 478.24L925.36 477.36L921.62 427.58L945.48 425.78L951.48 504.24L858.22 511.28Z" fill="#1E3D8E"/>
<path d="M839.76 615.44L850.5 565.44C855.66 541.44 870.32 539.22 879.64 541.22C888.96 543.22 892.86 548.74 895.12 556.3C899.68 548.72 907.84 542.46 921.28 545.36C939.54 549.36 945.6 567.16 942.14 583.26L931 635.02L839.76 615.44ZM881.34 594.94L884.54 580.12C885.78 574.24 884.92 570.12 879.06 568.92C874.46 567.94 871.96 571.4 870.72 577.16L867.54 592L881.34 594.94ZM915.34 602.26L918.88 585.78C920.14 579.9 919.56 574.42 912.54 572.9C907.18 571.76 903.54 574.32 902.12 580.9L898.34 598.52L915.34 602.26Z" fill="#1E3D8E"/>
<path d="M881.5 665.76C904.1 678.42 908.08 696.7 894.14 721.56C880.2 746.42 862.46 752.66 840 740L790 712L804 686.92L848.36 711.78C856.68 716.46 867.08 722.26 873.9 710.06C880.54 698.2 870.18 692.38 861.9 687.72L817.54 662.86L831.54 637.76L881.5 665.76Z" fill="#1E3D8E"/>
<path d="M726.9 777.78L747.26 757.46L796.24 806.64L825.5 777.46L842.38 794.42L792.76 843.86L726.9 777.78Z" fill="#1E3D8E"/>
<path d="M702.9 836C700.8 833.3 693.5 825.52 683.1 831.3C671.32 837.82 673.9 851.3 679.98 862.3C686.06 873.3 696.16 882.62 707.98 876.1C716.44 871.4 716.46 863.64 713.7 855.16L738.38 841.46C747.52 857.92 743.84 882.82 719.94 896.06C693.54 910.7 668.24 900.38 654.88 876.26C640.62 850.54 647.4 824.5 672.54 810.58C695.02 798.26 713.88 803.2 727.4 822.44L702.9 836Z" fill="#1E3D8E"/>
<path d="M483.4 859.68L560.5 854.94L561.98 878.82L513.56 881.8L514.3 893.4L558.3 890.7L559.68 912.88L515.68 915.58L516.38 927.2L566.22 924.14L567.68 948L489.14 952.84L483.4 859.68Z" fill="#1E3D8E"/>
<path d="M404.96 870L379.42 864.38L384.54 841.02L463.72 858.38L458.6 881.76L433.06 876.16L418.18 944L390 937.88L404.96 870Z" fill="#1E3D8E"/>
<path d="M294 794.74L342 821.08C356.34 828.92 364.38 843.62 356 859.08C351.34 867.54 342.54 874.36 332.48 872.86C337.92 879.28 338 889.16 333.32 899.86C331.46 904.06 326.24 913.86 326.46 918.9L301.24 905.08C302.362 900.342 303.985 895.736 306.08 891.34C309.68 883.18 313.46 874.66 303.48 869.2L290.08 861.82L274.42 890.36L249.2 876.54L294 794.74ZM299.58 844.32L312.76 851.54C317.46 854.12 324.32 856.84 328.36 849.54C331.18 844.4 329.94 839.84 320.36 834.56L308.56 828.08L299.58 844.32Z" fill="#1E3D8E"/>
<path d="M245.3 746.8C264.94 767.26 263.3 795.06 242.8 814.8C222.3 834.54 194.42 834.98 174.8 814.52C155.18 794.06 156.8 766.26 177.3 746.52C197.8 726.78 225.64 726.34 245.3 746.8ZM191.54 798.4C196.62 803.66 207.88 808.4 222.88 794.02C237.88 779.64 233.58 768.18 228.52 762.9C223.46 757.62 212.16 752.9 197.18 767.26C182.2 781.62 186.48 793.1 191.54 798.4Z" fill="#1E3D8E"/>
<path d="M164.7 627.14L186.4 670C197.84 692.62 185.32 708.92 173.42 714.94C153.24 725.14 136.96 716.4 127.28 697.28L119.6 682.12L94.4199 694.86L81.4399 669.22L164.7 627.14ZM139.42 672.16L144.44 682C147.8 688.64 151.82 695.4 160.22 691.16C167.78 687.32 165.3 681.26 162.22 674.96L156.44 663.52L139.42 672.16Z" fill="#1E3D8E"/>
<path d="M86.9399 567.68C84.8688 568.093 82.89 568.879 81.0999 570C75.9999 573.12 76.0399 579.5 77.0999 584.76C77.9999 589.38 80.8999 596.14 87.6999 594.76C92.4599 593.84 92.9599 589.62 94.3799 572.96C95.6399 557.66 96.3799 540.32 114.88 536.72C136.06 532.58 148.68 548.9 152.38 567.76C156.26 587.64 152.1 606.7 129.94 611.76L124.72 585.08C126.188 585.069 127.616 584.607 128.812 583.755C130.007 582.903 130.911 581.704 131.4 580.32C132.493 577.526 132.729 574.469 132.08 571.54C131.32 567.68 129.06 561.54 123.92 562.58C117.48 564.38 118.62 577.76 117.56 591.4C116.5 605.04 112.98 619.08 96.1799 622.36C72.2999 627.02 60.3199 606.58 56.3399 586.18C54.3399 575.78 52.2399 545.44 81.4399 539.44L86.9399 567.68Z" fill="#1E3D8E"/>
<path d="M148 432.4L141.76 509.42L117.92 507.42L121.92 459.08L110.32 458.14L106.78 502.14L84.6202 500.36L88.1802 456.36L76.5802 455.42L72.5802 505.2L48.7402 503.2L55.0602 424.76L148 432.4Z" fill="#1E3D8E"/>
</svg>
