<svg width="1000" height="1000" viewBox="0 0 1000 1000" fill="none" xmlns="http://www.w3.org/2000/svg">
<g clip-path="url(#clip0_27_315)">
<path d="M500.54 -1.54803e-06C388.607 138.732 244.1 192.907 68.0576 158.716C64.0146 612.799 273.441 827.307 500.656 1000C725.445 829.502 938.683 611.413 932.791 159.062C749.934 193.023 613.512 140.349 500.54 -1.54803e-06Z" fill="white"/>
<path d="M500.54 -1.54803e-06C388.607 138.732 244.1 192.907 68.0576 158.716C64.0146 612.799 273.441 827.307 500.656 1000C725.445 829.502 938.683 611.413 932.791 159.062C749.934 193.023 613.512 140.349 500.54 -1.54803e-06Z" stroke="#8E0927" stroke-width="2.58951" stroke-miterlimit="2.6131"/>
<path d="M836.453 509.298C786.898 645.142 689.058 786.3 500.309 939.817C313.87 787.108 216.031 644.796 166.013 509.298H836.453Z" fill="#00613C"/>
<path d="M116.689 214.393C346.099 216.818 412.057 170.498 500.425 72.3111C595.839 167.61 659.14 217.28 884.276 214.393C883.352 304.609 874.573 394.94 843.962 487.582H158.389C126.97 393.901 117.729 303.223 116.689 214.393Z" fill="#870A28"/>
<path d="M392.651 234.261C400.275 236.687 415.638 231.489 423.955 247.661C428.113 255.747 435.506 264.641 437.932 281.737L485.408 274.345C480.21 255.631 483.906 255.169 479.286 240.615C508.626 237.842 537.158 231.489 563.726 217.396C576.779 228.255 588.33 237.496 603.809 243.734C544.897 276.655 550.904 303.338 555.294 320.781L578.512 348.273C577.588 290.632 614.668 253.899 660.873 242.694C629.338 225.598 598.842 206.307 570.079 183.551C517.521 202.033 452.718 222.941 425.456 202.495L392.651 234.261Z" fill="white"/>
<path d="M345.29 368.488C345.174 370.336 385.026 348.388 394.845 353.125L391.149 330.484C437.816 309.576 485.292 300.797 549.864 311.54C550.326 301.375 549.98 293.751 554.6 283.585C533.115 279.773 511.745 278.965 489.797 277.232C474.549 278.618 452.024 281.044 435.506 286.242C418.987 291.44 401.083 298.487 385.95 299.988C370.703 301.49 363.425 296.638 349.564 293.173C338.128 306.342 331.428 312.117 314.217 327.481C328.194 324.246 349.102 329.213 346.098 361.21L345.29 368.488Z" fill="white"/>
<path d="M595.954 290.747C641.351 307.612 642.506 291.787 662.028 290.17L673.579 312.695C613.628 330.484 585.558 401.871 629.569 442.532C586.713 450.849 561.3 397.482 595.492 332.448C597.456 328.636 595.261 322.629 597.572 318.817L584.865 315.467C587.175 305.648 591.565 300.104 595.954 290.747Z" fill="white"/>
<path d="M622.407 356.243C617.439 363.983 613.05 374.379 612.472 385.93C635.806 394.016 649.09 407.069 658.216 438.142C658.447 439.067 658.909 439.991 659.255 440.915C671.038 471.295 729.488 472.103 739.653 461.823C742.194 450.04 738.729 442.763 728.101 439.76C715.857 439.875 717.243 452.12 706.038 449.116C692.292 444.265 684.668 438.258 681.434 426.707C676.467 409.495 686.285 390.897 712.623 384.66L699.454 366.524C673.348 368.141 647.126 368.141 622.407 356.243Z" fill="white"/>
<path d="M586.597 345.847L580.591 344.23L579.436 349.774L576.663 350.929L568.924 341.573C542.818 338.454 516.827 338.223 490.721 340.995L489.104 371.26C519.946 368.834 549.864 370.105 577.703 375.072C579.898 364.676 581.861 354.972 586.597 345.847Z" fill="white"/>
<path d="M435.968 320.434L433.889 472.334L478.13 470.139L480.21 445.882L512.9 443.802L518.213 449.116C494.995 512.995 508.395 551.692 558.297 565.092L559.336 558.738C526.299 535.52 521.448 476.839 564.65 445.882L550.904 418.505C525.26 411.69 500.655 430.287 480.21 416.426L487.602 312.002C471.546 313.388 454.219 312.695 435.968 320.434Z" fill="white"/>
<path d="M380.059 607.254L374.746 647.337C434.697 660.275 500.424 663.278 577.241 636.825C616.284 623.426 654.173 609.102 694.256 615.686C686.632 604.135 724.174 533.441 756.518 574.564L774.422 575.603C766.336 559.431 766.683 550.652 791.287 536.56C764.257 533.441 744.504 535.52 725.907 520.734C643.892 597.32 518.098 636.132 380.059 607.254Z" fill="white"/>
<path d="M545.706 474.414C538.89 486.312 535.656 493.589 537.273 505.487C554.485 507.104 569.617 515.536 576.317 528.127L576.894 472.219L545.706 474.414Z" fill="white"/>
<path d="M435.044 507.797L430.192 611.528C446.48 613.954 459.071 614.532 473.972 614.185L477.091 507.682L435.044 507.797Z" fill="white"/>
<path d="M429.153 658.427C447.635 660.737 463.576 659.813 477.668 660.506C481.48 723.576 505.276 748.989 558.066 765.739C568.693 769.089 581.631 772.67 589.37 777.521C463.46 789.303 463.807 708.328 407.552 770.128L392.188 748.527C411.133 730.738 422.222 695.969 429.153 658.427Z" fill="white"/>
<path d="M429.961 349.89C353.723 357.283 284.183 400.485 224.579 495.668C219.958 502.368 210.601 512.764 208.869 514.728C216.608 516.114 222.384 522.121 225.965 525.47C256.807 581.379 290.652 613.723 325.653 632.089C330.62 619.036 331.659 605.983 333.508 592.93C311.791 583.227 264.777 540.718 269.282 494.166C291.807 434.908 363.541 383.389 429.961 384.429V349.89Z" fill="white"/>
<path d="M347.831 416.195C361.231 404.528 375.67 396.211 392.419 394.709L394.036 481.576C430.077 472.912 469.929 472.219 505.969 474.529L502.966 502.714C466.117 503.523 425.341 503.523 387.799 515.999C382.023 572.485 377.056 626.545 360.422 680.605C387.914 689.731 401.66 701.744 408.245 715.144L395.654 738.708C378.096 714.566 360.884 701.744 328.194 707.404L312.484 693.312C346.907 627.123 343.095 498.787 347.831 416.195Z" fill="white"/>
<path d="M411.133 770.013C414.714 768.857 425.225 788.841 443.245 793.924C444.169 794.732 455.836 793.462 449.945 791.152C444.054 788.841 433.08 773.94 426.38 756.267C426.496 756.267 407.667 771.168 411.133 770.013Z" fill="white"/>
</g>
<defs>
<clipPath id="clip0_27_315">
<rect width="1000" height="1000" fill="white"/>
</clipPath>
</defs>
</svg>
