<svg width="1000" height="1000" viewBox="0 0 1000 1000" fill="none" xmlns="http://www.w3.org/2000/svg">
<g clip-path="url(#clip0_27_364)">
<path d="M1000 499.986C1000 776.134 776.162 1000 499.986 1000C223.866 1000 0 776.162 0 499.986C0 223.866 223.866 0 499.986 0C776.162 0 1000 223.866 1000 499.986Z" fill="#231F20"/>
<path d="M976.976 499.986C976.976 763.416 763.417 976.976 499.986 976.976C236.556 976.976 22.9961 763.444 22.9961 499.986C22.9961 236.555 236.556 22.9956 499.986 22.9956C763.444 22.9956 976.976 236.555 976.976 499.986Z" fill="white"/>
<path d="M364.364 929.211C407.17 942.732 452.747 950.046 500.014 950.046C547.308 950.046 592.857 942.732 635.663 929.211C597.373 899.621 550.55 882.138 500.014 882.138C449.478 882.138 402.654 899.621 364.364 929.211Z" fill="#0E93D2"/>
<path d="M635.664 70.7893C592.857 57.2687 547.281 49.9265 500.014 49.9265C452.747 49.9265 407.17 57.2687 364.392 70.7893C402.682 100.352 449.478 117.834 500.014 117.834C550.55 117.834 597.346 100.38 635.664 70.7893Z" fill="#0E93D2"/>
<path d="M672.651 323.47C738.647 299.255 798.077 261.657 847.45 213.947C797.994 153.936 733.272 107.057 659.241 79.0181C634.361 100.435 605.685 116.948 574.488 127.199C624.913 163.799 662.234 236.334 672.651 323.47Z" fill="#0E93D2"/>
<path d="M425.512 127.199C394.315 116.948 365.639 100.407 340.759 79.0181C266.728 107.057 201.978 153.936 152.55 213.947C201.923 261.657 261.38 299.255 327.349 323.47C337.766 236.334 375.087 163.771 425.512 127.199Z" fill="#0E93D2"/>
<path d="M327.349 676.531C261.38 700.746 201.923 738.343 152.55 786.053C202.006 846.065 266.755 892.972 340.759 920.983C365.639 899.566 394.315 883.08 425.512 872.801C375.087 836.202 337.766 763.694 327.349 676.531Z" fill="#0E93D2"/>
<path d="M672.651 676.531C662.234 763.667 624.913 836.202 574.516 872.774C605.713 883.053 634.389 899.566 659.269 920.955C733.3 892.944 798.022 846.065 847.477 786.026C798.077 738.343 738.647 700.746 672.651 676.531Z" fill="#0E93D2"/>
<path d="M860.693 769.235C916.854 694.151 950.073 600.947 950.073 499.986C950.073 399.024 916.826 305.821 860.693 230.737C767.351 320.172 640.124 375.419 500.014 375.419C359.904 375.419 232.677 320.172 139.362 230.737C83.2294 305.821 49.9819 399.024 49.9819 499.986C49.9819 600.947 83.2294 694.151 139.362 769.235C232.677 679.827 359.904 624.58 500.014 624.58C640.124 624.58 767.351 679.827 860.693 769.235Z" fill="#231F20"/>
<path d="M581.248 268.446C586.18 266.839 590.669 261.769 590.669 253.651C590.669 248.719 589.311 244.674 586.18 241.543C583.049 238.385 579.004 237.055 573.186 237.055C561.549 237.055 557.421 243.704 553.902 248.276L561.937 253.651C565.484 249.162 569.196 247.832 571.385 247.832C575.375 247.832 579.004 251.157 579.004 255.452C579.004 258.61 577.924 260.688 575.874 262.628C574.239 264.179 571.801 265.315 568.227 265.315H565.096V274.735H569.584C573.186 274.735 575.957 275.566 577.647 277.894C579.004 279.778 580.334 282.022 580.334 286.427C580.334 294.85 575.347 296.291 571.801 296.291C569.473 296.291 567.783 296.041 566.398 294.933C564.68 293.52 563.267 291.331 562.381 289.087L552.074 293.132C553.404 297.62 555.676 301.222 559.25 303.466C562.381 305.711 566.869 307.041 572.244 307.041C578.062 307.041 583.022 305.24 586.596 301.666C590.17 297.62 591.971 292.689 591.971 285.956C591.999 280.997 590.364 271.327 581.248 268.446Z" fill="#231F20"/>
<path d="M493.697 266.644C493.697 279.638 491.48 289.972 487.435 296.705C484.304 302.108 479.788 305.654 473.97 307.012C472.529 307.372 470.59 307.455 469.038 307.455C465.353 307.455 462.278 306.513 458.288 303.881L462.306 294.904C464.467 295.929 467.182 296.705 469.509 296.705C472.252 296.705 474.857 295.375 477.129 292.688C479.401 289.972 480.73 285.484 481.617 279.666C479.123 281.688 477.6 283.711 471.754 283.711C466.822 283.711 462.804 281.91 459.618 277.865C456.487 273.82 455.13 268.445 455.13 261.712C455.13 253.622 456.931 247.804 460.089 243.758C463.22 239.713 468.152 237.469 473.998 237.026H474.413C481.174 237.026 486.105 239.713 489.236 244.673C492.395 249.577 493.697 256.78 493.697 266.644ZM473.97 273.376C476.824 273.376 478.403 271.88 479.373 269.775C480.343 267.558 480.703 264.4 480.703 260.354C480.703 256.309 480.398 252.929 479.373 250.934C478.154 248.607 476.214 247.804 473.97 247.804C472.086 247.804 469.98 248.884 469.038 250.934C467.819 253.566 467.237 257.141 467.237 260.354C467.237 266.838 469.094 273.376 473.97 273.376Z" fill="#231F20"/>
<path d="M408.916 243.759V252.736L421.024 249.162V294.905H408.002V305.239H444.795V294.905H432.688V238.384L408.916 243.759Z" fill="#231F20"/>
<path d="M576.76 707.312H562.824L546.228 774.638H557.449L561.466 758.014H577.176L580.778 774.638H593.356L576.76 707.312ZM563.738 747.264L567.783 727.509L569.224 719.89H569.418L570.748 727.066L574.959 747.264H563.738Z" fill="#231F20"/>
<path d="M406.644 708.227V774.638H419.223V745.935H436.29V735.157H419.223V719.004H443.909V708.227H406.644Z" fill="#231F20"/>
<path d="M443.133 378.383C443.133 378.383 467.237 378.799 468.29 378.827C468.761 379.713 488.017 415.897 489.319 418.336H475.106L455.822 393.566L435.348 418.668C435.348 418.668 424.237 418.419 421.827 418.363C423.129 415.953 443.133 378.383 443.133 378.383Z" fill="white"/>
<path d="M782.7 579.281C768.044 563.766 760.923 543.263 760.923 516.61C760.923 490.039 768.265 468.816 782.673 453.495C796.664 438.201 816.225 430.443 840.828 430.443C865.431 430.443 884.964 438.201 898.928 453.495C913.584 469.01 920.677 489.652 920.677 516.61C920.677 543.263 913.557 563.766 898.928 579.281H898.9C885.075 594.409 865.514 602.333 840.772 602.776C816.53 602.776 796.941 594.852 782.7 579.281ZM806.057 473.388C797.745 483.999 793.7 498.13 793.7 516.582C793.7 534.757 797.717 548.749 806.001 559.305C814.23 569.806 825.617 574.904 840.828 574.904C856.039 574.904 867.398 569.806 875.627 559.305C883.911 548.749 887.928 534.757 887.928 516.582C887.928 498.13 883.911 483.972 875.627 473.388H875.599C867.287 463.192 855.9 458.26 840.8 458.26C826.199 458.288 814.839 463.22 806.057 473.388Z" fill="white"/>
<path d="M747.513 434.932H715.208V597.817H747.513V434.932Z" fill="white"/>
<path d="M694.068 434.932V597.817H664.007V465.88L662.261 465.658C662.261 465.658 629.097 596.487 628.792 597.817H595.628C595.268 596.487 561.688 465.658 561.688 465.658L559.942 465.88V597.817H529.853V434.932H578.533C578.893 436.262 612.002 562.796 612.002 562.796C612.002 562.796 645.111 436.262 645.471 434.932H694.068Z" fill="white"/>
<path d="M514.144 434.932V461.392H427.978V498.656H506.968V525.144H427.978V569.113H518.632V597.817H396.559V434.932H514.144Z" fill="white"/>
<path d="M327.903 434.932C345.857 434.932 359.1 438.645 367.246 445.931C375.558 453.384 379.963 465.409 379.963 480.73C379.963 490.151 377.829 498.684 373.812 505.389C370.044 511.651 364.032 516.194 355.914 518.91L353.254 519.796L355.914 520.627C362.84 522.761 368.105 526.667 371.097 531.876C373.978 536.365 375.447 543.707 375.918 555.676L376.804 575.901C377.275 586.069 379.243 591.694 383.066 594.187V597.845H347.325C346.106 595.24 345.524 593.218 345.053 591.112C344.444 588.48 343.779 585.1 343.585 578.09L343.141 560.58C342.67 549.747 340.731 543.014 337.046 539.329C333.777 535.589 327.349 533.677 318.012 533.677H280.747V597.845H248.469V434.96H327.903V434.932ZM281.689 461.419H280.802V506.747H321.641C330.48 506.747 337.351 504.807 341.507 501.15C345.607 497.936 347.685 492.145 347.685 483.861C347.685 476.658 345.69 471.172 341.59 467.071C337.351 463.303 331.283 461.419 323.442 461.419H281.689Z" fill="white"/>
<path d="M100.601 578.838C86.471 563.35 79.2951 542.266 79.2951 516.139C79.2951 489.956 86.2771 469.62 100.601 453.938C114.399 438.367 133.35 430.443 156.928 430.443C177.708 430.443 194.11 435.237 207.104 445.072C219.904 455.24 227.523 468.456 229.851 484.304H196.991C194.83 476.851 190.203 469.897 183.941 465.187C177.458 460.311 168.814 457.845 158.286 457.845C143.989 457.845 133.045 462.943 124.816 473.416V473.443C116.976 484.083 112.986 498.296 112.986 515.723C112.986 533.898 117.003 547.862 125.287 558.446C134.07 569.113 145.79 574.488 160.086 574.488C171.363 574.488 180.367 571.191 187.626 564.403C194.858 558.529 199.485 549.58 201.369 537.833L201.535 536.807H164.132V510.348H230.516V597.844H209.237C208.96 596.542 204.943 577.286 204.943 577.286L203.751 578.921C197.961 586.956 190.979 593.051 182.999 597.041C175.824 600.864 166.736 602.776 156.041 602.776C133.35 602.776 114.731 594.713 100.601 578.838Z" fill="white"/>
<path d="M479.816 739.202C483.889 740.532 486.992 742.333 489.264 745.464C491.508 748.622 492.395 752.196 492.395 756.685C492.395 762.503 490.649 767.075 486.549 770.15C482.725 773.004 477.655 774.638 472.446 774.638H453.329V708.227H473.083C482.697 708.227 490.123 714.073 490.123 724.352C490.123 727.953 489.236 731.084 487.435 733.772C485.717 736.404 482.974 738.094 479.816 739.202ZM469.925 718.09H465.88V735.129H469.925C475.134 735.129 477.987 731.195 477.987 726.152C478.015 719.725 475.134 718.09 469.925 718.09ZM479.816 755.355C479.816 751.116 478.569 748.65 476.907 747.126C475.134 745.519 471.726 745.02 469.509 745.02H465.907V764.775H472.446C475.688 764.747 479.816 762.78 479.816 755.355Z" fill="#231F20"/>
<path d="M504.502 708.225V774.637H517.053V749.508H522.899C528.302 749.064 532.79 747.264 536.392 744.105C540.409 740.06 542.21 735.156 542.21 728.396C542.21 721.691 540.409 716.731 536.808 713.129C533.677 709.999 528.745 708.198 522.899 708.198H504.502V708.225ZM529.022 728.423C529.022 736.126 525.504 740.088 520.184 740.088H517.053V718.117H520.184C524.811 718.089 529.022 720.167 529.022 728.423Z" fill="#231F20"/>
<path d="M508.991 246.474C505.389 252.292 503.588 261.269 503.588 272.49C503.588 283.711 505.389 292.244 508.991 298.063C512.593 303.909 517.497 307.012 524.257 307.012C530.989 307.012 535.921 303.881 539.523 298.063C543.125 292.217 544.926 283.711 544.926 272.49C544.926 261.269 543.125 252.292 539.523 246.474C535.921 240.184 531.017 237.026 524.257 237.026C517.497 237.026 512.565 240.184 508.991 246.474ZM532.292 272.49C532.292 280.857 531.876 287.534 530.491 291.081C529.189 294.544 527.36 296.289 524.201 296.289C521.071 296.289 519.242 294.572 517.94 291.081C516.582 287.534 516.167 280.857 516.167 272.49C516.167 263.845 516.582 256.891 517.94 253.179C519.242 249.577 521.071 247.804 524.229 247.804C527.388 247.804 529.216 249.577 530.491 253.179C531.876 256.864 532.292 263.818 532.292 272.49Z" fill="#231F20"/>
</g>
<defs>
<clipPath id="clip0_27_364">
<rect width="1000" height="1000" fill="white"/>
</clipPath>
</defs>
</svg>
