<svg width="601" height="697" viewBox="0 0 601 697" fill="none" xmlns="http://www.w3.org/2000/svg">
<path d="M277.4 654.497C284.78 658.8 288.47 660.953 293.677 662.07C297.72 662.937 303.613 662.937 307.657 662.07C312.863 660.953 316.553 658.8 323.933 654.497C388.867 616.613 567.333 497.613 567.333 334V154C567.333 135.402 567.333 126.103 563.753 119.016C560.58 112.733 555.623 107.717 549.377 104.47C542.333 100.806 532.877 100.695 513.96 100.471C414.907 99.2997 357.787 91.1203 300.667 34C243.547 91.1203 186.426 99.2997 87.3733 100.471C68.4577 100.695 58.9997 100.806 51.955 104.47C45.7097 107.717 40.753 112.733 37.5797 119.016C34 126.103 34 135.402 34 154V334C34 497.613 212.465 616.613 277.4 654.497Z" stroke="#AAAAAA" stroke-width="66.6667" stroke-linecap="round" stroke-linejoin="round"/>
</svg>
