<svg width="100" height="100" viewBox="0 0 100 100" fill="none" xmlns="http://www.w3.org/2000/svg">
<path fill-rule="evenodd" clip-rule="evenodd" d="M5.71744 81.8135C-1.90692 73.9034 -1.9047 27.095 5.71744 19.1849C16.0862 8.42302 86.561 8.12143 95.1742 19.1849C101.607 27.452 101.61 73.5442 95.1742 81.8135C86.5588 92.8769 16.0884 92.5798 5.71744 81.8135ZM57.1213 35.5927C57.708 36.3378 58.0013 37.2692 58.0013 38.3868C58.0013 39.3448 57.548 40.4625 56.6413 41.7398C55.788 42.9639 54.3747 44.0549 52.4013 45.0129C50.428 45.9177 47.8414 46.3701 44.6414 46.3701H41.7615L43.3614 60.7399H56.1613L56.4013 55.7903C59.2279 55.0984 61.9479 54.0606 64.5612 52.6768C67.2278 51.2398 69.4145 49.3505 71.1211 47.0087C72.8278 44.6137 73.6811 41.7398 73.6811 38.3868C73.6811 35.4064 73.0411 32.7985 71.7611 30.5632C70.4811 28.3279 68.7478 26.4652 66.5612 24.9749C64.4279 23.4315 62.0546 22.2873 59.4413 21.5422C56.828 20.7971 54.1613 20.4245 51.4414 20.4245C48.2947 20.4245 45.3081 20.8503 42.4815 21.7018C39.7082 22.5534 37.0682 23.8041 34.5615 25.4539C32.0549 27.0506 29.6549 29.0464 27.3616 31.4414L37.3615 40.3028C39.0148 37.9078 41.0681 36.1249 43.5214 34.954C45.9748 33.7831 48.3481 33.1977 50.6414 33.1977C52.2413 33.1977 53.5747 33.4106 54.6413 33.8364C55.7613 34.2089 56.588 34.7943 57.1213 35.5927ZM42.9615 67.1265C41.2015 68.7232 40.3215 70.5859 40.3215 72.7148C40.3215 74.8436 41.2015 76.7064 42.9615 78.303C44.7214 79.8997 46.9881 80.698 49.7614 80.698C52.588 80.698 54.8547 79.8997 56.5613 78.303C58.3213 76.7064 59.2013 74.8436 59.2013 72.7148C59.2013 70.5859 58.3213 68.7232 56.5613 67.1265C54.8547 65.5299 52.588 64.7315 49.7614 64.7315C46.9881 64.7315 44.7214 65.5299 42.9615 67.1265Z" fill="#59168B"/>
<path d="M58.0898 38.1788C58.0898 37.0477 57.7922 36.1051 57.1969 35.351C56.6557 34.543 55.8169 33.9506 54.6805 33.5735C53.5982 33.1426 52.2453 32.9272 50.6218 32.9272C48.2948 32.9272 45.8866 33.5196 43.3972 34.7046C40.9079 35.8896 38.8244 37.694 37.1468 40.1179L27 31.1497C29.327 28.7258 31.7622 26.706 34.3057 25.0901C36.8492 23.4203 39.5279 22.1545 42.342 21.2927C45.2101 20.4309 48.2406 20 51.4335 20C54.1934 20 56.8993 20.377 59.551 21.1311C62.2027 21.8852 64.6108 23.0433 66.7755 24.6053C68.9942 26.1135 70.753 27.9987 72.0518 30.2609C73.3506 32.5232 74 35.1625 74 38.1788C74 41.5722 73.1341 44.4808 71.4024 46.9046C69.6707 49.2746 67.4519 51.1868 64.7461 52.6411C62.0944 54.0415 59.3345 55.0918 56.4663 55.7921L56.2228 60.8013H43.2349L41.6114 46.2583H44.5337C47.7807 46.2583 50.4053 45.8004 52.4076 44.8848C54.4099 43.9152 55.844 42.811 56.7098 41.5722C57.6298 40.2795 58.0898 39.1483 58.0898 38.1788ZM40.1503 72.9205C40.1503 70.766 41.0432 68.8808 42.829 67.2649C44.6149 65.649 46.9148 64.8411 49.7288 64.8411C52.597 64.8411 54.897 65.649 56.6287 67.2649C58.4145 68.8808 59.3074 70.766 59.3074 72.9205C59.3074 75.0751 58.4145 76.9603 56.6287 78.5762C54.897 80.1921 52.597 81 49.7288 81C46.9148 81 44.6149 80.1921 42.829 78.5762C41.0432 76.9603 40.1503 75.0751 40.1503 72.9205Z" fill="white"/>
</svg>
