<svg width="500" height="172" viewBox="0 0 500 172" fill="none" xmlns="http://www.w3.org/2000/svg">
<path d="M490.578 51.3113C484.717 43.8669 462.119 39.4641 435.905 38.0004C435.919 37.8178 435.979 37.638 435.979 37.4497C435.979 33.5805 433.168 30.1051 428.697 27.6626L448.754 7.60635C450.24 8.31113 452.061 8.08286 453.293 6.85021C454.863 5.28657 454.863 2.74422 453.293 1.17487C451.724 -0.391624 449.184 -0.391624 447.618 1.17487C446.385 2.41038 446.16 4.22512 446.865 5.71457L426.138 26.4414C422.471 24.9548 418.029 24.076 413.238 24.076C408.447 24.076 404.007 24.9548 400.338 26.4414L379.611 5.71457C380.316 4.22797 380.09 2.41038 378.858 1.17487C377.291 -0.391624 374.749 -0.391624 373.182 1.17487C371.616 2.74422 371.616 5.28657 373.182 6.85021C374.415 8.08286 376.232 8.31113 377.722 7.60635L397.778 27.6626C393.31 30.1023 390.496 33.5777 390.496 37.4497C390.496 37.7436 390.582 38.0175 390.611 38.3085C365.675 40.0377 344.149 44.4033 337.418 51.3142C324.373 64.6964 324.37 143.957 337.418 157.345C338.833 158.797 340.911 160.139 343.53 161.365C340.351 163.808 338.34 167.306 338.34 171.201H370.44C370.44 170.157 370.28 169.144 370.009 168.168C383.611 170.185 399.781 171.201 415.834 171.201C430.09 171.201 444.245 170.399 456.423 168.779C456.383 168.781 456.352 168.787 456.315 168.793C456.144 169.575 456.041 170.376 456.041 171.201H488.141C488.141 167.68 486.495 164.484 483.827 162.099C483.781 162.122 483.73 162.139 483.684 162.159C486.817 160.723 489.174 159.126 490.575 157.342C501.601 143.341 501.592 65.3042 490.578 51.3113ZM486.372 154.032C481.864 159.762 455.61 165.854 415.834 165.854C374.703 165.854 347.185 159.696 341.256 153.613C337.147 149.393 332.99 131.111 332.99 104.327C332.99 77.5423 337.15 59.2608 341.256 55.0464C347.182 48.963 374.7 42.8054 415.834 42.8054C455.607 42.8054 481.864 48.8945 486.372 54.6241C489.91 59.1153 493.489 77.6307 493.491 104.33C493.494 131.029 489.91 149.541 486.372 154.032Z" fill="white"/>
<path d="M480.831 85.603C485.264 85.603 488.858 82.0094 488.858 77.5765C488.858 73.1436 485.264 69.55 480.831 69.55C476.398 69.55 472.805 73.1436 472.805 77.5765C472.805 82.0094 476.398 85.603 480.831 85.603Z" fill="white"/>
<path d="M480.831 109.677C485.264 109.677 488.858 106.083 488.858 101.65C488.858 97.2175 485.264 93.6239 480.831 93.6239C476.398 93.6239 472.805 97.2175 472.805 101.65C472.805 106.083 476.398 109.677 480.831 109.677Z" fill="white"/>
<path fill-rule="evenodd" clip-rule="evenodd" d="M348.355 144.616C338.565 134.438 338.568 74.2095 348.355 64.0316C361.669 50.1842 452.161 49.7961 463.22 64.0316C471.481 74.6689 471.483 133.976 463.22 144.616C452.158 158.852 361.672 158.469 348.355 144.616ZM414.359 85.1436C415.112 86.1023 415.489 87.3007 415.489 88.7388C415.489 89.9715 414.907 91.4096 413.743 93.0531C412.647 94.6282 410.832 96.032 408.299 97.2647C405.765 98.4289 402.443 99.0109 398.335 99.0109H394.637L396.691 117.501H413.126L413.435 111.132C417.064 110.242 420.557 108.906 423.912 107.126C427.336 105.277 430.144 102.846 432.335 99.8327C434.527 96.7511 435.622 93.0531 435.622 88.7388C435.622 84.9039 434.801 81.5484 433.157 78.6722C431.514 75.796 429.288 73.3992 426.48 71.4817C423.741 69.4958 420.694 68.0234 417.338 67.0647C413.982 66.106 410.558 65.6266 407.066 65.6266C403.026 65.6266 399.191 66.1744 395.561 67.2701C392 68.3658 388.61 69.9751 385.392 72.098C382.173 74.1524 379.092 76.7205 376.147 79.8021L388.987 91.2041C391.11 88.1225 393.746 85.8284 396.897 84.3218C400.047 82.8153 403.094 82.062 406.039 82.062C408.093 82.062 409.805 82.3359 411.175 82.8837C412.613 83.3631 413.674 84.1164 414.359 85.1436ZM396.177 125.718C393.918 127.773 392.788 130.17 392.788 132.909C392.788 135.648 393.918 138.045 396.177 140.099C398.437 142.154 401.348 143.181 404.909 143.181C408.538 143.181 411.449 142.154 413.64 140.099C415.9 138.045 417.03 135.648 417.03 132.909C417.03 130.17 415.9 127.773 413.64 125.718C411.449 123.664 408.538 122.637 404.909 122.637C401.348 122.637 398.437 123.664 396.177 125.718Z" fill="white"/>
<path d="M36.3518 48.963C36.5116 50.6142 36.5915 52.2919 36.5915 53.9963L36.5116 55.4344V56.8725C36.4051 58.6302 36.3518 61.2134 36.3518 64.6223C36.3518 68.4039 36.2719 71.2801 36.1122 73.2508L35.8725 75.8873C35.6062 80.2016 34.5143 83.8767 32.5968 86.9127C31.7979 88.0312 30.5995 89.0166 29.0016 89.8688C27.4037 90.721 25.646 91.4134 23.7286 91.9461C21.7578 92.5319 19.4409 92.8249 16.7778 92.8249C15.5527 92.8249 14.7005 92.7983 14.2212 92.745C11.6113 92.532 9.26772 91.9727 7.19047 91.0672C5.16649 90.1085 3.67513 88.7237 2.7164 86.9127C1.43809 84.5159 0.745679 81.5066 0.639153 77.8847L0.479365 75.3281C0.426102 74.902 0.399471 74.0231 0.399471 72.6916C0.133157 68.324 0 64.1429 0 60.1482C0 57.6981 0.0798942 55.248 0.239682 52.7979C0.399471 50.1348 0.852204 47.5515 1.59788 45.0482C2.39682 42.4916 3.59524 40.2545 5.19312 38.3371L6.95079 37.3784C10.3596 35.7272 14.088 34.9016 18.136 34.9016C20.6926 34.9016 23.0894 35.2478 25.3264 35.9403C27.6167 36.5794 29.6141 37.5381 31.3185 38.8164C33.1827 40.5209 34.4077 42.1986 34.9936 43.8498C35.6328 45.5542 36.0855 47.2586 36.3518 48.963ZM23.9682 57.6715L23.6487 53.517C23.5421 52.0256 23.1693 50.7207 22.5301 49.6022C21.9443 48.4304 21.1719 47.6048 20.2132 47.1254C19.7871 46.9656 19.361 46.8858 18.9349 46.8858C17.6566 46.8858 16.4049 47.3119 15.1799 48.1641C14.5407 48.6967 13.9016 49.469 13.2624 50.481C12.6765 51.4397 12.2238 52.4251 11.9042 53.4371C11.3716 55.7806 11.1053 58.7634 11.1053 62.3852C11.1053 64.1962 11.1319 65.5544 11.1852 66.4598V66.3799C11.3982 67.4452 11.558 68.8566 11.6645 70.6143L11.7444 71.7328C11.9575 74.396 12.2504 76.3667 12.6233 77.645V77.5651C13.1026 78.6304 13.7951 79.4559 14.7005 80.0418C15.6593 80.5745 16.6712 80.8408 17.7365 80.8408C18.5887 80.8408 19.4409 80.6544 20.2931 80.2815C21.1986 79.8554 21.9709 79.2695 22.61 78.5238C23.1427 77.8314 23.4623 77.2455 23.5688 76.7662C23.7286 76.2868 23.8085 75.5411 23.8085 74.5291C23.8085 73.6237 23.8351 72.9579 23.8883 72.5318L23.9682 71.4932L24.0481 69.9752V68.8566L24.128 67.3387V63.5037L23.9682 58.0709V57.6715Z" fill="white"/>
<path d="M67.862 84.5958C64.5064 77.2455 62.296 72.1589 61.2307 69.336V84.6757C61.2307 87.978 61.2574 90.2416 61.3106 91.4667C59.8725 91.8928 58.3013 92.1058 56.5969 92.1058C56.0643 92.1058 55.2653 92.0526 54.2001 91.9461C53.0283 91.8395 52.1761 91.7863 51.6434 91.7863L47.7286 91.6265V85.6344C47.7286 82.2256 47.6754 77.3787 47.5688 71.0937C47.5156 67.9512 47.489 63.1842 47.489 56.7926C47.489 48.2173 47.7286 41.0269 48.208 35.2212C49.6461 34.8484 51.244 34.6619 53.0016 34.6619C54.1734 34.6619 55.5849 34.7685 57.236 34.9815C58.9404 35.1946 60.1122 35.5142 60.7514 35.9403C61.4971 37.3251 62.4025 39.2692 63.4678 41.7725C64.5863 44.2226 65.6516 46.6727 66.6635 49.1228L69.8593 56.4731C69.7528 52.7447 69.6995 48.3505 69.6995 43.2905C69.6995 39.1893 69.7262 36.3664 69.7794 34.8217C71.9632 34.3956 74.2801 34.1826 76.7302 34.1826C78.8075 34.1826 80.9646 34.4223 83.2016 34.9016V91.5466C83.0419 91.5466 82.7223 91.6265 82.2429 91.7863C81.7103 91.9993 80.7782 92.1058 79.4466 92.1058C79.1803 92.1591 77.7688 92.0792 75.2122 91.8662C74.5731 91.8129 73.7475 91.7596 72.7355 91.7064C71.7768 91.6531 71.2175 91.6531 71.0577 91.7064L67.862 84.5958Z" fill="white"/>
<path d="M125.709 41.7725C128.212 45.714 129.864 49.6821 130.663 53.6768V53.5969C131.089 54.9284 131.355 56.6595 131.461 58.79C131.355 60.3879 131.302 61.5863 131.302 62.3852L131.222 63.6635C131.222 64.0364 131.169 65.288 131.062 67.4185C130.955 69.5491 130.689 71.6529 130.263 73.7302C129.251 76.7129 127.84 79.6424 126.029 82.5185C124.271 85.3415 122.167 88.2709 119.717 91.3069C115.243 91.4134 111.568 91.4667 108.692 91.4667L102.939 91.5466L96.7075 91.6265C95.7488 84.6491 95.2694 75.8607 95.2694 65.2614C95.2694 60.6275 95.296 57.1655 95.3493 54.8752C95.4025 52.7979 95.4292 49.2293 95.4292 44.1694C95.4292 42.891 95.3759 40.9736 95.2694 38.417L95.1895 36.0201L95.7488 35.9403C98.5717 35.1946 101.847 34.8217 105.576 34.8217L107.653 34.9016H109.81C110.503 34.9549 111.568 34.9815 113.006 34.9815C114.444 34.9815 115.509 34.9549 116.202 34.9016C118.172 35.4343 120.063 36.393 121.874 37.7778C123.685 39.1094 125.123 40.654 126.188 42.4117L125.709 41.7725ZM118.439 63.9032C118.439 62.9445 118.332 62.0124 118.119 61.1069C117.693 58.8699 117.187 57.0589 116.601 55.6741C116.015 54.236 115.11 53.3039 113.885 52.8778H114.045C112.766 52.7713 111.807 52.718 111.168 52.718C110.103 52.718 109.411 52.7713 109.091 52.8778C109.198 54.7953 109.251 56.6062 109.251 58.3106V60.3879L109.171 62.545C109.118 63.7701 109.091 65.6076 109.091 68.0577C109.091 70.4013 109.064 72.1856 109.011 73.4106C109.81 73.7302 110.369 73.89 110.689 73.89H111.728C112.58 73.89 113.192 73.8101 113.565 73.6503C114.417 73.4372 115.376 72.4785 116.441 70.7741C117.773 68.7501 118.439 66.4598 118.439 63.9032Z" fill="white"/>
<path d="M178.233 84.1963C178.233 86.9127 177.94 89.3362 177.354 91.4667C175.011 91.4667 171.549 91.52 166.968 91.6265L156.502 91.7064C151.762 91.7064 147.021 91.5466 142.281 91.227C142.334 89.5226 142.254 82.8914 142.041 71.3334C141.881 64.782 141.801 59.7487 141.801 56.2334C141.801 48.9364 141.988 42.1454 142.361 35.8604L149.391 35.6207C157.274 35.3011 163.293 35.1413 167.448 35.1413C171.016 35.1413 174.478 35.2745 177.834 35.5408C178.047 36.6593 178.153 37.9642 178.153 39.4556C178.153 40.2545 178.1 41.5595 177.994 43.3704C177.887 45.0748 177.834 46.4064 177.834 47.3651C174.638 48.0575 171.069 48.4037 167.128 48.4037L156.742 48.4836C156.475 50.987 156.342 53.0642 156.342 54.7154C156.342 55.9937 156.502 57.1122 156.822 58.0709L162.095 57.4318C162.84 57.4318 163.959 57.485 165.45 57.5916L166.489 57.6715C166.755 59.2694 166.888 61.0004 166.888 62.8646L166.728 69.2561C165.024 69.7355 162.734 69.9752 159.858 69.9752L157.78 69.8953C157.407 69.8953 157.168 69.9485 157.061 70.0551L156.742 74.2096C156.742 76.3933 156.848 78.2043 157.061 79.6424C159.831 79.6424 162.521 79.7223 165.131 79.882C166.036 79.9353 167.155 79.9886 168.486 80.0418C169.818 80.0951 171.389 80.1217 173.2 80.1217L178.073 79.9619C178.18 82.412 178.233 83.8235 178.233 84.1963Z" fill="white"/>
<path d="M245.983 36.2598C244.332 45.0482 242.467 53.5969 240.39 61.9059C238.313 70.2148 235.703 80.1217 232.561 91.6265C231.389 91.6265 230.59 91.6531 230.164 91.7064L229.365 91.7863C228.406 91.8928 227.421 91.9461 226.409 91.9461C223.053 91.9461 220.443 91.6265 218.579 90.9873C213.945 74.6357 210.829 56.6062 209.232 36.899C209.711 36.3664 210.696 35.9669 212.188 35.7006C213.679 35.4343 215.33 35.3011 217.141 35.3011C218.845 35.3011 220.763 35.4875 222.893 35.8604L223.373 42.9709C223.692 48.244 224.039 52.8246 224.411 56.7127C224.784 60.5477 225.317 64.3559 226.009 68.1376C226.648 65.2081 227.634 59.8819 228.965 52.1588C230.563 42.7313 231.629 37.112 232.161 35.3011C234.238 35.7272 236.609 35.9403 239.272 35.9403C241.935 35.9403 243.826 36.0468 244.944 36.2598H245.983Z" fill="white"/>
<path d="M286.18 91.5466C284.476 91.9194 282.638 92.1058 280.668 92.1058C278.324 92.1058 275.767 91.8129 272.998 91.227C272.625 90.215 272.039 88.0845 271.24 84.8355C270.441 81.5332 269.802 79.3494 269.323 78.2842L267.725 78.2043L266.366 78.2842C266.153 78.9233 265.807 80.4946 265.328 82.9979C264.955 85.0752 264.582 86.7796 264.209 88.1111C263.836 89.3894 263.304 90.5612 262.611 91.6265C262.079 91.733 261.28 91.7863 260.215 91.7863C259.735 91.7863 258.697 91.733 257.099 91.6265C252.465 91.4134 249.882 91.3069 249.349 91.3069C249.349 91.0406 249.402 90.4281 249.509 89.4693C249.615 88.4573 249.775 87.3388 249.988 86.1138L251.746 76.0471C253.131 67.7914 254.436 60.6009 255.661 54.4757C256.939 48.3505 258.59 41.8791 260.614 35.0614C261.36 34.9549 262.372 34.9016 263.65 34.9016H264.129C267.592 34.9016 270.974 34.7685 274.276 34.5022C274.915 37.0055 275.501 39.4822 276.034 41.9323C276.566 44.3291 277.046 46.4863 277.472 48.4037C279.176 55.8073 280.321 60.7341 280.907 63.1842L286.18 91.5466ZM269.482 68.0577C268.311 57.4052 267.751 52.0789 267.805 52.0789L267.725 51.2799C267.725 51.2799 267.671 51.9191 267.565 53.1974C267.405 57.1921 267.165 60.3612 266.846 62.7048L266.127 68.0577H269.482Z" fill="white"/>
<path d="M311.554 35.4609C311.554 41.6926 311.474 47.9776 311.314 54.3159C311.101 62.7314 310.995 69.3626 310.995 74.2096C310.995 79.8021 311.155 85.3681 311.474 90.9074C310.675 91.7064 308.598 92.1058 305.242 92.1058C303.325 92.1058 301.914 92.0792 301.008 92.0259L300.049 91.9461L298.611 91.8662C297.546 91.8662 296.188 92.0792 294.537 92.5053C294.856 87.8715 295.016 82.9447 295.016 77.7249C295.016 75.6477 294.963 72.585 294.856 68.5371L294.776 63.9032C294.563 58.2574 294.457 53.6768 294.457 50.1614C294.457 44.8884 294.696 39.6953 295.176 34.5821C295.868 34.4755 296.614 34.4223 297.413 34.4223C297.839 34.4223 298.425 34.4755 299.17 34.5821C299.916 34.6353 300.795 34.6353 301.807 34.5821C304.577 34.7418 306.787 34.7951 308.438 34.7418H311.554V35.4609Z" fill="white"/>
<path d="M90.4633 132.053C90.4633 133.065 90.4366 133.784 90.3834 134.21C90.0105 137.246 88.8388 140.042 86.868 142.599C84.8973 145.156 82.4472 147.18 79.5178 148.671C76.5883 150.109 73.4991 150.828 70.25 150.828C70.0903 150.828 69.8772 150.855 69.6109 150.908C69.3446 150.908 69.025 150.881 68.6522 150.828C68.7054 151.467 68.7054 152.106 68.6522 152.746C68.6522 153.385 68.6522 153.971 68.6522 154.503V170.722L67.7733 170.802C66.3352 171.228 63.8319 171.441 60.2633 171.441C57.6001 171.441 55.1501 171.308 52.913 171.041C52.7 165.875 52.5934 156.9 52.5934 144.117V134.45C52.5934 125.768 52.5135 119.456 52.3538 115.515C56.455 114.343 60.7426 113.757 65.2167 113.757C72.0876 113.757 77.9199 115.222 82.7135 118.151C87.5604 121.028 90.1437 125.635 90.4633 131.973V132.053ZM74.6442 128.458C73.792 127.712 72.8599 127.233 71.8479 127.02C70.8359 126.807 69.7973 126.7 68.7321 126.7C67.7201 126.647 66.9478 126.62 66.4151 126.62C66.4684 127.472 66.495 128.91 66.495 130.934V131.653C66.495 133.251 66.5217 134.583 66.5749 135.648C66.6814 136.66 66.8679 137.566 67.1342 138.365H68.2527C68.6255 138.365 69.3978 138.365 70.5696 138.365C71.7947 138.365 72.8333 138.205 73.6855 137.885C74.591 137.566 75.2834 137.033 75.7627 136.287C76.2954 135.382 76.5617 134.343 76.5617 133.171C76.5617 131.733 76.1356 130.402 75.2834 129.177L74.6442 128.458Z" fill="white"/>
<path d="M130.746 171.441C129.041 171.814 127.204 172 125.233 172C122.889 172 120.333 171.707 117.563 171.121C117.19 170.109 116.604 167.979 115.805 164.73C115.006 161.427 114.367 159.244 113.888 158.178L112.29 158.098L110.932 158.178C110.719 158.817 110.373 160.389 109.893 162.892C109.52 164.969 109.147 166.674 108.775 168.005C108.402 169.284 107.869 170.455 107.177 171.521C106.644 171.627 105.845 171.68 104.78 171.68C104.301 171.68 103.262 171.627 101.664 171.521C97.0302 171.308 94.4469 171.201 93.9143 171.201C93.9143 170.935 93.9676 170.322 94.0741 169.363C94.1806 168.351 94.3404 167.233 94.5535 166.008L96.3111 155.941C97.696 147.686 99.0009 140.495 100.226 134.37C101.504 128.245 103.155 121.773 105.179 114.956C105.925 114.849 106.937 114.796 108.215 114.796H108.695C112.157 114.796 115.539 114.663 118.841 114.396C119.48 116.9 120.066 119.376 120.599 121.826C121.132 124.223 121.611 126.38 122.037 128.298C123.741 135.701 124.887 140.628 125.473 143.078L130.746 171.441ZM114.048 147.952C112.876 137.299 112.317 131.973 112.37 131.973L112.29 131.174C112.29 131.174 112.237 131.813 112.13 133.092C111.97 137.086 111.731 140.255 111.411 142.599L110.692 147.952H114.048Z" fill="white"/>
<path d="M173.711 133.731C171.474 134.104 169.264 134.29 167.08 134.29C164.47 134.29 162.18 133.997 160.209 133.411C160.315 132.878 160.369 132.506 160.369 132.293C160.369 131.068 159.916 130.056 159.011 129.257C158.105 128.458 157.093 128.058 155.975 128.058C155.176 128.058 154.457 128.325 153.817 128.857C153.232 129.337 152.885 130.082 152.779 131.094C152.619 131.574 152.539 132 152.539 132.372L152.619 133.092C152.619 133.198 152.619 133.251 152.619 133.251C152.992 134.37 153.525 135.142 154.217 135.568C154.963 135.994 155.841 136.287 156.853 136.447C159.517 136.82 162.206 137.805 164.923 139.403C167.639 141.001 169.823 142.865 171.474 144.996C172.486 146.381 173.285 147.925 173.871 149.63C174.457 151.281 174.75 152.905 174.75 154.503C174.75 157.273 174.137 159.963 172.912 162.572C171.527 165.555 169.397 167.872 166.521 169.523C163.644 171.174 160.502 172 157.093 172C153.631 172 150.249 171.334 146.947 170.003C143.698 168.618 141.061 166.647 139.037 164.09C137.013 161.534 136.108 158.578 136.321 155.222V154.503C137.865 154.237 139.57 154.104 141.434 154.104C143.032 154.104 144.39 154.13 145.508 154.184C146.52 154.237 148.331 154.263 150.941 154.263C150.995 155.861 151.474 157.113 152.379 158.019C153.338 158.924 154.43 159.377 155.655 159.377C156.72 159.377 157.599 159.031 158.292 158.338C159.037 157.646 159.41 156.66 159.41 155.382C159.41 154.903 159.383 154.53 159.33 154.263C159.064 152.293 158.132 150.908 156.534 150.109C154.936 149.31 152.779 148.644 150.062 148.112L148.864 147.872C146.574 147.446 144.576 146.514 142.872 145.076C140.954 143.211 139.516 141.214 138.558 139.084C137.599 136.953 137.12 134.823 137.12 132.692C137.12 129.23 138.158 125.981 140.235 122.945C142.366 119.856 145.109 117.619 148.465 116.234C150.542 115.382 153.125 114.956 156.214 114.956C160.209 114.956 163.857 115.701 167.16 117.193C169.61 118.471 171.554 120.149 172.992 122.226C174.43 124.303 175.149 126.753 175.149 129.576C175.149 130.641 174.989 132.026 174.67 133.731H173.711Z" fill="white"/>
<path d="M220.477 133.731C218.24 134.104 216.03 134.29 213.846 134.29C211.236 134.29 208.946 133.997 206.975 133.411C207.082 132.878 207.135 132.506 207.135 132.293C207.135 131.068 206.682 130.056 205.777 129.257C204.871 128.458 203.859 128.058 202.741 128.058C201.942 128.058 201.223 128.325 200.584 128.857C199.998 129.337 199.652 130.082 199.545 131.094C199.385 131.574 199.305 132 199.305 132.372L199.385 133.092C199.385 133.198 199.385 133.251 199.385 133.251C199.758 134.37 200.291 135.142 200.983 135.568C201.729 135.994 202.608 136.287 203.62 136.447C206.283 136.82 208.973 137.805 211.689 139.403C214.405 141.001 216.589 142.865 218.24 144.996C219.252 146.381 220.051 147.925 220.637 149.63C221.223 151.281 221.516 152.905 221.516 154.503C221.516 157.273 220.903 159.963 219.678 162.572C218.293 165.555 216.163 167.872 213.287 169.523C210.411 171.174 207.268 172 203.859 172C200.397 172 197.015 171.334 193.713 170.003C190.464 168.618 187.827 166.647 185.803 164.09C183.779 161.534 182.874 158.578 183.087 155.222V154.503C184.631 154.237 186.336 154.104 188.2 154.104C189.798 154.104 191.156 154.13 192.275 154.184C193.287 154.237 195.098 154.263 197.707 154.263C197.761 155.861 198.24 157.113 199.146 158.019C200.104 158.924 201.196 159.377 202.421 159.377C203.486 159.377 204.365 159.031 205.058 158.338C205.803 157.646 206.176 156.66 206.176 155.382C206.176 154.903 206.15 154.53 206.096 154.263C205.83 152.293 204.898 150.908 203.3 150.109C201.702 149.31 199.545 148.644 196.829 148.112L195.63 147.872C193.34 147.446 191.343 146.514 189.638 145.076C187.721 143.211 186.283 141.214 185.324 139.084C184.365 136.953 183.886 134.823 183.886 132.692C183.886 129.23 184.924 125.981 187.002 122.945C189.132 119.856 191.875 117.619 195.231 116.234C197.308 115.382 199.891 114.956 202.98 114.956C206.975 114.956 210.624 115.701 213.926 117.193C216.376 118.471 218.32 120.149 219.758 122.226C221.196 124.303 221.915 126.753 221.915 129.576C221.915 130.641 221.756 132.026 221.436 133.731H220.477Z" fill="white"/>
<path d="M265.582 171.441C263.878 171.814 262.041 172 260.07 172C257.726 172 255.17 171.707 252.4 171.121C252.027 170.109 251.441 167.979 250.642 164.73C249.843 161.427 249.204 159.244 248.725 158.178L247.127 158.098L245.769 158.178C245.556 158.817 245.209 160.389 244.73 162.892C244.357 164.969 243.984 166.674 243.612 168.005C243.239 169.284 242.706 170.455 242.014 171.521C241.481 171.627 240.682 171.68 239.617 171.68C239.138 171.68 238.099 171.627 236.501 171.521C231.867 171.308 229.284 171.201 228.751 171.201C228.751 170.935 228.805 170.322 228.911 169.363C229.018 168.351 229.177 167.233 229.39 166.008L231.148 155.941C232.533 147.686 233.838 140.495 235.063 134.37C236.341 128.245 237.992 121.773 240.016 114.956C240.762 114.849 241.774 114.796 243.052 114.796H243.532C246.994 114.796 250.376 114.663 253.678 114.396C254.317 116.9 254.903 119.376 255.436 121.826C255.969 124.223 256.448 126.38 256.874 128.298C258.578 135.701 259.724 140.628 260.309 143.078L265.582 171.441ZM248.885 147.952C247.713 137.299 247.154 131.973 247.207 131.973L247.127 131.174C247.127 131.174 247.074 131.813 246.967 133.092C246.807 137.086 246.568 140.255 246.248 142.599L245.529 147.952H248.885Z" fill="white"/>
<path d="M306.216 156.341C308.347 159.59 310.051 162.333 311.329 164.57C312.661 166.807 313.753 169.071 314.605 171.361H313.327C312.688 171.361 311.249 171.414 309.012 171.521C306.775 171.627 304.991 171.68 303.66 171.68C302.914 171.68 301.795 171.627 300.304 171.521L298.946 171.441C295.484 163.558 292.394 157.646 289.678 153.704V155.781C289.678 159.084 289.864 163.345 290.237 168.565V168.485C290.291 168.857 290.317 169.497 290.317 170.402C288.506 171.254 285.524 171.68 281.369 171.68L279.452 171.601H275.217C274.631 171.601 274.338 166.78 274.338 157.14C274.338 148.405 274.258 139.67 274.099 130.934C273.939 122.146 273.699 116.873 273.38 115.115L275.537 114.796C278.733 114.37 281.369 114.05 283.446 113.837C285.524 113.624 287.654 113.517 289.838 113.517C292.181 113.517 294.179 113.624 295.83 113.837C298.919 114.21 301.795 115.275 304.458 117.033C307.175 118.79 309.332 120.948 310.93 123.504C312.581 126.061 313.407 128.697 313.407 131.414C313.407 134.024 312.554 136.873 310.85 139.962C309.785 141.88 308.373 143.478 306.616 144.756C304.858 146.034 302.754 146.807 300.304 147.073C301.742 149.63 303.42 152.293 305.337 155.062C305.71 155.702 306.003 156.128 306.216 156.341ZM294.711 135.968C295.457 135.755 296.043 135.222 296.469 134.37C296.895 133.518 297.108 132.506 297.108 131.334C297.108 129.15 296.576 127.739 295.51 127.099C294.818 126.673 294.099 126.407 293.353 126.301C292.661 126.194 291.862 126.141 290.956 126.141L287.521 126.7C287.627 128.298 287.681 129.656 287.681 130.775C287.681 133.651 287.761 135.408 287.92 136.048C288.826 136.154 289.944 136.207 291.276 136.207C292.501 136.207 293.646 136.128 294.711 135.968Z" fill="white"/>
</svg>
