<svg width="1000" height="1000" viewBox="0 0 1000 1000" fill="none" xmlns="http://www.w3.org/2000/svg">
<g clip-path="url(#clip0_27_552)">
<path d="M0 1V388.333L499.918 1000.01L1000 388.333V1H0Z" fill="black"/>
<path d="M6.63257 7.63281V386.01L499.918 989.396L993.371 386.01V7.63281H6.63257Z" fill="white"/>
<path d="M579.673 366.941V811.147L942.962 366.941H579.673Z" fill="black"/>
<path d="M57.0386 366.941L420.495 811.147V366.941H57.0386Z" fill="#ED1C24"/>
<path d="M942.963 53.394H57.0386V319.685H942.963V53.394Z" fill="black"/>
<path d="M903.83 158.684V130.828C903.83 110.433 887.085 93.686 866.689 93.686H772.842C752.447 93.686 735.7 110.433 735.7 130.828V242.252C735.7 262.647 752.447 279.394 772.842 279.394H866.689C887.085 279.394 903.83 262.647 903.83 242.252V214.398H866.689V232.967C866.689 238.107 862.545 242.252 857.403 242.252H782.127C776.987 242.252 772.842 238.107 772.842 232.967V140.113C772.842 134.973 776.987 130.828 782.127 130.828H857.403C862.545 130.828 866.689 134.973 866.689 140.113V158.684H903.83Z" fill="white"/>
<path d="M96.3359 130.829V167.971C96.3359 188.366 112.915 205.112 133.477 205.112H218.041C223.015 205.112 227.326 209.258 227.326 214.398V232.969C227.326 238.109 223.015 242.254 218.041 242.254H96.3359V279.396H227.326C247.719 279.396 264.468 262.649 264.468 242.254V205.112C264.468 184.718 247.719 167.971 227.326 167.971H142.763C137.623 167.971 133.477 163.826 133.477 158.686V140.115C133.477 134.975 137.623 130.829 142.763 130.829H264.468V93.688H133.477C112.915 93.688 96.3359 110.435 96.3359 130.829Z" fill="white"/>
<path d="M440.556 93.688H309.566V279.396H346.708V205.112H440.556C460.953 205.112 477.532 188.366 477.532 167.971V130.829C477.532 110.433 460.953 93.688 440.556 93.688ZM440.556 158.684C440.556 163.824 436.247 167.969 431.271 167.969H346.708V130.828H431.271C436.247 130.828 440.556 135.139 440.556 140.113V158.684Z" fill="white"/>
<path d="M522.468 279.394H559.61V205.113H653.458V167.969H559.61V130.828H690.6V93.688H522.468V279.394Z" fill="white"/>
</g>
<defs>
<clipPath id="clip0_27_552">
<rect width="1000" height="1000" fill="white"/>
</clipPath>
</defs>
</svg>
